<?xml version="1.0" encoding="utf-8" standalone="no"?>
<!DOCTYPE svg PUBLIC "-//W3C//DTD SVG 1.1//EN"
  "http://www.w3.org/Graphics/SVG/1.1/DTD/svg11.dtd">
<svg height="540.405497pt" version="1.1" viewBox="0 0 922.065625 540.405497" width="922.065625pt" xmlns="http://www.w3.org/2000/svg" xmlns:xlink="http://www.w3.org/1999/xlink">
 <metadata>
  <rdf:RDF xmlns:cc="http://creativecommons.org/ns#" xmlns:dc="http://purl.org/dc/elements/1.1/" xmlns:rdf="http://www.w3.org/1999/02/22-rdf-syntax-ns#">
   <cc:Work>
    <dc:type rdf:resource="http://purl.org/dc/dcmitype/StillImage"/>
    <dc:date>2021-06-17T17:22:43.057631</dc:date>
    <dc:format>image/svg+xml</dc:format>
    <dc:creator>
     <cc:Agent>
      <dc:title>Matplotlib v3.4.1, https://matplotlib.org/</dc:title>
     </cc:Agent>
    </dc:creator>
   </cc:Work>
  </rdf:RDF>
 </metadata>
 <defs>
  <style type="text/css">*{stroke-linecap:butt;stroke-linejoin:round;}</style>
 </defs>
 <g id="figure_1">
  <g id="patch_1">
   <path d="M 0 540.405497 
L 922.065625 540.405497 
L 922.065625 0 
L 0 0 
z
" style="fill:none;"/>
  </g>
  <g id="axes_1">
   <g id="patch_2">
    <path d="M 29.265625 475.93385 
L 922.065625 475.93385 
L 922.065625 41.05385 
L 29.265625 41.05385 
z
" style="fill:#ffffff;"/>
   </g>
   <g id="matplotlib.axis_1">
    <g id="xtick_1">
     <g id="line2d_1">
      <path clip-path="url(#p3a2a5e82c9)" d="M 69.847443 475.93385 
L 69.847443 41.05385 
" style="fill:none;stroke:#b0b0b0;stroke-linecap:square;stroke-width:0.3;"/>
     </g>
     <g id="line2d_2">
      <defs>
       <path d="M 0 0 
L 0 3.5 
" id="md99e25c6ce" style="stroke:#000000;stroke-width:0.8;"/>
      </defs>
      <g>
       <use style="stroke:#000000;stroke-width:0.8;" x="69.847443" xlink:href="#md99e25c6ce" y="475.93385"/>
      </g>
     </g>
     <g id="text_1">
      <!-- 2020/01/20 -->
      <g transform="translate(62.583815 539.694202)rotate(-70)scale(0.1 -0.1)">
       <defs>
        <path d="M 1228 531 
L 3431 531 
L 3431 0 
L 469 0 
L 469 531 
Q 828 903 1448 1529 
Q 2069 2156 2228 2338 
Q 2531 2678 2651 2914 
Q 2772 3150 2772 3378 
Q 2772 3750 2511 3984 
Q 2250 4219 1831 4219 
Q 1534 4219 1204 4116 
Q 875 4013 500 3803 
L 500 4441 
Q 881 4594 1212 4672 
Q 1544 4750 1819 4750 
Q 2544 4750 2975 4387 
Q 3406 4025 3406 3419 
Q 3406 3131 3298 2873 
Q 3191 2616 2906 2266 
Q 2828 2175 2409 1742 
Q 1991 1309 1228 531 
z
" id="DejaVuSans-32" transform="scale(0.015625)"/>
        <path d="M 2034 4250 
Q 1547 4250 1301 3770 
Q 1056 3291 1056 2328 
Q 1056 1369 1301 889 
Q 1547 409 2034 409 
Q 2525 409 2770 889 
Q 3016 1369 3016 2328 
Q 3016 3291 2770 3770 
Q 2525 4250 2034 4250 
z
M 2034 4750 
Q 2819 4750 3233 4129 
Q 3647 3509 3647 2328 
Q 3647 1150 3233 529 
Q 2819 -91 2034 -91 
Q 1250 -91 836 529 
Q 422 1150 422 2328 
Q 422 3509 836 4129 
Q 1250 4750 2034 4750 
z
" id="DejaVuSans-30" transform="scale(0.015625)"/>
        <path d="M 1625 4666 
L 2156 4666 
L 531 -594 
L 0 -594 
L 1625 4666 
z
" id="DejaVuSans-2f" transform="scale(0.015625)"/>
        <path d="M 794 531 
L 1825 531 
L 1825 4091 
L 703 3866 
L 703 4441 
L 1819 4666 
L 2450 4666 
L 2450 531 
L 3481 531 
L 3481 0 
L 794 0 
L 794 531 
z
" id="DejaVuSans-31" transform="scale(0.015625)"/>
       </defs>
       <use xlink:href="#DejaVuSans-32"/>
       <use x="63.623047" xlink:href="#DejaVuSans-30"/>
       <use x="127.246094" xlink:href="#DejaVuSans-32"/>
       <use x="190.869141" xlink:href="#DejaVuSans-30"/>
       <use x="254.492188" xlink:href="#DejaVuSans-2f"/>
       <use x="288.183594" xlink:href="#DejaVuSans-30"/>
       <use x="351.806641" xlink:href="#DejaVuSans-31"/>
       <use x="415.429688" xlink:href="#DejaVuSans-2f"/>
       <use x="449.121094" xlink:href="#DejaVuSans-32"/>
       <use x="512.744141" xlink:href="#DejaVuSans-30"/>
      </g>
     </g>
    </g>
    <g id="xtick_2">
     <g id="line2d_3">
      <path clip-path="url(#p3a2a5e82c9)" d="M 96.029261 475.93385 
L 96.029261 41.05385 
" style="fill:none;stroke:#b0b0b0;stroke-linecap:square;stroke-width:0.3;"/>
     </g>
     <g id="line2d_4">
      <g>
       <use style="stroke:#000000;stroke-width:0.8;" x="96.029261" xlink:href="#md99e25c6ce" y="475.93385"/>
      </g>
     </g>
     <g id="text_2">
      <!-- 2020/02/03 -->
      <g transform="translate(88.765633 539.694202)rotate(-70)scale(0.1 -0.1)">
       <defs>
        <path d="M 2597 2516 
Q 3050 2419 3304 2112 
Q 3559 1806 3559 1356 
Q 3559 666 3084 287 
Q 2609 -91 1734 -91 
Q 1441 -91 1130 -33 
Q 819 25 488 141 
L 488 750 
Q 750 597 1062 519 
Q 1375 441 1716 441 
Q 2309 441 2620 675 
Q 2931 909 2931 1356 
Q 2931 1769 2642 2001 
Q 2353 2234 1838 2234 
L 1294 2234 
L 1294 2753 
L 1863 2753 
Q 2328 2753 2575 2939 
Q 2822 3125 2822 3475 
Q 2822 3834 2567 4026 
Q 2313 4219 1838 4219 
Q 1578 4219 1281 4162 
Q 984 4106 628 3988 
L 628 4550 
Q 988 4650 1302 4700 
Q 1616 4750 1894 4750 
Q 2613 4750 3031 4423 
Q 3450 4097 3450 3541 
Q 3450 3153 3228 2886 
Q 3006 2619 2597 2516 
z
" id="DejaVuSans-33" transform="scale(0.015625)"/>
       </defs>
       <use xlink:href="#DejaVuSans-32"/>
       <use x="63.623047" xlink:href="#DejaVuSans-30"/>
       <use x="127.246094" xlink:href="#DejaVuSans-32"/>
       <use x="190.869141" xlink:href="#DejaVuSans-30"/>
       <use x="254.492188" xlink:href="#DejaVuSans-2f"/>
       <use x="288.183594" xlink:href="#DejaVuSans-30"/>
       <use x="351.806641" xlink:href="#DejaVuSans-32"/>
       <use x="415.429688" xlink:href="#DejaVuSans-2f"/>
       <use x="449.121094" xlink:href="#DejaVuSans-30"/>
       <use x="512.744141" xlink:href="#DejaVuSans-33"/>
      </g>
     </g>
    </g>
    <g id="xtick_3">
     <g id="line2d_5">
      <path clip-path="url(#p3a2a5e82c9)" d="M 122.21108 475.93385 
L 122.21108 41.05385 
" style="fill:none;stroke:#b0b0b0;stroke-linecap:square;stroke-width:0.3;"/>
     </g>
     <g id="line2d_6">
      <g>
       <use style="stroke:#000000;stroke-width:0.8;" x="122.21108" xlink:href="#md99e25c6ce" y="475.93385"/>
      </g>
     </g>
     <g id="text_3">
      <!-- 2020/02/17 -->
      <g transform="translate(114.947451 539.694202)rotate(-70)scale(0.1 -0.1)">
       <defs>
        <path d="M 525 4666 
L 3525 4666 
L 3525 4397 
L 1831 0 
L 1172 0 
L 2766 4134 
L 525 4134 
L 525 4666 
z
" id="DejaVuSans-37" transform="scale(0.015625)"/>
       </defs>
       <use xlink:href="#DejaVuSans-32"/>
       <use x="63.623047" xlink:href="#DejaVuSans-30"/>
       <use x="127.246094" xlink:href="#DejaVuSans-32"/>
       <use x="190.869141" xlink:href="#DejaVuSans-30"/>
       <use x="254.492188" xlink:href="#DejaVuSans-2f"/>
       <use x="288.183594" xlink:href="#DejaVuSans-30"/>
       <use x="351.806641" xlink:href="#DejaVuSans-32"/>
       <use x="415.429688" xlink:href="#DejaVuSans-2f"/>
       <use x="449.121094" xlink:href="#DejaVuSans-31"/>
       <use x="512.744141" xlink:href="#DejaVuSans-37"/>
      </g>
     </g>
    </g>
    <g id="xtick_4">
     <g id="line2d_7">
      <path clip-path="url(#p3a2a5e82c9)" d="M 148.392898 475.93385 
L 148.392898 41.05385 
" style="fill:none;stroke:#b0b0b0;stroke-linecap:square;stroke-width:0.3;"/>
     </g>
     <g id="line2d_8">
      <g>
       <use style="stroke:#000000;stroke-width:0.8;" x="148.392898" xlink:href="#md99e25c6ce" y="475.93385"/>
      </g>
     </g>
     <g id="text_4">
      <!-- 2020/03/02 -->
      <g transform="translate(141.129269 539.694202)rotate(-70)scale(0.1 -0.1)">
       <use xlink:href="#DejaVuSans-32"/>
       <use x="63.623047" xlink:href="#DejaVuSans-30"/>
       <use x="127.246094" xlink:href="#DejaVuSans-32"/>
       <use x="190.869141" xlink:href="#DejaVuSans-30"/>
       <use x="254.492188" xlink:href="#DejaVuSans-2f"/>
       <use x="288.183594" xlink:href="#DejaVuSans-30"/>
       <use x="351.806641" xlink:href="#DejaVuSans-33"/>
       <use x="415.429688" xlink:href="#DejaVuSans-2f"/>
       <use x="449.121094" xlink:href="#DejaVuSans-30"/>
       <use x="512.744141" xlink:href="#DejaVuSans-32"/>
      </g>
     </g>
    </g>
    <g id="xtick_5">
     <g id="line2d_9">
      <path clip-path="url(#p3a2a5e82c9)" d="M 174.574716 475.93385 
L 174.574716 41.05385 
" style="fill:none;stroke:#b0b0b0;stroke-linecap:square;stroke-width:0.3;"/>
     </g>
     <g id="line2d_10">
      <g>
       <use style="stroke:#000000;stroke-width:0.8;" x="174.574716" xlink:href="#md99e25c6ce" y="475.93385"/>
      </g>
     </g>
     <g id="text_5">
      <!-- 2020/03/16 -->
      <g transform="translate(167.311087 539.694202)rotate(-70)scale(0.1 -0.1)">
       <defs>
        <path d="M 2113 2584 
Q 1688 2584 1439 2293 
Q 1191 2003 1191 1497 
Q 1191 994 1439 701 
Q 1688 409 2113 409 
Q 2538 409 2786 701 
Q 3034 994 3034 1497 
Q 3034 2003 2786 2293 
Q 2538 2584 2113 2584 
z
M 3366 4563 
L 3366 3988 
Q 3128 4100 2886 4159 
Q 2644 4219 2406 4219 
Q 1781 4219 1451 3797 
Q 1122 3375 1075 2522 
Q 1259 2794 1537 2939 
Q 1816 3084 2150 3084 
Q 2853 3084 3261 2657 
Q 3669 2231 3669 1497 
Q 3669 778 3244 343 
Q 2819 -91 2113 -91 
Q 1303 -91 875 529 
Q 447 1150 447 2328 
Q 447 3434 972 4092 
Q 1497 4750 2381 4750 
Q 2619 4750 2861 4703 
Q 3103 4656 3366 4563 
z
" id="DejaVuSans-36" transform="scale(0.015625)"/>
       </defs>
       <use xlink:href="#DejaVuSans-32"/>
       <use x="63.623047" xlink:href="#DejaVuSans-30"/>
       <use x="127.246094" xlink:href="#DejaVuSans-32"/>
       <use x="190.869141" xlink:href="#DejaVuSans-30"/>
       <use x="254.492188" xlink:href="#DejaVuSans-2f"/>
       <use x="288.183594" xlink:href="#DejaVuSans-30"/>
       <use x="351.806641" xlink:href="#DejaVuSans-33"/>
       <use x="415.429688" xlink:href="#DejaVuSans-2f"/>
       <use x="449.121094" xlink:href="#DejaVuSans-31"/>
       <use x="512.744141" xlink:href="#DejaVuSans-36"/>
      </g>
     </g>
    </g>
    <g id="xtick_6">
     <g id="line2d_11">
      <path clip-path="url(#p3a2a5e82c9)" d="M 200.756534 475.93385 
L 200.756534 41.05385 
" style="fill:none;stroke:#b0b0b0;stroke-linecap:square;stroke-width:0.3;"/>
     </g>
     <g id="line2d_12">
      <g>
       <use style="stroke:#000000;stroke-width:0.8;" x="200.756534" xlink:href="#md99e25c6ce" y="475.93385"/>
      </g>
     </g>
     <g id="text_6">
      <!-- 2020/03/30 -->
      <g transform="translate(193.492905 539.694202)rotate(-70)scale(0.1 -0.1)">
       <use xlink:href="#DejaVuSans-32"/>
       <use x="63.623047" xlink:href="#DejaVuSans-30"/>
       <use x="127.246094" xlink:href="#DejaVuSans-32"/>
       <use x="190.869141" xlink:href="#DejaVuSans-30"/>
       <use x="254.492188" xlink:href="#DejaVuSans-2f"/>
       <use x="288.183594" xlink:href="#DejaVuSans-30"/>
       <use x="351.806641" xlink:href="#DejaVuSans-33"/>
       <use x="415.429688" xlink:href="#DejaVuSans-2f"/>
       <use x="449.121094" xlink:href="#DejaVuSans-33"/>
       <use x="512.744141" xlink:href="#DejaVuSans-30"/>
      </g>
     </g>
    </g>
    <g id="xtick_7">
     <g id="line2d_13">
      <path clip-path="url(#p3a2a5e82c9)" d="M 226.938352 475.93385 
L 226.938352 41.05385 
" style="fill:none;stroke:#b0b0b0;stroke-linecap:square;stroke-width:0.3;"/>
     </g>
     <g id="line2d_14">
      <g>
       <use style="stroke:#000000;stroke-width:0.8;" x="226.938352" xlink:href="#md99e25c6ce" y="475.93385"/>
      </g>
     </g>
     <g id="text_7">
      <!-- 2020/04/13 -->
      <g transform="translate(219.674724 539.694202)rotate(-70)scale(0.1 -0.1)">
       <defs>
        <path d="M 2419 4116 
L 825 1625 
L 2419 1625 
L 2419 4116 
z
M 2253 4666 
L 3047 4666 
L 3047 1625 
L 3713 1625 
L 3713 1100 
L 3047 1100 
L 3047 0 
L 2419 0 
L 2419 1100 
L 313 1100 
L 313 1709 
L 2253 4666 
z
" id="DejaVuSans-34" transform="scale(0.015625)"/>
       </defs>
       <use xlink:href="#DejaVuSans-32"/>
       <use x="63.623047" xlink:href="#DejaVuSans-30"/>
       <use x="127.246094" xlink:href="#DejaVuSans-32"/>
       <use x="190.869141" xlink:href="#DejaVuSans-30"/>
       <use x="254.492188" xlink:href="#DejaVuSans-2f"/>
       <use x="288.183594" xlink:href="#DejaVuSans-30"/>
       <use x="351.806641" xlink:href="#DejaVuSans-34"/>
       <use x="415.429688" xlink:href="#DejaVuSans-2f"/>
       <use x="449.121094" xlink:href="#DejaVuSans-31"/>
       <use x="512.744141" xlink:href="#DejaVuSans-33"/>
      </g>
     </g>
    </g>
    <g id="xtick_8">
     <g id="line2d_15">
      <path clip-path="url(#p3a2a5e82c9)" d="M 253.12017 475.93385 
L 253.12017 41.05385 
" style="fill:none;stroke:#b0b0b0;stroke-linecap:square;stroke-width:0.3;"/>
     </g>
     <g id="line2d_16">
      <g>
       <use style="stroke:#000000;stroke-width:0.8;" x="253.12017" xlink:href="#md99e25c6ce" y="475.93385"/>
      </g>
     </g>
     <g id="text_8">
      <!-- 2020/04/27 -->
      <g transform="translate(245.856542 539.694202)rotate(-70)scale(0.1 -0.1)">
       <use xlink:href="#DejaVuSans-32"/>
       <use x="63.623047" xlink:href="#DejaVuSans-30"/>
       <use x="127.246094" xlink:href="#DejaVuSans-32"/>
       <use x="190.869141" xlink:href="#DejaVuSans-30"/>
       <use x="254.492188" xlink:href="#DejaVuSans-2f"/>
       <use x="288.183594" xlink:href="#DejaVuSans-30"/>
       <use x="351.806641" xlink:href="#DejaVuSans-34"/>
       <use x="415.429688" xlink:href="#DejaVuSans-2f"/>
       <use x="449.121094" xlink:href="#DejaVuSans-32"/>
       <use x="512.744141" xlink:href="#DejaVuSans-37"/>
      </g>
     </g>
    </g>
    <g id="xtick_9">
     <g id="line2d_17">
      <path clip-path="url(#p3a2a5e82c9)" d="M 279.301989 475.93385 
L 279.301989 41.05385 
" style="fill:none;stroke:#b0b0b0;stroke-linecap:square;stroke-width:0.3;"/>
     </g>
     <g id="line2d_18">
      <g>
       <use style="stroke:#000000;stroke-width:0.8;" x="279.301989" xlink:href="#md99e25c6ce" y="475.93385"/>
      </g>
     </g>
     <g id="text_9">
      <!-- 2020/05/11 -->
      <g transform="translate(272.03836 539.694202)rotate(-70)scale(0.1 -0.1)">
       <defs>
        <path d="M 691 4666 
L 3169 4666 
L 3169 4134 
L 1269 4134 
L 1269 2991 
Q 1406 3038 1543 3061 
Q 1681 3084 1819 3084 
Q 2600 3084 3056 2656 
Q 3513 2228 3513 1497 
Q 3513 744 3044 326 
Q 2575 -91 1722 -91 
Q 1428 -91 1123 -41 
Q 819 9 494 109 
L 494 744 
Q 775 591 1075 516 
Q 1375 441 1709 441 
Q 2250 441 2565 725 
Q 2881 1009 2881 1497 
Q 2881 1984 2565 2268 
Q 2250 2553 1709 2553 
Q 1456 2553 1204 2497 
Q 953 2441 691 2322 
L 691 4666 
z
" id="DejaVuSans-35" transform="scale(0.015625)"/>
       </defs>
       <use xlink:href="#DejaVuSans-32"/>
       <use x="63.623047" xlink:href="#DejaVuSans-30"/>
       <use x="127.246094" xlink:href="#DejaVuSans-32"/>
       <use x="190.869141" xlink:href="#DejaVuSans-30"/>
       <use x="254.492188" xlink:href="#DejaVuSans-2f"/>
       <use x="288.183594" xlink:href="#DejaVuSans-30"/>
       <use x="351.806641" xlink:href="#DejaVuSans-35"/>
       <use x="415.429688" xlink:href="#DejaVuSans-2f"/>
       <use x="449.121094" xlink:href="#DejaVuSans-31"/>
       <use x="512.744141" xlink:href="#DejaVuSans-31"/>
      </g>
     </g>
    </g>
    <g id="xtick_10">
     <g id="line2d_19">
      <path clip-path="url(#p3a2a5e82c9)" d="M 305.483807 475.93385 
L 305.483807 41.05385 
" style="fill:none;stroke:#b0b0b0;stroke-linecap:square;stroke-width:0.3;"/>
     </g>
     <g id="line2d_20">
      <g>
       <use style="stroke:#000000;stroke-width:0.8;" x="305.483807" xlink:href="#md99e25c6ce" y="475.93385"/>
      </g>
     </g>
     <g id="text_10">
      <!-- 2020/05/25 -->
      <g transform="translate(298.220178 539.694202)rotate(-70)scale(0.1 -0.1)">
       <use xlink:href="#DejaVuSans-32"/>
       <use x="63.623047" xlink:href="#DejaVuSans-30"/>
       <use x="127.246094" xlink:href="#DejaVuSans-32"/>
       <use x="190.869141" xlink:href="#DejaVuSans-30"/>
       <use x="254.492188" xlink:href="#DejaVuSans-2f"/>
       <use x="288.183594" xlink:href="#DejaVuSans-30"/>
       <use x="351.806641" xlink:href="#DejaVuSans-35"/>
       <use x="415.429688" xlink:href="#DejaVuSans-2f"/>
       <use x="449.121094" xlink:href="#DejaVuSans-32"/>
       <use x="512.744141" xlink:href="#DejaVuSans-35"/>
      </g>
     </g>
    </g>
    <g id="xtick_11">
     <g id="line2d_21">
      <path clip-path="url(#p3a2a5e82c9)" d="M 331.665625 475.93385 
L 331.665625 41.05385 
" style="fill:none;stroke:#b0b0b0;stroke-linecap:square;stroke-width:0.3;"/>
     </g>
     <g id="line2d_22">
      <g>
       <use style="stroke:#000000;stroke-width:0.8;" x="331.665625" xlink:href="#md99e25c6ce" y="475.93385"/>
      </g>
     </g>
     <g id="text_11">
      <!-- 2020/06/08 -->
      <g transform="translate(324.401996 539.694202)rotate(-70)scale(0.1 -0.1)">
       <defs>
        <path d="M 2034 2216 
Q 1584 2216 1326 1975 
Q 1069 1734 1069 1313 
Q 1069 891 1326 650 
Q 1584 409 2034 409 
Q 2484 409 2743 651 
Q 3003 894 3003 1313 
Q 3003 1734 2745 1975 
Q 2488 2216 2034 2216 
z
M 1403 2484 
Q 997 2584 770 2862 
Q 544 3141 544 3541 
Q 544 4100 942 4425 
Q 1341 4750 2034 4750 
Q 2731 4750 3128 4425 
Q 3525 4100 3525 3541 
Q 3525 3141 3298 2862 
Q 3072 2584 2669 2484 
Q 3125 2378 3379 2068 
Q 3634 1759 3634 1313 
Q 3634 634 3220 271 
Q 2806 -91 2034 -91 
Q 1263 -91 848 271 
Q 434 634 434 1313 
Q 434 1759 690 2068 
Q 947 2378 1403 2484 
z
M 1172 3481 
Q 1172 3119 1398 2916 
Q 1625 2713 2034 2713 
Q 2441 2713 2670 2916 
Q 2900 3119 2900 3481 
Q 2900 3844 2670 4047 
Q 2441 4250 2034 4250 
Q 1625 4250 1398 4047 
Q 1172 3844 1172 3481 
z
" id="DejaVuSans-38" transform="scale(0.015625)"/>
       </defs>
       <use xlink:href="#DejaVuSans-32"/>
       <use x="63.623047" xlink:href="#DejaVuSans-30"/>
       <use x="127.246094" xlink:href="#DejaVuSans-32"/>
       <use x="190.869141" xlink:href="#DejaVuSans-30"/>
       <use x="254.492188" xlink:href="#DejaVuSans-2f"/>
       <use x="288.183594" xlink:href="#DejaVuSans-30"/>
       <use x="351.806641" xlink:href="#DejaVuSans-36"/>
       <use x="415.429688" xlink:href="#DejaVuSans-2f"/>
       <use x="449.121094" xlink:href="#DejaVuSans-30"/>
       <use x="512.744141" xlink:href="#DejaVuSans-38"/>
      </g>
     </g>
    </g>
    <g id="xtick_12">
     <g id="line2d_23">
      <path clip-path="url(#p3a2a5e82c9)" d="M 357.847443 475.93385 
L 357.847443 41.05385 
" style="fill:none;stroke:#b0b0b0;stroke-linecap:square;stroke-width:0.3;"/>
     </g>
     <g id="line2d_24">
      <g>
       <use style="stroke:#000000;stroke-width:0.8;" x="357.847443" xlink:href="#md99e25c6ce" y="475.93385"/>
      </g>
     </g>
     <g id="text_12">
      <!-- 2020/06/22 -->
      <g transform="translate(350.583815 539.694202)rotate(-70)scale(0.1 -0.1)">
       <use xlink:href="#DejaVuSans-32"/>
       <use x="63.623047" xlink:href="#DejaVuSans-30"/>
       <use x="127.246094" xlink:href="#DejaVuSans-32"/>
       <use x="190.869141" xlink:href="#DejaVuSans-30"/>
       <use x="254.492188" xlink:href="#DejaVuSans-2f"/>
       <use x="288.183594" xlink:href="#DejaVuSans-30"/>
       <use x="351.806641" xlink:href="#DejaVuSans-36"/>
       <use x="415.429688" xlink:href="#DejaVuSans-2f"/>
       <use x="449.121094" xlink:href="#DejaVuSans-32"/>
       <use x="512.744141" xlink:href="#DejaVuSans-32"/>
      </g>
     </g>
    </g>
    <g id="xtick_13">
     <g id="line2d_25">
      <path clip-path="url(#p3a2a5e82c9)" d="M 384.029261 475.93385 
L 384.029261 41.05385 
" style="fill:none;stroke:#b0b0b0;stroke-linecap:square;stroke-width:0.3;"/>
     </g>
     <g id="line2d_26">
      <g>
       <use style="stroke:#000000;stroke-width:0.8;" x="384.029261" xlink:href="#md99e25c6ce" y="475.93385"/>
      </g>
     </g>
     <g id="text_13">
      <!-- 2020/07/06 -->
      <g transform="translate(376.765633 539.694202)rotate(-70)scale(0.1 -0.1)">
       <use xlink:href="#DejaVuSans-32"/>
       <use x="63.623047" xlink:href="#DejaVuSans-30"/>
       <use x="127.246094" xlink:href="#DejaVuSans-32"/>
       <use x="190.869141" xlink:href="#DejaVuSans-30"/>
       <use x="254.492188" xlink:href="#DejaVuSans-2f"/>
       <use x="288.183594" xlink:href="#DejaVuSans-30"/>
       <use x="351.806641" xlink:href="#DejaVuSans-37"/>
       <use x="415.429688" xlink:href="#DejaVuSans-2f"/>
       <use x="449.121094" xlink:href="#DejaVuSans-30"/>
       <use x="512.744141" xlink:href="#DejaVuSans-36"/>
      </g>
     </g>
    </g>
    <g id="xtick_14">
     <g id="line2d_27">
      <path clip-path="url(#p3a2a5e82c9)" d="M 410.21108 475.93385 
L 410.21108 41.05385 
" style="fill:none;stroke:#b0b0b0;stroke-linecap:square;stroke-width:0.3;"/>
     </g>
     <g id="line2d_28">
      <g>
       <use style="stroke:#000000;stroke-width:0.8;" x="410.21108" xlink:href="#md99e25c6ce" y="475.93385"/>
      </g>
     </g>
     <g id="text_14">
      <!-- 2020/07/20 -->
      <g transform="translate(402.947451 539.694202)rotate(-70)scale(0.1 -0.1)">
       <use xlink:href="#DejaVuSans-32"/>
       <use x="63.623047" xlink:href="#DejaVuSans-30"/>
       <use x="127.246094" xlink:href="#DejaVuSans-32"/>
       <use x="190.869141" xlink:href="#DejaVuSans-30"/>
       <use x="254.492188" xlink:href="#DejaVuSans-2f"/>
       <use x="288.183594" xlink:href="#DejaVuSans-30"/>
       <use x="351.806641" xlink:href="#DejaVuSans-37"/>
       <use x="415.429688" xlink:href="#DejaVuSans-2f"/>
       <use x="449.121094" xlink:href="#DejaVuSans-32"/>
       <use x="512.744141" xlink:href="#DejaVuSans-30"/>
      </g>
     </g>
    </g>
    <g id="xtick_15">
     <g id="line2d_29">
      <path clip-path="url(#p3a2a5e82c9)" d="M 436.392898 475.93385 
L 436.392898 41.05385 
" style="fill:none;stroke:#b0b0b0;stroke-linecap:square;stroke-width:0.3;"/>
     </g>
     <g id="line2d_30">
      <g>
       <use style="stroke:#000000;stroke-width:0.8;" x="436.392898" xlink:href="#md99e25c6ce" y="475.93385"/>
      </g>
     </g>
     <g id="text_15">
      <!-- 2020/08/03 -->
      <g transform="translate(429.129269 539.694202)rotate(-70)scale(0.1 -0.1)">
       <use xlink:href="#DejaVuSans-32"/>
       <use x="63.623047" xlink:href="#DejaVuSans-30"/>
       <use x="127.246094" xlink:href="#DejaVuSans-32"/>
       <use x="190.869141" xlink:href="#DejaVuSans-30"/>
       <use x="254.492188" xlink:href="#DejaVuSans-2f"/>
       <use x="288.183594" xlink:href="#DejaVuSans-30"/>
       <use x="351.806641" xlink:href="#DejaVuSans-38"/>
       <use x="415.429688" xlink:href="#DejaVuSans-2f"/>
       <use x="449.121094" xlink:href="#DejaVuSans-30"/>
       <use x="512.744141" xlink:href="#DejaVuSans-33"/>
      </g>
     </g>
    </g>
    <g id="xtick_16">
     <g id="line2d_31">
      <path clip-path="url(#p3a2a5e82c9)" d="M 462.574716 475.93385 
L 462.574716 41.05385 
" style="fill:none;stroke:#b0b0b0;stroke-linecap:square;stroke-width:0.3;"/>
     </g>
     <g id="line2d_32">
      <g>
       <use style="stroke:#000000;stroke-width:0.8;" x="462.574716" xlink:href="#md99e25c6ce" y="475.93385"/>
      </g>
     </g>
     <g id="text_16">
      <!-- 2020/08/17 -->
      <g transform="translate(455.311087 539.694202)rotate(-70)scale(0.1 -0.1)">
       <use xlink:href="#DejaVuSans-32"/>
       <use x="63.623047" xlink:href="#DejaVuSans-30"/>
       <use x="127.246094" xlink:href="#DejaVuSans-32"/>
       <use x="190.869141" xlink:href="#DejaVuSans-30"/>
       <use x="254.492188" xlink:href="#DejaVuSans-2f"/>
       <use x="288.183594" xlink:href="#DejaVuSans-30"/>
       <use x="351.806641" xlink:href="#DejaVuSans-38"/>
       <use x="415.429688" xlink:href="#DejaVuSans-2f"/>
       <use x="449.121094" xlink:href="#DejaVuSans-31"/>
       <use x="512.744141" xlink:href="#DejaVuSans-37"/>
      </g>
     </g>
    </g>
    <g id="xtick_17">
     <g id="line2d_33">
      <path clip-path="url(#p3a2a5e82c9)" d="M 488.756534 475.93385 
L 488.756534 41.05385 
" style="fill:none;stroke:#b0b0b0;stroke-linecap:square;stroke-width:0.3;"/>
     </g>
     <g id="line2d_34">
      <g>
       <use style="stroke:#000000;stroke-width:0.8;" x="488.756534" xlink:href="#md99e25c6ce" y="475.93385"/>
      </g>
     </g>
     <g id="text_17">
      <!-- 2020/08/31 -->
      <g transform="translate(481.492905 539.694202)rotate(-70)scale(0.1 -0.1)">
       <use xlink:href="#DejaVuSans-32"/>
       <use x="63.623047" xlink:href="#DejaVuSans-30"/>
       <use x="127.246094" xlink:href="#DejaVuSans-32"/>
       <use x="190.869141" xlink:href="#DejaVuSans-30"/>
       <use x="254.492188" xlink:href="#DejaVuSans-2f"/>
       <use x="288.183594" xlink:href="#DejaVuSans-30"/>
       <use x="351.806641" xlink:href="#DejaVuSans-38"/>
       <use x="415.429688" xlink:href="#DejaVuSans-2f"/>
       <use x="449.121094" xlink:href="#DejaVuSans-33"/>
       <use x="512.744141" xlink:href="#DejaVuSans-31"/>
      </g>
     </g>
    </g>
    <g id="xtick_18">
     <g id="line2d_35">
      <path clip-path="url(#p3a2a5e82c9)" d="M 514.938352 475.93385 
L 514.938352 41.05385 
" style="fill:none;stroke:#b0b0b0;stroke-linecap:square;stroke-width:0.3;"/>
     </g>
     <g id="line2d_36">
      <g>
       <use style="stroke:#000000;stroke-width:0.8;" x="514.938352" xlink:href="#md99e25c6ce" y="475.93385"/>
      </g>
     </g>
     <g id="text_18">
      <!-- 2020/09/14 -->
      <g transform="translate(507.674724 539.694202)rotate(-70)scale(0.1 -0.1)">
       <defs>
        <path d="M 703 97 
L 703 672 
Q 941 559 1184 500 
Q 1428 441 1663 441 
Q 2288 441 2617 861 
Q 2947 1281 2994 2138 
Q 2813 1869 2534 1725 
Q 2256 1581 1919 1581 
Q 1219 1581 811 2004 
Q 403 2428 403 3163 
Q 403 3881 828 4315 
Q 1253 4750 1959 4750 
Q 2769 4750 3195 4129 
Q 3622 3509 3622 2328 
Q 3622 1225 3098 567 
Q 2575 -91 1691 -91 
Q 1453 -91 1209 -44 
Q 966 3 703 97 
z
M 1959 2075 
Q 2384 2075 2632 2365 
Q 2881 2656 2881 3163 
Q 2881 3666 2632 3958 
Q 2384 4250 1959 4250 
Q 1534 4250 1286 3958 
Q 1038 3666 1038 3163 
Q 1038 2656 1286 2365 
Q 1534 2075 1959 2075 
z
" id="DejaVuSans-39" transform="scale(0.015625)"/>
       </defs>
       <use xlink:href="#DejaVuSans-32"/>
       <use x="63.623047" xlink:href="#DejaVuSans-30"/>
       <use x="127.246094" xlink:href="#DejaVuSans-32"/>
       <use x="190.869141" xlink:href="#DejaVuSans-30"/>
       <use x="254.492188" xlink:href="#DejaVuSans-2f"/>
       <use x="288.183594" xlink:href="#DejaVuSans-30"/>
       <use x="351.806641" xlink:href="#DejaVuSans-39"/>
       <use x="415.429688" xlink:href="#DejaVuSans-2f"/>
       <use x="449.121094" xlink:href="#DejaVuSans-31"/>
       <use x="512.744141" xlink:href="#DejaVuSans-34"/>
      </g>
     </g>
    </g>
    <g id="xtick_19">
     <g id="line2d_37">
      <path clip-path="url(#p3a2a5e82c9)" d="M 541.12017 475.93385 
L 541.12017 41.05385 
" style="fill:none;stroke:#b0b0b0;stroke-linecap:square;stroke-width:0.3;"/>
     </g>
     <g id="line2d_38">
      <g>
       <use style="stroke:#000000;stroke-width:0.8;" x="541.12017" xlink:href="#md99e25c6ce" y="475.93385"/>
      </g>
     </g>
     <g id="text_19">
      <!-- 2020/09/28 -->
      <g transform="translate(533.856542 539.694202)rotate(-70)scale(0.1 -0.1)">
       <use xlink:href="#DejaVuSans-32"/>
       <use x="63.623047" xlink:href="#DejaVuSans-30"/>
       <use x="127.246094" xlink:href="#DejaVuSans-32"/>
       <use x="190.869141" xlink:href="#DejaVuSans-30"/>
       <use x="254.492188" xlink:href="#DejaVuSans-2f"/>
       <use x="288.183594" xlink:href="#DejaVuSans-30"/>
       <use x="351.806641" xlink:href="#DejaVuSans-39"/>
       <use x="415.429688" xlink:href="#DejaVuSans-2f"/>
       <use x="449.121094" xlink:href="#DejaVuSans-32"/>
       <use x="512.744141" xlink:href="#DejaVuSans-38"/>
      </g>
     </g>
    </g>
    <g id="xtick_20">
     <g id="line2d_39">
      <path clip-path="url(#p3a2a5e82c9)" d="M 567.301989 475.93385 
L 567.301989 41.05385 
" style="fill:none;stroke:#b0b0b0;stroke-linecap:square;stroke-width:0.3;"/>
     </g>
     <g id="line2d_40">
      <g>
       <use style="stroke:#000000;stroke-width:0.8;" x="567.301989" xlink:href="#md99e25c6ce" y="475.93385"/>
      </g>
     </g>
     <g id="text_20">
      <!-- 2020/10/12 -->
      <g transform="translate(560.03836 539.694202)rotate(-70)scale(0.1 -0.1)">
       <use xlink:href="#DejaVuSans-32"/>
       <use x="63.623047" xlink:href="#DejaVuSans-30"/>
       <use x="127.246094" xlink:href="#DejaVuSans-32"/>
       <use x="190.869141" xlink:href="#DejaVuSans-30"/>
       <use x="254.492188" xlink:href="#DejaVuSans-2f"/>
       <use x="288.183594" xlink:href="#DejaVuSans-31"/>
       <use x="351.806641" xlink:href="#DejaVuSans-30"/>
       <use x="415.429688" xlink:href="#DejaVuSans-2f"/>
       <use x="449.121094" xlink:href="#DejaVuSans-31"/>
       <use x="512.744141" xlink:href="#DejaVuSans-32"/>
      </g>
     </g>
    </g>
    <g id="xtick_21">
     <g id="line2d_41">
      <path clip-path="url(#p3a2a5e82c9)" d="M 593.483807 475.93385 
L 593.483807 41.05385 
" style="fill:none;stroke:#b0b0b0;stroke-linecap:square;stroke-width:0.3;"/>
     </g>
     <g id="line2d_42">
      <g>
       <use style="stroke:#000000;stroke-width:0.8;" x="593.483807" xlink:href="#md99e25c6ce" y="475.93385"/>
      </g>
     </g>
     <g id="text_21">
      <!-- 2020/10/26 -->
      <g transform="translate(586.220178 539.694202)rotate(-70)scale(0.1 -0.1)">
       <use xlink:href="#DejaVuSans-32"/>
       <use x="63.623047" xlink:href="#DejaVuSans-30"/>
       <use x="127.246094" xlink:href="#DejaVuSans-32"/>
       <use x="190.869141" xlink:href="#DejaVuSans-30"/>
       <use x="254.492188" xlink:href="#DejaVuSans-2f"/>
       <use x="288.183594" xlink:href="#DejaVuSans-31"/>
       <use x="351.806641" xlink:href="#DejaVuSans-30"/>
       <use x="415.429688" xlink:href="#DejaVuSans-2f"/>
       <use x="449.121094" xlink:href="#DejaVuSans-32"/>
       <use x="512.744141" xlink:href="#DejaVuSans-36"/>
      </g>
     </g>
    </g>
    <g id="xtick_22">
     <g id="line2d_43">
      <path clip-path="url(#p3a2a5e82c9)" d="M 619.665625 475.93385 
L 619.665625 41.05385 
" style="fill:none;stroke:#b0b0b0;stroke-linecap:square;stroke-width:0.3;"/>
     </g>
     <g id="line2d_44">
      <g>
       <use style="stroke:#000000;stroke-width:0.8;" x="619.665625" xlink:href="#md99e25c6ce" y="475.93385"/>
      </g>
     </g>
     <g id="text_22">
      <!-- 2020/11/09 -->
      <g transform="translate(612.401996 539.694202)rotate(-70)scale(0.1 -0.1)">
       <use xlink:href="#DejaVuSans-32"/>
       <use x="63.623047" xlink:href="#DejaVuSans-30"/>
       <use x="127.246094" xlink:href="#DejaVuSans-32"/>
       <use x="190.869141" xlink:href="#DejaVuSans-30"/>
       <use x="254.492188" xlink:href="#DejaVuSans-2f"/>
       <use x="288.183594" xlink:href="#DejaVuSans-31"/>
       <use x="351.806641" xlink:href="#DejaVuSans-31"/>
       <use x="415.429688" xlink:href="#DejaVuSans-2f"/>
       <use x="449.121094" xlink:href="#DejaVuSans-30"/>
       <use x="512.744141" xlink:href="#DejaVuSans-39"/>
      </g>
     </g>
    </g>
    <g id="xtick_23">
     <g id="line2d_45">
      <path clip-path="url(#p3a2a5e82c9)" d="M 645.847443 475.93385 
L 645.847443 41.05385 
" style="fill:none;stroke:#b0b0b0;stroke-linecap:square;stroke-width:0.3;"/>
     </g>
     <g id="line2d_46">
      <g>
       <use style="stroke:#000000;stroke-width:0.8;" x="645.847443" xlink:href="#md99e25c6ce" y="475.93385"/>
      </g>
     </g>
     <g id="text_23">
      <!-- 2020/11/23 -->
      <g transform="translate(638.583815 539.694202)rotate(-70)scale(0.1 -0.1)">
       <use xlink:href="#DejaVuSans-32"/>
       <use x="63.623047" xlink:href="#DejaVuSans-30"/>
       <use x="127.246094" xlink:href="#DejaVuSans-32"/>
       <use x="190.869141" xlink:href="#DejaVuSans-30"/>
       <use x="254.492188" xlink:href="#DejaVuSans-2f"/>
       <use x="288.183594" xlink:href="#DejaVuSans-31"/>
       <use x="351.806641" xlink:href="#DejaVuSans-31"/>
       <use x="415.429688" xlink:href="#DejaVuSans-2f"/>
       <use x="449.121094" xlink:href="#DejaVuSans-32"/>
       <use x="512.744141" xlink:href="#DejaVuSans-33"/>
      </g>
     </g>
    </g>
    <g id="xtick_24">
     <g id="line2d_47">
      <path clip-path="url(#p3a2a5e82c9)" d="M 672.029261 475.93385 
L 672.029261 41.05385 
" style="fill:none;stroke:#b0b0b0;stroke-linecap:square;stroke-width:0.3;"/>
     </g>
     <g id="line2d_48">
      <g>
       <use style="stroke:#000000;stroke-width:0.8;" x="672.029261" xlink:href="#md99e25c6ce" y="475.93385"/>
      </g>
     </g>
     <g id="text_24">
      <!-- 2020/12/07 -->
      <g transform="translate(664.765633 539.694202)rotate(-70)scale(0.1 -0.1)">
       <use xlink:href="#DejaVuSans-32"/>
       <use x="63.623047" xlink:href="#DejaVuSans-30"/>
       <use x="127.246094" xlink:href="#DejaVuSans-32"/>
       <use x="190.869141" xlink:href="#DejaVuSans-30"/>
       <use x="254.492188" xlink:href="#DejaVuSans-2f"/>
       <use x="288.183594" xlink:href="#DejaVuSans-31"/>
       <use x="351.806641" xlink:href="#DejaVuSans-32"/>
       <use x="415.429688" xlink:href="#DejaVuSans-2f"/>
       <use x="449.121094" xlink:href="#DejaVuSans-30"/>
       <use x="512.744141" xlink:href="#DejaVuSans-37"/>
      </g>
     </g>
    </g>
    <g id="xtick_25">
     <g id="line2d_49">
      <path clip-path="url(#p3a2a5e82c9)" d="M 698.21108 475.93385 
L 698.21108 41.05385 
" style="fill:none;stroke:#b0b0b0;stroke-linecap:square;stroke-width:0.3;"/>
     </g>
     <g id="line2d_50">
      <g>
       <use style="stroke:#000000;stroke-width:0.8;" x="698.21108" xlink:href="#md99e25c6ce" y="475.93385"/>
      </g>
     </g>
     <g id="text_25">
      <!-- 2020/12/21 -->
      <g transform="translate(690.947451 539.694202)rotate(-70)scale(0.1 -0.1)">
       <use xlink:href="#DejaVuSans-32"/>
       <use x="63.623047" xlink:href="#DejaVuSans-30"/>
       <use x="127.246094" xlink:href="#DejaVuSans-32"/>
       <use x="190.869141" xlink:href="#DejaVuSans-30"/>
       <use x="254.492188" xlink:href="#DejaVuSans-2f"/>
       <use x="288.183594" xlink:href="#DejaVuSans-31"/>
       <use x="351.806641" xlink:href="#DejaVuSans-32"/>
       <use x="415.429688" xlink:href="#DejaVuSans-2f"/>
       <use x="449.121094" xlink:href="#DejaVuSans-32"/>
       <use x="512.744141" xlink:href="#DejaVuSans-31"/>
      </g>
     </g>
    </g>
    <g id="xtick_26">
     <g id="line2d_51">
      <path clip-path="url(#p3a2a5e82c9)" d="M 724.392898 475.93385 
L 724.392898 41.05385 
" style="fill:none;stroke:#b0b0b0;stroke-linecap:square;stroke-width:0.3;"/>
     </g>
     <g id="line2d_52">
      <g>
       <use style="stroke:#000000;stroke-width:0.8;" x="724.392898" xlink:href="#md99e25c6ce" y="475.93385"/>
      </g>
     </g>
     <g id="text_26">
      <!-- 2021/01/04 -->
      <g transform="translate(717.129269 539.694202)rotate(-70)scale(0.1 -0.1)">
       <use xlink:href="#DejaVuSans-32"/>
       <use x="63.623047" xlink:href="#DejaVuSans-30"/>
       <use x="127.246094" xlink:href="#DejaVuSans-32"/>
       <use x="190.869141" xlink:href="#DejaVuSans-31"/>
       <use x="254.492188" xlink:href="#DejaVuSans-2f"/>
       <use x="288.183594" xlink:href="#DejaVuSans-30"/>
       <use x="351.806641" xlink:href="#DejaVuSans-31"/>
       <use x="415.429688" xlink:href="#DejaVuSans-2f"/>
       <use x="449.121094" xlink:href="#DejaVuSans-30"/>
       <use x="512.744141" xlink:href="#DejaVuSans-34"/>
      </g>
     </g>
    </g>
    <g id="xtick_27">
     <g id="line2d_53">
      <path clip-path="url(#p3a2a5e82c9)" d="M 750.574716 475.93385 
L 750.574716 41.05385 
" style="fill:none;stroke:#b0b0b0;stroke-linecap:square;stroke-width:0.3;"/>
     </g>
     <g id="line2d_54">
      <g>
       <use style="stroke:#000000;stroke-width:0.8;" x="750.574716" xlink:href="#md99e25c6ce" y="475.93385"/>
      </g>
     </g>
     <g id="text_27">
      <!-- 2021/01/18 -->
      <g transform="translate(743.311087 539.694202)rotate(-70)scale(0.1 -0.1)">
       <use xlink:href="#DejaVuSans-32"/>
       <use x="63.623047" xlink:href="#DejaVuSans-30"/>
       <use x="127.246094" xlink:href="#DejaVuSans-32"/>
       <use x="190.869141" xlink:href="#DejaVuSans-31"/>
       <use x="254.492188" xlink:href="#DejaVuSans-2f"/>
       <use x="288.183594" xlink:href="#DejaVuSans-30"/>
       <use x="351.806641" xlink:href="#DejaVuSans-31"/>
       <use x="415.429688" xlink:href="#DejaVuSans-2f"/>
       <use x="449.121094" xlink:href="#DejaVuSans-31"/>
       <use x="512.744141" xlink:href="#DejaVuSans-38"/>
      </g>
     </g>
    </g>
    <g id="xtick_28">
     <g id="line2d_55">
      <path clip-path="url(#p3a2a5e82c9)" d="M 776.756534 475.93385 
L 776.756534 41.05385 
" style="fill:none;stroke:#b0b0b0;stroke-linecap:square;stroke-width:0.3;"/>
     </g>
     <g id="line2d_56">
      <g>
       <use style="stroke:#000000;stroke-width:0.8;" x="776.756534" xlink:href="#md99e25c6ce" y="475.93385"/>
      </g>
     </g>
     <g id="text_28">
      <!-- 2021/02/01 -->
      <g transform="translate(769.492905 539.694202)rotate(-70)scale(0.1 -0.1)">
       <use xlink:href="#DejaVuSans-32"/>
       <use x="63.623047" xlink:href="#DejaVuSans-30"/>
       <use x="127.246094" xlink:href="#DejaVuSans-32"/>
       <use x="190.869141" xlink:href="#DejaVuSans-31"/>
       <use x="254.492188" xlink:href="#DejaVuSans-2f"/>
       <use x="288.183594" xlink:href="#DejaVuSans-30"/>
       <use x="351.806641" xlink:href="#DejaVuSans-32"/>
       <use x="415.429688" xlink:href="#DejaVuSans-2f"/>
       <use x="449.121094" xlink:href="#DejaVuSans-30"/>
       <use x="512.744141" xlink:href="#DejaVuSans-31"/>
      </g>
     </g>
    </g>
    <g id="xtick_29">
     <g id="line2d_57">
      <path clip-path="url(#p3a2a5e82c9)" d="M 802.938352 475.93385 
L 802.938352 41.05385 
" style="fill:none;stroke:#b0b0b0;stroke-linecap:square;stroke-width:0.3;"/>
     </g>
     <g id="line2d_58">
      <g>
       <use style="stroke:#000000;stroke-width:0.8;" x="802.938352" xlink:href="#md99e25c6ce" y="475.93385"/>
      </g>
     </g>
     <g id="text_29">
      <!-- 2021/02/15 -->
      <g transform="translate(795.674724 539.694202)rotate(-70)scale(0.1 -0.1)">
       <use xlink:href="#DejaVuSans-32"/>
       <use x="63.623047" xlink:href="#DejaVuSans-30"/>
       <use x="127.246094" xlink:href="#DejaVuSans-32"/>
       <use x="190.869141" xlink:href="#DejaVuSans-31"/>
       <use x="254.492188" xlink:href="#DejaVuSans-2f"/>
       <use x="288.183594" xlink:href="#DejaVuSans-30"/>
       <use x="351.806641" xlink:href="#DejaVuSans-32"/>
       <use x="415.429688" xlink:href="#DejaVuSans-2f"/>
       <use x="449.121094" xlink:href="#DejaVuSans-31"/>
       <use x="512.744141" xlink:href="#DejaVuSans-35"/>
      </g>
     </g>
    </g>
    <g id="xtick_30">
     <g id="line2d_59">
      <path clip-path="url(#p3a2a5e82c9)" d="M 829.12017 475.93385 
L 829.12017 41.05385 
" style="fill:none;stroke:#b0b0b0;stroke-linecap:square;stroke-width:0.3;"/>
     </g>
     <g id="line2d_60">
      <g>
       <use style="stroke:#000000;stroke-width:0.8;" x="829.12017" xlink:href="#md99e25c6ce" y="475.93385"/>
      </g>
     </g>
     <g id="text_30">
      <!-- 2021/03/01 -->
      <g transform="translate(821.856542 539.694202)rotate(-70)scale(0.1 -0.1)">
       <use xlink:href="#DejaVuSans-32"/>
       <use x="63.623047" xlink:href="#DejaVuSans-30"/>
       <use x="127.246094" xlink:href="#DejaVuSans-32"/>
       <use x="190.869141" xlink:href="#DejaVuSans-31"/>
       <use x="254.492188" xlink:href="#DejaVuSans-2f"/>
       <use x="288.183594" xlink:href="#DejaVuSans-30"/>
       <use x="351.806641" xlink:href="#DejaVuSans-33"/>
       <use x="415.429688" xlink:href="#DejaVuSans-2f"/>
       <use x="449.121094" xlink:href="#DejaVuSans-30"/>
       <use x="512.744141" xlink:href="#DejaVuSans-31"/>
      </g>
     </g>
    </g>
    <g id="xtick_31">
     <g id="line2d_61">
      <path clip-path="url(#p3a2a5e82c9)" d="M 855.301989 475.93385 
L 855.301989 41.05385 
" style="fill:none;stroke:#b0b0b0;stroke-linecap:square;stroke-width:0.3;"/>
     </g>
     <g id="line2d_62">
      <g>
       <use style="stroke:#000000;stroke-width:0.8;" x="855.301989" xlink:href="#md99e25c6ce" y="475.93385"/>
      </g>
     </g>
     <g id="text_31">
      <!-- 2021/03/15 -->
      <g transform="translate(848.03836 539.694202)rotate(-70)scale(0.1 -0.1)">
       <use xlink:href="#DejaVuSans-32"/>
       <use x="63.623047" xlink:href="#DejaVuSans-30"/>
       <use x="127.246094" xlink:href="#DejaVuSans-32"/>
       <use x="190.869141" xlink:href="#DejaVuSans-31"/>
       <use x="254.492188" xlink:href="#DejaVuSans-2f"/>
       <use x="288.183594" xlink:href="#DejaVuSans-30"/>
       <use x="351.806641" xlink:href="#DejaVuSans-33"/>
       <use x="415.429688" xlink:href="#DejaVuSans-2f"/>
       <use x="449.121094" xlink:href="#DejaVuSans-31"/>
       <use x="512.744141" xlink:href="#DejaVuSans-35"/>
      </g>
     </g>
    </g>
    <g id="xtick_32">
     <g id="line2d_63">
      <path clip-path="url(#p3a2a5e82c9)" d="M 881.483807 475.93385 
L 881.483807 41.05385 
" style="fill:none;stroke:#b0b0b0;stroke-linecap:square;stroke-width:0.3;"/>
     </g>
     <g id="line2d_64">
      <g>
       <use style="stroke:#000000;stroke-width:0.8;" x="881.483807" xlink:href="#md99e25c6ce" y="475.93385"/>
      </g>
     </g>
     <g id="text_32">
      <!-- 2021/03/29 -->
      <g transform="translate(874.220178 539.694202)rotate(-70)scale(0.1 -0.1)">
       <use xlink:href="#DejaVuSans-32"/>
       <use x="63.623047" xlink:href="#DejaVuSans-30"/>
       <use x="127.246094" xlink:href="#DejaVuSans-32"/>
       <use x="190.869141" xlink:href="#DejaVuSans-31"/>
       <use x="254.492188" xlink:href="#DejaVuSans-2f"/>
       <use x="288.183594" xlink:href="#DejaVuSans-30"/>
       <use x="351.806641" xlink:href="#DejaVuSans-33"/>
       <use x="415.429688" xlink:href="#DejaVuSans-2f"/>
       <use x="449.121094" xlink:href="#DejaVuSans-32"/>
       <use x="512.744141" xlink:href="#DejaVuSans-39"/>
      </g>
     </g>
    </g>
   </g>
   <g id="matplotlib.axis_2">
    <g id="ytick_1">
     <g id="line2d_65">
      <path clip-path="url(#p3a2a5e82c9)" d="M 29.265625 427.941823 
L 922.065625 427.941823 
" style="fill:none;stroke:#b0b0b0;stroke-linecap:square;stroke-width:0.3;"/>
     </g>
     <g id="line2d_66">
      <defs>
       <path d="M 0 0 
L -3.5 0 
" id="ma0612bb82e" style="stroke:#000000;stroke-width:0.8;"/>
      </defs>
      <g>
       <use style="stroke:#000000;stroke-width:0.8;" x="29.265625" xlink:href="#ma0612bb82e" y="427.941823"/>
      </g>
     </g>
     <g id="text_33">
      <!-- 0.20 -->
      <g transform="translate(0 431.741042)scale(0.1 -0.1)">
       <defs>
        <path d="M 684 794 
L 1344 794 
L 1344 0 
L 684 0 
L 684 794 
z
" id="DejaVuSans-2e" transform="scale(0.015625)"/>
       </defs>
       <use xlink:href="#DejaVuSans-30"/>
       <use x="63.623047" xlink:href="#DejaVuSans-2e"/>
       <use x="95.410156" xlink:href="#DejaVuSans-32"/>
       <use x="159.033203" xlink:href="#DejaVuSans-30"/>
      </g>
     </g>
    </g>
    <g id="ytick_2">
     <g id="line2d_67">
      <path clip-path="url(#p3a2a5e82c9)" d="M 29.265625 370.490338 
L 922.065625 370.490338 
" style="fill:none;stroke:#b0b0b0;stroke-linecap:square;stroke-width:0.3;"/>
     </g>
     <g id="line2d_68">
      <g>
       <use style="stroke:#000000;stroke-width:0.8;" x="29.265625" xlink:href="#ma0612bb82e" y="370.490338"/>
      </g>
     </g>
     <g id="text_34">
      <!-- 0.25 -->
      <g transform="translate(0 374.289557)scale(0.1 -0.1)">
       <use xlink:href="#DejaVuSans-30"/>
       <use x="63.623047" xlink:href="#DejaVuSans-2e"/>
       <use x="95.410156" xlink:href="#DejaVuSans-32"/>
       <use x="159.033203" xlink:href="#DejaVuSans-35"/>
      </g>
     </g>
    </g>
    <g id="ytick_3">
     <g id="line2d_69">
      <path clip-path="url(#p3a2a5e82c9)" d="M 29.265625 313.038853 
L 922.065625 313.038853 
" style="fill:none;stroke:#b0b0b0;stroke-linecap:square;stroke-width:0.3;"/>
     </g>
     <g id="line2d_70">
      <g>
       <use style="stroke:#000000;stroke-width:0.8;" x="29.265625" xlink:href="#ma0612bb82e" y="313.038853"/>
      </g>
     </g>
     <g id="text_35">
      <!-- 0.30 -->
      <g transform="translate(0 316.838071)scale(0.1 -0.1)">
       <use xlink:href="#DejaVuSans-30"/>
       <use x="63.623047" xlink:href="#DejaVuSans-2e"/>
       <use x="95.410156" xlink:href="#DejaVuSans-33"/>
       <use x="159.033203" xlink:href="#DejaVuSans-30"/>
      </g>
     </g>
    </g>
    <g id="ytick_4">
     <g id="line2d_71">
      <path clip-path="url(#p3a2a5e82c9)" d="M 29.265625 255.587367 
L 922.065625 255.587367 
" style="fill:none;stroke:#b0b0b0;stroke-linecap:square;stroke-width:0.3;"/>
     </g>
     <g id="line2d_72">
      <g>
       <use style="stroke:#000000;stroke-width:0.8;" x="29.265625" xlink:href="#ma0612bb82e" y="255.587367"/>
      </g>
     </g>
     <g id="text_36">
      <!-- 0.35 -->
      <g transform="translate(0 259.386586)scale(0.1 -0.1)">
       <use xlink:href="#DejaVuSans-30"/>
       <use x="63.623047" xlink:href="#DejaVuSans-2e"/>
       <use x="95.410156" xlink:href="#DejaVuSans-33"/>
       <use x="159.033203" xlink:href="#DejaVuSans-35"/>
      </g>
     </g>
    </g>
    <g id="ytick_5">
     <g id="line2d_73">
      <path clip-path="url(#p3a2a5e82c9)" d="M 29.265625 198.135882 
L 922.065625 198.135882 
" style="fill:none;stroke:#b0b0b0;stroke-linecap:square;stroke-width:0.3;"/>
     </g>
     <g id="line2d_74">
      <g>
       <use style="stroke:#000000;stroke-width:0.8;" x="29.265625" xlink:href="#ma0612bb82e" y="198.135882"/>
      </g>
     </g>
     <g id="text_37">
      <!-- 0.40 -->
      <g transform="translate(0 201.9351)scale(0.1 -0.1)">
       <use xlink:href="#DejaVuSans-30"/>
       <use x="63.623047" xlink:href="#DejaVuSans-2e"/>
       <use x="95.410156" xlink:href="#DejaVuSans-34"/>
       <use x="159.033203" xlink:href="#DejaVuSans-30"/>
      </g>
     </g>
    </g>
    <g id="ytick_6">
     <g id="line2d_75">
      <path clip-path="url(#p3a2a5e82c9)" d="M 29.265625 140.684396 
L 922.065625 140.684396 
" style="fill:none;stroke:#b0b0b0;stroke-linecap:square;stroke-width:0.3;"/>
     </g>
     <g id="line2d_76">
      <g>
       <use style="stroke:#000000;stroke-width:0.8;" x="29.265625" xlink:href="#ma0612bb82e" y="140.684396"/>
      </g>
     </g>
     <g id="text_38">
      <!-- 0.45 -->
      <g transform="translate(0 144.483615)scale(0.1 -0.1)">
       <use xlink:href="#DejaVuSans-30"/>
       <use x="63.623047" xlink:href="#DejaVuSans-2e"/>
       <use x="95.410156" xlink:href="#DejaVuSans-34"/>
       <use x="159.033203" xlink:href="#DejaVuSans-35"/>
      </g>
     </g>
    </g>
    <g id="ytick_7">
     <g id="line2d_77">
      <path clip-path="url(#p3a2a5e82c9)" d="M 29.265625 83.232911 
L 922.065625 83.232911 
" style="fill:none;stroke:#b0b0b0;stroke-linecap:square;stroke-width:0.3;"/>
     </g>
     <g id="line2d_78">
      <g>
       <use style="stroke:#000000;stroke-width:0.8;" x="29.265625" xlink:href="#ma0612bb82e" y="83.232911"/>
      </g>
     </g>
     <g id="text_39">
      <!-- 0.50 -->
      <g transform="translate(0 87.032129)scale(0.1 -0.1)">
       <use xlink:href="#DejaVuSans-30"/>
       <use x="63.623047" xlink:href="#DejaVuSans-2e"/>
       <use x="95.410156" xlink:href="#DejaVuSans-35"/>
       <use x="159.033203" xlink:href="#DejaVuSans-30"/>
      </g>
     </g>
    </g>
   </g>
   <g id="line2d_79">
    <path clip-path="url(#p3a2a5e82c9)" d="M 69.847443 289.291632 
L 82.938352 319.413296 
L 96.029261 308.138734 
L 109.12017 302.341247 
L 122.21108 300.581131 
L 135.301989 263.905461 
L 148.392898 313.847145 
L 161.483807 379.830993 
L 174.574716 386.033929 
L 187.665625 377.42773 
L 200.756534 358.434705 
L 213.847443 355.691286 
L 226.938352 352.849455 
L 240.029261 355.32968 
L 253.12017 354.0925 
L 266.21108 343.454345 
L 279.301989 346.809522 
L 292.392898 344.843018 
L 305.483807 319.406657 
L 318.574716 305.408658 
L 331.665625 303.925518 
L 344.756534 302.996677 
L 357.847443 292.146758 
L 370.938352 298.16797 
L 384.029261 282.715161 
L 397.12017 282.726675 
L 410.21108 289.790531 
L 423.301989 281.514308 
L 436.392898 281.475997 
L 449.483807 284.368101 
L 462.574716 287.347196 
L 475.665625 280.128852 
L 488.756534 279.255206 
L 501.847443 263.882103 
L 514.938352 274.93695 
L 528.029261 281.488977 
L 541.12017 276.864809 
L 554.21108 255.122186 
L 567.301989 275.014697 
L 580.392898 266.42225 
L 593.483807 272.092532 
L 606.574716 273.293013 
L 619.665625 284.551804 
L 632.756534 272.145066 
L 645.847443 278.646373 
L 658.938352 276.973326 
L 672.029261 278.156225 
L 685.12017 275.628843 
L 698.21108 271.851808 
L 711.301989 263.361047 
L 724.392898 272.412006 
L 737.483807 281.832655 
L 750.574716 277.005207 
L 763.665625 276.034057 
L 776.756534 280.081624 
L 789.847443 277.86869 
L 802.938352 269.709259 
L 816.029261 277.408042 
L 829.12017 269.070257 
L 842.21108 277.061404 
L 855.301989 279.889846 
L 868.392898 286.474995 
L 881.483807 299.616781 
" style="fill:none;stroke:#ff0000;stroke-linecap:square;stroke-width:1.5;"/>
   </g>
   <g id="line2d_80">
    <path clip-path="url(#p3a2a5e82c9)" d="M 69.847443 209.302648 
L 82.938352 230.716372 
L 96.029261 229.765409 
L 109.12017 225.811392 
L 122.21108 218.156367 
L 135.301989 193.899381 
L 148.392898 224.359503 
L 161.483807 289.953644 
L 174.574716 281.172547 
L 187.665625 257.818425 
L 200.756534 244.53506 
L 213.847443 233.056693 
L 226.938352 232.638757 
L 240.029261 226.349806 
L 253.12017 218.982008 
L 266.21108 209.78471 
L 279.301989 211.044256 
L 292.392898 208.882247 
L 305.483807 205.249695 
L 318.574716 192.915949 
L 331.665625 158.297643 
L 344.756534 164.0404 
L 357.847443 161.459981 
L 370.938352 170.062654 
L 384.029261 162.985328 
L 397.12017 166.8891 
L 410.21108 158.285997 
L 423.301989 155.841182 
L 436.392898 153.463179 
L 449.483807 141.18455 
L 462.574716 150.725798 
L 475.665625 155.738444 
L 488.756534 150.03925 
L 501.847443 151.064346 
L 514.938352 153.410218 
L 528.029261 154.283746 
L 541.12017 159.004591 
L 554.21108 156.928847 
L 567.301989 154.160539 
L 580.392898 152.504912 
L 593.483807 152.557551 
L 606.574716 133.719044 
L 619.665625 162.489265 
L 632.756534 152.952044 
L 645.847443 146.336941 
L 658.938352 150.307718 
L 672.029261 160.961413 
L 685.12017 152.697616 
L 698.21108 154.696297 
L 711.301989 149.398827 
L 724.392898 155.483575 
L 737.483807 158.373741 
L 750.574716 146.820101 
L 763.665625 152.114275 
L 776.756534 142.577527 
L 789.847443 144.148801 
L 802.938352 138.467195 
L 816.029261 141.645957 
L 829.12017 141.403821 
L 842.21108 140.357575 
L 855.301989 155.862159 
L 868.392898 155.601866 
L 881.483807 170.705319 
" style="fill:none;stroke:#fb6755;stroke-linecap:square;stroke-width:1.5;"/>
   </g>
   <g id="line2d_81">
    <path clip-path="url(#p3a2a5e82c9)" d="M 69.847443 313.518813 
L 82.938352 361.452833 
L 96.029261 366.035132 
L 109.12017 361.356178 
L 122.21108 358.61924 
L 135.301989 314.912036 
L 148.392898 358.858036 
L 161.483807 419.360896 
L 174.574716 443.876484 
L 187.665625 443.857044 
L 200.756534 430.866761 
L 213.847443 430.204442 
L 226.938352 429.813422 
L 240.029261 431.299277 
L 253.12017 432.147551 
L 266.21108 421.473823 
L 279.301989 421.141722 
L 292.392898 415.464488 
L 305.483807 402.662479 
L 318.574716 391.199715 
L 331.665625 385.990215 
L 344.756534 376.35286 
L 357.847443 363.570575 
L 370.938352 361.684915 
L 384.029261 350.436941 
L 397.12017 352.307455 
L 410.21108 359.828115 
L 423.301989 352.085697 
L 436.392898 354.526653 
L 449.483807 358.752745 
L 462.574716 362.631149 
L 475.665625 358.444519 
L 488.756534 351.122989 
L 501.847443 335.933692 
L 514.938352 347.445484 
L 528.029261 356.31984 
L 541.12017 338.709579 
L 554.21108 320.168299 
L 567.301989 346.614701 
L 580.392898 340.661207 
L 593.483807 341.122616 
L 606.574716 360.183297 
L 619.665625 355.659334 
L 632.756534 337.369382 
L 645.847443 348.562989 
L 658.938352 344.206684 
L 672.029261 345.448863 
L 685.12017 341.877357 
L 698.21108 337.492919 
L 711.301989 326.696642 
L 724.392898 350.543893 
L 737.483807 356.02212 
L 750.574716 348.77356 
L 763.665625 350.193095 
L 776.756534 359.189404 
L 789.847443 353.371985 
L 802.938352 350.981794 
L 816.029261 356.724422 
L 829.12017 348.20828 
L 842.21108 359.639628 
L 855.301989 360.689566 
L 868.392898 370.783897 
L 881.483807 377.230798 
" style="fill:none;stroke:#4b8534;stroke-linecap:square;stroke-width:1.5;"/>
   </g>
   <g id="line2d_82">
    <path clip-path="url(#p3a2a5e82c9)" d="M 69.847443 79.274713 
L 82.938352 162.762548 
L 96.029261 187.434879 
L 109.12017 191.037696 
L 122.21108 192.131939 
L 135.301989 142.462356 
L 148.392898 176.379855 
L 161.483807 254.895087 
L 174.574716 250.183972 
L 187.665625 238.646335 
L 200.756534 220.232634 
L 213.847443 216.1888 
L 226.938352 213.377239 
L 240.029261 208.35125 
L 253.12017 204.95445 
L 266.21108 188.732912 
L 279.301989 188.753258 
L 292.392898 184.552406 
L 305.483807 153.108209 
L 318.574716 142.908191 
L 331.665625 141.210418 
L 344.756534 147.063169 
L 357.847443 131.676035 
L 370.938352 141.759437 
L 384.029261 127.968683 
L 397.12017 120.121967 
L 410.21108 124.097413 
L 423.301989 117.509565 
L 436.392898 104.856094 
L 449.483807 106.665077 
L 462.574716 102.496946 
L 475.665625 98.681073 
L 488.756534 108.256936 
L 501.847443 93.067252 
L 514.938352 102.908392 
L 528.029261 108.192539 
L 541.12017 120.678299 
L 554.21108 98.292205 
L 567.301989 106.614565 
L 580.392898 103.290371 
L 593.483807 114.653186 
L 606.574716 125.360279 
L 619.665625 135.563742 
L 632.756534 117.280619 
L 645.847443 113.863274 
L 658.938352 113.341296 
L 672.029261 117.103614 
L 685.12017 110.66675 
L 698.21108 114.198237 
L 711.301989 95.153929 
L 724.392898 109.303263 
L 737.483807 113.079578 
L 750.574716 94.325398 
L 763.665625 93.6079 
L 776.756534 88.203587 
L 789.847443 87.520853 
L 802.938352 80.343264 
L 816.029261 98.873668 
L 829.12017 97.768016 
L 842.21108 94.883767 
L 855.301989 100.988597 
L 868.392898 106.151097 
L 881.483807 115.223963 
" style="fill:none;stroke:#8058a7;stroke-linecap:square;stroke-width:1.5;"/>
   </g>
   <g id="line2d_83">
    <path clip-path="url(#p3a2a5e82c9)" d="M 69.847443 404.259427 
L 82.938352 375.704786 
L 96.029261 372.59638 
L 109.12017 373.229682 
L 122.21108 368.390794 
L 135.301989 348.076618 
L 148.392898 370.114817 
L 161.483807 409.519691 
L 174.574716 379.098855 
L 187.665625 354.627783 
L 200.756534 345.982459 
L 213.847443 331.193333 
L 226.938352 337.114746 
L 240.029261 329.423071 
L 253.12017 325.204657 
L 266.21108 319.362247 
L 279.301989 326.364557 
L 292.392898 317.712821 
L 305.483807 322.583941 
L 318.574716 307.359658 
L 331.665625 273.008715 
L 344.756534 276.054992 
L 357.847443 273.883559 
L 370.938352 274.080477 
L 384.029261 277.204982 
L 397.12017 283.440371 
L 410.21108 266.927214 
L 423.301989 267.389 
L 436.392898 265.370554 
L 449.483807 259.78437 
L 462.574716 263.043235 
L 475.665625 272.337164 
L 488.756534 268.747515 
L 501.847443 270.048001 
L 514.938352 271.808716 
L 528.029261 272.269156 
L 541.12017 275.357499 
L 554.21108 273.092274 
L 567.301989 264.923751 
L 580.392898 260.497246 
L 593.483807 264.626405 
L 606.574716 248.459432 
L 619.665625 271.509369 
L 632.756534 255.014667 
L 645.847443 235.669181 
L 658.938352 250.235931 
L 672.029261 257.915099 
L 685.12017 256.082815 
L 698.21108 244.169081 
L 711.301989 249.717403 
L 724.392898 265.719223 
L 737.483807 270.231755 
L 750.574716 260.562994 
L 763.665625 266.453315 
L 776.756534 249.481456 
L 789.847443 251.561844 
L 802.938352 248.33998 
L 816.029261 254.600537 
L 829.12017 253.180635 
L 842.21108 248.997258 
L 855.301989 268.009726 
L 868.392898 268.805324 
L 881.483807 294.289455 
" style="fill:none;stroke:#ffb639;stroke-linecap:square;stroke-width:1.5;"/>
   </g>
   <g id="line2d_84">
    <path clip-path="url(#p3a2a5e82c9)" d="M 69.847443 166.891985 
L 82.938352 248.221947 
L 96.029261 273.539475 
L 109.12017 279.926242 
L 122.21108 277.685363 
L 135.301989 207.492935 
L 148.392898 262.512154 
L 161.483807 315.859621 
L 174.574716 315.230744 
L 187.665625 301.567105 
L 200.756534 282.388461 
L 213.847443 272.57644 
L 226.938352 264.679252 
L 240.029261 260.977329 
L 253.12017 256.244297 
L 266.21108 239.77174 
L 279.301989 237.086994 
L 292.392898 229.090314 
L 305.483807 203.635264 
L 318.574716 194.003675 
L 331.665625 182.492573 
L 344.756534 186.122203 
L 357.847443 171.317182 
L 370.938352 178.739341 
L 384.029261 164.050756 
L 397.12017 155.111181 
L 410.21108 157.103276 
L 423.301989 150.530246 
L 436.392898 134.907085 
L 449.483807 134.442261 
L 462.574716 131.587801 
L 475.665625 132.484866 
L 488.756534 134.789364 
L 501.847443 126.738604 
L 514.938352 139.560834 
L 528.029261 141.995038 
L 541.12017 147.748952 
L 554.21108 132.940767 
L 567.301989 136.630278 
L 580.392898 133.23187 
L 593.483807 144.208852 
L 606.574716 144.641198 
L 619.665625 164.792322 
L 632.756534 145.30126 
L 645.847443 138.823976 
L 658.938352 137.632712 
L 672.029261 138.430983 
L 685.12017 136.981746 
L 698.21108 137.008672 
L 711.301989 119.765213 
L 724.392898 140.641622 
L 737.483807 139.609688 
L 750.574716 117.064707 
L 763.665625 118.932252 
L 776.756534 112.119821 
L 789.847443 114.217858 
L 802.938352 105.494527 
L 816.029261 122.089853 
L 829.12017 119.825618 
L 842.21108 115.982591 
L 855.301989 130.852032 
L 868.392898 133.347563 
L 881.483807 152.606867 
" style="fill:none;stroke:#3581b7;stroke-linecap:square;stroke-width:1.5;"/>
   </g>
   <g id="line2d_85">
    <path clip-path="url(#p3a2a5e82c9)" d="M 69.847443 354.521679 
L 82.938352 378.761219 
L 96.029261 383.862032 
L 109.12017 392.281533 
L 122.21108 391.187414 
L 135.301989 342.8877 
L 148.392898 388.29181 
L 161.483807 444.856528 
L 174.574716 456.166577 
L 187.665625 444.466658 
L 200.756534 435.027634 
L 213.847443 424.733972 
L 226.938352 427.735287 
L 240.029261 422.014519 
L 253.12017 420.532907 
L 266.21108 412.099417 
L 279.301989 415.651745 
L 292.392898 411.85203 
L 305.483807 403.793784 
L 318.574716 392.363409 
L 331.665625 370.690405 
L 344.756534 367.651298 
L 357.847443 364.476112 
L 370.938352 370.770713 
L 384.029261 365.027409 
L 397.12017 366.965414 
L 410.21108 361.772846 
L 423.301989 358.329838 
L 436.392898 355.526675 
L 449.483807 355.861678 
L 462.574716 355.490057 
L 475.665625 356.031237 
L 488.756534 356.99665 
L 501.847443 351.669557 
L 514.938352 353.786712 
L 528.029261 352.382585 
L 541.12017 334.652853 
L 554.21108 345.642402 
L 567.301989 350.820369 
L 580.392898 346.252495 
L 593.483807 342.385472 
L 606.574716 328.754542 
L 619.665625 358.291252 
L 632.756534 348.462994 
L 645.847443 348.889616 
L 658.938352 346.962328 
L 672.029261 349.289565 
L 685.12017 345.674623 
L 698.21108 342.030977 
L 711.301989 339.558763 
L 724.392898 350.218821 
L 737.483807 358.969061 
L 750.574716 352.205068 
L 763.665625 355.023716 
L 776.756534 350.222984 
L 789.847443 351.018295 
L 802.938352 342.566612 
L 816.029261 344.819165 
L 829.12017 343.806101 
L 842.21108 343.212417 
L 855.301989 352.869504 
L 868.392898 353.517958 
L 881.483807 366.551628 
" style="fill:none;stroke:#e154ae;stroke-linecap:square;stroke-width:1.5;"/>
   </g>
   <g id="line2d_86">
    <path clip-path="url(#p3a2a5e82c9)" d="M 69.847443 175.423882 
L 82.938352 181.646435 
L 96.029261 183.307888 
L 109.12017 186.568557 
L 122.21108 176.98805 
L 135.301989 144.656206 
L 148.392898 170.330202 
L 161.483807 230.444184 
L 174.574716 211.329924 
L 187.665625 179.178182 
L 200.756534 169.096242 
L 213.847443 157.637904 
L 226.938352 155.67479 
L 240.029261 153.640547 
L 253.12017 152.178757 
L 266.21108 143.746119 
L 279.301989 143.580301 
L 292.392898 141.323665 
L 305.483807 134.226757 
L 318.574716 119.364972 
L 331.665625 94.882569 
L 344.756534 102.465041 
L 357.847443 92.564506 
L 370.938352 76.851287 
L 384.029261 67.718615 
L 397.12017 60.821123 
L 410.21108 62.84264 
L 423.301989 68.939011 
L 436.392898 69.35187 
L 449.483807 76.347845 
L 462.574716 73.312282 
L 475.665625 70.036733 
L 488.756534 72.869439 
L 501.847443 73.880085 
L 514.938352 69.040545 
L 528.029261 85.390671 
L 541.12017 81.327671 
L 554.21108 71.609045 
L 567.301989 78.39606 
L 580.392898 77.070241 
L 593.483807 92.718619 
L 606.574716 81.66006 
L 619.665625 92.942799 
L 632.756534 77.401238 
L 645.847443 76.978246 
L 658.938352 78.77358 
L 672.029261 88.100655 
L 685.12017 82.469839 
L 698.21108 88.706891 
L 711.301989 78.042235 
L 724.392898 80.972236 
L 737.483807 84.600902 
L 750.574716 84.586426 
L 763.665625 84.964892 
L 776.756534 75.98904 
L 789.847443 75.421435 
L 802.938352 78.246991 
L 816.029261 80.594532 
L 829.12017 72.610854 
L 842.21108 75.128024 
L 855.301989 92.853994 
L 868.392898 97.922926 
L 881.483807 98.707706 
" style="fill:none;stroke:#00ff37;stroke-linecap:square;stroke-width:1.5;"/>
   </g>
   <g id="patch_3">
    <path d="M 29.265625 475.93385 
L 29.265625 41.05385 
" style="fill:none;stroke:#000000;stroke-linecap:square;stroke-linejoin:miter;stroke-width:0.8;"/>
   </g>
   <g id="patch_4">
    <path d="M 922.065625 475.93385 
L 922.065625 41.05385 
" style="fill:none;stroke:#000000;stroke-linecap:square;stroke-linejoin:miter;stroke-width:0.8;"/>
   </g>
   <g id="patch_5">
    <path d="M 29.265625 475.93385 
L 922.065625 475.93385 
" style="fill:none;stroke:#000000;stroke-linecap:square;stroke-linejoin:miter;stroke-width:0.8;"/>
   </g>
   <g id="patch_6">
    <path d="M 29.265625 41.05385 
L 922.065625 41.05385 
" style="fill:none;stroke:#000000;stroke-linecap:square;stroke-linejoin:miter;stroke-width:0.8;"/>
   </g>
   <g id="legend_1">
    <g id="patch_7">
     <path d="M 31.265625 32.35625 
L 920.065625 32.35625 
Q 922.065625 32.35625 922.065625 30.35625 
L 922.065625 2 
Q 922.065625 0 920.065625 0 
L 31.265625 0 
Q 29.265625 0 29.265625 2 
L 29.265625 30.35625 
Q 29.265625 32.35625 31.265625 32.35625 
z
" style="fill:#ffffff;opacity:0.8;stroke:#cccccc;stroke-linejoin:miter;"/>
    </g>
    <g id="line2d_87">
     <path d="M 33.265625 8.098438 
L 53.265625 8.098438 
" style="fill:none;stroke:#ff0000;stroke-linecap:square;stroke-width:1.5;"/>
    </g>
    <g id="line2d_88"/>
    <g id="text_40">
     <!-- anger -->
     <g transform="translate(61.265625 11.598438)scale(0.1 -0.1)">
      <defs>
       <path d="M 2194 1759 
Q 1497 1759 1228 1600 
Q 959 1441 959 1056 
Q 959 750 1161 570 
Q 1363 391 1709 391 
Q 2188 391 2477 730 
Q 2766 1069 2766 1631 
L 2766 1759 
L 2194 1759 
z
M 3341 1997 
L 3341 0 
L 2766 0 
L 2766 531 
Q 2569 213 2275 61 
Q 1981 -91 1556 -91 
Q 1019 -91 701 211 
Q 384 513 384 1019 
Q 384 1609 779 1909 
Q 1175 2209 1959 2209 
L 2766 2209 
L 2766 2266 
Q 2766 2663 2505 2880 
Q 2244 3097 1772 3097 
Q 1472 3097 1187 3025 
Q 903 2953 641 2809 
L 641 3341 
Q 956 3463 1253 3523 
Q 1550 3584 1831 3584 
Q 2591 3584 2966 3190 
Q 3341 2797 3341 1997 
z
" id="DejaVuSans-61" transform="scale(0.015625)"/>
       <path d="M 3513 2113 
L 3513 0 
L 2938 0 
L 2938 2094 
Q 2938 2591 2744 2837 
Q 2550 3084 2163 3084 
Q 1697 3084 1428 2787 
Q 1159 2491 1159 1978 
L 1159 0 
L 581 0 
L 581 3500 
L 1159 3500 
L 1159 2956 
Q 1366 3272 1645 3428 
Q 1925 3584 2291 3584 
Q 2894 3584 3203 3211 
Q 3513 2838 3513 2113 
z
" id="DejaVuSans-6e" transform="scale(0.015625)"/>
       <path d="M 2906 1791 
Q 2906 2416 2648 2759 
Q 2391 3103 1925 3103 
Q 1463 3103 1205 2759 
Q 947 2416 947 1791 
Q 947 1169 1205 825 
Q 1463 481 1925 481 
Q 2391 481 2648 825 
Q 2906 1169 2906 1791 
z
M 3481 434 
Q 3481 -459 3084 -895 
Q 2688 -1331 1869 -1331 
Q 1566 -1331 1297 -1286 
Q 1028 -1241 775 -1147 
L 775 -588 
Q 1028 -725 1275 -790 
Q 1522 -856 1778 -856 
Q 2344 -856 2625 -561 
Q 2906 -266 2906 331 
L 2906 616 
Q 2728 306 2450 153 
Q 2172 0 1784 0 
Q 1141 0 747 490 
Q 353 981 353 1791 
Q 353 2603 747 3093 
Q 1141 3584 1784 3584 
Q 2172 3584 2450 3431 
Q 2728 3278 2906 2969 
L 2906 3500 
L 3481 3500 
L 3481 434 
z
" id="DejaVuSans-67" transform="scale(0.015625)"/>
       <path d="M 3597 1894 
L 3597 1613 
L 953 1613 
Q 991 1019 1311 708 
Q 1631 397 2203 397 
Q 2534 397 2845 478 
Q 3156 559 3463 722 
L 3463 178 
Q 3153 47 2828 -22 
Q 2503 -91 2169 -91 
Q 1331 -91 842 396 
Q 353 884 353 1716 
Q 353 2575 817 3079 
Q 1281 3584 2069 3584 
Q 2775 3584 3186 3129 
Q 3597 2675 3597 1894 
z
M 3022 2063 
Q 3016 2534 2758 2815 
Q 2500 3097 2075 3097 
Q 1594 3097 1305 2825 
Q 1016 2553 972 2059 
L 3022 2063 
z
" id="DejaVuSans-65" transform="scale(0.015625)"/>
       <path d="M 2631 2963 
Q 2534 3019 2420 3045 
Q 2306 3072 2169 3072 
Q 1681 3072 1420 2755 
Q 1159 2438 1159 1844 
L 1159 0 
L 581 0 
L 581 3500 
L 1159 3500 
L 1159 2956 
Q 1341 3275 1631 3429 
Q 1922 3584 2338 3584 
Q 2397 3584 2469 3576 
Q 2541 3569 2628 3553 
L 2631 2963 
z
" id="DejaVuSans-72" transform="scale(0.015625)"/>
      </defs>
      <use xlink:href="#DejaVuSans-61"/>
      <use x="61.279297" xlink:href="#DejaVuSans-6e"/>
      <use x="124.658203" xlink:href="#DejaVuSans-67"/>
      <use x="188.134766" xlink:href="#DejaVuSans-65"/>
      <use x="249.658203" xlink:href="#DejaVuSans-72"/>
     </g>
    </g>
    <g id="line2d_89">
     <path d="M 33.265625 22.776563 
L 53.265625 22.776563 
" style="fill:none;stroke:#fb6755;stroke-linecap:square;stroke-width:1.5;"/>
    </g>
    <g id="line2d_90"/>
    <g id="text_41">
     <!-- anticipation -->
     <g transform="translate(61.265625 26.276563)scale(0.1 -0.1)">
      <defs>
       <path d="M 1172 4494 
L 1172 3500 
L 2356 3500 
L 2356 3053 
L 1172 3053 
L 1172 1153 
Q 1172 725 1289 603 
Q 1406 481 1766 481 
L 2356 481 
L 2356 0 
L 1766 0 
Q 1100 0 847 248 
Q 594 497 594 1153 
L 594 3053 
L 172 3053 
L 172 3500 
L 594 3500 
L 594 4494 
L 1172 4494 
z
" id="DejaVuSans-74" transform="scale(0.015625)"/>
       <path d="M 603 3500 
L 1178 3500 
L 1178 0 
L 603 0 
L 603 3500 
z
M 603 4863 
L 1178 4863 
L 1178 4134 
L 603 4134 
L 603 4863 
z
" id="DejaVuSans-69" transform="scale(0.015625)"/>
       <path d="M 3122 3366 
L 3122 2828 
Q 2878 2963 2633 3030 
Q 2388 3097 2138 3097 
Q 1578 3097 1268 2742 
Q 959 2388 959 1747 
Q 959 1106 1268 751 
Q 1578 397 2138 397 
Q 2388 397 2633 464 
Q 2878 531 3122 666 
L 3122 134 
Q 2881 22 2623 -34 
Q 2366 -91 2075 -91 
Q 1284 -91 818 406 
Q 353 903 353 1747 
Q 353 2603 823 3093 
Q 1294 3584 2113 3584 
Q 2378 3584 2631 3529 
Q 2884 3475 3122 3366 
z
" id="DejaVuSans-63" transform="scale(0.015625)"/>
       <path d="M 1159 525 
L 1159 -1331 
L 581 -1331 
L 581 3500 
L 1159 3500 
L 1159 2969 
Q 1341 3281 1617 3432 
Q 1894 3584 2278 3584 
Q 2916 3584 3314 3078 
Q 3713 2572 3713 1747 
Q 3713 922 3314 415 
Q 2916 -91 2278 -91 
Q 1894 -91 1617 61 
Q 1341 213 1159 525 
z
M 3116 1747 
Q 3116 2381 2855 2742 
Q 2594 3103 2138 3103 
Q 1681 3103 1420 2742 
Q 1159 2381 1159 1747 
Q 1159 1113 1420 752 
Q 1681 391 2138 391 
Q 2594 391 2855 752 
Q 3116 1113 3116 1747 
z
" id="DejaVuSans-70" transform="scale(0.015625)"/>
       <path d="M 1959 3097 
Q 1497 3097 1228 2736 
Q 959 2375 959 1747 
Q 959 1119 1226 758 
Q 1494 397 1959 397 
Q 2419 397 2687 759 
Q 2956 1122 2956 1747 
Q 2956 2369 2687 2733 
Q 2419 3097 1959 3097 
z
M 1959 3584 
Q 2709 3584 3137 3096 
Q 3566 2609 3566 1747 
Q 3566 888 3137 398 
Q 2709 -91 1959 -91 
Q 1206 -91 779 398 
Q 353 888 353 1747 
Q 353 2609 779 3096 
Q 1206 3584 1959 3584 
z
" id="DejaVuSans-6f" transform="scale(0.015625)"/>
      </defs>
      <use xlink:href="#DejaVuSans-61"/>
      <use x="61.279297" xlink:href="#DejaVuSans-6e"/>
      <use x="124.658203" xlink:href="#DejaVuSans-74"/>
      <use x="163.867188" xlink:href="#DejaVuSans-69"/>
      <use x="191.650391" xlink:href="#DejaVuSans-63"/>
      <use x="246.630859" xlink:href="#DejaVuSans-69"/>
      <use x="274.414062" xlink:href="#DejaVuSans-70"/>
      <use x="337.890625" xlink:href="#DejaVuSans-61"/>
      <use x="399.169922" xlink:href="#DejaVuSans-74"/>
      <use x="438.378906" xlink:href="#DejaVuSans-69"/>
      <use x="466.162109" xlink:href="#DejaVuSans-6f"/>
      <use x="527.34375" xlink:href="#DejaVuSans-6e"/>
     </g>
    </g>
    <g id="line2d_91">
     <path d="M 319.245312 8.098438 
L 339.245312 8.098438 
" style="fill:none;stroke:#4b8534;stroke-linecap:square;stroke-width:1.5;"/>
    </g>
    <g id="line2d_92"/>
    <g id="text_42">
     <!-- disgust -->
     <g transform="translate(347.245312 11.598438)scale(0.1 -0.1)">
      <defs>
       <path d="M 2906 2969 
L 2906 4863 
L 3481 4863 
L 3481 0 
L 2906 0 
L 2906 525 
Q 2725 213 2448 61 
Q 2172 -91 1784 -91 
Q 1150 -91 751 415 
Q 353 922 353 1747 
Q 353 2572 751 3078 
Q 1150 3584 1784 3584 
Q 2172 3584 2448 3432 
Q 2725 3281 2906 2969 
z
M 947 1747 
Q 947 1113 1208 752 
Q 1469 391 1925 391 
Q 2381 391 2643 752 
Q 2906 1113 2906 1747 
Q 2906 2381 2643 2742 
Q 2381 3103 1925 3103 
Q 1469 3103 1208 2742 
Q 947 2381 947 1747 
z
" id="DejaVuSans-64" transform="scale(0.015625)"/>
       <path d="M 2834 3397 
L 2834 2853 
Q 2591 2978 2328 3040 
Q 2066 3103 1784 3103 
Q 1356 3103 1142 2972 
Q 928 2841 928 2578 
Q 928 2378 1081 2264 
Q 1234 2150 1697 2047 
L 1894 2003 
Q 2506 1872 2764 1633 
Q 3022 1394 3022 966 
Q 3022 478 2636 193 
Q 2250 -91 1575 -91 
Q 1294 -91 989 -36 
Q 684 19 347 128 
L 347 722 
Q 666 556 975 473 
Q 1284 391 1588 391 
Q 1994 391 2212 530 
Q 2431 669 2431 922 
Q 2431 1156 2273 1281 
Q 2116 1406 1581 1522 
L 1381 1569 
Q 847 1681 609 1914 
Q 372 2147 372 2553 
Q 372 3047 722 3315 
Q 1072 3584 1716 3584 
Q 2034 3584 2315 3537 
Q 2597 3491 2834 3397 
z
" id="DejaVuSans-73" transform="scale(0.015625)"/>
       <path d="M 544 1381 
L 544 3500 
L 1119 3500 
L 1119 1403 
Q 1119 906 1312 657 
Q 1506 409 1894 409 
Q 2359 409 2629 706 
Q 2900 1003 2900 1516 
L 2900 3500 
L 3475 3500 
L 3475 0 
L 2900 0 
L 2900 538 
Q 2691 219 2414 64 
Q 2138 -91 1772 -91 
Q 1169 -91 856 284 
Q 544 659 544 1381 
z
M 1991 3584 
L 1991 3584 
z
" id="DejaVuSans-75" transform="scale(0.015625)"/>
      </defs>
      <use xlink:href="#DejaVuSans-64"/>
      <use x="63.476562" xlink:href="#DejaVuSans-69"/>
      <use x="91.259766" xlink:href="#DejaVuSans-73"/>
      <use x="143.359375" xlink:href="#DejaVuSans-67"/>
      <use x="206.835938" xlink:href="#DejaVuSans-75"/>
      <use x="270.214844" xlink:href="#DejaVuSans-73"/>
      <use x="322.314453" xlink:href="#DejaVuSans-74"/>
     </g>
    </g>
    <g id="line2d_93">
     <path d="M 319.245312 22.776563 
L 339.245312 22.776563 
" style="fill:none;stroke:#8058a7;stroke-linecap:square;stroke-width:1.5;"/>
    </g>
    <g id="line2d_94"/>
    <g id="text_43">
     <!-- fear -->
     <g transform="translate(347.245312 26.276563)scale(0.1 -0.1)">
      <defs>
       <path d="M 2375 4863 
L 2375 4384 
L 1825 4384 
Q 1516 4384 1395 4259 
Q 1275 4134 1275 3809 
L 1275 3500 
L 2222 3500 
L 2222 3053 
L 1275 3053 
L 1275 0 
L 697 0 
L 697 3053 
L 147 3053 
L 147 3500 
L 697 3500 
L 697 3744 
Q 697 4328 969 4595 
Q 1241 4863 1831 4863 
L 2375 4863 
z
" id="DejaVuSans-66" transform="scale(0.015625)"/>
      </defs>
      <use xlink:href="#DejaVuSans-66"/>
      <use x="35.205078" xlink:href="#DejaVuSans-65"/>
      <use x="96.728516" xlink:href="#DejaVuSans-61"/>
      <use x="158.007812" xlink:href="#DejaVuSans-72"/>
     </g>
    </g>
    <g id="line2d_95">
     <path d="M 582.304688 8.098438 
L 602.304688 8.098438 
" style="fill:none;stroke:#ffb639;stroke-linecap:square;stroke-width:1.5;"/>
    </g>
    <g id="line2d_96"/>
    <g id="text_44">
     <!-- joy -->
     <g transform="translate(610.304688 11.598438)scale(0.1 -0.1)">
      <defs>
       <path d="M 603 3500 
L 1178 3500 
L 1178 -63 
Q 1178 -731 923 -1031 
Q 669 -1331 103 -1331 
L -116 -1331 
L -116 -844 
L 38 -844 
Q 366 -844 484 -692 
Q 603 -541 603 -63 
L 603 3500 
z
M 603 4863 
L 1178 4863 
L 1178 4134 
L 603 4134 
L 603 4863 
z
" id="DejaVuSans-6a" transform="scale(0.015625)"/>
       <path d="M 2059 -325 
Q 1816 -950 1584 -1140 
Q 1353 -1331 966 -1331 
L 506 -1331 
L 506 -850 
L 844 -850 
Q 1081 -850 1212 -737 
Q 1344 -625 1503 -206 
L 1606 56 
L 191 3500 
L 800 3500 
L 1894 763 
L 2988 3500 
L 3597 3500 
L 2059 -325 
z
" id="DejaVuSans-79" transform="scale(0.015625)"/>
      </defs>
      <use xlink:href="#DejaVuSans-6a"/>
      <use x="27.783203" xlink:href="#DejaVuSans-6f"/>
      <use x="88.964844" xlink:href="#DejaVuSans-79"/>
     </g>
    </g>
    <g id="line2d_97">
     <path d="M 582.304688 22.776563 
L 602.304688 22.776563 
" style="fill:none;stroke:#3581b7;stroke-linecap:square;stroke-width:1.5;"/>
    </g>
    <g id="line2d_98"/>
    <g id="text_45">
     <!-- sadness -->
     <g transform="translate(610.304688 26.276563)scale(0.1 -0.1)">
      <use xlink:href="#DejaVuSans-73"/>
      <use x="52.099609" xlink:href="#DejaVuSans-61"/>
      <use x="113.378906" xlink:href="#DejaVuSans-64"/>
      <use x="176.855469" xlink:href="#DejaVuSans-6e"/>
      <use x="240.234375" xlink:href="#DejaVuSans-65"/>
      <use x="301.757812" xlink:href="#DejaVuSans-73"/>
      <use x="353.857422" xlink:href="#DejaVuSans-73"/>
     </g>
    </g>
    <g id="line2d_99">
     <path d="M 849.807812 8.098438 
L 869.807812 8.098438 
" style="fill:none;stroke:#e154ae;stroke-linecap:square;stroke-width:1.5;"/>
    </g>
    <g id="line2d_100"/>
    <g id="text_46">
     <!-- surprise -->
     <g transform="translate(877.807812 11.598438)scale(0.1 -0.1)">
      <use xlink:href="#DejaVuSans-73"/>
      <use x="52.099609" xlink:href="#DejaVuSans-75"/>
      <use x="115.478516" xlink:href="#DejaVuSans-72"/>
      <use x="156.591797" xlink:href="#DejaVuSans-70"/>
      <use x="220.068359" xlink:href="#DejaVuSans-72"/>
      <use x="261.181641" xlink:href="#DejaVuSans-69"/>
      <use x="288.964844" xlink:href="#DejaVuSans-73"/>
      <use x="341.064453" xlink:href="#DejaVuSans-65"/>
     </g>
    </g>
    <g id="line2d_101">
     <path d="M 849.807812 22.776563 
L 869.807812 22.776563 
" style="fill:none;stroke:#00ff37;stroke-linecap:square;stroke-width:1.5;"/>
    </g>
    <g id="line2d_102"/>
    <g id="text_47">
     <!-- trust -->
     <g transform="translate(877.807812 26.276563)scale(0.1 -0.1)">
      <use xlink:href="#DejaVuSans-74"/>
      <use x="39.208984" xlink:href="#DejaVuSans-72"/>
      <use x="80.322266" xlink:href="#DejaVuSans-75"/>
      <use x="143.701172" xlink:href="#DejaVuSans-73"/>
      <use x="195.800781" xlink:href="#DejaVuSans-74"/>
     </g>
    </g>
   </g>
  </g>
 </g>
 <defs>
  <clipPath id="p3a2a5e82c9">
   <rect height="434.88" width="892.8" x="29.265625" y="41.05385"/>
  </clipPath>
 </defs>
</svg>
