<?xml version="1.0" encoding="utf-8" standalone="no"?>
<!DOCTYPE svg PUBLIC "-//W3C//DTD SVG 1.1//EN"
  "http://www.w3.org/Graphics/SVG/1.1/DTD/svg11.dtd">
<svg height="528.910552pt" version="1.1" viewBox="0 0 918.88375 528.910552" width="918.88375pt" xmlns="http://www.w3.org/2000/svg" xmlns:xlink="http://www.w3.org/1999/xlink">
 <metadata>
  <rdf:RDF xmlns:cc="http://creativecommons.org/ns#" xmlns:dc="http://purl.org/dc/elements/1.1/" xmlns:rdf="http://www.w3.org/1999/02/22-rdf-syntax-ns#">
   <cc:Work>
    <dc:type rdf:resource="http://purl.org/dc/dcmitype/StillImage"/>
    <dc:date>2021-07-04T13:15:25.162734</dc:date>
    <dc:format>image/svg+xml</dc:format>
    <dc:creator>
     <cc:Agent>
      <dc:title>Matplotlib v3.4.1, https://matplotlib.org/</dc:title>
     </cc:Agent>
    </dc:creator>
   </cc:Work>
  </rdf:RDF>
 </metadata>
 <defs>
  <style type="text/css">*{stroke-linecap:butt;stroke-linejoin:round;}</style>
 </defs>
 <g id="figure_1">
  <g id="patch_1">
   <path d="M 0 528.910552 
L 918.88375 528.910552 
L 918.88375 0 
L 0 0 
z
" style="fill:none;"/>
  </g>
  <g id="axes_1">
   <g id="patch_2">
    <path d="M 26.08375 464.79135 
L 918.88375 464.79135 
L 918.88375 29.91135 
L 26.08375 29.91135 
z
" style="fill:#ffffff;"/>
   </g>
   <g id="matplotlib.axis_1">
    <g id="xtick_1">
     <g id="line2d_1">
      <path clip-path="url(#p02556ec227)" d="M 66.665568 464.79135 
L 66.665568 29.91135 
" style="fill:none;stroke:#b0b0b0;stroke-linecap:square;stroke-width:0.3;"/>
     </g>
     <g id="line2d_2">
      <defs>
       <path d="M 0 0 
L 0 3.5 
" id="m494498c97c" style="stroke:#000000;stroke-width:0.8;"/>
      </defs>
      <g>
       <use style="stroke:#000000;stroke-width:0.8;" x="66.665568" xlink:href="#m494498c97c" y="464.79135"/>
      </g>
     </g>
     <g id="text_1">
      <!-- 2020/01/20 -->
      <g transform="translate(44.553455 527.145879)rotate(-45)scale(0.12 -0.12)">
       <defs>
        <path d="M 1228 531 
L 3431 531 
L 3431 0 
L 469 0 
L 469 531 
Q 828 903 1448 1529 
Q 2069 2156 2228 2338 
Q 2531 2678 2651 2914 
Q 2772 3150 2772 3378 
Q 2772 3750 2511 3984 
Q 2250 4219 1831 4219 
Q 1534 4219 1204 4116 
Q 875 4013 500 3803 
L 500 4441 
Q 881 4594 1212 4672 
Q 1544 4750 1819 4750 
Q 2544 4750 2975 4387 
Q 3406 4025 3406 3419 
Q 3406 3131 3298 2873 
Q 3191 2616 2906 2266 
Q 2828 2175 2409 1742 
Q 1991 1309 1228 531 
z
" id="DejaVuSans-32" transform="scale(0.015625)"/>
        <path d="M 2034 4250 
Q 1547 4250 1301 3770 
Q 1056 3291 1056 2328 
Q 1056 1369 1301 889 
Q 1547 409 2034 409 
Q 2525 409 2770 889 
Q 3016 1369 3016 2328 
Q 3016 3291 2770 3770 
Q 2525 4250 2034 4250 
z
M 2034 4750 
Q 2819 4750 3233 4129 
Q 3647 3509 3647 2328 
Q 3647 1150 3233 529 
Q 2819 -91 2034 -91 
Q 1250 -91 836 529 
Q 422 1150 422 2328 
Q 422 3509 836 4129 
Q 1250 4750 2034 4750 
z
" id="DejaVuSans-30" transform="scale(0.015625)"/>
        <path d="M 1625 4666 
L 2156 4666 
L 531 -594 
L 0 -594 
L 1625 4666 
z
" id="DejaVuSans-2f" transform="scale(0.015625)"/>
        <path d="M 794 531 
L 1825 531 
L 1825 4091 
L 703 3866 
L 703 4441 
L 1819 4666 
L 2450 4666 
L 2450 531 
L 3481 531 
L 3481 0 
L 794 0 
L 794 531 
z
" id="DejaVuSans-31" transform="scale(0.015625)"/>
       </defs>
       <use xlink:href="#DejaVuSans-32"/>
       <use x="63.623047" xlink:href="#DejaVuSans-30"/>
       <use x="127.246094" xlink:href="#DejaVuSans-32"/>
       <use x="190.869141" xlink:href="#DejaVuSans-30"/>
       <use x="254.492188" xlink:href="#DejaVuSans-2f"/>
       <use x="288.183594" xlink:href="#DejaVuSans-30"/>
       <use x="351.806641" xlink:href="#DejaVuSans-31"/>
       <use x="415.429688" xlink:href="#DejaVuSans-2f"/>
       <use x="449.121094" xlink:href="#DejaVuSans-32"/>
       <use x="512.744141" xlink:href="#DejaVuSans-30"/>
      </g>
     </g>
    </g>
    <g id="xtick_2">
     <g id="line2d_3">
      <path clip-path="url(#p02556ec227)" d="M 105.938295 464.79135 
L 105.938295 29.91135 
" style="fill:none;stroke:#b0b0b0;stroke-linecap:square;stroke-width:0.3;"/>
     </g>
     <g id="line2d_4">
      <g>
       <use style="stroke:#000000;stroke-width:0.8;" x="105.938295" xlink:href="#m494498c97c" y="464.79135"/>
      </g>
     </g>
     <g id="text_2">
      <!-- 2020/02/10 -->
      <g transform="translate(83.826183 527.145879)rotate(-45)scale(0.12 -0.12)">
       <use xlink:href="#DejaVuSans-32"/>
       <use x="63.623047" xlink:href="#DejaVuSans-30"/>
       <use x="127.246094" xlink:href="#DejaVuSans-32"/>
       <use x="190.869141" xlink:href="#DejaVuSans-30"/>
       <use x="254.492188" xlink:href="#DejaVuSans-2f"/>
       <use x="288.183594" xlink:href="#DejaVuSans-30"/>
       <use x="351.806641" xlink:href="#DejaVuSans-32"/>
       <use x="415.429688" xlink:href="#DejaVuSans-2f"/>
       <use x="449.121094" xlink:href="#DejaVuSans-31"/>
       <use x="512.744141" xlink:href="#DejaVuSans-30"/>
      </g>
     </g>
    </g>
    <g id="xtick_3">
     <g id="line2d_5">
      <path clip-path="url(#p02556ec227)" d="M 145.211023 464.79135 
L 145.211023 29.91135 
" style="fill:none;stroke:#b0b0b0;stroke-linecap:square;stroke-width:0.3;"/>
     </g>
     <g id="line2d_6">
      <g>
       <use style="stroke:#000000;stroke-width:0.8;" x="145.211023" xlink:href="#m494498c97c" y="464.79135"/>
      </g>
     </g>
     <g id="text_3">
      <!-- 2020/03/02 -->
      <g transform="translate(123.09891 527.145879)rotate(-45)scale(0.12 -0.12)">
       <defs>
        <path d="M 2597 2516 
Q 3050 2419 3304 2112 
Q 3559 1806 3559 1356 
Q 3559 666 3084 287 
Q 2609 -91 1734 -91 
Q 1441 -91 1130 -33 
Q 819 25 488 141 
L 488 750 
Q 750 597 1062 519 
Q 1375 441 1716 441 
Q 2309 441 2620 675 
Q 2931 909 2931 1356 
Q 2931 1769 2642 2001 
Q 2353 2234 1838 2234 
L 1294 2234 
L 1294 2753 
L 1863 2753 
Q 2328 2753 2575 2939 
Q 2822 3125 2822 3475 
Q 2822 3834 2567 4026 
Q 2313 4219 1838 4219 
Q 1578 4219 1281 4162 
Q 984 4106 628 3988 
L 628 4550 
Q 988 4650 1302 4700 
Q 1616 4750 1894 4750 
Q 2613 4750 3031 4423 
Q 3450 4097 3450 3541 
Q 3450 3153 3228 2886 
Q 3006 2619 2597 2516 
z
" id="DejaVuSans-33" transform="scale(0.015625)"/>
       </defs>
       <use xlink:href="#DejaVuSans-32"/>
       <use x="63.623047" xlink:href="#DejaVuSans-30"/>
       <use x="127.246094" xlink:href="#DejaVuSans-32"/>
       <use x="190.869141" xlink:href="#DejaVuSans-30"/>
       <use x="254.492188" xlink:href="#DejaVuSans-2f"/>
       <use x="288.183594" xlink:href="#DejaVuSans-30"/>
       <use x="351.806641" xlink:href="#DejaVuSans-33"/>
       <use x="415.429688" xlink:href="#DejaVuSans-2f"/>
       <use x="449.121094" xlink:href="#DejaVuSans-30"/>
       <use x="512.744141" xlink:href="#DejaVuSans-32"/>
      </g>
     </g>
    </g>
    <g id="xtick_4">
     <g id="line2d_7">
      <path clip-path="url(#p02556ec227)" d="M 184.48375 464.79135 
L 184.48375 29.91135 
" style="fill:none;stroke:#b0b0b0;stroke-linecap:square;stroke-width:0.3;"/>
     </g>
     <g id="line2d_8">
      <g>
       <use style="stroke:#000000;stroke-width:0.8;" x="184.48375" xlink:href="#m494498c97c" y="464.79135"/>
      </g>
     </g>
     <g id="text_4">
      <!-- 2020/03/23 -->
      <g transform="translate(162.371637 527.145879)rotate(-45)scale(0.12 -0.12)">
       <use xlink:href="#DejaVuSans-32"/>
       <use x="63.623047" xlink:href="#DejaVuSans-30"/>
       <use x="127.246094" xlink:href="#DejaVuSans-32"/>
       <use x="190.869141" xlink:href="#DejaVuSans-30"/>
       <use x="254.492188" xlink:href="#DejaVuSans-2f"/>
       <use x="288.183594" xlink:href="#DejaVuSans-30"/>
       <use x="351.806641" xlink:href="#DejaVuSans-33"/>
       <use x="415.429688" xlink:href="#DejaVuSans-2f"/>
       <use x="449.121094" xlink:href="#DejaVuSans-32"/>
       <use x="512.744141" xlink:href="#DejaVuSans-33"/>
      </g>
     </g>
    </g>
    <g id="xtick_5">
     <g id="line2d_9">
      <path clip-path="url(#p02556ec227)" d="M 223.756477 464.79135 
L 223.756477 29.91135 
" style="fill:none;stroke:#b0b0b0;stroke-linecap:square;stroke-width:0.3;"/>
     </g>
     <g id="line2d_10">
      <g>
       <use style="stroke:#000000;stroke-width:0.8;" x="223.756477" xlink:href="#m494498c97c" y="464.79135"/>
      </g>
     </g>
     <g id="text_5">
      <!-- 2020/04/13 -->
      <g transform="translate(201.644364 527.145879)rotate(-45)scale(0.12 -0.12)">
       <defs>
        <path d="M 2419 4116 
L 825 1625 
L 2419 1625 
L 2419 4116 
z
M 2253 4666 
L 3047 4666 
L 3047 1625 
L 3713 1625 
L 3713 1100 
L 3047 1100 
L 3047 0 
L 2419 0 
L 2419 1100 
L 313 1100 
L 313 1709 
L 2253 4666 
z
" id="DejaVuSans-34" transform="scale(0.015625)"/>
       </defs>
       <use xlink:href="#DejaVuSans-32"/>
       <use x="63.623047" xlink:href="#DejaVuSans-30"/>
       <use x="127.246094" xlink:href="#DejaVuSans-32"/>
       <use x="190.869141" xlink:href="#DejaVuSans-30"/>
       <use x="254.492188" xlink:href="#DejaVuSans-2f"/>
       <use x="288.183594" xlink:href="#DejaVuSans-30"/>
       <use x="351.806641" xlink:href="#DejaVuSans-34"/>
       <use x="415.429688" xlink:href="#DejaVuSans-2f"/>
       <use x="449.121094" xlink:href="#DejaVuSans-31"/>
       <use x="512.744141" xlink:href="#DejaVuSans-33"/>
      </g>
     </g>
    </g>
    <g id="xtick_6">
     <g id="line2d_11">
      <path clip-path="url(#p02556ec227)" d="M 263.029205 464.79135 
L 263.029205 29.91135 
" style="fill:none;stroke:#b0b0b0;stroke-linecap:square;stroke-width:0.3;"/>
     </g>
     <g id="line2d_12">
      <g>
       <use style="stroke:#000000;stroke-width:0.8;" x="263.029205" xlink:href="#m494498c97c" y="464.79135"/>
      </g>
     </g>
     <g id="text_6">
      <!-- 2020/05/04 -->
      <g transform="translate(240.917092 527.145879)rotate(-45)scale(0.12 -0.12)">
       <defs>
        <path d="M 691 4666 
L 3169 4666 
L 3169 4134 
L 1269 4134 
L 1269 2991 
Q 1406 3038 1543 3061 
Q 1681 3084 1819 3084 
Q 2600 3084 3056 2656 
Q 3513 2228 3513 1497 
Q 3513 744 3044 326 
Q 2575 -91 1722 -91 
Q 1428 -91 1123 -41 
Q 819 9 494 109 
L 494 744 
Q 775 591 1075 516 
Q 1375 441 1709 441 
Q 2250 441 2565 725 
Q 2881 1009 2881 1497 
Q 2881 1984 2565 2268 
Q 2250 2553 1709 2553 
Q 1456 2553 1204 2497 
Q 953 2441 691 2322 
L 691 4666 
z
" id="DejaVuSans-35" transform="scale(0.015625)"/>
       </defs>
       <use xlink:href="#DejaVuSans-32"/>
       <use x="63.623047" xlink:href="#DejaVuSans-30"/>
       <use x="127.246094" xlink:href="#DejaVuSans-32"/>
       <use x="190.869141" xlink:href="#DejaVuSans-30"/>
       <use x="254.492188" xlink:href="#DejaVuSans-2f"/>
       <use x="288.183594" xlink:href="#DejaVuSans-30"/>
       <use x="351.806641" xlink:href="#DejaVuSans-35"/>
       <use x="415.429688" xlink:href="#DejaVuSans-2f"/>
       <use x="449.121094" xlink:href="#DejaVuSans-30"/>
       <use x="512.744141" xlink:href="#DejaVuSans-34"/>
      </g>
     </g>
    </g>
    <g id="xtick_7">
     <g id="line2d_13">
      <path clip-path="url(#p02556ec227)" d="M 302.301932 464.79135 
L 302.301932 29.91135 
" style="fill:none;stroke:#b0b0b0;stroke-linecap:square;stroke-width:0.3;"/>
     </g>
     <g id="line2d_14">
      <g>
       <use style="stroke:#000000;stroke-width:0.8;" x="302.301932" xlink:href="#m494498c97c" y="464.79135"/>
      </g>
     </g>
     <g id="text_7">
      <!-- 2020/05/25 -->
      <g transform="translate(280.189819 527.145879)rotate(-45)scale(0.12 -0.12)">
       <use xlink:href="#DejaVuSans-32"/>
       <use x="63.623047" xlink:href="#DejaVuSans-30"/>
       <use x="127.246094" xlink:href="#DejaVuSans-32"/>
       <use x="190.869141" xlink:href="#DejaVuSans-30"/>
       <use x="254.492188" xlink:href="#DejaVuSans-2f"/>
       <use x="288.183594" xlink:href="#DejaVuSans-30"/>
       <use x="351.806641" xlink:href="#DejaVuSans-35"/>
       <use x="415.429688" xlink:href="#DejaVuSans-2f"/>
       <use x="449.121094" xlink:href="#DejaVuSans-32"/>
       <use x="512.744141" xlink:href="#DejaVuSans-35"/>
      </g>
     </g>
    </g>
    <g id="xtick_8">
     <g id="line2d_15">
      <path clip-path="url(#p02556ec227)" d="M 341.574659 464.79135 
L 341.574659 29.91135 
" style="fill:none;stroke:#b0b0b0;stroke-linecap:square;stroke-width:0.3;"/>
     </g>
     <g id="line2d_16">
      <g>
       <use style="stroke:#000000;stroke-width:0.8;" x="341.574659" xlink:href="#m494498c97c" y="464.79135"/>
      </g>
     </g>
     <g id="text_8">
      <!-- 2020/06/15 -->
      <g transform="translate(319.462546 527.145879)rotate(-45)scale(0.12 -0.12)">
       <defs>
        <path d="M 2113 2584 
Q 1688 2584 1439 2293 
Q 1191 2003 1191 1497 
Q 1191 994 1439 701 
Q 1688 409 2113 409 
Q 2538 409 2786 701 
Q 3034 994 3034 1497 
Q 3034 2003 2786 2293 
Q 2538 2584 2113 2584 
z
M 3366 4563 
L 3366 3988 
Q 3128 4100 2886 4159 
Q 2644 4219 2406 4219 
Q 1781 4219 1451 3797 
Q 1122 3375 1075 2522 
Q 1259 2794 1537 2939 
Q 1816 3084 2150 3084 
Q 2853 3084 3261 2657 
Q 3669 2231 3669 1497 
Q 3669 778 3244 343 
Q 2819 -91 2113 -91 
Q 1303 -91 875 529 
Q 447 1150 447 2328 
Q 447 3434 972 4092 
Q 1497 4750 2381 4750 
Q 2619 4750 2861 4703 
Q 3103 4656 3366 4563 
z
" id="DejaVuSans-36" transform="scale(0.015625)"/>
       </defs>
       <use xlink:href="#DejaVuSans-32"/>
       <use x="63.623047" xlink:href="#DejaVuSans-30"/>
       <use x="127.246094" xlink:href="#DejaVuSans-32"/>
       <use x="190.869141" xlink:href="#DejaVuSans-30"/>
       <use x="254.492188" xlink:href="#DejaVuSans-2f"/>
       <use x="288.183594" xlink:href="#DejaVuSans-30"/>
       <use x="351.806641" xlink:href="#DejaVuSans-36"/>
       <use x="415.429688" xlink:href="#DejaVuSans-2f"/>
       <use x="449.121094" xlink:href="#DejaVuSans-31"/>
       <use x="512.744141" xlink:href="#DejaVuSans-35"/>
      </g>
     </g>
    </g>
    <g id="xtick_9">
     <g id="line2d_17">
      <path clip-path="url(#p02556ec227)" d="M 380.847386 464.79135 
L 380.847386 29.91135 
" style="fill:none;stroke:#b0b0b0;stroke-linecap:square;stroke-width:0.3;"/>
     </g>
     <g id="line2d_18">
      <g>
       <use style="stroke:#000000;stroke-width:0.8;" x="380.847386" xlink:href="#m494498c97c" y="464.79135"/>
      </g>
     </g>
     <g id="text_9">
      <!-- 2020/07/06 -->
      <g transform="translate(358.735273 527.145879)rotate(-45)scale(0.12 -0.12)">
       <defs>
        <path d="M 525 4666 
L 3525 4666 
L 3525 4397 
L 1831 0 
L 1172 0 
L 2766 4134 
L 525 4134 
L 525 4666 
z
" id="DejaVuSans-37" transform="scale(0.015625)"/>
       </defs>
       <use xlink:href="#DejaVuSans-32"/>
       <use x="63.623047" xlink:href="#DejaVuSans-30"/>
       <use x="127.246094" xlink:href="#DejaVuSans-32"/>
       <use x="190.869141" xlink:href="#DejaVuSans-30"/>
       <use x="254.492188" xlink:href="#DejaVuSans-2f"/>
       <use x="288.183594" xlink:href="#DejaVuSans-30"/>
       <use x="351.806641" xlink:href="#DejaVuSans-37"/>
       <use x="415.429688" xlink:href="#DejaVuSans-2f"/>
       <use x="449.121094" xlink:href="#DejaVuSans-30"/>
       <use x="512.744141" xlink:href="#DejaVuSans-36"/>
      </g>
     </g>
    </g>
    <g id="xtick_10">
     <g id="line2d_19">
      <path clip-path="url(#p02556ec227)" d="M 420.120114 464.79135 
L 420.120114 29.91135 
" style="fill:none;stroke:#b0b0b0;stroke-linecap:square;stroke-width:0.3;"/>
     </g>
     <g id="line2d_20">
      <g>
       <use style="stroke:#000000;stroke-width:0.8;" x="420.120114" xlink:href="#m494498c97c" y="464.79135"/>
      </g>
     </g>
     <g id="text_10">
      <!-- 2020/07/27 -->
      <g transform="translate(398.008001 527.145879)rotate(-45)scale(0.12 -0.12)">
       <use xlink:href="#DejaVuSans-32"/>
       <use x="63.623047" xlink:href="#DejaVuSans-30"/>
       <use x="127.246094" xlink:href="#DejaVuSans-32"/>
       <use x="190.869141" xlink:href="#DejaVuSans-30"/>
       <use x="254.492188" xlink:href="#DejaVuSans-2f"/>
       <use x="288.183594" xlink:href="#DejaVuSans-30"/>
       <use x="351.806641" xlink:href="#DejaVuSans-37"/>
       <use x="415.429688" xlink:href="#DejaVuSans-2f"/>
       <use x="449.121094" xlink:href="#DejaVuSans-32"/>
       <use x="512.744141" xlink:href="#DejaVuSans-37"/>
      </g>
     </g>
    </g>
    <g id="xtick_11">
     <g id="line2d_21">
      <path clip-path="url(#p02556ec227)" d="M 459.392841 464.79135 
L 459.392841 29.91135 
" style="fill:none;stroke:#b0b0b0;stroke-linecap:square;stroke-width:0.3;"/>
     </g>
     <g id="line2d_22">
      <g>
       <use style="stroke:#000000;stroke-width:0.8;" x="459.392841" xlink:href="#m494498c97c" y="464.79135"/>
      </g>
     </g>
     <g id="text_11">
      <!-- 2020/08/17 -->
      <g transform="translate(437.280728 527.145879)rotate(-45)scale(0.12 -0.12)">
       <defs>
        <path d="M 2034 2216 
Q 1584 2216 1326 1975 
Q 1069 1734 1069 1313 
Q 1069 891 1326 650 
Q 1584 409 2034 409 
Q 2484 409 2743 651 
Q 3003 894 3003 1313 
Q 3003 1734 2745 1975 
Q 2488 2216 2034 2216 
z
M 1403 2484 
Q 997 2584 770 2862 
Q 544 3141 544 3541 
Q 544 4100 942 4425 
Q 1341 4750 2034 4750 
Q 2731 4750 3128 4425 
Q 3525 4100 3525 3541 
Q 3525 3141 3298 2862 
Q 3072 2584 2669 2484 
Q 3125 2378 3379 2068 
Q 3634 1759 3634 1313 
Q 3634 634 3220 271 
Q 2806 -91 2034 -91 
Q 1263 -91 848 271 
Q 434 634 434 1313 
Q 434 1759 690 2068 
Q 947 2378 1403 2484 
z
M 1172 3481 
Q 1172 3119 1398 2916 
Q 1625 2713 2034 2713 
Q 2441 2713 2670 2916 
Q 2900 3119 2900 3481 
Q 2900 3844 2670 4047 
Q 2441 4250 2034 4250 
Q 1625 4250 1398 4047 
Q 1172 3844 1172 3481 
z
" id="DejaVuSans-38" transform="scale(0.015625)"/>
       </defs>
       <use xlink:href="#DejaVuSans-32"/>
       <use x="63.623047" xlink:href="#DejaVuSans-30"/>
       <use x="127.246094" xlink:href="#DejaVuSans-32"/>
       <use x="190.869141" xlink:href="#DejaVuSans-30"/>
       <use x="254.492188" xlink:href="#DejaVuSans-2f"/>
       <use x="288.183594" xlink:href="#DejaVuSans-30"/>
       <use x="351.806641" xlink:href="#DejaVuSans-38"/>
       <use x="415.429688" xlink:href="#DejaVuSans-2f"/>
       <use x="449.121094" xlink:href="#DejaVuSans-31"/>
       <use x="512.744141" xlink:href="#DejaVuSans-37"/>
      </g>
     </g>
    </g>
    <g id="xtick_12">
     <g id="line2d_23">
      <path clip-path="url(#p02556ec227)" d="M 498.665568 464.79135 
L 498.665568 29.91135 
" style="fill:none;stroke:#b0b0b0;stroke-linecap:square;stroke-width:0.3;"/>
     </g>
     <g id="line2d_24">
      <g>
       <use style="stroke:#000000;stroke-width:0.8;" x="498.665568" xlink:href="#m494498c97c" y="464.79135"/>
      </g>
     </g>
     <g id="text_12">
      <!-- 2020/09/07 -->
      <g transform="translate(476.553455 527.145879)rotate(-45)scale(0.12 -0.12)">
       <defs>
        <path d="M 703 97 
L 703 672 
Q 941 559 1184 500 
Q 1428 441 1663 441 
Q 2288 441 2617 861 
Q 2947 1281 2994 2138 
Q 2813 1869 2534 1725 
Q 2256 1581 1919 1581 
Q 1219 1581 811 2004 
Q 403 2428 403 3163 
Q 403 3881 828 4315 
Q 1253 4750 1959 4750 
Q 2769 4750 3195 4129 
Q 3622 3509 3622 2328 
Q 3622 1225 3098 567 
Q 2575 -91 1691 -91 
Q 1453 -91 1209 -44 
Q 966 3 703 97 
z
M 1959 2075 
Q 2384 2075 2632 2365 
Q 2881 2656 2881 3163 
Q 2881 3666 2632 3958 
Q 2384 4250 1959 4250 
Q 1534 4250 1286 3958 
Q 1038 3666 1038 3163 
Q 1038 2656 1286 2365 
Q 1534 2075 1959 2075 
z
" id="DejaVuSans-39" transform="scale(0.015625)"/>
       </defs>
       <use xlink:href="#DejaVuSans-32"/>
       <use x="63.623047" xlink:href="#DejaVuSans-30"/>
       <use x="127.246094" xlink:href="#DejaVuSans-32"/>
       <use x="190.869141" xlink:href="#DejaVuSans-30"/>
       <use x="254.492188" xlink:href="#DejaVuSans-2f"/>
       <use x="288.183594" xlink:href="#DejaVuSans-30"/>
       <use x="351.806641" xlink:href="#DejaVuSans-39"/>
       <use x="415.429688" xlink:href="#DejaVuSans-2f"/>
       <use x="449.121094" xlink:href="#DejaVuSans-30"/>
       <use x="512.744141" xlink:href="#DejaVuSans-37"/>
      </g>
     </g>
    </g>
    <g id="xtick_13">
     <g id="line2d_25">
      <path clip-path="url(#p02556ec227)" d="M 537.938295 464.79135 
L 537.938295 29.91135 
" style="fill:none;stroke:#b0b0b0;stroke-linecap:square;stroke-width:0.3;"/>
     </g>
     <g id="line2d_26">
      <g>
       <use style="stroke:#000000;stroke-width:0.8;" x="537.938295" xlink:href="#m494498c97c" y="464.79135"/>
      </g>
     </g>
     <g id="text_13">
      <!-- 2020/09/28 -->
      <g transform="translate(515.826183 527.145879)rotate(-45)scale(0.12 -0.12)">
       <use xlink:href="#DejaVuSans-32"/>
       <use x="63.623047" xlink:href="#DejaVuSans-30"/>
       <use x="127.246094" xlink:href="#DejaVuSans-32"/>
       <use x="190.869141" xlink:href="#DejaVuSans-30"/>
       <use x="254.492188" xlink:href="#DejaVuSans-2f"/>
       <use x="288.183594" xlink:href="#DejaVuSans-30"/>
       <use x="351.806641" xlink:href="#DejaVuSans-39"/>
       <use x="415.429688" xlink:href="#DejaVuSans-2f"/>
       <use x="449.121094" xlink:href="#DejaVuSans-32"/>
       <use x="512.744141" xlink:href="#DejaVuSans-38"/>
      </g>
     </g>
    </g>
    <g id="xtick_14">
     <g id="line2d_27">
      <path clip-path="url(#p02556ec227)" d="M 577.211023 464.79135 
L 577.211023 29.91135 
" style="fill:none;stroke:#b0b0b0;stroke-linecap:square;stroke-width:0.3;"/>
     </g>
     <g id="line2d_28">
      <g>
       <use style="stroke:#000000;stroke-width:0.8;" x="577.211023" xlink:href="#m494498c97c" y="464.79135"/>
      </g>
     </g>
     <g id="text_14">
      <!-- 2020/10/19 -->
      <g transform="translate(555.09891 527.145879)rotate(-45)scale(0.12 -0.12)">
       <use xlink:href="#DejaVuSans-32"/>
       <use x="63.623047" xlink:href="#DejaVuSans-30"/>
       <use x="127.246094" xlink:href="#DejaVuSans-32"/>
       <use x="190.869141" xlink:href="#DejaVuSans-30"/>
       <use x="254.492188" xlink:href="#DejaVuSans-2f"/>
       <use x="288.183594" xlink:href="#DejaVuSans-31"/>
       <use x="351.806641" xlink:href="#DejaVuSans-30"/>
       <use x="415.429688" xlink:href="#DejaVuSans-2f"/>
       <use x="449.121094" xlink:href="#DejaVuSans-31"/>
       <use x="512.744141" xlink:href="#DejaVuSans-39"/>
      </g>
     </g>
    </g>
    <g id="xtick_15">
     <g id="line2d_29">
      <path clip-path="url(#p02556ec227)" d="M 616.48375 464.79135 
L 616.48375 29.91135 
" style="fill:none;stroke:#b0b0b0;stroke-linecap:square;stroke-width:0.3;"/>
     </g>
     <g id="line2d_30">
      <g>
       <use style="stroke:#000000;stroke-width:0.8;" x="616.48375" xlink:href="#m494498c97c" y="464.79135"/>
      </g>
     </g>
     <g id="text_15">
      <!-- 2020/11/09 -->
      <g transform="translate(594.371637 527.145879)rotate(-45)scale(0.12 -0.12)">
       <use xlink:href="#DejaVuSans-32"/>
       <use x="63.623047" xlink:href="#DejaVuSans-30"/>
       <use x="127.246094" xlink:href="#DejaVuSans-32"/>
       <use x="190.869141" xlink:href="#DejaVuSans-30"/>
       <use x="254.492188" xlink:href="#DejaVuSans-2f"/>
       <use x="288.183594" xlink:href="#DejaVuSans-31"/>
       <use x="351.806641" xlink:href="#DejaVuSans-31"/>
       <use x="415.429688" xlink:href="#DejaVuSans-2f"/>
       <use x="449.121094" xlink:href="#DejaVuSans-30"/>
       <use x="512.744141" xlink:href="#DejaVuSans-39"/>
      </g>
     </g>
    </g>
    <g id="xtick_16">
     <g id="line2d_31">
      <path clip-path="url(#p02556ec227)" d="M 655.756477 464.79135 
L 655.756477 29.91135 
" style="fill:none;stroke:#b0b0b0;stroke-linecap:square;stroke-width:0.3;"/>
     </g>
     <g id="line2d_32">
      <g>
       <use style="stroke:#000000;stroke-width:0.8;" x="655.756477" xlink:href="#m494498c97c" y="464.79135"/>
      </g>
     </g>
     <g id="text_16">
      <!-- 2020/11/30 -->
      <g transform="translate(633.644364 527.145879)rotate(-45)scale(0.12 -0.12)">
       <use xlink:href="#DejaVuSans-32"/>
       <use x="63.623047" xlink:href="#DejaVuSans-30"/>
       <use x="127.246094" xlink:href="#DejaVuSans-32"/>
       <use x="190.869141" xlink:href="#DejaVuSans-30"/>
       <use x="254.492188" xlink:href="#DejaVuSans-2f"/>
       <use x="288.183594" xlink:href="#DejaVuSans-31"/>
       <use x="351.806641" xlink:href="#DejaVuSans-31"/>
       <use x="415.429688" xlink:href="#DejaVuSans-2f"/>
       <use x="449.121094" xlink:href="#DejaVuSans-33"/>
       <use x="512.744141" xlink:href="#DejaVuSans-30"/>
      </g>
     </g>
    </g>
    <g id="xtick_17">
     <g id="line2d_33">
      <path clip-path="url(#p02556ec227)" d="M 695.029205 464.79135 
L 695.029205 29.91135 
" style="fill:none;stroke:#b0b0b0;stroke-linecap:square;stroke-width:0.3;"/>
     </g>
     <g id="line2d_34">
      <g>
       <use style="stroke:#000000;stroke-width:0.8;" x="695.029205" xlink:href="#m494498c97c" y="464.79135"/>
      </g>
     </g>
     <g id="text_17">
      <!-- 2020/12/21 -->
      <g transform="translate(672.917092 527.145879)rotate(-45)scale(0.12 -0.12)">
       <use xlink:href="#DejaVuSans-32"/>
       <use x="63.623047" xlink:href="#DejaVuSans-30"/>
       <use x="127.246094" xlink:href="#DejaVuSans-32"/>
       <use x="190.869141" xlink:href="#DejaVuSans-30"/>
       <use x="254.492188" xlink:href="#DejaVuSans-2f"/>
       <use x="288.183594" xlink:href="#DejaVuSans-31"/>
       <use x="351.806641" xlink:href="#DejaVuSans-32"/>
       <use x="415.429688" xlink:href="#DejaVuSans-2f"/>
       <use x="449.121094" xlink:href="#DejaVuSans-32"/>
       <use x="512.744141" xlink:href="#DejaVuSans-31"/>
      </g>
     </g>
    </g>
    <g id="xtick_18">
     <g id="line2d_35">
      <path clip-path="url(#p02556ec227)" d="M 734.301932 464.79135 
L 734.301932 29.91135 
" style="fill:none;stroke:#b0b0b0;stroke-linecap:square;stroke-width:0.3;"/>
     </g>
     <g id="line2d_36">
      <g>
       <use style="stroke:#000000;stroke-width:0.8;" x="734.301932" xlink:href="#m494498c97c" y="464.79135"/>
      </g>
     </g>
     <g id="text_18">
      <!-- 2021/01/11 -->
      <g transform="translate(712.189819 527.145879)rotate(-45)scale(0.12 -0.12)">
       <use xlink:href="#DejaVuSans-32"/>
       <use x="63.623047" xlink:href="#DejaVuSans-30"/>
       <use x="127.246094" xlink:href="#DejaVuSans-32"/>
       <use x="190.869141" xlink:href="#DejaVuSans-31"/>
       <use x="254.492188" xlink:href="#DejaVuSans-2f"/>
       <use x="288.183594" xlink:href="#DejaVuSans-30"/>
       <use x="351.806641" xlink:href="#DejaVuSans-31"/>
       <use x="415.429688" xlink:href="#DejaVuSans-2f"/>
       <use x="449.121094" xlink:href="#DejaVuSans-31"/>
       <use x="512.744141" xlink:href="#DejaVuSans-31"/>
      </g>
     </g>
    </g>
    <g id="xtick_19">
     <g id="line2d_37">
      <path clip-path="url(#p02556ec227)" d="M 773.574659 464.79135 
L 773.574659 29.91135 
" style="fill:none;stroke:#b0b0b0;stroke-linecap:square;stroke-width:0.3;"/>
     </g>
     <g id="line2d_38">
      <g>
       <use style="stroke:#000000;stroke-width:0.8;" x="773.574659" xlink:href="#m494498c97c" y="464.79135"/>
      </g>
     </g>
     <g id="text_19">
      <!-- 2021/02/01 -->
      <g transform="translate(751.462546 527.145879)rotate(-45)scale(0.12 -0.12)">
       <use xlink:href="#DejaVuSans-32"/>
       <use x="63.623047" xlink:href="#DejaVuSans-30"/>
       <use x="127.246094" xlink:href="#DejaVuSans-32"/>
       <use x="190.869141" xlink:href="#DejaVuSans-31"/>
       <use x="254.492188" xlink:href="#DejaVuSans-2f"/>
       <use x="288.183594" xlink:href="#DejaVuSans-30"/>
       <use x="351.806641" xlink:href="#DejaVuSans-32"/>
       <use x="415.429688" xlink:href="#DejaVuSans-2f"/>
       <use x="449.121094" xlink:href="#DejaVuSans-30"/>
       <use x="512.744141" xlink:href="#DejaVuSans-31"/>
      </g>
     </g>
    </g>
    <g id="xtick_20">
     <g id="line2d_39">
      <path clip-path="url(#p02556ec227)" d="M 812.847386 464.79135 
L 812.847386 29.91135 
" style="fill:none;stroke:#b0b0b0;stroke-linecap:square;stroke-width:0.3;"/>
     </g>
     <g id="line2d_40">
      <g>
       <use style="stroke:#000000;stroke-width:0.8;" x="812.847386" xlink:href="#m494498c97c" y="464.79135"/>
      </g>
     </g>
     <g id="text_20">
      <!-- 2021/02/22 -->
      <g transform="translate(790.735273 527.145879)rotate(-45)scale(0.12 -0.12)">
       <use xlink:href="#DejaVuSans-32"/>
       <use x="63.623047" xlink:href="#DejaVuSans-30"/>
       <use x="127.246094" xlink:href="#DejaVuSans-32"/>
       <use x="190.869141" xlink:href="#DejaVuSans-31"/>
       <use x="254.492188" xlink:href="#DejaVuSans-2f"/>
       <use x="288.183594" xlink:href="#DejaVuSans-30"/>
       <use x="351.806641" xlink:href="#DejaVuSans-32"/>
       <use x="415.429688" xlink:href="#DejaVuSans-2f"/>
       <use x="449.121094" xlink:href="#DejaVuSans-32"/>
       <use x="512.744141" xlink:href="#DejaVuSans-32"/>
      </g>
     </g>
    </g>
    <g id="xtick_21">
     <g id="line2d_41">
      <path clip-path="url(#p02556ec227)" d="M 852.120114 464.79135 
L 852.120114 29.91135 
" style="fill:none;stroke:#b0b0b0;stroke-linecap:square;stroke-width:0.3;"/>
     </g>
     <g id="line2d_42">
      <g>
       <use style="stroke:#000000;stroke-width:0.8;" x="852.120114" xlink:href="#m494498c97c" y="464.79135"/>
      </g>
     </g>
     <g id="text_21">
      <!-- 2021/03/15 -->
      <g transform="translate(830.008001 527.145879)rotate(-45)scale(0.12 -0.12)">
       <use xlink:href="#DejaVuSans-32"/>
       <use x="63.623047" xlink:href="#DejaVuSans-30"/>
       <use x="127.246094" xlink:href="#DejaVuSans-32"/>
       <use x="190.869141" xlink:href="#DejaVuSans-31"/>
       <use x="254.492188" xlink:href="#DejaVuSans-2f"/>
       <use x="288.183594" xlink:href="#DejaVuSans-30"/>
       <use x="351.806641" xlink:href="#DejaVuSans-33"/>
       <use x="415.429688" xlink:href="#DejaVuSans-2f"/>
       <use x="449.121094" xlink:href="#DejaVuSans-31"/>
       <use x="512.744141" xlink:href="#DejaVuSans-35"/>
      </g>
     </g>
    </g>
    <g id="xtick_22">
     <g id="line2d_43">
      <path clip-path="url(#p02556ec227)" d="M 891.392841 464.79135 
L 891.392841 29.91135 
" style="fill:none;stroke:#b0b0b0;stroke-linecap:square;stroke-width:0.3;"/>
     </g>
     <g id="line2d_44">
      <g>
       <use style="stroke:#000000;stroke-width:0.8;" x="891.392841" xlink:href="#m494498c97c" y="464.79135"/>
      </g>
     </g>
    </g>
   </g>
   <g id="matplotlib.axis_2">
    <g id="ytick_1">
     <g id="line2d_45">
      <path clip-path="url(#p02556ec227)" d="M 26.08375 429.277249 
L 918.88375 429.277249 
" style="fill:none;stroke:#b0b0b0;stroke-linecap:square;stroke-width:0.3;"/>
     </g>
     <g id="line2d_46">
      <defs>
       <path d="M 0 0 
L -3.5 0 
" id="m4cedfb4a0a" style="stroke:#000000;stroke-width:0.8;"/>
      </defs>
      <g>
       <use style="stroke:#000000;stroke-width:0.8;" x="26.08375" xlink:href="#m4cedfb4a0a" y="429.277249"/>
      </g>
     </g>
     <g id="text_22">
      <!-- 0.1 -->
      <g transform="translate(-0 433.836312)scale(0.12 -0.12)">
       <defs>
        <path d="M 684 794 
L 1344 794 
L 1344 0 
L 684 0 
L 684 794 
z
" id="DejaVuSans-2e" transform="scale(0.015625)"/>
       </defs>
       <use xlink:href="#DejaVuSans-30"/>
       <use x="63.623047" xlink:href="#DejaVuSans-2e"/>
       <use x="95.410156" xlink:href="#DejaVuSans-31"/>
      </g>
     </g>
    </g>
    <g id="ytick_2">
     <g id="line2d_47">
      <path clip-path="url(#p02556ec227)" d="M 26.08375 350.633178 
L 918.88375 350.633178 
" style="fill:none;stroke:#b0b0b0;stroke-linecap:square;stroke-width:0.3;"/>
     </g>
     <g id="line2d_48">
      <g>
       <use style="stroke:#000000;stroke-width:0.8;" x="26.08375" xlink:href="#m4cedfb4a0a" y="350.633178"/>
      </g>
     </g>
     <g id="text_23">
      <!-- 0.2 -->
      <g transform="translate(-0 355.19224)scale(0.12 -0.12)">
       <use xlink:href="#DejaVuSans-30"/>
       <use x="63.623047" xlink:href="#DejaVuSans-2e"/>
       <use x="95.410156" xlink:href="#DejaVuSans-32"/>
      </g>
     </g>
    </g>
    <g id="ytick_3">
     <g id="line2d_49">
      <path clip-path="url(#p02556ec227)" d="M 26.08375 271.989106 
L 918.88375 271.989106 
" style="fill:none;stroke:#b0b0b0;stroke-linecap:square;stroke-width:0.3;"/>
     </g>
     <g id="line2d_50">
      <g>
       <use style="stroke:#000000;stroke-width:0.8;" x="26.08375" xlink:href="#m4cedfb4a0a" y="271.989106"/>
      </g>
     </g>
     <g id="text_24">
      <!-- 0.3 -->
      <g transform="translate(-0 276.548169)scale(0.12 -0.12)">
       <use xlink:href="#DejaVuSans-30"/>
       <use x="63.623047" xlink:href="#DejaVuSans-2e"/>
       <use x="95.410156" xlink:href="#DejaVuSans-33"/>
      </g>
     </g>
    </g>
    <g id="ytick_4">
     <g id="line2d_51">
      <path clip-path="url(#p02556ec227)" d="M 26.08375 193.345035 
L 918.88375 193.345035 
" style="fill:none;stroke:#b0b0b0;stroke-linecap:square;stroke-width:0.3;"/>
     </g>
     <g id="line2d_52">
      <g>
       <use style="stroke:#000000;stroke-width:0.8;" x="26.08375" xlink:href="#m4cedfb4a0a" y="193.345035"/>
      </g>
     </g>
     <g id="text_25">
      <!-- 0.4 -->
      <g transform="translate(-0 197.904097)scale(0.12 -0.12)">
       <use xlink:href="#DejaVuSans-30"/>
       <use x="63.623047" xlink:href="#DejaVuSans-2e"/>
       <use x="95.410156" xlink:href="#DejaVuSans-34"/>
      </g>
     </g>
    </g>
    <g id="ytick_5">
     <g id="line2d_53">
      <path clip-path="url(#p02556ec227)" d="M 26.08375 114.700963 
L 918.88375 114.700963 
" style="fill:none;stroke:#b0b0b0;stroke-linecap:square;stroke-width:0.3;"/>
     </g>
     <g id="line2d_54">
      <g>
       <use style="stroke:#000000;stroke-width:0.8;" x="26.08375" xlink:href="#m4cedfb4a0a" y="114.700963"/>
      </g>
     </g>
     <g id="text_26">
      <!-- 0.5 -->
      <g transform="translate(-0 119.260026)scale(0.12 -0.12)">
       <use xlink:href="#DejaVuSans-30"/>
       <use x="63.623047" xlink:href="#DejaVuSans-2e"/>
       <use x="95.410156" xlink:href="#DejaVuSans-35"/>
      </g>
     </g>
    </g>
    <g id="ytick_6">
     <g id="line2d_55">
      <path clip-path="url(#p02556ec227)" d="M 26.08375 36.056892 
L 918.88375 36.056892 
" style="fill:none;stroke:#b0b0b0;stroke-linecap:square;stroke-width:0.3;"/>
     </g>
     <g id="line2d_56">
      <g>
       <use style="stroke:#000000;stroke-width:0.8;" x="26.08375" xlink:href="#m4cedfb4a0a" y="36.056892"/>
      </g>
     </g>
     <g id="text_27">
      <!-- 0.6 -->
      <g transform="translate(-0 40.615954)scale(0.12 -0.12)">
       <use xlink:href="#DejaVuSans-30"/>
       <use x="63.623047" xlink:href="#DejaVuSans-2e"/>
       <use x="95.410156" xlink:href="#DejaVuSans-36"/>
      </g>
     </g>
    </g>
   </g>
   <g id="line2d_57">
    <path clip-path="url(#p02556ec227)" d="M 66.665568 364.867728 
L 79.756477 349.593404 
L 92.847386 349.219593 
L 105.938295 345.02865 
L 119.029205 345.161609 
L 132.120114 328.337349 
L 145.211023 349.620443 
L 158.301932 372.827913 
L 171.392841 373.738762 
L 184.48375 373.36467 
L 197.574659 362.139818 
L 210.665568 368.877635 
L 223.756477 362.49131 
L 236.847386 364.210401 
L 249.938295 372.136355 
L 263.029205 368.03551 
L 276.120114 369.517652 
L 289.211023 371.838764 
L 302.301932 342.803944 
L 315.392841 310.005739 
L 328.48375 336.000869 
L 341.574659 330.11208 
L 354.665568 323.514075 
L 367.756477 320.390979 
L 380.847386 323.184035 
L 393.938295 322.230267 
L 407.029205 328.046247 
L 420.120114 323.389812 
L 433.211023 330.426848 
L 446.301932 331.190903 
L 459.392841 336.085129 
L 472.48375 330.306201 
L 485.574659 329.098567 
L 498.665568 310.556143 
L 511.756477 320.47675 
L 524.847386 327.367215 
L 537.938295 322.022831 
L 551.029205 307.580666 
L 564.120114 321.144277 
L 577.211023 317.748511 
L 590.301932 314.318305 
L 603.392841 327.044156 
L 616.48375 324.927497 
L 629.574659 315.619591 
L 642.665568 323.568553 
L 655.756477 324.009851 
L 668.847386 323.345724 
L 681.938295 319.149406 
L 695.029205 320.684217 
L 708.120114 312.36235 
L 721.211023 325.622508 
L 734.301932 332.519017 
L 747.392841 329.425383 
L 760.48375 330.72888 
L 773.574659 338.007966 
L 786.665568 332.923801 
L 799.756477 336.801895 
L 812.847386 337.277425 
L 825.938295 328.083903 
L 839.029205 336.29441 
L 852.120114 331.794984 
L 865.211023 344.699869 
L 878.301932 352.890342 
" style="fill:none;stroke:#ff0000;stroke-linecap:square;stroke-width:1.5;"/>
   </g>
   <g id="line2d_58">
    <path clip-path="url(#p02556ec227)" d="M 66.665568 443.726469 
L 79.756477 438.323969 
L 92.847386 430.997846 
L 105.938295 431.668641 
L 119.029205 426.270023 
L 132.120114 424.3949 
L 145.211023 431.49965 
L 158.301932 445.024077 
L 171.392841 440.582308 
L 184.48375 433.870121 
L 197.574659 430.061788 
L 210.665568 427.663127 
L 223.756477 425.433391 
L 236.847386 426.984634 
L 249.938295 424.791647 
L 263.029205 421.0233 
L 276.120114 421.714975 
L 289.211023 416.763174 
L 302.301932 412.310576 
L 315.392841 410.23427 
L 328.48375 401.845216 
L 341.574659 401.631388 
L 354.665568 400.724361 
L 367.756477 401.64617 
L 380.847386 396.403594 
L 393.938295 399.435979 
L 407.029205 397.14174 
L 420.120114 395.038224 
L 433.211023 389.516435 
L 446.301932 391.09604 
L 459.392841 391.059519 
L 472.48375 390.239712 
L 485.574659 388.038817 
L 498.665568 385.375786 
L 511.756477 387.392747 
L 524.847386 388.590518 
L 537.938295 391.908681 
L 551.029205 379.332118 
L 564.120114 383.794674 
L 577.211023 383.593785 
L 590.301932 380.551876 
L 603.392841 386.463102 
L 616.48375 385.436112 
L 629.574659 378.60525 
L 642.665568 379.77721 
L 655.756477 381.056565 
L 668.847386 380.523599 
L 681.938295 382.508732 
L 695.029205 379.209207 
L 708.120114 374.593024 
L 721.211023 385.972517 
L 734.301932 389.511876 
L 747.392841 379.987274 
L 760.48375 381.748244 
L 773.574659 383.472226 
L 786.665568 387.119572 
L 799.756477 383.927826 
L 812.847386 384.276555 
L 825.938295 389.544508 
L 839.029205 388.098098 
L 852.120114 396.536434 
L 865.211023 392.999707 
L 878.301932 404.476356 
" style="fill:none;stroke:#3581b7;stroke-linecap:square;stroke-width:1.5;"/>
   </g>
   <g id="line2d_59">
    <path clip-path="url(#p02556ec227)" d="M 66.665568 373.43212 
L 79.756477 382.242297 
L 92.847386 395.676946 
L 105.938295 393.827973 
L 119.029205 400.002971 
L 132.120114 367.614263 
L 145.211023 367.523062 
L 158.301932 411.760382 
L 171.392841 428.349679 
L 184.48375 435.102713 
L 197.574659 436.625691 
L 210.665568 436.913215 
L 223.756477 437.291772 
L 236.847386 436.21621 
L 249.938295 433.530898 
L 263.029205 430.552915 
L 276.120114 428.985025 
L 289.211023 428.415346 
L 302.301932 425.542089 
L 315.392841 416.059348 
L 328.48375 410.913513 
L 341.574659 407.876466 
L 354.665568 406.729977 
L 367.756477 408.242217 
L 380.847386 406.450681 
L 393.938295 409.121379 
L 407.029205 410.479619 
L 420.120114 408.795416 
L 433.211023 406.634669 
L 446.301932 409.351657 
L 459.392841 407.486187 
L 472.48375 403.802242 
L 485.574659 406.714625 
L 498.665568 396.54429 
L 511.756477 403.388601 
L 524.847386 399.385069 
L 537.938295 407.385345 
L 551.029205 391.984248 
L 564.120114 402.377292 
L 577.211023 404.410141 
L 590.301932 399.89213 
L 603.392841 405.95962 
L 616.48375 408.547119 
L 629.574659 402.891546 
L 642.665568 404.358395 
L 655.756477 406.151696 
L 668.847386 406.55472 
L 681.938295 397.674989 
L 695.029205 392.051463 
L 708.120114 396.546154 
L 721.211023 396.451837 
L 734.301932 403.235127 
L 747.392841 407.618964 
L 760.48375 402.543942 
L 773.574659 405.578195 
L 786.665568 404.741649 
L 799.756477 406.238399 
L 812.847386 407.580891 
L 825.938295 405.071833 
L 839.029205 408.683817 
L 852.120114 406.609456 
L 865.211023 410.068916 
L 878.301932 410.670882 
" style="fill:none;stroke:#8058a7;stroke-linecap:square;stroke-width:1.5;"/>
   </g>
   <g id="line2d_60">
    <path clip-path="url(#p02556ec227)" d="M 66.665568 206.074654 
L 79.756477 170.558155 
L 92.847386 164.340754 
L 105.938295 159.874215 
L 119.029205 156.441473 
L 132.120114 143.056621 
L 145.211023 150.125466 
L 158.301932 172.359595 
L 171.392841 148.72222 
L 184.48375 125.421066 
L 197.574659 120.347779 
L 210.665568 108.804848 
L 223.756477 112.296444 
L 236.847386 107.254102 
L 249.938295 102.964191 
L 263.029205 99.361203 
L 276.120114 103.029095 
L 289.211023 100.707457 
L 302.301932 105.332172 
L 315.392841 95.969957 
L 328.48375 66.701506 
L 341.574659 66.521602 
L 354.665568 67.775836 
L 367.756477 65.484915 
L 380.847386 67.889847 
L 393.938295 73.195812 
L 407.029205 66.059776 
L 420.120114 64.383469 
L 433.211023 65.358918 
L 446.301932 69.133612 
L 459.392841 63.698928 
L 472.48375 62.826517 
L 485.574659 69.483108 
L 498.665568 69.665048 
L 511.756477 69.872188 
L 524.847386 67.428989 
L 537.938295 60.535466 
L 551.029205 64.071483 
L 564.120114 61.606991 
L 577.211023 64.104272 
L 590.301932 63.378334 
L 603.392841 56.624819 
L 616.48375 52.8603 
L 629.574659 57.688879 
L 642.665568 49.85369 
L 655.756477 49.678623 
L 668.847386 54.041635 
L 681.938295 62.04904 
L 695.029205 56.001666 
L 708.120114 55.26284 
L 721.211023 68.313361 
L 734.301932 72.83823 
L 747.392841 66.088079 
L 760.48375 65.469321 
L 773.574659 53.414809 
L 786.665568 56.575381 
L 799.756477 60.661359 
L 812.847386 60.070051 
L 825.938295 59.101678 
L 839.029205 55.816823 
L 852.120114 69.619752 
L 865.211023 75.183356 
L 878.301932 86.732409 
" style="fill:none;stroke:#ffb639;stroke-linecap:square;stroke-width:1.5;"/>
   </g>
   <g id="patch_3">
    <path d="M 26.08375 464.79135 
L 26.08375 29.91135 
" style="fill:none;stroke:#000000;stroke-linecap:square;stroke-linejoin:miter;stroke-width:0.8;"/>
   </g>
   <g id="patch_4">
    <path d="M 918.88375 464.79135 
L 918.88375 29.91135 
" style="fill:none;stroke:#000000;stroke-linecap:square;stroke-linejoin:miter;stroke-width:0.8;"/>
   </g>
   <g id="patch_5">
    <path d="M 26.08375 464.79135 
L 918.88375 464.79135 
" style="fill:none;stroke:#000000;stroke-linecap:square;stroke-linejoin:miter;stroke-width:0.8;"/>
   </g>
   <g id="patch_6">
    <path d="M 26.08375 29.91135 
L 918.88375 29.91135 
" style="fill:none;stroke:#000000;stroke-linecap:square;stroke-linejoin:miter;stroke-width:0.8;"/>
   </g>
   <g id="legend_1">
    <g id="patch_7">
     <path d="M 28.48375 21.21375 
L 916.48375 21.21375 
Q 918.88375 21.21375 918.88375 18.81375 
L 918.88375 2.4 
Q 918.88375 0 916.48375 0 
L 28.48375 0 
Q 26.08375 0 26.08375 2.4 
L 26.08375 18.81375 
Q 26.08375 21.21375 28.48375 21.21375 
z
" style="fill:#ffffff;opacity:0.8;stroke:#cccccc;stroke-linejoin:miter;"/>
    </g>
    <g id="line2d_61">
     <path d="M 30.88375 9.718125 
L 54.88375 9.718125 
" style="fill:none;stroke:#ff0000;stroke-linecap:square;stroke-width:1.5;"/>
    </g>
    <g id="line2d_62"/>
    <g id="text_28">
     <!-- Anger -->
     <g transform="translate(64.48375 13.918125)scale(0.12 -0.12)">
      <defs>
       <path d="M 2188 4044 
L 1331 1722 
L 3047 1722 
L 2188 4044 
z
M 1831 4666 
L 2547 4666 
L 4325 0 
L 3669 0 
L 3244 1197 
L 1141 1197 
L 716 0 
L 50 0 
L 1831 4666 
z
" id="DejaVuSans-41" transform="scale(0.015625)"/>
       <path d="M 3513 2113 
L 3513 0 
L 2938 0 
L 2938 2094 
Q 2938 2591 2744 2837 
Q 2550 3084 2163 3084 
Q 1697 3084 1428 2787 
Q 1159 2491 1159 1978 
L 1159 0 
L 581 0 
L 581 3500 
L 1159 3500 
L 1159 2956 
Q 1366 3272 1645 3428 
Q 1925 3584 2291 3584 
Q 2894 3584 3203 3211 
Q 3513 2838 3513 2113 
z
" id="DejaVuSans-6e" transform="scale(0.015625)"/>
       <path d="M 2906 1791 
Q 2906 2416 2648 2759 
Q 2391 3103 1925 3103 
Q 1463 3103 1205 2759 
Q 947 2416 947 1791 
Q 947 1169 1205 825 
Q 1463 481 1925 481 
Q 2391 481 2648 825 
Q 2906 1169 2906 1791 
z
M 3481 434 
Q 3481 -459 3084 -895 
Q 2688 -1331 1869 -1331 
Q 1566 -1331 1297 -1286 
Q 1028 -1241 775 -1147 
L 775 -588 
Q 1028 -725 1275 -790 
Q 1522 -856 1778 -856 
Q 2344 -856 2625 -561 
Q 2906 -266 2906 331 
L 2906 616 
Q 2728 306 2450 153 
Q 2172 0 1784 0 
Q 1141 0 747 490 
Q 353 981 353 1791 
Q 353 2603 747 3093 
Q 1141 3584 1784 3584 
Q 2172 3584 2450 3431 
Q 2728 3278 2906 2969 
L 2906 3500 
L 3481 3500 
L 3481 434 
z
" id="DejaVuSans-67" transform="scale(0.015625)"/>
       <path d="M 3597 1894 
L 3597 1613 
L 953 1613 
Q 991 1019 1311 708 
Q 1631 397 2203 397 
Q 2534 397 2845 478 
Q 3156 559 3463 722 
L 3463 178 
Q 3153 47 2828 -22 
Q 2503 -91 2169 -91 
Q 1331 -91 842 396 
Q 353 884 353 1716 
Q 353 2575 817 3079 
Q 1281 3584 2069 3584 
Q 2775 3584 3186 3129 
Q 3597 2675 3597 1894 
z
M 3022 2063 
Q 3016 2534 2758 2815 
Q 2500 3097 2075 3097 
Q 1594 3097 1305 2825 
Q 1016 2553 972 2059 
L 3022 2063 
z
" id="DejaVuSans-65" transform="scale(0.015625)"/>
       <path d="M 2631 2963 
Q 2534 3019 2420 3045 
Q 2306 3072 2169 3072 
Q 1681 3072 1420 2755 
Q 1159 2438 1159 1844 
L 1159 0 
L 581 0 
L 581 3500 
L 1159 3500 
L 1159 2956 
Q 1341 3275 1631 3429 
Q 1922 3584 2338 3584 
Q 2397 3584 2469 3576 
Q 2541 3569 2628 3553 
L 2631 2963 
z
" id="DejaVuSans-72" transform="scale(0.015625)"/>
      </defs>
      <use xlink:href="#DejaVuSans-41"/>
      <use x="68.408203" xlink:href="#DejaVuSans-6e"/>
      <use x="131.787109" xlink:href="#DejaVuSans-67"/>
      <use x="195.263672" xlink:href="#DejaVuSans-65"/>
      <use x="256.787109" xlink:href="#DejaVuSans-72"/>
     </g>
    </g>
    <g id="line2d_63">
     <path d="M 307.144375 9.718125 
L 331.144375 9.718125 
" style="fill:none;stroke:#3581b7;stroke-linecap:square;stroke-width:1.5;"/>
    </g>
    <g id="line2d_64"/>
    <g id="text_29">
     <!-- Sad -->
     <g transform="translate(340.744375 13.918125)scale(0.12 -0.12)">
      <defs>
       <path d="M 3425 4513 
L 3425 3897 
Q 3066 4069 2747 4153 
Q 2428 4238 2131 4238 
Q 1616 4238 1336 4038 
Q 1056 3838 1056 3469 
Q 1056 3159 1242 3001 
Q 1428 2844 1947 2747 
L 2328 2669 
Q 3034 2534 3370 2195 
Q 3706 1856 3706 1288 
Q 3706 609 3251 259 
Q 2797 -91 1919 -91 
Q 1588 -91 1214 -16 
Q 841 59 441 206 
L 441 856 
Q 825 641 1194 531 
Q 1563 422 1919 422 
Q 2459 422 2753 634 
Q 3047 847 3047 1241 
Q 3047 1584 2836 1778 
Q 2625 1972 2144 2069 
L 1759 2144 
Q 1053 2284 737 2584 
Q 422 2884 422 3419 
Q 422 4038 858 4394 
Q 1294 4750 2059 4750 
Q 2388 4750 2728 4690 
Q 3069 4631 3425 4513 
z
" id="DejaVuSans-53" transform="scale(0.015625)"/>
       <path d="M 2194 1759 
Q 1497 1759 1228 1600 
Q 959 1441 959 1056 
Q 959 750 1161 570 
Q 1363 391 1709 391 
Q 2188 391 2477 730 
Q 2766 1069 2766 1631 
L 2766 1759 
L 2194 1759 
z
M 3341 1997 
L 3341 0 
L 2766 0 
L 2766 531 
Q 2569 213 2275 61 
Q 1981 -91 1556 -91 
Q 1019 -91 701 211 
Q 384 513 384 1019 
Q 384 1609 779 1909 
Q 1175 2209 1959 2209 
L 2766 2209 
L 2766 2266 
Q 2766 2663 2505 2880 
Q 2244 3097 1772 3097 
Q 1472 3097 1187 3025 
Q 903 2953 641 2809 
L 641 3341 
Q 956 3463 1253 3523 
Q 1550 3584 1831 3584 
Q 2591 3584 2966 3190 
Q 3341 2797 3341 1997 
z
" id="DejaVuSans-61" transform="scale(0.015625)"/>
       <path d="M 2906 2969 
L 2906 4863 
L 3481 4863 
L 3481 0 
L 2906 0 
L 2906 525 
Q 2725 213 2448 61 
Q 2172 -91 1784 -91 
Q 1150 -91 751 415 
Q 353 922 353 1747 
Q 353 2572 751 3078 
Q 1150 3584 1784 3584 
Q 2172 3584 2448 3432 
Q 2725 3281 2906 2969 
z
M 947 1747 
Q 947 1113 1208 752 
Q 1469 391 1925 391 
Q 2381 391 2643 752 
Q 2906 1113 2906 1747 
Q 2906 2381 2643 2742 
Q 2381 3103 1925 3103 
Q 1469 3103 1208 2742 
Q 947 2381 947 1747 
z
" id="DejaVuSans-64" transform="scale(0.015625)"/>
      </defs>
      <use xlink:href="#DejaVuSans-53"/>
      <use x="63.476562" xlink:href="#DejaVuSans-61"/>
      <use x="124.755859" xlink:href="#DejaVuSans-64"/>
     </g>
    </g>
    <g id="line2d_65">
     <path d="M 570.24625 9.718125 
L 594.24625 9.718125 
" style="fill:none;stroke:#8058a7;stroke-linecap:square;stroke-width:1.5;"/>
    </g>
    <g id="line2d_66"/>
    <g id="text_30">
     <!-- Anx -->
     <g transform="translate(603.84625 13.918125)scale(0.12 -0.12)">
      <defs>
       <path d="M 3513 3500 
L 2247 1797 
L 3578 0 
L 2900 0 
L 1881 1375 
L 863 0 
L 184 0 
L 1544 1831 
L 300 3500 
L 978 3500 
L 1906 2253 
L 2834 3500 
L 3513 3500 
z
" id="DejaVuSans-78" transform="scale(0.015625)"/>
      </defs>
      <use xlink:href="#DejaVuSans-41"/>
      <use x="68.408203" xlink:href="#DejaVuSans-6e"/>
      <use x="131.787109" xlink:href="#DejaVuSans-78"/>
     </g>
    </g>
    <g id="line2d_67">
     <path d="M 833.674375 9.718125 
L 857.674375 9.718125 
" style="fill:none;stroke:#ffb639;stroke-linecap:square;stroke-width:1.5;"/>
    </g>
    <g id="line2d_68"/>
    <g id="text_31">
     <!-- Posemo -->
     <g transform="translate(867.274375 13.918125)scale(0.12 -0.12)">
      <defs>
       <path d="M 1259 4147 
L 1259 2394 
L 2053 2394 
Q 2494 2394 2734 2622 
Q 2975 2850 2975 3272 
Q 2975 3691 2734 3919 
Q 2494 4147 2053 4147 
L 1259 4147 
z
M 628 4666 
L 2053 4666 
Q 2838 4666 3239 4311 
Q 3641 3956 3641 3272 
Q 3641 2581 3239 2228 
Q 2838 1875 2053 1875 
L 1259 1875 
L 1259 0 
L 628 0 
L 628 4666 
z
" id="DejaVuSans-50" transform="scale(0.015625)"/>
       <path d="M 1959 3097 
Q 1497 3097 1228 2736 
Q 959 2375 959 1747 
Q 959 1119 1226 758 
Q 1494 397 1959 397 
Q 2419 397 2687 759 
Q 2956 1122 2956 1747 
Q 2956 2369 2687 2733 
Q 2419 3097 1959 3097 
z
M 1959 3584 
Q 2709 3584 3137 3096 
Q 3566 2609 3566 1747 
Q 3566 888 3137 398 
Q 2709 -91 1959 -91 
Q 1206 -91 779 398 
Q 353 888 353 1747 
Q 353 2609 779 3096 
Q 1206 3584 1959 3584 
z
" id="DejaVuSans-6f" transform="scale(0.015625)"/>
       <path d="M 2834 3397 
L 2834 2853 
Q 2591 2978 2328 3040 
Q 2066 3103 1784 3103 
Q 1356 3103 1142 2972 
Q 928 2841 928 2578 
Q 928 2378 1081 2264 
Q 1234 2150 1697 2047 
L 1894 2003 
Q 2506 1872 2764 1633 
Q 3022 1394 3022 966 
Q 3022 478 2636 193 
Q 2250 -91 1575 -91 
Q 1294 -91 989 -36 
Q 684 19 347 128 
L 347 722 
Q 666 556 975 473 
Q 1284 391 1588 391 
Q 1994 391 2212 530 
Q 2431 669 2431 922 
Q 2431 1156 2273 1281 
Q 2116 1406 1581 1522 
L 1381 1569 
Q 847 1681 609 1914 
Q 372 2147 372 2553 
Q 372 3047 722 3315 
Q 1072 3584 1716 3584 
Q 2034 3584 2315 3537 
Q 2597 3491 2834 3397 
z
" id="DejaVuSans-73" transform="scale(0.015625)"/>
       <path d="M 3328 2828 
Q 3544 3216 3844 3400 
Q 4144 3584 4550 3584 
Q 5097 3584 5394 3201 
Q 5691 2819 5691 2113 
L 5691 0 
L 5113 0 
L 5113 2094 
Q 5113 2597 4934 2840 
Q 4756 3084 4391 3084 
Q 3944 3084 3684 2787 
Q 3425 2491 3425 1978 
L 3425 0 
L 2847 0 
L 2847 2094 
Q 2847 2600 2669 2842 
Q 2491 3084 2119 3084 
Q 1678 3084 1418 2786 
Q 1159 2488 1159 1978 
L 1159 0 
L 581 0 
L 581 3500 
L 1159 3500 
L 1159 2956 
Q 1356 3278 1631 3431 
Q 1906 3584 2284 3584 
Q 2666 3584 2933 3390 
Q 3200 3197 3328 2828 
z
" id="DejaVuSans-6d" transform="scale(0.015625)"/>
      </defs>
      <use xlink:href="#DejaVuSans-50"/>
      <use x="56.677734" xlink:href="#DejaVuSans-6f"/>
      <use x="117.859375" xlink:href="#DejaVuSans-73"/>
      <use x="169.958984" xlink:href="#DejaVuSans-65"/>
      <use x="231.482422" xlink:href="#DejaVuSans-6d"/>
      <use x="328.894531" xlink:href="#DejaVuSans-6f"/>
     </g>
    </g>
   </g>
  </g>
 </g>
 <defs>
  <clipPath id="p02556ec227">
   <rect height="434.88" width="892.8" x="26.08375" y="29.91135"/>
  </clipPath>
 </defs>
</svg>
