<?xml version="1.0" encoding="utf-8" standalone="no"?>
<!DOCTYPE svg PUBLIC "-//W3C//DTD SVG 1.1//EN"
  "http://www.w3.org/Graphics/SVG/1.1/DTD/svg11.dtd">
<svg height="530.694152pt" version="1.1" viewBox="0 0 919.557304 530.694152" width="919.557304pt" xmlns="http://www.w3.org/2000/svg" xmlns:xlink="http://www.w3.org/1999/xlink">
 <metadata>
  <rdf:RDF xmlns:cc="http://creativecommons.org/ns#" xmlns:dc="http://purl.org/dc/elements/1.1/" xmlns:rdf="http://www.w3.org/1999/02/22-rdf-syntax-ns#">
   <cc:Work>
    <dc:type rdf:resource="http://purl.org/dc/dcmitype/StillImage"/>
    <dc:date>2021-07-04T13:32:54.339122</dc:date>
    <dc:format>image/svg+xml</dc:format>
    <dc:creator>
     <cc:Agent>
      <dc:title>Matplotlib v3.4.1, https://matplotlib.org/</dc:title>
     </cc:Agent>
    </dc:creator>
   </cc:Work>
  </rdf:RDF>
 </metadata>
 <defs>
  <style type="text/css">*{stroke-linecap:butt;stroke-linejoin:round;}</style>
 </defs>
 <g id="figure_1">
  <g id="patch_1">
   <path d="M 0 530.694152 
L 919.557304 530.694152 
L 919.557304 0 
L 0 0 
z
" style="fill:none;"/>
  </g>
  <g id="axes_1">
   <g id="patch_2">
    <path d="M 26.164844 224.607744 
L 431.983026 224.607744 
L 431.983026 26.935017 
L 26.164844 26.935017 
z
" style="fill:#ffffff;"/>
   </g>
   <g id="matplotlib.axis_1">
    <g id="xtick_1">
     <g id="line2d_1">
      <path clip-path="url(#pf5cafd246a)" d="M 44.611125 224.607744 
L 44.611125 26.935017 
" style="fill:none;stroke:#b0b0b0;stroke-linecap:square;stroke-width:0.3;"/>
     </g>
     <g id="line2d_2">
      <defs>
       <path d="M 0 0 
L 0 3.5 
" id="m61c39ea1c5" style="stroke:#000000;stroke-width:0.8;"/>
      </defs>
      <g>
       <use style="stroke:#000000;stroke-width:0.8;" x="44.611125" xlink:href="#m61c39ea1c5" y="224.607744"/>
      </g>
     </g>
    </g>
    <g id="xtick_2">
     <g id="line2d_3">
      <path clip-path="url(#pf5cafd246a)" d="M 80.313604 224.607744 
L 80.313604 26.935017 
" style="fill:none;stroke:#b0b0b0;stroke-linecap:square;stroke-width:0.3;"/>
     </g>
     <g id="line2d_4">
      <g>
       <use style="stroke:#000000;stroke-width:0.8;" x="80.313604" xlink:href="#m61c39ea1c5" y="224.607744"/>
      </g>
     </g>
    </g>
    <g id="xtick_3">
     <g id="line2d_5">
      <path clip-path="url(#pf5cafd246a)" d="M 116.016083 224.607744 
L 116.016083 26.935017 
" style="fill:none;stroke:#b0b0b0;stroke-linecap:square;stroke-width:0.3;"/>
     </g>
     <g id="line2d_6">
      <g>
       <use style="stroke:#000000;stroke-width:0.8;" x="116.016083" xlink:href="#m61c39ea1c5" y="224.607744"/>
      </g>
     </g>
    </g>
    <g id="xtick_4">
     <g id="line2d_7">
      <path clip-path="url(#pf5cafd246a)" d="M 151.718563 224.607744 
L 151.718563 26.935017 
" style="fill:none;stroke:#b0b0b0;stroke-linecap:square;stroke-width:0.3;"/>
     </g>
     <g id="line2d_8">
      <g>
       <use style="stroke:#000000;stroke-width:0.8;" x="151.718563" xlink:href="#m61c39ea1c5" y="224.607744"/>
      </g>
     </g>
    </g>
    <g id="xtick_5">
     <g id="line2d_9">
      <path clip-path="url(#pf5cafd246a)" d="M 187.421042 224.607744 
L 187.421042 26.935017 
" style="fill:none;stroke:#b0b0b0;stroke-linecap:square;stroke-width:0.3;"/>
     </g>
     <g id="line2d_10">
      <g>
       <use style="stroke:#000000;stroke-width:0.8;" x="187.421042" xlink:href="#m61c39ea1c5" y="224.607744"/>
      </g>
     </g>
    </g>
    <g id="xtick_6">
     <g id="line2d_11">
      <path clip-path="url(#pf5cafd246a)" d="M 223.123521 224.607744 
L 223.123521 26.935017 
" style="fill:none;stroke:#b0b0b0;stroke-linecap:square;stroke-width:0.3;"/>
     </g>
     <g id="line2d_12">
      <g>
       <use style="stroke:#000000;stroke-width:0.8;" x="223.123521" xlink:href="#m61c39ea1c5" y="224.607744"/>
      </g>
     </g>
    </g>
    <g id="xtick_7">
     <g id="line2d_13">
      <path clip-path="url(#pf5cafd246a)" d="M 258.826001 224.607744 
L 258.826001 26.935017 
" style="fill:none;stroke:#b0b0b0;stroke-linecap:square;stroke-width:0.3;"/>
     </g>
     <g id="line2d_14">
      <g>
       <use style="stroke:#000000;stroke-width:0.8;" x="258.826001" xlink:href="#m61c39ea1c5" y="224.607744"/>
      </g>
     </g>
    </g>
    <g id="xtick_8">
     <g id="line2d_15">
      <path clip-path="url(#pf5cafd246a)" d="M 294.52848 224.607744 
L 294.52848 26.935017 
" style="fill:none;stroke:#b0b0b0;stroke-linecap:square;stroke-width:0.3;"/>
     </g>
     <g id="line2d_16">
      <g>
       <use style="stroke:#000000;stroke-width:0.8;" x="294.52848" xlink:href="#m61c39ea1c5" y="224.607744"/>
      </g>
     </g>
    </g>
    <g id="xtick_9">
     <g id="line2d_17">
      <path clip-path="url(#pf5cafd246a)" d="M 330.230959 224.607744 
L 330.230959 26.935017 
" style="fill:none;stroke:#b0b0b0;stroke-linecap:square;stroke-width:0.3;"/>
     </g>
     <g id="line2d_18">
      <g>
       <use style="stroke:#000000;stroke-width:0.8;" x="330.230959" xlink:href="#m61c39ea1c5" y="224.607744"/>
      </g>
     </g>
    </g>
    <g id="xtick_10">
     <g id="line2d_19">
      <path clip-path="url(#pf5cafd246a)" d="M 365.933439 224.607744 
L 365.933439 26.935017 
" style="fill:none;stroke:#b0b0b0;stroke-linecap:square;stroke-width:0.3;"/>
     </g>
     <g id="line2d_20">
      <g>
       <use style="stroke:#000000;stroke-width:0.8;" x="365.933439" xlink:href="#m61c39ea1c5" y="224.607744"/>
      </g>
     </g>
    </g>
    <g id="xtick_11">
     <g id="line2d_21">
      <path clip-path="url(#pf5cafd246a)" d="M 401.635918 224.607744 
L 401.635918 26.935017 
" style="fill:none;stroke:#b0b0b0;stroke-linecap:square;stroke-width:0.3;"/>
     </g>
     <g id="line2d_22">
      <g>
       <use style="stroke:#000000;stroke-width:0.8;" x="401.635918" xlink:href="#m61c39ea1c5" y="224.607744"/>
      </g>
     </g>
    </g>
   </g>
   <g id="matplotlib.axis_2">
    <g id="ytick_1">
     <g id="line2d_23">
      <path clip-path="url(#pf5cafd246a)" d="M 26.164844 183.610351 
L 431.983026 183.610351 
" style="fill:none;stroke:#b0b0b0;stroke-linecap:square;stroke-width:0.3;"/>
     </g>
     <g id="line2d_24">
      <defs>
       <path d="M 0 0 
L -3.5 0 
" id="m1758c27500" style="stroke:#000000;stroke-width:0.8;"/>
      </defs>
      <g>
       <use style="stroke:#000000;stroke-width:0.8;" x="26.164844" xlink:href="#m1758c27500" y="183.610351"/>
      </g>
     </g>
     <g id="text_1">
      <!-- −2 -->
      <g transform="translate(0 188.549335)scale(0.13 -0.13)">
       <defs>
        <path d="M 678 2272 
L 4684 2272 
L 4684 1741 
L 678 1741 
L 678 2272 
z
" id="DejaVuSans-2212" transform="scale(0.015625)"/>
        <path d="M 1228 531 
L 3431 531 
L 3431 0 
L 469 0 
L 469 531 
Q 828 903 1448 1529 
Q 2069 2156 2228 2338 
Q 2531 2678 2651 2914 
Q 2772 3150 2772 3378 
Q 2772 3750 2511 3984 
Q 2250 4219 1831 4219 
Q 1534 4219 1204 4116 
Q 875 4013 500 3803 
L 500 4441 
Q 881 4594 1212 4672 
Q 1544 4750 1819 4750 
Q 2544 4750 2975 4387 
Q 3406 4025 3406 3419 
Q 3406 3131 3298 2873 
Q 3191 2616 2906 2266 
Q 2828 2175 2409 1742 
Q 1991 1309 1228 531 
z
" id="DejaVuSans-32" transform="scale(0.015625)"/>
       </defs>
       <use xlink:href="#DejaVuSans-2212"/>
       <use x="83.789062" xlink:href="#DejaVuSans-32"/>
      </g>
     </g>
    </g>
    <g id="ytick_2">
     <g id="line2d_25">
      <path clip-path="url(#pf5cafd246a)" d="M 26.164844 142.191996 
L 431.983026 142.191996 
" style="fill:none;stroke:#b0b0b0;stroke-linecap:square;stroke-width:0.3;"/>
     </g>
     <g id="line2d_26">
      <g>
       <use style="stroke:#000000;stroke-width:0.8;" x="26.164844" xlink:href="#m1758c27500" y="142.191996"/>
      </g>
     </g>
     <g id="text_2">
      <!-- −1 -->
      <g transform="translate(0 147.13098)scale(0.13 -0.13)">
       <defs>
        <path d="M 794 531 
L 1825 531 
L 1825 4091 
L 703 3866 
L 703 4441 
L 1819 4666 
L 2450 4666 
L 2450 531 
L 3481 531 
L 3481 0 
L 794 0 
L 794 531 
z
" id="DejaVuSans-31" transform="scale(0.015625)"/>
       </defs>
       <use xlink:href="#DejaVuSans-2212"/>
       <use x="83.789062" xlink:href="#DejaVuSans-31"/>
      </g>
     </g>
    </g>
    <g id="ytick_3">
     <g id="line2d_27">
      <path clip-path="url(#pf5cafd246a)" d="M 26.164844 100.77364 
L 431.983026 100.77364 
" style="fill:none;stroke:#b0b0b0;stroke-linecap:square;stroke-width:0.3;"/>
     </g>
     <g id="line2d_28">
      <g>
       <use style="stroke:#000000;stroke-width:0.8;" x="26.164844" xlink:href="#m1758c27500" y="100.77364"/>
      </g>
     </g>
     <g id="text_3">
      <!-- 0 -->
      <g transform="translate(10.893594 105.712625)scale(0.13 -0.13)">
       <defs>
        <path d="M 2034 4250 
Q 1547 4250 1301 3770 
Q 1056 3291 1056 2328 
Q 1056 1369 1301 889 
Q 1547 409 2034 409 
Q 2525 409 2770 889 
Q 3016 1369 3016 2328 
Q 3016 3291 2770 3770 
Q 2525 4250 2034 4250 
z
M 2034 4750 
Q 2819 4750 3233 4129 
Q 3647 3509 3647 2328 
Q 3647 1150 3233 529 
Q 2819 -91 2034 -91 
Q 1250 -91 836 529 
Q 422 1150 422 2328 
Q 422 3509 836 4129 
Q 1250 4750 2034 4750 
z
" id="DejaVuSans-30" transform="scale(0.015625)"/>
       </defs>
       <use xlink:href="#DejaVuSans-30"/>
      </g>
     </g>
    </g>
    <g id="ytick_4">
     <g id="line2d_29">
      <path clip-path="url(#pf5cafd246a)" d="M 26.164844 59.355285 
L 431.983026 59.355285 
" style="fill:none;stroke:#b0b0b0;stroke-linecap:square;stroke-width:0.3;"/>
     </g>
     <g id="line2d_30">
      <g>
       <use style="stroke:#000000;stroke-width:0.8;" x="26.164844" xlink:href="#m1758c27500" y="59.355285"/>
      </g>
     </g>
     <g id="text_4">
      <!-- 1 -->
      <g transform="translate(10.893594 64.294269)scale(0.13 -0.13)">
       <use xlink:href="#DejaVuSans-31"/>
      </g>
     </g>
    </g>
   </g>
   <g id="line2d_31">
    <path clip-path="url(#pf5cafd246a)" d="M 44.611125 91.326923 
L 50.561538 130.027609 
L 56.511951 115.541913 
L 62.462364 108.09323 
L 68.412778 105.831811 
L 74.363191 58.710457 
L 80.313604 122.876149 
L 86.264017 207.653011 
L 92.214431 215.62262 
L 98.164844 204.565269 
L 104.115257 180.162797 
L 110.06567 176.638018 
L 116.016083 172.986799 
L 121.966497 176.173422 
L 127.91691 174.583878 
L 133.867323 160.915845 
L 139.817736 165.226617 
L 145.76815 162.700029 
L 151.718563 130.019079 
L 157.668976 112.034277 
L 163.619389 110.12872 
L 169.569802 108.935334 
L 175.520216 94.995224 
L 181.470629 102.731352 
L 187.421042 82.877392 
L 193.371455 82.892186 
L 199.321869 91.967914 
L 205.272282 81.334522 
L 211.222695 81.285299 
L 217.173108 85.001109 
L 223.123521 88.828688 
L 229.073935 79.554471 
L 235.024348 78.431999 
L 240.974761 58.680447 
L 246.925174 72.88385 
L 252.875588 81.301975 
L 258.826001 75.360787 
L 264.776414 47.425597 
L 270.726827 72.98374 
L 276.67724 61.944059 
L 282.627654 69.229308 
L 288.578067 70.7717 
L 294.52848 85.237134 
L 300.478893 69.296804 
L 306.429307 77.649763 
L 312.37972 75.500212 
L 318.330133 77.020014 
L 324.280546 73.772803 
L 330.230959 68.920022 
L 336.181373 58.010987 
L 342.131786 69.639771 
L 348.082199 81.743537 
L 354.032612 75.541173 
L 359.983026 74.293428 
L 365.933439 79.493791 
L 371.883852 76.650586 
L 377.834265 66.167249 
L 383.784678 76.058739 
L 389.735092 65.346251 
L 395.685505 75.613376 
L 401.635918 79.247393 
L 407.586331 87.708073 
L 413.536745 104.592801 
" style="fill:none;stroke:#ff0000;stroke-linecap:square;stroke-width:1.5;"/>
   </g>
   <g id="line2d_32">
    <path clip-path="url(#pf5cafd246a)" d="M 44.611125 164.581525 
L 50.561538 130.276823 
L 56.511951 129.437278 
L 62.462364 120.024812 
L 68.412778 120.323424 
L 74.363191 82.537709 
L 80.313604 130.33755 
L 86.264017 182.459359 
L 92.214431 184.505038 
L 98.164844 183.664863 
L 104.115257 158.454895 
L 110.06567 173.587402 
L 116.016083 159.244313 
L 121.966497 163.10523 
L 127.91691 180.906183 
L 133.867323 171.696067 
L 139.817736 175.024821 
L 145.76815 180.237822 
L 151.718563 115.02833 
L 157.668976 41.366626 
L 163.619389 99.749259 
L 169.569802 86.52359 
L 175.520216 71.705088 
L 181.470629 64.690906 
L 187.421042 70.963849 
L 193.371455 68.821774 
L 199.321869 81.883923 
L 205.272282 71.426003 
L 211.222695 87.230529 
L 217.173108 88.946526 
L 223.123521 99.938499 
L 229.073935 86.959567 
L 235.024348 84.247334 
L 240.974761 42.602784 
L 246.925174 64.883539 
L 252.875588 80.35888 
L 258.826001 68.355894 
L 264.776414 35.920141 
L 270.726827 66.382743 
L 276.67724 58.756168 
L 282.627654 51.052249 
L 288.578067 79.63332 
L 294.52848 74.879502 
L 300.478893 53.974814 
L 306.429307 71.82744 
L 312.37972 72.818554 
L 318.330133 71.326987 
L 324.280546 61.902448 
L 330.230959 65.34949 
L 336.181373 46.659354 
L 342.131786 76.440431 
L 348.082199 91.929346 
L 354.032612 84.981332 
L 359.983026 87.908864 
L 365.933439 104.257013 
L 371.883852 92.838453 
L 377.834265 101.548289 
L 383.784678 102.616286 
L 389.735092 81.968493 
L 395.685505 100.408525 
L 401.635918 90.303234 
L 407.586331 119.286401 
L 413.536745 137.681437 
" style="fill:none;stroke:#0000ff;stroke-dasharray:5.55,2.4;stroke-dashoffset:0;stroke-width:1.5;"/>
   </g>
   <g id="patch_3">
    <path d="M 26.164844 224.607744 
L 26.164844 26.935017 
" style="fill:none;stroke:#000000;stroke-linecap:square;stroke-linejoin:miter;stroke-width:0.8;"/>
   </g>
   <g id="patch_4">
    <path d="M 431.983026 224.607744 
L 431.983026 26.935017 
" style="fill:none;stroke:#000000;stroke-linecap:square;stroke-linejoin:miter;stroke-width:0.8;"/>
   </g>
   <g id="patch_5">
    <path d="M 26.164844 224.607744 
L 431.983026 224.607744 
" style="fill:none;stroke:#000000;stroke-linecap:square;stroke-linejoin:miter;stroke-width:0.8;"/>
   </g>
   <g id="patch_6">
    <path d="M 26.164844 26.935017 
L 431.983026 26.935017 
" style="fill:none;stroke:#000000;stroke-linecap:square;stroke-linejoin:miter;stroke-width:0.8;"/>
   </g>
   <g id="legend_1">
    <g id="patch_7">
     <path d="M 28.764844 22.981562 
L 429.383026 22.981562 
Q 431.983026 22.981562 431.983026 20.381562 
L 431.983026 2.6 
Q 431.983026 0 429.383026 0 
L 28.764844 0 
Q 26.164844 0 26.164844 2.6 
L 26.164844 20.381562 
Q 26.164844 22.981562 28.764844 22.981562 
z
" style="fill:#ffffff;opacity:0.8;stroke:#cccccc;stroke-linejoin:miter;"/>
    </g>
    <g id="line2d_33">
     <path d="M 31.364844 10.527969 
L 57.364844 10.527969 
" style="fill:none;stroke:#ff0000;stroke-linecap:square;stroke-width:1.5;"/>
    </g>
    <g id="line2d_34"/>
    <g id="text_5">
     <!-- anger (Emolex) -->
     <g transform="translate(67.764844 15.077969)scale(0.13 -0.13)">
      <defs>
       <path d="M 2194 1759 
Q 1497 1759 1228 1600 
Q 959 1441 959 1056 
Q 959 750 1161 570 
Q 1363 391 1709 391 
Q 2188 391 2477 730 
Q 2766 1069 2766 1631 
L 2766 1759 
L 2194 1759 
z
M 3341 1997 
L 3341 0 
L 2766 0 
L 2766 531 
Q 2569 213 2275 61 
Q 1981 -91 1556 -91 
Q 1019 -91 701 211 
Q 384 513 384 1019 
Q 384 1609 779 1909 
Q 1175 2209 1959 2209 
L 2766 2209 
L 2766 2266 
Q 2766 2663 2505 2880 
Q 2244 3097 1772 3097 
Q 1472 3097 1187 3025 
Q 903 2953 641 2809 
L 641 3341 
Q 956 3463 1253 3523 
Q 1550 3584 1831 3584 
Q 2591 3584 2966 3190 
Q 3341 2797 3341 1997 
z
" id="DejaVuSans-61" transform="scale(0.015625)"/>
       <path d="M 3513 2113 
L 3513 0 
L 2938 0 
L 2938 2094 
Q 2938 2591 2744 2837 
Q 2550 3084 2163 3084 
Q 1697 3084 1428 2787 
Q 1159 2491 1159 1978 
L 1159 0 
L 581 0 
L 581 3500 
L 1159 3500 
L 1159 2956 
Q 1366 3272 1645 3428 
Q 1925 3584 2291 3584 
Q 2894 3584 3203 3211 
Q 3513 2838 3513 2113 
z
" id="DejaVuSans-6e" transform="scale(0.015625)"/>
       <path d="M 2906 1791 
Q 2906 2416 2648 2759 
Q 2391 3103 1925 3103 
Q 1463 3103 1205 2759 
Q 947 2416 947 1791 
Q 947 1169 1205 825 
Q 1463 481 1925 481 
Q 2391 481 2648 825 
Q 2906 1169 2906 1791 
z
M 3481 434 
Q 3481 -459 3084 -895 
Q 2688 -1331 1869 -1331 
Q 1566 -1331 1297 -1286 
Q 1028 -1241 775 -1147 
L 775 -588 
Q 1028 -725 1275 -790 
Q 1522 -856 1778 -856 
Q 2344 -856 2625 -561 
Q 2906 -266 2906 331 
L 2906 616 
Q 2728 306 2450 153 
Q 2172 0 1784 0 
Q 1141 0 747 490 
Q 353 981 353 1791 
Q 353 2603 747 3093 
Q 1141 3584 1784 3584 
Q 2172 3584 2450 3431 
Q 2728 3278 2906 2969 
L 2906 3500 
L 3481 3500 
L 3481 434 
z
" id="DejaVuSans-67" transform="scale(0.015625)"/>
       <path d="M 3597 1894 
L 3597 1613 
L 953 1613 
Q 991 1019 1311 708 
Q 1631 397 2203 397 
Q 2534 397 2845 478 
Q 3156 559 3463 722 
L 3463 178 
Q 3153 47 2828 -22 
Q 2503 -91 2169 -91 
Q 1331 -91 842 396 
Q 353 884 353 1716 
Q 353 2575 817 3079 
Q 1281 3584 2069 3584 
Q 2775 3584 3186 3129 
Q 3597 2675 3597 1894 
z
M 3022 2063 
Q 3016 2534 2758 2815 
Q 2500 3097 2075 3097 
Q 1594 3097 1305 2825 
Q 1016 2553 972 2059 
L 3022 2063 
z
" id="DejaVuSans-65" transform="scale(0.015625)"/>
       <path d="M 2631 2963 
Q 2534 3019 2420 3045 
Q 2306 3072 2169 3072 
Q 1681 3072 1420 2755 
Q 1159 2438 1159 1844 
L 1159 0 
L 581 0 
L 581 3500 
L 1159 3500 
L 1159 2956 
Q 1341 3275 1631 3429 
Q 1922 3584 2338 3584 
Q 2397 3584 2469 3576 
Q 2541 3569 2628 3553 
L 2631 2963 
z
" id="DejaVuSans-72" transform="scale(0.015625)"/>
       <path id="DejaVuSans-20" transform="scale(0.015625)"/>
       <path d="M 1984 4856 
Q 1566 4138 1362 3434 
Q 1159 2731 1159 2009 
Q 1159 1288 1364 580 
Q 1569 -128 1984 -844 
L 1484 -844 
Q 1016 -109 783 600 
Q 550 1309 550 2009 
Q 550 2706 781 3412 
Q 1013 4119 1484 4856 
L 1984 4856 
z
" id="DejaVuSans-28" transform="scale(0.015625)"/>
       <path d="M 628 4666 
L 3578 4666 
L 3578 4134 
L 1259 4134 
L 1259 2753 
L 3481 2753 
L 3481 2222 
L 1259 2222 
L 1259 531 
L 3634 531 
L 3634 0 
L 628 0 
L 628 4666 
z
" id="DejaVuSans-45" transform="scale(0.015625)"/>
       <path d="M 3328 2828 
Q 3544 3216 3844 3400 
Q 4144 3584 4550 3584 
Q 5097 3584 5394 3201 
Q 5691 2819 5691 2113 
L 5691 0 
L 5113 0 
L 5113 2094 
Q 5113 2597 4934 2840 
Q 4756 3084 4391 3084 
Q 3944 3084 3684 2787 
Q 3425 2491 3425 1978 
L 3425 0 
L 2847 0 
L 2847 2094 
Q 2847 2600 2669 2842 
Q 2491 3084 2119 3084 
Q 1678 3084 1418 2786 
Q 1159 2488 1159 1978 
L 1159 0 
L 581 0 
L 581 3500 
L 1159 3500 
L 1159 2956 
Q 1356 3278 1631 3431 
Q 1906 3584 2284 3584 
Q 2666 3584 2933 3390 
Q 3200 3197 3328 2828 
z
" id="DejaVuSans-6d" transform="scale(0.015625)"/>
       <path d="M 1959 3097 
Q 1497 3097 1228 2736 
Q 959 2375 959 1747 
Q 959 1119 1226 758 
Q 1494 397 1959 397 
Q 2419 397 2687 759 
Q 2956 1122 2956 1747 
Q 2956 2369 2687 2733 
Q 2419 3097 1959 3097 
z
M 1959 3584 
Q 2709 3584 3137 3096 
Q 3566 2609 3566 1747 
Q 3566 888 3137 398 
Q 2709 -91 1959 -91 
Q 1206 -91 779 398 
Q 353 888 353 1747 
Q 353 2609 779 3096 
Q 1206 3584 1959 3584 
z
" id="DejaVuSans-6f" transform="scale(0.015625)"/>
       <path d="M 603 4863 
L 1178 4863 
L 1178 0 
L 603 0 
L 603 4863 
z
" id="DejaVuSans-6c" transform="scale(0.015625)"/>
       <path d="M 3513 3500 
L 2247 1797 
L 3578 0 
L 2900 0 
L 1881 1375 
L 863 0 
L 184 0 
L 1544 1831 
L 300 3500 
L 978 3500 
L 1906 2253 
L 2834 3500 
L 3513 3500 
z
" id="DejaVuSans-78" transform="scale(0.015625)"/>
       <path d="M 513 4856 
L 1013 4856 
Q 1481 4119 1714 3412 
Q 1947 2706 1947 2009 
Q 1947 1309 1714 600 
Q 1481 -109 1013 -844 
L 513 -844 
Q 928 -128 1133 580 
Q 1338 1288 1338 2009 
Q 1338 2731 1133 3434 
Q 928 4138 513 4856 
z
" id="DejaVuSans-29" transform="scale(0.015625)"/>
      </defs>
      <use xlink:href="#DejaVuSans-61"/>
      <use x="61.279297" xlink:href="#DejaVuSans-6e"/>
      <use x="124.658203" xlink:href="#DejaVuSans-67"/>
      <use x="188.134766" xlink:href="#DejaVuSans-65"/>
      <use x="249.658203" xlink:href="#DejaVuSans-72"/>
      <use x="290.771484" xlink:href="#DejaVuSans-20"/>
      <use x="322.558594" xlink:href="#DejaVuSans-28"/>
      <use x="361.572266" xlink:href="#DejaVuSans-45"/>
      <use x="424.755859" xlink:href="#DejaVuSans-6d"/>
      <use x="522.167969" xlink:href="#DejaVuSans-6f"/>
      <use x="583.349609" xlink:href="#DejaVuSans-6c"/>
      <use x="611.132812" xlink:href="#DejaVuSans-65"/>
      <use x="670.90625" xlink:href="#DejaVuSans-78"/>
      <use x="730.085938" xlink:href="#DejaVuSans-29"/>
     </g>
    </g>
    <g id="line2d_35">
     <path d="M 304.369744 10.527969 
L 330.369744 10.527969 
" style="fill:none;stroke:#0000ff;stroke-dasharray:5.55,2.4;stroke-dashoffset:0;stroke-width:1.5;"/>
    </g>
    <g id="line2d_36"/>
    <g id="text_6">
     <!-- Anger (LIWC) -->
     <g transform="translate(340.769744 15.077969)scale(0.13 -0.13)">
      <defs>
       <path d="M 2188 4044 
L 1331 1722 
L 3047 1722 
L 2188 4044 
z
M 1831 4666 
L 2547 4666 
L 4325 0 
L 3669 0 
L 3244 1197 
L 1141 1197 
L 716 0 
L 50 0 
L 1831 4666 
z
" id="DejaVuSans-41" transform="scale(0.015625)"/>
       <path d="M 628 4666 
L 1259 4666 
L 1259 531 
L 3531 531 
L 3531 0 
L 628 0 
L 628 4666 
z
" id="DejaVuSans-4c" transform="scale(0.015625)"/>
       <path d="M 628 4666 
L 1259 4666 
L 1259 0 
L 628 0 
L 628 4666 
z
" id="DejaVuSans-49" transform="scale(0.015625)"/>
       <path d="M 213 4666 
L 850 4666 
L 1831 722 
L 2809 4666 
L 3519 4666 
L 4500 722 
L 5478 4666 
L 6119 4666 
L 4947 0 
L 4153 0 
L 3169 4050 
L 2175 0 
L 1381 0 
L 213 4666 
z
" id="DejaVuSans-57" transform="scale(0.015625)"/>
       <path d="M 4122 4306 
L 4122 3641 
Q 3803 3938 3442 4084 
Q 3081 4231 2675 4231 
Q 1875 4231 1450 3742 
Q 1025 3253 1025 2328 
Q 1025 1406 1450 917 
Q 1875 428 2675 428 
Q 3081 428 3442 575 
Q 3803 722 4122 1019 
L 4122 359 
Q 3791 134 3420 21 
Q 3050 -91 2638 -91 
Q 1578 -91 968 557 
Q 359 1206 359 2328 
Q 359 3453 968 4101 
Q 1578 4750 2638 4750 
Q 3056 4750 3426 4639 
Q 3797 4528 4122 4306 
z
" id="DejaVuSans-43" transform="scale(0.015625)"/>
      </defs>
      <use xlink:href="#DejaVuSans-41"/>
      <use x="68.408203" xlink:href="#DejaVuSans-6e"/>
      <use x="131.787109" xlink:href="#DejaVuSans-67"/>
      <use x="195.263672" xlink:href="#DejaVuSans-65"/>
      <use x="256.787109" xlink:href="#DejaVuSans-72"/>
      <use x="297.900391" xlink:href="#DejaVuSans-20"/>
      <use x="329.6875" xlink:href="#DejaVuSans-28"/>
      <use x="368.701172" xlink:href="#DejaVuSans-4c"/>
      <use x="424.414062" xlink:href="#DejaVuSans-49"/>
      <use x="453.90625" xlink:href="#DejaVuSans-57"/>
      <use x="552.783203" xlink:href="#DejaVuSans-43"/>
      <use x="622.607422" xlink:href="#DejaVuSans-29"/>
     </g>
    </g>
   </g>
  </g>
  <g id="axes_2">
   <g id="patch_8">
    <path d="M 513.146662 224.607744 
L 918.964844 224.607744 
L 918.964844 26.935017 
L 513.146662 26.935017 
z
" style="fill:#ffffff;"/>
   </g>
   <g id="matplotlib.axis_3">
    <g id="xtick_12">
     <g id="line2d_37">
      <path clip-path="url(#p5a6bf3a437)" d="M 531.592943 224.607744 
L 531.592943 26.935017 
" style="fill:none;stroke:#b0b0b0;stroke-linecap:square;stroke-width:0.3;"/>
     </g>
     <g id="line2d_38">
      <g>
       <use style="stroke:#000000;stroke-width:0.8;" x="531.592943" xlink:href="#m61c39ea1c5" y="224.607744"/>
      </g>
     </g>
    </g>
    <g id="xtick_13">
     <g id="line2d_39">
      <path clip-path="url(#p5a6bf3a437)" d="M 567.295422 224.607744 
L 567.295422 26.935017 
" style="fill:none;stroke:#b0b0b0;stroke-linecap:square;stroke-width:0.3;"/>
     </g>
     <g id="line2d_40">
      <g>
       <use style="stroke:#000000;stroke-width:0.8;" x="567.295422" xlink:href="#m61c39ea1c5" y="224.607744"/>
      </g>
     </g>
    </g>
    <g id="xtick_14">
     <g id="line2d_41">
      <path clip-path="url(#p5a6bf3a437)" d="M 602.997902 224.607744 
L 602.997902 26.935017 
" style="fill:none;stroke:#b0b0b0;stroke-linecap:square;stroke-width:0.3;"/>
     </g>
     <g id="line2d_42">
      <g>
       <use style="stroke:#000000;stroke-width:0.8;" x="602.997902" xlink:href="#m61c39ea1c5" y="224.607744"/>
      </g>
     </g>
    </g>
    <g id="xtick_15">
     <g id="line2d_43">
      <path clip-path="url(#p5a6bf3a437)" d="M 638.700381 224.607744 
L 638.700381 26.935017 
" style="fill:none;stroke:#b0b0b0;stroke-linecap:square;stroke-width:0.3;"/>
     </g>
     <g id="line2d_44">
      <g>
       <use style="stroke:#000000;stroke-width:0.8;" x="638.700381" xlink:href="#m61c39ea1c5" y="224.607744"/>
      </g>
     </g>
    </g>
    <g id="xtick_16">
     <g id="line2d_45">
      <path clip-path="url(#p5a6bf3a437)" d="M 674.40286 224.607744 
L 674.40286 26.935017 
" style="fill:none;stroke:#b0b0b0;stroke-linecap:square;stroke-width:0.3;"/>
     </g>
     <g id="line2d_46">
      <g>
       <use style="stroke:#000000;stroke-width:0.8;" x="674.40286" xlink:href="#m61c39ea1c5" y="224.607744"/>
      </g>
     </g>
    </g>
    <g id="xtick_17">
     <g id="line2d_47">
      <path clip-path="url(#p5a6bf3a437)" d="M 710.10534 224.607744 
L 710.10534 26.935017 
" style="fill:none;stroke:#b0b0b0;stroke-linecap:square;stroke-width:0.3;"/>
     </g>
     <g id="line2d_48">
      <g>
       <use style="stroke:#000000;stroke-width:0.8;" x="710.10534" xlink:href="#m61c39ea1c5" y="224.607744"/>
      </g>
     </g>
    </g>
    <g id="xtick_18">
     <g id="line2d_49">
      <path clip-path="url(#p5a6bf3a437)" d="M 745.807819 224.607744 
L 745.807819 26.935017 
" style="fill:none;stroke:#b0b0b0;stroke-linecap:square;stroke-width:0.3;"/>
     </g>
     <g id="line2d_50">
      <g>
       <use style="stroke:#000000;stroke-width:0.8;" x="745.807819" xlink:href="#m61c39ea1c5" y="224.607744"/>
      </g>
     </g>
    </g>
    <g id="xtick_19">
     <g id="line2d_51">
      <path clip-path="url(#p5a6bf3a437)" d="M 781.510298 224.607744 
L 781.510298 26.935017 
" style="fill:none;stroke:#b0b0b0;stroke-linecap:square;stroke-width:0.3;"/>
     </g>
     <g id="line2d_52">
      <g>
       <use style="stroke:#000000;stroke-width:0.8;" x="781.510298" xlink:href="#m61c39ea1c5" y="224.607744"/>
      </g>
     </g>
    </g>
    <g id="xtick_20">
     <g id="line2d_53">
      <path clip-path="url(#p5a6bf3a437)" d="M 817.212778 224.607744 
L 817.212778 26.935017 
" style="fill:none;stroke:#b0b0b0;stroke-linecap:square;stroke-width:0.3;"/>
     </g>
     <g id="line2d_54">
      <g>
       <use style="stroke:#000000;stroke-width:0.8;" x="817.212778" xlink:href="#m61c39ea1c5" y="224.607744"/>
      </g>
     </g>
    </g>
    <g id="xtick_21">
     <g id="line2d_55">
      <path clip-path="url(#p5a6bf3a437)" d="M 852.915257 224.607744 
L 852.915257 26.935017 
" style="fill:none;stroke:#b0b0b0;stroke-linecap:square;stroke-width:0.3;"/>
     </g>
     <g id="line2d_56">
      <g>
       <use style="stroke:#000000;stroke-width:0.8;" x="852.915257" xlink:href="#m61c39ea1c5" y="224.607744"/>
      </g>
     </g>
    </g>
    <g id="xtick_22">
     <g id="line2d_57">
      <path clip-path="url(#p5a6bf3a437)" d="M 888.617736 224.607744 
L 888.617736 26.935017 
" style="fill:none;stroke:#b0b0b0;stroke-linecap:square;stroke-width:0.3;"/>
     </g>
     <g id="line2d_58">
      <g>
       <use style="stroke:#000000;stroke-width:0.8;" x="888.617736" xlink:href="#m61c39ea1c5" y="224.607744"/>
      </g>
     </g>
    </g>
   </g>
   <g id="matplotlib.axis_4">
    <g id="ytick_5">
     <g id="line2d_59">
      <path clip-path="url(#p5a6bf3a437)" d="M 513.146662 198.793197 
L 918.964844 198.793197 
" style="fill:none;stroke:#b0b0b0;stroke-linecap:square;stroke-width:0.3;"/>
     </g>
     <g id="line2d_60">
      <g>
       <use style="stroke:#000000;stroke-width:0.8;" x="513.146662" xlink:href="#m1758c27500" y="198.793197"/>
      </g>
     </g>
     <g id="text_7">
      <!-- −2 -->
      <g transform="translate(486.981818 203.732182)scale(0.13 -0.13)">
       <use xlink:href="#DejaVuSans-2212"/>
       <use x="83.789062" xlink:href="#DejaVuSans-32"/>
      </g>
     </g>
    </g>
    <g id="ytick_6">
     <g id="line2d_61">
      <path clip-path="url(#p5a6bf3a437)" d="M 513.146662 149.571031 
L 918.964844 149.571031 
" style="fill:none;stroke:#b0b0b0;stroke-linecap:square;stroke-width:0.3;"/>
     </g>
     <g id="line2d_62">
      <g>
       <use style="stroke:#000000;stroke-width:0.8;" x="513.146662" xlink:href="#m1758c27500" y="149.571031"/>
      </g>
     </g>
     <g id="text_8">
      <!-- −1 -->
      <g transform="translate(486.981818 154.510016)scale(0.13 -0.13)">
       <use xlink:href="#DejaVuSans-2212"/>
       <use x="83.789062" xlink:href="#DejaVuSans-31"/>
      </g>
     </g>
    </g>
    <g id="ytick_7">
     <g id="line2d_63">
      <path clip-path="url(#p5a6bf3a437)" d="M 513.146662 100.348865 
L 918.964844 100.348865 
" style="fill:none;stroke:#b0b0b0;stroke-linecap:square;stroke-width:0.3;"/>
     </g>
     <g id="line2d_64">
      <g>
       <use style="stroke:#000000;stroke-width:0.8;" x="513.146662" xlink:href="#m1758c27500" y="100.348865"/>
      </g>
     </g>
     <g id="text_9">
      <!-- 0 -->
      <g transform="translate(497.875412 105.28785)scale(0.13 -0.13)">
       <use xlink:href="#DejaVuSans-30"/>
      </g>
     </g>
    </g>
    <g id="ytick_8">
     <g id="line2d_65">
      <path clip-path="url(#p5a6bf3a437)" d="M 513.146662 51.126699 
L 918.964844 51.126699 
" style="fill:none;stroke:#b0b0b0;stroke-linecap:square;stroke-width:0.3;"/>
     </g>
     <g id="line2d_66">
      <g>
       <use style="stroke:#000000;stroke-width:0.8;" x="513.146662" xlink:href="#m1758c27500" y="51.126699"/>
      </g>
     </g>
     <g id="text_10">
      <!-- 1 -->
      <g transform="translate(497.875412 56.065684)scale(0.13 -0.13)">
       <use xlink:href="#DejaVuSans-31"/>
      </g>
     </g>
    </g>
   </g>
   <g id="line2d_67">
    <path clip-path="url(#p5a6bf3a437)" d="M 531.592943 92.782307 
L 537.543356 159.847867 
L 543.493769 180.724973 
L 549.444183 185.99157 
L 555.394596 184.143717 
L 561.345009 126.262286 
L 567.295422 171.631725 
L 573.245835 215.62262 
L 579.196249 215.104042 
L 585.146662 203.836858 
L 591.097075 188.021942 
L 597.047488 179.930844 
L 602.997902 173.418738 
L 608.948315 170.366093 
L 614.898728 166.463183 
L 620.849141 152.879736 
L 626.799554 150.665866 
L 632.749968 144.071717 
L 638.700381 123.081209 
L 644.650794 115.138898 
L 650.601207 105.646719 
L 656.551621 108.639751 
L 662.502034 96.431372 
L 668.452447 102.551764 
L 674.40286 90.439399 
L 680.353274 83.067729 
L 686.303687 84.710432 
L 692.2541 79.290241 
L 698.204513 66.407214 
L 704.154926 66.023915 
L 710.10534 63.670097 
L 716.055753 64.409826 
L 722.006166 66.310141 
L 727.956579 59.671397 
L 733.906993 70.244746 
L 739.857406 72.252017 
L 745.807819 76.996756 
L 751.758232 64.785767 
L 757.708645 67.828178 
L 763.659059 65.025814 
L 769.609472 74.077552 
L 775.559885 74.434068 
L 781.510298 91.050902 
L 787.460712 74.978362 
L 793.411125 69.637125 
L 799.361538 68.654795 
L 805.311951 69.313059 
L 811.262364 68.118002 
L 817.212778 68.140205 
L 823.163191 53.921064 
L 829.113604 71.135975 
L 835.064017 70.285031 
L 841.014431 51.694198 
L 846.964844 53.234195 
L 852.915257 47.616591 
L 858.86567 49.346656 
L 864.816083 42.153303 
L 870.766497 55.837987 
L 876.71691 53.970875 
L 882.667323 50.801873 
L 888.617736 63.063374 
L 894.56815 65.121215 
L 900.518563 81.002645 
" style="fill:none;stroke:#ff0000;stroke-linecap:square;stroke-width:1.5;"/>
   </g>
   <g id="line2d_68">
    <path clip-path="url(#p5a6bf3a437)" d="M 531.592943 204.539738 
L 537.543356 191.362795 
L 543.493769 173.494051 
L 549.444183 175.13015 
L 555.394596 161.962676 
L 561.345009 157.389166 
L 567.295422 174.717975 
L 573.245835 207.704663 
L 579.196249 196.870987 
L 585.146662 180.499659 
L 591.097075 171.210962 
L 597.047488 165.36052 
L 602.997902 159.922093 
L 608.948315 163.705645 
L 614.898728 158.356851 
L 620.849141 149.165682 
L 626.799554 150.852709 
L 632.749968 138.775043 
L 638.700381 127.914954 
L 644.650794 122.85075 
L 650.601207 102.389468 
L 656.551621 101.867933 
L 662.502034 99.655654 
L 668.452447 101.903986 
L 674.40286 89.117108 
L 680.353274 96.513231 
L 686.303687 90.917479 
L 692.2541 85.786908 
L 698.204513 72.319016 
L 704.154926 76.171744 
L 710.10534 76.082668 
L 716.055753 74.083121 
L 722.006166 68.715037 
L 727.956579 62.219784 
L 733.906993 67.139244 
L 739.857406 70.060663 
L 745.807819 78.153813 
L 751.758232 47.479007 
L 757.708645 58.363382 
L 763.659059 57.873404 
L 769.609472 50.454051 
L 775.559885 64.871799 
L 781.510298 62.366923 
L 787.460712 45.706143 
L 793.411125 48.564606 
L 799.361538 51.685011 
L 805.311951 50.385083 
L 811.262364 55.226912 
L 817.212778 47.179222 
L 823.163191 35.920141 
L 829.113604 63.675239 
L 835.064017 72.307895 
L 841.014431 49.07696 
L 846.964844 53.372046 
L 852.915257 57.576917 
L 858.86567 66.472958 
L 864.816083 58.688145 
L 870.766497 59.538711 
L 876.71691 72.387488 
L 882.667323 68.859627 
L 888.617736 89.441111 
L 894.56815 80.814874 
L 900.518563 108.806939 
" style="fill:none;stroke:#0000ff;stroke-dasharray:5.55,2.4;stroke-dashoffset:0;stroke-width:1.5;"/>
   </g>
   <g id="patch_9">
    <path d="M 513.146662 224.607744 
L 513.146662 26.935017 
" style="fill:none;stroke:#000000;stroke-linecap:square;stroke-linejoin:miter;stroke-width:0.8;"/>
   </g>
   <g id="patch_10">
    <path d="M 918.964844 224.607744 
L 918.964844 26.935017 
" style="fill:none;stroke:#000000;stroke-linecap:square;stroke-linejoin:miter;stroke-width:0.8;"/>
   </g>
   <g id="patch_11">
    <path d="M 513.146662 224.607744 
L 918.964844 224.607744 
" style="fill:none;stroke:#000000;stroke-linecap:square;stroke-linejoin:miter;stroke-width:0.8;"/>
   </g>
   <g id="patch_12">
    <path d="M 513.146662 26.935017 
L 918.964844 26.935017 
" style="fill:none;stroke:#000000;stroke-linecap:square;stroke-linejoin:miter;stroke-width:0.8;"/>
   </g>
   <g id="legend_2">
    <g id="patch_13">
     <path d="M 515.746662 22.981562 
L 916.364844 22.981562 
Q 918.964844 22.981562 918.964844 20.381562 
L 918.964844 2.6 
Q 918.964844 0 916.364844 0 
L 515.746662 0 
Q 513.146662 0 513.146662 2.6 
L 513.146662 20.381562 
Q 513.146662 22.981562 515.746662 22.981562 
z
" style="fill:#ffffff;opacity:0.8;stroke:#cccccc;stroke-linejoin:miter;"/>
    </g>
    <g id="line2d_69">
     <path d="M 518.346662 10.527969 
L 544.346662 10.527969 
" style="fill:none;stroke:#ff0000;stroke-linecap:square;stroke-width:1.5;"/>
    </g>
    <g id="line2d_70"/>
    <g id="text_11">
     <!-- sadness (Emolex) -->
     <g transform="translate(554.746662 15.077969)scale(0.13 -0.13)">
      <defs>
       <path d="M 2834 3397 
L 2834 2853 
Q 2591 2978 2328 3040 
Q 2066 3103 1784 3103 
Q 1356 3103 1142 2972 
Q 928 2841 928 2578 
Q 928 2378 1081 2264 
Q 1234 2150 1697 2047 
L 1894 2003 
Q 2506 1872 2764 1633 
Q 3022 1394 3022 966 
Q 3022 478 2636 193 
Q 2250 -91 1575 -91 
Q 1294 -91 989 -36 
Q 684 19 347 128 
L 347 722 
Q 666 556 975 473 
Q 1284 391 1588 391 
Q 1994 391 2212 530 
Q 2431 669 2431 922 
Q 2431 1156 2273 1281 
Q 2116 1406 1581 1522 
L 1381 1569 
Q 847 1681 609 1914 
Q 372 2147 372 2553 
Q 372 3047 722 3315 
Q 1072 3584 1716 3584 
Q 2034 3584 2315 3537 
Q 2597 3491 2834 3397 
z
" id="DejaVuSans-73" transform="scale(0.015625)"/>
       <path d="M 2906 2969 
L 2906 4863 
L 3481 4863 
L 3481 0 
L 2906 0 
L 2906 525 
Q 2725 213 2448 61 
Q 2172 -91 1784 -91 
Q 1150 -91 751 415 
Q 353 922 353 1747 
Q 353 2572 751 3078 
Q 1150 3584 1784 3584 
Q 2172 3584 2448 3432 
Q 2725 3281 2906 2969 
z
M 947 1747 
Q 947 1113 1208 752 
Q 1469 391 1925 391 
Q 2381 391 2643 752 
Q 2906 1113 2906 1747 
Q 2906 2381 2643 2742 
Q 2381 3103 1925 3103 
Q 1469 3103 1208 2742 
Q 947 2381 947 1747 
z
" id="DejaVuSans-64" transform="scale(0.015625)"/>
      </defs>
      <use xlink:href="#DejaVuSans-73"/>
      <use x="52.099609" xlink:href="#DejaVuSans-61"/>
      <use x="113.378906" xlink:href="#DejaVuSans-64"/>
      <use x="176.855469" xlink:href="#DejaVuSans-6e"/>
      <use x="240.234375" xlink:href="#DejaVuSans-65"/>
      <use x="301.757812" xlink:href="#DejaVuSans-73"/>
      <use x="353.857422" xlink:href="#DejaVuSans-73"/>
      <use x="405.957031" xlink:href="#DejaVuSans-20"/>
      <use x="437.744141" xlink:href="#DejaVuSans-28"/>
      <use x="476.757812" xlink:href="#DejaVuSans-45"/>
      <use x="539.941406" xlink:href="#DejaVuSans-6d"/>
      <use x="637.353516" xlink:href="#DejaVuSans-6f"/>
      <use x="698.535156" xlink:href="#DejaVuSans-6c"/>
      <use x="726.318359" xlink:href="#DejaVuSans-65"/>
      <use x="786.091797" xlink:href="#DejaVuSans-78"/>
      <use x="845.271484" xlink:href="#DejaVuSans-29"/>
     </g>
    </g>
    <g id="line2d_71">
     <path d="M 805.606875 10.527969 
L 831.606875 10.527969 
" style="fill:none;stroke:#0000ff;stroke-dasharray:5.55,2.4;stroke-dashoffset:0;stroke-width:1.5;"/>
    </g>
    <g id="line2d_72"/>
    <g id="text_12">
     <!-- Sad (LIWC) -->
     <g transform="translate(842.006875 15.077969)scale(0.13 -0.13)">
      <defs>
       <path d="M 3425 4513 
L 3425 3897 
Q 3066 4069 2747 4153 
Q 2428 4238 2131 4238 
Q 1616 4238 1336 4038 
Q 1056 3838 1056 3469 
Q 1056 3159 1242 3001 
Q 1428 2844 1947 2747 
L 2328 2669 
Q 3034 2534 3370 2195 
Q 3706 1856 3706 1288 
Q 3706 609 3251 259 
Q 2797 -91 1919 -91 
Q 1588 -91 1214 -16 
Q 841 59 441 206 
L 441 856 
Q 825 641 1194 531 
Q 1563 422 1919 422 
Q 2459 422 2753 634 
Q 3047 847 3047 1241 
Q 3047 1584 2836 1778 
Q 2625 1972 2144 2069 
L 1759 2144 
Q 1053 2284 737 2584 
Q 422 2884 422 3419 
Q 422 4038 858 4394 
Q 1294 4750 2059 4750 
Q 2388 4750 2728 4690 
Q 3069 4631 3425 4513 
z
" id="DejaVuSans-53" transform="scale(0.015625)"/>
      </defs>
      <use xlink:href="#DejaVuSans-53"/>
      <use x="63.476562" xlink:href="#DejaVuSans-61"/>
      <use x="124.755859" xlink:href="#DejaVuSans-64"/>
      <use x="188.232422" xlink:href="#DejaVuSans-20"/>
      <use x="220.019531" xlink:href="#DejaVuSans-28"/>
      <use x="259.033203" xlink:href="#DejaVuSans-4c"/>
      <use x="314.746094" xlink:href="#DejaVuSans-49"/>
      <use x="344.238281" xlink:href="#DejaVuSans-57"/>
      <use x="443.115234" xlink:href="#DejaVuSans-43"/>
      <use x="512.939453" xlink:href="#DejaVuSans-29"/>
     </g>
    </g>
   </g>
  </g>
  <g id="axes_3">
   <g id="patch_14">
    <path d="M 26.164844 461.815017 
L 431.983026 461.815017 
L 431.983026 264.14229 
L 26.164844 264.14229 
z
" style="fill:#ffffff;"/>
   </g>
   <g id="matplotlib.axis_5">
    <g id="xtick_23">
     <g id="line2d_73">
      <path clip-path="url(#p448dde0260)" d="M 44.611125 461.815017 
L 44.611125 264.14229 
" style="fill:none;stroke:#b0b0b0;stroke-linecap:square;stroke-width:0.3;"/>
     </g>
     <g id="line2d_74">
      <g>
       <use style="stroke:#000000;stroke-width:0.8;" x="44.611125" xlink:href="#m61c39ea1c5" y="461.815017"/>
      </g>
     </g>
     <g id="text_13">
      <!-- 2020/01/20 -->
      <g transform="translate(20.656336 528.782423)rotate(-45)scale(0.13 -0.13)">
       <defs>
        <path d="M 1625 4666 
L 2156 4666 
L 531 -594 
L 0 -594 
L 1625 4666 
z
" id="DejaVuSans-2f" transform="scale(0.015625)"/>
       </defs>
       <use xlink:href="#DejaVuSans-32"/>
       <use x="63.623047" xlink:href="#DejaVuSans-30"/>
       <use x="127.246094" xlink:href="#DejaVuSans-32"/>
       <use x="190.869141" xlink:href="#DejaVuSans-30"/>
       <use x="254.492188" xlink:href="#DejaVuSans-2f"/>
       <use x="288.183594" xlink:href="#DejaVuSans-30"/>
       <use x="351.806641" xlink:href="#DejaVuSans-31"/>
       <use x="415.429688" xlink:href="#DejaVuSans-2f"/>
       <use x="449.121094" xlink:href="#DejaVuSans-32"/>
       <use x="512.744141" xlink:href="#DejaVuSans-30"/>
      </g>
     </g>
    </g>
    <g id="xtick_24">
     <g id="line2d_75">
      <path clip-path="url(#p448dde0260)" d="M 80.313604 461.815017 
L 80.313604 264.14229 
" style="fill:none;stroke:#b0b0b0;stroke-linecap:square;stroke-width:0.3;"/>
     </g>
     <g id="line2d_76">
      <g>
       <use style="stroke:#000000;stroke-width:0.8;" x="80.313604" xlink:href="#m61c39ea1c5" y="461.815017"/>
      </g>
     </g>
     <g id="text_14">
      <!-- 2020/03/02 -->
      <g transform="translate(56.358815 528.782423)rotate(-45)scale(0.13 -0.13)">
       <defs>
        <path d="M 2597 2516 
Q 3050 2419 3304 2112 
Q 3559 1806 3559 1356 
Q 3559 666 3084 287 
Q 2609 -91 1734 -91 
Q 1441 -91 1130 -33 
Q 819 25 488 141 
L 488 750 
Q 750 597 1062 519 
Q 1375 441 1716 441 
Q 2309 441 2620 675 
Q 2931 909 2931 1356 
Q 2931 1769 2642 2001 
Q 2353 2234 1838 2234 
L 1294 2234 
L 1294 2753 
L 1863 2753 
Q 2328 2753 2575 2939 
Q 2822 3125 2822 3475 
Q 2822 3834 2567 4026 
Q 2313 4219 1838 4219 
Q 1578 4219 1281 4162 
Q 984 4106 628 3988 
L 628 4550 
Q 988 4650 1302 4700 
Q 1616 4750 1894 4750 
Q 2613 4750 3031 4423 
Q 3450 4097 3450 3541 
Q 3450 3153 3228 2886 
Q 3006 2619 2597 2516 
z
" id="DejaVuSans-33" transform="scale(0.015625)"/>
       </defs>
       <use xlink:href="#DejaVuSans-32"/>
       <use x="63.623047" xlink:href="#DejaVuSans-30"/>
       <use x="127.246094" xlink:href="#DejaVuSans-32"/>
       <use x="190.869141" xlink:href="#DejaVuSans-30"/>
       <use x="254.492188" xlink:href="#DejaVuSans-2f"/>
       <use x="288.183594" xlink:href="#DejaVuSans-30"/>
       <use x="351.806641" xlink:href="#DejaVuSans-33"/>
       <use x="415.429688" xlink:href="#DejaVuSans-2f"/>
       <use x="449.121094" xlink:href="#DejaVuSans-30"/>
       <use x="512.744141" xlink:href="#DejaVuSans-32"/>
      </g>
     </g>
    </g>
    <g id="xtick_25">
     <g id="line2d_77">
      <path clip-path="url(#p448dde0260)" d="M 116.016083 461.815017 
L 116.016083 264.14229 
" style="fill:none;stroke:#b0b0b0;stroke-linecap:square;stroke-width:0.3;"/>
     </g>
     <g id="line2d_78">
      <g>
       <use style="stroke:#000000;stroke-width:0.8;" x="116.016083" xlink:href="#m61c39ea1c5" y="461.815017"/>
      </g>
     </g>
     <g id="text_15">
      <!-- 2020/04/13 -->
      <g transform="translate(92.061294 528.782423)rotate(-45)scale(0.13 -0.13)">
       <defs>
        <path d="M 2419 4116 
L 825 1625 
L 2419 1625 
L 2419 4116 
z
M 2253 4666 
L 3047 4666 
L 3047 1625 
L 3713 1625 
L 3713 1100 
L 3047 1100 
L 3047 0 
L 2419 0 
L 2419 1100 
L 313 1100 
L 313 1709 
L 2253 4666 
z
" id="DejaVuSans-34" transform="scale(0.015625)"/>
       </defs>
       <use xlink:href="#DejaVuSans-32"/>
       <use x="63.623047" xlink:href="#DejaVuSans-30"/>
       <use x="127.246094" xlink:href="#DejaVuSans-32"/>
       <use x="190.869141" xlink:href="#DejaVuSans-30"/>
       <use x="254.492188" xlink:href="#DejaVuSans-2f"/>
       <use x="288.183594" xlink:href="#DejaVuSans-30"/>
       <use x="351.806641" xlink:href="#DejaVuSans-34"/>
       <use x="415.429688" xlink:href="#DejaVuSans-2f"/>
       <use x="449.121094" xlink:href="#DejaVuSans-31"/>
       <use x="512.744141" xlink:href="#DejaVuSans-33"/>
      </g>
     </g>
    </g>
    <g id="xtick_26">
     <g id="line2d_79">
      <path clip-path="url(#p448dde0260)" d="M 151.718563 461.815017 
L 151.718563 264.14229 
" style="fill:none;stroke:#b0b0b0;stroke-linecap:square;stroke-width:0.3;"/>
     </g>
     <g id="line2d_80">
      <g>
       <use style="stroke:#000000;stroke-width:0.8;" x="151.718563" xlink:href="#m61c39ea1c5" y="461.815017"/>
      </g>
     </g>
     <g id="text_16">
      <!-- 2020/05/25 -->
      <g transform="translate(127.763774 528.782423)rotate(-45)scale(0.13 -0.13)">
       <defs>
        <path d="M 691 4666 
L 3169 4666 
L 3169 4134 
L 1269 4134 
L 1269 2991 
Q 1406 3038 1543 3061 
Q 1681 3084 1819 3084 
Q 2600 3084 3056 2656 
Q 3513 2228 3513 1497 
Q 3513 744 3044 326 
Q 2575 -91 1722 -91 
Q 1428 -91 1123 -41 
Q 819 9 494 109 
L 494 744 
Q 775 591 1075 516 
Q 1375 441 1709 441 
Q 2250 441 2565 725 
Q 2881 1009 2881 1497 
Q 2881 1984 2565 2268 
Q 2250 2553 1709 2553 
Q 1456 2553 1204 2497 
Q 953 2441 691 2322 
L 691 4666 
z
" id="DejaVuSans-35" transform="scale(0.015625)"/>
       </defs>
       <use xlink:href="#DejaVuSans-32"/>
       <use x="63.623047" xlink:href="#DejaVuSans-30"/>
       <use x="127.246094" xlink:href="#DejaVuSans-32"/>
       <use x="190.869141" xlink:href="#DejaVuSans-30"/>
       <use x="254.492188" xlink:href="#DejaVuSans-2f"/>
       <use x="288.183594" xlink:href="#DejaVuSans-30"/>
       <use x="351.806641" xlink:href="#DejaVuSans-35"/>
       <use x="415.429688" xlink:href="#DejaVuSans-2f"/>
       <use x="449.121094" xlink:href="#DejaVuSans-32"/>
       <use x="512.744141" xlink:href="#DejaVuSans-35"/>
      </g>
     </g>
    </g>
    <g id="xtick_27">
     <g id="line2d_81">
      <path clip-path="url(#p448dde0260)" d="M 187.421042 461.815017 
L 187.421042 264.14229 
" style="fill:none;stroke:#b0b0b0;stroke-linecap:square;stroke-width:0.3;"/>
     </g>
     <g id="line2d_82">
      <g>
       <use style="stroke:#000000;stroke-width:0.8;" x="187.421042" xlink:href="#m61c39ea1c5" y="461.815017"/>
      </g>
     </g>
     <g id="text_17">
      <!-- 2020/07/06 -->
      <g transform="translate(163.466253 528.782423)rotate(-45)scale(0.13 -0.13)">
       <defs>
        <path d="M 525 4666 
L 3525 4666 
L 3525 4397 
L 1831 0 
L 1172 0 
L 2766 4134 
L 525 4134 
L 525 4666 
z
" id="DejaVuSans-37" transform="scale(0.015625)"/>
        <path d="M 2113 2584 
Q 1688 2584 1439 2293 
Q 1191 2003 1191 1497 
Q 1191 994 1439 701 
Q 1688 409 2113 409 
Q 2538 409 2786 701 
Q 3034 994 3034 1497 
Q 3034 2003 2786 2293 
Q 2538 2584 2113 2584 
z
M 3366 4563 
L 3366 3988 
Q 3128 4100 2886 4159 
Q 2644 4219 2406 4219 
Q 1781 4219 1451 3797 
Q 1122 3375 1075 2522 
Q 1259 2794 1537 2939 
Q 1816 3084 2150 3084 
Q 2853 3084 3261 2657 
Q 3669 2231 3669 1497 
Q 3669 778 3244 343 
Q 2819 -91 2113 -91 
Q 1303 -91 875 529 
Q 447 1150 447 2328 
Q 447 3434 972 4092 
Q 1497 4750 2381 4750 
Q 2619 4750 2861 4703 
Q 3103 4656 3366 4563 
z
" id="DejaVuSans-36" transform="scale(0.015625)"/>
       </defs>
       <use xlink:href="#DejaVuSans-32"/>
       <use x="63.623047" xlink:href="#DejaVuSans-30"/>
       <use x="127.246094" xlink:href="#DejaVuSans-32"/>
       <use x="190.869141" xlink:href="#DejaVuSans-30"/>
       <use x="254.492188" xlink:href="#DejaVuSans-2f"/>
       <use x="288.183594" xlink:href="#DejaVuSans-30"/>
       <use x="351.806641" xlink:href="#DejaVuSans-37"/>
       <use x="415.429688" xlink:href="#DejaVuSans-2f"/>
       <use x="449.121094" xlink:href="#DejaVuSans-30"/>
       <use x="512.744141" xlink:href="#DejaVuSans-36"/>
      </g>
     </g>
    </g>
    <g id="xtick_28">
     <g id="line2d_83">
      <path clip-path="url(#p448dde0260)" d="M 223.123521 461.815017 
L 223.123521 264.14229 
" style="fill:none;stroke:#b0b0b0;stroke-linecap:square;stroke-width:0.3;"/>
     </g>
     <g id="line2d_84">
      <g>
       <use style="stroke:#000000;stroke-width:0.8;" x="223.123521" xlink:href="#m61c39ea1c5" y="461.815017"/>
      </g>
     </g>
     <g id="text_18">
      <!-- 2020/08/17 -->
      <g transform="translate(199.168732 528.782423)rotate(-45)scale(0.13 -0.13)">
       <defs>
        <path d="M 2034 2216 
Q 1584 2216 1326 1975 
Q 1069 1734 1069 1313 
Q 1069 891 1326 650 
Q 1584 409 2034 409 
Q 2484 409 2743 651 
Q 3003 894 3003 1313 
Q 3003 1734 2745 1975 
Q 2488 2216 2034 2216 
z
M 1403 2484 
Q 997 2584 770 2862 
Q 544 3141 544 3541 
Q 544 4100 942 4425 
Q 1341 4750 2034 4750 
Q 2731 4750 3128 4425 
Q 3525 4100 3525 3541 
Q 3525 3141 3298 2862 
Q 3072 2584 2669 2484 
Q 3125 2378 3379 2068 
Q 3634 1759 3634 1313 
Q 3634 634 3220 271 
Q 2806 -91 2034 -91 
Q 1263 -91 848 271 
Q 434 634 434 1313 
Q 434 1759 690 2068 
Q 947 2378 1403 2484 
z
M 1172 3481 
Q 1172 3119 1398 2916 
Q 1625 2713 2034 2713 
Q 2441 2713 2670 2916 
Q 2900 3119 2900 3481 
Q 2900 3844 2670 4047 
Q 2441 4250 2034 4250 
Q 1625 4250 1398 4047 
Q 1172 3844 1172 3481 
z
" id="DejaVuSans-38" transform="scale(0.015625)"/>
       </defs>
       <use xlink:href="#DejaVuSans-32"/>
       <use x="63.623047" xlink:href="#DejaVuSans-30"/>
       <use x="127.246094" xlink:href="#DejaVuSans-32"/>
       <use x="190.869141" xlink:href="#DejaVuSans-30"/>
       <use x="254.492188" xlink:href="#DejaVuSans-2f"/>
       <use x="288.183594" xlink:href="#DejaVuSans-30"/>
       <use x="351.806641" xlink:href="#DejaVuSans-38"/>
       <use x="415.429688" xlink:href="#DejaVuSans-2f"/>
       <use x="449.121094" xlink:href="#DejaVuSans-31"/>
       <use x="512.744141" xlink:href="#DejaVuSans-37"/>
      </g>
     </g>
    </g>
    <g id="xtick_29">
     <g id="line2d_85">
      <path clip-path="url(#p448dde0260)" d="M 258.826001 461.815017 
L 258.826001 264.14229 
" style="fill:none;stroke:#b0b0b0;stroke-linecap:square;stroke-width:0.3;"/>
     </g>
     <g id="line2d_86">
      <g>
       <use style="stroke:#000000;stroke-width:0.8;" x="258.826001" xlink:href="#m61c39ea1c5" y="461.815017"/>
      </g>
     </g>
     <g id="text_19">
      <!-- 2020/09/28 -->
      <g transform="translate(234.871212 528.782423)rotate(-45)scale(0.13 -0.13)">
       <defs>
        <path d="M 703 97 
L 703 672 
Q 941 559 1184 500 
Q 1428 441 1663 441 
Q 2288 441 2617 861 
Q 2947 1281 2994 2138 
Q 2813 1869 2534 1725 
Q 2256 1581 1919 1581 
Q 1219 1581 811 2004 
Q 403 2428 403 3163 
Q 403 3881 828 4315 
Q 1253 4750 1959 4750 
Q 2769 4750 3195 4129 
Q 3622 3509 3622 2328 
Q 3622 1225 3098 567 
Q 2575 -91 1691 -91 
Q 1453 -91 1209 -44 
Q 966 3 703 97 
z
M 1959 2075 
Q 2384 2075 2632 2365 
Q 2881 2656 2881 3163 
Q 2881 3666 2632 3958 
Q 2384 4250 1959 4250 
Q 1534 4250 1286 3958 
Q 1038 3666 1038 3163 
Q 1038 2656 1286 2365 
Q 1534 2075 1959 2075 
z
" id="DejaVuSans-39" transform="scale(0.015625)"/>
       </defs>
       <use xlink:href="#DejaVuSans-32"/>
       <use x="63.623047" xlink:href="#DejaVuSans-30"/>
       <use x="127.246094" xlink:href="#DejaVuSans-32"/>
       <use x="190.869141" xlink:href="#DejaVuSans-30"/>
       <use x="254.492188" xlink:href="#DejaVuSans-2f"/>
       <use x="288.183594" xlink:href="#DejaVuSans-30"/>
       <use x="351.806641" xlink:href="#DejaVuSans-39"/>
       <use x="415.429688" xlink:href="#DejaVuSans-2f"/>
       <use x="449.121094" xlink:href="#DejaVuSans-32"/>
       <use x="512.744141" xlink:href="#DejaVuSans-38"/>
      </g>
     </g>
    </g>
    <g id="xtick_30">
     <g id="line2d_87">
      <path clip-path="url(#p448dde0260)" d="M 294.52848 461.815017 
L 294.52848 264.14229 
" style="fill:none;stroke:#b0b0b0;stroke-linecap:square;stroke-width:0.3;"/>
     </g>
     <g id="line2d_88">
      <g>
       <use style="stroke:#000000;stroke-width:0.8;" x="294.52848" xlink:href="#m61c39ea1c5" y="461.815017"/>
      </g>
     </g>
     <g id="text_20">
      <!-- 2020/11/09 -->
      <g transform="translate(270.573691 528.782423)rotate(-45)scale(0.13 -0.13)">
       <use xlink:href="#DejaVuSans-32"/>
       <use x="63.623047" xlink:href="#DejaVuSans-30"/>
       <use x="127.246094" xlink:href="#DejaVuSans-32"/>
       <use x="190.869141" xlink:href="#DejaVuSans-30"/>
       <use x="254.492188" xlink:href="#DejaVuSans-2f"/>
       <use x="288.183594" xlink:href="#DejaVuSans-31"/>
       <use x="351.806641" xlink:href="#DejaVuSans-31"/>
       <use x="415.429688" xlink:href="#DejaVuSans-2f"/>
       <use x="449.121094" xlink:href="#DejaVuSans-30"/>
       <use x="512.744141" xlink:href="#DejaVuSans-39"/>
      </g>
     </g>
    </g>
    <g id="xtick_31">
     <g id="line2d_89">
      <path clip-path="url(#p448dde0260)" d="M 330.230959 461.815017 
L 330.230959 264.14229 
" style="fill:none;stroke:#b0b0b0;stroke-linecap:square;stroke-width:0.3;"/>
     </g>
     <g id="line2d_90">
      <g>
       <use style="stroke:#000000;stroke-width:0.8;" x="330.230959" xlink:href="#m61c39ea1c5" y="461.815017"/>
      </g>
     </g>
     <g id="text_21">
      <!-- 2020/12/21 -->
      <g transform="translate(306.27617 528.782423)rotate(-45)scale(0.13 -0.13)">
       <use xlink:href="#DejaVuSans-32"/>
       <use x="63.623047" xlink:href="#DejaVuSans-30"/>
       <use x="127.246094" xlink:href="#DejaVuSans-32"/>
       <use x="190.869141" xlink:href="#DejaVuSans-30"/>
       <use x="254.492188" xlink:href="#DejaVuSans-2f"/>
       <use x="288.183594" xlink:href="#DejaVuSans-31"/>
       <use x="351.806641" xlink:href="#DejaVuSans-32"/>
       <use x="415.429688" xlink:href="#DejaVuSans-2f"/>
       <use x="449.121094" xlink:href="#DejaVuSans-32"/>
       <use x="512.744141" xlink:href="#DejaVuSans-31"/>
      </g>
     </g>
    </g>
    <g id="xtick_32">
     <g id="line2d_91">
      <path clip-path="url(#p448dde0260)" d="M 365.933439 461.815017 
L 365.933439 264.14229 
" style="fill:none;stroke:#b0b0b0;stroke-linecap:square;stroke-width:0.3;"/>
     </g>
     <g id="line2d_92">
      <g>
       <use style="stroke:#000000;stroke-width:0.8;" x="365.933439" xlink:href="#m61c39ea1c5" y="461.815017"/>
      </g>
     </g>
     <g id="text_22">
      <!-- 2021/02/01 -->
      <g transform="translate(341.97865 528.782423)rotate(-45)scale(0.13 -0.13)">
       <use xlink:href="#DejaVuSans-32"/>
       <use x="63.623047" xlink:href="#DejaVuSans-30"/>
       <use x="127.246094" xlink:href="#DejaVuSans-32"/>
       <use x="190.869141" xlink:href="#DejaVuSans-31"/>
       <use x="254.492188" xlink:href="#DejaVuSans-2f"/>
       <use x="288.183594" xlink:href="#DejaVuSans-30"/>
       <use x="351.806641" xlink:href="#DejaVuSans-32"/>
       <use x="415.429688" xlink:href="#DejaVuSans-2f"/>
       <use x="449.121094" xlink:href="#DejaVuSans-30"/>
       <use x="512.744141" xlink:href="#DejaVuSans-31"/>
      </g>
     </g>
    </g>
    <g id="xtick_33">
     <g id="line2d_93">
      <path clip-path="url(#p448dde0260)" d="M 401.635918 461.815017 
L 401.635918 264.14229 
" style="fill:none;stroke:#b0b0b0;stroke-linecap:square;stroke-width:0.3;"/>
     </g>
     <g id="line2d_94">
      <g>
       <use style="stroke:#000000;stroke-width:0.8;" x="401.635918" xlink:href="#m61c39ea1c5" y="461.815017"/>
      </g>
     </g>
     <g id="text_23">
      <!-- 2021/03/15 -->
      <g transform="translate(377.681129 528.782423)rotate(-45)scale(0.13 -0.13)">
       <use xlink:href="#DejaVuSans-32"/>
       <use x="63.623047" xlink:href="#DejaVuSans-30"/>
       <use x="127.246094" xlink:href="#DejaVuSans-32"/>
       <use x="190.869141" xlink:href="#DejaVuSans-31"/>
       <use x="254.492188" xlink:href="#DejaVuSans-2f"/>
       <use x="288.183594" xlink:href="#DejaVuSans-30"/>
       <use x="351.806641" xlink:href="#DejaVuSans-33"/>
       <use x="415.429688" xlink:href="#DejaVuSans-2f"/>
       <use x="449.121094" xlink:href="#DejaVuSans-31"/>
       <use x="512.744141" xlink:href="#DejaVuSans-35"/>
      </g>
     </g>
    </g>
   </g>
   <g id="matplotlib.axis_6">
    <g id="ytick_9">
     <g id="line2d_95">
      <path clip-path="url(#p448dde0260)" d="M 26.164844 442.626545 
L 431.983026 442.626545 
" style="fill:none;stroke:#b0b0b0;stroke-linecap:square;stroke-width:0.3;"/>
     </g>
     <g id="line2d_96">
      <g>
       <use style="stroke:#000000;stroke-width:0.8;" x="26.164844" xlink:href="#m1758c27500" y="442.626545"/>
      </g>
     </g>
     <g id="text_24">
      <!-- −3 -->
      <g transform="translate(0 447.56553)scale(0.13 -0.13)">
       <use xlink:href="#DejaVuSans-2212"/>
       <use x="83.789062" xlink:href="#DejaVuSans-33"/>
      </g>
     </g>
    </g>
    <g id="ytick_10">
     <g id="line2d_97">
      <path clip-path="url(#p448dde0260)" d="M 26.164844 402.263887 
L 431.983026 402.263887 
" style="fill:none;stroke:#b0b0b0;stroke-linecap:square;stroke-width:0.3;"/>
     </g>
     <g id="line2d_98">
      <g>
       <use style="stroke:#000000;stroke-width:0.8;" x="26.164844" xlink:href="#m1758c27500" y="402.263887"/>
      </g>
     </g>
     <g id="text_25">
      <!-- −2 -->
      <g transform="translate(0 407.202871)scale(0.13 -0.13)">
       <use xlink:href="#DejaVuSans-2212"/>
       <use x="83.789062" xlink:href="#DejaVuSans-32"/>
      </g>
     </g>
    </g>
    <g id="ytick_11">
     <g id="line2d_99">
      <path clip-path="url(#p448dde0260)" d="M 26.164844 361.901228 
L 431.983026 361.901228 
" style="fill:none;stroke:#b0b0b0;stroke-linecap:square;stroke-width:0.3;"/>
     </g>
     <g id="line2d_100">
      <g>
       <use style="stroke:#000000;stroke-width:0.8;" x="26.164844" xlink:href="#m1758c27500" y="361.901228"/>
      </g>
     </g>
     <g id="text_26">
      <!-- −1 -->
      <g transform="translate(0 366.840212)scale(0.13 -0.13)">
       <use xlink:href="#DejaVuSans-2212"/>
       <use x="83.789062" xlink:href="#DejaVuSans-31"/>
      </g>
     </g>
    </g>
    <g id="ytick_12">
     <g id="line2d_101">
      <path clip-path="url(#p448dde0260)" d="M 26.164844 321.538569 
L 431.983026 321.538569 
" style="fill:none;stroke:#b0b0b0;stroke-linecap:square;stroke-width:0.3;"/>
     </g>
     <g id="line2d_102">
      <g>
       <use style="stroke:#000000;stroke-width:0.8;" x="26.164844" xlink:href="#m1758c27500" y="321.538569"/>
      </g>
     </g>
     <g id="text_27">
      <!-- 0 -->
      <g transform="translate(10.893594 326.477554)scale(0.13 -0.13)">
       <use xlink:href="#DejaVuSans-30"/>
      </g>
     </g>
    </g>
    <g id="ytick_13">
     <g id="line2d_103">
      <path clip-path="url(#p448dde0260)" d="M 26.164844 281.17591 
L 431.983026 281.17591 
" style="fill:none;stroke:#b0b0b0;stroke-linecap:square;stroke-width:0.3;"/>
     </g>
     <g id="line2d_104">
      <g>
       <use style="stroke:#000000;stroke-width:0.8;" x="26.164844" xlink:href="#m1758c27500" y="281.17591"/>
      </g>
     </g>
     <g id="text_28">
      <!-- 1 -->
      <g transform="translate(10.893594 286.114895)scale(0.13 -0.13)">
       <use xlink:href="#DejaVuSans-31"/>
      </g>
     </g>
    </g>
   </g>
   <g id="line2d_105">
    <path clip-path="url(#p448dde0260)" d="M 44.611125 395.612631 
L 50.561538 399.468253 
L 56.511951 403.633365 
L 62.462364 402.365333 
L 68.412778 397.409549 
L 74.363191 365.712888 
L 80.313604 382.210795 
L 86.264017 440.49568 
L 92.214431 416.04922 
L 98.164844 385.928271 
L 104.115257 375.328572 
L 110.06567 360.086092 
L 116.016083 360.696618 
L 121.966497 351.524408 
L 127.91691 348.455064 
L 133.867323 340.807276 
L 139.817736 342.619781 
L 145.76815 340.515688 
L 151.718563 339.218479 
L 157.668976 331.00439 
L 163.619389 306.296697 
L 169.569802 310.535186 
L 175.520216 303.753217 
L 181.470629 313.680897 
L 187.421042 306.654297 
L 193.371455 304.447118 
L 199.321869 301.319109 
L 205.272282 302.832604 
L 211.222695 300.502435 
L 217.173108 294.702972 
L 223.123521 301.030843 
L 229.073935 300.180193 
L 235.024348 303.10543 
L 240.974761 300.780333 
L 246.925174 300.812621 
L 252.875588 304.383214 
L 258.826001 310.676406 
L 264.776414 302.089298 
L 270.726827 304.624193 
L 276.67724 301.765094 
L 282.627654 315.56713 
L 288.578067 308.509325 
L 294.52848 311.911144 
L 300.478893 298.234384 
L 306.429307 293.811818 
L 312.37972 292.54162 
L 318.330133 295.480343 
L 324.280546 286.1535 
L 330.230959 290.389906 
L 336.181373 293.820875 
L 342.131786 294.405984 
L 348.082199 297.946446 
L 354.032612 292.263562 
L 359.983026 291.506867 
L 365.933439 280.517276 
L 371.883852 283.300521 
L 377.834265 278.280402 
L 383.784678 280.759738 
L 389.735092 274.371504 
L 395.685505 273.127414 
L 401.635918 289.852381 
L 407.586331 291.219693 
L 413.536745 289.643512 
" style="fill:none;stroke:#ff0000;stroke-linecap:square;stroke-width:1.5;"/>
   </g>
   <g id="line2d_106">
    <path clip-path="url(#p448dde0260)" d="M 44.611125 452.829893 
L 50.561538 414.158399 
L 56.511951 407.388695 
L 62.462364 402.525385 
L 68.412778 398.787707 
L 74.363191 384.213853 
L 80.313604 391.910637 
L 86.264017 416.119864 
L 92.214431 390.382738 
L 98.164844 365.0117 
L 104.115257 359.487744 
L 110.06567 346.919433 
L 116.016083 350.721194 
L 121.966497 345.230931 
L 127.91691 340.55994 
L 133.867323 336.636892 
L 139.817736 340.63061 
L 145.76815 338.102736 
L 151.718563 343.138273 
L 157.668976 332.944396 
L 163.619389 301.075975 
L 169.569802 300.880089 
L 175.520216 302.245739 
L 181.470629 299.751311 
L 187.421042 302.369878 
L 193.371455 308.147182 
L 199.321869 300.377239 
L 205.272282 298.552023 
L 211.222695 299.614122 
L 217.173108 303.724129 
L 223.123521 297.806672 
L 229.073935 296.856763 
L 235.024348 304.104671 
L 240.974761 304.302774 
L 246.925174 304.528314 
L 252.875588 301.868081 
L 258.826001 294.362194 
L 264.776414 298.212321 
L 270.726827 295.528904 
L 276.67724 298.248024 
L 282.627654 297.457599 
L 288.578067 290.104157 
L 294.52848 286.005229 
L 300.478893 291.26274 
L 306.429307 282.731537 
L 312.37972 282.540918 
L 318.330133 287.291505 
L 324.280546 296.010222 
L 330.230959 289.425649 
L 336.181373 288.621191 
L 342.131786 302.831014 
L 348.082199 307.757835 
L 354.032612 300.408056 
L 359.983026 299.734333 
L 365.933439 286.608996 
L 371.883852 290.050327 
L 377.834265 294.499271 
L 383.784678 293.855436 
L 389.735092 292.80104 
L 395.685505 289.224385 
L 401.635918 304.253454 
L 407.586331 310.311283 
L 413.536745 322.886259 
" style="fill:none;stroke:#0000ff;stroke-dasharray:5.55,2.4;stroke-dashoffset:0;stroke-width:1.5;"/>
   </g>
   <g id="patch_15">
    <path d="M 26.164844 461.815017 
L 26.164844 264.14229 
" style="fill:none;stroke:#000000;stroke-linecap:square;stroke-linejoin:miter;stroke-width:0.8;"/>
   </g>
   <g id="patch_16">
    <path d="M 431.983026 461.815017 
L 431.983026 264.14229 
" style="fill:none;stroke:#000000;stroke-linecap:square;stroke-linejoin:miter;stroke-width:0.8;"/>
   </g>
   <g id="patch_17">
    <path d="M 26.164844 461.815017 
L 431.983026 461.815017 
" style="fill:none;stroke:#000000;stroke-linecap:square;stroke-linejoin:miter;stroke-width:0.8;"/>
   </g>
   <g id="patch_18">
    <path d="M 26.164844 264.14229 
L 431.983026 264.14229 
" style="fill:none;stroke:#000000;stroke-linecap:square;stroke-linejoin:miter;stroke-width:0.8;"/>
   </g>
   <g id="legend_3">
    <g id="patch_19">
     <path d="M 28.764844 260.188835 
L 429.383026 260.188835 
Q 431.983026 260.188835 431.983026 257.588835 
L 431.983026 239.807273 
Q 431.983026 237.207273 429.383026 237.207273 
L 28.764844 237.207273 
Q 26.164844 237.207273 26.164844 239.807273 
L 26.164844 257.588835 
Q 26.164844 260.188835 28.764844 260.188835 
z
" style="fill:#ffffff;opacity:0.8;stroke:#cccccc;stroke-linejoin:miter;"/>
    </g>
    <g id="line2d_107">
     <path d="M 31.364844 247.735241 
L 57.364844 247.735241 
" style="fill:none;stroke:#ff0000;stroke-linecap:square;stroke-width:1.5;"/>
    </g>
    <g id="line2d_108"/>
    <g id="text_29">
     <!-- positive (Emolex) -->
     <g transform="translate(67.764844 252.285241)scale(0.13 -0.13)">
      <defs>
       <path d="M 1159 525 
L 1159 -1331 
L 581 -1331 
L 581 3500 
L 1159 3500 
L 1159 2969 
Q 1341 3281 1617 3432 
Q 1894 3584 2278 3584 
Q 2916 3584 3314 3078 
Q 3713 2572 3713 1747 
Q 3713 922 3314 415 
Q 2916 -91 2278 -91 
Q 1894 -91 1617 61 
Q 1341 213 1159 525 
z
M 3116 1747 
Q 3116 2381 2855 2742 
Q 2594 3103 2138 3103 
Q 1681 3103 1420 2742 
Q 1159 2381 1159 1747 
Q 1159 1113 1420 752 
Q 1681 391 2138 391 
Q 2594 391 2855 752 
Q 3116 1113 3116 1747 
z
" id="DejaVuSans-70" transform="scale(0.015625)"/>
       <path d="M 603 3500 
L 1178 3500 
L 1178 0 
L 603 0 
L 603 3500 
z
M 603 4863 
L 1178 4863 
L 1178 4134 
L 603 4134 
L 603 4863 
z
" id="DejaVuSans-69" transform="scale(0.015625)"/>
       <path d="M 1172 4494 
L 1172 3500 
L 2356 3500 
L 2356 3053 
L 1172 3053 
L 1172 1153 
Q 1172 725 1289 603 
Q 1406 481 1766 481 
L 2356 481 
L 2356 0 
L 1766 0 
Q 1100 0 847 248 
Q 594 497 594 1153 
L 594 3053 
L 172 3053 
L 172 3500 
L 594 3500 
L 594 4494 
L 1172 4494 
z
" id="DejaVuSans-74" transform="scale(0.015625)"/>
       <path d="M 191 3500 
L 800 3500 
L 1894 563 
L 2988 3500 
L 3597 3500 
L 2284 0 
L 1503 0 
L 191 3500 
z
" id="DejaVuSans-76" transform="scale(0.015625)"/>
      </defs>
      <use xlink:href="#DejaVuSans-70"/>
      <use x="63.476562" xlink:href="#DejaVuSans-6f"/>
      <use x="124.658203" xlink:href="#DejaVuSans-73"/>
      <use x="176.757812" xlink:href="#DejaVuSans-69"/>
      <use x="204.541016" xlink:href="#DejaVuSans-74"/>
      <use x="243.75" xlink:href="#DejaVuSans-69"/>
      <use x="271.533203" xlink:href="#DejaVuSans-76"/>
      <use x="330.712891" xlink:href="#DejaVuSans-65"/>
      <use x="392.236328" xlink:href="#DejaVuSans-20"/>
      <use x="424.023438" xlink:href="#DejaVuSans-28"/>
      <use x="463.037109" xlink:href="#DejaVuSans-45"/>
      <use x="526.220703" xlink:href="#DejaVuSans-6d"/>
      <use x="623.632812" xlink:href="#DejaVuSans-6f"/>
      <use x="684.814453" xlink:href="#DejaVuSans-6c"/>
      <use x="712.597656" xlink:href="#DejaVuSans-65"/>
      <use x="772.371094" xlink:href="#DejaVuSans-78"/>
      <use x="831.550781" xlink:href="#DejaVuSans-29"/>
     </g>
    </g>
    <g id="line2d_109">
     <path d="M 292.387401 247.735241 
L 318.387401 247.735241 
" style="fill:none;stroke:#0000ff;stroke-dasharray:5.55,2.4;stroke-dashoffset:0;stroke-width:1.5;"/>
    </g>
    <g id="line2d_110"/>
    <g id="text_30">
     <!-- Posemo (LIWC) -->
     <g transform="translate(328.787401 252.285241)scale(0.13 -0.13)">
      <defs>
       <path d="M 1259 4147 
L 1259 2394 
L 2053 2394 
Q 2494 2394 2734 2622 
Q 2975 2850 2975 3272 
Q 2975 3691 2734 3919 
Q 2494 4147 2053 4147 
L 1259 4147 
z
M 628 4666 
L 2053 4666 
Q 2838 4666 3239 4311 
Q 3641 3956 3641 3272 
Q 3641 2581 3239 2228 
Q 2838 1875 2053 1875 
L 1259 1875 
L 1259 0 
L 628 0 
L 628 4666 
z
" id="DejaVuSans-50" transform="scale(0.015625)"/>
      </defs>
      <use xlink:href="#DejaVuSans-50"/>
      <use x="56.677734" xlink:href="#DejaVuSans-6f"/>
      <use x="117.859375" xlink:href="#DejaVuSans-73"/>
      <use x="169.958984" xlink:href="#DejaVuSans-65"/>
      <use x="231.482422" xlink:href="#DejaVuSans-6d"/>
      <use x="328.894531" xlink:href="#DejaVuSans-6f"/>
      <use x="390.076172" xlink:href="#DejaVuSans-20"/>
      <use x="421.863281" xlink:href="#DejaVuSans-28"/>
      <use x="460.876953" xlink:href="#DejaVuSans-4c"/>
      <use x="516.589844" xlink:href="#DejaVuSans-49"/>
      <use x="546.082031" xlink:href="#DejaVuSans-57"/>
      <use x="644.958984" xlink:href="#DejaVuSans-43"/>
      <use x="714.783203" xlink:href="#DejaVuSans-29"/>
     </g>
    </g>
   </g>
  </g>
  <g id="axes_4">
   <g id="patch_20">
    <path d="M 513.146662 461.815017 
L 918.964844 461.815017 
L 918.964844 264.14229 
L 513.146662 264.14229 
z
" style="fill:#ffffff;"/>
   </g>
   <g id="matplotlib.axis_7">
    <g id="xtick_34">
     <g id="line2d_111">
      <path clip-path="url(#pc136ddbd6a)" d="M 531.592943 461.815017 
L 531.592943 264.14229 
" style="fill:none;stroke:#b0b0b0;stroke-linecap:square;stroke-width:0.3;"/>
     </g>
     <g id="line2d_112">
      <g>
       <use style="stroke:#000000;stroke-width:0.8;" x="531.592943" xlink:href="#m61c39ea1c5" y="461.815017"/>
      </g>
     </g>
     <g id="text_31">
      <!-- 2020/01/20 -->
      <g transform="translate(507.638154 528.782423)rotate(-45)scale(0.13 -0.13)">
       <use xlink:href="#DejaVuSans-32"/>
       <use x="63.623047" xlink:href="#DejaVuSans-30"/>
       <use x="127.246094" xlink:href="#DejaVuSans-32"/>
       <use x="190.869141" xlink:href="#DejaVuSans-30"/>
       <use x="254.492188" xlink:href="#DejaVuSans-2f"/>
       <use x="288.183594" xlink:href="#DejaVuSans-30"/>
       <use x="351.806641" xlink:href="#DejaVuSans-31"/>
       <use x="415.429688" xlink:href="#DejaVuSans-2f"/>
       <use x="449.121094" xlink:href="#DejaVuSans-32"/>
       <use x="512.744141" xlink:href="#DejaVuSans-30"/>
      </g>
     </g>
    </g>
    <g id="xtick_35">
     <g id="line2d_113">
      <path clip-path="url(#pc136ddbd6a)" d="M 567.295422 461.815017 
L 567.295422 264.14229 
" style="fill:none;stroke:#b0b0b0;stroke-linecap:square;stroke-width:0.3;"/>
     </g>
     <g id="line2d_114">
      <g>
       <use style="stroke:#000000;stroke-width:0.8;" x="567.295422" xlink:href="#m61c39ea1c5" y="461.815017"/>
      </g>
     </g>
     <g id="text_32">
      <!-- 2020/03/02 -->
      <g transform="translate(543.340633 528.782423)rotate(-45)scale(0.13 -0.13)">
       <use xlink:href="#DejaVuSans-32"/>
       <use x="63.623047" xlink:href="#DejaVuSans-30"/>
       <use x="127.246094" xlink:href="#DejaVuSans-32"/>
       <use x="190.869141" xlink:href="#DejaVuSans-30"/>
       <use x="254.492188" xlink:href="#DejaVuSans-2f"/>
       <use x="288.183594" xlink:href="#DejaVuSans-30"/>
       <use x="351.806641" xlink:href="#DejaVuSans-33"/>
       <use x="415.429688" xlink:href="#DejaVuSans-2f"/>
       <use x="449.121094" xlink:href="#DejaVuSans-30"/>
       <use x="512.744141" xlink:href="#DejaVuSans-32"/>
      </g>
     </g>
    </g>
    <g id="xtick_36">
     <g id="line2d_115">
      <path clip-path="url(#pc136ddbd6a)" d="M 602.997902 461.815017 
L 602.997902 264.14229 
" style="fill:none;stroke:#b0b0b0;stroke-linecap:square;stroke-width:0.3;"/>
     </g>
     <g id="line2d_116">
      <g>
       <use style="stroke:#000000;stroke-width:0.8;" x="602.997902" xlink:href="#m61c39ea1c5" y="461.815017"/>
      </g>
     </g>
     <g id="text_33">
      <!-- 2020/04/13 -->
      <g transform="translate(579.043113 528.782423)rotate(-45)scale(0.13 -0.13)">
       <use xlink:href="#DejaVuSans-32"/>
       <use x="63.623047" xlink:href="#DejaVuSans-30"/>
       <use x="127.246094" xlink:href="#DejaVuSans-32"/>
       <use x="190.869141" xlink:href="#DejaVuSans-30"/>
       <use x="254.492188" xlink:href="#DejaVuSans-2f"/>
       <use x="288.183594" xlink:href="#DejaVuSans-30"/>
       <use x="351.806641" xlink:href="#DejaVuSans-34"/>
       <use x="415.429688" xlink:href="#DejaVuSans-2f"/>
       <use x="449.121094" xlink:href="#DejaVuSans-31"/>
       <use x="512.744141" xlink:href="#DejaVuSans-33"/>
      </g>
     </g>
    </g>
    <g id="xtick_37">
     <g id="line2d_117">
      <path clip-path="url(#pc136ddbd6a)" d="M 638.700381 461.815017 
L 638.700381 264.14229 
" style="fill:none;stroke:#b0b0b0;stroke-linecap:square;stroke-width:0.3;"/>
     </g>
     <g id="line2d_118">
      <g>
       <use style="stroke:#000000;stroke-width:0.8;" x="638.700381" xlink:href="#m61c39ea1c5" y="461.815017"/>
      </g>
     </g>
     <g id="text_34">
      <!-- 2020/05/25 -->
      <g transform="translate(614.745592 528.782423)rotate(-45)scale(0.13 -0.13)">
       <use xlink:href="#DejaVuSans-32"/>
       <use x="63.623047" xlink:href="#DejaVuSans-30"/>
       <use x="127.246094" xlink:href="#DejaVuSans-32"/>
       <use x="190.869141" xlink:href="#DejaVuSans-30"/>
       <use x="254.492188" xlink:href="#DejaVuSans-2f"/>
       <use x="288.183594" xlink:href="#DejaVuSans-30"/>
       <use x="351.806641" xlink:href="#DejaVuSans-35"/>
       <use x="415.429688" xlink:href="#DejaVuSans-2f"/>
       <use x="449.121094" xlink:href="#DejaVuSans-32"/>
       <use x="512.744141" xlink:href="#DejaVuSans-35"/>
      </g>
     </g>
    </g>
    <g id="xtick_38">
     <g id="line2d_119">
      <path clip-path="url(#pc136ddbd6a)" d="M 674.40286 461.815017 
L 674.40286 264.14229 
" style="fill:none;stroke:#b0b0b0;stroke-linecap:square;stroke-width:0.3;"/>
     </g>
     <g id="line2d_120">
      <g>
       <use style="stroke:#000000;stroke-width:0.8;" x="674.40286" xlink:href="#m61c39ea1c5" y="461.815017"/>
      </g>
     </g>
     <g id="text_35">
      <!-- 2020/07/06 -->
      <g transform="translate(650.448071 528.782423)rotate(-45)scale(0.13 -0.13)">
       <use xlink:href="#DejaVuSans-32"/>
       <use x="63.623047" xlink:href="#DejaVuSans-30"/>
       <use x="127.246094" xlink:href="#DejaVuSans-32"/>
       <use x="190.869141" xlink:href="#DejaVuSans-30"/>
       <use x="254.492188" xlink:href="#DejaVuSans-2f"/>
       <use x="288.183594" xlink:href="#DejaVuSans-30"/>
       <use x="351.806641" xlink:href="#DejaVuSans-37"/>
       <use x="415.429688" xlink:href="#DejaVuSans-2f"/>
       <use x="449.121094" xlink:href="#DejaVuSans-30"/>
       <use x="512.744141" xlink:href="#DejaVuSans-36"/>
      </g>
     </g>
    </g>
    <g id="xtick_39">
     <g id="line2d_121">
      <path clip-path="url(#pc136ddbd6a)" d="M 710.10534 461.815017 
L 710.10534 264.14229 
" style="fill:none;stroke:#b0b0b0;stroke-linecap:square;stroke-width:0.3;"/>
     </g>
     <g id="line2d_122">
      <g>
       <use style="stroke:#000000;stroke-width:0.8;" x="710.10534" xlink:href="#m61c39ea1c5" y="461.815017"/>
      </g>
     </g>
     <g id="text_36">
      <!-- 2020/08/17 -->
      <g transform="translate(686.150551 528.782423)rotate(-45)scale(0.13 -0.13)">
       <use xlink:href="#DejaVuSans-32"/>
       <use x="63.623047" xlink:href="#DejaVuSans-30"/>
       <use x="127.246094" xlink:href="#DejaVuSans-32"/>
       <use x="190.869141" xlink:href="#DejaVuSans-30"/>
       <use x="254.492188" xlink:href="#DejaVuSans-2f"/>
       <use x="288.183594" xlink:href="#DejaVuSans-30"/>
       <use x="351.806641" xlink:href="#DejaVuSans-38"/>
       <use x="415.429688" xlink:href="#DejaVuSans-2f"/>
       <use x="449.121094" xlink:href="#DejaVuSans-31"/>
       <use x="512.744141" xlink:href="#DejaVuSans-37"/>
      </g>
     </g>
    </g>
    <g id="xtick_40">
     <g id="line2d_123">
      <path clip-path="url(#pc136ddbd6a)" d="M 745.807819 461.815017 
L 745.807819 264.14229 
" style="fill:none;stroke:#b0b0b0;stroke-linecap:square;stroke-width:0.3;"/>
     </g>
     <g id="line2d_124">
      <g>
       <use style="stroke:#000000;stroke-width:0.8;" x="745.807819" xlink:href="#m61c39ea1c5" y="461.815017"/>
      </g>
     </g>
     <g id="text_37">
      <!-- 2020/09/28 -->
      <g transform="translate(721.85303 528.782423)rotate(-45)scale(0.13 -0.13)">
       <use xlink:href="#DejaVuSans-32"/>
       <use x="63.623047" xlink:href="#DejaVuSans-30"/>
       <use x="127.246094" xlink:href="#DejaVuSans-32"/>
       <use x="190.869141" xlink:href="#DejaVuSans-30"/>
       <use x="254.492188" xlink:href="#DejaVuSans-2f"/>
       <use x="288.183594" xlink:href="#DejaVuSans-30"/>
       <use x="351.806641" xlink:href="#DejaVuSans-39"/>
       <use x="415.429688" xlink:href="#DejaVuSans-2f"/>
       <use x="449.121094" xlink:href="#DejaVuSans-32"/>
       <use x="512.744141" xlink:href="#DejaVuSans-38"/>
      </g>
     </g>
    </g>
    <g id="xtick_41">
     <g id="line2d_125">
      <path clip-path="url(#pc136ddbd6a)" d="M 781.510298 461.815017 
L 781.510298 264.14229 
" style="fill:none;stroke:#b0b0b0;stroke-linecap:square;stroke-width:0.3;"/>
     </g>
     <g id="line2d_126">
      <g>
       <use style="stroke:#000000;stroke-width:0.8;" x="781.510298" xlink:href="#m61c39ea1c5" y="461.815017"/>
      </g>
     </g>
     <g id="text_38">
      <!-- 2020/11/09 -->
      <g transform="translate(757.555509 528.782423)rotate(-45)scale(0.13 -0.13)">
       <use xlink:href="#DejaVuSans-32"/>
       <use x="63.623047" xlink:href="#DejaVuSans-30"/>
       <use x="127.246094" xlink:href="#DejaVuSans-32"/>
       <use x="190.869141" xlink:href="#DejaVuSans-30"/>
       <use x="254.492188" xlink:href="#DejaVuSans-2f"/>
       <use x="288.183594" xlink:href="#DejaVuSans-31"/>
       <use x="351.806641" xlink:href="#DejaVuSans-31"/>
       <use x="415.429688" xlink:href="#DejaVuSans-2f"/>
       <use x="449.121094" xlink:href="#DejaVuSans-30"/>
       <use x="512.744141" xlink:href="#DejaVuSans-39"/>
      </g>
     </g>
    </g>
    <g id="xtick_42">
     <g id="line2d_127">
      <path clip-path="url(#pc136ddbd6a)" d="M 817.212778 461.815017 
L 817.212778 264.14229 
" style="fill:none;stroke:#b0b0b0;stroke-linecap:square;stroke-width:0.3;"/>
     </g>
     <g id="line2d_128">
      <g>
       <use style="stroke:#000000;stroke-width:0.8;" x="817.212778" xlink:href="#m61c39ea1c5" y="461.815017"/>
      </g>
     </g>
     <g id="text_39">
      <!-- 2020/12/21 -->
      <g transform="translate(793.257989 528.782423)rotate(-45)scale(0.13 -0.13)">
       <use xlink:href="#DejaVuSans-32"/>
       <use x="63.623047" xlink:href="#DejaVuSans-30"/>
       <use x="127.246094" xlink:href="#DejaVuSans-32"/>
       <use x="190.869141" xlink:href="#DejaVuSans-30"/>
       <use x="254.492188" xlink:href="#DejaVuSans-2f"/>
       <use x="288.183594" xlink:href="#DejaVuSans-31"/>
       <use x="351.806641" xlink:href="#DejaVuSans-32"/>
       <use x="415.429688" xlink:href="#DejaVuSans-2f"/>
       <use x="449.121094" xlink:href="#DejaVuSans-32"/>
       <use x="512.744141" xlink:href="#DejaVuSans-31"/>
      </g>
     </g>
    </g>
    <g id="xtick_43">
     <g id="line2d_129">
      <path clip-path="url(#pc136ddbd6a)" d="M 852.915257 461.815017 
L 852.915257 264.14229 
" style="fill:none;stroke:#b0b0b0;stroke-linecap:square;stroke-width:0.3;"/>
     </g>
     <g id="line2d_130">
      <g>
       <use style="stroke:#000000;stroke-width:0.8;" x="852.915257" xlink:href="#m61c39ea1c5" y="461.815017"/>
      </g>
     </g>
     <g id="text_40">
      <!-- 2021/02/01 -->
      <g transform="translate(828.960468 528.782423)rotate(-45)scale(0.13 -0.13)">
       <use xlink:href="#DejaVuSans-32"/>
       <use x="63.623047" xlink:href="#DejaVuSans-30"/>
       <use x="127.246094" xlink:href="#DejaVuSans-32"/>
       <use x="190.869141" xlink:href="#DejaVuSans-31"/>
       <use x="254.492188" xlink:href="#DejaVuSans-2f"/>
       <use x="288.183594" xlink:href="#DejaVuSans-30"/>
       <use x="351.806641" xlink:href="#DejaVuSans-32"/>
       <use x="415.429688" xlink:href="#DejaVuSans-2f"/>
       <use x="449.121094" xlink:href="#DejaVuSans-30"/>
       <use x="512.744141" xlink:href="#DejaVuSans-31"/>
      </g>
     </g>
    </g>
    <g id="xtick_44">
     <g id="line2d_131">
      <path clip-path="url(#pc136ddbd6a)" d="M 888.617736 461.815017 
L 888.617736 264.14229 
" style="fill:none;stroke:#b0b0b0;stroke-linecap:square;stroke-width:0.3;"/>
     </g>
     <g id="line2d_132">
      <g>
       <use style="stroke:#000000;stroke-width:0.8;" x="888.617736" xlink:href="#m61c39ea1c5" y="461.815017"/>
      </g>
     </g>
     <g id="text_41">
      <!-- 2021/03/15 -->
      <g transform="translate(864.662947 528.782423)rotate(-45)scale(0.13 -0.13)">
       <use xlink:href="#DejaVuSans-32"/>
       <use x="63.623047" xlink:href="#DejaVuSans-30"/>
       <use x="127.246094" xlink:href="#DejaVuSans-32"/>
       <use x="190.869141" xlink:href="#DejaVuSans-31"/>
       <use x="254.492188" xlink:href="#DejaVuSans-2f"/>
       <use x="288.183594" xlink:href="#DejaVuSans-30"/>
       <use x="351.806641" xlink:href="#DejaVuSans-33"/>
       <use x="415.429688" xlink:href="#DejaVuSans-2f"/>
       <use x="449.121094" xlink:href="#DejaVuSans-31"/>
       <use x="512.744141" xlink:href="#DejaVuSans-35"/>
      </g>
     </g>
    </g>
   </g>
   <g id="matplotlib.axis_8">
    <g id="ytick_14">
     <g id="line2d_133">
      <path clip-path="url(#pc136ddbd6a)" d="M 513.146662 431.968632 
L 918.964844 431.968632 
" style="fill:none;stroke:#b0b0b0;stroke-linecap:square;stroke-width:0.3;"/>
     </g>
     <g id="line2d_134">
      <g>
       <use style="stroke:#000000;stroke-width:0.8;" x="513.146662" xlink:href="#m1758c27500" y="431.968632"/>
      </g>
     </g>
     <g id="text_42">
      <!-- −2 -->
      <g transform="translate(486.981818 436.907616)scale(0.13 -0.13)">
       <use xlink:href="#DejaVuSans-2212"/>
       <use x="83.789062" xlink:href="#DejaVuSans-32"/>
      </g>
     </g>
    </g>
    <g id="ytick_15">
     <g id="line2d_135">
      <path clip-path="url(#pc136ddbd6a)" d="M 513.146662 387.448272 
L 918.964844 387.448272 
" style="fill:none;stroke:#b0b0b0;stroke-linecap:square;stroke-width:0.3;"/>
     </g>
     <g id="line2d_136">
      <g>
       <use style="stroke:#000000;stroke-width:0.8;" x="513.146662" xlink:href="#m1758c27500" y="387.448272"/>
      </g>
     </g>
     <g id="text_43">
      <!-- −1 -->
      <g transform="translate(486.981818 392.387256)scale(0.13 -0.13)">
       <use xlink:href="#DejaVuSans-2212"/>
       <use x="83.789062" xlink:href="#DejaVuSans-31"/>
      </g>
     </g>
    </g>
    <g id="ytick_16">
     <g id="line2d_137">
      <path clip-path="url(#pc136ddbd6a)" d="M 513.146662 342.927911 
L 918.964844 342.927911 
" style="fill:none;stroke:#b0b0b0;stroke-linecap:square;stroke-width:0.3;"/>
     </g>
     <g id="line2d_138">
      <g>
       <use style="stroke:#000000;stroke-width:0.8;" x="513.146662" xlink:href="#m1758c27500" y="342.927911"/>
      </g>
     </g>
     <g id="text_44">
      <!-- 0 -->
      <g transform="translate(497.875412 347.866896)scale(0.13 -0.13)">
       <use xlink:href="#DejaVuSans-30"/>
      </g>
     </g>
    </g>
    <g id="ytick_17">
     <g id="line2d_139">
      <path clip-path="url(#pc136ddbd6a)" d="M 513.146662 298.407551 
L 918.964844 298.407551 
" style="fill:none;stroke:#b0b0b0;stroke-linecap:square;stroke-width:0.3;"/>
     </g>
     <g id="line2d_140">
      <g>
       <use style="stroke:#000000;stroke-width:0.8;" x="513.146662" xlink:href="#m1758c27500" y="298.407551"/>
      </g>
     </g>
     <g id="text_45">
      <!-- 1 -->
      <g transform="translate(497.875412 303.346535)scale(0.13 -0.13)">
       <use xlink:href="#DejaVuSans-31"/>
      </g>
     </g>
    </g>
   </g>
   <g id="line2d_141">
    <path clip-path="url(#pc136ddbd6a)" d="M 531.592943 316.328043 
L 537.543356 362.241323 
L 543.493769 388.463573 
L 549.444183 390.881711 
L 555.394596 388.224207 
L 561.345009 311.457914 
L 567.295422 348.362853 
L 573.245835 432.039909 
L 579.196249 450.744732 
L 585.146662 452.829893 
L 591.097075 435.12544 
L 597.047488 435.344863 
L 602.997902 426.732464 
L 608.948315 423.835089 
L 614.898728 424.181261 
L 620.849141 407.339557 
L 626.799554 404.885096 
L 632.749968 400.588992 
L 638.700381 374.960132 
L 644.650794 363.65092 
L 650.601207 363.004907 
L 656.551621 356.915663 
L 662.502034 341.145038 
L 668.452447 324.097401 
L 674.40286 322.775743 
L 680.353274 310.702859 
L 686.303687 314.076825 
L 692.2541 318.704137 
L 698.204513 310.825388 
L 704.154926 317.026049 
L 710.10534 312.235025 
L 716.055753 309.698525 
L 722.006166 312.04891 
L 727.956579 299.936883 
L 733.906993 309.303078 
L 739.857406 315.273957 
L 745.807819 319.725729 
L 751.758232 296.778654 
L 757.708645 311.732885 
L 763.659059 311.883213 
L 769.609472 323.986435 
L 775.559885 331.96796 
L 781.510298 323.966806 
L 787.460712 323.700225 
L 793.411125 323.335574 
L 799.361538 323.843092 
L 805.311951 328.20153 
L 811.262364 321.079458 
L 817.212778 313.980963 
L 823.163191 302.861418 
L 829.113604 321.633537 
L 835.064017 321.075995 
L 841.014431 308.978759 
L 846.964844 306.987562 
L 852.915257 306.064571 
L 858.86567 302.612385 
L 864.816083 298.476554 
L 870.766497 311.552834 
L 876.71691 302.303524 
L 882.667323 312.746788 
L 888.617736 321.730498 
L 894.56815 325.674486 
L 900.518563 331.588622 
" style="fill:none;stroke:#ff0000;stroke-linecap:square;stroke-width:1.5;"/>
   </g>
   <g id="line2d_142">
    <path clip-path="url(#pc136ddbd6a)" d="M 531.592943 360.044945 
L 537.543356 369.780858 
L 543.493769 371.089799 
L 549.444183 371.841323 
L 555.394596 367.592442 
L 561.345009 297.885196 
L 567.295422 333.848133 
L 573.245835 427.267399 
L 579.196249 443.06608 
L 585.146662 442.484255 
L 591.097075 420.913682 
L 597.047488 432.779784 
L 602.997902 422.216865 
L 608.948315 426.497447 
L 614.898728 436.798415 
L 620.849141 420.183991 
L 626.799554 421.732236 
L 632.749968 415.757524 
L 638.700381 369.623272 
L 644.650794 326.42427 
L 650.601207 352.322 
L 656.551621 338.727014 
L 662.502034 323.137374 
L 668.452447 323.990975 
L 674.40286 319.096619 
L 680.353274 318.735231 
L 686.303687 330.398691 
L 692.2541 317.715581 
L 698.204513 321.607894 
L 704.154926 330.442745 
L 710.10534 332.700151 
L 716.055753 320.729521 
L 722.006166 322.486183 
L 727.956579 291.91429 
L 733.906993 311.711145 
L 739.857406 317.954735 
L 745.807819 316.128899 
L 751.758232 273.127414 
L 757.708645 305.58786 
L 763.659059 305.502995 
L 769.609472 300.105008 
L 775.559885 325.28179 
L 781.510298 325.891414 
L 787.460712 301.905681 
L 793.411125 309.432826 
L 799.361538 319.138705 
L 805.311951 314.533974 
L 811.262364 300.941658 
L 817.212778 289.185059 
L 823.163191 278.259029 
L 829.113604 307.452767 
L 835.064017 325.591019 
L 841.014431 311.913201 
L 846.964844 315.274156 
L 852.915257 326.367976 
L 858.86567 325.427187 
L 864.816083 325.41602 
L 870.766497 331.154038 
L 876.71691 325.667483 
L 882.667323 339.032526 
L 888.617736 337.11675 
L 894.56815 350.671891 
L 900.518563 366.853023 
" style="fill:none;stroke:#0000ff;stroke-dasharray:5.55,2.4;stroke-dashoffset:0;stroke-width:1.5;"/>
   </g>
   <g id="patch_21">
    <path d="M 513.146662 461.815017 
L 513.146662 264.14229 
" style="fill:none;stroke:#000000;stroke-linecap:square;stroke-linejoin:miter;stroke-width:0.8;"/>
   </g>
   <g id="patch_22">
    <path d="M 918.964844 461.815017 
L 918.964844 264.14229 
" style="fill:none;stroke:#000000;stroke-linecap:square;stroke-linejoin:miter;stroke-width:0.8;"/>
   </g>
   <g id="patch_23">
    <path d="M 513.146662 461.815017 
L 918.964844 461.815017 
" style="fill:none;stroke:#000000;stroke-linecap:square;stroke-linejoin:miter;stroke-width:0.8;"/>
   </g>
   <g id="patch_24">
    <path d="M 513.146662 264.14229 
L 918.964844 264.14229 
" style="fill:none;stroke:#000000;stroke-linecap:square;stroke-linejoin:miter;stroke-width:0.8;"/>
   </g>
   <g id="legend_4">
    <g id="patch_25">
     <path d="M 515.746662 260.188835 
L 916.364844 260.188835 
Q 918.964844 260.188835 918.964844 257.588835 
L 918.964844 239.807273 
Q 918.964844 237.207273 916.364844 237.207273 
L 515.746662 237.207273 
Q 513.146662 237.207273 513.146662 239.807273 
L 513.146662 257.588835 
Q 513.146662 260.188835 515.746662 260.188835 
z
" style="fill:#ffffff;opacity:0.8;stroke:#cccccc;stroke-linejoin:miter;"/>
    </g>
    <g id="line2d_143">
     <path d="M 518.346662 247.735241 
L 544.346662 247.735241 
" style="fill:none;stroke:#ff0000;stroke-linecap:square;stroke-width:1.5;"/>
    </g>
    <g id="line2d_144"/>
    <g id="text_46">
     <!-- negative (Emolex) -->
     <g transform="translate(554.746662 252.285241)scale(0.13 -0.13)">
      <use xlink:href="#DejaVuSans-6e"/>
      <use x="63.378906" xlink:href="#DejaVuSans-65"/>
      <use x="124.902344" xlink:href="#DejaVuSans-67"/>
      <use x="188.378906" xlink:href="#DejaVuSans-61"/>
      <use x="249.658203" xlink:href="#DejaVuSans-74"/>
      <use x="288.867188" xlink:href="#DejaVuSans-69"/>
      <use x="316.650391" xlink:href="#DejaVuSans-76"/>
      <use x="375.830078" xlink:href="#DejaVuSans-65"/>
      <use x="437.353516" xlink:href="#DejaVuSans-20"/>
      <use x="469.140625" xlink:href="#DejaVuSans-28"/>
      <use x="508.154297" xlink:href="#DejaVuSans-45"/>
      <use x="571.337891" xlink:href="#DejaVuSans-6d"/>
      <use x="668.75" xlink:href="#DejaVuSans-6f"/>
      <use x="729.931641" xlink:href="#DejaVuSans-6c"/>
      <use x="757.714844" xlink:href="#DejaVuSans-65"/>
      <use x="817.488281" xlink:href="#DejaVuSans-78"/>
      <use x="876.667969" xlink:href="#DejaVuSans-29"/>
     </g>
    </g>
    <g id="line2d_145">
     <path d="M 775.485469 247.735241 
L 801.485469 247.735241 
" style="fill:none;stroke:#0000ff;stroke-dasharray:5.55,2.4;stroke-dashoffset:0;stroke-width:1.5;"/>
    </g>
    <g id="line2d_146"/>
    <g id="text_47">
     <!-- Negemo (LIWC) -->
     <g transform="translate(811.885469 252.285241)scale(0.13 -0.13)">
      <defs>
       <path d="M 628 4666 
L 1478 4666 
L 3547 763 
L 3547 4666 
L 4159 4666 
L 4159 0 
L 3309 0 
L 1241 3903 
L 1241 0 
L 628 0 
L 628 4666 
z
" id="DejaVuSans-4e" transform="scale(0.015625)"/>
      </defs>
      <use xlink:href="#DejaVuSans-4e"/>
      <use x="74.804688" xlink:href="#DejaVuSans-65"/>
      <use x="136.328125" xlink:href="#DejaVuSans-67"/>
      <use x="199.804688" xlink:href="#DejaVuSans-65"/>
      <use x="261.328125" xlink:href="#DejaVuSans-6d"/>
      <use x="358.740234" xlink:href="#DejaVuSans-6f"/>
      <use x="419.921875" xlink:href="#DejaVuSans-20"/>
      <use x="451.708984" xlink:href="#DejaVuSans-28"/>
      <use x="490.722656" xlink:href="#DejaVuSans-4c"/>
      <use x="546.435547" xlink:href="#DejaVuSans-49"/>
      <use x="575.927734" xlink:href="#DejaVuSans-57"/>
      <use x="674.804688" xlink:href="#DejaVuSans-43"/>
      <use x="744.628906" xlink:href="#DejaVuSans-29"/>
     </g>
    </g>
   </g>
  </g>
 </g>
 <defs>
  <clipPath id="pf5cafd246a">
   <rect height="197.672727" width="405.818182" x="26.164844" y="26.935017"/>
  </clipPath>
  <clipPath id="p5a6bf3a437">
   <rect height="197.672727" width="405.818182" x="513.146662" y="26.935017"/>
  </clipPath>
  <clipPath id="p448dde0260">
   <rect height="197.672727" width="405.818182" x="26.164844" y="264.14229"/>
  </clipPath>
  <clipPath id="pc136ddbd6a">
   <rect height="197.672727" width="405.818182" x="513.146662" y="264.14229"/>
  </clipPath>
 </defs>
</svg>
