<?xml version="1.0" encoding="utf-8" standalone="no"?>
<!DOCTYPE svg PUBLIC "-//W3C//DTD SVG 1.1//EN"
  "http://www.w3.org/Graphics/SVG/1.1/DTD/svg11.dtd">
<svg height="530.694152pt" version="1.1" viewBox="0 0 925.410169 530.694152" width="925.410169pt" xmlns="http://www.w3.org/2000/svg" xmlns:xlink="http://www.w3.org/1999/xlink">
 <metadata>
  <rdf:RDF xmlns:cc="http://creativecommons.org/ns#" xmlns:dc="http://purl.org/dc/elements/1.1/" xmlns:rdf="http://www.w3.org/1999/02/22-rdf-syntax-ns#">
   <cc:Work>
    <dc:type rdf:resource="http://purl.org/dc/dcmitype/StillImage"/>
    <dc:date>2021-07-04T13:32:41.442821</dc:date>
    <dc:format>image/svg+xml</dc:format>
    <dc:creator>
     <cc:Agent>
      <dc:title>Matplotlib v3.4.1, https://matplotlib.org/</dc:title>
     </cc:Agent>
    </dc:creator>
   </cc:Work>
  </rdf:RDF>
 </metadata>
 <defs>
  <style type="text/css">*{stroke-linecap:butt;stroke-linejoin:round;}</style>
 </defs>
 <g id="figure_1">
  <g id="patch_1">
   <path d="M 0 530.694152 
L 925.410169 530.694152 
L 925.410169 0 
L 0 0 
z
" style="fill:none;"/>
  </g>
  <g id="axes_1">
   <g id="patch_2">
    <path d="M 26.164844 224.607744 
L 431.983026 224.607744 
L 431.983026 26.935017 
L 26.164844 26.935017 
z
" style="fill:#ffffff;"/>
   </g>
   <g id="matplotlib.axis_1">
    <g id="xtick_1">
     <g id="line2d_1">
      <path clip-path="url(#p576f4b82a8)" d="M 44.611125 224.607744 
L 44.611125 26.935017 
" style="fill:none;stroke:#b0b0b0;stroke-linecap:square;stroke-width:0.3;"/>
     </g>
     <g id="line2d_2">
      <defs>
       <path d="M 0 0 
L 0 3.5 
" id="m70b2d17351" style="stroke:#000000;stroke-width:0.8;"/>
      </defs>
      <g>
       <use style="stroke:#000000;stroke-width:0.8;" x="44.611125" xlink:href="#m70b2d17351" y="224.607744"/>
      </g>
     </g>
    </g>
    <g id="xtick_2">
     <g id="line2d_3">
      <path clip-path="url(#p576f4b82a8)" d="M 80.898891 224.607744 
L 80.898891 26.935017 
" style="fill:none;stroke:#b0b0b0;stroke-linecap:square;stroke-width:0.3;"/>
     </g>
     <g id="line2d_4">
      <g>
       <use style="stroke:#000000;stroke-width:0.8;" x="80.898891" xlink:href="#m70b2d17351" y="224.607744"/>
      </g>
     </g>
    </g>
    <g id="xtick_3">
     <g id="line2d_5">
      <path clip-path="url(#p576f4b82a8)" d="M 117.186657 224.607744 
L 117.186657 26.935017 
" style="fill:none;stroke:#b0b0b0;stroke-linecap:square;stroke-width:0.3;"/>
     </g>
     <g id="line2d_6">
      <g>
       <use style="stroke:#000000;stroke-width:0.8;" x="117.186657" xlink:href="#m70b2d17351" y="224.607744"/>
      </g>
     </g>
    </g>
    <g id="xtick_4">
     <g id="line2d_7">
      <path clip-path="url(#p576f4b82a8)" d="M 153.474422 224.607744 
L 153.474422 26.935017 
" style="fill:none;stroke:#b0b0b0;stroke-linecap:square;stroke-width:0.3;"/>
     </g>
     <g id="line2d_8">
      <g>
       <use style="stroke:#000000;stroke-width:0.8;" x="153.474422" xlink:href="#m70b2d17351" y="224.607744"/>
      </g>
     </g>
    </g>
    <g id="xtick_5">
     <g id="line2d_9">
      <path clip-path="url(#p576f4b82a8)" d="M 189.762188 224.607744 
L 189.762188 26.935017 
" style="fill:none;stroke:#b0b0b0;stroke-linecap:square;stroke-width:0.3;"/>
     </g>
     <g id="line2d_10">
      <g>
       <use style="stroke:#000000;stroke-width:0.8;" x="189.762188" xlink:href="#m70b2d17351" y="224.607744"/>
      </g>
     </g>
    </g>
    <g id="xtick_6">
     <g id="line2d_11">
      <path clip-path="url(#p576f4b82a8)" d="M 226.049954 224.607744 
L 226.049954 26.935017 
" style="fill:none;stroke:#b0b0b0;stroke-linecap:square;stroke-width:0.3;"/>
     </g>
     <g id="line2d_12">
      <g>
       <use style="stroke:#000000;stroke-width:0.8;" x="226.049954" xlink:href="#m70b2d17351" y="224.607744"/>
      </g>
     </g>
    </g>
    <g id="xtick_7">
     <g id="line2d_13">
      <path clip-path="url(#p576f4b82a8)" d="M 262.33772 224.607744 
L 262.33772 26.935017 
" style="fill:none;stroke:#b0b0b0;stroke-linecap:square;stroke-width:0.3;"/>
     </g>
     <g id="line2d_14">
      <g>
       <use style="stroke:#000000;stroke-width:0.8;" x="262.33772" xlink:href="#m70b2d17351" y="224.607744"/>
      </g>
     </g>
    </g>
    <g id="xtick_8">
     <g id="line2d_15">
      <path clip-path="url(#p576f4b82a8)" d="M 298.625486 224.607744 
L 298.625486 26.935017 
" style="fill:none;stroke:#b0b0b0;stroke-linecap:square;stroke-width:0.3;"/>
     </g>
     <g id="line2d_16">
      <g>
       <use style="stroke:#000000;stroke-width:0.8;" x="298.625486" xlink:href="#m70b2d17351" y="224.607744"/>
      </g>
     </g>
    </g>
    <g id="xtick_9">
     <g id="line2d_17">
      <path clip-path="url(#p576f4b82a8)" d="M 334.913252 224.607744 
L 334.913252 26.935017 
" style="fill:none;stroke:#b0b0b0;stroke-linecap:square;stroke-width:0.3;"/>
     </g>
     <g id="line2d_18">
      <g>
       <use style="stroke:#000000;stroke-width:0.8;" x="334.913252" xlink:href="#m70b2d17351" y="224.607744"/>
      </g>
     </g>
    </g>
    <g id="xtick_10">
     <g id="line2d_19">
      <path clip-path="url(#p576f4b82a8)" d="M 371.201018 224.607744 
L 371.201018 26.935017 
" style="fill:none;stroke:#b0b0b0;stroke-linecap:square;stroke-width:0.3;"/>
     </g>
     <g id="line2d_20">
      <g>
       <use style="stroke:#000000;stroke-width:0.8;" x="371.201018" xlink:href="#m70b2d17351" y="224.607744"/>
      </g>
     </g>
    </g>
    <g id="xtick_11">
     <g id="line2d_21">
      <path clip-path="url(#p576f4b82a8)" d="M 407.488784 224.607744 
L 407.488784 26.935017 
" style="fill:none;stroke:#b0b0b0;stroke-linecap:square;stroke-width:0.3;"/>
     </g>
     <g id="line2d_22">
      <g>
       <use style="stroke:#000000;stroke-width:0.8;" x="407.488784" xlink:href="#m70b2d17351" y="224.607744"/>
      </g>
     </g>
    </g>
   </g>
   <g id="matplotlib.axis_2">
    <g id="ytick_1">
     <g id="line2d_23">
      <path clip-path="url(#p576f4b82a8)" d="M 26.164844 223.433139 
L 431.983026 223.433139 
" style="fill:none;stroke:#b0b0b0;stroke-linecap:square;stroke-width:0.3;"/>
     </g>
     <g id="line2d_24">
      <defs>
       <path d="M 0 0 
L -3.5 0 
" id="mb57072a9ba" style="stroke:#000000;stroke-width:0.8;"/>
      </defs>
      <g>
       <use style="stroke:#000000;stroke-width:0.8;" x="26.164844" xlink:href="#mb57072a9ba" y="223.433139"/>
      </g>
     </g>
     <g id="text_1">
      <!-- −3 -->
      <g transform="translate(0 228.372124)scale(0.13 -0.13)">
       <defs>
        <path d="M 678 2272 
L 4684 2272 
L 4684 1741 
L 678 1741 
L 678 2272 
z
" id="DejaVuSans-2212" transform="scale(0.015625)"/>
        <path d="M 2597 2516 
Q 3050 2419 3304 2112 
Q 3559 1806 3559 1356 
Q 3559 666 3084 287 
Q 2609 -91 1734 -91 
Q 1441 -91 1130 -33 
Q 819 25 488 141 
L 488 750 
Q 750 597 1062 519 
Q 1375 441 1716 441 
Q 2309 441 2620 675 
Q 2931 909 2931 1356 
Q 2931 1769 2642 2001 
Q 2353 2234 1838 2234 
L 1294 2234 
L 1294 2753 
L 1863 2753 
Q 2328 2753 2575 2939 
Q 2822 3125 2822 3475 
Q 2822 3834 2567 4026 
Q 2313 4219 1838 4219 
Q 1578 4219 1281 4162 
Q 984 4106 628 3988 
L 628 4550 
Q 988 4650 1302 4700 
Q 1616 4750 1894 4750 
Q 2613 4750 3031 4423 
Q 3450 4097 3450 3541 
Q 3450 3153 3228 2886 
Q 3006 2619 2597 2516 
z
" id="DejaVuSans-33" transform="scale(0.015625)"/>
       </defs>
       <use xlink:href="#DejaVuSans-2212"/>
       <use x="83.789062" xlink:href="#DejaVuSans-33"/>
      </g>
     </g>
    </g>
    <g id="ytick_2">
     <g id="line2d_25">
      <path clip-path="url(#p576f4b82a8)" d="M 26.164844 185.455921 
L 431.983026 185.455921 
" style="fill:none;stroke:#b0b0b0;stroke-linecap:square;stroke-width:0.3;"/>
     </g>
     <g id="line2d_26">
      <g>
       <use style="stroke:#000000;stroke-width:0.8;" x="26.164844" xlink:href="#mb57072a9ba" y="185.455921"/>
      </g>
     </g>
     <g id="text_2">
      <!-- −2 -->
      <g transform="translate(0 190.394906)scale(0.13 -0.13)">
       <defs>
        <path d="M 1228 531 
L 3431 531 
L 3431 0 
L 469 0 
L 469 531 
Q 828 903 1448 1529 
Q 2069 2156 2228 2338 
Q 2531 2678 2651 2914 
Q 2772 3150 2772 3378 
Q 2772 3750 2511 3984 
Q 2250 4219 1831 4219 
Q 1534 4219 1204 4116 
Q 875 4013 500 3803 
L 500 4441 
Q 881 4594 1212 4672 
Q 1544 4750 1819 4750 
Q 2544 4750 2975 4387 
Q 3406 4025 3406 3419 
Q 3406 3131 3298 2873 
Q 3191 2616 2906 2266 
Q 2828 2175 2409 1742 
Q 1991 1309 1228 531 
z
" id="DejaVuSans-32" transform="scale(0.015625)"/>
       </defs>
       <use xlink:href="#DejaVuSans-2212"/>
       <use x="83.789062" xlink:href="#DejaVuSans-32"/>
      </g>
     </g>
    </g>
    <g id="ytick_3">
     <g id="line2d_27">
      <path clip-path="url(#p576f4b82a8)" d="M 26.164844 147.478703 
L 431.983026 147.478703 
" style="fill:none;stroke:#b0b0b0;stroke-linecap:square;stroke-width:0.3;"/>
     </g>
     <g id="line2d_28">
      <g>
       <use style="stroke:#000000;stroke-width:0.8;" x="26.164844" xlink:href="#mb57072a9ba" y="147.478703"/>
      </g>
     </g>
     <g id="text_3">
      <!-- −1 -->
      <g transform="translate(0 152.417688)scale(0.13 -0.13)">
       <defs>
        <path d="M 794 531 
L 1825 531 
L 1825 4091 
L 703 3866 
L 703 4441 
L 1819 4666 
L 2450 4666 
L 2450 531 
L 3481 531 
L 3481 0 
L 794 0 
L 794 531 
z
" id="DejaVuSans-31" transform="scale(0.015625)"/>
       </defs>
       <use xlink:href="#DejaVuSans-2212"/>
       <use x="83.789062" xlink:href="#DejaVuSans-31"/>
      </g>
     </g>
    </g>
    <g id="ytick_4">
     <g id="line2d_29">
      <path clip-path="url(#p576f4b82a8)" d="M 26.164844 109.501485 
L 431.983026 109.501485 
" style="fill:none;stroke:#b0b0b0;stroke-linecap:square;stroke-width:0.3;"/>
     </g>
     <g id="line2d_30">
      <g>
       <use style="stroke:#000000;stroke-width:0.8;" x="26.164844" xlink:href="#mb57072a9ba" y="109.501485"/>
      </g>
     </g>
     <g id="text_4">
      <!-- 0 -->
      <g transform="translate(10.893594 114.44047)scale(0.13 -0.13)">
       <defs>
        <path d="M 2034 4250 
Q 1547 4250 1301 3770 
Q 1056 3291 1056 2328 
Q 1056 1369 1301 889 
Q 1547 409 2034 409 
Q 2525 409 2770 889 
Q 3016 1369 3016 2328 
Q 3016 3291 2770 3770 
Q 2525 4250 2034 4250 
z
M 2034 4750 
Q 2819 4750 3233 4129 
Q 3647 3509 3647 2328 
Q 3647 1150 3233 529 
Q 2819 -91 2034 -91 
Q 1250 -91 836 529 
Q 422 1150 422 2328 
Q 422 3509 836 4129 
Q 1250 4750 2034 4750 
z
" id="DejaVuSans-30" transform="scale(0.015625)"/>
       </defs>
       <use xlink:href="#DejaVuSans-30"/>
      </g>
     </g>
    </g>
    <g id="ytick_5">
     <g id="line2d_31">
      <path clip-path="url(#p576f4b82a8)" d="M 26.164844 71.524267 
L 431.983026 71.524267 
" style="fill:none;stroke:#b0b0b0;stroke-linecap:square;stroke-width:0.3;"/>
     </g>
     <g id="line2d_32">
      <g>
       <use style="stroke:#000000;stroke-width:0.8;" x="26.164844" xlink:href="#mb57072a9ba" y="71.524267"/>
      </g>
     </g>
     <g id="text_5">
      <!-- 1 -->
      <g transform="translate(10.893594 76.463252)scale(0.13 -0.13)">
       <use xlink:href="#DejaVuSans-31"/>
      </g>
     </g>
    </g>
    <g id="ytick_6">
     <g id="line2d_33">
      <path clip-path="url(#p576f4b82a8)" d="M 26.164844 33.547049 
L 431.983026 33.547049 
" style="fill:none;stroke:#b0b0b0;stroke-linecap:square;stroke-width:0.3;"/>
     </g>
     <g id="line2d_34">
      <g>
       <use style="stroke:#000000;stroke-width:0.8;" x="26.164844" xlink:href="#mb57072a9ba" y="33.547049"/>
      </g>
     </g>
     <g id="text_6">
      <!-- 2 -->
      <g transform="translate(10.893594 38.486034)scale(0.13 -0.13)">
       <use xlink:href="#DejaVuSans-32"/>
      </g>
     </g>
    </g>
   </g>
   <g id="line2d_35">
    <path clip-path="url(#p576f4b82a8)" d="M 44.611125 190.719194 
L 50.659086 145.978843 
L 56.707047 135.562495 
L 62.755008 128.005344 
L 68.802969 198.465646 
L 74.85093 207.906993 
L 80.898891 215.62262 
L 86.946852 183.677007 
L 92.994813 157.53955 
L 99.042774 129.514969 
L 105.090735 120.939636 
L 111.138696 120.411779 
L 117.186657 129.940247 
L 123.234617 120.780641 
L 129.282578 132.031929 
L 135.330539 130.018305 
L 141.3785 135.842463 
L 147.426461 111.227888 
L 153.474422 86.757331 
L 159.522383 56.375162 
L 165.570344 48.405918 
L 171.618305 69.885901 
L 177.666266 90.30846 
L 183.714227 80.046138 
L 189.762188 97.22477 
L 195.810149 85.241808 
L 201.85811 70.850135 
L 207.906071 75.828846 
L 213.954032 81.727771 
L 220.001993 73.059329 
L 226.049954 80.717257 
L 232.097915 106.933418 
L 238.145876 86.015463 
L 244.193837 84.190516 
L 250.241798 96.554063 
L 256.289759 103.704712 
L 262.33772 101.691367 
L 268.385681 98.638407 
L 274.433642 97.375736 
L 280.481603 101.471708 
L 286.529564 102.495268 
L 292.577525 134.301211 
L 298.625486 137.801173 
L 304.673447 113.487738 
L 310.721408 151.58519 
L 316.769369 141.014114 
L 322.81733 126.245332 
L 328.865291 132.770964 
L 334.913252 119.327773 
L 340.961213 99.535137 
L 347.009174 86.349864 
L 353.057135 64.811136 
L 359.105096 35.920141 
L 365.153057 68.447026 
L 371.201018 65.643429 
L 377.248979 49.25438 
L 383.29694 92.406657 
L 389.344901 118.820814 
L 395.392862 104.949055 
L 401.440823 101.312077 
L 407.488784 63.698922 
L 413.536745 111.724932 
" style="fill:none;stroke:#ff0000;stroke-linecap:square;stroke-width:1.5;"/>
   </g>
   <g id="line2d_36">
    <path clip-path="url(#p576f4b82a8)" d="M 44.611125 184.555364 
L 50.659086 155.903261 
L 56.707047 169.342803 
L 62.755008 167.915684 
L 68.802969 190.318714 
L 74.85093 204.529562 
L 80.898891 198.965863 
L 86.946852 173.131924 
L 92.994813 160.956895 
L 99.042774 142.625746 
L 105.090735 131.486248 
L 111.138696 139.364658 
L 117.186657 136.919962 
L 123.234617 136.329658 
L 129.282578 140.557699 
L 135.330539 138.803218 
L 141.3785 126.685256 
L 147.426461 112.184088 
L 153.474422 75.547081 
L 159.522383 53.000466 
L 165.570344 54.749538 
L 171.618305 80.776152 
L 177.666266 86.052596 
L 183.714227 68.551971 
L 189.762188 82.305712 
L 195.810149 69.849568 
L 201.85811 62.793939 
L 207.906071 76.460429 
L 213.954032 78.22774 
L 220.001993 65.307401 
L 226.049954 83.773663 
L 232.097915 101.18274 
L 238.145876 74.633346 
L 244.193837 86.527368 
L 250.241798 92.293898 
L 256.289759 104.106695 
L 262.33772 105.32704 
L 268.385681 101.874029 
L 274.433642 101.532042 
L 280.481603 107.196374 
L 286.529564 103.789662 
L 292.577525 129.14318 
L 298.625486 131.641924 
L 304.673447 113.46522 
L 310.721408 138.655173 
L 316.769369 129.277715 
L 322.81733 113.547873 
L 328.865291 111.261276 
L 334.913252 97.087983 
L 340.961213 79.201241 
L 347.009174 86.352489 
L 353.057135 65.775679 
L 359.105096 43.938532 
L 365.153057 77.145435 
L 371.201018 71.889061 
L 377.248979 61.94383 
L 383.29694 93.964536 
L 389.344901 118.472398 
L 395.392862 99.765108 
L 401.440823 109.40848 
L 407.488784 74.020241 
L 413.536745 116.698672 
" style="fill:none;stroke:#0000ff;stroke-dasharray:5.55,2.4;stroke-dashoffset:0;stroke-width:1.5;"/>
   </g>
   <g id="patch_3">
    <path d="M 26.164844 224.607744 
L 26.164844 26.935017 
" style="fill:none;stroke:#000000;stroke-linecap:square;stroke-linejoin:miter;stroke-width:0.8;"/>
   </g>
   <g id="patch_4">
    <path d="M 431.983026 224.607744 
L 431.983026 26.935017 
" style="fill:none;stroke:#000000;stroke-linecap:square;stroke-linejoin:miter;stroke-width:0.8;"/>
   </g>
   <g id="patch_5">
    <path d="M 26.164844 224.607744 
L 431.983026 224.607744 
" style="fill:none;stroke:#000000;stroke-linecap:square;stroke-linejoin:miter;stroke-width:0.8;"/>
   </g>
   <g id="patch_6">
    <path d="M 26.164844 26.935017 
L 431.983026 26.935017 
" style="fill:none;stroke:#000000;stroke-linecap:square;stroke-linejoin:miter;stroke-width:0.8;"/>
   </g>
   <g id="legend_1">
    <g id="patch_7">
     <path d="M 28.764844 22.981562 
L 429.383026 22.981562 
Q 431.983026 22.981562 431.983026 20.381562 
L 431.983026 2.6 
Q 431.983026 0 429.383026 0 
L 28.764844 0 
Q 26.164844 0 26.164844 2.6 
L 26.164844 20.381562 
Q 26.164844 22.981562 28.764844 22.981562 
z
" style="fill:#ffffff;opacity:0.8;stroke:#cccccc;stroke-linejoin:miter;"/>
    </g>
    <g id="line2d_37">
     <path d="M 31.364844 10.527969 
L 57.364844 10.527969 
" style="fill:none;stroke:#ff0000;stroke-linecap:square;stroke-width:1.5;"/>
    </g>
    <g id="line2d_38"/>
    <g id="text_7">
     <!-- anger (Emolex) -->
     <g transform="translate(67.764844 15.077969)scale(0.13 -0.13)">
      <defs>
       <path d="M 2194 1759 
Q 1497 1759 1228 1600 
Q 959 1441 959 1056 
Q 959 750 1161 570 
Q 1363 391 1709 391 
Q 2188 391 2477 730 
Q 2766 1069 2766 1631 
L 2766 1759 
L 2194 1759 
z
M 3341 1997 
L 3341 0 
L 2766 0 
L 2766 531 
Q 2569 213 2275 61 
Q 1981 -91 1556 -91 
Q 1019 -91 701 211 
Q 384 513 384 1019 
Q 384 1609 779 1909 
Q 1175 2209 1959 2209 
L 2766 2209 
L 2766 2266 
Q 2766 2663 2505 2880 
Q 2244 3097 1772 3097 
Q 1472 3097 1187 3025 
Q 903 2953 641 2809 
L 641 3341 
Q 956 3463 1253 3523 
Q 1550 3584 1831 3584 
Q 2591 3584 2966 3190 
Q 3341 2797 3341 1997 
z
" id="DejaVuSans-61" transform="scale(0.015625)"/>
       <path d="M 3513 2113 
L 3513 0 
L 2938 0 
L 2938 2094 
Q 2938 2591 2744 2837 
Q 2550 3084 2163 3084 
Q 1697 3084 1428 2787 
Q 1159 2491 1159 1978 
L 1159 0 
L 581 0 
L 581 3500 
L 1159 3500 
L 1159 2956 
Q 1366 3272 1645 3428 
Q 1925 3584 2291 3584 
Q 2894 3584 3203 3211 
Q 3513 2838 3513 2113 
z
" id="DejaVuSans-6e" transform="scale(0.015625)"/>
       <path d="M 2906 1791 
Q 2906 2416 2648 2759 
Q 2391 3103 1925 3103 
Q 1463 3103 1205 2759 
Q 947 2416 947 1791 
Q 947 1169 1205 825 
Q 1463 481 1925 481 
Q 2391 481 2648 825 
Q 2906 1169 2906 1791 
z
M 3481 434 
Q 3481 -459 3084 -895 
Q 2688 -1331 1869 -1331 
Q 1566 -1331 1297 -1286 
Q 1028 -1241 775 -1147 
L 775 -588 
Q 1028 -725 1275 -790 
Q 1522 -856 1778 -856 
Q 2344 -856 2625 -561 
Q 2906 -266 2906 331 
L 2906 616 
Q 2728 306 2450 153 
Q 2172 0 1784 0 
Q 1141 0 747 490 
Q 353 981 353 1791 
Q 353 2603 747 3093 
Q 1141 3584 1784 3584 
Q 2172 3584 2450 3431 
Q 2728 3278 2906 2969 
L 2906 3500 
L 3481 3500 
L 3481 434 
z
" id="DejaVuSans-67" transform="scale(0.015625)"/>
       <path d="M 3597 1894 
L 3597 1613 
L 953 1613 
Q 991 1019 1311 708 
Q 1631 397 2203 397 
Q 2534 397 2845 478 
Q 3156 559 3463 722 
L 3463 178 
Q 3153 47 2828 -22 
Q 2503 -91 2169 -91 
Q 1331 -91 842 396 
Q 353 884 353 1716 
Q 353 2575 817 3079 
Q 1281 3584 2069 3584 
Q 2775 3584 3186 3129 
Q 3597 2675 3597 1894 
z
M 3022 2063 
Q 3016 2534 2758 2815 
Q 2500 3097 2075 3097 
Q 1594 3097 1305 2825 
Q 1016 2553 972 2059 
L 3022 2063 
z
" id="DejaVuSans-65" transform="scale(0.015625)"/>
       <path d="M 2631 2963 
Q 2534 3019 2420 3045 
Q 2306 3072 2169 3072 
Q 1681 3072 1420 2755 
Q 1159 2438 1159 1844 
L 1159 0 
L 581 0 
L 581 3500 
L 1159 3500 
L 1159 2956 
Q 1341 3275 1631 3429 
Q 1922 3584 2338 3584 
Q 2397 3584 2469 3576 
Q 2541 3569 2628 3553 
L 2631 2963 
z
" id="DejaVuSans-72" transform="scale(0.015625)"/>
       <path id="DejaVuSans-20" transform="scale(0.015625)"/>
       <path d="M 1984 4856 
Q 1566 4138 1362 3434 
Q 1159 2731 1159 2009 
Q 1159 1288 1364 580 
Q 1569 -128 1984 -844 
L 1484 -844 
Q 1016 -109 783 600 
Q 550 1309 550 2009 
Q 550 2706 781 3412 
Q 1013 4119 1484 4856 
L 1984 4856 
z
" id="DejaVuSans-28" transform="scale(0.015625)"/>
       <path d="M 628 4666 
L 3578 4666 
L 3578 4134 
L 1259 4134 
L 1259 2753 
L 3481 2753 
L 3481 2222 
L 1259 2222 
L 1259 531 
L 3634 531 
L 3634 0 
L 628 0 
L 628 4666 
z
" id="DejaVuSans-45" transform="scale(0.015625)"/>
       <path d="M 3328 2828 
Q 3544 3216 3844 3400 
Q 4144 3584 4550 3584 
Q 5097 3584 5394 3201 
Q 5691 2819 5691 2113 
L 5691 0 
L 5113 0 
L 5113 2094 
Q 5113 2597 4934 2840 
Q 4756 3084 4391 3084 
Q 3944 3084 3684 2787 
Q 3425 2491 3425 1978 
L 3425 0 
L 2847 0 
L 2847 2094 
Q 2847 2600 2669 2842 
Q 2491 3084 2119 3084 
Q 1678 3084 1418 2786 
Q 1159 2488 1159 1978 
L 1159 0 
L 581 0 
L 581 3500 
L 1159 3500 
L 1159 2956 
Q 1356 3278 1631 3431 
Q 1906 3584 2284 3584 
Q 2666 3584 2933 3390 
Q 3200 3197 3328 2828 
z
" id="DejaVuSans-6d" transform="scale(0.015625)"/>
       <path d="M 1959 3097 
Q 1497 3097 1228 2736 
Q 959 2375 959 1747 
Q 959 1119 1226 758 
Q 1494 397 1959 397 
Q 2419 397 2687 759 
Q 2956 1122 2956 1747 
Q 2956 2369 2687 2733 
Q 2419 3097 1959 3097 
z
M 1959 3584 
Q 2709 3584 3137 3096 
Q 3566 2609 3566 1747 
Q 3566 888 3137 398 
Q 2709 -91 1959 -91 
Q 1206 -91 779 398 
Q 353 888 353 1747 
Q 353 2609 779 3096 
Q 1206 3584 1959 3584 
z
" id="DejaVuSans-6f" transform="scale(0.015625)"/>
       <path d="M 603 4863 
L 1178 4863 
L 1178 0 
L 603 0 
L 603 4863 
z
" id="DejaVuSans-6c" transform="scale(0.015625)"/>
       <path d="M 3513 3500 
L 2247 1797 
L 3578 0 
L 2900 0 
L 1881 1375 
L 863 0 
L 184 0 
L 1544 1831 
L 300 3500 
L 978 3500 
L 1906 2253 
L 2834 3500 
L 3513 3500 
z
" id="DejaVuSans-78" transform="scale(0.015625)"/>
       <path d="M 513 4856 
L 1013 4856 
Q 1481 4119 1714 3412 
Q 1947 2706 1947 2009 
Q 1947 1309 1714 600 
Q 1481 -109 1013 -844 
L 513 -844 
Q 928 -128 1133 580 
Q 1338 1288 1338 2009 
Q 1338 2731 1133 3434 
Q 928 4138 513 4856 
z
" id="DejaVuSans-29" transform="scale(0.015625)"/>
      </defs>
      <use xlink:href="#DejaVuSans-61"/>
      <use x="61.279297" xlink:href="#DejaVuSans-6e"/>
      <use x="124.658203" xlink:href="#DejaVuSans-67"/>
      <use x="188.134766" xlink:href="#DejaVuSans-65"/>
      <use x="249.658203" xlink:href="#DejaVuSans-72"/>
      <use x="290.771484" xlink:href="#DejaVuSans-20"/>
      <use x="322.558594" xlink:href="#DejaVuSans-28"/>
      <use x="361.572266" xlink:href="#DejaVuSans-45"/>
      <use x="424.755859" xlink:href="#DejaVuSans-6d"/>
      <use x="522.167969" xlink:href="#DejaVuSans-6f"/>
      <use x="583.349609" xlink:href="#DejaVuSans-6c"/>
      <use x="611.132812" xlink:href="#DejaVuSans-65"/>
      <use x="670.90625" xlink:href="#DejaVuSans-78"/>
      <use x="730.085938" xlink:href="#DejaVuSans-29"/>
     </g>
    </g>
    <g id="line2d_39">
     <path d="M 297.894119 10.527969 
L 323.894119 10.527969 
" style="fill:none;stroke:#0000ff;stroke-dasharray:5.55,2.4;stroke-dashoffset:0;stroke-width:1.5;"/>
    </g>
    <g id="line2d_40"/>
    <g id="text_8">
     <!-- Enfado (LIWC) -->
     <g transform="translate(334.294119 15.077969)scale(0.13 -0.13)">
      <defs>
       <path d="M 2375 4863 
L 2375 4384 
L 1825 4384 
Q 1516 4384 1395 4259 
Q 1275 4134 1275 3809 
L 1275 3500 
L 2222 3500 
L 2222 3053 
L 1275 3053 
L 1275 0 
L 697 0 
L 697 3053 
L 147 3053 
L 147 3500 
L 697 3500 
L 697 3744 
Q 697 4328 969 4595 
Q 1241 4863 1831 4863 
L 2375 4863 
z
" id="DejaVuSans-66" transform="scale(0.015625)"/>
       <path d="M 2906 2969 
L 2906 4863 
L 3481 4863 
L 3481 0 
L 2906 0 
L 2906 525 
Q 2725 213 2448 61 
Q 2172 -91 1784 -91 
Q 1150 -91 751 415 
Q 353 922 353 1747 
Q 353 2572 751 3078 
Q 1150 3584 1784 3584 
Q 2172 3584 2448 3432 
Q 2725 3281 2906 2969 
z
M 947 1747 
Q 947 1113 1208 752 
Q 1469 391 1925 391 
Q 2381 391 2643 752 
Q 2906 1113 2906 1747 
Q 2906 2381 2643 2742 
Q 2381 3103 1925 3103 
Q 1469 3103 1208 2742 
Q 947 2381 947 1747 
z
" id="DejaVuSans-64" transform="scale(0.015625)"/>
       <path d="M 628 4666 
L 1259 4666 
L 1259 531 
L 3531 531 
L 3531 0 
L 628 0 
L 628 4666 
z
" id="DejaVuSans-4c" transform="scale(0.015625)"/>
       <path d="M 628 4666 
L 1259 4666 
L 1259 0 
L 628 0 
L 628 4666 
z
" id="DejaVuSans-49" transform="scale(0.015625)"/>
       <path d="M 213 4666 
L 850 4666 
L 1831 722 
L 2809 4666 
L 3519 4666 
L 4500 722 
L 5478 4666 
L 6119 4666 
L 4947 0 
L 4153 0 
L 3169 4050 
L 2175 0 
L 1381 0 
L 213 4666 
z
" id="DejaVuSans-57" transform="scale(0.015625)"/>
       <path d="M 4122 4306 
L 4122 3641 
Q 3803 3938 3442 4084 
Q 3081 4231 2675 4231 
Q 1875 4231 1450 3742 
Q 1025 3253 1025 2328 
Q 1025 1406 1450 917 
Q 1875 428 2675 428 
Q 3081 428 3442 575 
Q 3803 722 4122 1019 
L 4122 359 
Q 3791 134 3420 21 
Q 3050 -91 2638 -91 
Q 1578 -91 968 557 
Q 359 1206 359 2328 
Q 359 3453 968 4101 
Q 1578 4750 2638 4750 
Q 3056 4750 3426 4639 
Q 3797 4528 4122 4306 
z
" id="DejaVuSans-43" transform="scale(0.015625)"/>
      </defs>
      <use xlink:href="#DejaVuSans-45"/>
      <use x="63.183594" xlink:href="#DejaVuSans-6e"/>
      <use x="126.5625" xlink:href="#DejaVuSans-66"/>
      <use x="161.767578" xlink:href="#DejaVuSans-61"/>
      <use x="223.046875" xlink:href="#DejaVuSans-64"/>
      <use x="286.523438" xlink:href="#DejaVuSans-6f"/>
      <use x="347.705078" xlink:href="#DejaVuSans-20"/>
      <use x="379.492188" xlink:href="#DejaVuSans-28"/>
      <use x="418.505859" xlink:href="#DejaVuSans-4c"/>
      <use x="474.21875" xlink:href="#DejaVuSans-49"/>
      <use x="503.710938" xlink:href="#DejaVuSans-57"/>
      <use x="602.587891" xlink:href="#DejaVuSans-43"/>
      <use x="672.412109" xlink:href="#DejaVuSans-29"/>
     </g>
    </g>
   </g>
  </g>
  <g id="axes_2">
   <g id="patch_8">
    <path d="M 513.146662 224.607744 
L 918.964844 224.607744 
L 918.964844 26.935017 
L 513.146662 26.935017 
z
" style="fill:#ffffff;"/>
   </g>
   <g id="matplotlib.axis_3">
    <g id="xtick_12">
     <g id="line2d_41">
      <path clip-path="url(#p3d662aae65)" d="M 531.592943 224.607744 
L 531.592943 26.935017 
" style="fill:none;stroke:#b0b0b0;stroke-linecap:square;stroke-width:0.3;"/>
     </g>
     <g id="line2d_42">
      <g>
       <use style="stroke:#000000;stroke-width:0.8;" x="531.592943" xlink:href="#m70b2d17351" y="224.607744"/>
      </g>
     </g>
    </g>
    <g id="xtick_13">
     <g id="line2d_43">
      <path clip-path="url(#p3d662aae65)" d="M 567.880709 224.607744 
L 567.880709 26.935017 
" style="fill:none;stroke:#b0b0b0;stroke-linecap:square;stroke-width:0.3;"/>
     </g>
     <g id="line2d_44">
      <g>
       <use style="stroke:#000000;stroke-width:0.8;" x="567.880709" xlink:href="#m70b2d17351" y="224.607744"/>
      </g>
     </g>
    </g>
    <g id="xtick_14">
     <g id="line2d_45">
      <path clip-path="url(#p3d662aae65)" d="M 604.168475 224.607744 
L 604.168475 26.935017 
" style="fill:none;stroke:#b0b0b0;stroke-linecap:square;stroke-width:0.3;"/>
     </g>
     <g id="line2d_46">
      <g>
       <use style="stroke:#000000;stroke-width:0.8;" x="604.168475" xlink:href="#m70b2d17351" y="224.607744"/>
      </g>
     </g>
    </g>
    <g id="xtick_15">
     <g id="line2d_47">
      <path clip-path="url(#p3d662aae65)" d="M 640.456241 224.607744 
L 640.456241 26.935017 
" style="fill:none;stroke:#b0b0b0;stroke-linecap:square;stroke-width:0.3;"/>
     </g>
     <g id="line2d_48">
      <g>
       <use style="stroke:#000000;stroke-width:0.8;" x="640.456241" xlink:href="#m70b2d17351" y="224.607744"/>
      </g>
     </g>
    </g>
    <g id="xtick_16">
     <g id="line2d_49">
      <path clip-path="url(#p3d662aae65)" d="M 676.744006 224.607744 
L 676.744006 26.935017 
" style="fill:none;stroke:#b0b0b0;stroke-linecap:square;stroke-width:0.3;"/>
     </g>
     <g id="line2d_50">
      <g>
       <use style="stroke:#000000;stroke-width:0.8;" x="676.744006" xlink:href="#m70b2d17351" y="224.607744"/>
      </g>
     </g>
    </g>
    <g id="xtick_17">
     <g id="line2d_51">
      <path clip-path="url(#p3d662aae65)" d="M 713.031772 224.607744 
L 713.031772 26.935017 
" style="fill:none;stroke:#b0b0b0;stroke-linecap:square;stroke-width:0.3;"/>
     </g>
     <g id="line2d_52">
      <g>
       <use style="stroke:#000000;stroke-width:0.8;" x="713.031772" xlink:href="#m70b2d17351" y="224.607744"/>
      </g>
     </g>
    </g>
    <g id="xtick_18">
     <g id="line2d_53">
      <path clip-path="url(#p3d662aae65)" d="M 749.319538 224.607744 
L 749.319538 26.935017 
" style="fill:none;stroke:#b0b0b0;stroke-linecap:square;stroke-width:0.3;"/>
     </g>
     <g id="line2d_54">
      <g>
       <use style="stroke:#000000;stroke-width:0.8;" x="749.319538" xlink:href="#m70b2d17351" y="224.607744"/>
      </g>
     </g>
    </g>
    <g id="xtick_19">
     <g id="line2d_55">
      <path clip-path="url(#p3d662aae65)" d="M 785.607304 224.607744 
L 785.607304 26.935017 
" style="fill:none;stroke:#b0b0b0;stroke-linecap:square;stroke-width:0.3;"/>
     </g>
     <g id="line2d_56">
      <g>
       <use style="stroke:#000000;stroke-width:0.8;" x="785.607304" xlink:href="#m70b2d17351" y="224.607744"/>
      </g>
     </g>
    </g>
    <g id="xtick_20">
     <g id="line2d_57">
      <path clip-path="url(#p3d662aae65)" d="M 821.89507 224.607744 
L 821.89507 26.935017 
" style="fill:none;stroke:#b0b0b0;stroke-linecap:square;stroke-width:0.3;"/>
     </g>
     <g id="line2d_58">
      <g>
       <use style="stroke:#000000;stroke-width:0.8;" x="821.89507" xlink:href="#m70b2d17351" y="224.607744"/>
      </g>
     </g>
    </g>
    <g id="xtick_21">
     <g id="line2d_59">
      <path clip-path="url(#p3d662aae65)" d="M 858.182836 224.607744 
L 858.182836 26.935017 
" style="fill:none;stroke:#b0b0b0;stroke-linecap:square;stroke-width:0.3;"/>
     </g>
     <g id="line2d_60">
      <g>
       <use style="stroke:#000000;stroke-width:0.8;" x="858.182836" xlink:href="#m70b2d17351" y="224.607744"/>
      </g>
     </g>
    </g>
    <g id="xtick_22">
     <g id="line2d_61">
      <path clip-path="url(#p3d662aae65)" d="M 894.470602 224.607744 
L 894.470602 26.935017 
" style="fill:none;stroke:#b0b0b0;stroke-linecap:square;stroke-width:0.3;"/>
     </g>
     <g id="line2d_62">
      <g>
       <use style="stroke:#000000;stroke-width:0.8;" x="894.470602" xlink:href="#m70b2d17351" y="224.607744"/>
      </g>
     </g>
    </g>
   </g>
   <g id="matplotlib.axis_4">
    <g id="ytick_7">
     <g id="line2d_63">
      <path clip-path="url(#p3d662aae65)" d="M 513.146662 218.601373 
L 918.964844 218.601373 
" style="fill:none;stroke:#b0b0b0;stroke-linecap:square;stroke-width:0.3;"/>
     </g>
     <g id="line2d_64">
      <g>
       <use style="stroke:#000000;stroke-width:0.8;" x="513.146662" xlink:href="#mb57072a9ba" y="218.601373"/>
      </g>
     </g>
     <g id="text_9">
      <!-- −3 -->
      <g transform="translate(486.981818 223.540357)scale(0.13 -0.13)">
       <use xlink:href="#DejaVuSans-2212"/>
       <use x="83.789062" xlink:href="#DejaVuSans-33"/>
      </g>
     </g>
    </g>
    <g id="ytick_8">
     <g id="line2d_65">
      <path clip-path="url(#p3d662aae65)" d="M 513.146662 179.314121 
L 918.964844 179.314121 
" style="fill:none;stroke:#b0b0b0;stroke-linecap:square;stroke-width:0.3;"/>
     </g>
     <g id="line2d_66">
      <g>
       <use style="stroke:#000000;stroke-width:0.8;" x="513.146662" xlink:href="#mb57072a9ba" y="179.314121"/>
      </g>
     </g>
     <g id="text_10">
      <!-- −2 -->
      <g transform="translate(486.981818 184.253105)scale(0.13 -0.13)">
       <use xlink:href="#DejaVuSans-2212"/>
       <use x="83.789062" xlink:href="#DejaVuSans-32"/>
      </g>
     </g>
    </g>
    <g id="ytick_9">
     <g id="line2d_67">
      <path clip-path="url(#p3d662aae65)" d="M 513.146662 140.02687 
L 918.964844 140.02687 
" style="fill:none;stroke:#b0b0b0;stroke-linecap:square;stroke-width:0.3;"/>
     </g>
     <g id="line2d_68">
      <g>
       <use style="stroke:#000000;stroke-width:0.8;" x="513.146662" xlink:href="#mb57072a9ba" y="140.02687"/>
      </g>
     </g>
     <g id="text_11">
      <!-- −1 -->
      <g transform="translate(486.981818 144.965854)scale(0.13 -0.13)">
       <use xlink:href="#DejaVuSans-2212"/>
       <use x="83.789062" xlink:href="#DejaVuSans-31"/>
      </g>
     </g>
    </g>
    <g id="ytick_10">
     <g id="line2d_69">
      <path clip-path="url(#p3d662aae65)" d="M 513.146662 100.739618 
L 918.964844 100.739618 
" style="fill:none;stroke:#b0b0b0;stroke-linecap:square;stroke-width:0.3;"/>
     </g>
     <g id="line2d_70">
      <g>
       <use style="stroke:#000000;stroke-width:0.8;" x="513.146662" xlink:href="#mb57072a9ba" y="100.739618"/>
      </g>
     </g>
     <g id="text_12">
      <!-- 0 -->
      <g transform="translate(497.875412 105.678603)scale(0.13 -0.13)">
       <use xlink:href="#DejaVuSans-30"/>
      </g>
     </g>
    </g>
    <g id="ytick_11">
     <g id="line2d_71">
      <path clip-path="url(#p3d662aae65)" d="M 513.146662 61.452367 
L 918.964844 61.452367 
" style="fill:none;stroke:#b0b0b0;stroke-linecap:square;stroke-width:0.3;"/>
     </g>
     <g id="line2d_72">
      <g>
       <use style="stroke:#000000;stroke-width:0.8;" x="513.146662" xlink:href="#mb57072a9ba" y="61.452367"/>
      </g>
     </g>
     <g id="text_13">
      <!-- 1 -->
      <g transform="translate(497.875412 66.391351)scale(0.13 -0.13)">
       <use xlink:href="#DejaVuSans-31"/>
      </g>
     </g>
    </g>
   </g>
   <g id="line2d_73">
    <path clip-path="url(#p3d662aae65)" d="M 531.592943 179.625364 
L 537.640904 159.196332 
L 543.688865 184.158437 
L 549.736826 188.473957 
L 555.784787 169.780667 
L 561.832748 188.070799 
L 567.880709 201.964748 
L 573.92867 183.823439 
L 579.976631 150.616333 
L 586.024592 128.344307 
L 592.072553 116.297985 
L 598.120514 107.116738 
L 604.168475 113.356316 
L 610.216436 106.427001 
L 616.264397 115.316217 
L 622.312358 110.840094 
L 628.360319 104.246704 
L 634.40828 82.03577 
L 640.456241 78.004139 
L 646.504202 45.389452 
L 652.552163 41.842274 
L 658.600124 53.83918 
L 664.648085 70.454472 
L 670.696045 72.013813 
L 676.744006 79.239181 
L 682.791967 67.451684 
L 688.839928 57.335409 
L 694.887889 67.02552 
L 700.93585 77.657413 
L 706.983811 62.151108 
L 713.031772 67.657968 
L 719.079733 93.085029 
L 725.127694 81.901276 
L 731.175655 82.530837 
L 737.223616 100.515966 
L 743.271577 102.673583 
L 749.319538 89.031393 
L 755.367499 93.773927 
L 761.41546 99.79615 
L 767.463421 106.359398 
L 773.511382 99.029296 
L 779.559343 126.822191 
L 785.607304 123.316649 
L 791.655265 107.307556 
L 797.703226 125.871459 
L 803.751187 116.07175 
L 809.799148 108.10041 
L 815.847109 117.48804 
L 821.89507 100.880856 
L 827.943031 78.555334 
L 833.990992 66.627029 
L 840.038953 48.71244 
L 846.086914 36.542836 
L 852.134875 49.55446 
L 858.182836 66.065184 
L 864.230797 61.801319 
L 870.278758 89.166894 
L 876.326719 99.617671 
L 882.37468 88.977432 
L 888.422641 88.927187 
L 894.470602 67.315528 
L 900.518563 99.684432 
" style="fill:none;stroke:#ff0000;stroke-linecap:square;stroke-width:1.5;"/>
   </g>
   <g id="line2d_74">
    <path clip-path="url(#p3d662aae65)" d="M 531.592943 196.163781 
L 537.640904 158.795198 
L 543.688865 150.157363 
L 549.736826 163.735004 
L 555.784787 209.330464 
L 561.832748 204.405612 
L 567.880709 215.62262 
L 573.92867 182.659689 
L 579.976631 142.540704 
L 586.024592 124.546894 
L 592.072553 108.132326 
L 598.120514 113.532331 
L 604.168475 124.948721 
L 610.216436 115.101079 
L 616.264397 112.345192 
L 622.312358 111.378155 
L 628.360319 105.991859 
L 634.40828 77.013695 
L 640.456241 59.434902 
L 646.504202 58.243257 
L 652.552163 59.951378 
L 658.600124 67.395408 
L 664.648085 82.584507 
L 670.696045 79.467432 
L 676.744006 80.772782 
L 682.791967 71.091416 
L 688.839928 58.025429 
L 694.887889 60.933216 
L 700.93585 64.205515 
L 706.983811 58.81321 
L 713.031772 69.737395 
L 719.079733 89.486033 
L 725.127694 76.786635 
L 731.175655 79.839506 
L 737.223616 81.551861 
L 743.271577 89.636034 
L 749.319538 90.726883 
L 755.367499 95.031548 
L 761.41546 108.645217 
L 767.463421 98.488163 
L 773.511382 90.847142 
L 779.559343 115.354825 
L 785.607304 92.922721 
L 791.655265 78.610119 
L 797.703226 120.366377 
L 803.751187 106.612401 
L 809.799148 103.67667 
L 815.847109 116.474956 
L 821.89507 99.313868 
L 827.943031 96.243689 
L 833.990992 88.607878 
L 840.038953 65.632459 
L 846.086914 35.920141 
L 852.134875 72.231207 
L 858.182836 73.16015 
L 864.230797 78.729315 
L 870.278758 82.649571 
L 876.326719 106.157864 
L 882.37468 99.893597 
L 888.422641 90.769567 
L 894.470602 49.108866 
L 900.518563 85.32453 
" style="fill:none;stroke:#0000ff;stroke-dasharray:5.55,2.4;stroke-dashoffset:0;stroke-width:1.5;"/>
   </g>
   <g id="patch_9">
    <path d="M 513.146662 224.607744 
L 513.146662 26.935017 
" style="fill:none;stroke:#000000;stroke-linecap:square;stroke-linejoin:miter;stroke-width:0.8;"/>
   </g>
   <g id="patch_10">
    <path d="M 918.964844 224.607744 
L 918.964844 26.935017 
" style="fill:none;stroke:#000000;stroke-linecap:square;stroke-linejoin:miter;stroke-width:0.8;"/>
   </g>
   <g id="patch_11">
    <path d="M 513.146662 224.607744 
L 918.964844 224.607744 
" style="fill:none;stroke:#000000;stroke-linecap:square;stroke-linejoin:miter;stroke-width:0.8;"/>
   </g>
   <g id="patch_12">
    <path d="M 513.146662 26.935017 
L 918.964844 26.935017 
" style="fill:none;stroke:#000000;stroke-linecap:square;stroke-linejoin:miter;stroke-width:0.8;"/>
   </g>
   <g id="legend_2">
    <g id="patch_13">
     <path d="M 515.746662 22.981562 
L 916.364844 22.981562 
Q 918.964844 22.981562 918.964844 20.381562 
L 918.964844 2.6 
Q 918.964844 0 916.364844 0 
L 515.746662 0 
Q 513.146662 0 513.146662 2.6 
L 513.146662 20.381562 
Q 513.146662 22.981562 515.746662 22.981562 
z
" style="fill:#ffffff;opacity:0.8;stroke:#cccccc;stroke-linejoin:miter;"/>
    </g>
    <g id="line2d_75">
     <path d="M 518.346662 10.527969 
L 544.346662 10.527969 
" style="fill:none;stroke:#ff0000;stroke-linecap:square;stroke-width:1.5;"/>
    </g>
    <g id="line2d_76"/>
    <g id="text_14">
     <!-- sadness (Emolex) -->
     <g transform="translate(554.746662 15.077969)scale(0.13 -0.13)">
      <defs>
       <path d="M 2834 3397 
L 2834 2853 
Q 2591 2978 2328 3040 
Q 2066 3103 1784 3103 
Q 1356 3103 1142 2972 
Q 928 2841 928 2578 
Q 928 2378 1081 2264 
Q 1234 2150 1697 2047 
L 1894 2003 
Q 2506 1872 2764 1633 
Q 3022 1394 3022 966 
Q 3022 478 2636 193 
Q 2250 -91 1575 -91 
Q 1294 -91 989 -36 
Q 684 19 347 128 
L 347 722 
Q 666 556 975 473 
Q 1284 391 1588 391 
Q 1994 391 2212 530 
Q 2431 669 2431 922 
Q 2431 1156 2273 1281 
Q 2116 1406 1581 1522 
L 1381 1569 
Q 847 1681 609 1914 
Q 372 2147 372 2553 
Q 372 3047 722 3315 
Q 1072 3584 1716 3584 
Q 2034 3584 2315 3537 
Q 2597 3491 2834 3397 
z
" id="DejaVuSans-73" transform="scale(0.015625)"/>
      </defs>
      <use xlink:href="#DejaVuSans-73"/>
      <use x="52.099609" xlink:href="#DejaVuSans-61"/>
      <use x="113.378906" xlink:href="#DejaVuSans-64"/>
      <use x="176.855469" xlink:href="#DejaVuSans-6e"/>
      <use x="240.234375" xlink:href="#DejaVuSans-65"/>
      <use x="301.757812" xlink:href="#DejaVuSans-73"/>
      <use x="353.857422" xlink:href="#DejaVuSans-73"/>
      <use x="405.957031" xlink:href="#DejaVuSans-20"/>
      <use x="437.744141" xlink:href="#DejaVuSans-28"/>
      <use x="476.757812" xlink:href="#DejaVuSans-45"/>
      <use x="539.941406" xlink:href="#DejaVuSans-6d"/>
      <use x="637.353516" xlink:href="#DejaVuSans-6f"/>
      <use x="698.535156" xlink:href="#DejaVuSans-6c"/>
      <use x="726.318359" xlink:href="#DejaVuSans-65"/>
      <use x="786.091797" xlink:href="#DejaVuSans-78"/>
      <use x="845.271484" xlink:href="#DejaVuSans-29"/>
     </g>
    </g>
    <g id="line2d_77">
     <path d="M 795.233281 10.527969 
L 821.233281 10.527969 
" style="fill:none;stroke:#0000ff;stroke-dasharray:5.55,2.4;stroke-dashoffset:0;stroke-width:1.5;"/>
    </g>
    <g id="line2d_78"/>
    <g id="text_15">
     <!-- Triste (LIWC) -->
     <g transform="translate(831.633281 15.077969)scale(0.13 -0.13)">
      <defs>
       <path d="M -19 4666 
L 3928 4666 
L 3928 4134 
L 2272 4134 
L 2272 0 
L 1638 0 
L 1638 4134 
L -19 4134 
L -19 4666 
z
" id="DejaVuSans-54" transform="scale(0.015625)"/>
       <path d="M 603 3500 
L 1178 3500 
L 1178 0 
L 603 0 
L 603 3500 
z
M 603 4863 
L 1178 4863 
L 1178 4134 
L 603 4134 
L 603 4863 
z
" id="DejaVuSans-69" transform="scale(0.015625)"/>
       <path d="M 1172 4494 
L 1172 3500 
L 2356 3500 
L 2356 3053 
L 1172 3053 
L 1172 1153 
Q 1172 725 1289 603 
Q 1406 481 1766 481 
L 2356 481 
L 2356 0 
L 1766 0 
Q 1100 0 847 248 
Q 594 497 594 1153 
L 594 3053 
L 172 3053 
L 172 3500 
L 594 3500 
L 594 4494 
L 1172 4494 
z
" id="DejaVuSans-74" transform="scale(0.015625)"/>
      </defs>
      <use xlink:href="#DejaVuSans-54"/>
      <use x="46.333984" xlink:href="#DejaVuSans-72"/>
      <use x="87.447266" xlink:href="#DejaVuSans-69"/>
      <use x="115.230469" xlink:href="#DejaVuSans-73"/>
      <use x="167.330078" xlink:href="#DejaVuSans-74"/>
      <use x="206.539062" xlink:href="#DejaVuSans-65"/>
      <use x="268.0625" xlink:href="#DejaVuSans-20"/>
      <use x="299.849609" xlink:href="#DejaVuSans-28"/>
      <use x="338.863281" xlink:href="#DejaVuSans-4c"/>
      <use x="394.576172" xlink:href="#DejaVuSans-49"/>
      <use x="424.068359" xlink:href="#DejaVuSans-57"/>
      <use x="522.945312" xlink:href="#DejaVuSans-43"/>
      <use x="592.769531" xlink:href="#DejaVuSans-29"/>
     </g>
    </g>
   </g>
  </g>
  <g id="axes_3">
   <g id="patch_14">
    <path d="M 26.164844 461.815017 
L 431.983026 461.815017 
L 431.983026 264.14229 
L 26.164844 264.14229 
z
" style="fill:#ffffff;"/>
   </g>
   <g id="matplotlib.axis_5">
    <g id="xtick_23">
     <g id="line2d_79">
      <path clip-path="url(#pce92f54905)" d="M 44.611125 461.815017 
L 44.611125 264.14229 
" style="fill:none;stroke:#b0b0b0;stroke-linecap:square;stroke-width:0.3;"/>
     </g>
     <g id="line2d_80">
      <g>
       <use style="stroke:#000000;stroke-width:0.8;" x="44.611125" xlink:href="#m70b2d17351" y="461.815017"/>
      </g>
     </g>
     <g id="text_16">
      <!-- 2020/01/27 -->
      <g transform="translate(20.656336 528.782423)rotate(-45)scale(0.13 -0.13)">
       <defs>
        <path d="M 1625 4666 
L 2156 4666 
L 531 -594 
L 0 -594 
L 1625 4666 
z
" id="DejaVuSans-2f" transform="scale(0.015625)"/>
        <path d="M 525 4666 
L 3525 4666 
L 3525 4397 
L 1831 0 
L 1172 0 
L 2766 4134 
L 525 4134 
L 525 4666 
z
" id="DejaVuSans-37" transform="scale(0.015625)"/>
       </defs>
       <use xlink:href="#DejaVuSans-32"/>
       <use x="63.623047" xlink:href="#DejaVuSans-30"/>
       <use x="127.246094" xlink:href="#DejaVuSans-32"/>
       <use x="190.869141" xlink:href="#DejaVuSans-30"/>
       <use x="254.492188" xlink:href="#DejaVuSans-2f"/>
       <use x="288.183594" xlink:href="#DejaVuSans-30"/>
       <use x="351.806641" xlink:href="#DejaVuSans-31"/>
       <use x="415.429688" xlink:href="#DejaVuSans-2f"/>
       <use x="449.121094" xlink:href="#DejaVuSans-32"/>
       <use x="512.744141" xlink:href="#DejaVuSans-37"/>
      </g>
     </g>
    </g>
    <g id="xtick_24">
     <g id="line2d_81">
      <path clip-path="url(#pce92f54905)" d="M 80.898891 461.815017 
L 80.898891 264.14229 
" style="fill:none;stroke:#b0b0b0;stroke-linecap:square;stroke-width:0.3;"/>
     </g>
     <g id="line2d_82">
      <g>
       <use style="stroke:#000000;stroke-width:0.8;" x="80.898891" xlink:href="#m70b2d17351" y="461.815017"/>
      </g>
     </g>
     <g id="text_17">
      <!-- 2020/03/09 -->
      <g transform="translate(56.944102 528.782423)rotate(-45)scale(0.13 -0.13)">
       <defs>
        <path d="M 703 97 
L 703 672 
Q 941 559 1184 500 
Q 1428 441 1663 441 
Q 2288 441 2617 861 
Q 2947 1281 2994 2138 
Q 2813 1869 2534 1725 
Q 2256 1581 1919 1581 
Q 1219 1581 811 2004 
Q 403 2428 403 3163 
Q 403 3881 828 4315 
Q 1253 4750 1959 4750 
Q 2769 4750 3195 4129 
Q 3622 3509 3622 2328 
Q 3622 1225 3098 567 
Q 2575 -91 1691 -91 
Q 1453 -91 1209 -44 
Q 966 3 703 97 
z
M 1959 2075 
Q 2384 2075 2632 2365 
Q 2881 2656 2881 3163 
Q 2881 3666 2632 3958 
Q 2384 4250 1959 4250 
Q 1534 4250 1286 3958 
Q 1038 3666 1038 3163 
Q 1038 2656 1286 2365 
Q 1534 2075 1959 2075 
z
" id="DejaVuSans-39" transform="scale(0.015625)"/>
       </defs>
       <use xlink:href="#DejaVuSans-32"/>
       <use x="63.623047" xlink:href="#DejaVuSans-30"/>
       <use x="127.246094" xlink:href="#DejaVuSans-32"/>
       <use x="190.869141" xlink:href="#DejaVuSans-30"/>
       <use x="254.492188" xlink:href="#DejaVuSans-2f"/>
       <use x="288.183594" xlink:href="#DejaVuSans-30"/>
       <use x="351.806641" xlink:href="#DejaVuSans-33"/>
       <use x="415.429688" xlink:href="#DejaVuSans-2f"/>
       <use x="449.121094" xlink:href="#DejaVuSans-30"/>
       <use x="512.744141" xlink:href="#DejaVuSans-39"/>
      </g>
     </g>
    </g>
    <g id="xtick_25">
     <g id="line2d_83">
      <path clip-path="url(#pce92f54905)" d="M 117.186657 461.815017 
L 117.186657 264.14229 
" style="fill:none;stroke:#b0b0b0;stroke-linecap:square;stroke-width:0.3;"/>
     </g>
     <g id="line2d_84">
      <g>
       <use style="stroke:#000000;stroke-width:0.8;" x="117.186657" xlink:href="#m70b2d17351" y="461.815017"/>
      </g>
     </g>
     <g id="text_18">
      <!-- 2020/04/20 -->
      <g transform="translate(93.231868 528.782423)rotate(-45)scale(0.13 -0.13)">
       <defs>
        <path d="M 2419 4116 
L 825 1625 
L 2419 1625 
L 2419 4116 
z
M 2253 4666 
L 3047 4666 
L 3047 1625 
L 3713 1625 
L 3713 1100 
L 3047 1100 
L 3047 0 
L 2419 0 
L 2419 1100 
L 313 1100 
L 313 1709 
L 2253 4666 
z
" id="DejaVuSans-34" transform="scale(0.015625)"/>
       </defs>
       <use xlink:href="#DejaVuSans-32"/>
       <use x="63.623047" xlink:href="#DejaVuSans-30"/>
       <use x="127.246094" xlink:href="#DejaVuSans-32"/>
       <use x="190.869141" xlink:href="#DejaVuSans-30"/>
       <use x="254.492188" xlink:href="#DejaVuSans-2f"/>
       <use x="288.183594" xlink:href="#DejaVuSans-30"/>
       <use x="351.806641" xlink:href="#DejaVuSans-34"/>
       <use x="415.429688" xlink:href="#DejaVuSans-2f"/>
       <use x="449.121094" xlink:href="#DejaVuSans-32"/>
       <use x="512.744141" xlink:href="#DejaVuSans-30"/>
      </g>
     </g>
    </g>
    <g id="xtick_26">
     <g id="line2d_85">
      <path clip-path="url(#pce92f54905)" d="M 153.474422 461.815017 
L 153.474422 264.14229 
" style="fill:none;stroke:#b0b0b0;stroke-linecap:square;stroke-width:0.3;"/>
     </g>
     <g id="line2d_86">
      <g>
       <use style="stroke:#000000;stroke-width:0.8;" x="153.474422" xlink:href="#m70b2d17351" y="461.815017"/>
      </g>
     </g>
     <g id="text_19">
      <!-- 2020/06/01 -->
      <g transform="translate(129.519633 528.782423)rotate(-45)scale(0.13 -0.13)">
       <defs>
        <path d="M 2113 2584 
Q 1688 2584 1439 2293 
Q 1191 2003 1191 1497 
Q 1191 994 1439 701 
Q 1688 409 2113 409 
Q 2538 409 2786 701 
Q 3034 994 3034 1497 
Q 3034 2003 2786 2293 
Q 2538 2584 2113 2584 
z
M 3366 4563 
L 3366 3988 
Q 3128 4100 2886 4159 
Q 2644 4219 2406 4219 
Q 1781 4219 1451 3797 
Q 1122 3375 1075 2522 
Q 1259 2794 1537 2939 
Q 1816 3084 2150 3084 
Q 2853 3084 3261 2657 
Q 3669 2231 3669 1497 
Q 3669 778 3244 343 
Q 2819 -91 2113 -91 
Q 1303 -91 875 529 
Q 447 1150 447 2328 
Q 447 3434 972 4092 
Q 1497 4750 2381 4750 
Q 2619 4750 2861 4703 
Q 3103 4656 3366 4563 
z
" id="DejaVuSans-36" transform="scale(0.015625)"/>
       </defs>
       <use xlink:href="#DejaVuSans-32"/>
       <use x="63.623047" xlink:href="#DejaVuSans-30"/>
       <use x="127.246094" xlink:href="#DejaVuSans-32"/>
       <use x="190.869141" xlink:href="#DejaVuSans-30"/>
       <use x="254.492188" xlink:href="#DejaVuSans-2f"/>
       <use x="288.183594" xlink:href="#DejaVuSans-30"/>
       <use x="351.806641" xlink:href="#DejaVuSans-36"/>
       <use x="415.429688" xlink:href="#DejaVuSans-2f"/>
       <use x="449.121094" xlink:href="#DejaVuSans-30"/>
       <use x="512.744141" xlink:href="#DejaVuSans-31"/>
      </g>
     </g>
    </g>
    <g id="xtick_27">
     <g id="line2d_87">
      <path clip-path="url(#pce92f54905)" d="M 189.762188 461.815017 
L 189.762188 264.14229 
" style="fill:none;stroke:#b0b0b0;stroke-linecap:square;stroke-width:0.3;"/>
     </g>
     <g id="line2d_88">
      <g>
       <use style="stroke:#000000;stroke-width:0.8;" x="189.762188" xlink:href="#m70b2d17351" y="461.815017"/>
      </g>
     </g>
     <g id="text_20">
      <!-- 2020/07/13 -->
      <g transform="translate(165.807399 528.782423)rotate(-45)scale(0.13 -0.13)">
       <use xlink:href="#DejaVuSans-32"/>
       <use x="63.623047" xlink:href="#DejaVuSans-30"/>
       <use x="127.246094" xlink:href="#DejaVuSans-32"/>
       <use x="190.869141" xlink:href="#DejaVuSans-30"/>
       <use x="254.492188" xlink:href="#DejaVuSans-2f"/>
       <use x="288.183594" xlink:href="#DejaVuSans-30"/>
       <use x="351.806641" xlink:href="#DejaVuSans-37"/>
       <use x="415.429688" xlink:href="#DejaVuSans-2f"/>
       <use x="449.121094" xlink:href="#DejaVuSans-31"/>
       <use x="512.744141" xlink:href="#DejaVuSans-33"/>
      </g>
     </g>
    </g>
    <g id="xtick_28">
     <g id="line2d_89">
      <path clip-path="url(#pce92f54905)" d="M 226.049954 461.815017 
L 226.049954 264.14229 
" style="fill:none;stroke:#b0b0b0;stroke-linecap:square;stroke-width:0.3;"/>
     </g>
     <g id="line2d_90">
      <g>
       <use style="stroke:#000000;stroke-width:0.8;" x="226.049954" xlink:href="#m70b2d17351" y="461.815017"/>
      </g>
     </g>
     <g id="text_21">
      <!-- 2020/08/24 -->
      <g transform="translate(202.095165 528.782423)rotate(-45)scale(0.13 -0.13)">
       <defs>
        <path d="M 2034 2216 
Q 1584 2216 1326 1975 
Q 1069 1734 1069 1313 
Q 1069 891 1326 650 
Q 1584 409 2034 409 
Q 2484 409 2743 651 
Q 3003 894 3003 1313 
Q 3003 1734 2745 1975 
Q 2488 2216 2034 2216 
z
M 1403 2484 
Q 997 2584 770 2862 
Q 544 3141 544 3541 
Q 544 4100 942 4425 
Q 1341 4750 2034 4750 
Q 2731 4750 3128 4425 
Q 3525 4100 3525 3541 
Q 3525 3141 3298 2862 
Q 3072 2584 2669 2484 
Q 3125 2378 3379 2068 
Q 3634 1759 3634 1313 
Q 3634 634 3220 271 
Q 2806 -91 2034 -91 
Q 1263 -91 848 271 
Q 434 634 434 1313 
Q 434 1759 690 2068 
Q 947 2378 1403 2484 
z
M 1172 3481 
Q 1172 3119 1398 2916 
Q 1625 2713 2034 2713 
Q 2441 2713 2670 2916 
Q 2900 3119 2900 3481 
Q 2900 3844 2670 4047 
Q 2441 4250 2034 4250 
Q 1625 4250 1398 4047 
Q 1172 3844 1172 3481 
z
" id="DejaVuSans-38" transform="scale(0.015625)"/>
       </defs>
       <use xlink:href="#DejaVuSans-32"/>
       <use x="63.623047" xlink:href="#DejaVuSans-30"/>
       <use x="127.246094" xlink:href="#DejaVuSans-32"/>
       <use x="190.869141" xlink:href="#DejaVuSans-30"/>
       <use x="254.492188" xlink:href="#DejaVuSans-2f"/>
       <use x="288.183594" xlink:href="#DejaVuSans-30"/>
       <use x="351.806641" xlink:href="#DejaVuSans-38"/>
       <use x="415.429688" xlink:href="#DejaVuSans-2f"/>
       <use x="449.121094" xlink:href="#DejaVuSans-32"/>
       <use x="512.744141" xlink:href="#DejaVuSans-34"/>
      </g>
     </g>
    </g>
    <g id="xtick_29">
     <g id="line2d_91">
      <path clip-path="url(#pce92f54905)" d="M 262.33772 461.815017 
L 262.33772 264.14229 
" style="fill:none;stroke:#b0b0b0;stroke-linecap:square;stroke-width:0.3;"/>
     </g>
     <g id="line2d_92">
      <g>
       <use style="stroke:#000000;stroke-width:0.8;" x="262.33772" xlink:href="#m70b2d17351" y="461.815017"/>
      </g>
     </g>
     <g id="text_22">
      <!-- 2020/10/05 -->
      <g transform="translate(238.382931 528.782423)rotate(-45)scale(0.13 -0.13)">
       <defs>
        <path d="M 691 4666 
L 3169 4666 
L 3169 4134 
L 1269 4134 
L 1269 2991 
Q 1406 3038 1543 3061 
Q 1681 3084 1819 3084 
Q 2600 3084 3056 2656 
Q 3513 2228 3513 1497 
Q 3513 744 3044 326 
Q 2575 -91 1722 -91 
Q 1428 -91 1123 -41 
Q 819 9 494 109 
L 494 744 
Q 775 591 1075 516 
Q 1375 441 1709 441 
Q 2250 441 2565 725 
Q 2881 1009 2881 1497 
Q 2881 1984 2565 2268 
Q 2250 2553 1709 2553 
Q 1456 2553 1204 2497 
Q 953 2441 691 2322 
L 691 4666 
z
" id="DejaVuSans-35" transform="scale(0.015625)"/>
       </defs>
       <use xlink:href="#DejaVuSans-32"/>
       <use x="63.623047" xlink:href="#DejaVuSans-30"/>
       <use x="127.246094" xlink:href="#DejaVuSans-32"/>
       <use x="190.869141" xlink:href="#DejaVuSans-30"/>
       <use x="254.492188" xlink:href="#DejaVuSans-2f"/>
       <use x="288.183594" xlink:href="#DejaVuSans-31"/>
       <use x="351.806641" xlink:href="#DejaVuSans-30"/>
       <use x="415.429688" xlink:href="#DejaVuSans-2f"/>
       <use x="449.121094" xlink:href="#DejaVuSans-30"/>
       <use x="512.744141" xlink:href="#DejaVuSans-35"/>
      </g>
     </g>
    </g>
    <g id="xtick_30">
     <g id="line2d_93">
      <path clip-path="url(#pce92f54905)" d="M 298.625486 461.815017 
L 298.625486 264.14229 
" style="fill:none;stroke:#b0b0b0;stroke-linecap:square;stroke-width:0.3;"/>
     </g>
     <g id="line2d_94">
      <g>
       <use style="stroke:#000000;stroke-width:0.8;" x="298.625486" xlink:href="#m70b2d17351" y="461.815017"/>
      </g>
     </g>
     <g id="text_23">
      <!-- 2020/11/16 -->
      <g transform="translate(274.670697 528.782423)rotate(-45)scale(0.13 -0.13)">
       <use xlink:href="#DejaVuSans-32"/>
       <use x="63.623047" xlink:href="#DejaVuSans-30"/>
       <use x="127.246094" xlink:href="#DejaVuSans-32"/>
       <use x="190.869141" xlink:href="#DejaVuSans-30"/>
       <use x="254.492188" xlink:href="#DejaVuSans-2f"/>
       <use x="288.183594" xlink:href="#DejaVuSans-31"/>
       <use x="351.806641" xlink:href="#DejaVuSans-31"/>
       <use x="415.429688" xlink:href="#DejaVuSans-2f"/>
       <use x="449.121094" xlink:href="#DejaVuSans-31"/>
       <use x="512.744141" xlink:href="#DejaVuSans-36"/>
      </g>
     </g>
    </g>
    <g id="xtick_31">
     <g id="line2d_95">
      <path clip-path="url(#pce92f54905)" d="M 334.913252 461.815017 
L 334.913252 264.14229 
" style="fill:none;stroke:#b0b0b0;stroke-linecap:square;stroke-width:0.3;"/>
     </g>
     <g id="line2d_96">
      <g>
       <use style="stroke:#000000;stroke-width:0.8;" x="334.913252" xlink:href="#m70b2d17351" y="461.815017"/>
      </g>
     </g>
     <g id="text_24">
      <!-- 2020/12/28 -->
      <g transform="translate(310.958463 528.782423)rotate(-45)scale(0.13 -0.13)">
       <use xlink:href="#DejaVuSans-32"/>
       <use x="63.623047" xlink:href="#DejaVuSans-30"/>
       <use x="127.246094" xlink:href="#DejaVuSans-32"/>
       <use x="190.869141" xlink:href="#DejaVuSans-30"/>
       <use x="254.492188" xlink:href="#DejaVuSans-2f"/>
       <use x="288.183594" xlink:href="#DejaVuSans-31"/>
       <use x="351.806641" xlink:href="#DejaVuSans-32"/>
       <use x="415.429688" xlink:href="#DejaVuSans-2f"/>
       <use x="449.121094" xlink:href="#DejaVuSans-32"/>
       <use x="512.744141" xlink:href="#DejaVuSans-38"/>
      </g>
     </g>
    </g>
    <g id="xtick_32">
     <g id="line2d_97">
      <path clip-path="url(#pce92f54905)" d="M 371.201018 461.815017 
L 371.201018 264.14229 
" style="fill:none;stroke:#b0b0b0;stroke-linecap:square;stroke-width:0.3;"/>
     </g>
     <g id="line2d_98">
      <g>
       <use style="stroke:#000000;stroke-width:0.8;" x="371.201018" xlink:href="#m70b2d17351" y="461.815017"/>
      </g>
     </g>
     <g id="text_25">
      <!-- 2021/02/08 -->
      <g transform="translate(347.246229 528.782423)rotate(-45)scale(0.13 -0.13)">
       <use xlink:href="#DejaVuSans-32"/>
       <use x="63.623047" xlink:href="#DejaVuSans-30"/>
       <use x="127.246094" xlink:href="#DejaVuSans-32"/>
       <use x="190.869141" xlink:href="#DejaVuSans-31"/>
       <use x="254.492188" xlink:href="#DejaVuSans-2f"/>
       <use x="288.183594" xlink:href="#DejaVuSans-30"/>
       <use x="351.806641" xlink:href="#DejaVuSans-32"/>
       <use x="415.429688" xlink:href="#DejaVuSans-2f"/>
       <use x="449.121094" xlink:href="#DejaVuSans-30"/>
       <use x="512.744141" xlink:href="#DejaVuSans-38"/>
      </g>
     </g>
    </g>
    <g id="xtick_33">
     <g id="line2d_99">
      <path clip-path="url(#pce92f54905)" d="M 407.488784 461.815017 
L 407.488784 264.14229 
" style="fill:none;stroke:#b0b0b0;stroke-linecap:square;stroke-width:0.3;"/>
     </g>
     <g id="line2d_100">
      <g>
       <use style="stroke:#000000;stroke-width:0.8;" x="407.488784" xlink:href="#m70b2d17351" y="461.815017"/>
      </g>
     </g>
     <g id="text_26">
      <!-- 2021/03/22 -->
      <g transform="translate(383.533995 528.782423)rotate(-45)scale(0.13 -0.13)">
       <use xlink:href="#DejaVuSans-32"/>
       <use x="63.623047" xlink:href="#DejaVuSans-30"/>
       <use x="127.246094" xlink:href="#DejaVuSans-32"/>
       <use x="190.869141" xlink:href="#DejaVuSans-31"/>
       <use x="254.492188" xlink:href="#DejaVuSans-2f"/>
       <use x="288.183594" xlink:href="#DejaVuSans-30"/>
       <use x="351.806641" xlink:href="#DejaVuSans-33"/>
       <use x="415.429688" xlink:href="#DejaVuSans-2f"/>
       <use x="449.121094" xlink:href="#DejaVuSans-32"/>
       <use x="512.744141" xlink:href="#DejaVuSans-32"/>
      </g>
     </g>
    </g>
   </g>
   <g id="matplotlib.axis_6">
    <g id="ytick_12">
     <g id="line2d_101">
      <path clip-path="url(#pce92f54905)" d="M 26.164844 442.635292 
L 431.983026 442.635292 
" style="fill:none;stroke:#b0b0b0;stroke-linecap:square;stroke-width:0.3;"/>
     </g>
     <g id="line2d_102">
      <g>
       <use style="stroke:#000000;stroke-width:0.8;" x="26.164844" xlink:href="#mb57072a9ba" y="442.635292"/>
      </g>
     </g>
     <g id="text_27">
      <!-- −3 -->
      <g transform="translate(0 447.574277)scale(0.13 -0.13)">
       <use xlink:href="#DejaVuSans-2212"/>
       <use x="83.789062" xlink:href="#DejaVuSans-33"/>
      </g>
     </g>
    </g>
    <g id="ytick_13">
     <g id="line2d_103">
      <path clip-path="url(#pce92f54905)" d="M 26.164844 402.60177 
L 431.983026 402.60177 
" style="fill:none;stroke:#b0b0b0;stroke-linecap:square;stroke-width:0.3;"/>
     </g>
     <g id="line2d_104">
      <g>
       <use style="stroke:#000000;stroke-width:0.8;" x="26.164844" xlink:href="#mb57072a9ba" y="402.60177"/>
      </g>
     </g>
     <g id="text_28">
      <!-- −2 -->
      <g transform="translate(0 407.540754)scale(0.13 -0.13)">
       <use xlink:href="#DejaVuSans-2212"/>
       <use x="83.789062" xlink:href="#DejaVuSans-32"/>
      </g>
     </g>
    </g>
    <g id="ytick_14">
     <g id="line2d_105">
      <path clip-path="url(#pce92f54905)" d="M 26.164844 362.568247 
L 431.983026 362.568247 
" style="fill:none;stroke:#b0b0b0;stroke-linecap:square;stroke-width:0.3;"/>
     </g>
     <g id="line2d_106">
      <g>
       <use style="stroke:#000000;stroke-width:0.8;" x="26.164844" xlink:href="#mb57072a9ba" y="362.568247"/>
      </g>
     </g>
     <g id="text_29">
      <!-- −1 -->
      <g transform="translate(0 367.507231)scale(0.13 -0.13)">
       <use xlink:href="#DejaVuSans-2212"/>
       <use x="83.789062" xlink:href="#DejaVuSans-31"/>
      </g>
     </g>
    </g>
    <g id="ytick_15">
     <g id="line2d_107">
      <path clip-path="url(#pce92f54905)" d="M 26.164844 322.534724 
L 431.983026 322.534724 
" style="fill:none;stroke:#b0b0b0;stroke-linecap:square;stroke-width:0.3;"/>
     </g>
     <g id="line2d_108">
      <g>
       <use style="stroke:#000000;stroke-width:0.8;" x="26.164844" xlink:href="#mb57072a9ba" y="322.534724"/>
      </g>
     </g>
     <g id="text_30">
      <!-- 0 -->
      <g transform="translate(10.893594 327.473709)scale(0.13 -0.13)">
       <use xlink:href="#DejaVuSans-30"/>
      </g>
     </g>
    </g>
    <g id="ytick_16">
     <g id="line2d_109">
      <path clip-path="url(#pce92f54905)" d="M 26.164844 282.501201 
L 431.983026 282.501201 
" style="fill:none;stroke:#b0b0b0;stroke-linecap:square;stroke-width:0.3;"/>
     </g>
     <g id="line2d_110">
      <g>
       <use style="stroke:#000000;stroke-width:0.8;" x="26.164844" xlink:href="#mb57072a9ba" y="282.501201"/>
      </g>
     </g>
     <g id="text_31">
      <!-- 1 -->
      <g transform="translate(10.893594 287.440186)scale(0.13 -0.13)">
       <use xlink:href="#DejaVuSans-31"/>
      </g>
     </g>
    </g>
   </g>
   <g id="line2d_111">
    <path clip-path="url(#pce92f54905)" d="M 44.611125 452.829893 
L 50.659086 411.78414 
L 56.707047 411.079907 
L 62.755008 410.427546 
L 68.802969 432.823957 
L 74.85093 428.052563 
L 80.898891 396.917017 
L 86.946852 361.424763 
L 92.994813 346.990558 
L 99.042774 328.274258 
L 105.090735 320.56266 
L 111.138696 321.406771 
L 117.186657 320.238512 
L 123.234617 320.112746 
L 129.282578 313.862876 
L 135.330539 318.697702 
L 141.3785 316.486652 
L 147.426461 318.628231 
L 153.474422 320.226726 
L 159.522383 293.077324 
L 165.570344 289.063563 
L 171.618305 302.847605 
L 177.666266 314.038434 
L 183.714227 310.12065 
L 189.762188 304.011754 
L 195.810149 290.17601 
L 201.85811 292.857736 
L 207.906071 296.020709 
L 213.954032 281.641747 
L 220.001993 296.510135 
L 226.049954 300.039858 
L 232.097915 318.612867 
L 238.145876 311.766317 
L 244.193837 314.939664 
L 250.241798 328.382809 
L 256.289759 328.700921 
L 262.33772 325.469609 
L 268.385681 330.456816 
L 274.433642 332.072087 
L 280.481603 344.658553 
L 286.529564 331.727375 
L 292.577525 331.476274 
L 298.625486 344.921076 
L 304.673447 326.15311 
L 310.721408 326.835121 
L 316.769369 323.584007 
L 322.81733 301.726423 
L 328.865291 285.384617 
L 334.913252 306.876825 
L 340.961213 303.052342 
L 347.009174 293.702843 
L 353.057135 282.752754 
L 359.105096 275.987306 
L 365.153057 275.211201 
L 371.201018 285.721253 
L 377.248979 273.127414 
L 383.29694 289.01889 
L 389.344901 306.189777 
L 395.392862 294.65262 
L 401.440823 297.293954 
L 407.488784 288.090606 
L 413.536745 297.374464 
" style="fill:none;stroke:#ff0000;stroke-linecap:square;stroke-width:1.5;"/>
   </g>
   <g id="line2d_112">
    <path clip-path="url(#pce92f54905)" d="M 44.611125 440.469294 
L 50.659086 414.280474 
L 56.707047 406.848004 
L 62.755008 410.522422 
L 68.802969 422.131209 
L 74.85093 429.561307 
L 80.898891 410.211209 
L 86.946852 389.9864 
L 92.994813 365.634077 
L 99.042774 354.946471 
L 105.090735 339.085398 
L 111.138696 343.894031 
L 117.186657 337.831921 
L 123.234617 330.655731 
L 129.282578 330.905654 
L 135.330539 329.864381 
L 141.3785 324.852074 
L 147.426461 327.598461 
L 153.474422 330.410173 
L 159.522383 292.041935 
L 165.570344 288.407979 
L 171.618305 300.587748 
L 177.666266 305.113205 
L 183.714227 297.2203 
L 189.762188 281.401996 
L 195.810149 289.591284 
L 201.85811 292.216622 
L 207.906071 290.037053 
L 213.954032 290.908627 
L 220.001993 293.621021 
L 226.049954 297.362228 
L 232.097915 301.126237 
L 238.145876 306.953599 
L 244.193837 301.770685 
L 250.241798 315.315226 
L 256.289759 310.527883 
L 262.33772 319.400409 
L 268.385681 307.720959 
L 274.433642 312.967054 
L 280.481603 312.579407 
L 286.529564 310.208134 
L 292.577525 315.992605 
L 298.625486 325.056012 
L 304.673447 310.029867 
L 310.721408 309.688563 
L 316.769369 313.955972 
L 322.81733 300.761498 
L 328.865291 287.126866 
L 334.913252 300.947973 
L 340.961213 302.08434 
L 347.009174 304.233647 
L 353.057135 290.634163 
L 359.105096 280.433598 
L 365.153057 283.540197 
L 371.201018 292.366809 
L 377.248979 290.560564 
L 383.29694 303.996925 
L 389.344901 318.805481 
L 395.392862 307.593876 
L 401.440823 303.070119 
L 407.488784 291.127599 
L 413.536745 308.377943 
" style="fill:none;stroke:#0000ff;stroke-dasharray:5.55,2.4;stroke-dashoffset:0;stroke-width:1.5;"/>
   </g>
   <g id="patch_15">
    <path d="M 26.164844 461.815017 
L 26.164844 264.14229 
" style="fill:none;stroke:#000000;stroke-linecap:square;stroke-linejoin:miter;stroke-width:0.8;"/>
   </g>
   <g id="patch_16">
    <path d="M 431.983026 461.815017 
L 431.983026 264.14229 
" style="fill:none;stroke:#000000;stroke-linecap:square;stroke-linejoin:miter;stroke-width:0.8;"/>
   </g>
   <g id="patch_17">
    <path d="M 26.164844 461.815017 
L 431.983026 461.815017 
" style="fill:none;stroke:#000000;stroke-linecap:square;stroke-linejoin:miter;stroke-width:0.8;"/>
   </g>
   <g id="patch_18">
    <path d="M 26.164844 264.14229 
L 431.983026 264.14229 
" style="fill:none;stroke:#000000;stroke-linecap:square;stroke-linejoin:miter;stroke-width:0.8;"/>
   </g>
   <g id="legend_3">
    <g id="patch_19">
     <path d="M 28.764844 260.188835 
L 429.383026 260.188835 
Q 431.983026 260.188835 431.983026 257.588835 
L 431.983026 239.807273 
Q 431.983026 237.207273 429.383026 237.207273 
L 28.764844 237.207273 
Q 26.164844 237.207273 26.164844 239.807273 
L 26.164844 257.588835 
Q 26.164844 260.188835 28.764844 260.188835 
z
" style="fill:#ffffff;opacity:0.8;stroke:#cccccc;stroke-linejoin:miter;"/>
    </g>
    <g id="line2d_113">
     <path d="M 31.364844 247.735241 
L 57.364844 247.735241 
" style="fill:none;stroke:#ff0000;stroke-linecap:square;stroke-width:1.5;"/>
    </g>
    <g id="line2d_114"/>
    <g id="text_32">
     <!-- positive (Emolex) -->
     <g transform="translate(67.764844 252.285241)scale(0.13 -0.13)">
      <defs>
       <path d="M 1159 525 
L 1159 -1331 
L 581 -1331 
L 581 3500 
L 1159 3500 
L 1159 2969 
Q 1341 3281 1617 3432 
Q 1894 3584 2278 3584 
Q 2916 3584 3314 3078 
Q 3713 2572 3713 1747 
Q 3713 922 3314 415 
Q 2916 -91 2278 -91 
Q 1894 -91 1617 61 
Q 1341 213 1159 525 
z
M 3116 1747 
Q 3116 2381 2855 2742 
Q 2594 3103 2138 3103 
Q 1681 3103 1420 2742 
Q 1159 2381 1159 1747 
Q 1159 1113 1420 752 
Q 1681 391 2138 391 
Q 2594 391 2855 752 
Q 3116 1113 3116 1747 
z
" id="DejaVuSans-70" transform="scale(0.015625)"/>
       <path d="M 191 3500 
L 800 3500 
L 1894 563 
L 2988 3500 
L 3597 3500 
L 2284 0 
L 1503 0 
L 191 3500 
z
" id="DejaVuSans-76" transform="scale(0.015625)"/>
      </defs>
      <use xlink:href="#DejaVuSans-70"/>
      <use x="63.476562" xlink:href="#DejaVuSans-6f"/>
      <use x="124.658203" xlink:href="#DejaVuSans-73"/>
      <use x="176.757812" xlink:href="#DejaVuSans-69"/>
      <use x="204.541016" xlink:href="#DejaVuSans-74"/>
      <use x="243.75" xlink:href="#DejaVuSans-69"/>
      <use x="271.533203" xlink:href="#DejaVuSans-76"/>
      <use x="330.712891" xlink:href="#DejaVuSans-65"/>
      <use x="392.236328" xlink:href="#DejaVuSans-20"/>
      <use x="424.023438" xlink:href="#DejaVuSans-28"/>
      <use x="463.037109" xlink:href="#DejaVuSans-45"/>
      <use x="526.220703" xlink:href="#DejaVuSans-6d"/>
      <use x="623.632812" xlink:href="#DejaVuSans-6f"/>
      <use x="684.814453" xlink:href="#DejaVuSans-6c"/>
      <use x="712.597656" xlink:href="#DejaVuSans-65"/>
      <use x="772.371094" xlink:href="#DejaVuSans-78"/>
      <use x="831.550781" xlink:href="#DejaVuSans-29"/>
     </g>
    </g>
    <g id="line2d_115">
     <path d="M 292.172088 247.735241 
L 318.172088 247.735241 
" style="fill:none;stroke:#0000ff;stroke-dasharray:5.55,2.4;stroke-dashoffset:0;stroke-width:1.5;"/>
    </g>
    <g id="line2d_116"/>
    <g id="text_33">
     <!-- EmoPos (LIWC) -->
     <g transform="translate(328.572088 252.285241)scale(0.13 -0.13)">
      <defs>
       <path d="M 1259 4147 
L 1259 2394 
L 2053 2394 
Q 2494 2394 2734 2622 
Q 2975 2850 2975 3272 
Q 2975 3691 2734 3919 
Q 2494 4147 2053 4147 
L 1259 4147 
z
M 628 4666 
L 2053 4666 
Q 2838 4666 3239 4311 
Q 3641 3956 3641 3272 
Q 3641 2581 3239 2228 
Q 2838 1875 2053 1875 
L 1259 1875 
L 1259 0 
L 628 0 
L 628 4666 
z
" id="DejaVuSans-50" transform="scale(0.015625)"/>
      </defs>
      <use xlink:href="#DejaVuSans-45"/>
      <use x="63.183594" xlink:href="#DejaVuSans-6d"/>
      <use x="160.595703" xlink:href="#DejaVuSans-6f"/>
      <use x="221.777344" xlink:href="#DejaVuSans-50"/>
      <use x="278.455078" xlink:href="#DejaVuSans-6f"/>
      <use x="339.636719" xlink:href="#DejaVuSans-73"/>
      <use x="391.736328" xlink:href="#DejaVuSans-20"/>
      <use x="423.523438" xlink:href="#DejaVuSans-28"/>
      <use x="462.537109" xlink:href="#DejaVuSans-4c"/>
      <use x="518.25" xlink:href="#DejaVuSans-49"/>
      <use x="547.742188" xlink:href="#DejaVuSans-57"/>
      <use x="646.619141" xlink:href="#DejaVuSans-43"/>
      <use x="716.443359" xlink:href="#DejaVuSans-29"/>
     </g>
    </g>
   </g>
  </g>
  <g id="axes_4">
   <g id="patch_20">
    <path d="M 513.146662 461.815017 
L 918.964844 461.815017 
L 918.964844 264.14229 
L 513.146662 264.14229 
z
" style="fill:#ffffff;"/>
   </g>
   <g id="matplotlib.axis_7">
    <g id="xtick_34">
     <g id="line2d_117">
      <path clip-path="url(#p75713cc315)" d="M 531.592943 461.815017 
L 531.592943 264.14229 
" style="fill:none;stroke:#b0b0b0;stroke-linecap:square;stroke-width:0.3;"/>
     </g>
     <g id="line2d_118">
      <g>
       <use style="stroke:#000000;stroke-width:0.8;" x="531.592943" xlink:href="#m70b2d17351" y="461.815017"/>
      </g>
     </g>
     <g id="text_34">
      <!-- 2020/01/27 -->
      <g transform="translate(507.638154 528.782423)rotate(-45)scale(0.13 -0.13)">
       <use xlink:href="#DejaVuSans-32"/>
       <use x="63.623047" xlink:href="#DejaVuSans-30"/>
       <use x="127.246094" xlink:href="#DejaVuSans-32"/>
       <use x="190.869141" xlink:href="#DejaVuSans-30"/>
       <use x="254.492188" xlink:href="#DejaVuSans-2f"/>
       <use x="288.183594" xlink:href="#DejaVuSans-30"/>
       <use x="351.806641" xlink:href="#DejaVuSans-31"/>
       <use x="415.429688" xlink:href="#DejaVuSans-2f"/>
       <use x="449.121094" xlink:href="#DejaVuSans-32"/>
       <use x="512.744141" xlink:href="#DejaVuSans-37"/>
      </g>
     </g>
    </g>
    <g id="xtick_35">
     <g id="line2d_119">
      <path clip-path="url(#p75713cc315)" d="M 567.880709 461.815017 
L 567.880709 264.14229 
" style="fill:none;stroke:#b0b0b0;stroke-linecap:square;stroke-width:0.3;"/>
     </g>
     <g id="line2d_120">
      <g>
       <use style="stroke:#000000;stroke-width:0.8;" x="567.880709" xlink:href="#m70b2d17351" y="461.815017"/>
      </g>
     </g>
     <g id="text_35">
      <!-- 2020/03/09 -->
      <g transform="translate(543.92592 528.782423)rotate(-45)scale(0.13 -0.13)">
       <use xlink:href="#DejaVuSans-32"/>
       <use x="63.623047" xlink:href="#DejaVuSans-30"/>
       <use x="127.246094" xlink:href="#DejaVuSans-32"/>
       <use x="190.869141" xlink:href="#DejaVuSans-30"/>
       <use x="254.492188" xlink:href="#DejaVuSans-2f"/>
       <use x="288.183594" xlink:href="#DejaVuSans-30"/>
       <use x="351.806641" xlink:href="#DejaVuSans-33"/>
       <use x="415.429688" xlink:href="#DejaVuSans-2f"/>
       <use x="449.121094" xlink:href="#DejaVuSans-30"/>
       <use x="512.744141" xlink:href="#DejaVuSans-39"/>
      </g>
     </g>
    </g>
    <g id="xtick_36">
     <g id="line2d_121">
      <path clip-path="url(#p75713cc315)" d="M 604.168475 461.815017 
L 604.168475 264.14229 
" style="fill:none;stroke:#b0b0b0;stroke-linecap:square;stroke-width:0.3;"/>
     </g>
     <g id="line2d_122">
      <g>
       <use style="stroke:#000000;stroke-width:0.8;" x="604.168475" xlink:href="#m70b2d17351" y="461.815017"/>
      </g>
     </g>
     <g id="text_36">
      <!-- 2020/04/20 -->
      <g transform="translate(580.213686 528.782423)rotate(-45)scale(0.13 -0.13)">
       <use xlink:href="#DejaVuSans-32"/>
       <use x="63.623047" xlink:href="#DejaVuSans-30"/>
       <use x="127.246094" xlink:href="#DejaVuSans-32"/>
       <use x="190.869141" xlink:href="#DejaVuSans-30"/>
       <use x="254.492188" xlink:href="#DejaVuSans-2f"/>
       <use x="288.183594" xlink:href="#DejaVuSans-30"/>
       <use x="351.806641" xlink:href="#DejaVuSans-34"/>
       <use x="415.429688" xlink:href="#DejaVuSans-2f"/>
       <use x="449.121094" xlink:href="#DejaVuSans-32"/>
       <use x="512.744141" xlink:href="#DejaVuSans-30"/>
      </g>
     </g>
    </g>
    <g id="xtick_37">
     <g id="line2d_123">
      <path clip-path="url(#p75713cc315)" d="M 640.456241 461.815017 
L 640.456241 264.14229 
" style="fill:none;stroke:#b0b0b0;stroke-linecap:square;stroke-width:0.3;"/>
     </g>
     <g id="line2d_124">
      <g>
       <use style="stroke:#000000;stroke-width:0.8;" x="640.456241" xlink:href="#m70b2d17351" y="461.815017"/>
      </g>
     </g>
     <g id="text_37">
      <!-- 2020/06/01 -->
      <g transform="translate(616.501452 528.782423)rotate(-45)scale(0.13 -0.13)">
       <use xlink:href="#DejaVuSans-32"/>
       <use x="63.623047" xlink:href="#DejaVuSans-30"/>
       <use x="127.246094" xlink:href="#DejaVuSans-32"/>
       <use x="190.869141" xlink:href="#DejaVuSans-30"/>
       <use x="254.492188" xlink:href="#DejaVuSans-2f"/>
       <use x="288.183594" xlink:href="#DejaVuSans-30"/>
       <use x="351.806641" xlink:href="#DejaVuSans-36"/>
       <use x="415.429688" xlink:href="#DejaVuSans-2f"/>
       <use x="449.121094" xlink:href="#DejaVuSans-30"/>
       <use x="512.744141" xlink:href="#DejaVuSans-31"/>
      </g>
     </g>
    </g>
    <g id="xtick_38">
     <g id="line2d_125">
      <path clip-path="url(#p75713cc315)" d="M 676.744006 461.815017 
L 676.744006 264.14229 
" style="fill:none;stroke:#b0b0b0;stroke-linecap:square;stroke-width:0.3;"/>
     </g>
     <g id="line2d_126">
      <g>
       <use style="stroke:#000000;stroke-width:0.8;" x="676.744006" xlink:href="#m70b2d17351" y="461.815017"/>
      </g>
     </g>
     <g id="text_38">
      <!-- 2020/07/13 -->
      <g transform="translate(652.789217 528.782423)rotate(-45)scale(0.13 -0.13)">
       <use xlink:href="#DejaVuSans-32"/>
       <use x="63.623047" xlink:href="#DejaVuSans-30"/>
       <use x="127.246094" xlink:href="#DejaVuSans-32"/>
       <use x="190.869141" xlink:href="#DejaVuSans-30"/>
       <use x="254.492188" xlink:href="#DejaVuSans-2f"/>
       <use x="288.183594" xlink:href="#DejaVuSans-30"/>
       <use x="351.806641" xlink:href="#DejaVuSans-37"/>
       <use x="415.429688" xlink:href="#DejaVuSans-2f"/>
       <use x="449.121094" xlink:href="#DejaVuSans-31"/>
       <use x="512.744141" xlink:href="#DejaVuSans-33"/>
      </g>
     </g>
    </g>
    <g id="xtick_39">
     <g id="line2d_127">
      <path clip-path="url(#p75713cc315)" d="M 713.031772 461.815017 
L 713.031772 264.14229 
" style="fill:none;stroke:#b0b0b0;stroke-linecap:square;stroke-width:0.3;"/>
     </g>
     <g id="line2d_128">
      <g>
       <use style="stroke:#000000;stroke-width:0.8;" x="713.031772" xlink:href="#m70b2d17351" y="461.815017"/>
      </g>
     </g>
     <g id="text_39">
      <!-- 2020/08/24 -->
      <g transform="translate(689.076983 528.782423)rotate(-45)scale(0.13 -0.13)">
       <use xlink:href="#DejaVuSans-32"/>
       <use x="63.623047" xlink:href="#DejaVuSans-30"/>
       <use x="127.246094" xlink:href="#DejaVuSans-32"/>
       <use x="190.869141" xlink:href="#DejaVuSans-30"/>
       <use x="254.492188" xlink:href="#DejaVuSans-2f"/>
       <use x="288.183594" xlink:href="#DejaVuSans-30"/>
       <use x="351.806641" xlink:href="#DejaVuSans-38"/>
       <use x="415.429688" xlink:href="#DejaVuSans-2f"/>
       <use x="449.121094" xlink:href="#DejaVuSans-32"/>
       <use x="512.744141" xlink:href="#DejaVuSans-34"/>
      </g>
     </g>
    </g>
    <g id="xtick_40">
     <g id="line2d_129">
      <path clip-path="url(#p75713cc315)" d="M 749.319538 461.815017 
L 749.319538 264.14229 
" style="fill:none;stroke:#b0b0b0;stroke-linecap:square;stroke-width:0.3;"/>
     </g>
     <g id="line2d_130">
      <g>
       <use style="stroke:#000000;stroke-width:0.8;" x="749.319538" xlink:href="#m70b2d17351" y="461.815017"/>
      </g>
     </g>
     <g id="text_40">
      <!-- 2020/10/05 -->
      <g transform="translate(725.364749 528.782423)rotate(-45)scale(0.13 -0.13)">
       <use xlink:href="#DejaVuSans-32"/>
       <use x="63.623047" xlink:href="#DejaVuSans-30"/>
       <use x="127.246094" xlink:href="#DejaVuSans-32"/>
       <use x="190.869141" xlink:href="#DejaVuSans-30"/>
       <use x="254.492188" xlink:href="#DejaVuSans-2f"/>
       <use x="288.183594" xlink:href="#DejaVuSans-31"/>
       <use x="351.806641" xlink:href="#DejaVuSans-30"/>
       <use x="415.429688" xlink:href="#DejaVuSans-2f"/>
       <use x="449.121094" xlink:href="#DejaVuSans-30"/>
       <use x="512.744141" xlink:href="#DejaVuSans-35"/>
      </g>
     </g>
    </g>
    <g id="xtick_41">
     <g id="line2d_131">
      <path clip-path="url(#p75713cc315)" d="M 785.607304 461.815017 
L 785.607304 264.14229 
" style="fill:none;stroke:#b0b0b0;stroke-linecap:square;stroke-width:0.3;"/>
     </g>
     <g id="line2d_132">
      <g>
       <use style="stroke:#000000;stroke-width:0.8;" x="785.607304" xlink:href="#m70b2d17351" y="461.815017"/>
      </g>
     </g>
     <g id="text_41">
      <!-- 2020/11/16 -->
      <g transform="translate(761.652515 528.782423)rotate(-45)scale(0.13 -0.13)">
       <use xlink:href="#DejaVuSans-32"/>
       <use x="63.623047" xlink:href="#DejaVuSans-30"/>
       <use x="127.246094" xlink:href="#DejaVuSans-32"/>
       <use x="190.869141" xlink:href="#DejaVuSans-30"/>
       <use x="254.492188" xlink:href="#DejaVuSans-2f"/>
       <use x="288.183594" xlink:href="#DejaVuSans-31"/>
       <use x="351.806641" xlink:href="#DejaVuSans-31"/>
       <use x="415.429688" xlink:href="#DejaVuSans-2f"/>
       <use x="449.121094" xlink:href="#DejaVuSans-31"/>
       <use x="512.744141" xlink:href="#DejaVuSans-36"/>
      </g>
     </g>
    </g>
    <g id="xtick_42">
     <g id="line2d_133">
      <path clip-path="url(#p75713cc315)" d="M 821.89507 461.815017 
L 821.89507 264.14229 
" style="fill:none;stroke:#b0b0b0;stroke-linecap:square;stroke-width:0.3;"/>
     </g>
     <g id="line2d_134">
      <g>
       <use style="stroke:#000000;stroke-width:0.8;" x="821.89507" xlink:href="#m70b2d17351" y="461.815017"/>
      </g>
     </g>
     <g id="text_42">
      <!-- 2020/12/28 -->
      <g transform="translate(797.940281 528.782423)rotate(-45)scale(0.13 -0.13)">
       <use xlink:href="#DejaVuSans-32"/>
       <use x="63.623047" xlink:href="#DejaVuSans-30"/>
       <use x="127.246094" xlink:href="#DejaVuSans-32"/>
       <use x="190.869141" xlink:href="#DejaVuSans-30"/>
       <use x="254.492188" xlink:href="#DejaVuSans-2f"/>
       <use x="288.183594" xlink:href="#DejaVuSans-31"/>
       <use x="351.806641" xlink:href="#DejaVuSans-32"/>
       <use x="415.429688" xlink:href="#DejaVuSans-2f"/>
       <use x="449.121094" xlink:href="#DejaVuSans-32"/>
       <use x="512.744141" xlink:href="#DejaVuSans-38"/>
      </g>
     </g>
    </g>
    <g id="xtick_43">
     <g id="line2d_135">
      <path clip-path="url(#p75713cc315)" d="M 858.182836 461.815017 
L 858.182836 264.14229 
" style="fill:none;stroke:#b0b0b0;stroke-linecap:square;stroke-width:0.3;"/>
     </g>
     <g id="line2d_136">
      <g>
       <use style="stroke:#000000;stroke-width:0.8;" x="858.182836" xlink:href="#m70b2d17351" y="461.815017"/>
      </g>
     </g>
     <g id="text_43">
      <!-- 2021/02/08 -->
      <g transform="translate(834.228047 528.782423)rotate(-45)scale(0.13 -0.13)">
       <use xlink:href="#DejaVuSans-32"/>
       <use x="63.623047" xlink:href="#DejaVuSans-30"/>
       <use x="127.246094" xlink:href="#DejaVuSans-32"/>
       <use x="190.869141" xlink:href="#DejaVuSans-31"/>
       <use x="254.492188" xlink:href="#DejaVuSans-2f"/>
       <use x="288.183594" xlink:href="#DejaVuSans-30"/>
       <use x="351.806641" xlink:href="#DejaVuSans-32"/>
       <use x="415.429688" xlink:href="#DejaVuSans-2f"/>
       <use x="449.121094" xlink:href="#DejaVuSans-30"/>
       <use x="512.744141" xlink:href="#DejaVuSans-38"/>
      </g>
     </g>
    </g>
    <g id="xtick_44">
     <g id="line2d_137">
      <path clip-path="url(#p75713cc315)" d="M 894.470602 461.815017 
L 894.470602 264.14229 
" style="fill:none;stroke:#b0b0b0;stroke-linecap:square;stroke-width:0.3;"/>
     </g>
     <g id="line2d_138">
      <g>
       <use style="stroke:#000000;stroke-width:0.8;" x="894.470602" xlink:href="#m70b2d17351" y="461.815017"/>
      </g>
     </g>
     <g id="text_44">
      <!-- 2021/03/22 -->
      <g transform="translate(870.515813 528.782423)rotate(-45)scale(0.13 -0.13)">
       <use xlink:href="#DejaVuSans-32"/>
       <use x="63.623047" xlink:href="#DejaVuSans-30"/>
       <use x="127.246094" xlink:href="#DejaVuSans-32"/>
       <use x="190.869141" xlink:href="#DejaVuSans-31"/>
       <use x="254.492188" xlink:href="#DejaVuSans-2f"/>
       <use x="288.183594" xlink:href="#DejaVuSans-30"/>
       <use x="351.806641" xlink:href="#DejaVuSans-33"/>
       <use x="415.429688" xlink:href="#DejaVuSans-2f"/>
       <use x="449.121094" xlink:href="#DejaVuSans-32"/>
       <use x="512.744141" xlink:href="#DejaVuSans-32"/>
      </g>
     </g>
    </g>
   </g>
   <g id="matplotlib.axis_8">
    <g id="ytick_17">
     <g id="line2d_139">
      <path clip-path="url(#p75713cc315)" d="M 513.146662 436.280412 
L 918.964844 436.280412 
" style="fill:none;stroke:#b0b0b0;stroke-linecap:square;stroke-width:0.3;"/>
     </g>
     <g id="line2d_140">
      <g>
       <use style="stroke:#000000;stroke-width:0.8;" x="513.146662" xlink:href="#mb57072a9ba" y="436.280412"/>
      </g>
     </g>
     <g id="text_45">
      <!-- −2 -->
      <g transform="translate(486.981818 441.219397)scale(0.13 -0.13)">
       <use xlink:href="#DejaVuSans-2212"/>
       <use x="83.789062" xlink:href="#DejaVuSans-32"/>
      </g>
     </g>
    </g>
    <g id="ytick_18">
     <g id="line2d_141">
      <path clip-path="url(#p75713cc315)" d="M 513.146662 395.388081 
L 918.964844 395.388081 
" style="fill:none;stroke:#b0b0b0;stroke-linecap:square;stroke-width:0.3;"/>
     </g>
     <g id="line2d_142">
      <g>
       <use style="stroke:#000000;stroke-width:0.8;" x="513.146662" xlink:href="#mb57072a9ba" y="395.388081"/>
      </g>
     </g>
     <g id="text_46">
      <!-- −1 -->
      <g transform="translate(486.981818 400.327065)scale(0.13 -0.13)">
       <use xlink:href="#DejaVuSans-2212"/>
       <use x="83.789062" xlink:href="#DejaVuSans-31"/>
      </g>
     </g>
    </g>
    <g id="ytick_19">
     <g id="line2d_143">
      <path clip-path="url(#p75713cc315)" d="M 513.146662 354.495749 
L 918.964844 354.495749 
" style="fill:none;stroke:#b0b0b0;stroke-linecap:square;stroke-width:0.3;"/>
     </g>
     <g id="line2d_144">
      <g>
       <use style="stroke:#000000;stroke-width:0.8;" x="513.146662" xlink:href="#mb57072a9ba" y="354.495749"/>
      </g>
     </g>
     <g id="text_47">
      <!-- 0 -->
      <g transform="translate(497.875412 359.434734)scale(0.13 -0.13)">
       <use xlink:href="#DejaVuSans-30"/>
      </g>
     </g>
    </g>
    <g id="ytick_20">
     <g id="line2d_145">
      <path clip-path="url(#p75713cc315)" d="M 513.146662 313.603418 
L 918.964844 313.603418 
" style="fill:none;stroke:#b0b0b0;stroke-linecap:square;stroke-width:0.3;"/>
     </g>
     <g id="line2d_146">
      <g>
       <use style="stroke:#000000;stroke-width:0.8;" x="513.146662" xlink:href="#mb57072a9ba" y="313.603418"/>
      </g>
     </g>
     <g id="text_48">
      <!-- 1 -->
      <g transform="translate(497.875412 318.542402)scale(0.13 -0.13)">
       <use xlink:href="#DejaVuSans-31"/>
      </g>
     </g>
    </g>
    <g id="ytick_21">
     <g id="line2d_147">
      <path clip-path="url(#p75713cc315)" d="M 513.146662 272.711086 
L 918.964844 272.711086 
" style="fill:none;stroke:#b0b0b0;stroke-linecap:square;stroke-width:0.3;"/>
     </g>
     <g id="line2d_148">
      <g>
       <use style="stroke:#000000;stroke-width:0.8;" x="513.146662" xlink:href="#mb57072a9ba" y="272.711086"/>
      </g>
     </g>
     <g id="text_49">
      <!-- 2 -->
      <g transform="translate(497.875412 277.650071)scale(0.13 -0.13)">
       <use xlink:href="#DejaVuSans-32"/>
      </g>
     </g>
    </g>
   </g>
   <g id="line2d_149">
    <path clip-path="url(#p75713cc315)" d="M 531.592943 417.307414 
L 537.640904 406.874673 
L 543.688865 422.489098 
L 549.736826 443.723083 
L 555.784787 388.818076 
L 561.832748 407.562982 
L 567.880709 429.24363 
L 573.92867 412.236336 
L 579.976631 387.91966 
L 586.024592 362.286671 
L 592.072553 345.865418 
L 598.120514 341.845466 
L 604.168475 344.506893 
L 610.216436 343.597414 
L 616.264397 352.672379 
L 622.312358 353.708242 
L 628.360319 350.860986 
L 634.40828 330.510272 
L 640.456241 318.630146 
L 646.504202 284.056267 
L 652.552163 273.127414 
L 658.600124 300.588246 
L 664.648085 312.963796 
L 670.696045 324.797131 
L 676.744006 340.310318 
L 682.791967 314.587679 
L 688.839928 296.388269 
L 694.887889 307.442601 
L 700.93585 323.504826 
L 706.983811 307.888638 
L 713.031772 313.881601 
L 719.079733 351.022135 
L 725.127694 328.590332 
L 731.175655 332.25443 
L 737.223616 353.185283 
L 743.271577 365.382516 
L 749.319538 336.864267 
L 755.367499 354.670216 
L 761.41546 362.926139 
L 767.463421 381.312691 
L 773.511382 367.055057 
L 779.559343 408.485458 
L 785.607304 418.189953 
L 791.655265 396.306883 
L 797.703226 431.876399 
L 803.751187 412.84171 
L 809.799148 389.768428 
L 815.847109 395.682852 
L 821.89507 392.129393 
L 827.943031 343.681237 
L 833.990992 325.521258 
L 840.038953 307.11932 
L 846.086914 288.549506 
L 852.134875 306.960395 
L 858.182836 325.403469 
L 864.230797 314.74211 
L 870.278758 358.093509 
L 876.326719 379.587985 
L 882.37468 358.226037 
L 888.422641 355.931348 
L 894.470602 326.777725 
L 900.518563 349.402786 
" style="fill:none;stroke:#ff0000;stroke-linecap:square;stroke-width:1.5;"/>
   </g>
   <g id="line2d_150">
    <path clip-path="url(#p75713cc315)" d="M 531.592943 443.28851 
L 537.640904 420.572007 
L 543.688865 421.050638 
L 549.736826 432.406608 
L 555.784787 427.941913 
L 561.832748 450.690609 
L 567.880709 452.829893 
L 573.92867 430.755922 
L 579.976631 404.348484 
L 586.024592 383.631506 
L 592.072553 368.663888 
L 598.120514 375.308258 
L 604.168475 378.670506 
L 610.216436 370.77717 
L 616.264397 375.114339 
L 622.312358 370.444759 
L 628.360319 362.406981 
L 634.40828 341.424716 
L 640.456241 316.376352 
L 646.504202 302.915782 
L 652.552163 294.98422 
L 658.600124 312.737826 
L 664.648085 327.817907 
L 670.696045 317.194818 
L 676.744006 328.555624 
L 682.791967 315.324886 
L 688.839928 303.578361 
L 694.887889 313.208105 
L 700.93585 318.028832 
L 706.983811 305.735971 
L 713.031772 320.650204 
L 719.079733 343.070417 
L 725.127694 321.441649 
L 731.175655 329.23391 
L 737.223616 338.45341 
L 743.271577 351.456649 
L 749.319538 339.78229 
L 755.367499 350.294937 
L 761.41546 353.67319 
L 767.463421 357.62147 
L 773.511382 349.737031 
L 779.559343 386.358944 
L 785.607304 383.287813 
L 791.655265 358.835656 
L 797.703226 400.649564 
L 803.751187 379.622765 
L 809.799148 360.66906 
L 815.847109 364.805102 
L 821.89507 357.262694 
L 827.943031 325.685437 
L 833.990992 326.629038 
L 840.038953 307.737697 
L 846.086914 288.967975 
L 852.134875 317.941443 
L 858.182836 316.386369 
L 864.230797 312.874145 
L 870.278758 340.815223 
L 876.326719 370.298442 
L 882.37468 351.934412 
L 888.422641 347.345683 
L 894.470602 311.183357 
L 900.518563 347.245088 
" style="fill:none;stroke:#0000ff;stroke-dasharray:5.55,2.4;stroke-dashoffset:0;stroke-width:1.5;"/>
   </g>
   <g id="patch_21">
    <path d="M 513.146662 461.815017 
L 513.146662 264.14229 
" style="fill:none;stroke:#000000;stroke-linecap:square;stroke-linejoin:miter;stroke-width:0.8;"/>
   </g>
   <g id="patch_22">
    <path d="M 918.964844 461.815017 
L 918.964844 264.14229 
" style="fill:none;stroke:#000000;stroke-linecap:square;stroke-linejoin:miter;stroke-width:0.8;"/>
   </g>
   <g id="patch_23">
    <path d="M 513.146662 461.815017 
L 918.964844 461.815017 
" style="fill:none;stroke:#000000;stroke-linecap:square;stroke-linejoin:miter;stroke-width:0.8;"/>
   </g>
   <g id="patch_24">
    <path d="M 513.146662 264.14229 
L 918.964844 264.14229 
" style="fill:none;stroke:#000000;stroke-linecap:square;stroke-linejoin:miter;stroke-width:0.8;"/>
   </g>
   <g id="legend_4">
    <g id="patch_25">
     <path d="M 515.746662 260.188835 
L 916.364844 260.188835 
Q 918.964844 260.188835 918.964844 257.588835 
L 918.964844 239.807273 
Q 918.964844 237.207273 916.364844 237.207273 
L 515.746662 237.207273 
Q 513.146662 237.207273 513.146662 239.807273 
L 513.146662 257.588835 
Q 513.146662 260.188835 515.746662 260.188835 
z
" style="fill:#ffffff;opacity:0.8;stroke:#cccccc;stroke-linejoin:miter;"/>
    </g>
    <g id="line2d_151">
     <path d="M 518.346662 247.735241 
L 544.346662 247.735241 
" style="fill:none;stroke:#ff0000;stroke-linecap:square;stroke-width:1.5;"/>
    </g>
    <g id="line2d_152"/>
    <g id="text_50">
     <!-- negative (Emolex) -->
     <g transform="translate(554.746662 252.285241)scale(0.13 -0.13)">
      <use xlink:href="#DejaVuSans-6e"/>
      <use x="63.378906" xlink:href="#DejaVuSans-65"/>
      <use x="124.902344" xlink:href="#DejaVuSans-67"/>
      <use x="188.378906" xlink:href="#DejaVuSans-61"/>
      <use x="249.658203" xlink:href="#DejaVuSans-74"/>
      <use x="288.867188" xlink:href="#DejaVuSans-69"/>
      <use x="316.650391" xlink:href="#DejaVuSans-76"/>
      <use x="375.830078" xlink:href="#DejaVuSans-65"/>
      <use x="437.353516" xlink:href="#DejaVuSans-20"/>
      <use x="469.140625" xlink:href="#DejaVuSans-28"/>
      <use x="508.154297" xlink:href="#DejaVuSans-45"/>
      <use x="571.337891" xlink:href="#DejaVuSans-6d"/>
      <use x="668.75" xlink:href="#DejaVuSans-6f"/>
      <use x="729.931641" xlink:href="#DejaVuSans-6c"/>
      <use x="757.714844" xlink:href="#DejaVuSans-65"/>
      <use x="817.488281" xlink:href="#DejaVuSans-78"/>
      <use x="876.667969" xlink:href="#DejaVuSans-29"/>
     </g>
    </g>
    <g id="line2d_153">
     <path d="M 775.270156 247.735241 
L 801.270156 247.735241 
" style="fill:none;stroke:#0000ff;stroke-dasharray:5.55,2.4;stroke-dashoffset:0;stroke-width:1.5;"/>
    </g>
    <g id="line2d_154"/>
    <g id="text_51">
     <!-- EmoNeg (LIWC) -->
     <g transform="translate(811.670156 252.285241)scale(0.13 -0.13)">
      <defs>
       <path d="M 628 4666 
L 1478 4666 
L 3547 763 
L 3547 4666 
L 4159 4666 
L 4159 0 
L 3309 0 
L 1241 3903 
L 1241 0 
L 628 0 
L 628 4666 
z
" id="DejaVuSans-4e" transform="scale(0.015625)"/>
      </defs>
      <use xlink:href="#DejaVuSans-45"/>
      <use x="63.183594" xlink:href="#DejaVuSans-6d"/>
      <use x="160.595703" xlink:href="#DejaVuSans-6f"/>
      <use x="221.777344" xlink:href="#DejaVuSans-4e"/>
      <use x="296.582031" xlink:href="#DejaVuSans-65"/>
      <use x="358.105469" xlink:href="#DejaVuSans-67"/>
      <use x="421.582031" xlink:href="#DejaVuSans-20"/>
      <use x="453.369141" xlink:href="#DejaVuSans-28"/>
      <use x="492.382812" xlink:href="#DejaVuSans-4c"/>
      <use x="548.095703" xlink:href="#DejaVuSans-49"/>
      <use x="577.587891" xlink:href="#DejaVuSans-57"/>
      <use x="676.464844" xlink:href="#DejaVuSans-43"/>
      <use x="746.289062" xlink:href="#DejaVuSans-29"/>
     </g>
    </g>
   </g>
  </g>
 </g>
 <defs>
  <clipPath id="p576f4b82a8">
   <rect height="197.672727" width="405.818182" x="26.164844" y="26.935017"/>
  </clipPath>
  <clipPath id="p3d662aae65">
   <rect height="197.672727" width="405.818182" x="513.146662" y="26.935017"/>
  </clipPath>
  <clipPath id="pce92f54905">
   <rect height="197.672727" width="405.818182" x="26.164844" y="264.14229"/>
  </clipPath>
  <clipPath id="p75713cc315">
   <rect height="197.672727" width="405.818182" x="513.146662" y="264.14229"/>
  </clipPath>
 </defs>
</svg>
