<?xml version="1.0" encoding="utf-8" standalone="no"?>
<!DOCTYPE svg PUBLIC "-//W3C//DTD SVG 1.1//EN"
  "http://www.w3.org/Graphics/SVG/1.1/DTD/svg11.dtd">
<svg height="520.983227pt" version="1.1" viewBox="0 0 914.542187 520.983227" width="914.542187pt" xmlns="http://www.w3.org/2000/svg" xmlns:xlink="http://www.w3.org/1999/xlink">
 <metadata>
  <rdf:RDF xmlns:cc="http://creativecommons.org/ns#" xmlns:dc="http://purl.org/dc/elements/1.1/" xmlns:rdf="http://www.w3.org/1999/02/22-rdf-syntax-ns#">
   <cc:Work>
    <dc:type rdf:resource="http://purl.org/dc/dcmitype/StillImage"/>
    <dc:date>2021-06-30T11:49:20.587405</dc:date>
    <dc:format>image/svg+xml</dc:format>
    <dc:creator>
     <cc:Agent>
      <dc:title>Matplotlib v3.4.1, https://matplotlib.org/</dc:title>
     </cc:Agent>
    </dc:creator>
   </cc:Work>
  </rdf:RDF>
 </metadata>
 <defs>
  <style type="text/css">*{stroke-linecap:butt;stroke-linejoin:round;}</style>
 </defs>
 <g id="figure_1">
  <g id="patch_1">
   <path d="M 0 520.983227 
L 914.542187 520.983227 
L 914.542187 0 
L 0 0 
z
" style="fill:none;"/>
  </g>
  <g id="axes_1">
   <g id="patch_2">
    <path d="M 21.742188 219.304307 
L 427.560369 219.304307 
L 427.560369 21.63158 
L 21.742188 21.63158 
z
" style="fill:#ffffff;"/>
   </g>
   <g id="matplotlib.axis_1">
    <g id="xtick_1">
     <g id="line2d_1">
      <path clip-path="url(#pb5d5b958b1)" d="M 40.188468 219.304307 
L 40.188468 21.63158 
" style="fill:none;stroke:#b0b0b0;stroke-linecap:square;stroke-width:0.3;"/>
     </g>
     <g id="line2d_2">
      <defs>
       <path d="M 0 0 
L 0 3.5 
" id="m54a0bdf9b2" style="stroke:#000000;stroke-width:0.8;"/>
      </defs>
      <g>
       <use style="stroke:#000000;stroke-width:0.8;" x="40.188468" xlink:href="#m54a0bdf9b2" y="219.304307"/>
      </g>
     </g>
    </g>
    <g id="xtick_2">
     <g id="line2d_3">
      <path clip-path="url(#pb5d5b958b1)" d="M 70.428273 219.304307 
L 70.428273 21.63158 
" style="fill:none;stroke:#b0b0b0;stroke-linecap:square;stroke-width:0.3;"/>
     </g>
     <g id="line2d_4">
      <g>
       <use style="stroke:#000000;stroke-width:0.8;" x="70.428273" xlink:href="#m54a0bdf9b2" y="219.304307"/>
      </g>
     </g>
    </g>
    <g id="xtick_3">
     <g id="line2d_5">
      <path clip-path="url(#pb5d5b958b1)" d="M 100.668078 219.304307 
L 100.668078 21.63158 
" style="fill:none;stroke:#b0b0b0;stroke-linecap:square;stroke-width:0.3;"/>
     </g>
     <g id="line2d_6">
      <g>
       <use style="stroke:#000000;stroke-width:0.8;" x="100.668078" xlink:href="#m54a0bdf9b2" y="219.304307"/>
      </g>
     </g>
    </g>
    <g id="xtick_4">
     <g id="line2d_7">
      <path clip-path="url(#pb5d5b958b1)" d="M 130.907883 219.304307 
L 130.907883 21.63158 
" style="fill:none;stroke:#b0b0b0;stroke-linecap:square;stroke-width:0.3;"/>
     </g>
     <g id="line2d_8">
      <g>
       <use style="stroke:#000000;stroke-width:0.8;" x="130.907883" xlink:href="#m54a0bdf9b2" y="219.304307"/>
      </g>
     </g>
    </g>
    <g id="xtick_5">
     <g id="line2d_9">
      <path clip-path="url(#pb5d5b958b1)" d="M 161.147688 219.304307 
L 161.147688 21.63158 
" style="fill:none;stroke:#b0b0b0;stroke-linecap:square;stroke-width:0.3;"/>
     </g>
     <g id="line2d_10">
      <g>
       <use style="stroke:#000000;stroke-width:0.8;" x="161.147688" xlink:href="#m54a0bdf9b2" y="219.304307"/>
      </g>
     </g>
    </g>
    <g id="xtick_6">
     <g id="line2d_11">
      <path clip-path="url(#pb5d5b958b1)" d="M 191.387493 219.304307 
L 191.387493 21.63158 
" style="fill:none;stroke:#b0b0b0;stroke-linecap:square;stroke-width:0.3;"/>
     </g>
     <g id="line2d_12">
      <g>
       <use style="stroke:#000000;stroke-width:0.8;" x="191.387493" xlink:href="#m54a0bdf9b2" y="219.304307"/>
      </g>
     </g>
    </g>
    <g id="xtick_7">
     <g id="line2d_13">
      <path clip-path="url(#pb5d5b958b1)" d="M 221.627298 219.304307 
L 221.627298 21.63158 
" style="fill:none;stroke:#b0b0b0;stroke-linecap:square;stroke-width:0.3;"/>
     </g>
     <g id="line2d_14">
      <g>
       <use style="stroke:#000000;stroke-width:0.8;" x="221.627298" xlink:href="#m54a0bdf9b2" y="219.304307"/>
      </g>
     </g>
    </g>
    <g id="xtick_8">
     <g id="line2d_15">
      <path clip-path="url(#pb5d5b958b1)" d="M 251.867103 219.304307 
L 251.867103 21.63158 
" style="fill:none;stroke:#b0b0b0;stroke-linecap:square;stroke-width:0.3;"/>
     </g>
     <g id="line2d_16">
      <g>
       <use style="stroke:#000000;stroke-width:0.8;" x="251.867103" xlink:href="#m54a0bdf9b2" y="219.304307"/>
      </g>
     </g>
    </g>
    <g id="xtick_9">
     <g id="line2d_17">
      <path clip-path="url(#pb5d5b958b1)" d="M 282.106908 219.304307 
L 282.106908 21.63158 
" style="fill:none;stroke:#b0b0b0;stroke-linecap:square;stroke-width:0.3;"/>
     </g>
     <g id="line2d_18">
      <g>
       <use style="stroke:#000000;stroke-width:0.8;" x="282.106908" xlink:href="#m54a0bdf9b2" y="219.304307"/>
      </g>
     </g>
    </g>
    <g id="xtick_10">
     <g id="line2d_19">
      <path clip-path="url(#pb5d5b958b1)" d="M 312.346713 219.304307 
L 312.346713 21.63158 
" style="fill:none;stroke:#b0b0b0;stroke-linecap:square;stroke-width:0.3;"/>
     </g>
     <g id="line2d_20">
      <g>
       <use style="stroke:#000000;stroke-width:0.8;" x="312.346713" xlink:href="#m54a0bdf9b2" y="219.304307"/>
      </g>
     </g>
    </g>
    <g id="xtick_11">
     <g id="line2d_21">
      <path clip-path="url(#pb5d5b958b1)" d="M 342.586518 219.304307 
L 342.586518 21.63158 
" style="fill:none;stroke:#b0b0b0;stroke-linecap:square;stroke-width:0.3;"/>
     </g>
     <g id="line2d_22">
      <g>
       <use style="stroke:#000000;stroke-width:0.8;" x="342.586518" xlink:href="#m54a0bdf9b2" y="219.304307"/>
      </g>
     </g>
    </g>
    <g id="xtick_12">
     <g id="line2d_23">
      <path clip-path="url(#pb5d5b958b1)" d="M 372.826322 219.304307 
L 372.826322 21.63158 
" style="fill:none;stroke:#b0b0b0;stroke-linecap:square;stroke-width:0.3;"/>
     </g>
     <g id="line2d_24">
      <g>
       <use style="stroke:#000000;stroke-width:0.8;" x="372.826322" xlink:href="#m54a0bdf9b2" y="219.304307"/>
      </g>
     </g>
    </g>
    <g id="xtick_13">
     <g id="line2d_25">
      <path clip-path="url(#pb5d5b958b1)" d="M 403.066127 219.304307 
L 403.066127 21.63158 
" style="fill:none;stroke:#b0b0b0;stroke-linecap:square;stroke-width:0.3;"/>
     </g>
     <g id="line2d_26">
      <g>
       <use style="stroke:#000000;stroke-width:0.8;" x="403.066127" xlink:href="#m54a0bdf9b2" y="219.304307"/>
      </g>
     </g>
    </g>
   </g>
   <g id="matplotlib.axis_2">
    <g id="ytick_1">
     <g id="line2d_27">
      <path clip-path="url(#pb5d5b958b1)" d="M 21.742188 218.129702 
L 427.560369 218.129702 
" style="fill:none;stroke:#b0b0b0;stroke-linecap:square;stroke-width:0.3;"/>
     </g>
     <g id="line2d_28">
      <defs>
       <path d="M 0 0 
L -3.5 0 
" id="m6c6fe19e0f" style="stroke:#000000;stroke-width:0.8;"/>
      </defs>
      <g>
       <use style="stroke:#000000;stroke-width:0.8;" x="21.742188" xlink:href="#m6c6fe19e0f" y="218.129702"/>
      </g>
     </g>
     <g id="text_1">
      <!-- −3 -->
      <g transform="translate(0 221.928921)scale(0.1 -0.1)">
       <defs>
        <path d="M 678 2272 
L 4684 2272 
L 4684 1741 
L 678 1741 
L 678 2272 
z
" id="DejaVuSans-2212" transform="scale(0.015625)"/>
        <path d="M 2597 2516 
Q 3050 2419 3304 2112 
Q 3559 1806 3559 1356 
Q 3559 666 3084 287 
Q 2609 -91 1734 -91 
Q 1441 -91 1130 -33 
Q 819 25 488 141 
L 488 750 
Q 750 597 1062 519 
Q 1375 441 1716 441 
Q 2309 441 2620 675 
Q 2931 909 2931 1356 
Q 2931 1769 2642 2001 
Q 2353 2234 1838 2234 
L 1294 2234 
L 1294 2753 
L 1863 2753 
Q 2328 2753 2575 2939 
Q 2822 3125 2822 3475 
Q 2822 3834 2567 4026 
Q 2313 4219 1838 4219 
Q 1578 4219 1281 4162 
Q 984 4106 628 3988 
L 628 4550 
Q 988 4650 1302 4700 
Q 1616 4750 1894 4750 
Q 2613 4750 3031 4423 
Q 3450 4097 3450 3541 
Q 3450 3153 3228 2886 
Q 3006 2619 2597 2516 
z
" id="DejaVuSans-33" transform="scale(0.015625)"/>
       </defs>
       <use xlink:href="#DejaVuSans-2212"/>
       <use x="83.789062" xlink:href="#DejaVuSans-33"/>
      </g>
     </g>
    </g>
    <g id="ytick_2">
     <g id="line2d_29">
      <path clip-path="url(#pb5d5b958b1)" d="M 21.742188 180.152484 
L 427.560369 180.152484 
" style="fill:none;stroke:#b0b0b0;stroke-linecap:square;stroke-width:0.3;"/>
     </g>
     <g id="line2d_30">
      <g>
       <use style="stroke:#000000;stroke-width:0.8;" x="21.742188" xlink:href="#m6c6fe19e0f" y="180.152484"/>
      </g>
     </g>
     <g id="text_2">
      <!-- −2 -->
      <g transform="translate(0 183.951703)scale(0.1 -0.1)">
       <defs>
        <path d="M 1228 531 
L 3431 531 
L 3431 0 
L 469 0 
L 469 531 
Q 828 903 1448 1529 
Q 2069 2156 2228 2338 
Q 2531 2678 2651 2914 
Q 2772 3150 2772 3378 
Q 2772 3750 2511 3984 
Q 2250 4219 1831 4219 
Q 1534 4219 1204 4116 
Q 875 4013 500 3803 
L 500 4441 
Q 881 4594 1212 4672 
Q 1544 4750 1819 4750 
Q 2544 4750 2975 4387 
Q 3406 4025 3406 3419 
Q 3406 3131 3298 2873 
Q 3191 2616 2906 2266 
Q 2828 2175 2409 1742 
Q 1991 1309 1228 531 
z
" id="DejaVuSans-32" transform="scale(0.015625)"/>
       </defs>
       <use xlink:href="#DejaVuSans-2212"/>
       <use x="83.789062" xlink:href="#DejaVuSans-32"/>
      </g>
     </g>
    </g>
    <g id="ytick_3">
     <g id="line2d_31">
      <path clip-path="url(#pb5d5b958b1)" d="M 21.742188 142.175266 
L 427.560369 142.175266 
" style="fill:none;stroke:#b0b0b0;stroke-linecap:square;stroke-width:0.3;"/>
     </g>
     <g id="line2d_32">
      <g>
       <use style="stroke:#000000;stroke-width:0.8;" x="21.742188" xlink:href="#m6c6fe19e0f" y="142.175266"/>
      </g>
     </g>
     <g id="text_3">
      <!-- −1 -->
      <g transform="translate(0 145.974485)scale(0.1 -0.1)">
       <defs>
        <path d="M 794 531 
L 1825 531 
L 1825 4091 
L 703 3866 
L 703 4441 
L 1819 4666 
L 2450 4666 
L 2450 531 
L 3481 531 
L 3481 0 
L 794 0 
L 794 531 
z
" id="DejaVuSans-31" transform="scale(0.015625)"/>
       </defs>
       <use xlink:href="#DejaVuSans-2212"/>
       <use x="83.789062" xlink:href="#DejaVuSans-31"/>
      </g>
     </g>
    </g>
    <g id="ytick_4">
     <g id="line2d_33">
      <path clip-path="url(#pb5d5b958b1)" d="M 21.742188 104.198048 
L 427.560369 104.198048 
" style="fill:none;stroke:#b0b0b0;stroke-linecap:square;stroke-width:0.3;"/>
     </g>
     <g id="line2d_34">
      <g>
       <use style="stroke:#000000;stroke-width:0.8;" x="21.742188" xlink:href="#m6c6fe19e0f" y="104.198048"/>
      </g>
     </g>
     <g id="text_4">
      <!-- 0 -->
      <g transform="translate(8.379688 107.997267)scale(0.1 -0.1)">
       <defs>
        <path d="M 2034 4250 
Q 1547 4250 1301 3770 
Q 1056 3291 1056 2328 
Q 1056 1369 1301 889 
Q 1547 409 2034 409 
Q 2525 409 2770 889 
Q 3016 1369 3016 2328 
Q 3016 3291 2770 3770 
Q 2525 4250 2034 4250 
z
M 2034 4750 
Q 2819 4750 3233 4129 
Q 3647 3509 3647 2328 
Q 3647 1150 3233 529 
Q 2819 -91 2034 -91 
Q 1250 -91 836 529 
Q 422 1150 422 2328 
Q 422 3509 836 4129 
Q 1250 4750 2034 4750 
z
" id="DejaVuSans-30" transform="scale(0.015625)"/>
       </defs>
       <use xlink:href="#DejaVuSans-30"/>
      </g>
     </g>
    </g>
    <g id="ytick_5">
     <g id="line2d_35">
      <path clip-path="url(#pb5d5b958b1)" d="M 21.742188 66.22083 
L 427.560369 66.22083 
" style="fill:none;stroke:#b0b0b0;stroke-linecap:square;stroke-width:0.3;"/>
     </g>
     <g id="line2d_36">
      <g>
       <use style="stroke:#000000;stroke-width:0.8;" x="21.742188" xlink:href="#m6c6fe19e0f" y="66.22083"/>
      </g>
     </g>
     <g id="text_5">
      <!-- 1 -->
      <g transform="translate(8.379688 70.020049)scale(0.1 -0.1)">
       <use xlink:href="#DejaVuSans-31"/>
      </g>
     </g>
    </g>
    <g id="ytick_6">
     <g id="line2d_37">
      <path clip-path="url(#pb5d5b958b1)" d="M 21.742188 28.243612 
L 427.560369 28.243612 
" style="fill:none;stroke:#b0b0b0;stroke-linecap:square;stroke-width:0.3;"/>
     </g>
     <g id="line2d_38">
      <g>
       <use style="stroke:#000000;stroke-width:0.8;" x="21.742188" xlink:href="#m6c6fe19e0f" y="28.243612"/>
      </g>
     </g>
     <g id="text_6">
      <!-- 2 -->
      <g transform="translate(8.379688 32.042831)scale(0.1 -0.1)">
       <use xlink:href="#DejaVuSans-32"/>
      </g>
     </g>
    </g>
   </g>
   <g id="line2d_39">
    <path clip-path="url(#pb5d5b958b1)" d="M 40.188468 185.415756 
L 46.236429 140.675405 
L 52.28439 130.259058 
L 58.332351 122.701907 
L 64.380312 193.162209 
L 70.428273 202.603555 
L 76.476234 210.319183 
L 82.524195 178.37357 
L 88.572156 152.236112 
L 94.620117 124.211532 
L 100.668078 115.636199 
L 106.716039 115.108342 
L 112.764 124.636809 
L 118.811961 115.477204 
L 124.859922 126.728491 
L 130.907883 124.714868 
L 136.955844 130.539025 
L 143.003805 105.924451 
L 149.051766 81.453893 
L 155.099727 51.071725 
L 161.147688 43.102481 
L 167.195649 64.582463 
L 173.24361 85.005022 
L 179.291571 74.742701 
L 185.339532 91.921333 
L 191.387493 79.938371 
L 197.435454 65.546698 
L 203.483415 70.525409 
L 209.531376 76.424333 
L 215.579337 67.755891 
L 221.627298 75.41382 
L 227.675259 101.62998 
L 233.72322 80.712026 
L 239.771181 78.887079 
L 245.819142 91.250625 
L 251.867103 98.401274 
L 257.915064 96.387929 
L 263.963025 93.334969 
L 270.010986 92.072299 
L 276.058947 96.168271 
L 282.106908 97.19183 
L 288.154869 128.997774 
L 294.20283 132.497735 
L 300.250791 108.184301 
L 306.298752 146.281753 
L 312.346713 135.710677 
L 318.394674 120.941894 
L 324.442635 127.467526 
L 330.490596 114.024335 
L 336.538557 94.2317 
L 342.586518 81.046426 
L 348.634479 59.507699 
L 354.682439 30.616704 
L 360.7304 63.143588 
L 366.778361 60.339991 
L 372.826322 43.950943 
L 378.874283 87.103219 
L 384.922244 113.517376 
L 390.970205 99.645618 
L 397.018166 96.008639 
L 403.066127 58.395485 
L 409.114088 106.421494 
" style="fill:none;stroke:#ff0000;stroke-linecap:square;stroke-width:1.5;"/>
   </g>
   <g id="line2d_40">
    <path clip-path="url(#pb5d5b958b1)" d="M 40.188468 179.251926 
L 46.236429 150.599823 
L 52.28439 164.039365 
L 58.332351 162.612247 
L 64.380312 185.015277 
L 70.428273 199.226124 
L 76.476234 193.662426 
L 82.524195 167.828487 
L 88.572156 155.653457 
L 94.620117 137.322309 
L 100.668078 126.182811 
L 106.716039 134.061221 
L 112.764 131.616525 
L 118.811961 131.02622 
L 124.859922 135.254262 
L 130.907883 133.49978 
L 136.955844 121.381818 
L 143.003805 106.880651 
L 149.051766 70.243643 
L 155.099727 47.697028 
L 161.147688 49.446101 
L 167.195649 75.472714 
L 173.24361 80.749159 
L 179.291571 63.248534 
L 185.339532 77.002274 
L 191.387493 64.54613 
L 197.435454 57.490502 
L 203.483415 71.156991 
L 209.531376 72.924302 
L 215.579337 60.003963 
L 221.627298 78.470226 
L 227.675259 95.879302 
L 233.72322 69.329908 
L 239.771181 81.223931 
L 245.819142 86.99046 
L 251.867103 98.803258 
L 257.915064 100.023603 
L 263.963025 96.570591 
L 270.010986 96.228605 
L 276.058947 101.892937 
L 282.106908 98.486224 
L 288.154869 123.839742 
L 294.20283 126.338486 
L 300.250791 108.161783 
L 306.298752 133.351735 
L 312.346713 123.974277 
L 318.394674 108.244436 
L 324.442635 105.957839 
L 330.490596 91.784546 
L 336.538557 73.897803 
L 342.586518 81.049052 
L 348.634479 60.472241 
L 354.682439 38.635094 
L 360.7304 71.841998 
L 366.778361 66.585623 
L 372.826322 56.640392 
L 378.874283 88.661099 
L 384.922244 113.16896 
L 390.970205 94.46167 
L 397.018166 104.105042 
L 403.066127 68.716803 
L 409.114088 111.395234 
" style="fill:none;stroke:#0000ff;stroke-dasharray:5.55,2.4;stroke-dashoffset:0;stroke-width:1.5;"/>
   </g>
   <g id="patch_3">
    <path d="M 21.742188 219.304307 
L 21.742188 21.63158 
" style="fill:none;stroke:#000000;stroke-linecap:square;stroke-linejoin:miter;stroke-width:0.8;"/>
   </g>
   <g id="patch_4">
    <path d="M 427.560369 219.304307 
L 427.560369 21.63158 
" style="fill:none;stroke:#000000;stroke-linecap:square;stroke-linejoin:miter;stroke-width:0.8;"/>
   </g>
   <g id="patch_5">
    <path d="M 21.742188 219.304307 
L 427.560369 219.304307 
" style="fill:none;stroke:#000000;stroke-linecap:square;stroke-linejoin:miter;stroke-width:0.8;"/>
   </g>
   <g id="patch_6">
    <path d="M 21.742188 21.63158 
L 427.560369 21.63158 
" style="fill:none;stroke:#000000;stroke-linecap:square;stroke-linejoin:miter;stroke-width:0.8;"/>
   </g>
   <g id="legend_1">
    <g id="patch_7">
     <path d="M 23.742188 17.678125 
L 425.560369 17.678125 
Q 427.560369 17.678125 427.560369 15.678125 
L 427.560369 2 
Q 427.560369 -0 425.560369 -0 
L 23.742188 -0 
Q 21.742188 -0 21.742188 2 
L 21.742188 15.678125 
Q 21.742188 17.678125 23.742188 17.678125 
z
" style="fill:#ffffff;opacity:0.8;stroke:#cccccc;stroke-linejoin:miter;"/>
    </g>
    <g id="line2d_41">
     <path d="M 25.742188 8.098437 
L 45.742188 8.098437 
" style="fill:none;stroke:#ff0000;stroke-linecap:square;stroke-width:1.5;"/>
    </g>
    <g id="line2d_42"/>
    <g id="text_7">
     <!-- anger (Emolex) -->
     <g transform="translate(53.742188 11.598437)scale(0.1 -0.1)">
      <defs>
       <path d="M 2194 1759 
Q 1497 1759 1228 1600 
Q 959 1441 959 1056 
Q 959 750 1161 570 
Q 1363 391 1709 391 
Q 2188 391 2477 730 
Q 2766 1069 2766 1631 
L 2766 1759 
L 2194 1759 
z
M 3341 1997 
L 3341 0 
L 2766 0 
L 2766 531 
Q 2569 213 2275 61 
Q 1981 -91 1556 -91 
Q 1019 -91 701 211 
Q 384 513 384 1019 
Q 384 1609 779 1909 
Q 1175 2209 1959 2209 
L 2766 2209 
L 2766 2266 
Q 2766 2663 2505 2880 
Q 2244 3097 1772 3097 
Q 1472 3097 1187 3025 
Q 903 2953 641 2809 
L 641 3341 
Q 956 3463 1253 3523 
Q 1550 3584 1831 3584 
Q 2591 3584 2966 3190 
Q 3341 2797 3341 1997 
z
" id="DejaVuSans-61" transform="scale(0.015625)"/>
       <path d="M 3513 2113 
L 3513 0 
L 2938 0 
L 2938 2094 
Q 2938 2591 2744 2837 
Q 2550 3084 2163 3084 
Q 1697 3084 1428 2787 
Q 1159 2491 1159 1978 
L 1159 0 
L 581 0 
L 581 3500 
L 1159 3500 
L 1159 2956 
Q 1366 3272 1645 3428 
Q 1925 3584 2291 3584 
Q 2894 3584 3203 3211 
Q 3513 2838 3513 2113 
z
" id="DejaVuSans-6e" transform="scale(0.015625)"/>
       <path d="M 2906 1791 
Q 2906 2416 2648 2759 
Q 2391 3103 1925 3103 
Q 1463 3103 1205 2759 
Q 947 2416 947 1791 
Q 947 1169 1205 825 
Q 1463 481 1925 481 
Q 2391 481 2648 825 
Q 2906 1169 2906 1791 
z
M 3481 434 
Q 3481 -459 3084 -895 
Q 2688 -1331 1869 -1331 
Q 1566 -1331 1297 -1286 
Q 1028 -1241 775 -1147 
L 775 -588 
Q 1028 -725 1275 -790 
Q 1522 -856 1778 -856 
Q 2344 -856 2625 -561 
Q 2906 -266 2906 331 
L 2906 616 
Q 2728 306 2450 153 
Q 2172 0 1784 0 
Q 1141 0 747 490 
Q 353 981 353 1791 
Q 353 2603 747 3093 
Q 1141 3584 1784 3584 
Q 2172 3584 2450 3431 
Q 2728 3278 2906 2969 
L 2906 3500 
L 3481 3500 
L 3481 434 
z
" id="DejaVuSans-67" transform="scale(0.015625)"/>
       <path d="M 3597 1894 
L 3597 1613 
L 953 1613 
Q 991 1019 1311 708 
Q 1631 397 2203 397 
Q 2534 397 2845 478 
Q 3156 559 3463 722 
L 3463 178 
Q 3153 47 2828 -22 
Q 2503 -91 2169 -91 
Q 1331 -91 842 396 
Q 353 884 353 1716 
Q 353 2575 817 3079 
Q 1281 3584 2069 3584 
Q 2775 3584 3186 3129 
Q 3597 2675 3597 1894 
z
M 3022 2063 
Q 3016 2534 2758 2815 
Q 2500 3097 2075 3097 
Q 1594 3097 1305 2825 
Q 1016 2553 972 2059 
L 3022 2063 
z
" id="DejaVuSans-65" transform="scale(0.015625)"/>
       <path d="M 2631 2963 
Q 2534 3019 2420 3045 
Q 2306 3072 2169 3072 
Q 1681 3072 1420 2755 
Q 1159 2438 1159 1844 
L 1159 0 
L 581 0 
L 581 3500 
L 1159 3500 
L 1159 2956 
Q 1341 3275 1631 3429 
Q 1922 3584 2338 3584 
Q 2397 3584 2469 3576 
Q 2541 3569 2628 3553 
L 2631 2963 
z
" id="DejaVuSans-72" transform="scale(0.015625)"/>
       <path id="DejaVuSans-20" transform="scale(0.015625)"/>
       <path d="M 1984 4856 
Q 1566 4138 1362 3434 
Q 1159 2731 1159 2009 
Q 1159 1288 1364 580 
Q 1569 -128 1984 -844 
L 1484 -844 
Q 1016 -109 783 600 
Q 550 1309 550 2009 
Q 550 2706 781 3412 
Q 1013 4119 1484 4856 
L 1984 4856 
z
" id="DejaVuSans-28" transform="scale(0.015625)"/>
       <path d="M 628 4666 
L 3578 4666 
L 3578 4134 
L 1259 4134 
L 1259 2753 
L 3481 2753 
L 3481 2222 
L 1259 2222 
L 1259 531 
L 3634 531 
L 3634 0 
L 628 0 
L 628 4666 
z
" id="DejaVuSans-45" transform="scale(0.015625)"/>
       <path d="M 3328 2828 
Q 3544 3216 3844 3400 
Q 4144 3584 4550 3584 
Q 5097 3584 5394 3201 
Q 5691 2819 5691 2113 
L 5691 0 
L 5113 0 
L 5113 2094 
Q 5113 2597 4934 2840 
Q 4756 3084 4391 3084 
Q 3944 3084 3684 2787 
Q 3425 2491 3425 1978 
L 3425 0 
L 2847 0 
L 2847 2094 
Q 2847 2600 2669 2842 
Q 2491 3084 2119 3084 
Q 1678 3084 1418 2786 
Q 1159 2488 1159 1978 
L 1159 0 
L 581 0 
L 581 3500 
L 1159 3500 
L 1159 2956 
Q 1356 3278 1631 3431 
Q 1906 3584 2284 3584 
Q 2666 3584 2933 3390 
Q 3200 3197 3328 2828 
z
" id="DejaVuSans-6d" transform="scale(0.015625)"/>
       <path d="M 1959 3097 
Q 1497 3097 1228 2736 
Q 959 2375 959 1747 
Q 959 1119 1226 758 
Q 1494 397 1959 397 
Q 2419 397 2687 759 
Q 2956 1122 2956 1747 
Q 2956 2369 2687 2733 
Q 2419 3097 1959 3097 
z
M 1959 3584 
Q 2709 3584 3137 3096 
Q 3566 2609 3566 1747 
Q 3566 888 3137 398 
Q 2709 -91 1959 -91 
Q 1206 -91 779 398 
Q 353 888 353 1747 
Q 353 2609 779 3096 
Q 1206 3584 1959 3584 
z
" id="DejaVuSans-6f" transform="scale(0.015625)"/>
       <path d="M 603 4863 
L 1178 4863 
L 1178 0 
L 603 0 
L 603 4863 
z
" id="DejaVuSans-6c" transform="scale(0.015625)"/>
       <path d="M 3513 3500 
L 2247 1797 
L 3578 0 
L 2900 0 
L 1881 1375 
L 863 0 
L 184 0 
L 1544 1831 
L 300 3500 
L 978 3500 
L 1906 2253 
L 2834 3500 
L 3513 3500 
z
" id="DejaVuSans-78" transform="scale(0.015625)"/>
       <path d="M 513 4856 
L 1013 4856 
Q 1481 4119 1714 3412 
Q 1947 2706 1947 2009 
Q 1947 1309 1714 600 
Q 1481 -109 1013 -844 
L 513 -844 
Q 928 -128 1133 580 
Q 1338 1288 1338 2009 
Q 1338 2731 1133 3434 
Q 928 4138 513 4856 
z
" id="DejaVuSans-29" transform="scale(0.015625)"/>
      </defs>
      <use xlink:href="#DejaVuSans-61"/>
      <use x="61.279297" xlink:href="#DejaVuSans-6e"/>
      <use x="124.658203" xlink:href="#DejaVuSans-67"/>
      <use x="188.134766" xlink:href="#DejaVuSans-65"/>
      <use x="249.658203" xlink:href="#DejaVuSans-72"/>
      <use x="290.771484" xlink:href="#DejaVuSans-20"/>
      <use x="322.558594" xlink:href="#DejaVuSans-28"/>
      <use x="361.572266" xlink:href="#DejaVuSans-45"/>
      <use x="424.755859" xlink:href="#DejaVuSans-6d"/>
      <use x="522.167969" xlink:href="#DejaVuSans-6f"/>
      <use x="583.349609" xlink:href="#DejaVuSans-6c"/>
      <use x="611.132812" xlink:href="#DejaVuSans-65"/>
      <use x="670.90625" xlink:href="#DejaVuSans-78"/>
      <use x="730.085938" xlink:href="#DejaVuSans-29"/>
     </g>
    </g>
    <g id="line2d_43">
     <path d="M 324.415057 8.098437 
L 344.415057 8.098437 
" style="fill:none;stroke:#0000ff;stroke-dasharray:5.55,2.4;stroke-dashoffset:0;stroke-width:1.5;"/>
    </g>
    <g id="line2d_44"/>
    <g id="text_8">
     <!-- Enfado (LIWC) -->
     <g transform="translate(352.415057 11.598437)scale(0.1 -0.1)">
      <defs>
       <path d="M 2375 4863 
L 2375 4384 
L 1825 4384 
Q 1516 4384 1395 4259 
Q 1275 4134 1275 3809 
L 1275 3500 
L 2222 3500 
L 2222 3053 
L 1275 3053 
L 1275 0 
L 697 0 
L 697 3053 
L 147 3053 
L 147 3500 
L 697 3500 
L 697 3744 
Q 697 4328 969 4595 
Q 1241 4863 1831 4863 
L 2375 4863 
z
" id="DejaVuSans-66" transform="scale(0.015625)"/>
       <path d="M 2906 2969 
L 2906 4863 
L 3481 4863 
L 3481 0 
L 2906 0 
L 2906 525 
Q 2725 213 2448 61 
Q 2172 -91 1784 -91 
Q 1150 -91 751 415 
Q 353 922 353 1747 
Q 353 2572 751 3078 
Q 1150 3584 1784 3584 
Q 2172 3584 2448 3432 
Q 2725 3281 2906 2969 
z
M 947 1747 
Q 947 1113 1208 752 
Q 1469 391 1925 391 
Q 2381 391 2643 752 
Q 2906 1113 2906 1747 
Q 2906 2381 2643 2742 
Q 2381 3103 1925 3103 
Q 1469 3103 1208 2742 
Q 947 2381 947 1747 
z
" id="DejaVuSans-64" transform="scale(0.015625)"/>
       <path d="M 628 4666 
L 1259 4666 
L 1259 531 
L 3531 531 
L 3531 0 
L 628 0 
L 628 4666 
z
" id="DejaVuSans-4c" transform="scale(0.015625)"/>
       <path d="M 628 4666 
L 1259 4666 
L 1259 0 
L 628 0 
L 628 4666 
z
" id="DejaVuSans-49" transform="scale(0.015625)"/>
       <path d="M 213 4666 
L 850 4666 
L 1831 722 
L 2809 4666 
L 3519 4666 
L 4500 722 
L 5478 4666 
L 6119 4666 
L 4947 0 
L 4153 0 
L 3169 4050 
L 2175 0 
L 1381 0 
L 213 4666 
z
" id="DejaVuSans-57" transform="scale(0.015625)"/>
       <path d="M 4122 4306 
L 4122 3641 
Q 3803 3938 3442 4084 
Q 3081 4231 2675 4231 
Q 1875 4231 1450 3742 
Q 1025 3253 1025 2328 
Q 1025 1406 1450 917 
Q 1875 428 2675 428 
Q 3081 428 3442 575 
Q 3803 722 4122 1019 
L 4122 359 
Q 3791 134 3420 21 
Q 3050 -91 2638 -91 
Q 1578 -91 968 557 
Q 359 1206 359 2328 
Q 359 3453 968 4101 
Q 1578 4750 2638 4750 
Q 3056 4750 3426 4639 
Q 3797 4528 4122 4306 
z
" id="DejaVuSans-43" transform="scale(0.015625)"/>
      </defs>
      <use xlink:href="#DejaVuSans-45"/>
      <use x="63.183594" xlink:href="#DejaVuSans-6e"/>
      <use x="126.5625" xlink:href="#DejaVuSans-66"/>
      <use x="161.767578" xlink:href="#DejaVuSans-61"/>
      <use x="223.046875" xlink:href="#DejaVuSans-64"/>
      <use x="286.523438" xlink:href="#DejaVuSans-6f"/>
      <use x="347.705078" xlink:href="#DejaVuSans-20"/>
      <use x="379.492188" xlink:href="#DejaVuSans-28"/>
      <use x="418.505859" xlink:href="#DejaVuSans-4c"/>
      <use x="474.21875" xlink:href="#DejaVuSans-49"/>
      <use x="503.710938" xlink:href="#DejaVuSans-57"/>
      <use x="602.587891" xlink:href="#DejaVuSans-43"/>
      <use x="672.412109" xlink:href="#DejaVuSans-29"/>
     </g>
    </g>
   </g>
  </g>
  <g id="axes_2">
   <g id="patch_8">
    <path d="M 508.724006 219.304307 
L 914.542187 219.304307 
L 914.542187 21.63158 
L 508.724006 21.63158 
z
" style="fill:#ffffff;"/>
   </g>
   <g id="matplotlib.axis_3">
    <g id="xtick_14">
     <g id="line2d_45">
      <path clip-path="url(#pe8e713d99b)" d="M 527.170287 219.304307 
L 527.170287 21.63158 
" style="fill:none;stroke:#b0b0b0;stroke-linecap:square;stroke-width:0.3;"/>
     </g>
     <g id="line2d_46">
      <g>
       <use style="stroke:#000000;stroke-width:0.8;" x="527.170287" xlink:href="#m54a0bdf9b2" y="219.304307"/>
      </g>
     </g>
    </g>
    <g id="xtick_15">
     <g id="line2d_47">
      <path clip-path="url(#pe8e713d99b)" d="M 557.410092 219.304307 
L 557.410092 21.63158 
" style="fill:none;stroke:#b0b0b0;stroke-linecap:square;stroke-width:0.3;"/>
     </g>
     <g id="line2d_48">
      <g>
       <use style="stroke:#000000;stroke-width:0.8;" x="557.410092" xlink:href="#m54a0bdf9b2" y="219.304307"/>
      </g>
     </g>
    </g>
    <g id="xtick_16">
     <g id="line2d_49">
      <path clip-path="url(#pe8e713d99b)" d="M 587.649896 219.304307 
L 587.649896 21.63158 
" style="fill:none;stroke:#b0b0b0;stroke-linecap:square;stroke-width:0.3;"/>
     </g>
     <g id="line2d_50">
      <g>
       <use style="stroke:#000000;stroke-width:0.8;" x="587.649896" xlink:href="#m54a0bdf9b2" y="219.304307"/>
      </g>
     </g>
    </g>
    <g id="xtick_17">
     <g id="line2d_51">
      <path clip-path="url(#pe8e713d99b)" d="M 617.889701 219.304307 
L 617.889701 21.63158 
" style="fill:none;stroke:#b0b0b0;stroke-linecap:square;stroke-width:0.3;"/>
     </g>
     <g id="line2d_52">
      <g>
       <use style="stroke:#000000;stroke-width:0.8;" x="617.889701" xlink:href="#m54a0bdf9b2" y="219.304307"/>
      </g>
     </g>
    </g>
    <g id="xtick_18">
     <g id="line2d_53">
      <path clip-path="url(#pe8e713d99b)" d="M 648.129506 219.304307 
L 648.129506 21.63158 
" style="fill:none;stroke:#b0b0b0;stroke-linecap:square;stroke-width:0.3;"/>
     </g>
     <g id="line2d_54">
      <g>
       <use style="stroke:#000000;stroke-width:0.8;" x="648.129506" xlink:href="#m54a0bdf9b2" y="219.304307"/>
      </g>
     </g>
    </g>
    <g id="xtick_19">
     <g id="line2d_55">
      <path clip-path="url(#pe8e713d99b)" d="M 678.369311 219.304307 
L 678.369311 21.63158 
" style="fill:none;stroke:#b0b0b0;stroke-linecap:square;stroke-width:0.3;"/>
     </g>
     <g id="line2d_56">
      <g>
       <use style="stroke:#000000;stroke-width:0.8;" x="678.369311" xlink:href="#m54a0bdf9b2" y="219.304307"/>
      </g>
     </g>
    </g>
    <g id="xtick_20">
     <g id="line2d_57">
      <path clip-path="url(#pe8e713d99b)" d="M 708.609116 219.304307 
L 708.609116 21.63158 
" style="fill:none;stroke:#b0b0b0;stroke-linecap:square;stroke-width:0.3;"/>
     </g>
     <g id="line2d_58">
      <g>
       <use style="stroke:#000000;stroke-width:0.8;" x="708.609116" xlink:href="#m54a0bdf9b2" y="219.304307"/>
      </g>
     </g>
    </g>
    <g id="xtick_21">
     <g id="line2d_59">
      <path clip-path="url(#pe8e713d99b)" d="M 738.848921 219.304307 
L 738.848921 21.63158 
" style="fill:none;stroke:#b0b0b0;stroke-linecap:square;stroke-width:0.3;"/>
     </g>
     <g id="line2d_60">
      <g>
       <use style="stroke:#000000;stroke-width:0.8;" x="738.848921" xlink:href="#m54a0bdf9b2" y="219.304307"/>
      </g>
     </g>
    </g>
    <g id="xtick_22">
     <g id="line2d_61">
      <path clip-path="url(#pe8e713d99b)" d="M 769.088726 219.304307 
L 769.088726 21.63158 
" style="fill:none;stroke:#b0b0b0;stroke-linecap:square;stroke-width:0.3;"/>
     </g>
     <g id="line2d_62">
      <g>
       <use style="stroke:#000000;stroke-width:0.8;" x="769.088726" xlink:href="#m54a0bdf9b2" y="219.304307"/>
      </g>
     </g>
    </g>
    <g id="xtick_23">
     <g id="line2d_63">
      <path clip-path="url(#pe8e713d99b)" d="M 799.328531 219.304307 
L 799.328531 21.63158 
" style="fill:none;stroke:#b0b0b0;stroke-linecap:square;stroke-width:0.3;"/>
     </g>
     <g id="line2d_64">
      <g>
       <use style="stroke:#000000;stroke-width:0.8;" x="799.328531" xlink:href="#m54a0bdf9b2" y="219.304307"/>
      </g>
     </g>
    </g>
    <g id="xtick_24">
     <g id="line2d_65">
      <path clip-path="url(#pe8e713d99b)" d="M 829.568336 219.304307 
L 829.568336 21.63158 
" style="fill:none;stroke:#b0b0b0;stroke-linecap:square;stroke-width:0.3;"/>
     </g>
     <g id="line2d_66">
      <g>
       <use style="stroke:#000000;stroke-width:0.8;" x="829.568336" xlink:href="#m54a0bdf9b2" y="219.304307"/>
      </g>
     </g>
    </g>
    <g id="xtick_25">
     <g id="line2d_67">
      <path clip-path="url(#pe8e713d99b)" d="M 859.808141 219.304307 
L 859.808141 21.63158 
" style="fill:none;stroke:#b0b0b0;stroke-linecap:square;stroke-width:0.3;"/>
     </g>
     <g id="line2d_68">
      <g>
       <use style="stroke:#000000;stroke-width:0.8;" x="859.808141" xlink:href="#m54a0bdf9b2" y="219.304307"/>
      </g>
     </g>
    </g>
    <g id="xtick_26">
     <g id="line2d_69">
      <path clip-path="url(#pe8e713d99b)" d="M 890.047946 219.304307 
L 890.047946 21.63158 
" style="fill:none;stroke:#b0b0b0;stroke-linecap:square;stroke-width:0.3;"/>
     </g>
     <g id="line2d_70">
      <g>
       <use style="stroke:#000000;stroke-width:0.8;" x="890.047946" xlink:href="#m54a0bdf9b2" y="219.304307"/>
      </g>
     </g>
    </g>
   </g>
   <g id="matplotlib.axis_4">
    <g id="ytick_7">
     <g id="line2d_71">
      <path clip-path="url(#pe8e713d99b)" d="M 508.724006 213.297935 
L 914.542187 213.297935 
" style="fill:none;stroke:#b0b0b0;stroke-linecap:square;stroke-width:0.3;"/>
     </g>
     <g id="line2d_72">
      <g>
       <use style="stroke:#000000;stroke-width:0.8;" x="508.724006" xlink:href="#m6c6fe19e0f" y="213.297935"/>
      </g>
     </g>
     <g id="text_9">
      <!-- −3 -->
      <g transform="translate(486.981818 217.097154)scale(0.1 -0.1)">
       <use xlink:href="#DejaVuSans-2212"/>
       <use x="83.789062" xlink:href="#DejaVuSans-33"/>
      </g>
     </g>
    </g>
    <g id="ytick_8">
     <g id="line2d_73">
      <path clip-path="url(#pe8e713d99b)" d="M 508.724006 174.010684 
L 914.542187 174.010684 
" style="fill:none;stroke:#b0b0b0;stroke-linecap:square;stroke-width:0.3;"/>
     </g>
     <g id="line2d_74">
      <g>
       <use style="stroke:#000000;stroke-width:0.8;" x="508.724006" xlink:href="#m6c6fe19e0f" y="174.010684"/>
      </g>
     </g>
     <g id="text_10">
      <!-- −2 -->
      <g transform="translate(486.981818 177.809902)scale(0.1 -0.1)">
       <use xlink:href="#DejaVuSans-2212"/>
       <use x="83.789062" xlink:href="#DejaVuSans-32"/>
      </g>
     </g>
    </g>
    <g id="ytick_9">
     <g id="line2d_75">
      <path clip-path="url(#pe8e713d99b)" d="M 508.724006 134.723432 
L 914.542187 134.723432 
" style="fill:none;stroke:#b0b0b0;stroke-linecap:square;stroke-width:0.3;"/>
     </g>
     <g id="line2d_76">
      <g>
       <use style="stroke:#000000;stroke-width:0.8;" x="508.724006" xlink:href="#m6c6fe19e0f" y="134.723432"/>
      </g>
     </g>
     <g id="text_11">
      <!-- −1 -->
      <g transform="translate(486.981818 138.522651)scale(0.1 -0.1)">
       <use xlink:href="#DejaVuSans-2212"/>
       <use x="83.789062" xlink:href="#DejaVuSans-31"/>
      </g>
     </g>
    </g>
    <g id="ytick_10">
     <g id="line2d_77">
      <path clip-path="url(#pe8e713d99b)" d="M 508.724006 95.436181 
L 914.542187 95.436181 
" style="fill:none;stroke:#b0b0b0;stroke-linecap:square;stroke-width:0.3;"/>
     </g>
     <g id="line2d_78">
      <g>
       <use style="stroke:#000000;stroke-width:0.8;" x="508.724006" xlink:href="#m6c6fe19e0f" y="95.436181"/>
      </g>
     </g>
     <g id="text_12">
      <!-- 0 -->
      <g transform="translate(495.361506 99.235399)scale(0.1 -0.1)">
       <use xlink:href="#DejaVuSans-30"/>
      </g>
     </g>
    </g>
    <g id="ytick_11">
     <g id="line2d_79">
      <path clip-path="url(#pe8e713d99b)" d="M 508.724006 56.148929 
L 914.542187 56.148929 
" style="fill:none;stroke:#b0b0b0;stroke-linecap:square;stroke-width:0.3;"/>
     </g>
     <g id="line2d_80">
      <g>
       <use style="stroke:#000000;stroke-width:0.8;" x="508.724006" xlink:href="#m6c6fe19e0f" y="56.148929"/>
      </g>
     </g>
     <g id="text_13">
      <!-- 1 -->
      <g transform="translate(495.361506 59.948148)scale(0.1 -0.1)">
       <use xlink:href="#DejaVuSans-31"/>
      </g>
     </g>
    </g>
   </g>
   <g id="line2d_81">
    <path clip-path="url(#pe8e713d99b)" d="M 527.170287 174.321926 
L 533.218248 153.892894 
L 539.266209 178.854999 
L 545.31417 183.170519 
L 551.362131 164.477229 
L 557.410092 182.767361 
L 563.458053 196.66131 
L 569.506014 178.520002 
L 575.553975 145.312896 
L 581.601936 123.04087 
L 587.649896 110.994547 
L 593.697857 101.8133 
L 599.745818 108.052878 
L 605.793779 101.123563 
L 611.84174 110.01278 
L 617.889701 105.536656 
L 623.937662 98.943266 
L 629.985623 76.732333 
L 636.033584 72.700702 
L 642.081545 40.086014 
L 648.129506 36.538837 
L 654.177467 48.535742 
L 660.225428 65.151034 
L 666.273389 66.710375 
L 672.32135 73.935744 
L 678.369311 62.148247 
L 684.417272 52.031971 
L 690.465233 61.722083 
L 696.513194 72.353976 
L 702.561155 56.847671 
L 708.609116 62.35453 
L 714.657077 87.781592 
L 720.705038 76.597838 
L 726.752999 77.2274 
L 732.80096 95.212528 
L 738.848921 97.370146 
L 744.896882 83.727955 
L 750.944843 88.470489 
L 756.992804 94.492712 
L 763.040765 101.05596 
L 769.088726 93.725859 
L 775.136687 121.518753 
L 781.184648 118.013211 
L 787.232609 102.004119 
L 793.28057 120.568021 
L 799.328531 110.768312 
L 805.376492 102.796973 
L 811.424453 112.184602 
L 817.472414 95.577419 
L 823.520375 73.251896 
L 829.568336 61.323592 
L 835.616297 43.409003 
L 841.664258 31.239398 
L 847.712219 44.251022 
L 853.76018 60.761746 
L 859.808141 56.497882 
L 865.856102 83.863456 
L 871.904063 94.314234 
L 877.952024 83.673994 
L 883.999985 83.623749 
L 890.047946 62.01209 
L 896.095907 94.380995 
" style="fill:none;stroke:#ff0000;stroke-linecap:square;stroke-width:1.5;"/>
   </g>
   <g id="line2d_82">
    <path clip-path="url(#pe8e713d99b)" d="M 527.170287 190.860343 
L 533.218248 153.49176 
L 539.266209 144.853926 
L 545.31417 158.431566 
L 551.362131 204.027026 
L 557.410092 199.102175 
L 563.458053 210.319183 
L 569.506014 177.356252 
L 575.553975 137.237266 
L 581.601936 119.243457 
L 587.649896 102.828889 
L 593.697857 108.228893 
L 599.745818 119.645284 
L 605.793779 109.797641 
L 611.84174 107.041754 
L 617.889701 106.074717 
L 623.937662 100.688421 
L 629.985623 71.710258 
L 636.033584 54.131465 
L 642.081545 52.939819 
L 648.129506 54.64794 
L 654.177467 62.091971 
L 660.225428 77.28107 
L 666.273389 74.163994 
L 672.32135 75.469344 
L 678.369311 65.787979 
L 684.417272 52.721991 
L 690.465233 55.629779 
L 696.513194 58.902078 
L 702.561155 53.509773 
L 708.609116 64.433957 
L 714.657077 84.182596 
L 720.705038 71.483198 
L 726.752999 74.536069 
L 732.80096 76.248423 
L 738.848921 84.332596 
L 744.896882 85.423445 
L 750.944843 89.728111 
L 756.992804 103.341779 
L 763.040765 93.184726 
L 769.088726 85.543705 
L 775.136687 110.051387 
L 781.184648 87.619284 
L 787.232609 73.306681 
L 793.28057 115.06294 
L 799.328531 101.308964 
L 805.376492 98.373232 
L 811.424453 111.171519 
L 817.472414 94.010431 
L 823.520375 90.940251 
L 829.568336 83.30444 
L 835.616297 60.329022 
L 841.664258 30.616704 
L 847.712219 66.927769 
L 853.76018 67.856712 
L 859.808141 73.425877 
L 865.856102 77.346133 
L 871.904063 100.854426 
L 877.952024 94.59016 
L 883.999985 85.466129 
L 890.047946 43.805428 
L 896.095907 80.021093 
" style="fill:none;stroke:#0000ff;stroke-dasharray:5.55,2.4;stroke-dashoffset:0;stroke-width:1.5;"/>
   </g>
   <g id="patch_9">
    <path d="M 508.724006 219.304307 
L 508.724006 21.63158 
" style="fill:none;stroke:#000000;stroke-linecap:square;stroke-linejoin:miter;stroke-width:0.8;"/>
   </g>
   <g id="patch_10">
    <path d="M 914.542187 219.304307 
L 914.542187 21.63158 
" style="fill:none;stroke:#000000;stroke-linecap:square;stroke-linejoin:miter;stroke-width:0.8;"/>
   </g>
   <g id="patch_11">
    <path d="M 508.724006 219.304307 
L 914.542187 219.304307 
" style="fill:none;stroke:#000000;stroke-linecap:square;stroke-linejoin:miter;stroke-width:0.8;"/>
   </g>
   <g id="patch_12">
    <path d="M 508.724006 21.63158 
L 914.542187 21.63158 
" style="fill:none;stroke:#000000;stroke-linecap:square;stroke-linejoin:miter;stroke-width:0.8;"/>
   </g>
   <g id="legend_2">
    <g id="patch_13">
     <path d="M 510.724006 17.678125 
L 912.542187 17.678125 
Q 914.542187 17.678125 914.542187 15.678125 
L 914.542187 2 
Q 914.542187 -0 912.542187 -0 
L 510.724006 -0 
Q 508.724006 -0 508.724006 2 
L 508.724006 15.678125 
Q 508.724006 17.678125 510.724006 17.678125 
z
" style="fill:#ffffff;opacity:0.8;stroke:#cccccc;stroke-linejoin:miter;"/>
    </g>
    <g id="line2d_83">
     <path d="M 512.724006 8.098437 
L 532.724006 8.098437 
" style="fill:none;stroke:#ff0000;stroke-linecap:square;stroke-width:1.5;"/>
    </g>
    <g id="line2d_84"/>
    <g id="text_14">
     <!-- sadness (Emolex) -->
     <g transform="translate(540.724006 11.598437)scale(0.1 -0.1)">
      <defs>
       <path d="M 2834 3397 
L 2834 2853 
Q 2591 2978 2328 3040 
Q 2066 3103 1784 3103 
Q 1356 3103 1142 2972 
Q 928 2841 928 2578 
Q 928 2378 1081 2264 
Q 1234 2150 1697 2047 
L 1894 2003 
Q 2506 1872 2764 1633 
Q 3022 1394 3022 966 
Q 3022 478 2636 193 
Q 2250 -91 1575 -91 
Q 1294 -91 989 -36 
Q 684 19 347 128 
L 347 722 
Q 666 556 975 473 
Q 1284 391 1588 391 
Q 1994 391 2212 530 
Q 2431 669 2431 922 
Q 2431 1156 2273 1281 
Q 2116 1406 1581 1522 
L 1381 1569 
Q 847 1681 609 1914 
Q 372 2147 372 2553 
Q 372 3047 722 3315 
Q 1072 3584 1716 3584 
Q 2034 3584 2315 3537 
Q 2597 3491 2834 3397 
z
" id="DejaVuSans-73" transform="scale(0.015625)"/>
      </defs>
      <use xlink:href="#DejaVuSans-73"/>
      <use x="52.099609" xlink:href="#DejaVuSans-61"/>
      <use x="113.378906" xlink:href="#DejaVuSans-64"/>
      <use x="176.855469" xlink:href="#DejaVuSans-6e"/>
      <use x="240.234375" xlink:href="#DejaVuSans-65"/>
      <use x="301.757812" xlink:href="#DejaVuSans-73"/>
      <use x="353.857422" xlink:href="#DejaVuSans-73"/>
      <use x="405.957031" xlink:href="#DejaVuSans-20"/>
      <use x="437.744141" xlink:href="#DejaVuSans-28"/>
      <use x="476.757812" xlink:href="#DejaVuSans-45"/>
      <use x="539.941406" xlink:href="#DejaVuSans-6d"/>
      <use x="637.353516" xlink:href="#DejaVuSans-6f"/>
      <use x="698.535156" xlink:href="#DejaVuSans-6c"/>
      <use x="726.318359" xlink:href="#DejaVuSans-65"/>
      <use x="786.091797" xlink:href="#DejaVuSans-78"/>
      <use x="845.271484" xlink:href="#DejaVuSans-29"/>
     </g>
    </g>
    <g id="line2d_85">
     <path d="M 819.364062 8.098437 
L 839.364062 8.098437 
" style="fill:none;stroke:#0000ff;stroke-dasharray:5.55,2.4;stroke-dashoffset:0;stroke-width:1.5;"/>
    </g>
    <g id="line2d_86"/>
    <g id="text_15">
     <!-- Triste (LIWC) -->
     <g transform="translate(847.364062 11.598437)scale(0.1 -0.1)">
      <defs>
       <path d="M -19 4666 
L 3928 4666 
L 3928 4134 
L 2272 4134 
L 2272 0 
L 1638 0 
L 1638 4134 
L -19 4134 
L -19 4666 
z
" id="DejaVuSans-54" transform="scale(0.015625)"/>
       <path d="M 603 3500 
L 1178 3500 
L 1178 0 
L 603 0 
L 603 3500 
z
M 603 4863 
L 1178 4863 
L 1178 4134 
L 603 4134 
L 603 4863 
z
" id="DejaVuSans-69" transform="scale(0.015625)"/>
       <path d="M 1172 4494 
L 1172 3500 
L 2356 3500 
L 2356 3053 
L 1172 3053 
L 1172 1153 
Q 1172 725 1289 603 
Q 1406 481 1766 481 
L 2356 481 
L 2356 0 
L 1766 0 
Q 1100 0 847 248 
Q 594 497 594 1153 
L 594 3053 
L 172 3053 
L 172 3500 
L 594 3500 
L 594 4494 
L 1172 4494 
z
" id="DejaVuSans-74" transform="scale(0.015625)"/>
      </defs>
      <use xlink:href="#DejaVuSans-54"/>
      <use x="46.333984" xlink:href="#DejaVuSans-72"/>
      <use x="87.447266" xlink:href="#DejaVuSans-69"/>
      <use x="115.230469" xlink:href="#DejaVuSans-73"/>
      <use x="167.330078" xlink:href="#DejaVuSans-74"/>
      <use x="206.539062" xlink:href="#DejaVuSans-65"/>
      <use x="268.0625" xlink:href="#DejaVuSans-20"/>
      <use x="299.849609" xlink:href="#DejaVuSans-28"/>
      <use x="338.863281" xlink:href="#DejaVuSans-4c"/>
      <use x="394.576172" xlink:href="#DejaVuSans-49"/>
      <use x="424.068359" xlink:href="#DejaVuSans-57"/>
      <use x="522.945312" xlink:href="#DejaVuSans-43"/>
      <use x="592.769531" xlink:href="#DejaVuSans-29"/>
     </g>
    </g>
   </g>
  </g>
  <g id="axes_3">
   <g id="patch_14">
    <path d="M 21.742188 456.51158 
L 427.560369 456.51158 
L 427.560369 258.838852 
L 21.742188 258.838852 
z
" style="fill:#ffffff;"/>
   </g>
   <g id="matplotlib.axis_5">
    <g id="xtick_27">
     <g id="line2d_87">
      <path clip-path="url(#pfa3725b5b0)" d="M 40.188468 456.51158 
L 40.188468 258.838852 
" style="fill:none;stroke:#b0b0b0;stroke-linecap:square;stroke-width:0.3;"/>
     </g>
     <g id="line2d_88">
      <g>
       <use style="stroke:#000000;stroke-width:0.8;" x="40.188468" xlink:href="#m54a0bdf9b2" y="456.51158"/>
      </g>
     </g>
     <g id="text_16">
      <!-- 2020/01/27 -->
      <g transform="translate(32.92484 520.271932)rotate(-70)scale(0.1 -0.1)">
       <defs>
        <path d="M 1625 4666 
L 2156 4666 
L 531 -594 
L 0 -594 
L 1625 4666 
z
" id="DejaVuSans-2f" transform="scale(0.015625)"/>
        <path d="M 525 4666 
L 3525 4666 
L 3525 4397 
L 1831 0 
L 1172 0 
L 2766 4134 
L 525 4134 
L 525 4666 
z
" id="DejaVuSans-37" transform="scale(0.015625)"/>
       </defs>
       <use xlink:href="#DejaVuSans-32"/>
       <use x="63.623047" xlink:href="#DejaVuSans-30"/>
       <use x="127.246094" xlink:href="#DejaVuSans-32"/>
       <use x="190.869141" xlink:href="#DejaVuSans-30"/>
       <use x="254.492188" xlink:href="#DejaVuSans-2f"/>
       <use x="288.183594" xlink:href="#DejaVuSans-30"/>
       <use x="351.806641" xlink:href="#DejaVuSans-31"/>
       <use x="415.429688" xlink:href="#DejaVuSans-2f"/>
       <use x="449.121094" xlink:href="#DejaVuSans-32"/>
       <use x="512.744141" xlink:href="#DejaVuSans-37"/>
      </g>
     </g>
    </g>
    <g id="xtick_28">
     <g id="line2d_89">
      <path clip-path="url(#pfa3725b5b0)" d="M 70.428273 456.51158 
L 70.428273 258.838852 
" style="fill:none;stroke:#b0b0b0;stroke-linecap:square;stroke-width:0.3;"/>
     </g>
     <g id="line2d_90">
      <g>
       <use style="stroke:#000000;stroke-width:0.8;" x="70.428273" xlink:href="#m54a0bdf9b2" y="456.51158"/>
      </g>
     </g>
     <g id="text_17">
      <!-- 2020/03/02 -->
      <g transform="translate(63.164645 520.271932)rotate(-70)scale(0.1 -0.1)">
       <use xlink:href="#DejaVuSans-32"/>
       <use x="63.623047" xlink:href="#DejaVuSans-30"/>
       <use x="127.246094" xlink:href="#DejaVuSans-32"/>
       <use x="190.869141" xlink:href="#DejaVuSans-30"/>
       <use x="254.492188" xlink:href="#DejaVuSans-2f"/>
       <use x="288.183594" xlink:href="#DejaVuSans-30"/>
       <use x="351.806641" xlink:href="#DejaVuSans-33"/>
       <use x="415.429688" xlink:href="#DejaVuSans-2f"/>
       <use x="449.121094" xlink:href="#DejaVuSans-30"/>
       <use x="512.744141" xlink:href="#DejaVuSans-32"/>
      </g>
     </g>
    </g>
    <g id="xtick_29">
     <g id="line2d_91">
      <path clip-path="url(#pfa3725b5b0)" d="M 100.668078 456.51158 
L 100.668078 258.838852 
" style="fill:none;stroke:#b0b0b0;stroke-linecap:square;stroke-width:0.3;"/>
     </g>
     <g id="line2d_92">
      <g>
       <use style="stroke:#000000;stroke-width:0.8;" x="100.668078" xlink:href="#m54a0bdf9b2" y="456.51158"/>
      </g>
     </g>
     <g id="text_18">
      <!-- 2020/04/06 -->
      <g transform="translate(93.40445 520.271932)rotate(-70)scale(0.1 -0.1)">
       <defs>
        <path d="M 2419 4116 
L 825 1625 
L 2419 1625 
L 2419 4116 
z
M 2253 4666 
L 3047 4666 
L 3047 1625 
L 3713 1625 
L 3713 1100 
L 3047 1100 
L 3047 0 
L 2419 0 
L 2419 1100 
L 313 1100 
L 313 1709 
L 2253 4666 
z
" id="DejaVuSans-34" transform="scale(0.015625)"/>
        <path d="M 2113 2584 
Q 1688 2584 1439 2293 
Q 1191 2003 1191 1497 
Q 1191 994 1439 701 
Q 1688 409 2113 409 
Q 2538 409 2786 701 
Q 3034 994 3034 1497 
Q 3034 2003 2786 2293 
Q 2538 2584 2113 2584 
z
M 3366 4563 
L 3366 3988 
Q 3128 4100 2886 4159 
Q 2644 4219 2406 4219 
Q 1781 4219 1451 3797 
Q 1122 3375 1075 2522 
Q 1259 2794 1537 2939 
Q 1816 3084 2150 3084 
Q 2853 3084 3261 2657 
Q 3669 2231 3669 1497 
Q 3669 778 3244 343 
Q 2819 -91 2113 -91 
Q 1303 -91 875 529 
Q 447 1150 447 2328 
Q 447 3434 972 4092 
Q 1497 4750 2381 4750 
Q 2619 4750 2861 4703 
Q 3103 4656 3366 4563 
z
" id="DejaVuSans-36" transform="scale(0.015625)"/>
       </defs>
       <use xlink:href="#DejaVuSans-32"/>
       <use x="63.623047" xlink:href="#DejaVuSans-30"/>
       <use x="127.246094" xlink:href="#DejaVuSans-32"/>
       <use x="190.869141" xlink:href="#DejaVuSans-30"/>
       <use x="254.492188" xlink:href="#DejaVuSans-2f"/>
       <use x="288.183594" xlink:href="#DejaVuSans-30"/>
       <use x="351.806641" xlink:href="#DejaVuSans-34"/>
       <use x="415.429688" xlink:href="#DejaVuSans-2f"/>
       <use x="449.121094" xlink:href="#DejaVuSans-30"/>
       <use x="512.744141" xlink:href="#DejaVuSans-36"/>
      </g>
     </g>
    </g>
    <g id="xtick_30">
     <g id="line2d_93">
      <path clip-path="url(#pfa3725b5b0)" d="M 130.907883 456.51158 
L 130.907883 258.838852 
" style="fill:none;stroke:#b0b0b0;stroke-linecap:square;stroke-width:0.3;"/>
     </g>
     <g id="line2d_94">
      <g>
       <use style="stroke:#000000;stroke-width:0.8;" x="130.907883" xlink:href="#m54a0bdf9b2" y="456.51158"/>
      </g>
     </g>
     <g id="text_19">
      <!-- 2020/05/11 -->
      <g transform="translate(123.644255 520.271932)rotate(-70)scale(0.1 -0.1)">
       <defs>
        <path d="M 691 4666 
L 3169 4666 
L 3169 4134 
L 1269 4134 
L 1269 2991 
Q 1406 3038 1543 3061 
Q 1681 3084 1819 3084 
Q 2600 3084 3056 2656 
Q 3513 2228 3513 1497 
Q 3513 744 3044 326 
Q 2575 -91 1722 -91 
Q 1428 -91 1123 -41 
Q 819 9 494 109 
L 494 744 
Q 775 591 1075 516 
Q 1375 441 1709 441 
Q 2250 441 2565 725 
Q 2881 1009 2881 1497 
Q 2881 1984 2565 2268 
Q 2250 2553 1709 2553 
Q 1456 2553 1204 2497 
Q 953 2441 691 2322 
L 691 4666 
z
" id="DejaVuSans-35" transform="scale(0.015625)"/>
       </defs>
       <use xlink:href="#DejaVuSans-32"/>
       <use x="63.623047" xlink:href="#DejaVuSans-30"/>
       <use x="127.246094" xlink:href="#DejaVuSans-32"/>
       <use x="190.869141" xlink:href="#DejaVuSans-30"/>
       <use x="254.492188" xlink:href="#DejaVuSans-2f"/>
       <use x="288.183594" xlink:href="#DejaVuSans-30"/>
       <use x="351.806641" xlink:href="#DejaVuSans-35"/>
       <use x="415.429688" xlink:href="#DejaVuSans-2f"/>
       <use x="449.121094" xlink:href="#DejaVuSans-31"/>
       <use x="512.744141" xlink:href="#DejaVuSans-31"/>
      </g>
     </g>
    </g>
    <g id="xtick_31">
     <g id="line2d_95">
      <path clip-path="url(#pfa3725b5b0)" d="M 161.147688 456.51158 
L 161.147688 258.838852 
" style="fill:none;stroke:#b0b0b0;stroke-linecap:square;stroke-width:0.3;"/>
     </g>
     <g id="line2d_96">
      <g>
       <use style="stroke:#000000;stroke-width:0.8;" x="161.147688" xlink:href="#m54a0bdf9b2" y="456.51158"/>
      </g>
     </g>
     <g id="text_20">
      <!-- 2020/06/15 -->
      <g transform="translate(153.884059 520.271932)rotate(-70)scale(0.1 -0.1)">
       <use xlink:href="#DejaVuSans-32"/>
       <use x="63.623047" xlink:href="#DejaVuSans-30"/>
       <use x="127.246094" xlink:href="#DejaVuSans-32"/>
       <use x="190.869141" xlink:href="#DejaVuSans-30"/>
       <use x="254.492188" xlink:href="#DejaVuSans-2f"/>
       <use x="288.183594" xlink:href="#DejaVuSans-30"/>
       <use x="351.806641" xlink:href="#DejaVuSans-36"/>
       <use x="415.429688" xlink:href="#DejaVuSans-2f"/>
       <use x="449.121094" xlink:href="#DejaVuSans-31"/>
       <use x="512.744141" xlink:href="#DejaVuSans-35"/>
      </g>
     </g>
    </g>
    <g id="xtick_32">
     <g id="line2d_97">
      <path clip-path="url(#pfa3725b5b0)" d="M 191.387493 456.51158 
L 191.387493 258.838852 
" style="fill:none;stroke:#b0b0b0;stroke-linecap:square;stroke-width:0.3;"/>
     </g>
     <g id="line2d_98">
      <g>
       <use style="stroke:#000000;stroke-width:0.8;" x="191.387493" xlink:href="#m54a0bdf9b2" y="456.51158"/>
      </g>
     </g>
     <g id="text_21">
      <!-- 2020/07/20 -->
      <g transform="translate(184.123864 520.271932)rotate(-70)scale(0.1 -0.1)">
       <use xlink:href="#DejaVuSans-32"/>
       <use x="63.623047" xlink:href="#DejaVuSans-30"/>
       <use x="127.246094" xlink:href="#DejaVuSans-32"/>
       <use x="190.869141" xlink:href="#DejaVuSans-30"/>
       <use x="254.492188" xlink:href="#DejaVuSans-2f"/>
       <use x="288.183594" xlink:href="#DejaVuSans-30"/>
       <use x="351.806641" xlink:href="#DejaVuSans-37"/>
       <use x="415.429688" xlink:href="#DejaVuSans-2f"/>
       <use x="449.121094" xlink:href="#DejaVuSans-32"/>
       <use x="512.744141" xlink:href="#DejaVuSans-30"/>
      </g>
     </g>
    </g>
    <g id="xtick_33">
     <g id="line2d_99">
      <path clip-path="url(#pfa3725b5b0)" d="M 221.627298 456.51158 
L 221.627298 258.838852 
" style="fill:none;stroke:#b0b0b0;stroke-linecap:square;stroke-width:0.3;"/>
     </g>
     <g id="line2d_100">
      <g>
       <use style="stroke:#000000;stroke-width:0.8;" x="221.627298" xlink:href="#m54a0bdf9b2" y="456.51158"/>
      </g>
     </g>
     <g id="text_22">
      <!-- 2020/08/24 -->
      <g transform="translate(214.363669 520.271932)rotate(-70)scale(0.1 -0.1)">
       <defs>
        <path d="M 2034 2216 
Q 1584 2216 1326 1975 
Q 1069 1734 1069 1313 
Q 1069 891 1326 650 
Q 1584 409 2034 409 
Q 2484 409 2743 651 
Q 3003 894 3003 1313 
Q 3003 1734 2745 1975 
Q 2488 2216 2034 2216 
z
M 1403 2484 
Q 997 2584 770 2862 
Q 544 3141 544 3541 
Q 544 4100 942 4425 
Q 1341 4750 2034 4750 
Q 2731 4750 3128 4425 
Q 3525 4100 3525 3541 
Q 3525 3141 3298 2862 
Q 3072 2584 2669 2484 
Q 3125 2378 3379 2068 
Q 3634 1759 3634 1313 
Q 3634 634 3220 271 
Q 2806 -91 2034 -91 
Q 1263 -91 848 271 
Q 434 634 434 1313 
Q 434 1759 690 2068 
Q 947 2378 1403 2484 
z
M 1172 3481 
Q 1172 3119 1398 2916 
Q 1625 2713 2034 2713 
Q 2441 2713 2670 2916 
Q 2900 3119 2900 3481 
Q 2900 3844 2670 4047 
Q 2441 4250 2034 4250 
Q 1625 4250 1398 4047 
Q 1172 3844 1172 3481 
z
" id="DejaVuSans-38" transform="scale(0.015625)"/>
       </defs>
       <use xlink:href="#DejaVuSans-32"/>
       <use x="63.623047" xlink:href="#DejaVuSans-30"/>
       <use x="127.246094" xlink:href="#DejaVuSans-32"/>
       <use x="190.869141" xlink:href="#DejaVuSans-30"/>
       <use x="254.492188" xlink:href="#DejaVuSans-2f"/>
       <use x="288.183594" xlink:href="#DejaVuSans-30"/>
       <use x="351.806641" xlink:href="#DejaVuSans-38"/>
       <use x="415.429688" xlink:href="#DejaVuSans-2f"/>
       <use x="449.121094" xlink:href="#DejaVuSans-32"/>
       <use x="512.744141" xlink:href="#DejaVuSans-34"/>
      </g>
     </g>
    </g>
    <g id="xtick_34">
     <g id="line2d_101">
      <path clip-path="url(#pfa3725b5b0)" d="M 251.867103 456.51158 
L 251.867103 258.838852 
" style="fill:none;stroke:#b0b0b0;stroke-linecap:square;stroke-width:0.3;"/>
     </g>
     <g id="line2d_102">
      <g>
       <use style="stroke:#000000;stroke-width:0.8;" x="251.867103" xlink:href="#m54a0bdf9b2" y="456.51158"/>
      </g>
     </g>
     <g id="text_23">
      <!-- 2020/09/28 -->
      <g transform="translate(244.603474 520.271932)rotate(-70)scale(0.1 -0.1)">
       <defs>
        <path d="M 703 97 
L 703 672 
Q 941 559 1184 500 
Q 1428 441 1663 441 
Q 2288 441 2617 861 
Q 2947 1281 2994 2138 
Q 2813 1869 2534 1725 
Q 2256 1581 1919 1581 
Q 1219 1581 811 2004 
Q 403 2428 403 3163 
Q 403 3881 828 4315 
Q 1253 4750 1959 4750 
Q 2769 4750 3195 4129 
Q 3622 3509 3622 2328 
Q 3622 1225 3098 567 
Q 2575 -91 1691 -91 
Q 1453 -91 1209 -44 
Q 966 3 703 97 
z
M 1959 2075 
Q 2384 2075 2632 2365 
Q 2881 2656 2881 3163 
Q 2881 3666 2632 3958 
Q 2384 4250 1959 4250 
Q 1534 4250 1286 3958 
Q 1038 3666 1038 3163 
Q 1038 2656 1286 2365 
Q 1534 2075 1959 2075 
z
" id="DejaVuSans-39" transform="scale(0.015625)"/>
       </defs>
       <use xlink:href="#DejaVuSans-32"/>
       <use x="63.623047" xlink:href="#DejaVuSans-30"/>
       <use x="127.246094" xlink:href="#DejaVuSans-32"/>
       <use x="190.869141" xlink:href="#DejaVuSans-30"/>
       <use x="254.492188" xlink:href="#DejaVuSans-2f"/>
       <use x="288.183594" xlink:href="#DejaVuSans-30"/>
       <use x="351.806641" xlink:href="#DejaVuSans-39"/>
       <use x="415.429688" xlink:href="#DejaVuSans-2f"/>
       <use x="449.121094" xlink:href="#DejaVuSans-32"/>
       <use x="512.744141" xlink:href="#DejaVuSans-38"/>
      </g>
     </g>
    </g>
    <g id="xtick_35">
     <g id="line2d_103">
      <path clip-path="url(#pfa3725b5b0)" d="M 282.106908 456.51158 
L 282.106908 258.838852 
" style="fill:none;stroke:#b0b0b0;stroke-linecap:square;stroke-width:0.3;"/>
     </g>
     <g id="line2d_104">
      <g>
       <use style="stroke:#000000;stroke-width:0.8;" x="282.106908" xlink:href="#m54a0bdf9b2" y="456.51158"/>
      </g>
     </g>
     <g id="text_24">
      <!-- 2020/11/02 -->
      <g transform="translate(274.843279 520.271932)rotate(-70)scale(0.1 -0.1)">
       <use xlink:href="#DejaVuSans-32"/>
       <use x="63.623047" xlink:href="#DejaVuSans-30"/>
       <use x="127.246094" xlink:href="#DejaVuSans-32"/>
       <use x="190.869141" xlink:href="#DejaVuSans-30"/>
       <use x="254.492188" xlink:href="#DejaVuSans-2f"/>
       <use x="288.183594" xlink:href="#DejaVuSans-31"/>
       <use x="351.806641" xlink:href="#DejaVuSans-31"/>
       <use x="415.429688" xlink:href="#DejaVuSans-2f"/>
       <use x="449.121094" xlink:href="#DejaVuSans-30"/>
       <use x="512.744141" xlink:href="#DejaVuSans-32"/>
      </g>
     </g>
    </g>
    <g id="xtick_36">
     <g id="line2d_105">
      <path clip-path="url(#pfa3725b5b0)" d="M 312.346713 456.51158 
L 312.346713 258.838852 
" style="fill:none;stroke:#b0b0b0;stroke-linecap:square;stroke-width:0.3;"/>
     </g>
     <g id="line2d_106">
      <g>
       <use style="stroke:#000000;stroke-width:0.8;" x="312.346713" xlink:href="#m54a0bdf9b2" y="456.51158"/>
      </g>
     </g>
     <g id="text_25">
      <!-- 2020/12/07 -->
      <g transform="translate(305.083084 520.271932)rotate(-70)scale(0.1 -0.1)">
       <use xlink:href="#DejaVuSans-32"/>
       <use x="63.623047" xlink:href="#DejaVuSans-30"/>
       <use x="127.246094" xlink:href="#DejaVuSans-32"/>
       <use x="190.869141" xlink:href="#DejaVuSans-30"/>
       <use x="254.492188" xlink:href="#DejaVuSans-2f"/>
       <use x="288.183594" xlink:href="#DejaVuSans-31"/>
       <use x="351.806641" xlink:href="#DejaVuSans-32"/>
       <use x="415.429688" xlink:href="#DejaVuSans-2f"/>
       <use x="449.121094" xlink:href="#DejaVuSans-30"/>
       <use x="512.744141" xlink:href="#DejaVuSans-37"/>
      </g>
     </g>
    </g>
    <g id="xtick_37">
     <g id="line2d_107">
      <path clip-path="url(#pfa3725b5b0)" d="M 342.586518 456.51158 
L 342.586518 258.838852 
" style="fill:none;stroke:#b0b0b0;stroke-linecap:square;stroke-width:0.3;"/>
     </g>
     <g id="line2d_108">
      <g>
       <use style="stroke:#000000;stroke-width:0.8;" x="342.586518" xlink:href="#m54a0bdf9b2" y="456.51158"/>
      </g>
     </g>
     <g id="text_26">
      <!-- 2021/01/11 -->
      <g transform="translate(335.322889 520.271932)rotate(-70)scale(0.1 -0.1)">
       <use xlink:href="#DejaVuSans-32"/>
       <use x="63.623047" xlink:href="#DejaVuSans-30"/>
       <use x="127.246094" xlink:href="#DejaVuSans-32"/>
       <use x="190.869141" xlink:href="#DejaVuSans-31"/>
       <use x="254.492188" xlink:href="#DejaVuSans-2f"/>
       <use x="288.183594" xlink:href="#DejaVuSans-30"/>
       <use x="351.806641" xlink:href="#DejaVuSans-31"/>
       <use x="415.429688" xlink:href="#DejaVuSans-2f"/>
       <use x="449.121094" xlink:href="#DejaVuSans-31"/>
       <use x="512.744141" xlink:href="#DejaVuSans-31"/>
      </g>
     </g>
    </g>
    <g id="xtick_38">
     <g id="line2d_109">
      <path clip-path="url(#pfa3725b5b0)" d="M 372.826322 456.51158 
L 372.826322 258.838852 
" style="fill:none;stroke:#b0b0b0;stroke-linecap:square;stroke-width:0.3;"/>
     </g>
     <g id="line2d_110">
      <g>
       <use style="stroke:#000000;stroke-width:0.8;" x="372.826322" xlink:href="#m54a0bdf9b2" y="456.51158"/>
      </g>
     </g>
     <g id="text_27">
      <!-- 2021/02/15 -->
      <g transform="translate(365.562694 520.271932)rotate(-70)scale(0.1 -0.1)">
       <use xlink:href="#DejaVuSans-32"/>
       <use x="63.623047" xlink:href="#DejaVuSans-30"/>
       <use x="127.246094" xlink:href="#DejaVuSans-32"/>
       <use x="190.869141" xlink:href="#DejaVuSans-31"/>
       <use x="254.492188" xlink:href="#DejaVuSans-2f"/>
       <use x="288.183594" xlink:href="#DejaVuSans-30"/>
       <use x="351.806641" xlink:href="#DejaVuSans-32"/>
       <use x="415.429688" xlink:href="#DejaVuSans-2f"/>
       <use x="449.121094" xlink:href="#DejaVuSans-31"/>
       <use x="512.744141" xlink:href="#DejaVuSans-35"/>
      </g>
     </g>
    </g>
    <g id="xtick_39">
     <g id="line2d_111">
      <path clip-path="url(#pfa3725b5b0)" d="M 403.066127 456.51158 
L 403.066127 258.838852 
" style="fill:none;stroke:#b0b0b0;stroke-linecap:square;stroke-width:0.3;"/>
     </g>
     <g id="line2d_112">
      <g>
       <use style="stroke:#000000;stroke-width:0.8;" x="403.066127" xlink:href="#m54a0bdf9b2" y="456.51158"/>
      </g>
     </g>
     <g id="text_28">
      <!-- 2021/03/22 -->
      <g transform="translate(395.802499 520.271932)rotate(-70)scale(0.1 -0.1)">
       <use xlink:href="#DejaVuSans-32"/>
       <use x="63.623047" xlink:href="#DejaVuSans-30"/>
       <use x="127.246094" xlink:href="#DejaVuSans-32"/>
       <use x="190.869141" xlink:href="#DejaVuSans-31"/>
       <use x="254.492188" xlink:href="#DejaVuSans-2f"/>
       <use x="288.183594" xlink:href="#DejaVuSans-30"/>
       <use x="351.806641" xlink:href="#DejaVuSans-33"/>
       <use x="415.429688" xlink:href="#DejaVuSans-2f"/>
       <use x="449.121094" xlink:href="#DejaVuSans-32"/>
       <use x="512.744141" xlink:href="#DejaVuSans-32"/>
      </g>
     </g>
    </g>
   </g>
   <g id="matplotlib.axis_6">
    <g id="ytick_12">
     <g id="line2d_113">
      <path clip-path="url(#pfa3725b5b0)" d="M 21.742188 437.331855 
L 427.560369 437.331855 
" style="fill:none;stroke:#b0b0b0;stroke-linecap:square;stroke-width:0.3;"/>
     </g>
     <g id="line2d_114">
      <g>
       <use style="stroke:#000000;stroke-width:0.8;" x="21.742188" xlink:href="#m6c6fe19e0f" y="437.331855"/>
      </g>
     </g>
     <g id="text_29">
      <!-- −3 -->
      <g transform="translate(0 441.131074)scale(0.1 -0.1)">
       <use xlink:href="#DejaVuSans-2212"/>
       <use x="83.789062" xlink:href="#DejaVuSans-33"/>
      </g>
     </g>
    </g>
    <g id="ytick_13">
     <g id="line2d_115">
      <path clip-path="url(#pfa3725b5b0)" d="M 21.742188 397.298332 
L 427.560369 397.298332 
" style="fill:none;stroke:#b0b0b0;stroke-linecap:square;stroke-width:0.3;"/>
     </g>
     <g id="line2d_116">
      <g>
       <use style="stroke:#000000;stroke-width:0.8;" x="21.742188" xlink:href="#m6c6fe19e0f" y="397.298332"/>
      </g>
     </g>
     <g id="text_30">
      <!-- −2 -->
      <g transform="translate(0 401.097551)scale(0.1 -0.1)">
       <use xlink:href="#DejaVuSans-2212"/>
       <use x="83.789062" xlink:href="#DejaVuSans-32"/>
      </g>
     </g>
    </g>
    <g id="ytick_14">
     <g id="line2d_117">
      <path clip-path="url(#pfa3725b5b0)" d="M 21.742188 357.264809 
L 427.560369 357.264809 
" style="fill:none;stroke:#b0b0b0;stroke-linecap:square;stroke-width:0.3;"/>
     </g>
     <g id="line2d_118">
      <g>
       <use style="stroke:#000000;stroke-width:0.8;" x="21.742188" xlink:href="#m6c6fe19e0f" y="357.264809"/>
      </g>
     </g>
     <g id="text_31">
      <!-- −1 -->
      <g transform="translate(0 361.064028)scale(0.1 -0.1)">
       <use xlink:href="#DejaVuSans-2212"/>
       <use x="83.789062" xlink:href="#DejaVuSans-31"/>
      </g>
     </g>
    </g>
    <g id="ytick_15">
     <g id="line2d_119">
      <path clip-path="url(#pfa3725b5b0)" d="M 21.742188 317.231287 
L 427.560369 317.231287 
" style="fill:none;stroke:#b0b0b0;stroke-linecap:square;stroke-width:0.3;"/>
     </g>
     <g id="line2d_120">
      <g>
       <use style="stroke:#000000;stroke-width:0.8;" x="21.742188" xlink:href="#m6c6fe19e0f" y="317.231287"/>
      </g>
     </g>
     <g id="text_32">
      <!-- 0 -->
      <g transform="translate(8.379688 321.030505)scale(0.1 -0.1)">
       <use xlink:href="#DejaVuSans-30"/>
      </g>
     </g>
    </g>
    <g id="ytick_16">
     <g id="line2d_121">
      <path clip-path="url(#pfa3725b5b0)" d="M 21.742188 277.197764 
L 427.560369 277.197764 
" style="fill:none;stroke:#b0b0b0;stroke-linecap:square;stroke-width:0.3;"/>
     </g>
     <g id="line2d_122">
      <g>
       <use style="stroke:#000000;stroke-width:0.8;" x="21.742188" xlink:href="#m6c6fe19e0f" y="277.197764"/>
      </g>
     </g>
     <g id="text_33">
      <!-- 1 -->
      <g transform="translate(8.379688 280.996983)scale(0.1 -0.1)">
       <use xlink:href="#DejaVuSans-31"/>
      </g>
     </g>
    </g>
   </g>
   <g id="line2d_123">
    <path clip-path="url(#pfa3725b5b0)" d="M 40.188468 447.526456 
L 46.236429 406.480702 
L 52.28439 405.776469 
L 58.332351 405.124108 
L 64.380312 427.520519 
L 70.428273 422.749126 
L 76.476234 391.61358 
L 82.524195 356.121326 
L 88.572156 341.687121 
L 94.620117 322.97082 
L 100.668078 315.259222 
L 106.716039 316.103333 
L 112.764 314.935075 
L 118.811961 314.809308 
L 124.859922 308.559439 
L 130.907883 313.394265 
L 136.955844 311.183215 
L 143.003805 313.324794 
L 149.051766 314.923288 
L 155.099727 287.773886 
L 161.147688 283.760126 
L 167.195649 297.544167 
L 173.24361 308.734997 
L 179.291571 304.817212 
L 185.339532 298.708317 
L 191.387493 284.872573 
L 197.435454 287.554298 
L 203.483415 290.717271 
L 209.531376 276.33831 
L 215.579337 291.206698 
L 221.627298 294.73642 
L 227.675259 313.309429 
L 233.72322 306.46288 
L 239.771181 309.636226 
L 245.819142 323.079372 
L 251.867103 323.397484 
L 257.915064 320.166171 
L 263.963025 325.153378 
L 270.010986 326.768649 
L 276.058947 339.355115 
L 282.106908 326.423938 
L 288.154869 326.172836 
L 294.20283 339.617639 
L 300.250791 320.849673 
L 306.298752 321.531683 
L 312.346713 318.280569 
L 318.394674 296.422986 
L 324.442635 280.08118 
L 330.490596 301.573388 
L 336.538557 297.748905 
L 342.586518 288.399406 
L 348.634479 277.449317 
L 354.682439 270.683869 
L 360.7304 269.907763 
L 366.778361 280.417816 
L 372.826322 267.823976 
L 378.874283 283.715453 
L 384.922244 300.88634 
L 390.970205 289.349183 
L 397.018166 291.990517 
L 403.066127 282.787169 
L 409.114088 292.071026 
" style="fill:none;stroke:#ff0000;stroke-linecap:square;stroke-width:1.5;"/>
   </g>
   <g id="line2d_124">
    <path clip-path="url(#pfa3725b5b0)" d="M 40.188468 435.165856 
L 46.236429 408.977036 
L 52.28439 401.544566 
L 58.332351 405.218985 
L 64.380312 416.827771 
L 70.428273 424.257869 
L 76.476234 404.907771 
L 82.524195 384.682962 
L 88.572156 360.33064 
L 94.620117 349.643034 
L 100.668078 333.78196 
L 106.716039 338.590593 
L 112.764 332.528484 
L 118.811961 325.352294 
L 124.859922 325.602216 
L 130.907883 324.560944 
L 136.955844 319.548636 
L 143.003805 322.295024 
L 149.051766 325.106735 
L 155.099727 286.738498 
L 161.147688 283.104541 
L 167.195649 295.284311 
L 173.24361 299.809768 
L 179.291571 291.916862 
L 185.339532 276.098558 
L 191.387493 284.287846 
L 197.435454 286.913185 
L 203.483415 284.733616 
L 209.531376 285.605189 
L 215.579337 288.317583 
L 221.627298 292.058791 
L 227.675259 295.8228 
L 233.72322 301.650161 
L 239.771181 296.467247 
L 245.819142 310.011788 
L 251.867103 305.224445 
L 257.915064 314.096972 
L 263.963025 302.417521 
L 270.010986 307.663617 
L 276.058947 307.27597 
L 282.106908 304.904697 
L 288.154869 310.689168 
L 294.20283 319.752575 
L 300.250791 304.726429 
L 306.298752 304.385126 
L 312.346713 308.652534 
L 318.394674 295.458061 
L 324.442635 281.823429 
L 330.490596 295.644536 
L 336.538557 296.780903 
L 342.586518 298.930209 
L 348.634479 285.330725 
L 354.682439 275.13016 
L 360.7304 278.23676 
L 366.778361 287.063372 
L 372.826322 285.257127 
L 378.874283 298.693488 
L 384.922244 313.502044 
L 390.970205 302.290438 
L 397.018166 297.766681 
L 403.066127 285.824161 
L 409.114088 303.074506 
" style="fill:none;stroke:#0000ff;stroke-dasharray:5.55,2.4;stroke-dashoffset:0;stroke-width:1.5;"/>
   </g>
   <g id="patch_15">
    <path d="M 21.742188 456.51158 
L 21.742188 258.838852 
" style="fill:none;stroke:#000000;stroke-linecap:square;stroke-linejoin:miter;stroke-width:0.8;"/>
   </g>
   <g id="patch_16">
    <path d="M 427.560369 456.51158 
L 427.560369 258.838852 
" style="fill:none;stroke:#000000;stroke-linecap:square;stroke-linejoin:miter;stroke-width:0.8;"/>
   </g>
   <g id="patch_17">
    <path d="M 21.742188 456.51158 
L 427.560369 456.51158 
" style="fill:none;stroke:#000000;stroke-linecap:square;stroke-linejoin:miter;stroke-width:0.8;"/>
   </g>
   <g id="patch_18">
    <path d="M 21.742188 258.838852 
L 427.560369 258.838852 
" style="fill:none;stroke:#000000;stroke-linecap:square;stroke-linejoin:miter;stroke-width:0.8;"/>
   </g>
   <g id="legend_3">
    <g id="patch_19">
     <path d="M 23.742188 254.885398 
L 425.560369 254.885398 
Q 427.560369 254.885398 427.560369 252.885398 
L 427.560369 239.207273 
Q 427.560369 237.207273 425.560369 237.207273 
L 23.742188 237.207273 
Q 21.742188 237.207273 21.742188 239.207273 
L 21.742188 252.885398 
Q 21.742188 254.885398 23.742188 254.885398 
z
" style="fill:#ffffff;opacity:0.8;stroke:#cccccc;stroke-linejoin:miter;"/>
    </g>
    <g id="line2d_125">
     <path d="M 25.742188 245.30571 
L 45.742188 245.30571 
" style="fill:none;stroke:#ff0000;stroke-linecap:square;stroke-width:1.5;"/>
    </g>
    <g id="line2d_126"/>
    <g id="text_34">
     <!-- positive (Emolex) -->
     <g transform="translate(53.742188 248.80571)scale(0.1 -0.1)">
      <defs>
       <path d="M 1159 525 
L 1159 -1331 
L 581 -1331 
L 581 3500 
L 1159 3500 
L 1159 2969 
Q 1341 3281 1617 3432 
Q 1894 3584 2278 3584 
Q 2916 3584 3314 3078 
Q 3713 2572 3713 1747 
Q 3713 922 3314 415 
Q 2916 -91 2278 -91 
Q 1894 -91 1617 61 
Q 1341 213 1159 525 
z
M 3116 1747 
Q 3116 2381 2855 2742 
Q 2594 3103 2138 3103 
Q 1681 3103 1420 2742 
Q 1159 2381 1159 1747 
Q 1159 1113 1420 752 
Q 1681 391 2138 391 
Q 2594 391 2855 752 
Q 3116 1113 3116 1747 
z
" id="DejaVuSans-70" transform="scale(0.015625)"/>
       <path d="M 191 3500 
L 800 3500 
L 1894 563 
L 2988 3500 
L 3597 3500 
L 2284 0 
L 1503 0 
L 191 3500 
z
" id="DejaVuSans-76" transform="scale(0.015625)"/>
      </defs>
      <use xlink:href="#DejaVuSans-70"/>
      <use x="63.476562" xlink:href="#DejaVuSans-6f"/>
      <use x="124.658203" xlink:href="#DejaVuSans-73"/>
      <use x="176.757812" xlink:href="#DejaVuSans-69"/>
      <use x="204.541016" xlink:href="#DejaVuSans-74"/>
      <use x="243.75" xlink:href="#DejaVuSans-69"/>
      <use x="271.533203" xlink:href="#DejaVuSans-76"/>
      <use x="330.712891" xlink:href="#DejaVuSans-65"/>
      <use x="392.236328" xlink:href="#DejaVuSans-20"/>
      <use x="424.023438" xlink:href="#DejaVuSans-28"/>
      <use x="463.037109" xlink:href="#DejaVuSans-45"/>
      <use x="526.220703" xlink:href="#DejaVuSans-6d"/>
      <use x="623.632812" xlink:href="#DejaVuSans-6f"/>
      <use x="684.814453" xlink:href="#DejaVuSans-6c"/>
      <use x="712.597656" xlink:href="#DejaVuSans-65"/>
      <use x="772.371094" xlink:href="#DejaVuSans-78"/>
      <use x="831.550781" xlink:href="#DejaVuSans-29"/>
     </g>
    </g>
    <g id="line2d_127">
     <path d="M 320.013494 245.30571 
L 340.013494 245.30571 
" style="fill:none;stroke:#0000ff;stroke-dasharray:5.55,2.4;stroke-dashoffset:0;stroke-width:1.5;"/>
    </g>
    <g id="line2d_128"/>
    <g id="text_35">
     <!-- EmoPos (LIWC) -->
     <g transform="translate(348.013494 248.80571)scale(0.1 -0.1)">
      <defs>
       <path d="M 1259 4147 
L 1259 2394 
L 2053 2394 
Q 2494 2394 2734 2622 
Q 2975 2850 2975 3272 
Q 2975 3691 2734 3919 
Q 2494 4147 2053 4147 
L 1259 4147 
z
M 628 4666 
L 2053 4666 
Q 2838 4666 3239 4311 
Q 3641 3956 3641 3272 
Q 3641 2581 3239 2228 
Q 2838 1875 2053 1875 
L 1259 1875 
L 1259 0 
L 628 0 
L 628 4666 
z
" id="DejaVuSans-50" transform="scale(0.015625)"/>
      </defs>
      <use xlink:href="#DejaVuSans-45"/>
      <use x="63.183594" xlink:href="#DejaVuSans-6d"/>
      <use x="160.595703" xlink:href="#DejaVuSans-6f"/>
      <use x="221.777344" xlink:href="#DejaVuSans-50"/>
      <use x="278.455078" xlink:href="#DejaVuSans-6f"/>
      <use x="339.636719" xlink:href="#DejaVuSans-73"/>
      <use x="391.736328" xlink:href="#DejaVuSans-20"/>
      <use x="423.523438" xlink:href="#DejaVuSans-28"/>
      <use x="462.537109" xlink:href="#DejaVuSans-4c"/>
      <use x="518.25" xlink:href="#DejaVuSans-49"/>
      <use x="547.742188" xlink:href="#DejaVuSans-57"/>
      <use x="646.619141" xlink:href="#DejaVuSans-43"/>
      <use x="716.443359" xlink:href="#DejaVuSans-29"/>
     </g>
    </g>
   </g>
  </g>
  <g id="axes_4">
   <g id="patch_20">
    <path d="M 508.724006 456.51158 
L 914.542187 456.51158 
L 914.542187 258.838852 
L 508.724006 258.838852 
z
" style="fill:#ffffff;"/>
   </g>
   <g id="matplotlib.axis_7">
    <g id="xtick_40">
     <g id="line2d_129">
      <path clip-path="url(#pd9f5331b7c)" d="M 527.170287 456.51158 
L 527.170287 258.838852 
" style="fill:none;stroke:#b0b0b0;stroke-linecap:square;stroke-width:0.3;"/>
     </g>
     <g id="line2d_130">
      <g>
       <use style="stroke:#000000;stroke-width:0.8;" x="527.170287" xlink:href="#m54a0bdf9b2" y="456.51158"/>
      </g>
     </g>
     <g id="text_36">
      <!-- 2020/01/27 -->
      <g transform="translate(519.906658 520.271932)rotate(-70)scale(0.1 -0.1)">
       <use xlink:href="#DejaVuSans-32"/>
       <use x="63.623047" xlink:href="#DejaVuSans-30"/>
       <use x="127.246094" xlink:href="#DejaVuSans-32"/>
       <use x="190.869141" xlink:href="#DejaVuSans-30"/>
       <use x="254.492188" xlink:href="#DejaVuSans-2f"/>
       <use x="288.183594" xlink:href="#DejaVuSans-30"/>
       <use x="351.806641" xlink:href="#DejaVuSans-31"/>
       <use x="415.429688" xlink:href="#DejaVuSans-2f"/>
       <use x="449.121094" xlink:href="#DejaVuSans-32"/>
       <use x="512.744141" xlink:href="#DejaVuSans-37"/>
      </g>
     </g>
    </g>
    <g id="xtick_41">
     <g id="line2d_131">
      <path clip-path="url(#pd9f5331b7c)" d="M 557.410092 456.51158 
L 557.410092 258.838852 
" style="fill:none;stroke:#b0b0b0;stroke-linecap:square;stroke-width:0.3;"/>
     </g>
     <g id="line2d_132">
      <g>
       <use style="stroke:#000000;stroke-width:0.8;" x="557.410092" xlink:href="#m54a0bdf9b2" y="456.51158"/>
      </g>
     </g>
     <g id="text_37">
      <!-- 2020/03/02 -->
      <g transform="translate(550.146463 520.271932)rotate(-70)scale(0.1 -0.1)">
       <use xlink:href="#DejaVuSans-32"/>
       <use x="63.623047" xlink:href="#DejaVuSans-30"/>
       <use x="127.246094" xlink:href="#DejaVuSans-32"/>
       <use x="190.869141" xlink:href="#DejaVuSans-30"/>
       <use x="254.492188" xlink:href="#DejaVuSans-2f"/>
       <use x="288.183594" xlink:href="#DejaVuSans-30"/>
       <use x="351.806641" xlink:href="#DejaVuSans-33"/>
       <use x="415.429688" xlink:href="#DejaVuSans-2f"/>
       <use x="449.121094" xlink:href="#DejaVuSans-30"/>
       <use x="512.744141" xlink:href="#DejaVuSans-32"/>
      </g>
     </g>
    </g>
    <g id="xtick_42">
     <g id="line2d_133">
      <path clip-path="url(#pd9f5331b7c)" d="M 587.649896 456.51158 
L 587.649896 258.838852 
" style="fill:none;stroke:#b0b0b0;stroke-linecap:square;stroke-width:0.3;"/>
     </g>
     <g id="line2d_134">
      <g>
       <use style="stroke:#000000;stroke-width:0.8;" x="587.649896" xlink:href="#m54a0bdf9b2" y="456.51158"/>
      </g>
     </g>
     <g id="text_38">
      <!-- 2020/04/06 -->
      <g transform="translate(580.386268 520.271932)rotate(-70)scale(0.1 -0.1)">
       <use xlink:href="#DejaVuSans-32"/>
       <use x="63.623047" xlink:href="#DejaVuSans-30"/>
       <use x="127.246094" xlink:href="#DejaVuSans-32"/>
       <use x="190.869141" xlink:href="#DejaVuSans-30"/>
       <use x="254.492188" xlink:href="#DejaVuSans-2f"/>
       <use x="288.183594" xlink:href="#DejaVuSans-30"/>
       <use x="351.806641" xlink:href="#DejaVuSans-34"/>
       <use x="415.429688" xlink:href="#DejaVuSans-2f"/>
       <use x="449.121094" xlink:href="#DejaVuSans-30"/>
       <use x="512.744141" xlink:href="#DejaVuSans-36"/>
      </g>
     </g>
    </g>
    <g id="xtick_43">
     <g id="line2d_135">
      <path clip-path="url(#pd9f5331b7c)" d="M 617.889701 456.51158 
L 617.889701 258.838852 
" style="fill:none;stroke:#b0b0b0;stroke-linecap:square;stroke-width:0.3;"/>
     </g>
     <g id="line2d_136">
      <g>
       <use style="stroke:#000000;stroke-width:0.8;" x="617.889701" xlink:href="#m54a0bdf9b2" y="456.51158"/>
      </g>
     </g>
     <g id="text_39">
      <!-- 2020/05/11 -->
      <g transform="translate(610.626073 520.271932)rotate(-70)scale(0.1 -0.1)">
       <use xlink:href="#DejaVuSans-32"/>
       <use x="63.623047" xlink:href="#DejaVuSans-30"/>
       <use x="127.246094" xlink:href="#DejaVuSans-32"/>
       <use x="190.869141" xlink:href="#DejaVuSans-30"/>
       <use x="254.492188" xlink:href="#DejaVuSans-2f"/>
       <use x="288.183594" xlink:href="#DejaVuSans-30"/>
       <use x="351.806641" xlink:href="#DejaVuSans-35"/>
       <use x="415.429688" xlink:href="#DejaVuSans-2f"/>
       <use x="449.121094" xlink:href="#DejaVuSans-31"/>
       <use x="512.744141" xlink:href="#DejaVuSans-31"/>
      </g>
     </g>
    </g>
    <g id="xtick_44">
     <g id="line2d_137">
      <path clip-path="url(#pd9f5331b7c)" d="M 648.129506 456.51158 
L 648.129506 258.838852 
" style="fill:none;stroke:#b0b0b0;stroke-linecap:square;stroke-width:0.3;"/>
     </g>
     <g id="line2d_138">
      <g>
       <use style="stroke:#000000;stroke-width:0.8;" x="648.129506" xlink:href="#m54a0bdf9b2" y="456.51158"/>
      </g>
     </g>
     <g id="text_40">
      <!-- 2020/06/15 -->
      <g transform="translate(640.865878 520.271932)rotate(-70)scale(0.1 -0.1)">
       <use xlink:href="#DejaVuSans-32"/>
       <use x="63.623047" xlink:href="#DejaVuSans-30"/>
       <use x="127.246094" xlink:href="#DejaVuSans-32"/>
       <use x="190.869141" xlink:href="#DejaVuSans-30"/>
       <use x="254.492188" xlink:href="#DejaVuSans-2f"/>
       <use x="288.183594" xlink:href="#DejaVuSans-30"/>
       <use x="351.806641" xlink:href="#DejaVuSans-36"/>
       <use x="415.429688" xlink:href="#DejaVuSans-2f"/>
       <use x="449.121094" xlink:href="#DejaVuSans-31"/>
       <use x="512.744141" xlink:href="#DejaVuSans-35"/>
      </g>
     </g>
    </g>
    <g id="xtick_45">
     <g id="line2d_139">
      <path clip-path="url(#pd9f5331b7c)" d="M 678.369311 456.51158 
L 678.369311 258.838852 
" style="fill:none;stroke:#b0b0b0;stroke-linecap:square;stroke-width:0.3;"/>
     </g>
     <g id="line2d_140">
      <g>
       <use style="stroke:#000000;stroke-width:0.8;" x="678.369311" xlink:href="#m54a0bdf9b2" y="456.51158"/>
      </g>
     </g>
     <g id="text_41">
      <!-- 2020/07/20 -->
      <g transform="translate(671.105683 520.271932)rotate(-70)scale(0.1 -0.1)">
       <use xlink:href="#DejaVuSans-32"/>
       <use x="63.623047" xlink:href="#DejaVuSans-30"/>
       <use x="127.246094" xlink:href="#DejaVuSans-32"/>
       <use x="190.869141" xlink:href="#DejaVuSans-30"/>
       <use x="254.492188" xlink:href="#DejaVuSans-2f"/>
       <use x="288.183594" xlink:href="#DejaVuSans-30"/>
       <use x="351.806641" xlink:href="#DejaVuSans-37"/>
       <use x="415.429688" xlink:href="#DejaVuSans-2f"/>
       <use x="449.121094" xlink:href="#DejaVuSans-32"/>
       <use x="512.744141" xlink:href="#DejaVuSans-30"/>
      </g>
     </g>
    </g>
    <g id="xtick_46">
     <g id="line2d_141">
      <path clip-path="url(#pd9f5331b7c)" d="M 708.609116 456.51158 
L 708.609116 258.838852 
" style="fill:none;stroke:#b0b0b0;stroke-linecap:square;stroke-width:0.3;"/>
     </g>
     <g id="line2d_142">
      <g>
       <use style="stroke:#000000;stroke-width:0.8;" x="708.609116" xlink:href="#m54a0bdf9b2" y="456.51158"/>
      </g>
     </g>
     <g id="text_42">
      <!-- 2020/08/24 -->
      <g transform="translate(701.345487 520.271932)rotate(-70)scale(0.1 -0.1)">
       <use xlink:href="#DejaVuSans-32"/>
       <use x="63.623047" xlink:href="#DejaVuSans-30"/>
       <use x="127.246094" xlink:href="#DejaVuSans-32"/>
       <use x="190.869141" xlink:href="#DejaVuSans-30"/>
       <use x="254.492188" xlink:href="#DejaVuSans-2f"/>
       <use x="288.183594" xlink:href="#DejaVuSans-30"/>
       <use x="351.806641" xlink:href="#DejaVuSans-38"/>
       <use x="415.429688" xlink:href="#DejaVuSans-2f"/>
       <use x="449.121094" xlink:href="#DejaVuSans-32"/>
       <use x="512.744141" xlink:href="#DejaVuSans-34"/>
      </g>
     </g>
    </g>
    <g id="xtick_47">
     <g id="line2d_143">
      <path clip-path="url(#pd9f5331b7c)" d="M 738.848921 456.51158 
L 738.848921 258.838852 
" style="fill:none;stroke:#b0b0b0;stroke-linecap:square;stroke-width:0.3;"/>
     </g>
     <g id="line2d_144">
      <g>
       <use style="stroke:#000000;stroke-width:0.8;" x="738.848921" xlink:href="#m54a0bdf9b2" y="456.51158"/>
      </g>
     </g>
     <g id="text_43">
      <!-- 2020/09/28 -->
      <g transform="translate(731.585292 520.271932)rotate(-70)scale(0.1 -0.1)">
       <use xlink:href="#DejaVuSans-32"/>
       <use x="63.623047" xlink:href="#DejaVuSans-30"/>
       <use x="127.246094" xlink:href="#DejaVuSans-32"/>
       <use x="190.869141" xlink:href="#DejaVuSans-30"/>
       <use x="254.492188" xlink:href="#DejaVuSans-2f"/>
       <use x="288.183594" xlink:href="#DejaVuSans-30"/>
       <use x="351.806641" xlink:href="#DejaVuSans-39"/>
       <use x="415.429688" xlink:href="#DejaVuSans-2f"/>
       <use x="449.121094" xlink:href="#DejaVuSans-32"/>
       <use x="512.744141" xlink:href="#DejaVuSans-38"/>
      </g>
     </g>
    </g>
    <g id="xtick_48">
     <g id="line2d_145">
      <path clip-path="url(#pd9f5331b7c)" d="M 769.088726 456.51158 
L 769.088726 258.838852 
" style="fill:none;stroke:#b0b0b0;stroke-linecap:square;stroke-width:0.3;"/>
     </g>
     <g id="line2d_146">
      <g>
       <use style="stroke:#000000;stroke-width:0.8;" x="769.088726" xlink:href="#m54a0bdf9b2" y="456.51158"/>
      </g>
     </g>
     <g id="text_44">
      <!-- 2020/11/02 -->
      <g transform="translate(761.825097 520.271932)rotate(-70)scale(0.1 -0.1)">
       <use xlink:href="#DejaVuSans-32"/>
       <use x="63.623047" xlink:href="#DejaVuSans-30"/>
       <use x="127.246094" xlink:href="#DejaVuSans-32"/>
       <use x="190.869141" xlink:href="#DejaVuSans-30"/>
       <use x="254.492188" xlink:href="#DejaVuSans-2f"/>
       <use x="288.183594" xlink:href="#DejaVuSans-31"/>
       <use x="351.806641" xlink:href="#DejaVuSans-31"/>
       <use x="415.429688" xlink:href="#DejaVuSans-2f"/>
       <use x="449.121094" xlink:href="#DejaVuSans-30"/>
       <use x="512.744141" xlink:href="#DejaVuSans-32"/>
      </g>
     </g>
    </g>
    <g id="xtick_49">
     <g id="line2d_147">
      <path clip-path="url(#pd9f5331b7c)" d="M 799.328531 456.51158 
L 799.328531 258.838852 
" style="fill:none;stroke:#b0b0b0;stroke-linecap:square;stroke-width:0.3;"/>
     </g>
     <g id="line2d_148">
      <g>
       <use style="stroke:#000000;stroke-width:0.8;" x="799.328531" xlink:href="#m54a0bdf9b2" y="456.51158"/>
      </g>
     </g>
     <g id="text_45">
      <!-- 2020/12/07 -->
      <g transform="translate(792.064902 520.271932)rotate(-70)scale(0.1 -0.1)">
       <use xlink:href="#DejaVuSans-32"/>
       <use x="63.623047" xlink:href="#DejaVuSans-30"/>
       <use x="127.246094" xlink:href="#DejaVuSans-32"/>
       <use x="190.869141" xlink:href="#DejaVuSans-30"/>
       <use x="254.492188" xlink:href="#DejaVuSans-2f"/>
       <use x="288.183594" xlink:href="#DejaVuSans-31"/>
       <use x="351.806641" xlink:href="#DejaVuSans-32"/>
       <use x="415.429688" xlink:href="#DejaVuSans-2f"/>
       <use x="449.121094" xlink:href="#DejaVuSans-30"/>
       <use x="512.744141" xlink:href="#DejaVuSans-37"/>
      </g>
     </g>
    </g>
    <g id="xtick_50">
     <g id="line2d_149">
      <path clip-path="url(#pd9f5331b7c)" d="M 829.568336 456.51158 
L 829.568336 258.838852 
" style="fill:none;stroke:#b0b0b0;stroke-linecap:square;stroke-width:0.3;"/>
     </g>
     <g id="line2d_150">
      <g>
       <use style="stroke:#000000;stroke-width:0.8;" x="829.568336" xlink:href="#m54a0bdf9b2" y="456.51158"/>
      </g>
     </g>
     <g id="text_46">
      <!-- 2021/01/11 -->
      <g transform="translate(822.304707 520.271932)rotate(-70)scale(0.1 -0.1)">
       <use xlink:href="#DejaVuSans-32"/>
       <use x="63.623047" xlink:href="#DejaVuSans-30"/>
       <use x="127.246094" xlink:href="#DejaVuSans-32"/>
       <use x="190.869141" xlink:href="#DejaVuSans-31"/>
       <use x="254.492188" xlink:href="#DejaVuSans-2f"/>
       <use x="288.183594" xlink:href="#DejaVuSans-30"/>
       <use x="351.806641" xlink:href="#DejaVuSans-31"/>
       <use x="415.429688" xlink:href="#DejaVuSans-2f"/>
       <use x="449.121094" xlink:href="#DejaVuSans-31"/>
       <use x="512.744141" xlink:href="#DejaVuSans-31"/>
      </g>
     </g>
    </g>
    <g id="xtick_51">
     <g id="line2d_151">
      <path clip-path="url(#pd9f5331b7c)" d="M 859.808141 456.51158 
L 859.808141 258.838852 
" style="fill:none;stroke:#b0b0b0;stroke-linecap:square;stroke-width:0.3;"/>
     </g>
     <g id="line2d_152">
      <g>
       <use style="stroke:#000000;stroke-width:0.8;" x="859.808141" xlink:href="#m54a0bdf9b2" y="456.51158"/>
      </g>
     </g>
     <g id="text_47">
      <!-- 2021/02/15 -->
      <g transform="translate(852.544512 520.271932)rotate(-70)scale(0.1 -0.1)">
       <use xlink:href="#DejaVuSans-32"/>
       <use x="63.623047" xlink:href="#DejaVuSans-30"/>
       <use x="127.246094" xlink:href="#DejaVuSans-32"/>
       <use x="190.869141" xlink:href="#DejaVuSans-31"/>
       <use x="254.492188" xlink:href="#DejaVuSans-2f"/>
       <use x="288.183594" xlink:href="#DejaVuSans-30"/>
       <use x="351.806641" xlink:href="#DejaVuSans-32"/>
       <use x="415.429688" xlink:href="#DejaVuSans-2f"/>
       <use x="449.121094" xlink:href="#DejaVuSans-31"/>
       <use x="512.744141" xlink:href="#DejaVuSans-35"/>
      </g>
     </g>
    </g>
    <g id="xtick_52">
     <g id="line2d_153">
      <path clip-path="url(#pd9f5331b7c)" d="M 890.047946 456.51158 
L 890.047946 258.838852 
" style="fill:none;stroke:#b0b0b0;stroke-linecap:square;stroke-width:0.3;"/>
     </g>
     <g id="line2d_154">
      <g>
       <use style="stroke:#000000;stroke-width:0.8;" x="890.047946" xlink:href="#m54a0bdf9b2" y="456.51158"/>
      </g>
     </g>
     <g id="text_48">
      <!-- 2021/03/22 -->
      <g transform="translate(882.784317 520.271932)rotate(-70)scale(0.1 -0.1)">
       <use xlink:href="#DejaVuSans-32"/>
       <use x="63.623047" xlink:href="#DejaVuSans-30"/>
       <use x="127.246094" xlink:href="#DejaVuSans-32"/>
       <use x="190.869141" xlink:href="#DejaVuSans-31"/>
       <use x="254.492188" xlink:href="#DejaVuSans-2f"/>
       <use x="288.183594" xlink:href="#DejaVuSans-30"/>
       <use x="351.806641" xlink:href="#DejaVuSans-33"/>
       <use x="415.429688" xlink:href="#DejaVuSans-2f"/>
       <use x="449.121094" xlink:href="#DejaVuSans-32"/>
       <use x="512.744141" xlink:href="#DejaVuSans-32"/>
      </g>
     </g>
    </g>
   </g>
   <g id="matplotlib.axis_8">
    <g id="ytick_17">
     <g id="line2d_155">
      <path clip-path="url(#pd9f5331b7c)" d="M 508.724006 430.976975 
L 914.542187 430.976975 
" style="fill:none;stroke:#b0b0b0;stroke-linecap:square;stroke-width:0.3;"/>
     </g>
     <g id="line2d_156">
      <g>
       <use style="stroke:#000000;stroke-width:0.8;" x="508.724006" xlink:href="#m6c6fe19e0f" y="430.976975"/>
      </g>
     </g>
     <g id="text_49">
      <!-- −2 -->
      <g transform="translate(486.981818 434.776193)scale(0.1 -0.1)">
       <use xlink:href="#DejaVuSans-2212"/>
       <use x="83.789062" xlink:href="#DejaVuSans-32"/>
      </g>
     </g>
    </g>
    <g id="ytick_18">
     <g id="line2d_157">
      <path clip-path="url(#pd9f5331b7c)" d="M 508.724006 390.084643 
L 914.542187 390.084643 
" style="fill:none;stroke:#b0b0b0;stroke-linecap:square;stroke-width:0.3;"/>
     </g>
     <g id="line2d_158">
      <g>
       <use style="stroke:#000000;stroke-width:0.8;" x="508.724006" xlink:href="#m6c6fe19e0f" y="390.084643"/>
      </g>
     </g>
     <g id="text_50">
      <!-- −1 -->
      <g transform="translate(486.981818 393.883862)scale(0.1 -0.1)">
       <use xlink:href="#DejaVuSans-2212"/>
       <use x="83.789062" xlink:href="#DejaVuSans-31"/>
      </g>
     </g>
    </g>
    <g id="ytick_19">
     <g id="line2d_159">
      <path clip-path="url(#pd9f5331b7c)" d="M 508.724006 349.192312 
L 914.542187 349.192312 
" style="fill:none;stroke:#b0b0b0;stroke-linecap:square;stroke-width:0.3;"/>
     </g>
     <g id="line2d_160">
      <g>
       <use style="stroke:#000000;stroke-width:0.8;" x="508.724006" xlink:href="#m6c6fe19e0f" y="349.192312"/>
      </g>
     </g>
     <g id="text_51">
      <!-- 0 -->
      <g transform="translate(495.361506 352.99153)scale(0.1 -0.1)">
       <use xlink:href="#DejaVuSans-30"/>
      </g>
     </g>
    </g>
    <g id="ytick_20">
     <g id="line2d_161">
      <path clip-path="url(#pd9f5331b7c)" d="M 508.724006 308.29998 
L 914.542187 308.29998 
" style="fill:none;stroke:#b0b0b0;stroke-linecap:square;stroke-width:0.3;"/>
     </g>
     <g id="line2d_162">
      <g>
       <use style="stroke:#000000;stroke-width:0.8;" x="508.724006" xlink:href="#m6c6fe19e0f" y="308.29998"/>
      </g>
     </g>
     <g id="text_52">
      <!-- 1 -->
      <g transform="translate(495.361506 312.099199)scale(0.1 -0.1)">
       <use xlink:href="#DejaVuSans-31"/>
      </g>
     </g>
    </g>
    <g id="ytick_21">
     <g id="line2d_163">
      <path clip-path="url(#pd9f5331b7c)" d="M 508.724006 267.407649 
L 914.542187 267.407649 
" style="fill:none;stroke:#b0b0b0;stroke-linecap:square;stroke-width:0.3;"/>
     </g>
     <g id="line2d_164">
      <g>
       <use style="stroke:#000000;stroke-width:0.8;" x="508.724006" xlink:href="#m6c6fe19e0f" y="267.407649"/>
      </g>
     </g>
     <g id="text_53">
      <!-- 2 -->
      <g transform="translate(495.361506 271.206868)scale(0.1 -0.1)">
       <use xlink:href="#DejaVuSans-32"/>
      </g>
     </g>
    </g>
   </g>
   <g id="line2d_165">
    <path clip-path="url(#pd9f5331b7c)" d="M 527.170287 412.003977 
L 533.218248 401.571236 
L 539.266209 417.185661 
L 545.31417 438.419645 
L 551.362131 383.514639 
L 557.410092 402.259545 
L 563.458053 423.940193 
L 569.506014 406.932899 
L 575.553975 382.616223 
L 581.601936 356.983234 
L 587.649896 340.56198 
L 593.697857 336.542029 
L 599.745818 339.203456 
L 605.793779 338.293976 
L 611.84174 347.368941 
L 617.889701 348.404804 
L 623.937662 345.557549 
L 629.985623 325.206835 
L 636.033584 313.326709 
L 642.081545 278.752829 
L 648.129506 267.823976 
L 654.177467 295.284808 
L 660.225428 307.660359 
L 666.273389 319.493693 
L 672.32135 335.006881 
L 678.369311 309.284242 
L 684.417272 291.084831 
L 690.465233 302.139164 
L 696.513194 318.201388 
L 702.561155 302.5852 
L 708.609116 308.578163 
L 714.657077 345.718698 
L 720.705038 323.286894 
L 726.752999 326.950992 
L 732.80096 347.881846 
L 738.848921 360.079079 
L 744.896882 331.560829 
L 750.944843 349.366778 
L 756.992804 357.622702 
L 763.040765 376.009254 
L 769.088726 361.75162 
L 775.136687 403.18202 
L 781.184648 412.886516 
L 787.232609 391.003446 
L 793.28057 426.572962 
L 799.328531 407.538272 
L 805.376492 384.46499 
L 811.424453 390.379414 
L 817.472414 386.825956 
L 823.520375 338.377799 
L 829.568336 320.21782 
L 835.616297 301.815882 
L 841.664258 283.246068 
L 847.712219 301.656957 
L 853.76018 320.100031 
L 859.808141 309.438672 
L 865.856102 352.790071 
L 871.904063 374.284547 
L 877.952024 352.922599 
L 883.999985 350.627911 
L 890.047946 321.474287 
L 896.095907 344.099348 
" style="fill:none;stroke:#ff0000;stroke-linecap:square;stroke-width:1.5;"/>
   </g>
   <g id="line2d_166">
    <path clip-path="url(#pd9f5331b7c)" d="M 527.170287 437.985073 
L 533.218248 415.268569 
L 539.266209 415.7472 
L 545.31417 427.10317 
L 551.362131 422.638475 
L 557.410092 445.387171 
L 563.458053 447.526456 
L 569.506014 425.452485 
L 575.553975 399.045046 
L 581.601936 378.328068 
L 587.649896 363.36045 
L 593.697857 370.004821 
L 599.745818 373.367069 
L 605.793779 365.473732 
L 611.84174 369.810902 
L 617.889701 365.141322 
L 623.937662 357.103543 
L 629.985623 336.121279 
L 636.033584 311.072915 
L 642.081545 297.612345 
L 648.129506 289.680782 
L 654.177467 307.434388 
L 660.225428 322.51447 
L 666.273389 311.89138 
L 672.32135 323.252186 
L 678.369311 310.021449 
L 684.417272 298.274923 
L 690.465233 307.904668 
L 696.513194 312.725395 
L 702.561155 300.432534 
L 708.609116 315.346767 
L 714.657077 337.766979 
L 720.705038 316.138211 
L 726.752999 323.930472 
L 732.80096 333.149972 
L 738.848921 346.153212 
L 744.896882 334.478852 
L 750.944843 344.991499 
L 756.992804 348.369752 
L 763.040765 352.318032 
L 769.088726 344.433594 
L 775.136687 381.055507 
L 781.184648 377.984375 
L 787.232609 353.532218 
L 793.28057 395.346127 
L 799.328531 374.319328 
L 805.376492 355.365622 
L 811.424453 359.501665 
L 817.472414 351.959257 
L 823.520375 320.382 
L 829.568336 321.3256 
L 835.616297 302.434259 
L 841.664258 283.664537 
L 847.712219 312.638005 
L 853.76018 311.082931 
L 859.808141 307.570708 
L 865.856102 335.511786 
L 871.904063 364.995004 
L 877.952024 346.630975 
L 883.999985 342.042245 
L 890.047946 305.87992 
L 896.095907 341.941651 
" style="fill:none;stroke:#0000ff;stroke-dasharray:5.55,2.4;stroke-dashoffset:0;stroke-width:1.5;"/>
   </g>
   <g id="patch_21">
    <path d="M 508.724006 456.51158 
L 508.724006 258.838852 
" style="fill:none;stroke:#000000;stroke-linecap:square;stroke-linejoin:miter;stroke-width:0.8;"/>
   </g>
   <g id="patch_22">
    <path d="M 914.542187 456.51158 
L 914.542187 258.838852 
" style="fill:none;stroke:#000000;stroke-linecap:square;stroke-linejoin:miter;stroke-width:0.8;"/>
   </g>
   <g id="patch_23">
    <path d="M 508.724006 456.51158 
L 914.542187 456.51158 
" style="fill:none;stroke:#000000;stroke-linecap:square;stroke-linejoin:miter;stroke-width:0.8;"/>
   </g>
   <g id="patch_24">
    <path d="M 508.724006 258.838852 
L 914.542187 258.838852 
" style="fill:none;stroke:#000000;stroke-linecap:square;stroke-linejoin:miter;stroke-width:0.8;"/>
   </g>
   <g id="legend_4">
    <g id="patch_25">
     <path d="M 510.724006 254.885398 
L 912.542187 254.885398 
Q 914.542187 254.885398 914.542187 252.885398 
L 914.542187 239.207273 
Q 914.542187 237.207273 912.542187 237.207273 
L 510.724006 237.207273 
Q 508.724006 237.207273 508.724006 239.207273 
L 508.724006 252.885398 
Q 508.724006 254.885398 510.724006 254.885398 
z
" style="fill:#ffffff;opacity:0.8;stroke:#cccccc;stroke-linejoin:miter;"/>
    </g>
    <g id="line2d_167">
     <path d="M 512.724006 245.30571 
L 532.724006 245.30571 
" style="fill:none;stroke:#ff0000;stroke-linecap:square;stroke-width:1.5;"/>
    </g>
    <g id="line2d_168"/>
    <g id="text_54">
     <!-- negative (Emolex) -->
     <g transform="translate(540.724006 248.80571)scale(0.1 -0.1)">
      <use xlink:href="#DejaVuSans-6e"/>
      <use x="63.378906" xlink:href="#DejaVuSans-65"/>
      <use x="124.902344" xlink:href="#DejaVuSans-67"/>
      <use x="188.378906" xlink:href="#DejaVuSans-61"/>
      <use x="249.658203" xlink:href="#DejaVuSans-74"/>
      <use x="288.867188" xlink:href="#DejaVuSans-69"/>
      <use x="316.650391" xlink:href="#DejaVuSans-76"/>
      <use x="375.830078" xlink:href="#DejaVuSans-65"/>
      <use x="437.353516" xlink:href="#DejaVuSans-20"/>
      <use x="469.140625" xlink:href="#DejaVuSans-28"/>
      <use x="508.154297" xlink:href="#DejaVuSans-45"/>
      <use x="571.337891" xlink:href="#DejaVuSans-6d"/>
      <use x="668.75" xlink:href="#DejaVuSans-6f"/>
      <use x="729.931641" xlink:href="#DejaVuSans-6c"/>
      <use x="757.714844" xlink:href="#DejaVuSans-65"/>
      <use x="817.488281" xlink:href="#DejaVuSans-78"/>
      <use x="876.667969" xlink:href="#DejaVuSans-29"/>
     </g>
    </g>
    <g id="line2d_169">
     <path d="M 804.007812 245.30571 
L 824.007812 245.30571 
" style="fill:none;stroke:#0000ff;stroke-dasharray:5.55,2.4;stroke-dashoffset:0;stroke-width:1.5;"/>
    </g>
    <g id="line2d_170"/>
    <g id="text_55">
     <!-- EmoNeg (LIWC) -->
     <g transform="translate(832.007812 248.80571)scale(0.1 -0.1)">
      <defs>
       <path d="M 628 4666 
L 1478 4666 
L 3547 763 
L 3547 4666 
L 4159 4666 
L 4159 0 
L 3309 0 
L 1241 3903 
L 1241 0 
L 628 0 
L 628 4666 
z
" id="DejaVuSans-4e" transform="scale(0.015625)"/>
      </defs>
      <use xlink:href="#DejaVuSans-45"/>
      <use x="63.183594" xlink:href="#DejaVuSans-6d"/>
      <use x="160.595703" xlink:href="#DejaVuSans-6f"/>
      <use x="221.777344" xlink:href="#DejaVuSans-4e"/>
      <use x="296.582031" xlink:href="#DejaVuSans-65"/>
      <use x="358.105469" xlink:href="#DejaVuSans-67"/>
      <use x="421.582031" xlink:href="#DejaVuSans-20"/>
      <use x="453.369141" xlink:href="#DejaVuSans-28"/>
      <use x="492.382812" xlink:href="#DejaVuSans-4c"/>
      <use x="548.095703" xlink:href="#DejaVuSans-49"/>
      <use x="577.587891" xlink:href="#DejaVuSans-57"/>
      <use x="676.464844" xlink:href="#DejaVuSans-43"/>
      <use x="746.289062" xlink:href="#DejaVuSans-29"/>
     </g>
    </g>
   </g>
  </g>
 </g>
 <defs>
  <clipPath id="pb5d5b958b1">
   <rect height="197.672727" width="405.818182" x="21.742188" y="21.63158"/>
  </clipPath>
  <clipPath id="pe8e713d99b">
   <rect height="197.672727" width="405.818182" x="508.724006" y="21.63158"/>
  </clipPath>
  <clipPath id="pfa3725b5b0">
   <rect height="197.672727" width="405.818182" x="21.742188" y="258.838852"/>
  </clipPath>
  <clipPath id="pd9f5331b7c">
   <rect height="197.672727" width="405.818182" x="508.724006" y="258.838852"/>
  </clipPath>
 </defs>
</svg>
