<?xml version="1.0" encoding="utf-8" standalone="no"?>
<!DOCTYPE svg PUBLIC "-//W3C//DTD SVG 1.1//EN"
  "http://www.w3.org/Graphics/SVG/1.1/DTD/svg11.dtd">
<svg height="529.244302pt" version="1.1" viewBox="0 0 926.51875 529.244302" width="926.51875pt" xmlns="http://www.w3.org/2000/svg" xmlns:xlink="http://www.w3.org/1999/xlink">
 <metadata>
  <rdf:RDF xmlns:cc="http://creativecommons.org/ns#" xmlns:dc="http://purl.org/dc/elements/1.1/" xmlns:rdf="http://www.w3.org/1999/02/22-rdf-syntax-ns#">
   <cc:Work>
    <dc:type rdf:resource="http://purl.org/dc/dcmitype/StillImage"/>
    <dc:date>2021-07-04T12:22:46.944420</dc:date>
    <dc:format>image/svg+xml</dc:format>
    <dc:creator>
     <cc:Agent>
      <dc:title>Matplotlib v3.4.1, https://matplotlib.org/</dc:title>
     </cc:Agent>
    </dc:creator>
   </cc:Work>
  </rdf:RDF>
 </metadata>
 <defs>
  <style type="text/css">*{stroke-linecap:butt;stroke-linejoin:round;}</style>
 </defs>
 <g id="figure_1">
  <g id="patch_1">
   <path d="M 0 529.244302 
L 926.51875 529.244302 
L 926.51875 0 
L 0 0 
z
" style="fill:none;"/>
  </g>
  <g id="axes_1">
   <g id="patch_2">
    <path d="M 33.71875 465.1251 
L 926.51875 465.1251 
L 926.51875 30.2451 
L 33.71875 30.2451 
z
" style="fill:#ffffff;"/>
   </g>
   <g id="matplotlib.axis_1">
    <g id="xtick_1">
     <g id="line2d_1">
      <path clip-path="url(#p1cc9763287)" d="M 74.300568 465.1251 
L 74.300568 30.2451 
" style="fill:none;stroke:#b0b0b0;stroke-linecap:square;stroke-width:0.3;"/>
     </g>
     <g id="line2d_2">
      <defs>
       <path d="M 0 0 
L 0 3.5 
" id="m7cd80df57f" style="stroke:#000000;stroke-width:0.8;"/>
      </defs>
      <g>
       <use style="stroke:#000000;stroke-width:0.8;" x="74.300568" xlink:href="#m7cd80df57f" y="465.1251"/>
      </g>
     </g>
     <g id="text_1">
      <!-- 2020/01/27 -->
      <g transform="translate(52.188455 527.479629)rotate(-45)scale(0.12 -0.12)">
       <defs>
        <path d="M 1228 531 
L 3431 531 
L 3431 0 
L 469 0 
L 469 531 
Q 828 903 1448 1529 
Q 2069 2156 2228 2338 
Q 2531 2678 2651 2914 
Q 2772 3150 2772 3378 
Q 2772 3750 2511 3984 
Q 2250 4219 1831 4219 
Q 1534 4219 1204 4116 
Q 875 4013 500 3803 
L 500 4441 
Q 881 4594 1212 4672 
Q 1544 4750 1819 4750 
Q 2544 4750 2975 4387 
Q 3406 4025 3406 3419 
Q 3406 3131 3298 2873 
Q 3191 2616 2906 2266 
Q 2828 2175 2409 1742 
Q 1991 1309 1228 531 
z
" id="DejaVuSans-32" transform="scale(0.015625)"/>
        <path d="M 2034 4250 
Q 1547 4250 1301 3770 
Q 1056 3291 1056 2328 
Q 1056 1369 1301 889 
Q 1547 409 2034 409 
Q 2525 409 2770 889 
Q 3016 1369 3016 2328 
Q 3016 3291 2770 3770 
Q 2525 4250 2034 4250 
z
M 2034 4750 
Q 2819 4750 3233 4129 
Q 3647 3509 3647 2328 
Q 3647 1150 3233 529 
Q 2819 -91 2034 -91 
Q 1250 -91 836 529 
Q 422 1150 422 2328 
Q 422 3509 836 4129 
Q 1250 4750 2034 4750 
z
" id="DejaVuSans-30" transform="scale(0.015625)"/>
        <path d="M 1625 4666 
L 2156 4666 
L 531 -594 
L 0 -594 
L 1625 4666 
z
" id="DejaVuSans-2f" transform="scale(0.015625)"/>
        <path d="M 794 531 
L 1825 531 
L 1825 4091 
L 703 3866 
L 703 4441 
L 1819 4666 
L 2450 4666 
L 2450 531 
L 3481 531 
L 3481 0 
L 794 0 
L 794 531 
z
" id="DejaVuSans-31" transform="scale(0.015625)"/>
        <path d="M 525 4666 
L 3525 4666 
L 3525 4397 
L 1831 0 
L 1172 0 
L 2766 4134 
L 525 4134 
L 525 4666 
z
" id="DejaVuSans-37" transform="scale(0.015625)"/>
       </defs>
       <use xlink:href="#DejaVuSans-32"/>
       <use x="63.623047" xlink:href="#DejaVuSans-30"/>
       <use x="127.246094" xlink:href="#DejaVuSans-32"/>
       <use x="190.869141" xlink:href="#DejaVuSans-30"/>
       <use x="254.492188" xlink:href="#DejaVuSans-2f"/>
       <use x="288.183594" xlink:href="#DejaVuSans-30"/>
       <use x="351.806641" xlink:href="#DejaVuSans-31"/>
       <use x="415.429688" xlink:href="#DejaVuSans-2f"/>
       <use x="449.121094" xlink:href="#DejaVuSans-32"/>
       <use x="512.744141" xlink:href="#DejaVuSans-37"/>
      </g>
     </g>
    </g>
    <g id="xtick_2">
     <g id="line2d_3">
      <path clip-path="url(#p1cc9763287)" d="M 114.217111 465.1251 
L 114.217111 30.2451 
" style="fill:none;stroke:#b0b0b0;stroke-linecap:square;stroke-width:0.3;"/>
     </g>
     <g id="line2d_4">
      <g>
       <use style="stroke:#000000;stroke-width:0.8;" x="114.217111" xlink:href="#m7cd80df57f" y="465.1251"/>
      </g>
     </g>
     <g id="text_2">
      <!-- 2020/02/17 -->
      <g transform="translate(92.104998 527.479629)rotate(-45)scale(0.12 -0.12)">
       <use xlink:href="#DejaVuSans-32"/>
       <use x="63.623047" xlink:href="#DejaVuSans-30"/>
       <use x="127.246094" xlink:href="#DejaVuSans-32"/>
       <use x="190.869141" xlink:href="#DejaVuSans-30"/>
       <use x="254.492188" xlink:href="#DejaVuSans-2f"/>
       <use x="288.183594" xlink:href="#DejaVuSans-30"/>
       <use x="351.806641" xlink:href="#DejaVuSans-32"/>
       <use x="415.429688" xlink:href="#DejaVuSans-2f"/>
       <use x="449.121094" xlink:href="#DejaVuSans-31"/>
       <use x="512.744141" xlink:href="#DejaVuSans-37"/>
      </g>
     </g>
    </g>
    <g id="xtick_3">
     <g id="line2d_5">
      <path clip-path="url(#p1cc9763287)" d="M 154.133653 465.1251 
L 154.133653 30.2451 
" style="fill:none;stroke:#b0b0b0;stroke-linecap:square;stroke-width:0.3;"/>
     </g>
     <g id="line2d_6">
      <g>
       <use style="stroke:#000000;stroke-width:0.8;" x="154.133653" xlink:href="#m7cd80df57f" y="465.1251"/>
      </g>
     </g>
     <g id="text_3">
      <!-- 2020/03/09 -->
      <g transform="translate(132.02154 527.479629)rotate(-45)scale(0.12 -0.12)">
       <defs>
        <path d="M 2597 2516 
Q 3050 2419 3304 2112 
Q 3559 1806 3559 1356 
Q 3559 666 3084 287 
Q 2609 -91 1734 -91 
Q 1441 -91 1130 -33 
Q 819 25 488 141 
L 488 750 
Q 750 597 1062 519 
Q 1375 441 1716 441 
Q 2309 441 2620 675 
Q 2931 909 2931 1356 
Q 2931 1769 2642 2001 
Q 2353 2234 1838 2234 
L 1294 2234 
L 1294 2753 
L 1863 2753 
Q 2328 2753 2575 2939 
Q 2822 3125 2822 3475 
Q 2822 3834 2567 4026 
Q 2313 4219 1838 4219 
Q 1578 4219 1281 4162 
Q 984 4106 628 3988 
L 628 4550 
Q 988 4650 1302 4700 
Q 1616 4750 1894 4750 
Q 2613 4750 3031 4423 
Q 3450 4097 3450 3541 
Q 3450 3153 3228 2886 
Q 3006 2619 2597 2516 
z
" id="DejaVuSans-33" transform="scale(0.015625)"/>
        <path d="M 703 97 
L 703 672 
Q 941 559 1184 500 
Q 1428 441 1663 441 
Q 2288 441 2617 861 
Q 2947 1281 2994 2138 
Q 2813 1869 2534 1725 
Q 2256 1581 1919 1581 
Q 1219 1581 811 2004 
Q 403 2428 403 3163 
Q 403 3881 828 4315 
Q 1253 4750 1959 4750 
Q 2769 4750 3195 4129 
Q 3622 3509 3622 2328 
Q 3622 1225 3098 567 
Q 2575 -91 1691 -91 
Q 1453 -91 1209 -44 
Q 966 3 703 97 
z
M 1959 2075 
Q 2384 2075 2632 2365 
Q 2881 2656 2881 3163 
Q 2881 3666 2632 3958 
Q 2384 4250 1959 4250 
Q 1534 4250 1286 3958 
Q 1038 3666 1038 3163 
Q 1038 2656 1286 2365 
Q 1534 2075 1959 2075 
z
" id="DejaVuSans-39" transform="scale(0.015625)"/>
       </defs>
       <use xlink:href="#DejaVuSans-32"/>
       <use x="63.623047" xlink:href="#DejaVuSans-30"/>
       <use x="127.246094" xlink:href="#DejaVuSans-32"/>
       <use x="190.869141" xlink:href="#DejaVuSans-30"/>
       <use x="254.492188" xlink:href="#DejaVuSans-2f"/>
       <use x="288.183594" xlink:href="#DejaVuSans-30"/>
       <use x="351.806641" xlink:href="#DejaVuSans-33"/>
       <use x="415.429688" xlink:href="#DejaVuSans-2f"/>
       <use x="449.121094" xlink:href="#DejaVuSans-30"/>
       <use x="512.744141" xlink:href="#DejaVuSans-39"/>
      </g>
     </g>
    </g>
    <g id="xtick_4">
     <g id="line2d_7">
      <path clip-path="url(#p1cc9763287)" d="M 194.050196 465.1251 
L 194.050196 30.2451 
" style="fill:none;stroke:#b0b0b0;stroke-linecap:square;stroke-width:0.3;"/>
     </g>
     <g id="line2d_8">
      <g>
       <use style="stroke:#000000;stroke-width:0.8;" x="194.050196" xlink:href="#m7cd80df57f" y="465.1251"/>
      </g>
     </g>
     <g id="text_4">
      <!-- 2020/03/30 -->
      <g transform="translate(171.938083 527.479629)rotate(-45)scale(0.12 -0.12)">
       <use xlink:href="#DejaVuSans-32"/>
       <use x="63.623047" xlink:href="#DejaVuSans-30"/>
       <use x="127.246094" xlink:href="#DejaVuSans-32"/>
       <use x="190.869141" xlink:href="#DejaVuSans-30"/>
       <use x="254.492188" xlink:href="#DejaVuSans-2f"/>
       <use x="288.183594" xlink:href="#DejaVuSans-30"/>
       <use x="351.806641" xlink:href="#DejaVuSans-33"/>
       <use x="415.429688" xlink:href="#DejaVuSans-2f"/>
       <use x="449.121094" xlink:href="#DejaVuSans-33"/>
       <use x="512.744141" xlink:href="#DejaVuSans-30"/>
      </g>
     </g>
    </g>
    <g id="xtick_5">
     <g id="line2d_9">
      <path clip-path="url(#p1cc9763287)" d="M 233.966738 465.1251 
L 233.966738 30.2451 
" style="fill:none;stroke:#b0b0b0;stroke-linecap:square;stroke-width:0.3;"/>
     </g>
     <g id="line2d_10">
      <g>
       <use style="stroke:#000000;stroke-width:0.8;" x="233.966738" xlink:href="#m7cd80df57f" y="465.1251"/>
      </g>
     </g>
     <g id="text_5">
      <!-- 2020/04/20 -->
      <g transform="translate(211.854625 527.479629)rotate(-45)scale(0.12 -0.12)">
       <defs>
        <path d="M 2419 4116 
L 825 1625 
L 2419 1625 
L 2419 4116 
z
M 2253 4666 
L 3047 4666 
L 3047 1625 
L 3713 1625 
L 3713 1100 
L 3047 1100 
L 3047 0 
L 2419 0 
L 2419 1100 
L 313 1100 
L 313 1709 
L 2253 4666 
z
" id="DejaVuSans-34" transform="scale(0.015625)"/>
       </defs>
       <use xlink:href="#DejaVuSans-32"/>
       <use x="63.623047" xlink:href="#DejaVuSans-30"/>
       <use x="127.246094" xlink:href="#DejaVuSans-32"/>
       <use x="190.869141" xlink:href="#DejaVuSans-30"/>
       <use x="254.492188" xlink:href="#DejaVuSans-2f"/>
       <use x="288.183594" xlink:href="#DejaVuSans-30"/>
       <use x="351.806641" xlink:href="#DejaVuSans-34"/>
       <use x="415.429688" xlink:href="#DejaVuSans-2f"/>
       <use x="449.121094" xlink:href="#DejaVuSans-32"/>
       <use x="512.744141" xlink:href="#DejaVuSans-30"/>
      </g>
     </g>
    </g>
    <g id="xtick_6">
     <g id="line2d_11">
      <path clip-path="url(#p1cc9763287)" d="M 273.883281 465.1251 
L 273.883281 30.2451 
" style="fill:none;stroke:#b0b0b0;stroke-linecap:square;stroke-width:0.3;"/>
     </g>
     <g id="line2d_12">
      <g>
       <use style="stroke:#000000;stroke-width:0.8;" x="273.883281" xlink:href="#m7cd80df57f" y="465.1251"/>
      </g>
     </g>
     <g id="text_6">
      <!-- 2020/05/11 -->
      <g transform="translate(251.771168 527.479629)rotate(-45)scale(0.12 -0.12)">
       <defs>
        <path d="M 691 4666 
L 3169 4666 
L 3169 4134 
L 1269 4134 
L 1269 2991 
Q 1406 3038 1543 3061 
Q 1681 3084 1819 3084 
Q 2600 3084 3056 2656 
Q 3513 2228 3513 1497 
Q 3513 744 3044 326 
Q 2575 -91 1722 -91 
Q 1428 -91 1123 -41 
Q 819 9 494 109 
L 494 744 
Q 775 591 1075 516 
Q 1375 441 1709 441 
Q 2250 441 2565 725 
Q 2881 1009 2881 1497 
Q 2881 1984 2565 2268 
Q 2250 2553 1709 2553 
Q 1456 2553 1204 2497 
Q 953 2441 691 2322 
L 691 4666 
z
" id="DejaVuSans-35" transform="scale(0.015625)"/>
       </defs>
       <use xlink:href="#DejaVuSans-32"/>
       <use x="63.623047" xlink:href="#DejaVuSans-30"/>
       <use x="127.246094" xlink:href="#DejaVuSans-32"/>
       <use x="190.869141" xlink:href="#DejaVuSans-30"/>
       <use x="254.492188" xlink:href="#DejaVuSans-2f"/>
       <use x="288.183594" xlink:href="#DejaVuSans-30"/>
       <use x="351.806641" xlink:href="#DejaVuSans-35"/>
       <use x="415.429688" xlink:href="#DejaVuSans-2f"/>
       <use x="449.121094" xlink:href="#DejaVuSans-31"/>
       <use x="512.744141" xlink:href="#DejaVuSans-31"/>
      </g>
     </g>
    </g>
    <g id="xtick_7">
     <g id="line2d_13">
      <path clip-path="url(#p1cc9763287)" d="M 313.799823 465.1251 
L 313.799823 30.2451 
" style="fill:none;stroke:#b0b0b0;stroke-linecap:square;stroke-width:0.3;"/>
     </g>
     <g id="line2d_14">
      <g>
       <use style="stroke:#000000;stroke-width:0.8;" x="313.799823" xlink:href="#m7cd80df57f" y="465.1251"/>
      </g>
     </g>
     <g id="text_7">
      <!-- 2020/06/01 -->
      <g transform="translate(291.68771 527.479629)rotate(-45)scale(0.12 -0.12)">
       <defs>
        <path d="M 2113 2584 
Q 1688 2584 1439 2293 
Q 1191 2003 1191 1497 
Q 1191 994 1439 701 
Q 1688 409 2113 409 
Q 2538 409 2786 701 
Q 3034 994 3034 1497 
Q 3034 2003 2786 2293 
Q 2538 2584 2113 2584 
z
M 3366 4563 
L 3366 3988 
Q 3128 4100 2886 4159 
Q 2644 4219 2406 4219 
Q 1781 4219 1451 3797 
Q 1122 3375 1075 2522 
Q 1259 2794 1537 2939 
Q 1816 3084 2150 3084 
Q 2853 3084 3261 2657 
Q 3669 2231 3669 1497 
Q 3669 778 3244 343 
Q 2819 -91 2113 -91 
Q 1303 -91 875 529 
Q 447 1150 447 2328 
Q 447 3434 972 4092 
Q 1497 4750 2381 4750 
Q 2619 4750 2861 4703 
Q 3103 4656 3366 4563 
z
" id="DejaVuSans-36" transform="scale(0.015625)"/>
       </defs>
       <use xlink:href="#DejaVuSans-32"/>
       <use x="63.623047" xlink:href="#DejaVuSans-30"/>
       <use x="127.246094" xlink:href="#DejaVuSans-32"/>
       <use x="190.869141" xlink:href="#DejaVuSans-30"/>
       <use x="254.492188" xlink:href="#DejaVuSans-2f"/>
       <use x="288.183594" xlink:href="#DejaVuSans-30"/>
       <use x="351.806641" xlink:href="#DejaVuSans-36"/>
       <use x="415.429688" xlink:href="#DejaVuSans-2f"/>
       <use x="449.121094" xlink:href="#DejaVuSans-30"/>
       <use x="512.744141" xlink:href="#DejaVuSans-31"/>
      </g>
     </g>
    </g>
    <g id="xtick_8">
     <g id="line2d_15">
      <path clip-path="url(#p1cc9763287)" d="M 353.716365 465.1251 
L 353.716365 30.2451 
" style="fill:none;stroke:#b0b0b0;stroke-linecap:square;stroke-width:0.3;"/>
     </g>
     <g id="line2d_16">
      <g>
       <use style="stroke:#000000;stroke-width:0.8;" x="353.716365" xlink:href="#m7cd80df57f" y="465.1251"/>
      </g>
     </g>
     <g id="text_8">
      <!-- 2020/06/22 -->
      <g transform="translate(331.604253 527.479629)rotate(-45)scale(0.12 -0.12)">
       <use xlink:href="#DejaVuSans-32"/>
       <use x="63.623047" xlink:href="#DejaVuSans-30"/>
       <use x="127.246094" xlink:href="#DejaVuSans-32"/>
       <use x="190.869141" xlink:href="#DejaVuSans-30"/>
       <use x="254.492188" xlink:href="#DejaVuSans-2f"/>
       <use x="288.183594" xlink:href="#DejaVuSans-30"/>
       <use x="351.806641" xlink:href="#DejaVuSans-36"/>
       <use x="415.429688" xlink:href="#DejaVuSans-2f"/>
       <use x="449.121094" xlink:href="#DejaVuSans-32"/>
       <use x="512.744141" xlink:href="#DejaVuSans-32"/>
      </g>
     </g>
    </g>
    <g id="xtick_9">
     <g id="line2d_17">
      <path clip-path="url(#p1cc9763287)" d="M 393.632908 465.1251 
L 393.632908 30.2451 
" style="fill:none;stroke:#b0b0b0;stroke-linecap:square;stroke-width:0.3;"/>
     </g>
     <g id="line2d_18">
      <g>
       <use style="stroke:#000000;stroke-width:0.8;" x="393.632908" xlink:href="#m7cd80df57f" y="465.1251"/>
      </g>
     </g>
     <g id="text_9">
      <!-- 2020/07/13 -->
      <g transform="translate(371.520795 527.479629)rotate(-45)scale(0.12 -0.12)">
       <use xlink:href="#DejaVuSans-32"/>
       <use x="63.623047" xlink:href="#DejaVuSans-30"/>
       <use x="127.246094" xlink:href="#DejaVuSans-32"/>
       <use x="190.869141" xlink:href="#DejaVuSans-30"/>
       <use x="254.492188" xlink:href="#DejaVuSans-2f"/>
       <use x="288.183594" xlink:href="#DejaVuSans-30"/>
       <use x="351.806641" xlink:href="#DejaVuSans-37"/>
       <use x="415.429688" xlink:href="#DejaVuSans-2f"/>
       <use x="449.121094" xlink:href="#DejaVuSans-31"/>
       <use x="512.744141" xlink:href="#DejaVuSans-33"/>
      </g>
     </g>
    </g>
    <g id="xtick_10">
     <g id="line2d_19">
      <path clip-path="url(#p1cc9763287)" d="M 433.54945 465.1251 
L 433.54945 30.2451 
" style="fill:none;stroke:#b0b0b0;stroke-linecap:square;stroke-width:0.3;"/>
     </g>
     <g id="line2d_20">
      <g>
       <use style="stroke:#000000;stroke-width:0.8;" x="433.54945" xlink:href="#m7cd80df57f" y="465.1251"/>
      </g>
     </g>
     <g id="text_10">
      <!-- 2020/08/03 -->
      <g transform="translate(411.437338 527.479629)rotate(-45)scale(0.12 -0.12)">
       <defs>
        <path d="M 2034 2216 
Q 1584 2216 1326 1975 
Q 1069 1734 1069 1313 
Q 1069 891 1326 650 
Q 1584 409 2034 409 
Q 2484 409 2743 651 
Q 3003 894 3003 1313 
Q 3003 1734 2745 1975 
Q 2488 2216 2034 2216 
z
M 1403 2484 
Q 997 2584 770 2862 
Q 544 3141 544 3541 
Q 544 4100 942 4425 
Q 1341 4750 2034 4750 
Q 2731 4750 3128 4425 
Q 3525 4100 3525 3541 
Q 3525 3141 3298 2862 
Q 3072 2584 2669 2484 
Q 3125 2378 3379 2068 
Q 3634 1759 3634 1313 
Q 3634 634 3220 271 
Q 2806 -91 2034 -91 
Q 1263 -91 848 271 
Q 434 634 434 1313 
Q 434 1759 690 2068 
Q 947 2378 1403 2484 
z
M 1172 3481 
Q 1172 3119 1398 2916 
Q 1625 2713 2034 2713 
Q 2441 2713 2670 2916 
Q 2900 3119 2900 3481 
Q 2900 3844 2670 4047 
Q 2441 4250 2034 4250 
Q 1625 4250 1398 4047 
Q 1172 3844 1172 3481 
z
" id="DejaVuSans-38" transform="scale(0.015625)"/>
       </defs>
       <use xlink:href="#DejaVuSans-32"/>
       <use x="63.623047" xlink:href="#DejaVuSans-30"/>
       <use x="127.246094" xlink:href="#DejaVuSans-32"/>
       <use x="190.869141" xlink:href="#DejaVuSans-30"/>
       <use x="254.492188" xlink:href="#DejaVuSans-2f"/>
       <use x="288.183594" xlink:href="#DejaVuSans-30"/>
       <use x="351.806641" xlink:href="#DejaVuSans-38"/>
       <use x="415.429688" xlink:href="#DejaVuSans-2f"/>
       <use x="449.121094" xlink:href="#DejaVuSans-30"/>
       <use x="512.744141" xlink:href="#DejaVuSans-33"/>
      </g>
     </g>
    </g>
    <g id="xtick_11">
     <g id="line2d_21">
      <path clip-path="url(#p1cc9763287)" d="M 473.465993 465.1251 
L 473.465993 30.2451 
" style="fill:none;stroke:#b0b0b0;stroke-linecap:square;stroke-width:0.3;"/>
     </g>
     <g id="line2d_22">
      <g>
       <use style="stroke:#000000;stroke-width:0.8;" x="473.465993" xlink:href="#m7cd80df57f" y="465.1251"/>
      </g>
     </g>
     <g id="text_11">
      <!-- 2020/08/24 -->
      <g transform="translate(451.35388 527.479629)rotate(-45)scale(0.12 -0.12)">
       <use xlink:href="#DejaVuSans-32"/>
       <use x="63.623047" xlink:href="#DejaVuSans-30"/>
       <use x="127.246094" xlink:href="#DejaVuSans-32"/>
       <use x="190.869141" xlink:href="#DejaVuSans-30"/>
       <use x="254.492188" xlink:href="#DejaVuSans-2f"/>
       <use x="288.183594" xlink:href="#DejaVuSans-30"/>
       <use x="351.806641" xlink:href="#DejaVuSans-38"/>
       <use x="415.429688" xlink:href="#DejaVuSans-2f"/>
       <use x="449.121094" xlink:href="#DejaVuSans-32"/>
       <use x="512.744141" xlink:href="#DejaVuSans-34"/>
      </g>
     </g>
    </g>
    <g id="xtick_12">
     <g id="line2d_23">
      <path clip-path="url(#p1cc9763287)" d="M 513.382535 465.1251 
L 513.382535 30.2451 
" style="fill:none;stroke:#b0b0b0;stroke-linecap:square;stroke-width:0.3;"/>
     </g>
     <g id="line2d_24">
      <g>
       <use style="stroke:#000000;stroke-width:0.8;" x="513.382535" xlink:href="#m7cd80df57f" y="465.1251"/>
      </g>
     </g>
     <g id="text_12">
      <!-- 2020/09/14 -->
      <g transform="translate(491.270422 527.479629)rotate(-45)scale(0.12 -0.12)">
       <use xlink:href="#DejaVuSans-32"/>
       <use x="63.623047" xlink:href="#DejaVuSans-30"/>
       <use x="127.246094" xlink:href="#DejaVuSans-32"/>
       <use x="190.869141" xlink:href="#DejaVuSans-30"/>
       <use x="254.492188" xlink:href="#DejaVuSans-2f"/>
       <use x="288.183594" xlink:href="#DejaVuSans-30"/>
       <use x="351.806641" xlink:href="#DejaVuSans-39"/>
       <use x="415.429688" xlink:href="#DejaVuSans-2f"/>
       <use x="449.121094" xlink:href="#DejaVuSans-31"/>
       <use x="512.744141" xlink:href="#DejaVuSans-34"/>
      </g>
     </g>
    </g>
    <g id="xtick_13">
     <g id="line2d_25">
      <path clip-path="url(#p1cc9763287)" d="M 553.299078 465.1251 
L 553.299078 30.2451 
" style="fill:none;stroke:#b0b0b0;stroke-linecap:square;stroke-width:0.3;"/>
     </g>
     <g id="line2d_26">
      <g>
       <use style="stroke:#000000;stroke-width:0.8;" x="553.299078" xlink:href="#m7cd80df57f" y="465.1251"/>
      </g>
     </g>
     <g id="text_13">
      <!-- 2020/10/05 -->
      <g transform="translate(531.186965 527.479629)rotate(-45)scale(0.12 -0.12)">
       <use xlink:href="#DejaVuSans-32"/>
       <use x="63.623047" xlink:href="#DejaVuSans-30"/>
       <use x="127.246094" xlink:href="#DejaVuSans-32"/>
       <use x="190.869141" xlink:href="#DejaVuSans-30"/>
       <use x="254.492188" xlink:href="#DejaVuSans-2f"/>
       <use x="288.183594" xlink:href="#DejaVuSans-31"/>
       <use x="351.806641" xlink:href="#DejaVuSans-30"/>
       <use x="415.429688" xlink:href="#DejaVuSans-2f"/>
       <use x="449.121094" xlink:href="#DejaVuSans-30"/>
       <use x="512.744141" xlink:href="#DejaVuSans-35"/>
      </g>
     </g>
    </g>
    <g id="xtick_14">
     <g id="line2d_27">
      <path clip-path="url(#p1cc9763287)" d="M 593.21562 465.1251 
L 593.21562 30.2451 
" style="fill:none;stroke:#b0b0b0;stroke-linecap:square;stroke-width:0.3;"/>
     </g>
     <g id="line2d_28">
      <g>
       <use style="stroke:#000000;stroke-width:0.8;" x="593.21562" xlink:href="#m7cd80df57f" y="465.1251"/>
      </g>
     </g>
     <g id="text_14">
      <!-- 2020/10/26 -->
      <g transform="translate(571.103507 527.479629)rotate(-45)scale(0.12 -0.12)">
       <use xlink:href="#DejaVuSans-32"/>
       <use x="63.623047" xlink:href="#DejaVuSans-30"/>
       <use x="127.246094" xlink:href="#DejaVuSans-32"/>
       <use x="190.869141" xlink:href="#DejaVuSans-30"/>
       <use x="254.492188" xlink:href="#DejaVuSans-2f"/>
       <use x="288.183594" xlink:href="#DejaVuSans-31"/>
       <use x="351.806641" xlink:href="#DejaVuSans-30"/>
       <use x="415.429688" xlink:href="#DejaVuSans-2f"/>
       <use x="449.121094" xlink:href="#DejaVuSans-32"/>
       <use x="512.744141" xlink:href="#DejaVuSans-36"/>
      </g>
     </g>
    </g>
    <g id="xtick_15">
     <g id="line2d_29">
      <path clip-path="url(#p1cc9763287)" d="M 633.132163 465.1251 
L 633.132163 30.2451 
" style="fill:none;stroke:#b0b0b0;stroke-linecap:square;stroke-width:0.3;"/>
     </g>
     <g id="line2d_30">
      <g>
       <use style="stroke:#000000;stroke-width:0.8;" x="633.132163" xlink:href="#m7cd80df57f" y="465.1251"/>
      </g>
     </g>
     <g id="text_15">
      <!-- 2020/11/16 -->
      <g transform="translate(611.02005 527.479629)rotate(-45)scale(0.12 -0.12)">
       <use xlink:href="#DejaVuSans-32"/>
       <use x="63.623047" xlink:href="#DejaVuSans-30"/>
       <use x="127.246094" xlink:href="#DejaVuSans-32"/>
       <use x="190.869141" xlink:href="#DejaVuSans-30"/>
       <use x="254.492188" xlink:href="#DejaVuSans-2f"/>
       <use x="288.183594" xlink:href="#DejaVuSans-31"/>
       <use x="351.806641" xlink:href="#DejaVuSans-31"/>
       <use x="415.429688" xlink:href="#DejaVuSans-2f"/>
       <use x="449.121094" xlink:href="#DejaVuSans-31"/>
       <use x="512.744141" xlink:href="#DejaVuSans-36"/>
      </g>
     </g>
    </g>
    <g id="xtick_16">
     <g id="line2d_31">
      <path clip-path="url(#p1cc9763287)" d="M 673.048705 465.1251 
L 673.048705 30.2451 
" style="fill:none;stroke:#b0b0b0;stroke-linecap:square;stroke-width:0.3;"/>
     </g>
     <g id="line2d_32">
      <g>
       <use style="stroke:#000000;stroke-width:0.8;" x="673.048705" xlink:href="#m7cd80df57f" y="465.1251"/>
      </g>
     </g>
     <g id="text_16">
      <!-- 2020/12/07 -->
      <g transform="translate(650.936592 527.479629)rotate(-45)scale(0.12 -0.12)">
       <use xlink:href="#DejaVuSans-32"/>
       <use x="63.623047" xlink:href="#DejaVuSans-30"/>
       <use x="127.246094" xlink:href="#DejaVuSans-32"/>
       <use x="190.869141" xlink:href="#DejaVuSans-30"/>
       <use x="254.492188" xlink:href="#DejaVuSans-2f"/>
       <use x="288.183594" xlink:href="#DejaVuSans-31"/>
       <use x="351.806641" xlink:href="#DejaVuSans-32"/>
       <use x="415.429688" xlink:href="#DejaVuSans-2f"/>
       <use x="449.121094" xlink:href="#DejaVuSans-30"/>
       <use x="512.744141" xlink:href="#DejaVuSans-37"/>
      </g>
     </g>
    </g>
    <g id="xtick_17">
     <g id="line2d_33">
      <path clip-path="url(#p1cc9763287)" d="M 712.965248 465.1251 
L 712.965248 30.2451 
" style="fill:none;stroke:#b0b0b0;stroke-linecap:square;stroke-width:0.3;"/>
     </g>
     <g id="line2d_34">
      <g>
       <use style="stroke:#000000;stroke-width:0.8;" x="712.965248" xlink:href="#m7cd80df57f" y="465.1251"/>
      </g>
     </g>
     <g id="text_17">
      <!-- 2020/12/28 -->
      <g transform="translate(690.853135 527.479629)rotate(-45)scale(0.12 -0.12)">
       <use xlink:href="#DejaVuSans-32"/>
       <use x="63.623047" xlink:href="#DejaVuSans-30"/>
       <use x="127.246094" xlink:href="#DejaVuSans-32"/>
       <use x="190.869141" xlink:href="#DejaVuSans-30"/>
       <use x="254.492188" xlink:href="#DejaVuSans-2f"/>
       <use x="288.183594" xlink:href="#DejaVuSans-31"/>
       <use x="351.806641" xlink:href="#DejaVuSans-32"/>
       <use x="415.429688" xlink:href="#DejaVuSans-2f"/>
       <use x="449.121094" xlink:href="#DejaVuSans-32"/>
       <use x="512.744141" xlink:href="#DejaVuSans-38"/>
      </g>
     </g>
    </g>
    <g id="xtick_18">
     <g id="line2d_35">
      <path clip-path="url(#p1cc9763287)" d="M 752.88179 465.1251 
L 752.88179 30.2451 
" style="fill:none;stroke:#b0b0b0;stroke-linecap:square;stroke-width:0.3;"/>
     </g>
     <g id="line2d_36">
      <g>
       <use style="stroke:#000000;stroke-width:0.8;" x="752.88179" xlink:href="#m7cd80df57f" y="465.1251"/>
      </g>
     </g>
     <g id="text_18">
      <!-- 2021/01/18 -->
      <g transform="translate(730.769677 527.479629)rotate(-45)scale(0.12 -0.12)">
       <use xlink:href="#DejaVuSans-32"/>
       <use x="63.623047" xlink:href="#DejaVuSans-30"/>
       <use x="127.246094" xlink:href="#DejaVuSans-32"/>
       <use x="190.869141" xlink:href="#DejaVuSans-31"/>
       <use x="254.492188" xlink:href="#DejaVuSans-2f"/>
       <use x="288.183594" xlink:href="#DejaVuSans-30"/>
       <use x="351.806641" xlink:href="#DejaVuSans-31"/>
       <use x="415.429688" xlink:href="#DejaVuSans-2f"/>
       <use x="449.121094" xlink:href="#DejaVuSans-31"/>
       <use x="512.744141" xlink:href="#DejaVuSans-38"/>
      </g>
     </g>
    </g>
    <g id="xtick_19">
     <g id="line2d_37">
      <path clip-path="url(#p1cc9763287)" d="M 792.798333 465.1251 
L 792.798333 30.2451 
" style="fill:none;stroke:#b0b0b0;stroke-linecap:square;stroke-width:0.3;"/>
     </g>
     <g id="line2d_38">
      <g>
       <use style="stroke:#000000;stroke-width:0.8;" x="792.798333" xlink:href="#m7cd80df57f" y="465.1251"/>
      </g>
     </g>
     <g id="text_19">
      <!-- 2021/02/08 -->
      <g transform="translate(770.68622 527.479629)rotate(-45)scale(0.12 -0.12)">
       <use xlink:href="#DejaVuSans-32"/>
       <use x="63.623047" xlink:href="#DejaVuSans-30"/>
       <use x="127.246094" xlink:href="#DejaVuSans-32"/>
       <use x="190.869141" xlink:href="#DejaVuSans-31"/>
       <use x="254.492188" xlink:href="#DejaVuSans-2f"/>
       <use x="288.183594" xlink:href="#DejaVuSans-30"/>
       <use x="351.806641" xlink:href="#DejaVuSans-32"/>
       <use x="415.429688" xlink:href="#DejaVuSans-2f"/>
       <use x="449.121094" xlink:href="#DejaVuSans-30"/>
       <use x="512.744141" xlink:href="#DejaVuSans-38"/>
      </g>
     </g>
    </g>
    <g id="xtick_20">
     <g id="line2d_39">
      <path clip-path="url(#p1cc9763287)" d="M 832.714875 465.1251 
L 832.714875 30.2451 
" style="fill:none;stroke:#b0b0b0;stroke-linecap:square;stroke-width:0.3;"/>
     </g>
     <g id="line2d_40">
      <g>
       <use style="stroke:#000000;stroke-width:0.8;" x="832.714875" xlink:href="#m7cd80df57f" y="465.1251"/>
      </g>
     </g>
     <g id="text_20">
      <!-- 2021/03/01 -->
      <g transform="translate(810.602762 527.479629)rotate(-45)scale(0.12 -0.12)">
       <use xlink:href="#DejaVuSans-32"/>
       <use x="63.623047" xlink:href="#DejaVuSans-30"/>
       <use x="127.246094" xlink:href="#DejaVuSans-32"/>
       <use x="190.869141" xlink:href="#DejaVuSans-31"/>
       <use x="254.492188" xlink:href="#DejaVuSans-2f"/>
       <use x="288.183594" xlink:href="#DejaVuSans-30"/>
       <use x="351.806641" xlink:href="#DejaVuSans-33"/>
       <use x="415.429688" xlink:href="#DejaVuSans-2f"/>
       <use x="449.121094" xlink:href="#DejaVuSans-30"/>
       <use x="512.744141" xlink:href="#DejaVuSans-31"/>
      </g>
     </g>
    </g>
    <g id="xtick_21">
     <g id="line2d_41">
      <path clip-path="url(#p1cc9763287)" d="M 872.631418 465.1251 
L 872.631418 30.2451 
" style="fill:none;stroke:#b0b0b0;stroke-linecap:square;stroke-width:0.3;"/>
     </g>
     <g id="line2d_42">
      <g>
       <use style="stroke:#000000;stroke-width:0.8;" x="872.631418" xlink:href="#m7cd80df57f" y="465.1251"/>
      </g>
     </g>
     <g id="text_21">
      <!-- 2021/03/22 -->
      <g transform="translate(850.519305 527.479629)rotate(-45)scale(0.12 -0.12)">
       <use xlink:href="#DejaVuSans-32"/>
       <use x="63.623047" xlink:href="#DejaVuSans-30"/>
       <use x="127.246094" xlink:href="#DejaVuSans-32"/>
       <use x="190.869141" xlink:href="#DejaVuSans-31"/>
       <use x="254.492188" xlink:href="#DejaVuSans-2f"/>
       <use x="288.183594" xlink:href="#DejaVuSans-30"/>
       <use x="351.806641" xlink:href="#DejaVuSans-33"/>
       <use x="415.429688" xlink:href="#DejaVuSans-2f"/>
       <use x="449.121094" xlink:href="#DejaVuSans-32"/>
       <use x="512.744141" xlink:href="#DejaVuSans-32"/>
      </g>
     </g>
    </g>
   </g>
   <g id="matplotlib.axis_2">
    <g id="ytick_1">
     <g id="line2d_43">
      <path clip-path="url(#p1cc9763287)" d="M 33.71875 421.187565 
L 926.51875 421.187565 
" style="fill:none;stroke:#b0b0b0;stroke-linecap:square;stroke-width:0.3;"/>
     </g>
     <g id="line2d_44">
      <defs>
       <path d="M 0 0 
L -3.5 0 
" id="medbe5d453f" style="stroke:#000000;stroke-width:0.8;"/>
      </defs>
      <g>
       <use style="stroke:#000000;stroke-width:0.8;" x="33.71875" xlink:href="#medbe5d453f" y="421.187565"/>
      </g>
     </g>
     <g id="text_22">
      <!-- 0.05 -->
      <g transform="translate(0 425.746628)scale(0.12 -0.12)">
       <defs>
        <path d="M 684 794 
L 1344 794 
L 1344 0 
L 684 0 
L 684 794 
z
" id="DejaVuSans-2e" transform="scale(0.015625)"/>
       </defs>
       <use xlink:href="#DejaVuSans-30"/>
       <use x="63.623047" xlink:href="#DejaVuSans-2e"/>
       <use x="95.410156" xlink:href="#DejaVuSans-30"/>
       <use x="159.033203" xlink:href="#DejaVuSans-35"/>
      </g>
     </g>
    </g>
    <g id="ytick_2">
     <g id="line2d_45">
      <path clip-path="url(#p1cc9763287)" d="M 33.71875 327.959411 
L 926.51875 327.959411 
" style="fill:none;stroke:#b0b0b0;stroke-linecap:square;stroke-width:0.3;"/>
     </g>
     <g id="line2d_46">
      <g>
       <use style="stroke:#000000;stroke-width:0.8;" x="33.71875" xlink:href="#medbe5d453f" y="327.959411"/>
      </g>
     </g>
     <g id="text_23">
      <!-- 0.10 -->
      <g transform="translate(0 332.518473)scale(0.12 -0.12)">
       <use xlink:href="#DejaVuSans-30"/>
       <use x="63.623047" xlink:href="#DejaVuSans-2e"/>
       <use x="95.410156" xlink:href="#DejaVuSans-31"/>
       <use x="159.033203" xlink:href="#DejaVuSans-30"/>
      </g>
     </g>
    </g>
    <g id="ytick_3">
     <g id="line2d_47">
      <path clip-path="url(#p1cc9763287)" d="M 33.71875 234.731257 
L 926.51875 234.731257 
" style="fill:none;stroke:#b0b0b0;stroke-linecap:square;stroke-width:0.3;"/>
     </g>
     <g id="line2d_48">
      <g>
       <use style="stroke:#000000;stroke-width:0.8;" x="33.71875" xlink:href="#medbe5d453f" y="234.731257"/>
      </g>
     </g>
     <g id="text_24">
      <!-- 0.15 -->
      <g transform="translate(0 239.290319)scale(0.12 -0.12)">
       <use xlink:href="#DejaVuSans-30"/>
       <use x="63.623047" xlink:href="#DejaVuSans-2e"/>
       <use x="95.410156" xlink:href="#DejaVuSans-31"/>
       <use x="159.033203" xlink:href="#DejaVuSans-35"/>
      </g>
     </g>
    </g>
    <g id="ytick_4">
     <g id="line2d_49">
      <path clip-path="url(#p1cc9763287)" d="M 33.71875 141.503102 
L 926.51875 141.503102 
" style="fill:none;stroke:#b0b0b0;stroke-linecap:square;stroke-width:0.3;"/>
     </g>
     <g id="line2d_50">
      <g>
       <use style="stroke:#000000;stroke-width:0.8;" x="33.71875" xlink:href="#medbe5d453f" y="141.503102"/>
      </g>
     </g>
     <g id="text_25">
      <!-- 0.20 -->
      <g transform="translate(0 146.062165)scale(0.12 -0.12)">
       <use xlink:href="#DejaVuSans-30"/>
       <use x="63.623047" xlink:href="#DejaVuSans-2e"/>
       <use x="95.410156" xlink:href="#DejaVuSans-32"/>
       <use x="159.033203" xlink:href="#DejaVuSans-30"/>
      </g>
     </g>
    </g>
    <g id="ytick_5">
     <g id="line2d_51">
      <path clip-path="url(#p1cc9763287)" d="M 33.71875 48.274948 
L 926.51875 48.274948 
" style="fill:none;stroke:#b0b0b0;stroke-linecap:square;stroke-width:0.3;"/>
     </g>
     <g id="line2d_52">
      <g>
       <use style="stroke:#000000;stroke-width:0.8;" x="33.71875" xlink:href="#medbe5d453f" y="48.274948"/>
      </g>
     </g>
     <g id="text_26">
      <!-- 0.25 -->
      <g transform="translate(0 52.834011)scale(0.12 -0.12)">
       <use xlink:href="#DejaVuSans-30"/>
       <use x="63.623047" xlink:href="#DejaVuSans-2e"/>
       <use x="95.410156" xlink:href="#DejaVuSans-32"/>
       <use x="159.033203" xlink:href="#DejaVuSans-35"/>
      </g>
     </g>
    </g>
   </g>
   <g id="line2d_53">
    <path clip-path="url(#p1cc9763287)" d="M 74.300568 230.483451 
L 87.606082 260.90862 
L 100.911596 236.48202 
L 114.217111 255.88777 
L 127.522625 262.126636 
L 140.828139 289.584626 
L 154.133653 344.118958 
L 167.439167 356.226083 
L 180.744681 336.185424 
L 194.050196 369.257848 
L 207.35571 372.114608 
L 220.661224 357.211361 
L 233.966738 348.509196 
L 247.272252 338.115818 
L 260.577766 354.651693 
L 273.883281 352.865127 
L 287.188795 333.905626 
L 300.494309 340.784448 
L 313.799823 316.598274 
L 327.105337 289.991197 
L 340.410851 318.233424 
L 353.716365 307.958907 
L 367.02188 268.930529 
L 380.327394 268.027026 
L 393.632908 291.515171 
L 406.938422 253.046532 
L 420.243936 217.15443 
L 433.54945 259.186825 
L 446.854965 226.965463 
L 460.160479 184.187609 
L 473.465993 218.769299 
L 486.771507 228.18893 
L 500.077021 269.313019 
L 513.382535 274.997113 
L 526.68805 275.150062 
L 539.993564 286.050658 
L 553.299078 192.471893 
L 566.604592 207.59525 
L 579.910106 159.163511 
L 593.21562 184.831385 
L 606.521135 204.190691 
L 619.826649 210.248427 
L 633.132163 248.67319 
L 646.437677 219.665587 
L 659.743191 214.52522 
L 673.048705 251.044546 
L 686.354219 202.394514 
L 699.659734 246.595234 
L 712.965248 224.180523 
L 726.270762 272.597616 
L 739.576276 248.339724 
L 752.88179 244.744517 
L 766.187304 277.165592 
L 779.492819 284.573455 
L 792.798333 217.705548 
L 806.103847 207.021602 
L 819.409361 237.233142 
L 832.714875 258.979215 
L 846.020389 202.17082 
L 859.325904 240.503561 
L 872.631418 214.250555 
L 885.936932 296.902046 
" style="fill:none;stroke:#ff0000;stroke-linecap:square;stroke-width:1.5;"/>
   </g>
   <g id="line2d_54">
    <path clip-path="url(#p1cc9763287)" d="M 74.300568 272.961507 
L 87.606082 312.344843 
L 100.911596 271.497289 
L 114.217111 215.899634 
L 127.522625 274.007286 
L 140.828139 362.722451 
L 154.133653 403.784976 
L 167.439167 421.057901 
L 180.744681 427.585576 
L 194.050196 434.681114 
L 207.35571 426.523857 
L 220.661224 440.788362 
L 233.966738 433.347759 
L 247.272252 433.930982 
L 260.577766 434.533706 
L 273.883281 431.396665 
L 287.188795 429.469793 
L 300.494309 445.357827 
L 313.799823 392.784722 
L 327.105337 409.19373 
L 340.410851 402.192796 
L 353.716365 389.066941 
L 367.02188 393.547057 
L 380.327394 355.547334 
L 393.632908 362.843347 
L 406.938422 391.990003 
L 420.243936 352.425017 
L 433.54945 361.278383 
L 446.854965 343.64554 
L 460.160479 306.761362 
L 473.465993 341.893868 
L 486.771507 369.443709 
L 500.077021 377.158207 
L 513.382535 367.499756 
L 526.68805 385.383169 
L 539.993564 357.153333 
L 553.299078 321.249424 
L 566.604592 305.677203 
L 579.910106 311.648061 
L 593.21562 309.832272 
L 606.521135 347.344013 
L 619.826649 349.585178 
L 633.132163 365.447115 
L 646.437677 381.957158 
L 659.743191 369.346738 
L 673.048705 367.00648 
L 686.354219 350.525793 
L 699.659734 368.758964 
L 712.965248 379.02064 
L 726.270762 382.074007 
L 739.576276 370.206592 
L 752.88179 378.49565 
L 766.187304 401.363645 
L 779.492819 387.012517 
L 792.798333 371.432823 
L 806.103847 325.687093 
L 819.409361 341.917298 
L 832.714875 372.50655 
L 846.020389 339.95674 
L 859.325904 368.47445 
L 872.631418 372.853109 
L 885.936932 410.143701 
" style="fill:none;stroke:#8058a7;stroke-linecap:square;stroke-width:1.5;"/>
   </g>
   <g id="line2d_55">
    <path clip-path="url(#p1cc9763287)" d="M 74.300568 212.597954 
L 87.606082 222.331453 
L 100.911596 223.351294 
L 114.217111 224.269244 
L 127.522625 210.410869 
L 140.828139 250.758373 
L 154.133653 264.564266 
L 167.439167 296.580811 
L 180.744681 285.915341 
L 194.050196 303.834581 
L 207.35571 282.130083 
L 220.661224 281.594075 
L 233.966738 280.638346 
L 247.272252 286.37563 
L 260.577766 255.286262 
L 273.883281 256.383524 
L 287.188795 248.959699 
L 300.494309 257.914978 
L 313.799823 220.36276 
L 327.105337 208.315387 
L 340.410851 235.105333 
L 353.716365 208.41723 
L 367.02188 229.577942 
L 380.327394 205.240718 
L 393.632908 194.553433 
L 406.938422 185.032246 
L 420.243936 188.764307 
L 433.54945 131.108326 
L 446.854965 153.557468 
L 460.160479 146.694461 
L 473.465993 167.160198 
L 486.771507 194.733851 
L 500.077021 166.815527 
L 513.382535 196.0978 
L 526.68805 223.02433 
L 539.993564 151.373827 
L 553.299078 125.372022 
L 566.604592 114.040155 
L 579.910106 50.012373 
L 593.21562 72.692324 
L 606.521135 96.736453 
L 619.826649 138.162537 
L 633.132163 132.444938 
L 646.437677 125.989938 
L 659.743191 126.142857 
L 673.048705 154.082024 
L 686.354219 133.056468 
L 699.659734 164.369647 
L 712.965248 121.193841 
L 726.270762 156.885228 
L 739.576276 136.628428 
L 752.88179 172.446608 
L 766.187304 179.240203 
L 779.492819 182.134394 
L 792.798333 170.595576 
L 806.103847 100.9801 
L 819.409361 147.691977 
L 832.714875 141.132905 
L 846.020389 77.48242 
L 859.325904 128.869381 
L 872.631418 142.158485 
L 885.936932 201.599664 
" style="fill:none;stroke:#3581b7;stroke-linecap:square;stroke-width:1.5;"/>
   </g>
   <g id="line2d_56">
    <path clip-path="url(#p1cc9763287)" d="M 74.300568 395.9243 
L 87.606082 363.781066 
L 100.911596 361.223917 
L 114.217111 330.284302 
L 127.522625 339.001426 
L 140.828139 365.43126 
L 154.133653 362.764588 
L 167.439167 382.158811 
L 180.744681 386.455508 
L 194.050196 356.990985 
L 207.35571 315.612697 
L 220.661224 373.13079 
L 233.966738 380.55932 
L 247.272252 372.609277 
L 260.577766 381.928478 
L 273.883281 350.621369 
L 287.188795 382.749533 
L 300.494309 344.730613 
L 313.799823 331.300922 
L 327.105337 299.556832 
L 340.410851 327.377514 
L 353.716365 342.061148 
L 367.02188 320.46368 
L 380.327394 314.641103 
L 393.632908 301.545696 
L 406.938422 304.543064 
L 420.243936 286.459731 
L 433.54945 303.735869 
L 446.854965 290.328154 
L 460.160479 280.804567 
L 473.465993 285.123857 
L 486.771507 293.612196 
L 500.077021 300.507908 
L 513.382535 301.296884 
L 526.68805 320.439633 
L 539.993564 314.491728 
L 553.299078 290.749482 
L 566.604592 278.516047 
L 579.910106 260.547341 
L 593.21562 257.98303 
L 606.521135 246.315609 
L 619.826649 255.96143 
L 633.132163 273.774127 
L 646.437677 285.298207 
L 659.743191 266.945104 
L 673.048705 302.146415 
L 686.354219 284.339477 
L 699.659734 302.978494 
L 712.965248 286.11657 
L 726.270762 308.62782 
L 739.576276 309.273158 
L 752.88179 304.028803 
L 766.187304 300.253691 
L 779.492819 329.336743 
L 792.798333 311.099 
L 806.103847 317.481501 
L 819.409361 292.537979 
L 832.714875 277.489106 
L 846.020389 276.564739 
L 859.325904 279.711663 
L 872.631418 280.444183 
L 885.936932 329.416977 
" style="fill:none;stroke:#ffb639;stroke-linecap:square;stroke-width:1.5;"/>
   </g>
   <g id="patch_3">
    <path d="M 33.71875 465.1251 
L 33.71875 30.2451 
" style="fill:none;stroke:#000000;stroke-linecap:square;stroke-linejoin:miter;stroke-width:0.8;"/>
   </g>
   <g id="patch_4">
    <path d="M 926.51875 465.1251 
L 926.51875 30.2451 
" style="fill:none;stroke:#000000;stroke-linecap:square;stroke-linejoin:miter;stroke-width:0.8;"/>
   </g>
   <g id="patch_5">
    <path d="M 33.71875 465.1251 
L 926.51875 465.1251 
" style="fill:none;stroke:#000000;stroke-linecap:square;stroke-linejoin:miter;stroke-width:0.8;"/>
   </g>
   <g id="patch_6">
    <path d="M 33.71875 30.2451 
L 926.51875 30.2451 
" style="fill:none;stroke:#000000;stroke-linecap:square;stroke-linejoin:miter;stroke-width:0.8;"/>
   </g>
   <g id="legend_1">
    <g id="patch_7">
     <path d="M 36.11875 21.5475 
L 924.11875 21.5475 
Q 926.51875 21.5475 926.51875 19.1475 
L 926.51875 2.4 
Q 926.51875 0 924.11875 0 
L 36.11875 0 
Q 33.71875 0 33.71875 2.4 
L 33.71875 19.1475 
Q 33.71875 21.5475 36.11875 21.5475 
z
" style="fill:#ffffff;opacity:0.8;stroke:#cccccc;stroke-linejoin:miter;"/>
    </g>
    <g id="line2d_57">
     <path d="M 38.51875 9.718125 
L 62.51875 9.718125 
" style="fill:none;stroke:#ff0000;stroke-linecap:square;stroke-width:1.5;"/>
    </g>
    <g id="line2d_58"/>
    <g id="text_27">
     <!-- Rabbia -->
     <g transform="translate(72.11875 13.918125)scale(0.12 -0.12)">
      <defs>
       <path d="M 2841 2188 
Q 3044 2119 3236 1894 
Q 3428 1669 3622 1275 
L 4263 0 
L 3584 0 
L 2988 1197 
Q 2756 1666 2539 1819 
Q 2322 1972 1947 1972 
L 1259 1972 
L 1259 0 
L 628 0 
L 628 4666 
L 2053 4666 
Q 2853 4666 3247 4331 
Q 3641 3997 3641 3322 
Q 3641 2881 3436 2590 
Q 3231 2300 2841 2188 
z
M 1259 4147 
L 1259 2491 
L 2053 2491 
Q 2509 2491 2742 2702 
Q 2975 2913 2975 3322 
Q 2975 3731 2742 3939 
Q 2509 4147 2053 4147 
L 1259 4147 
z
" id="DejaVuSans-52" transform="scale(0.015625)"/>
       <path d="M 2194 1759 
Q 1497 1759 1228 1600 
Q 959 1441 959 1056 
Q 959 750 1161 570 
Q 1363 391 1709 391 
Q 2188 391 2477 730 
Q 2766 1069 2766 1631 
L 2766 1759 
L 2194 1759 
z
M 3341 1997 
L 3341 0 
L 2766 0 
L 2766 531 
Q 2569 213 2275 61 
Q 1981 -91 1556 -91 
Q 1019 -91 701 211 
Q 384 513 384 1019 
Q 384 1609 779 1909 
Q 1175 2209 1959 2209 
L 2766 2209 
L 2766 2266 
Q 2766 2663 2505 2880 
Q 2244 3097 1772 3097 
Q 1472 3097 1187 3025 
Q 903 2953 641 2809 
L 641 3341 
Q 956 3463 1253 3523 
Q 1550 3584 1831 3584 
Q 2591 3584 2966 3190 
Q 3341 2797 3341 1997 
z
" id="DejaVuSans-61" transform="scale(0.015625)"/>
       <path d="M 3116 1747 
Q 3116 2381 2855 2742 
Q 2594 3103 2138 3103 
Q 1681 3103 1420 2742 
Q 1159 2381 1159 1747 
Q 1159 1113 1420 752 
Q 1681 391 2138 391 
Q 2594 391 2855 752 
Q 3116 1113 3116 1747 
z
M 1159 2969 
Q 1341 3281 1617 3432 
Q 1894 3584 2278 3584 
Q 2916 3584 3314 3078 
Q 3713 2572 3713 1747 
Q 3713 922 3314 415 
Q 2916 -91 2278 -91 
Q 1894 -91 1617 61 
Q 1341 213 1159 525 
L 1159 0 
L 581 0 
L 581 4863 
L 1159 4863 
L 1159 2969 
z
" id="DejaVuSans-62" transform="scale(0.015625)"/>
       <path d="M 603 3500 
L 1178 3500 
L 1178 0 
L 603 0 
L 603 3500 
z
M 603 4863 
L 1178 4863 
L 1178 4134 
L 603 4134 
L 603 4863 
z
" id="DejaVuSans-69" transform="scale(0.015625)"/>
      </defs>
      <use xlink:href="#DejaVuSans-52"/>
      <use x="67.232422" xlink:href="#DejaVuSans-61"/>
      <use x="128.511719" xlink:href="#DejaVuSans-62"/>
      <use x="191.988281" xlink:href="#DejaVuSans-62"/>
      <use x="255.464844" xlink:href="#DejaVuSans-69"/>
      <use x="283.248047" xlink:href="#DejaVuSans-61"/>
     </g>
    </g>
    <g id="line2d_59">
     <path d="M 307.874375 9.718125 
L 331.874375 9.718125 
" style="fill:none;stroke:#8058a7;stroke-linecap:square;stroke-width:1.5;"/>
    </g>
    <g id="line2d_60"/>
    <g id="text_28">
     <!-- Ansia -->
     <g transform="translate(341.474375 13.918125)scale(0.12 -0.12)">
      <defs>
       <path d="M 2188 4044 
L 1331 1722 
L 3047 1722 
L 2188 4044 
z
M 1831 4666 
L 2547 4666 
L 4325 0 
L 3669 0 
L 3244 1197 
L 1141 1197 
L 716 0 
L 50 0 
L 1831 4666 
z
" id="DejaVuSans-41" transform="scale(0.015625)"/>
       <path d="M 3513 2113 
L 3513 0 
L 2938 0 
L 2938 2094 
Q 2938 2591 2744 2837 
Q 2550 3084 2163 3084 
Q 1697 3084 1428 2787 
Q 1159 2491 1159 1978 
L 1159 0 
L 581 0 
L 581 3500 
L 1159 3500 
L 1159 2956 
Q 1366 3272 1645 3428 
Q 1925 3584 2291 3584 
Q 2894 3584 3203 3211 
Q 3513 2838 3513 2113 
z
" id="DejaVuSans-6e" transform="scale(0.015625)"/>
       <path d="M 2834 3397 
L 2834 2853 
Q 2591 2978 2328 3040 
Q 2066 3103 1784 3103 
Q 1356 3103 1142 2972 
Q 928 2841 928 2578 
Q 928 2378 1081 2264 
Q 1234 2150 1697 2047 
L 1894 2003 
Q 2506 1872 2764 1633 
Q 3022 1394 3022 966 
Q 3022 478 2636 193 
Q 2250 -91 1575 -91 
Q 1294 -91 989 -36 
Q 684 19 347 128 
L 347 722 
Q 666 556 975 473 
Q 1284 391 1588 391 
Q 1994 391 2212 530 
Q 2431 669 2431 922 
Q 2431 1156 2273 1281 
Q 2116 1406 1581 1522 
L 1381 1569 
Q 847 1681 609 1914 
Q 372 2147 372 2553 
Q 372 3047 722 3315 
Q 1072 3584 1716 3584 
Q 2034 3584 2315 3537 
Q 2597 3491 2834 3397 
z
" id="DejaVuSans-73" transform="scale(0.015625)"/>
      </defs>
      <use xlink:href="#DejaVuSans-41"/>
      <use x="68.408203" xlink:href="#DejaVuSans-6e"/>
      <use x="131.787109" xlink:href="#DejaVuSans-73"/>
      <use x="183.886719" xlink:href="#DejaVuSans-69"/>
      <use x="211.669922" xlink:href="#DejaVuSans-61"/>
     </g>
    </g>
    <g id="line2d_61">
     <path d="M 568.636875 9.718125 
L 592.636875 9.718125 
" style="fill:none;stroke:#3581b7;stroke-linecap:square;stroke-width:1.5;"/>
    </g>
    <g id="line2d_62"/>
    <g id="text_29">
     <!-- Tristez -->
     <g transform="translate(602.236875 13.918125)scale(0.12 -0.12)">
      <defs>
       <path d="M -19 4666 
L 3928 4666 
L 3928 4134 
L 2272 4134 
L 2272 0 
L 1638 0 
L 1638 4134 
L -19 4134 
L -19 4666 
z
" id="DejaVuSans-54" transform="scale(0.015625)"/>
       <path d="M 2631 2963 
Q 2534 3019 2420 3045 
Q 2306 3072 2169 3072 
Q 1681 3072 1420 2755 
Q 1159 2438 1159 1844 
L 1159 0 
L 581 0 
L 581 3500 
L 1159 3500 
L 1159 2956 
Q 1341 3275 1631 3429 
Q 1922 3584 2338 3584 
Q 2397 3584 2469 3576 
Q 2541 3569 2628 3553 
L 2631 2963 
z
" id="DejaVuSans-72" transform="scale(0.015625)"/>
       <path d="M 1172 4494 
L 1172 3500 
L 2356 3500 
L 2356 3053 
L 1172 3053 
L 1172 1153 
Q 1172 725 1289 603 
Q 1406 481 1766 481 
L 2356 481 
L 2356 0 
L 1766 0 
Q 1100 0 847 248 
Q 594 497 594 1153 
L 594 3053 
L 172 3053 
L 172 3500 
L 594 3500 
L 594 4494 
L 1172 4494 
z
" id="DejaVuSans-74" transform="scale(0.015625)"/>
       <path d="M 3597 1894 
L 3597 1613 
L 953 1613 
Q 991 1019 1311 708 
Q 1631 397 2203 397 
Q 2534 397 2845 478 
Q 3156 559 3463 722 
L 3463 178 
Q 3153 47 2828 -22 
Q 2503 -91 2169 -91 
Q 1331 -91 842 396 
Q 353 884 353 1716 
Q 353 2575 817 3079 
Q 1281 3584 2069 3584 
Q 2775 3584 3186 3129 
Q 3597 2675 3597 1894 
z
M 3022 2063 
Q 3016 2534 2758 2815 
Q 2500 3097 2075 3097 
Q 1594 3097 1305 2825 
Q 1016 2553 972 2059 
L 3022 2063 
z
" id="DejaVuSans-65" transform="scale(0.015625)"/>
       <path d="M 353 3500 
L 3084 3500 
L 3084 2975 
L 922 459 
L 3084 459 
L 3084 0 
L 275 0 
L 275 525 
L 2438 3041 
L 353 3041 
L 353 3500 
z
" id="DejaVuSans-7a" transform="scale(0.015625)"/>
      </defs>
      <use xlink:href="#DejaVuSans-54"/>
      <use x="46.333984" xlink:href="#DejaVuSans-72"/>
      <use x="87.447266" xlink:href="#DejaVuSans-69"/>
      <use x="115.230469" xlink:href="#DejaVuSans-73"/>
      <use x="167.330078" xlink:href="#DejaVuSans-74"/>
      <use x="206.539062" xlink:href="#DejaVuSans-65"/>
      <use x="268.0625" xlink:href="#DejaVuSans-7a"/>
     </g>
    </g>
    <g id="line2d_63">
     <path d="M 835.110625 9.718125 
L 859.110625 9.718125 
" style="fill:none;stroke:#ffb639;stroke-linecap:square;stroke-width:1.5;"/>
    </g>
    <g id="line2d_64"/>
    <g id="text_30">
     <!-- Emo_Pos -->
     <g transform="translate(868.710625 13.918125)scale(0.12 -0.12)">
      <defs>
       <path d="M 628 4666 
L 3578 4666 
L 3578 4134 
L 1259 4134 
L 1259 2753 
L 3481 2753 
L 3481 2222 
L 1259 2222 
L 1259 531 
L 3634 531 
L 3634 0 
L 628 0 
L 628 4666 
z
" id="DejaVuSans-45" transform="scale(0.015625)"/>
       <path d="M 3328 2828 
Q 3544 3216 3844 3400 
Q 4144 3584 4550 3584 
Q 5097 3584 5394 3201 
Q 5691 2819 5691 2113 
L 5691 0 
L 5113 0 
L 5113 2094 
Q 5113 2597 4934 2840 
Q 4756 3084 4391 3084 
Q 3944 3084 3684 2787 
Q 3425 2491 3425 1978 
L 3425 0 
L 2847 0 
L 2847 2094 
Q 2847 2600 2669 2842 
Q 2491 3084 2119 3084 
Q 1678 3084 1418 2786 
Q 1159 2488 1159 1978 
L 1159 0 
L 581 0 
L 581 3500 
L 1159 3500 
L 1159 2956 
Q 1356 3278 1631 3431 
Q 1906 3584 2284 3584 
Q 2666 3584 2933 3390 
Q 3200 3197 3328 2828 
z
" id="DejaVuSans-6d" transform="scale(0.015625)"/>
       <path d="M 1959 3097 
Q 1497 3097 1228 2736 
Q 959 2375 959 1747 
Q 959 1119 1226 758 
Q 1494 397 1959 397 
Q 2419 397 2687 759 
Q 2956 1122 2956 1747 
Q 2956 2369 2687 2733 
Q 2419 3097 1959 3097 
z
M 1959 3584 
Q 2709 3584 3137 3096 
Q 3566 2609 3566 1747 
Q 3566 888 3137 398 
Q 2709 -91 1959 -91 
Q 1206 -91 779 398 
Q 353 888 353 1747 
Q 353 2609 779 3096 
Q 1206 3584 1959 3584 
z
" id="DejaVuSans-6f" transform="scale(0.015625)"/>
       <path d="M 3263 -1063 
L 3263 -1509 
L -63 -1509 
L -63 -1063 
L 3263 -1063 
z
" id="DejaVuSans-5f" transform="scale(0.015625)"/>
       <path d="M 1259 4147 
L 1259 2394 
L 2053 2394 
Q 2494 2394 2734 2622 
Q 2975 2850 2975 3272 
Q 2975 3691 2734 3919 
Q 2494 4147 2053 4147 
L 1259 4147 
z
M 628 4666 
L 2053 4666 
Q 2838 4666 3239 4311 
Q 3641 3956 3641 3272 
Q 3641 2581 3239 2228 
Q 2838 1875 2053 1875 
L 1259 1875 
L 1259 0 
L 628 0 
L 628 4666 
z
" id="DejaVuSans-50" transform="scale(0.015625)"/>
      </defs>
      <use xlink:href="#DejaVuSans-45"/>
      <use x="63.183594" xlink:href="#DejaVuSans-6d"/>
      <use x="160.595703" xlink:href="#DejaVuSans-6f"/>
      <use x="221.777344" xlink:href="#DejaVuSans-5f"/>
      <use x="271.777344" xlink:href="#DejaVuSans-50"/>
      <use x="328.455078" xlink:href="#DejaVuSans-6f"/>
      <use x="389.636719" xlink:href="#DejaVuSans-73"/>
     </g>
    </g>
   </g>
  </g>
 </g>
 <defs>
  <clipPath id="p1cc9763287">
   <rect height="434.88" width="892.8" x="33.71875" y="30.2451"/>
  </clipPath>
 </defs>
</svg>
