<?xml version="1.0" encoding="utf-8" standalone="no"?>
<!DOCTYPE svg PUBLIC "-//W3C//DTD SVG 1.1//EN"
  "http://www.w3.org/Graphics/SVG/1.1/DTD/svg11.dtd">
<svg height="530.694152pt" version="1.1" viewBox="0 0 925.410169 530.694152" width="925.410169pt" xmlns="http://www.w3.org/2000/svg" xmlns:xlink="http://www.w3.org/1999/xlink">
 <metadata>
  <rdf:RDF xmlns:cc="http://creativecommons.org/ns#" xmlns:dc="http://purl.org/dc/elements/1.1/" xmlns:rdf="http://www.w3.org/1999/02/22-rdf-syntax-ns#">
   <cc:Work>
    <dc:type rdf:resource="http://purl.org/dc/dcmitype/StillImage"/>
    <dc:date>2021-07-04T13:31:21.404762</dc:date>
    <dc:format>image/svg+xml</dc:format>
    <dc:creator>
     <cc:Agent>
      <dc:title>Matplotlib v3.4.1, https://matplotlib.org/</dc:title>
     </cc:Agent>
    </dc:creator>
   </cc:Work>
  </rdf:RDF>
 </metadata>
 <defs>
  <style type="text/css">*{stroke-linecap:butt;stroke-linejoin:round;}</style>
 </defs>
 <g id="figure_1">
  <g id="patch_1">
   <path d="M 0 530.694152 
L 925.410169 530.694152 
L 925.410169 0 
L 0 0 
z
" style="fill:none;"/>
  </g>
  <g id="axes_1">
   <g id="patch_2">
    <path d="M 26.164844 224.607744 
L 431.983026 224.607744 
L 431.983026 26.935017 
L 26.164844 26.935017 
z
" style="fill:#ffffff;"/>
   </g>
   <g id="matplotlib.axis_1">
    <g id="xtick_1">
     <g id="line2d_1">
      <path clip-path="url(#p04c0260164)" d="M 44.611125 224.607744 
L 44.611125 26.935017 
" style="fill:none;stroke:#b0b0b0;stroke-linecap:square;stroke-width:0.3;"/>
     </g>
     <g id="line2d_2">
      <defs>
       <path d="M 0 0 
L 0 3.5 
" id="m3c709c82da" style="stroke:#000000;stroke-width:0.8;"/>
      </defs>
      <g>
       <use style="stroke:#000000;stroke-width:0.8;" x="44.611125" xlink:href="#m3c709c82da" y="224.607744"/>
      </g>
     </g>
    </g>
    <g id="xtick_2">
     <g id="line2d_3">
      <path clip-path="url(#p04c0260164)" d="M 80.898891 224.607744 
L 80.898891 26.935017 
" style="fill:none;stroke:#b0b0b0;stroke-linecap:square;stroke-width:0.3;"/>
     </g>
     <g id="line2d_4">
      <g>
       <use style="stroke:#000000;stroke-width:0.8;" x="80.898891" xlink:href="#m3c709c82da" y="224.607744"/>
      </g>
     </g>
    </g>
    <g id="xtick_3">
     <g id="line2d_5">
      <path clip-path="url(#p04c0260164)" d="M 117.186657 224.607744 
L 117.186657 26.935017 
" style="fill:none;stroke:#b0b0b0;stroke-linecap:square;stroke-width:0.3;"/>
     </g>
     <g id="line2d_6">
      <g>
       <use style="stroke:#000000;stroke-width:0.8;" x="117.186657" xlink:href="#m3c709c82da" y="224.607744"/>
      </g>
     </g>
    </g>
    <g id="xtick_4">
     <g id="line2d_7">
      <path clip-path="url(#p04c0260164)" d="M 153.474422 224.607744 
L 153.474422 26.935017 
" style="fill:none;stroke:#b0b0b0;stroke-linecap:square;stroke-width:0.3;"/>
     </g>
     <g id="line2d_8">
      <g>
       <use style="stroke:#000000;stroke-width:0.8;" x="153.474422" xlink:href="#m3c709c82da" y="224.607744"/>
      </g>
     </g>
    </g>
    <g id="xtick_5">
     <g id="line2d_9">
      <path clip-path="url(#p04c0260164)" d="M 189.762188 224.607744 
L 189.762188 26.935017 
" style="fill:none;stroke:#b0b0b0;stroke-linecap:square;stroke-width:0.3;"/>
     </g>
     <g id="line2d_10">
      <g>
       <use style="stroke:#000000;stroke-width:0.8;" x="189.762188" xlink:href="#m3c709c82da" y="224.607744"/>
      </g>
     </g>
    </g>
    <g id="xtick_6">
     <g id="line2d_11">
      <path clip-path="url(#p04c0260164)" d="M 226.049954 224.607744 
L 226.049954 26.935017 
" style="fill:none;stroke:#b0b0b0;stroke-linecap:square;stroke-width:0.3;"/>
     </g>
     <g id="line2d_12">
      <g>
       <use style="stroke:#000000;stroke-width:0.8;" x="226.049954" xlink:href="#m3c709c82da" y="224.607744"/>
      </g>
     </g>
    </g>
    <g id="xtick_7">
     <g id="line2d_13">
      <path clip-path="url(#p04c0260164)" d="M 262.33772 224.607744 
L 262.33772 26.935017 
" style="fill:none;stroke:#b0b0b0;stroke-linecap:square;stroke-width:0.3;"/>
     </g>
     <g id="line2d_14">
      <g>
       <use style="stroke:#000000;stroke-width:0.8;" x="262.33772" xlink:href="#m3c709c82da" y="224.607744"/>
      </g>
     </g>
    </g>
    <g id="xtick_8">
     <g id="line2d_15">
      <path clip-path="url(#p04c0260164)" d="M 298.625486 224.607744 
L 298.625486 26.935017 
" style="fill:none;stroke:#b0b0b0;stroke-linecap:square;stroke-width:0.3;"/>
     </g>
     <g id="line2d_16">
      <g>
       <use style="stroke:#000000;stroke-width:0.8;" x="298.625486" xlink:href="#m3c709c82da" y="224.607744"/>
      </g>
     </g>
    </g>
    <g id="xtick_9">
     <g id="line2d_17">
      <path clip-path="url(#p04c0260164)" d="M 334.913252 224.607744 
L 334.913252 26.935017 
" style="fill:none;stroke:#b0b0b0;stroke-linecap:square;stroke-width:0.3;"/>
     </g>
     <g id="line2d_18">
      <g>
       <use style="stroke:#000000;stroke-width:0.8;" x="334.913252" xlink:href="#m3c709c82da" y="224.607744"/>
      </g>
     </g>
    </g>
    <g id="xtick_10">
     <g id="line2d_19">
      <path clip-path="url(#p04c0260164)" d="M 371.201018 224.607744 
L 371.201018 26.935017 
" style="fill:none;stroke:#b0b0b0;stroke-linecap:square;stroke-width:0.3;"/>
     </g>
     <g id="line2d_20">
      <g>
       <use style="stroke:#000000;stroke-width:0.8;" x="371.201018" xlink:href="#m3c709c82da" y="224.607744"/>
      </g>
     </g>
    </g>
    <g id="xtick_11">
     <g id="line2d_21">
      <path clip-path="url(#p04c0260164)" d="M 407.488784 224.607744 
L 407.488784 26.935017 
" style="fill:none;stroke:#b0b0b0;stroke-linecap:square;stroke-width:0.3;"/>
     </g>
     <g id="line2d_22">
      <g>
       <use style="stroke:#000000;stroke-width:0.8;" x="407.488784" xlink:href="#m3c709c82da" y="224.607744"/>
      </g>
     </g>
    </g>
   </g>
   <g id="matplotlib.axis_2">
    <g id="ytick_1">
     <g id="line2d_23">
      <path clip-path="url(#p04c0260164)" d="M 26.164844 199.503052 
L 431.983026 199.503052 
" style="fill:none;stroke:#b0b0b0;stroke-linecap:square;stroke-width:0.3;"/>
     </g>
     <g id="line2d_24">
      <defs>
       <path d="M 0 0 
L -3.5 0 
" id="m9142da2816" style="stroke:#000000;stroke-width:0.8;"/>
      </defs>
      <g>
       <use style="stroke:#000000;stroke-width:0.8;" x="26.164844" xlink:href="#m9142da2816" y="199.503052"/>
      </g>
     </g>
     <g id="text_1">
      <!-- −2 -->
      <g transform="translate(0 204.442037)scale(0.13 -0.13)">
       <defs>
        <path d="M 678 2272 
L 4684 2272 
L 4684 1741 
L 678 1741 
L 678 2272 
z
" id="DejaVuSans-2212" transform="scale(0.015625)"/>
        <path d="M 1228 531 
L 3431 531 
L 3431 0 
L 469 0 
L 469 531 
Q 828 903 1448 1529 
Q 2069 2156 2228 2338 
Q 2531 2678 2651 2914 
Q 2772 3150 2772 3378 
Q 2772 3750 2511 3984 
Q 2250 4219 1831 4219 
Q 1534 4219 1204 4116 
Q 875 4013 500 3803 
L 500 4441 
Q 881 4594 1212 4672 
Q 1544 4750 1819 4750 
Q 2544 4750 2975 4387 
Q 3406 4025 3406 3419 
Q 3406 3131 3298 2873 
Q 3191 2616 2906 2266 
Q 2828 2175 2409 1742 
Q 1991 1309 1228 531 
z
" id="DejaVuSans-32" transform="scale(0.015625)"/>
       </defs>
       <use xlink:href="#DejaVuSans-2212"/>
       <use x="83.789062" xlink:href="#DejaVuSans-32"/>
      </g>
     </g>
    </g>
    <g id="ytick_2">
     <g id="line2d_25">
      <path clip-path="url(#p04c0260164)" d="M 26.164844 161.13115 
L 431.983026 161.13115 
" style="fill:none;stroke:#b0b0b0;stroke-linecap:square;stroke-width:0.3;"/>
     </g>
     <g id="line2d_26">
      <g>
       <use style="stroke:#000000;stroke-width:0.8;" x="26.164844" xlink:href="#m9142da2816" y="161.13115"/>
      </g>
     </g>
     <g id="text_2">
      <!-- −1 -->
      <g transform="translate(0 166.070135)scale(0.13 -0.13)">
       <defs>
        <path d="M 794 531 
L 1825 531 
L 1825 4091 
L 703 3866 
L 703 4441 
L 1819 4666 
L 2450 4666 
L 2450 531 
L 3481 531 
L 3481 0 
L 794 0 
L 794 531 
z
" id="DejaVuSans-31" transform="scale(0.015625)"/>
       </defs>
       <use xlink:href="#DejaVuSans-2212"/>
       <use x="83.789062" xlink:href="#DejaVuSans-31"/>
      </g>
     </g>
    </g>
    <g id="ytick_3">
     <g id="line2d_27">
      <path clip-path="url(#p04c0260164)" d="M 26.164844 122.759249 
L 431.983026 122.759249 
" style="fill:none;stroke:#b0b0b0;stroke-linecap:square;stroke-width:0.3;"/>
     </g>
     <g id="line2d_28">
      <g>
       <use style="stroke:#000000;stroke-width:0.8;" x="26.164844" xlink:href="#m9142da2816" y="122.759249"/>
      </g>
     </g>
     <g id="text_3">
      <!-- 0 -->
      <g transform="translate(10.893594 127.698233)scale(0.13 -0.13)">
       <defs>
        <path d="M 2034 4250 
Q 1547 4250 1301 3770 
Q 1056 3291 1056 2328 
Q 1056 1369 1301 889 
Q 1547 409 2034 409 
Q 2525 409 2770 889 
Q 3016 1369 3016 2328 
Q 3016 3291 2770 3770 
Q 2525 4250 2034 4250 
z
M 2034 4750 
Q 2819 4750 3233 4129 
Q 3647 3509 3647 2328 
Q 3647 1150 3233 529 
Q 2819 -91 2034 -91 
Q 1250 -91 836 529 
Q 422 1150 422 2328 
Q 422 3509 836 4129 
Q 1250 4750 2034 4750 
z
" id="DejaVuSans-30" transform="scale(0.015625)"/>
       </defs>
       <use xlink:href="#DejaVuSans-30"/>
      </g>
     </g>
    </g>
    <g id="ytick_4">
     <g id="line2d_29">
      <path clip-path="url(#p04c0260164)" d="M 26.164844 84.387347 
L 431.983026 84.387347 
" style="fill:none;stroke:#b0b0b0;stroke-linecap:square;stroke-width:0.3;"/>
     </g>
     <g id="line2d_30">
      <g>
       <use style="stroke:#000000;stroke-width:0.8;" x="26.164844" xlink:href="#m9142da2816" y="84.387347"/>
      </g>
     </g>
     <g id="text_4">
      <!-- 1 -->
      <g transform="translate(10.893594 89.326331)scale(0.13 -0.13)">
       <use xlink:href="#DejaVuSans-31"/>
      </g>
     </g>
    </g>
    <g id="ytick_5">
     <g id="line2d_31">
      <path clip-path="url(#p04c0260164)" d="M 26.164844 46.015445 
L 431.983026 46.015445 
" style="fill:none;stroke:#b0b0b0;stroke-linecap:square;stroke-width:0.3;"/>
     </g>
     <g id="line2d_32">
      <g>
       <use style="stroke:#000000;stroke-width:0.8;" x="26.164844" xlink:href="#m9142da2816" y="46.015445"/>
      </g>
     </g>
     <g id="text_5">
      <!-- 2 -->
      <g transform="translate(10.893594 50.954429)scale(0.13 -0.13)">
       <use xlink:href="#DejaVuSans-32"/>
      </g>
     </g>
    </g>
   </g>
   <g id="line2d_33">
    <path clip-path="url(#p04c0260164)" d="M 44.611125 169.131746 
L 50.659086 142.833722 
L 56.707047 139.354339 
L 62.755008 97.168664 
L 68.802969 120.782992 
L 74.85093 150.890511 
L 80.898891 195.878258 
L 86.946852 215.62262 
L 92.994813 190.785494 
L 99.042774 182.057138 
L 105.090735 170.11008 
L 111.138696 184.659508 
L 117.186657 176.283144 
L 123.234617 182.477818 
L 129.282578 179.338185 
L 135.330539 172.745106 
L 141.3785 182.673039 
L 147.426461 169.087549 
L 153.474422 156.5564 
L 159.522383 139.509558 
L 165.570344 144.925294 
L 171.618305 137.34349 
L 177.666266 138.951291 
L 183.714227 125.327086 
L 189.762188 135.662969 
L 195.810149 144.235487 
L 201.85811 83.170772 
L 207.906071 107.659631 
L 213.954032 103.998033 
L 220.001993 98.103798 
L 226.049954 99.899862 
L 232.097915 112.955119 
L 238.145876 119.579678 
L 244.193837 125.548649 
L 250.241798 134.346506 
L 256.289759 111.729182 
L 262.33772 87.095424 
L 268.385681 73.103078 
L 274.433642 35.920141 
L 280.481603 59.960954 
L 286.529564 72.434332 
L 292.577525 89.591635 
L 298.625486 90.149535 
L 304.673447 91.748399 
L 310.721408 92.954313 
L 316.769369 112.282807 
L 322.81733 106.749721 
L 328.865291 105.335692 
L 334.913252 89.075463 
L 340.961213 98.106417 
L 347.009174 105.982312 
L 353.057135 106.804078 
L 359.105096 109.280508 
L 365.153057 95.729324 
L 371.201018 111.876815 
L 377.248979 69.07249 
L 383.29694 82.688348 
L 389.344901 109.742964 
L 395.392862 81.17795 
L 401.440823 92.154001 
L 407.488784 90.115715 
L 413.536745 110.558276 
" style="fill:none;stroke:#ff0000;stroke-linecap:square;stroke-width:1.5;"/>
   </g>
   <g id="line2d_34">
    <path clip-path="url(#p04c0260164)" d="M 44.611125 130.382029 
L 50.659086 133.123716 
L 56.707047 119.189772 
L 62.755008 98.109228 
L 68.802969 111.500315 
L 74.85093 141.994421 
L 80.898891 181.943415 
L 86.946852 202.400314 
L 92.994813 197.650125 
L 99.042774 192.51405 
L 105.090735 192.747479 
L 111.138696 185.241308 
L 117.186657 186.908318 
L 123.234617 177.343737 
L 129.282578 175.008615 
L 135.330539 176.131325 
L 141.3785 178.6769 
L 147.426461 165.87727 
L 153.474422 146.367814 
L 159.522383 142.783342 
L 165.570344 158.198056 
L 171.618305 143.824371 
L 177.666266 124.164327 
L 183.714227 129.242091 
L 189.762188 138.016574 
L 195.810149 141.81519 
L 201.85811 89.845898 
L 207.906071 104.205364 
L 213.954032 88.878247 
L 220.001993 79.73406 
L 226.049954 77.676988 
L 232.097915 102.069398 
L 238.145876 118.480676 
L 244.193837 127.417619 
L 250.241798 124.063883 
L 256.289759 118.034329 
L 262.33772 65.490688 
L 268.385681 73.668274 
L 274.433642 40.931332 
L 280.481603 54.19835 
L 286.529564 65.100988 
L 292.577525 71.901156 
L 298.625486 106.90954 
L 304.673447 93.752967 
L 310.721408 112.856347 
L 316.769369 119.924038 
L 322.81733 89.669234 
L 328.865291 98.584314 
L 334.913252 104.135217 
L 340.961213 118.371755 
L 347.009174 118.39298 
L 353.057135 126.624408 
L 359.105096 134.072502 
L 365.153057 129.474032 
L 371.201018 85.678553 
L 377.248979 77.990285 
L 383.29694 100.088606 
L 389.344901 113.57221 
L 395.392862 81.730367 
L 401.440823 98.931458 
L 407.488784 105.485608 
L 413.536745 121.977638 
" style="fill:none;stroke:#0000ff;stroke-dasharray:5.55,2.4;stroke-dashoffset:0;stroke-width:1.5;"/>
   </g>
   <g id="patch_3">
    <path d="M 26.164844 224.607744 
L 26.164844 26.935017 
" style="fill:none;stroke:#000000;stroke-linecap:square;stroke-linejoin:miter;stroke-width:0.8;"/>
   </g>
   <g id="patch_4">
    <path d="M 431.983026 224.607744 
L 431.983026 26.935017 
" style="fill:none;stroke:#000000;stroke-linecap:square;stroke-linejoin:miter;stroke-width:0.8;"/>
   </g>
   <g id="patch_5">
    <path d="M 26.164844 224.607744 
L 431.983026 224.607744 
" style="fill:none;stroke:#000000;stroke-linecap:square;stroke-linejoin:miter;stroke-width:0.8;"/>
   </g>
   <g id="patch_6">
    <path d="M 26.164844 26.935017 
L 431.983026 26.935017 
" style="fill:none;stroke:#000000;stroke-linecap:square;stroke-linejoin:miter;stroke-width:0.8;"/>
   </g>
   <g id="legend_1">
    <g id="patch_7">
     <path d="M 28.764844 22.981562 
L 429.383026 22.981562 
Q 431.983026 22.981562 431.983026 20.381562 
L 431.983026 2.6 
Q 431.983026 0 429.383026 0 
L 28.764844 0 
Q 26.164844 0 26.164844 2.6 
L 26.164844 20.381562 
Q 26.164844 22.981562 28.764844 22.981562 
z
" style="fill:#ffffff;opacity:0.8;stroke:#cccccc;stroke-linejoin:miter;"/>
    </g>
    <g id="line2d_35">
     <path d="M 31.364844 10.527969 
L 57.364844 10.527969 
" style="fill:none;stroke:#ff0000;stroke-linecap:square;stroke-width:1.5;"/>
    </g>
    <g id="line2d_36"/>
    <g id="text_6">
     <!-- anger (Emolex) -->
     <g transform="translate(67.764844 15.077969)scale(0.13 -0.13)">
      <defs>
       <path d="M 2194 1759 
Q 1497 1759 1228 1600 
Q 959 1441 959 1056 
Q 959 750 1161 570 
Q 1363 391 1709 391 
Q 2188 391 2477 730 
Q 2766 1069 2766 1631 
L 2766 1759 
L 2194 1759 
z
M 3341 1997 
L 3341 0 
L 2766 0 
L 2766 531 
Q 2569 213 2275 61 
Q 1981 -91 1556 -91 
Q 1019 -91 701 211 
Q 384 513 384 1019 
Q 384 1609 779 1909 
Q 1175 2209 1959 2209 
L 2766 2209 
L 2766 2266 
Q 2766 2663 2505 2880 
Q 2244 3097 1772 3097 
Q 1472 3097 1187 3025 
Q 903 2953 641 2809 
L 641 3341 
Q 956 3463 1253 3523 
Q 1550 3584 1831 3584 
Q 2591 3584 2966 3190 
Q 3341 2797 3341 1997 
z
" id="DejaVuSans-61" transform="scale(0.015625)"/>
       <path d="M 3513 2113 
L 3513 0 
L 2938 0 
L 2938 2094 
Q 2938 2591 2744 2837 
Q 2550 3084 2163 3084 
Q 1697 3084 1428 2787 
Q 1159 2491 1159 1978 
L 1159 0 
L 581 0 
L 581 3500 
L 1159 3500 
L 1159 2956 
Q 1366 3272 1645 3428 
Q 1925 3584 2291 3584 
Q 2894 3584 3203 3211 
Q 3513 2838 3513 2113 
z
" id="DejaVuSans-6e" transform="scale(0.015625)"/>
       <path d="M 2906 1791 
Q 2906 2416 2648 2759 
Q 2391 3103 1925 3103 
Q 1463 3103 1205 2759 
Q 947 2416 947 1791 
Q 947 1169 1205 825 
Q 1463 481 1925 481 
Q 2391 481 2648 825 
Q 2906 1169 2906 1791 
z
M 3481 434 
Q 3481 -459 3084 -895 
Q 2688 -1331 1869 -1331 
Q 1566 -1331 1297 -1286 
Q 1028 -1241 775 -1147 
L 775 -588 
Q 1028 -725 1275 -790 
Q 1522 -856 1778 -856 
Q 2344 -856 2625 -561 
Q 2906 -266 2906 331 
L 2906 616 
Q 2728 306 2450 153 
Q 2172 0 1784 0 
Q 1141 0 747 490 
Q 353 981 353 1791 
Q 353 2603 747 3093 
Q 1141 3584 1784 3584 
Q 2172 3584 2450 3431 
Q 2728 3278 2906 2969 
L 2906 3500 
L 3481 3500 
L 3481 434 
z
" id="DejaVuSans-67" transform="scale(0.015625)"/>
       <path d="M 3597 1894 
L 3597 1613 
L 953 1613 
Q 991 1019 1311 708 
Q 1631 397 2203 397 
Q 2534 397 2845 478 
Q 3156 559 3463 722 
L 3463 178 
Q 3153 47 2828 -22 
Q 2503 -91 2169 -91 
Q 1331 -91 842 396 
Q 353 884 353 1716 
Q 353 2575 817 3079 
Q 1281 3584 2069 3584 
Q 2775 3584 3186 3129 
Q 3597 2675 3597 1894 
z
M 3022 2063 
Q 3016 2534 2758 2815 
Q 2500 3097 2075 3097 
Q 1594 3097 1305 2825 
Q 1016 2553 972 2059 
L 3022 2063 
z
" id="DejaVuSans-65" transform="scale(0.015625)"/>
       <path d="M 2631 2963 
Q 2534 3019 2420 3045 
Q 2306 3072 2169 3072 
Q 1681 3072 1420 2755 
Q 1159 2438 1159 1844 
L 1159 0 
L 581 0 
L 581 3500 
L 1159 3500 
L 1159 2956 
Q 1341 3275 1631 3429 
Q 1922 3584 2338 3584 
Q 2397 3584 2469 3576 
Q 2541 3569 2628 3553 
L 2631 2963 
z
" id="DejaVuSans-72" transform="scale(0.015625)"/>
       <path id="DejaVuSans-20" transform="scale(0.015625)"/>
       <path d="M 1984 4856 
Q 1566 4138 1362 3434 
Q 1159 2731 1159 2009 
Q 1159 1288 1364 580 
Q 1569 -128 1984 -844 
L 1484 -844 
Q 1016 -109 783 600 
Q 550 1309 550 2009 
Q 550 2706 781 3412 
Q 1013 4119 1484 4856 
L 1984 4856 
z
" id="DejaVuSans-28" transform="scale(0.015625)"/>
       <path d="M 628 4666 
L 3578 4666 
L 3578 4134 
L 1259 4134 
L 1259 2753 
L 3481 2753 
L 3481 2222 
L 1259 2222 
L 1259 531 
L 3634 531 
L 3634 0 
L 628 0 
L 628 4666 
z
" id="DejaVuSans-45" transform="scale(0.015625)"/>
       <path d="M 3328 2828 
Q 3544 3216 3844 3400 
Q 4144 3584 4550 3584 
Q 5097 3584 5394 3201 
Q 5691 2819 5691 2113 
L 5691 0 
L 5113 0 
L 5113 2094 
Q 5113 2597 4934 2840 
Q 4756 3084 4391 3084 
Q 3944 3084 3684 2787 
Q 3425 2491 3425 1978 
L 3425 0 
L 2847 0 
L 2847 2094 
Q 2847 2600 2669 2842 
Q 2491 3084 2119 3084 
Q 1678 3084 1418 2786 
Q 1159 2488 1159 1978 
L 1159 0 
L 581 0 
L 581 3500 
L 1159 3500 
L 1159 2956 
Q 1356 3278 1631 3431 
Q 1906 3584 2284 3584 
Q 2666 3584 2933 3390 
Q 3200 3197 3328 2828 
z
" id="DejaVuSans-6d" transform="scale(0.015625)"/>
       <path d="M 1959 3097 
Q 1497 3097 1228 2736 
Q 959 2375 959 1747 
Q 959 1119 1226 758 
Q 1494 397 1959 397 
Q 2419 397 2687 759 
Q 2956 1122 2956 1747 
Q 2956 2369 2687 2733 
Q 2419 3097 1959 3097 
z
M 1959 3584 
Q 2709 3584 3137 3096 
Q 3566 2609 3566 1747 
Q 3566 888 3137 398 
Q 2709 -91 1959 -91 
Q 1206 -91 779 398 
Q 353 888 353 1747 
Q 353 2609 779 3096 
Q 1206 3584 1959 3584 
z
" id="DejaVuSans-6f" transform="scale(0.015625)"/>
       <path d="M 603 4863 
L 1178 4863 
L 1178 0 
L 603 0 
L 603 4863 
z
" id="DejaVuSans-6c" transform="scale(0.015625)"/>
       <path d="M 3513 3500 
L 2247 1797 
L 3578 0 
L 2900 0 
L 1881 1375 
L 863 0 
L 184 0 
L 1544 1831 
L 300 3500 
L 978 3500 
L 1906 2253 
L 2834 3500 
L 3513 3500 
z
" id="DejaVuSans-78" transform="scale(0.015625)"/>
       <path d="M 513 4856 
L 1013 4856 
Q 1481 4119 1714 3412 
Q 1947 2706 1947 2009 
Q 1947 1309 1714 600 
Q 1481 -109 1013 -844 
L 513 -844 
Q 928 -128 1133 580 
Q 1338 1288 1338 2009 
Q 1338 2731 1133 3434 
Q 928 4138 513 4856 
z
" id="DejaVuSans-29" transform="scale(0.015625)"/>
      </defs>
      <use xlink:href="#DejaVuSans-61"/>
      <use x="61.279297" xlink:href="#DejaVuSans-6e"/>
      <use x="124.658203" xlink:href="#DejaVuSans-67"/>
      <use x="188.134766" xlink:href="#DejaVuSans-65"/>
      <use x="249.658203" xlink:href="#DejaVuSans-72"/>
      <use x="290.771484" xlink:href="#DejaVuSans-20"/>
      <use x="322.558594" xlink:href="#DejaVuSans-28"/>
      <use x="361.572266" xlink:href="#DejaVuSans-45"/>
      <use x="424.755859" xlink:href="#DejaVuSans-6d"/>
      <use x="522.167969" xlink:href="#DejaVuSans-6f"/>
      <use x="583.349609" xlink:href="#DejaVuSans-6c"/>
      <use x="611.132812" xlink:href="#DejaVuSans-65"/>
      <use x="670.90625" xlink:href="#DejaVuSans-78"/>
      <use x="730.085938" xlink:href="#DejaVuSans-29"/>
     </g>
    </g>
    <g id="line2d_37">
     <path d="M 298.306463 10.527969 
L 324.306463 10.527969 
" style="fill:none;stroke:#0000ff;stroke-dasharray:5.55,2.4;stroke-dashoffset:0;stroke-width:1.5;"/>
    </g>
    <g id="line2d_38"/>
    <g id="text_7">
     <!-- Rabbia (LIWC) -->
     <g transform="translate(334.706463 15.077969)scale(0.13 -0.13)">
      <defs>
       <path d="M 2841 2188 
Q 3044 2119 3236 1894 
Q 3428 1669 3622 1275 
L 4263 0 
L 3584 0 
L 2988 1197 
Q 2756 1666 2539 1819 
Q 2322 1972 1947 1972 
L 1259 1972 
L 1259 0 
L 628 0 
L 628 4666 
L 2053 4666 
Q 2853 4666 3247 4331 
Q 3641 3997 3641 3322 
Q 3641 2881 3436 2590 
Q 3231 2300 2841 2188 
z
M 1259 4147 
L 1259 2491 
L 2053 2491 
Q 2509 2491 2742 2702 
Q 2975 2913 2975 3322 
Q 2975 3731 2742 3939 
Q 2509 4147 2053 4147 
L 1259 4147 
z
" id="DejaVuSans-52" transform="scale(0.015625)"/>
       <path d="M 3116 1747 
Q 3116 2381 2855 2742 
Q 2594 3103 2138 3103 
Q 1681 3103 1420 2742 
Q 1159 2381 1159 1747 
Q 1159 1113 1420 752 
Q 1681 391 2138 391 
Q 2594 391 2855 752 
Q 3116 1113 3116 1747 
z
M 1159 2969 
Q 1341 3281 1617 3432 
Q 1894 3584 2278 3584 
Q 2916 3584 3314 3078 
Q 3713 2572 3713 1747 
Q 3713 922 3314 415 
Q 2916 -91 2278 -91 
Q 1894 -91 1617 61 
Q 1341 213 1159 525 
L 1159 0 
L 581 0 
L 581 4863 
L 1159 4863 
L 1159 2969 
z
" id="DejaVuSans-62" transform="scale(0.015625)"/>
       <path d="M 603 3500 
L 1178 3500 
L 1178 0 
L 603 0 
L 603 3500 
z
M 603 4863 
L 1178 4863 
L 1178 4134 
L 603 4134 
L 603 4863 
z
" id="DejaVuSans-69" transform="scale(0.015625)"/>
       <path d="M 628 4666 
L 1259 4666 
L 1259 531 
L 3531 531 
L 3531 0 
L 628 0 
L 628 4666 
z
" id="DejaVuSans-4c" transform="scale(0.015625)"/>
       <path d="M 628 4666 
L 1259 4666 
L 1259 0 
L 628 0 
L 628 4666 
z
" id="DejaVuSans-49" transform="scale(0.015625)"/>
       <path d="M 213 4666 
L 850 4666 
L 1831 722 
L 2809 4666 
L 3519 4666 
L 4500 722 
L 5478 4666 
L 6119 4666 
L 4947 0 
L 4153 0 
L 3169 4050 
L 2175 0 
L 1381 0 
L 213 4666 
z
" id="DejaVuSans-57" transform="scale(0.015625)"/>
       <path d="M 4122 4306 
L 4122 3641 
Q 3803 3938 3442 4084 
Q 3081 4231 2675 4231 
Q 1875 4231 1450 3742 
Q 1025 3253 1025 2328 
Q 1025 1406 1450 917 
Q 1875 428 2675 428 
Q 3081 428 3442 575 
Q 3803 722 4122 1019 
L 4122 359 
Q 3791 134 3420 21 
Q 3050 -91 2638 -91 
Q 1578 -91 968 557 
Q 359 1206 359 2328 
Q 359 3453 968 4101 
Q 1578 4750 2638 4750 
Q 3056 4750 3426 4639 
Q 3797 4528 4122 4306 
z
" id="DejaVuSans-43" transform="scale(0.015625)"/>
      </defs>
      <use xlink:href="#DejaVuSans-52"/>
      <use x="67.232422" xlink:href="#DejaVuSans-61"/>
      <use x="128.511719" xlink:href="#DejaVuSans-62"/>
      <use x="191.988281" xlink:href="#DejaVuSans-62"/>
      <use x="255.464844" xlink:href="#DejaVuSans-69"/>
      <use x="283.248047" xlink:href="#DejaVuSans-61"/>
      <use x="344.527344" xlink:href="#DejaVuSans-20"/>
      <use x="376.314453" xlink:href="#DejaVuSans-28"/>
      <use x="415.328125" xlink:href="#DejaVuSans-4c"/>
      <use x="471.041016" xlink:href="#DejaVuSans-49"/>
      <use x="500.533203" xlink:href="#DejaVuSans-57"/>
      <use x="599.410156" xlink:href="#DejaVuSans-43"/>
      <use x="669.234375" xlink:href="#DejaVuSans-29"/>
     </g>
    </g>
   </g>
  </g>
  <g id="axes_2">
   <g id="patch_8">
    <path d="M 513.146662 224.607744 
L 918.964844 224.607744 
L 918.964844 26.935017 
L 513.146662 26.935017 
z
" style="fill:#ffffff;"/>
   </g>
   <g id="matplotlib.axis_3">
    <g id="xtick_12">
     <g id="line2d_39">
      <path clip-path="url(#pcfc7509547)" d="M 531.592943 224.607744 
L 531.592943 26.935017 
" style="fill:none;stroke:#b0b0b0;stroke-linecap:square;stroke-width:0.3;"/>
     </g>
     <g id="line2d_40">
      <g>
       <use style="stroke:#000000;stroke-width:0.8;" x="531.592943" xlink:href="#m3c709c82da" y="224.607744"/>
      </g>
     </g>
    </g>
    <g id="xtick_13">
     <g id="line2d_41">
      <path clip-path="url(#pcfc7509547)" d="M 567.880709 224.607744 
L 567.880709 26.935017 
" style="fill:none;stroke:#b0b0b0;stroke-linecap:square;stroke-width:0.3;"/>
     </g>
     <g id="line2d_42">
      <g>
       <use style="stroke:#000000;stroke-width:0.8;" x="567.880709" xlink:href="#m3c709c82da" y="224.607744"/>
      </g>
     </g>
    </g>
    <g id="xtick_14">
     <g id="line2d_43">
      <path clip-path="url(#pcfc7509547)" d="M 604.168475 224.607744 
L 604.168475 26.935017 
" style="fill:none;stroke:#b0b0b0;stroke-linecap:square;stroke-width:0.3;"/>
     </g>
     <g id="line2d_44">
      <g>
       <use style="stroke:#000000;stroke-width:0.8;" x="604.168475" xlink:href="#m3c709c82da" y="224.607744"/>
      </g>
     </g>
    </g>
    <g id="xtick_15">
     <g id="line2d_45">
      <path clip-path="url(#pcfc7509547)" d="M 640.456241 224.607744 
L 640.456241 26.935017 
" style="fill:none;stroke:#b0b0b0;stroke-linecap:square;stroke-width:0.3;"/>
     </g>
     <g id="line2d_46">
      <g>
       <use style="stroke:#000000;stroke-width:0.8;" x="640.456241" xlink:href="#m3c709c82da" y="224.607744"/>
      </g>
     </g>
    </g>
    <g id="xtick_16">
     <g id="line2d_47">
      <path clip-path="url(#pcfc7509547)" d="M 676.744006 224.607744 
L 676.744006 26.935017 
" style="fill:none;stroke:#b0b0b0;stroke-linecap:square;stroke-width:0.3;"/>
     </g>
     <g id="line2d_48">
      <g>
       <use style="stroke:#000000;stroke-width:0.8;" x="676.744006" xlink:href="#m3c709c82da" y="224.607744"/>
      </g>
     </g>
    </g>
    <g id="xtick_17">
     <g id="line2d_49">
      <path clip-path="url(#pcfc7509547)" d="M 713.031772 224.607744 
L 713.031772 26.935017 
" style="fill:none;stroke:#b0b0b0;stroke-linecap:square;stroke-width:0.3;"/>
     </g>
     <g id="line2d_50">
      <g>
       <use style="stroke:#000000;stroke-width:0.8;" x="713.031772" xlink:href="#m3c709c82da" y="224.607744"/>
      </g>
     </g>
    </g>
    <g id="xtick_18">
     <g id="line2d_51">
      <path clip-path="url(#pcfc7509547)" d="M 749.319538 224.607744 
L 749.319538 26.935017 
" style="fill:none;stroke:#b0b0b0;stroke-linecap:square;stroke-width:0.3;"/>
     </g>
     <g id="line2d_52">
      <g>
       <use style="stroke:#000000;stroke-width:0.8;" x="749.319538" xlink:href="#m3c709c82da" y="224.607744"/>
      </g>
     </g>
    </g>
    <g id="xtick_19">
     <g id="line2d_53">
      <path clip-path="url(#pcfc7509547)" d="M 785.607304 224.607744 
L 785.607304 26.935017 
" style="fill:none;stroke:#b0b0b0;stroke-linecap:square;stroke-width:0.3;"/>
     </g>
     <g id="line2d_54">
      <g>
       <use style="stroke:#000000;stroke-width:0.8;" x="785.607304" xlink:href="#m3c709c82da" y="224.607744"/>
      </g>
     </g>
    </g>
    <g id="xtick_20">
     <g id="line2d_55">
      <path clip-path="url(#pcfc7509547)" d="M 821.89507 224.607744 
L 821.89507 26.935017 
" style="fill:none;stroke:#b0b0b0;stroke-linecap:square;stroke-width:0.3;"/>
     </g>
     <g id="line2d_56">
      <g>
       <use style="stroke:#000000;stroke-width:0.8;" x="821.89507" xlink:href="#m3c709c82da" y="224.607744"/>
      </g>
     </g>
    </g>
    <g id="xtick_21">
     <g id="line2d_57">
      <path clip-path="url(#pcfc7509547)" d="M 858.182836 224.607744 
L 858.182836 26.935017 
" style="fill:none;stroke:#b0b0b0;stroke-linecap:square;stroke-width:0.3;"/>
     </g>
     <g id="line2d_58">
      <g>
       <use style="stroke:#000000;stroke-width:0.8;" x="858.182836" xlink:href="#m3c709c82da" y="224.607744"/>
      </g>
     </g>
    </g>
    <g id="xtick_22">
     <g id="line2d_59">
      <path clip-path="url(#pcfc7509547)" d="M 894.470602 224.607744 
L 894.470602 26.935017 
" style="fill:none;stroke:#b0b0b0;stroke-linecap:square;stroke-width:0.3;"/>
     </g>
     <g id="line2d_60">
      <g>
       <use style="stroke:#000000;stroke-width:0.8;" x="894.470602" xlink:href="#m3c709c82da" y="224.607744"/>
      </g>
     </g>
    </g>
   </g>
   <g id="matplotlib.axis_4">
    <g id="ytick_6">
     <g id="line2d_61">
      <path clip-path="url(#pcfc7509547)" d="M 513.146662 196.270753 
L 918.964844 196.270753 
" style="fill:none;stroke:#b0b0b0;stroke-linecap:square;stroke-width:0.3;"/>
     </g>
     <g id="line2d_62">
      <g>
       <use style="stroke:#000000;stroke-width:0.8;" x="513.146662" xlink:href="#m9142da2816" y="196.270753"/>
      </g>
     </g>
     <g id="text_8">
      <!-- −2 -->
      <g transform="translate(486.981818 201.209738)scale(0.13 -0.13)">
       <use xlink:href="#DejaVuSans-2212"/>
       <use x="83.789062" xlink:href="#DejaVuSans-32"/>
      </g>
     </g>
    </g>
    <g id="ytick_7">
     <g id="line2d_63">
      <path clip-path="url(#pcfc7509547)" d="M 513.146662 158.721847 
L 918.964844 158.721847 
" style="fill:none;stroke:#b0b0b0;stroke-linecap:square;stroke-width:0.3;"/>
     </g>
     <g id="line2d_64">
      <g>
       <use style="stroke:#000000;stroke-width:0.8;" x="513.146662" xlink:href="#m9142da2816" y="158.721847"/>
      </g>
     </g>
     <g id="text_9">
      <!-- −1 -->
      <g transform="translate(486.981818 163.660831)scale(0.13 -0.13)">
       <use xlink:href="#DejaVuSans-2212"/>
       <use x="83.789062" xlink:href="#DejaVuSans-31"/>
      </g>
     </g>
    </g>
    <g id="ytick_8">
     <g id="line2d_65">
      <path clip-path="url(#pcfc7509547)" d="M 513.146662 121.17294 
L 918.964844 121.17294 
" style="fill:none;stroke:#b0b0b0;stroke-linecap:square;stroke-width:0.3;"/>
     </g>
     <g id="line2d_66">
      <g>
       <use style="stroke:#000000;stroke-width:0.8;" x="513.146662" xlink:href="#m9142da2816" y="121.17294"/>
      </g>
     </g>
     <g id="text_10">
      <!-- 0 -->
      <g transform="translate(497.875412 126.111924)scale(0.13 -0.13)">
       <use xlink:href="#DejaVuSans-30"/>
      </g>
     </g>
    </g>
    <g id="ytick_9">
     <g id="line2d_67">
      <path clip-path="url(#pcfc7509547)" d="M 513.146662 83.624033 
L 918.964844 83.624033 
" style="fill:none;stroke:#b0b0b0;stroke-linecap:square;stroke-width:0.3;"/>
     </g>
     <g id="line2d_68">
      <g>
       <use style="stroke:#000000;stroke-width:0.8;" x="513.146662" xlink:href="#m9142da2816" y="83.624033"/>
      </g>
     </g>
     <g id="text_11">
      <!-- 1 -->
      <g transform="translate(497.875412 88.563018)scale(0.13 -0.13)">
       <use xlink:href="#DejaVuSans-31"/>
      </g>
     </g>
    </g>
    <g id="ytick_10">
     <g id="line2d_69">
      <path clip-path="url(#pcfc7509547)" d="M 513.146662 46.075126 
L 918.964844 46.075126 
" style="fill:none;stroke:#b0b0b0;stroke-linecap:square;stroke-width:0.3;"/>
     </g>
     <g id="line2d_70">
      <g>
       <use style="stroke:#000000;stroke-width:0.8;" x="513.146662" xlink:href="#m9142da2816" y="46.075126"/>
      </g>
     </g>
     <g id="text_12">
      <!-- 2 -->
      <g transform="translate(497.875412 51.014111)scale(0.13 -0.13)">
       <use xlink:href="#DejaVuSans-32"/>
      </g>
     </g>
    </g>
   </g>
   <g id="line2d_71">
    <path clip-path="url(#pcfc7509547)" d="M 531.592943 153.546557 
L 537.640904 163.303502 
L 543.688865 165.595021 
L 549.736826 109.343044 
L 555.784787 122.512657 
L 561.832748 152.873365 
L 567.880709 196.457233 
L 573.92867 215.62262 
L 579.976631 194.020152 
L 586.024592 176.183077 
L 592.072553 172.936494 
L 598.120514 169.11516 
L 604.168475 173.435908 
L 610.216436 176.541602 
L 616.264397 180.993086 
L 622.312358 164.433867 
L 628.360319 158.983662 
L 634.40828 163.719986 
L 640.456241 146.185688 
L 646.504202 127.934509 
L 652.552163 125.156048 
L 658.600124 128.499062 
L 664.648085 119.691332 
L 670.696045 102.637188 
L 676.744006 119.602364 
L 682.791967 133.097618 
L 688.839928 79.953916 
L 694.887889 108.142722 
L 700.93585 105.194156 
L 706.983811 85.425328 
L 713.031772 94.777247 
L 719.079733 115.363912 
L 725.127694 125.932233 
L 731.175655 126.880092 
L 737.223616 133.087351 
L 743.271577 106.342692 
L 749.319538 70.286886 
L 755.367499 62.774856 
L 761.41546 35.920141 
L 767.463421 60.321517 
L 773.511382 69.638272 
L 779.559343 84.247158 
L 785.607304 89.43435 
L 791.655265 87.776695 
L 797.703226 101.951471 
L 803.751187 129.206523 
L 809.799148 120.788395 
L 815.847109 126.8457 
L 821.89507 100.659822 
L 827.943031 112.439414 
L 833.990992 102.157996 
L 840.038953 108.363741 
L 846.086914 116.944149 
L 852.134875 97.492609 
L 858.182836 117.339958 
L 864.230797 73.069164 
L 870.278758 89.865532 
L 876.326719 90.080583 
L 882.37468 79.735065 
L 888.422641 84.509508 
L 894.470602 94.309121 
L 900.518563 113.043201 
" style="fill:none;stroke:#ff0000;stroke-linecap:square;stroke-width:1.5;"/>
   </g>
   <g id="line2d_72">
    <path clip-path="url(#pcfc7509547)" d="M 531.592943 140.32933 
L 537.640904 139.689833 
L 543.688865 165.654439 
L 549.736826 135.302585 
L 555.784787 133.671688 
L 561.832748 152.028791 
L 567.880709 176.743907 
L 573.92867 194.052464 
L 579.976631 184.704115 
L 586.024592 186.365887 
L 592.072553 170.630143 
L 598.120514 181.750876 
L 604.168475 174.125611 
L 610.216436 173.138623 
L 616.264397 170.825309 
L 622.312358 179.767637 
L 628.360319 174.732621 
L 634.40828 162.83251 
L 640.456241 147.196642 
L 646.504202 139.677513 
L 652.552163 141.499057 
L 658.600124 138.999999 
L 664.648085 143.173704 
L 670.696045 135.03303 
L 676.744006 139.613302 
L 682.791967 134.587408 
L 688.839928 108.78208 
L 694.887889 112.966851 
L 700.93585 102.240974 
L 706.983811 85.85452 
L 713.031772 106.074579 
L 719.079733 113.351526 
L 725.127694 120.892411 
L 731.175655 117.549141 
L 737.223616 130.752518 
L 743.271577 112.444483 
L 749.319538 75.377776 
L 755.367499 61.421521 
L 761.41546 37.960875 
L 767.463421 53.54601 
L 773.511382 61.824102 
L 779.559343 77.007297 
L 785.607304 86.515597 
L 791.655265 81.545625 
L 797.703226 92.769911 
L 803.751187 106.167283 
L 809.799148 93.316143 
L 815.847109 101.951988 
L 821.89507 98.343482 
L 827.943031 109.758496 
L 833.990992 100.262924 
L 840.038953 113.417518 
L 846.086914 113.060277 
L 852.134875 108.537257 
L 858.182836 114.660022 
L 864.230797 72.429097 
L 870.278758 84.554269 
L 876.326719 88.252619 
L 882.37468 66.77269 
L 888.422641 81.382422 
L 894.470602 89.849148 
L 900.518563 115.001816 
" style="fill:none;stroke:#0000ff;stroke-dasharray:5.55,2.4;stroke-dashoffset:0;stroke-width:1.5;"/>
   </g>
   <g id="patch_9">
    <path d="M 513.146662 224.607744 
L 513.146662 26.935017 
" style="fill:none;stroke:#000000;stroke-linecap:square;stroke-linejoin:miter;stroke-width:0.8;"/>
   </g>
   <g id="patch_10">
    <path d="M 918.964844 224.607744 
L 918.964844 26.935017 
" style="fill:none;stroke:#000000;stroke-linecap:square;stroke-linejoin:miter;stroke-width:0.8;"/>
   </g>
   <g id="patch_11">
    <path d="M 513.146662 224.607744 
L 918.964844 224.607744 
" style="fill:none;stroke:#000000;stroke-linecap:square;stroke-linejoin:miter;stroke-width:0.8;"/>
   </g>
   <g id="patch_12">
    <path d="M 513.146662 26.935017 
L 918.964844 26.935017 
" style="fill:none;stroke:#000000;stroke-linecap:square;stroke-linejoin:miter;stroke-width:0.8;"/>
   </g>
   <g id="legend_2">
    <g id="patch_13">
     <path d="M 515.746662 22.981562 
L 916.364844 22.981562 
Q 918.964844 22.981562 918.964844 20.381562 
L 918.964844 2.6 
Q 918.964844 0 916.364844 0 
L 515.746662 0 
Q 513.146662 0 513.146662 2.6 
L 513.146662 20.381562 
Q 513.146662 22.981562 515.746662 22.981562 
z
" style="fill:#ffffff;opacity:0.8;stroke:#cccccc;stroke-linejoin:miter;"/>
    </g>
    <g id="line2d_73">
     <path d="M 518.346662 10.527969 
L 544.346662 10.527969 
" style="fill:none;stroke:#ff0000;stroke-linecap:square;stroke-width:1.5;"/>
    </g>
    <g id="line2d_74"/>
    <g id="text_13">
     <!-- sadness (Emolex) -->
     <g transform="translate(554.746662 15.077969)scale(0.13 -0.13)">
      <defs>
       <path d="M 2834 3397 
L 2834 2853 
Q 2591 2978 2328 3040 
Q 2066 3103 1784 3103 
Q 1356 3103 1142 2972 
Q 928 2841 928 2578 
Q 928 2378 1081 2264 
Q 1234 2150 1697 2047 
L 1894 2003 
Q 2506 1872 2764 1633 
Q 3022 1394 3022 966 
Q 3022 478 2636 193 
Q 2250 -91 1575 -91 
Q 1294 -91 989 -36 
Q 684 19 347 128 
L 347 722 
Q 666 556 975 473 
Q 1284 391 1588 391 
Q 1994 391 2212 530 
Q 2431 669 2431 922 
Q 2431 1156 2273 1281 
Q 2116 1406 1581 1522 
L 1381 1569 
Q 847 1681 609 1914 
Q 372 2147 372 2553 
Q 372 3047 722 3315 
Q 1072 3584 1716 3584 
Q 2034 3584 2315 3537 
Q 2597 3491 2834 3397 
z
" id="DejaVuSans-73" transform="scale(0.015625)"/>
       <path d="M 2906 2969 
L 2906 4863 
L 3481 4863 
L 3481 0 
L 2906 0 
L 2906 525 
Q 2725 213 2448 61 
Q 2172 -91 1784 -91 
Q 1150 -91 751 415 
Q 353 922 353 1747 
Q 353 2572 751 3078 
Q 1150 3584 1784 3584 
Q 2172 3584 2448 3432 
Q 2725 3281 2906 2969 
z
M 947 1747 
Q 947 1113 1208 752 
Q 1469 391 1925 391 
Q 2381 391 2643 752 
Q 2906 1113 2906 1747 
Q 2906 2381 2643 2742 
Q 2381 3103 1925 3103 
Q 1469 3103 1208 2742 
Q 947 2381 947 1747 
z
" id="DejaVuSans-64" transform="scale(0.015625)"/>
      </defs>
      <use xlink:href="#DejaVuSans-73"/>
      <use x="52.099609" xlink:href="#DejaVuSans-61"/>
      <use x="113.378906" xlink:href="#DejaVuSans-64"/>
      <use x="176.855469" xlink:href="#DejaVuSans-6e"/>
      <use x="240.234375" xlink:href="#DejaVuSans-65"/>
      <use x="301.757812" xlink:href="#DejaVuSans-73"/>
      <use x="353.857422" xlink:href="#DejaVuSans-73"/>
      <use x="405.957031" xlink:href="#DejaVuSans-20"/>
      <use x="437.744141" xlink:href="#DejaVuSans-28"/>
      <use x="476.757812" xlink:href="#DejaVuSans-45"/>
      <use x="539.941406" xlink:href="#DejaVuSans-6d"/>
      <use x="637.353516" xlink:href="#DejaVuSans-6f"/>
      <use x="698.535156" xlink:href="#DejaVuSans-6c"/>
      <use x="726.318359" xlink:href="#DejaVuSans-65"/>
      <use x="786.091797" xlink:href="#DejaVuSans-78"/>
      <use x="845.271484" xlink:href="#DejaVuSans-29"/>
     </g>
    </g>
    <g id="line2d_75">
     <path d="M 788.410313 10.527969 
L 814.410313 10.527969 
" style="fill:none;stroke:#0000ff;stroke-dasharray:5.55,2.4;stroke-dashoffset:0;stroke-width:1.5;"/>
    </g>
    <g id="line2d_76"/>
    <g id="text_14">
     <!-- Tristez (LIWC) -->
     <g transform="translate(824.810313 15.077969)scale(0.13 -0.13)">
      <defs>
       <path d="M -19 4666 
L 3928 4666 
L 3928 4134 
L 2272 4134 
L 2272 0 
L 1638 0 
L 1638 4134 
L -19 4134 
L -19 4666 
z
" id="DejaVuSans-54" transform="scale(0.015625)"/>
       <path d="M 1172 4494 
L 1172 3500 
L 2356 3500 
L 2356 3053 
L 1172 3053 
L 1172 1153 
Q 1172 725 1289 603 
Q 1406 481 1766 481 
L 2356 481 
L 2356 0 
L 1766 0 
Q 1100 0 847 248 
Q 594 497 594 1153 
L 594 3053 
L 172 3053 
L 172 3500 
L 594 3500 
L 594 4494 
L 1172 4494 
z
" id="DejaVuSans-74" transform="scale(0.015625)"/>
       <path d="M 353 3500 
L 3084 3500 
L 3084 2975 
L 922 459 
L 3084 459 
L 3084 0 
L 275 0 
L 275 525 
L 2438 3041 
L 353 3041 
L 353 3500 
z
" id="DejaVuSans-7a" transform="scale(0.015625)"/>
      </defs>
      <use xlink:href="#DejaVuSans-54"/>
      <use x="46.333984" xlink:href="#DejaVuSans-72"/>
      <use x="87.447266" xlink:href="#DejaVuSans-69"/>
      <use x="115.230469" xlink:href="#DejaVuSans-73"/>
      <use x="167.330078" xlink:href="#DejaVuSans-74"/>
      <use x="206.539062" xlink:href="#DejaVuSans-65"/>
      <use x="268.0625" xlink:href="#DejaVuSans-7a"/>
      <use x="320.552734" xlink:href="#DejaVuSans-20"/>
      <use x="352.339844" xlink:href="#DejaVuSans-28"/>
      <use x="391.353516" xlink:href="#DejaVuSans-4c"/>
      <use x="447.066406" xlink:href="#DejaVuSans-49"/>
      <use x="476.558594" xlink:href="#DejaVuSans-57"/>
      <use x="575.435547" xlink:href="#DejaVuSans-43"/>
      <use x="645.259766" xlink:href="#DejaVuSans-29"/>
     </g>
    </g>
   </g>
  </g>
  <g id="axes_3">
   <g id="patch_14">
    <path d="M 26.164844 461.815017 
L 431.983026 461.815017 
L 431.983026 264.14229 
L 26.164844 264.14229 
z
" style="fill:#ffffff;"/>
   </g>
   <g id="matplotlib.axis_5">
    <g id="xtick_23">
     <g id="line2d_77">
      <path clip-path="url(#p42628df2b9)" d="M 44.611125 461.815017 
L 44.611125 264.14229 
" style="fill:none;stroke:#b0b0b0;stroke-linecap:square;stroke-width:0.3;"/>
     </g>
     <g id="line2d_78">
      <g>
       <use style="stroke:#000000;stroke-width:0.8;" x="44.611125" xlink:href="#m3c709c82da" y="461.815017"/>
      </g>
     </g>
     <g id="text_15">
      <!-- 2020/01/27 -->
      <g transform="translate(20.656336 528.782423)rotate(-45)scale(0.13 -0.13)">
       <defs>
        <path d="M 1625 4666 
L 2156 4666 
L 531 -594 
L 0 -594 
L 1625 4666 
z
" id="DejaVuSans-2f" transform="scale(0.015625)"/>
        <path d="M 525 4666 
L 3525 4666 
L 3525 4397 
L 1831 0 
L 1172 0 
L 2766 4134 
L 525 4134 
L 525 4666 
z
" id="DejaVuSans-37" transform="scale(0.015625)"/>
       </defs>
       <use xlink:href="#DejaVuSans-32"/>
       <use x="63.623047" xlink:href="#DejaVuSans-30"/>
       <use x="127.246094" xlink:href="#DejaVuSans-32"/>
       <use x="190.869141" xlink:href="#DejaVuSans-30"/>
       <use x="254.492188" xlink:href="#DejaVuSans-2f"/>
       <use x="288.183594" xlink:href="#DejaVuSans-30"/>
       <use x="351.806641" xlink:href="#DejaVuSans-31"/>
       <use x="415.429688" xlink:href="#DejaVuSans-2f"/>
       <use x="449.121094" xlink:href="#DejaVuSans-32"/>
       <use x="512.744141" xlink:href="#DejaVuSans-37"/>
      </g>
     </g>
    </g>
    <g id="xtick_24">
     <g id="line2d_79">
      <path clip-path="url(#p42628df2b9)" d="M 80.898891 461.815017 
L 80.898891 264.14229 
" style="fill:none;stroke:#b0b0b0;stroke-linecap:square;stroke-width:0.3;"/>
     </g>
     <g id="line2d_80">
      <g>
       <use style="stroke:#000000;stroke-width:0.8;" x="80.898891" xlink:href="#m3c709c82da" y="461.815017"/>
      </g>
     </g>
     <g id="text_16">
      <!-- 2020/03/09 -->
      <g transform="translate(56.944102 528.782423)rotate(-45)scale(0.13 -0.13)">
       <defs>
        <path d="M 2597 2516 
Q 3050 2419 3304 2112 
Q 3559 1806 3559 1356 
Q 3559 666 3084 287 
Q 2609 -91 1734 -91 
Q 1441 -91 1130 -33 
Q 819 25 488 141 
L 488 750 
Q 750 597 1062 519 
Q 1375 441 1716 441 
Q 2309 441 2620 675 
Q 2931 909 2931 1356 
Q 2931 1769 2642 2001 
Q 2353 2234 1838 2234 
L 1294 2234 
L 1294 2753 
L 1863 2753 
Q 2328 2753 2575 2939 
Q 2822 3125 2822 3475 
Q 2822 3834 2567 4026 
Q 2313 4219 1838 4219 
Q 1578 4219 1281 4162 
Q 984 4106 628 3988 
L 628 4550 
Q 988 4650 1302 4700 
Q 1616 4750 1894 4750 
Q 2613 4750 3031 4423 
Q 3450 4097 3450 3541 
Q 3450 3153 3228 2886 
Q 3006 2619 2597 2516 
z
" id="DejaVuSans-33" transform="scale(0.015625)"/>
        <path d="M 703 97 
L 703 672 
Q 941 559 1184 500 
Q 1428 441 1663 441 
Q 2288 441 2617 861 
Q 2947 1281 2994 2138 
Q 2813 1869 2534 1725 
Q 2256 1581 1919 1581 
Q 1219 1581 811 2004 
Q 403 2428 403 3163 
Q 403 3881 828 4315 
Q 1253 4750 1959 4750 
Q 2769 4750 3195 4129 
Q 3622 3509 3622 2328 
Q 3622 1225 3098 567 
Q 2575 -91 1691 -91 
Q 1453 -91 1209 -44 
Q 966 3 703 97 
z
M 1959 2075 
Q 2384 2075 2632 2365 
Q 2881 2656 2881 3163 
Q 2881 3666 2632 3958 
Q 2384 4250 1959 4250 
Q 1534 4250 1286 3958 
Q 1038 3666 1038 3163 
Q 1038 2656 1286 2365 
Q 1534 2075 1959 2075 
z
" id="DejaVuSans-39" transform="scale(0.015625)"/>
       </defs>
       <use xlink:href="#DejaVuSans-32"/>
       <use x="63.623047" xlink:href="#DejaVuSans-30"/>
       <use x="127.246094" xlink:href="#DejaVuSans-32"/>
       <use x="190.869141" xlink:href="#DejaVuSans-30"/>
       <use x="254.492188" xlink:href="#DejaVuSans-2f"/>
       <use x="288.183594" xlink:href="#DejaVuSans-30"/>
       <use x="351.806641" xlink:href="#DejaVuSans-33"/>
       <use x="415.429688" xlink:href="#DejaVuSans-2f"/>
       <use x="449.121094" xlink:href="#DejaVuSans-30"/>
       <use x="512.744141" xlink:href="#DejaVuSans-39"/>
      </g>
     </g>
    </g>
    <g id="xtick_25">
     <g id="line2d_81">
      <path clip-path="url(#p42628df2b9)" d="M 117.186657 461.815017 
L 117.186657 264.14229 
" style="fill:none;stroke:#b0b0b0;stroke-linecap:square;stroke-width:0.3;"/>
     </g>
     <g id="line2d_82">
      <g>
       <use style="stroke:#000000;stroke-width:0.8;" x="117.186657" xlink:href="#m3c709c82da" y="461.815017"/>
      </g>
     </g>
     <g id="text_17">
      <!-- 2020/04/20 -->
      <g transform="translate(93.231868 528.782423)rotate(-45)scale(0.13 -0.13)">
       <defs>
        <path d="M 2419 4116 
L 825 1625 
L 2419 1625 
L 2419 4116 
z
M 2253 4666 
L 3047 4666 
L 3047 1625 
L 3713 1625 
L 3713 1100 
L 3047 1100 
L 3047 0 
L 2419 0 
L 2419 1100 
L 313 1100 
L 313 1709 
L 2253 4666 
z
" id="DejaVuSans-34" transform="scale(0.015625)"/>
       </defs>
       <use xlink:href="#DejaVuSans-32"/>
       <use x="63.623047" xlink:href="#DejaVuSans-30"/>
       <use x="127.246094" xlink:href="#DejaVuSans-32"/>
       <use x="190.869141" xlink:href="#DejaVuSans-30"/>
       <use x="254.492188" xlink:href="#DejaVuSans-2f"/>
       <use x="288.183594" xlink:href="#DejaVuSans-30"/>
       <use x="351.806641" xlink:href="#DejaVuSans-34"/>
       <use x="415.429688" xlink:href="#DejaVuSans-2f"/>
       <use x="449.121094" xlink:href="#DejaVuSans-32"/>
       <use x="512.744141" xlink:href="#DejaVuSans-30"/>
      </g>
     </g>
    </g>
    <g id="xtick_26">
     <g id="line2d_83">
      <path clip-path="url(#p42628df2b9)" d="M 153.474422 461.815017 
L 153.474422 264.14229 
" style="fill:none;stroke:#b0b0b0;stroke-linecap:square;stroke-width:0.3;"/>
     </g>
     <g id="line2d_84">
      <g>
       <use style="stroke:#000000;stroke-width:0.8;" x="153.474422" xlink:href="#m3c709c82da" y="461.815017"/>
      </g>
     </g>
     <g id="text_18">
      <!-- 2020/06/01 -->
      <g transform="translate(129.519633 528.782423)rotate(-45)scale(0.13 -0.13)">
       <defs>
        <path d="M 2113 2584 
Q 1688 2584 1439 2293 
Q 1191 2003 1191 1497 
Q 1191 994 1439 701 
Q 1688 409 2113 409 
Q 2538 409 2786 701 
Q 3034 994 3034 1497 
Q 3034 2003 2786 2293 
Q 2538 2584 2113 2584 
z
M 3366 4563 
L 3366 3988 
Q 3128 4100 2886 4159 
Q 2644 4219 2406 4219 
Q 1781 4219 1451 3797 
Q 1122 3375 1075 2522 
Q 1259 2794 1537 2939 
Q 1816 3084 2150 3084 
Q 2853 3084 3261 2657 
Q 3669 2231 3669 1497 
Q 3669 778 3244 343 
Q 2819 -91 2113 -91 
Q 1303 -91 875 529 
Q 447 1150 447 2328 
Q 447 3434 972 4092 
Q 1497 4750 2381 4750 
Q 2619 4750 2861 4703 
Q 3103 4656 3366 4563 
z
" id="DejaVuSans-36" transform="scale(0.015625)"/>
       </defs>
       <use xlink:href="#DejaVuSans-32"/>
       <use x="63.623047" xlink:href="#DejaVuSans-30"/>
       <use x="127.246094" xlink:href="#DejaVuSans-32"/>
       <use x="190.869141" xlink:href="#DejaVuSans-30"/>
       <use x="254.492188" xlink:href="#DejaVuSans-2f"/>
       <use x="288.183594" xlink:href="#DejaVuSans-30"/>
       <use x="351.806641" xlink:href="#DejaVuSans-36"/>
       <use x="415.429688" xlink:href="#DejaVuSans-2f"/>
       <use x="449.121094" xlink:href="#DejaVuSans-30"/>
       <use x="512.744141" xlink:href="#DejaVuSans-31"/>
      </g>
     </g>
    </g>
    <g id="xtick_27">
     <g id="line2d_85">
      <path clip-path="url(#p42628df2b9)" d="M 189.762188 461.815017 
L 189.762188 264.14229 
" style="fill:none;stroke:#b0b0b0;stroke-linecap:square;stroke-width:0.3;"/>
     </g>
     <g id="line2d_86">
      <g>
       <use style="stroke:#000000;stroke-width:0.8;" x="189.762188" xlink:href="#m3c709c82da" y="461.815017"/>
      </g>
     </g>
     <g id="text_19">
      <!-- 2020/07/13 -->
      <g transform="translate(165.807399 528.782423)rotate(-45)scale(0.13 -0.13)">
       <use xlink:href="#DejaVuSans-32"/>
       <use x="63.623047" xlink:href="#DejaVuSans-30"/>
       <use x="127.246094" xlink:href="#DejaVuSans-32"/>
       <use x="190.869141" xlink:href="#DejaVuSans-30"/>
       <use x="254.492188" xlink:href="#DejaVuSans-2f"/>
       <use x="288.183594" xlink:href="#DejaVuSans-30"/>
       <use x="351.806641" xlink:href="#DejaVuSans-37"/>
       <use x="415.429688" xlink:href="#DejaVuSans-2f"/>
       <use x="449.121094" xlink:href="#DejaVuSans-31"/>
       <use x="512.744141" xlink:href="#DejaVuSans-33"/>
      </g>
     </g>
    </g>
    <g id="xtick_28">
     <g id="line2d_87">
      <path clip-path="url(#p42628df2b9)" d="M 226.049954 461.815017 
L 226.049954 264.14229 
" style="fill:none;stroke:#b0b0b0;stroke-linecap:square;stroke-width:0.3;"/>
     </g>
     <g id="line2d_88">
      <g>
       <use style="stroke:#000000;stroke-width:0.8;" x="226.049954" xlink:href="#m3c709c82da" y="461.815017"/>
      </g>
     </g>
     <g id="text_20">
      <!-- 2020/08/24 -->
      <g transform="translate(202.095165 528.782423)rotate(-45)scale(0.13 -0.13)">
       <defs>
        <path d="M 2034 2216 
Q 1584 2216 1326 1975 
Q 1069 1734 1069 1313 
Q 1069 891 1326 650 
Q 1584 409 2034 409 
Q 2484 409 2743 651 
Q 3003 894 3003 1313 
Q 3003 1734 2745 1975 
Q 2488 2216 2034 2216 
z
M 1403 2484 
Q 997 2584 770 2862 
Q 544 3141 544 3541 
Q 544 4100 942 4425 
Q 1341 4750 2034 4750 
Q 2731 4750 3128 4425 
Q 3525 4100 3525 3541 
Q 3525 3141 3298 2862 
Q 3072 2584 2669 2484 
Q 3125 2378 3379 2068 
Q 3634 1759 3634 1313 
Q 3634 634 3220 271 
Q 2806 -91 2034 -91 
Q 1263 -91 848 271 
Q 434 634 434 1313 
Q 434 1759 690 2068 
Q 947 2378 1403 2484 
z
M 1172 3481 
Q 1172 3119 1398 2916 
Q 1625 2713 2034 2713 
Q 2441 2713 2670 2916 
Q 2900 3119 2900 3481 
Q 2900 3844 2670 4047 
Q 2441 4250 2034 4250 
Q 1625 4250 1398 4047 
Q 1172 3844 1172 3481 
z
" id="DejaVuSans-38" transform="scale(0.015625)"/>
       </defs>
       <use xlink:href="#DejaVuSans-32"/>
       <use x="63.623047" xlink:href="#DejaVuSans-30"/>
       <use x="127.246094" xlink:href="#DejaVuSans-32"/>
       <use x="190.869141" xlink:href="#DejaVuSans-30"/>
       <use x="254.492188" xlink:href="#DejaVuSans-2f"/>
       <use x="288.183594" xlink:href="#DejaVuSans-30"/>
       <use x="351.806641" xlink:href="#DejaVuSans-38"/>
       <use x="415.429688" xlink:href="#DejaVuSans-2f"/>
       <use x="449.121094" xlink:href="#DejaVuSans-32"/>
       <use x="512.744141" xlink:href="#DejaVuSans-34"/>
      </g>
     </g>
    </g>
    <g id="xtick_29">
     <g id="line2d_89">
      <path clip-path="url(#p42628df2b9)" d="M 262.33772 461.815017 
L 262.33772 264.14229 
" style="fill:none;stroke:#b0b0b0;stroke-linecap:square;stroke-width:0.3;"/>
     </g>
     <g id="line2d_90">
      <g>
       <use style="stroke:#000000;stroke-width:0.8;" x="262.33772" xlink:href="#m3c709c82da" y="461.815017"/>
      </g>
     </g>
     <g id="text_21">
      <!-- 2020/10/05 -->
      <g transform="translate(238.382931 528.782423)rotate(-45)scale(0.13 -0.13)">
       <defs>
        <path d="M 691 4666 
L 3169 4666 
L 3169 4134 
L 1269 4134 
L 1269 2991 
Q 1406 3038 1543 3061 
Q 1681 3084 1819 3084 
Q 2600 3084 3056 2656 
Q 3513 2228 3513 1497 
Q 3513 744 3044 326 
Q 2575 -91 1722 -91 
Q 1428 -91 1123 -41 
Q 819 9 494 109 
L 494 744 
Q 775 591 1075 516 
Q 1375 441 1709 441 
Q 2250 441 2565 725 
Q 2881 1009 2881 1497 
Q 2881 1984 2565 2268 
Q 2250 2553 1709 2553 
Q 1456 2553 1204 2497 
Q 953 2441 691 2322 
L 691 4666 
z
" id="DejaVuSans-35" transform="scale(0.015625)"/>
       </defs>
       <use xlink:href="#DejaVuSans-32"/>
       <use x="63.623047" xlink:href="#DejaVuSans-30"/>
       <use x="127.246094" xlink:href="#DejaVuSans-32"/>
       <use x="190.869141" xlink:href="#DejaVuSans-30"/>
       <use x="254.492188" xlink:href="#DejaVuSans-2f"/>
       <use x="288.183594" xlink:href="#DejaVuSans-31"/>
       <use x="351.806641" xlink:href="#DejaVuSans-30"/>
       <use x="415.429688" xlink:href="#DejaVuSans-2f"/>
       <use x="449.121094" xlink:href="#DejaVuSans-30"/>
       <use x="512.744141" xlink:href="#DejaVuSans-35"/>
      </g>
     </g>
    </g>
    <g id="xtick_30">
     <g id="line2d_91">
      <path clip-path="url(#p42628df2b9)" d="M 298.625486 461.815017 
L 298.625486 264.14229 
" style="fill:none;stroke:#b0b0b0;stroke-linecap:square;stroke-width:0.3;"/>
     </g>
     <g id="line2d_92">
      <g>
       <use style="stroke:#000000;stroke-width:0.8;" x="298.625486" xlink:href="#m3c709c82da" y="461.815017"/>
      </g>
     </g>
     <g id="text_22">
      <!-- 2020/11/16 -->
      <g transform="translate(274.670697 528.782423)rotate(-45)scale(0.13 -0.13)">
       <use xlink:href="#DejaVuSans-32"/>
       <use x="63.623047" xlink:href="#DejaVuSans-30"/>
       <use x="127.246094" xlink:href="#DejaVuSans-32"/>
       <use x="190.869141" xlink:href="#DejaVuSans-30"/>
       <use x="254.492188" xlink:href="#DejaVuSans-2f"/>
       <use x="288.183594" xlink:href="#DejaVuSans-31"/>
       <use x="351.806641" xlink:href="#DejaVuSans-31"/>
       <use x="415.429688" xlink:href="#DejaVuSans-2f"/>
       <use x="449.121094" xlink:href="#DejaVuSans-31"/>
       <use x="512.744141" xlink:href="#DejaVuSans-36"/>
      </g>
     </g>
    </g>
    <g id="xtick_31">
     <g id="line2d_93">
      <path clip-path="url(#p42628df2b9)" d="M 334.913252 461.815017 
L 334.913252 264.14229 
" style="fill:none;stroke:#b0b0b0;stroke-linecap:square;stroke-width:0.3;"/>
     </g>
     <g id="line2d_94">
      <g>
       <use style="stroke:#000000;stroke-width:0.8;" x="334.913252" xlink:href="#m3c709c82da" y="461.815017"/>
      </g>
     </g>
     <g id="text_23">
      <!-- 2020/12/28 -->
      <g transform="translate(310.958463 528.782423)rotate(-45)scale(0.13 -0.13)">
       <use xlink:href="#DejaVuSans-32"/>
       <use x="63.623047" xlink:href="#DejaVuSans-30"/>
       <use x="127.246094" xlink:href="#DejaVuSans-32"/>
       <use x="190.869141" xlink:href="#DejaVuSans-30"/>
       <use x="254.492188" xlink:href="#DejaVuSans-2f"/>
       <use x="288.183594" xlink:href="#DejaVuSans-31"/>
       <use x="351.806641" xlink:href="#DejaVuSans-32"/>
       <use x="415.429688" xlink:href="#DejaVuSans-2f"/>
       <use x="449.121094" xlink:href="#DejaVuSans-32"/>
       <use x="512.744141" xlink:href="#DejaVuSans-38"/>
      </g>
     </g>
    </g>
    <g id="xtick_32">
     <g id="line2d_95">
      <path clip-path="url(#p42628df2b9)" d="M 371.201018 461.815017 
L 371.201018 264.14229 
" style="fill:none;stroke:#b0b0b0;stroke-linecap:square;stroke-width:0.3;"/>
     </g>
     <g id="line2d_96">
      <g>
       <use style="stroke:#000000;stroke-width:0.8;" x="371.201018" xlink:href="#m3c709c82da" y="461.815017"/>
      </g>
     </g>
     <g id="text_24">
      <!-- 2021/02/08 -->
      <g transform="translate(347.246229 528.782423)rotate(-45)scale(0.13 -0.13)">
       <use xlink:href="#DejaVuSans-32"/>
       <use x="63.623047" xlink:href="#DejaVuSans-30"/>
       <use x="127.246094" xlink:href="#DejaVuSans-32"/>
       <use x="190.869141" xlink:href="#DejaVuSans-31"/>
       <use x="254.492188" xlink:href="#DejaVuSans-2f"/>
       <use x="288.183594" xlink:href="#DejaVuSans-30"/>
       <use x="351.806641" xlink:href="#DejaVuSans-32"/>
       <use x="415.429688" xlink:href="#DejaVuSans-2f"/>
       <use x="449.121094" xlink:href="#DejaVuSans-30"/>
       <use x="512.744141" xlink:href="#DejaVuSans-38"/>
      </g>
     </g>
    </g>
    <g id="xtick_33">
     <g id="line2d_97">
      <path clip-path="url(#p42628df2b9)" d="M 407.488784 461.815017 
L 407.488784 264.14229 
" style="fill:none;stroke:#b0b0b0;stroke-linecap:square;stroke-width:0.3;"/>
     </g>
     <g id="line2d_98">
      <g>
       <use style="stroke:#000000;stroke-width:0.8;" x="407.488784" xlink:href="#m3c709c82da" y="461.815017"/>
      </g>
     </g>
     <g id="text_25">
      <!-- 2021/03/22 -->
      <g transform="translate(383.533995 528.782423)rotate(-45)scale(0.13 -0.13)">
       <use xlink:href="#DejaVuSans-32"/>
       <use x="63.623047" xlink:href="#DejaVuSans-30"/>
       <use x="127.246094" xlink:href="#DejaVuSans-32"/>
       <use x="190.869141" xlink:href="#DejaVuSans-31"/>
       <use x="254.492188" xlink:href="#DejaVuSans-2f"/>
       <use x="288.183594" xlink:href="#DejaVuSans-30"/>
       <use x="351.806641" xlink:href="#DejaVuSans-33"/>
       <use x="415.429688" xlink:href="#DejaVuSans-2f"/>
       <use x="449.121094" xlink:href="#DejaVuSans-32"/>
       <use x="512.744141" xlink:href="#DejaVuSans-32"/>
      </g>
     </g>
    </g>
   </g>
   <g id="matplotlib.axis_6">
    <g id="ytick_11">
     <g id="line2d_99">
      <path clip-path="url(#p42628df2b9)" d="M 26.164844 430.266116 
L 431.983026 430.266116 
" style="fill:none;stroke:#b0b0b0;stroke-linecap:square;stroke-width:0.3;"/>
     </g>
     <g id="line2d_100">
      <g>
       <use style="stroke:#000000;stroke-width:0.8;" x="26.164844" xlink:href="#m9142da2816" y="430.266116"/>
      </g>
     </g>
     <g id="text_26">
      <!-- −2 -->
      <g transform="translate(0 435.205101)scale(0.13 -0.13)">
       <use xlink:href="#DejaVuSans-2212"/>
       <use x="83.789062" xlink:href="#DejaVuSans-32"/>
      </g>
     </g>
    </g>
    <g id="ytick_12">
     <g id="line2d_101">
      <path clip-path="url(#p42628df2b9)" d="M 26.164844 392.790042 
L 431.983026 392.790042 
" style="fill:none;stroke:#b0b0b0;stroke-linecap:square;stroke-width:0.3;"/>
     </g>
     <g id="line2d_102">
      <g>
       <use style="stroke:#000000;stroke-width:0.8;" x="26.164844" xlink:href="#m9142da2816" y="392.790042"/>
      </g>
     </g>
     <g id="text_27">
      <!-- −1 -->
      <g transform="translate(0 397.729026)scale(0.13 -0.13)">
       <use xlink:href="#DejaVuSans-2212"/>
       <use x="83.789062" xlink:href="#DejaVuSans-31"/>
      </g>
     </g>
    </g>
    <g id="ytick_13">
     <g id="line2d_103">
      <path clip-path="url(#p42628df2b9)" d="M 26.164844 355.313967 
L 431.983026 355.313967 
" style="fill:none;stroke:#b0b0b0;stroke-linecap:square;stroke-width:0.3;"/>
     </g>
     <g id="line2d_104">
      <g>
       <use style="stroke:#000000;stroke-width:0.8;" x="26.164844" xlink:href="#m9142da2816" y="355.313967"/>
      </g>
     </g>
     <g id="text_28">
      <!-- 0 -->
      <g transform="translate(10.893594 360.252951)scale(0.13 -0.13)">
       <use xlink:href="#DejaVuSans-30"/>
      </g>
     </g>
    </g>
    <g id="ytick_14">
     <g id="line2d_105">
      <path clip-path="url(#p42628df2b9)" d="M 26.164844 317.837892 
L 431.983026 317.837892 
" style="fill:none;stroke:#b0b0b0;stroke-linecap:square;stroke-width:0.3;"/>
     </g>
     <g id="line2d_106">
      <g>
       <use style="stroke:#000000;stroke-width:0.8;" x="26.164844" xlink:href="#m9142da2816" y="317.837892"/>
      </g>
     </g>
     <g id="text_29">
      <!-- 1 -->
      <g transform="translate(10.893594 322.776876)scale(0.13 -0.13)">
       <use xlink:href="#DejaVuSans-31"/>
      </g>
     </g>
    </g>
    <g id="ytick_15">
     <g id="line2d_107">
      <path clip-path="url(#p42628df2b9)" d="M 26.164844 280.361817 
L 431.983026 280.361817 
" style="fill:none;stroke:#b0b0b0;stroke-linecap:square;stroke-width:0.3;"/>
     </g>
     <g id="line2d_108">
      <g>
       <use style="stroke:#000000;stroke-width:0.8;" x="26.164844" xlink:href="#m9142da2816" y="280.361817"/>
      </g>
     </g>
     <g id="text_30">
      <!-- 2 -->
      <g transform="translate(10.893594 285.300801)scale(0.13 -0.13)">
       <use xlink:href="#DejaVuSans-32"/>
      </g>
     </g>
    </g>
   </g>
   <g id="line2d_109">
    <path clip-path="url(#p42628df2b9)" d="M 44.611125 438.52109 
L 50.659086 420.474562 
L 56.707047 426.689394 
L 62.755008 375.598025 
L 68.802969 375.061907 
L 74.85093 373.681975 
L 80.898891 422.606956 
L 86.946852 452.829893 
L 92.994813 428.912327 
L 99.042774 409.789862 
L 105.090735 392.93661 
L 111.138696 375.614983 
L 117.186657 384.465388 
L 123.234617 359.697948 
L 129.282578 390.544876 
L 135.330539 388.048003 
L 141.3785 383.398799 
L 147.426461 385.253889 
L 153.474422 380.104956 
L 159.522383 365.342738 
L 165.570344 357.473692 
L 171.618305 378.140153 
L 177.666266 378.714396 
L 183.714227 379.794768 
L 189.762188 369.915856 
L 195.810149 373.346768 
L 201.85811 335.784808 
L 207.906071 348.013971 
L 213.954032 343.954577 
L 220.001993 330.993141 
L 226.049954 335.985881 
L 232.097915 358.036526 
L 238.145876 358.013645 
L 244.193837 351.240902 
L 250.241798 363.048416 
L 256.289759 353.172555 
L 262.33772 326.742554 
L 268.385681 311.444679 
L 274.433642 294.807038 
L 280.481603 313.383796 
L 286.529564 315.266259 
L 292.577525 304.396217 
L 298.625486 324.283 
L 304.673447 328.890192 
L 310.721408 340.566879 
L 316.769369 355.29866 
L 322.81733 336.1961 
L 328.865291 326.371023 
L 334.913252 305.068343 
L 340.961213 336.966272 
L 347.009174 332.862941 
L 353.057135 347.75185 
L 359.105096 356.507229 
L 365.153057 334.390134 
L 371.201018 327.515937 
L 377.248979 297.819189 
L 383.29694 315.723264 
L 389.344901 315.212278 
L 395.392862 285.310587 
L 401.440823 307.52242 
L 407.488784 317.185028 
L 413.536745 326.779831 
" style="fill:none;stroke:#ff0000;stroke-linecap:square;stroke-width:1.5;"/>
   </g>
   <g id="line2d_110">
    <path clip-path="url(#p42628df2b9)" d="M 44.611125 422.036856 
L 50.659086 397.00176 
L 56.707047 402.06615 
L 62.755008 372.5512 
L 68.802969 371.097157 
L 74.85093 387.771698 
L 80.898891 393.731485 
L 86.946852 420.500975 
L 92.994813 419.12902 
L 99.042774 418.317736 
L 105.090735 394.038258 
L 111.138696 406.618714 
L 117.186657 409.372993 
L 123.234617 405.261326 
L 129.282578 406.260983 
L 135.330539 403.658086 
L 141.3785 400.672596 
L 147.426461 394.636463 
L 153.474422 381.075743 
L 159.522383 371.186662 
L 165.570344 375.91526 
L 171.618305 376.389119 
L 177.666266 375.553981 
L 183.714227 363.695375 
L 189.762188 373.468021 
L 195.810149 355.871125 
L 201.85811 336.48312 
L 207.906071 337.376684 
L 213.954032 346.345034 
L 220.001993 332.175794 
L 226.049954 328.484293 
L 232.097915 344.146135 
L 238.145876 361.364084 
L 244.193837 358.539752 
L 250.241798 353.228365 
L 256.289759 343.217359 
L 262.33772 315.605078 
L 268.385681 305.574914 
L 274.433642 289.066825 
L 280.481603 301.636691 
L 286.529564 273.127414 
L 292.577525 286.545905 
L 298.625486 311.712101 
L 304.673447 318.867904 
L 310.721408 310.827468 
L 316.769369 338.5765 
L 322.81733 325.211559 
L 328.865291 322.584887 
L 334.913252 326.979234 
L 340.961213 340.442577 
L 347.009174 357.319126 
L 353.057135 345.035385 
L 359.105096 352.015584 
L 365.153057 349.750965 
L 371.201018 343.250582 
L 377.248979 316.673577 
L 383.29694 323.759398 
L 389.344901 323.876412 
L 395.392862 295.218908 
L 401.440823 324.666515 
L 407.488784 329.73777 
L 413.536745 362.163295 
" style="fill:none;stroke:#0000ff;stroke-dasharray:5.55,2.4;stroke-dashoffset:0;stroke-width:1.5;"/>
   </g>
   <g id="patch_15">
    <path d="M 26.164844 461.815017 
L 26.164844 264.14229 
" style="fill:none;stroke:#000000;stroke-linecap:square;stroke-linejoin:miter;stroke-width:0.8;"/>
   </g>
   <g id="patch_16">
    <path d="M 431.983026 461.815017 
L 431.983026 264.14229 
" style="fill:none;stroke:#000000;stroke-linecap:square;stroke-linejoin:miter;stroke-width:0.8;"/>
   </g>
   <g id="patch_17">
    <path d="M 26.164844 461.815017 
L 431.983026 461.815017 
" style="fill:none;stroke:#000000;stroke-linecap:square;stroke-linejoin:miter;stroke-width:0.8;"/>
   </g>
   <g id="patch_18">
    <path d="M 26.164844 264.14229 
L 431.983026 264.14229 
" style="fill:none;stroke:#000000;stroke-linecap:square;stroke-linejoin:miter;stroke-width:0.8;"/>
   </g>
   <g id="legend_3">
    <g id="patch_19">
     <path d="M 28.764844 260.188835 
L 429.383026 260.188835 
Q 431.983026 260.188835 431.983026 257.588835 
L 431.983026 239.44571 
Q 431.983026 236.84571 429.383026 236.84571 
L 28.764844 236.84571 
Q 26.164844 236.84571 26.164844 239.44571 
L 26.164844 257.588835 
Q 26.164844 260.188835 28.764844 260.188835 
z
" style="fill:#ffffff;opacity:0.8;stroke:#cccccc;stroke-linejoin:miter;"/>
    </g>
    <g id="line2d_111">
     <path d="M 31.364844 247.373679 
L 57.364844 247.373679 
" style="fill:none;stroke:#ff0000;stroke-linecap:square;stroke-width:1.5;"/>
    </g>
    <g id="line2d_112"/>
    <g id="text_31">
     <!-- positive (Emolex) -->
     <g transform="translate(67.764844 251.923679)scale(0.13 -0.13)">
      <defs>
       <path d="M 1159 525 
L 1159 -1331 
L 581 -1331 
L 581 3500 
L 1159 3500 
L 1159 2969 
Q 1341 3281 1617 3432 
Q 1894 3584 2278 3584 
Q 2916 3584 3314 3078 
Q 3713 2572 3713 1747 
Q 3713 922 3314 415 
Q 2916 -91 2278 -91 
Q 1894 -91 1617 61 
Q 1341 213 1159 525 
z
M 3116 1747 
Q 3116 2381 2855 2742 
Q 2594 3103 2138 3103 
Q 1681 3103 1420 2742 
Q 1159 2381 1159 1747 
Q 1159 1113 1420 752 
Q 1681 391 2138 391 
Q 2594 391 2855 752 
Q 3116 1113 3116 1747 
z
" id="DejaVuSans-70" transform="scale(0.015625)"/>
       <path d="M 191 3500 
L 800 3500 
L 1894 563 
L 2988 3500 
L 3597 3500 
L 2284 0 
L 1503 0 
L 191 3500 
z
" id="DejaVuSans-76" transform="scale(0.015625)"/>
      </defs>
      <use xlink:href="#DejaVuSans-70"/>
      <use x="63.476562" xlink:href="#DejaVuSans-6f"/>
      <use x="124.658203" xlink:href="#DejaVuSans-73"/>
      <use x="176.757812" xlink:href="#DejaVuSans-69"/>
      <use x="204.541016" xlink:href="#DejaVuSans-74"/>
      <use x="243.75" xlink:href="#DejaVuSans-69"/>
      <use x="271.533203" xlink:href="#DejaVuSans-76"/>
      <use x="330.712891" xlink:href="#DejaVuSans-65"/>
      <use x="392.236328" xlink:href="#DejaVuSans-20"/>
      <use x="424.023438" xlink:href="#DejaVuSans-28"/>
      <use x="463.037109" xlink:href="#DejaVuSans-45"/>
      <use x="526.220703" xlink:href="#DejaVuSans-6d"/>
      <use x="623.632812" xlink:href="#DejaVuSans-6f"/>
      <use x="684.814453" xlink:href="#DejaVuSans-6c"/>
      <use x="712.597656" xlink:href="#DejaVuSans-65"/>
      <use x="772.371094" xlink:href="#DejaVuSans-78"/>
      <use x="831.550781" xlink:href="#DejaVuSans-29"/>
     </g>
    </g>
    <g id="line2d_113">
     <path d="M 285.672088 247.373679 
L 311.672088 247.373679 
" style="fill:none;stroke:#0000ff;stroke-dasharray:5.55,2.4;stroke-dashoffset:0;stroke-width:1.5;"/>
    </g>
    <g id="line2d_114"/>
    <g id="text_32">
     <!-- Emo_Pos (LIWC) -->
     <g transform="translate(322.072088 251.923679)scale(0.13 -0.13)">
      <defs>
       <path d="M 3263 -1063 
L 3263 -1509 
L -63 -1509 
L -63 -1063 
L 3263 -1063 
z
" id="DejaVuSans-5f" transform="scale(0.015625)"/>
       <path d="M 1259 4147 
L 1259 2394 
L 2053 2394 
Q 2494 2394 2734 2622 
Q 2975 2850 2975 3272 
Q 2975 3691 2734 3919 
Q 2494 4147 2053 4147 
L 1259 4147 
z
M 628 4666 
L 2053 4666 
Q 2838 4666 3239 4311 
Q 3641 3956 3641 3272 
Q 3641 2581 3239 2228 
Q 2838 1875 2053 1875 
L 1259 1875 
L 1259 0 
L 628 0 
L 628 4666 
z
" id="DejaVuSans-50" transform="scale(0.015625)"/>
      </defs>
      <use xlink:href="#DejaVuSans-45"/>
      <use x="63.183594" xlink:href="#DejaVuSans-6d"/>
      <use x="160.595703" xlink:href="#DejaVuSans-6f"/>
      <use x="221.777344" xlink:href="#DejaVuSans-5f"/>
      <use x="271.777344" xlink:href="#DejaVuSans-50"/>
      <use x="328.455078" xlink:href="#DejaVuSans-6f"/>
      <use x="389.636719" xlink:href="#DejaVuSans-73"/>
      <use x="441.736328" xlink:href="#DejaVuSans-20"/>
      <use x="473.523438" xlink:href="#DejaVuSans-28"/>
      <use x="512.537109" xlink:href="#DejaVuSans-4c"/>
      <use x="568.25" xlink:href="#DejaVuSans-49"/>
      <use x="597.742188" xlink:href="#DejaVuSans-57"/>
      <use x="696.619141" xlink:href="#DejaVuSans-43"/>
      <use x="766.443359" xlink:href="#DejaVuSans-29"/>
     </g>
    </g>
   </g>
  </g>
  <g id="axes_4">
   <g id="patch_20">
    <path d="M 513.146662 461.815017 
L 918.964844 461.815017 
L 918.964844 264.14229 
L 513.146662 264.14229 
z
" style="fill:#ffffff;"/>
   </g>
   <g id="matplotlib.axis_7">
    <g id="xtick_34">
     <g id="line2d_115">
      <path clip-path="url(#p6c90e6abcf)" d="M 531.592943 461.815017 
L 531.592943 264.14229 
" style="fill:none;stroke:#b0b0b0;stroke-linecap:square;stroke-width:0.3;"/>
     </g>
     <g id="line2d_116">
      <g>
       <use style="stroke:#000000;stroke-width:0.8;" x="531.592943" xlink:href="#m3c709c82da" y="461.815017"/>
      </g>
     </g>
     <g id="text_33">
      <!-- 2020/01/27 -->
      <g transform="translate(507.638154 528.782423)rotate(-45)scale(0.13 -0.13)">
       <use xlink:href="#DejaVuSans-32"/>
       <use x="63.623047" xlink:href="#DejaVuSans-30"/>
       <use x="127.246094" xlink:href="#DejaVuSans-32"/>
       <use x="190.869141" xlink:href="#DejaVuSans-30"/>
       <use x="254.492188" xlink:href="#DejaVuSans-2f"/>
       <use x="288.183594" xlink:href="#DejaVuSans-30"/>
       <use x="351.806641" xlink:href="#DejaVuSans-31"/>
       <use x="415.429688" xlink:href="#DejaVuSans-2f"/>
       <use x="449.121094" xlink:href="#DejaVuSans-32"/>
       <use x="512.744141" xlink:href="#DejaVuSans-37"/>
      </g>
     </g>
    </g>
    <g id="xtick_35">
     <g id="line2d_117">
      <path clip-path="url(#p6c90e6abcf)" d="M 567.880709 461.815017 
L 567.880709 264.14229 
" style="fill:none;stroke:#b0b0b0;stroke-linecap:square;stroke-width:0.3;"/>
     </g>
     <g id="line2d_118">
      <g>
       <use style="stroke:#000000;stroke-width:0.8;" x="567.880709" xlink:href="#m3c709c82da" y="461.815017"/>
      </g>
     </g>
     <g id="text_34">
      <!-- 2020/03/09 -->
      <g transform="translate(543.92592 528.782423)rotate(-45)scale(0.13 -0.13)">
       <use xlink:href="#DejaVuSans-32"/>
       <use x="63.623047" xlink:href="#DejaVuSans-30"/>
       <use x="127.246094" xlink:href="#DejaVuSans-32"/>
       <use x="190.869141" xlink:href="#DejaVuSans-30"/>
       <use x="254.492188" xlink:href="#DejaVuSans-2f"/>
       <use x="288.183594" xlink:href="#DejaVuSans-30"/>
       <use x="351.806641" xlink:href="#DejaVuSans-33"/>
       <use x="415.429688" xlink:href="#DejaVuSans-2f"/>
       <use x="449.121094" xlink:href="#DejaVuSans-30"/>
       <use x="512.744141" xlink:href="#DejaVuSans-39"/>
      </g>
     </g>
    </g>
    <g id="xtick_36">
     <g id="line2d_119">
      <path clip-path="url(#p6c90e6abcf)" d="M 604.168475 461.815017 
L 604.168475 264.14229 
" style="fill:none;stroke:#b0b0b0;stroke-linecap:square;stroke-width:0.3;"/>
     </g>
     <g id="line2d_120">
      <g>
       <use style="stroke:#000000;stroke-width:0.8;" x="604.168475" xlink:href="#m3c709c82da" y="461.815017"/>
      </g>
     </g>
     <g id="text_35">
      <!-- 2020/04/20 -->
      <g transform="translate(580.213686 528.782423)rotate(-45)scale(0.13 -0.13)">
       <use xlink:href="#DejaVuSans-32"/>
       <use x="63.623047" xlink:href="#DejaVuSans-30"/>
       <use x="127.246094" xlink:href="#DejaVuSans-32"/>
       <use x="190.869141" xlink:href="#DejaVuSans-30"/>
       <use x="254.492188" xlink:href="#DejaVuSans-2f"/>
       <use x="288.183594" xlink:href="#DejaVuSans-30"/>
       <use x="351.806641" xlink:href="#DejaVuSans-34"/>
       <use x="415.429688" xlink:href="#DejaVuSans-2f"/>
       <use x="449.121094" xlink:href="#DejaVuSans-32"/>
       <use x="512.744141" xlink:href="#DejaVuSans-30"/>
      </g>
     </g>
    </g>
    <g id="xtick_37">
     <g id="line2d_121">
      <path clip-path="url(#p6c90e6abcf)" d="M 640.456241 461.815017 
L 640.456241 264.14229 
" style="fill:none;stroke:#b0b0b0;stroke-linecap:square;stroke-width:0.3;"/>
     </g>
     <g id="line2d_122">
      <g>
       <use style="stroke:#000000;stroke-width:0.8;" x="640.456241" xlink:href="#m3c709c82da" y="461.815017"/>
      </g>
     </g>
     <g id="text_36">
      <!-- 2020/06/01 -->
      <g transform="translate(616.501452 528.782423)rotate(-45)scale(0.13 -0.13)">
       <use xlink:href="#DejaVuSans-32"/>
       <use x="63.623047" xlink:href="#DejaVuSans-30"/>
       <use x="127.246094" xlink:href="#DejaVuSans-32"/>
       <use x="190.869141" xlink:href="#DejaVuSans-30"/>
       <use x="254.492188" xlink:href="#DejaVuSans-2f"/>
       <use x="288.183594" xlink:href="#DejaVuSans-30"/>
       <use x="351.806641" xlink:href="#DejaVuSans-36"/>
       <use x="415.429688" xlink:href="#DejaVuSans-2f"/>
       <use x="449.121094" xlink:href="#DejaVuSans-30"/>
       <use x="512.744141" xlink:href="#DejaVuSans-31"/>
      </g>
     </g>
    </g>
    <g id="xtick_38">
     <g id="line2d_123">
      <path clip-path="url(#p6c90e6abcf)" d="M 676.744006 461.815017 
L 676.744006 264.14229 
" style="fill:none;stroke:#b0b0b0;stroke-linecap:square;stroke-width:0.3;"/>
     </g>
     <g id="line2d_124">
      <g>
       <use style="stroke:#000000;stroke-width:0.8;" x="676.744006" xlink:href="#m3c709c82da" y="461.815017"/>
      </g>
     </g>
     <g id="text_37">
      <!-- 2020/07/13 -->
      <g transform="translate(652.789217 528.782423)rotate(-45)scale(0.13 -0.13)">
       <use xlink:href="#DejaVuSans-32"/>
       <use x="63.623047" xlink:href="#DejaVuSans-30"/>
       <use x="127.246094" xlink:href="#DejaVuSans-32"/>
       <use x="190.869141" xlink:href="#DejaVuSans-30"/>
       <use x="254.492188" xlink:href="#DejaVuSans-2f"/>
       <use x="288.183594" xlink:href="#DejaVuSans-30"/>
       <use x="351.806641" xlink:href="#DejaVuSans-37"/>
       <use x="415.429688" xlink:href="#DejaVuSans-2f"/>
       <use x="449.121094" xlink:href="#DejaVuSans-31"/>
       <use x="512.744141" xlink:href="#DejaVuSans-33"/>
      </g>
     </g>
    </g>
    <g id="xtick_39">
     <g id="line2d_125">
      <path clip-path="url(#p6c90e6abcf)" d="M 713.031772 461.815017 
L 713.031772 264.14229 
" style="fill:none;stroke:#b0b0b0;stroke-linecap:square;stroke-width:0.3;"/>
     </g>
     <g id="line2d_126">
      <g>
       <use style="stroke:#000000;stroke-width:0.8;" x="713.031772" xlink:href="#m3c709c82da" y="461.815017"/>
      </g>
     </g>
     <g id="text_38">
      <!-- 2020/08/24 -->
      <g transform="translate(689.076983 528.782423)rotate(-45)scale(0.13 -0.13)">
       <use xlink:href="#DejaVuSans-32"/>
       <use x="63.623047" xlink:href="#DejaVuSans-30"/>
       <use x="127.246094" xlink:href="#DejaVuSans-32"/>
       <use x="190.869141" xlink:href="#DejaVuSans-30"/>
       <use x="254.492188" xlink:href="#DejaVuSans-2f"/>
       <use x="288.183594" xlink:href="#DejaVuSans-30"/>
       <use x="351.806641" xlink:href="#DejaVuSans-38"/>
       <use x="415.429688" xlink:href="#DejaVuSans-2f"/>
       <use x="449.121094" xlink:href="#DejaVuSans-32"/>
       <use x="512.744141" xlink:href="#DejaVuSans-34"/>
      </g>
     </g>
    </g>
    <g id="xtick_40">
     <g id="line2d_127">
      <path clip-path="url(#p6c90e6abcf)" d="M 749.319538 461.815017 
L 749.319538 264.14229 
" style="fill:none;stroke:#b0b0b0;stroke-linecap:square;stroke-width:0.3;"/>
     </g>
     <g id="line2d_128">
      <g>
       <use style="stroke:#000000;stroke-width:0.8;" x="749.319538" xlink:href="#m3c709c82da" y="461.815017"/>
      </g>
     </g>
     <g id="text_39">
      <!-- 2020/10/05 -->
      <g transform="translate(725.364749 528.782423)rotate(-45)scale(0.13 -0.13)">
       <use xlink:href="#DejaVuSans-32"/>
       <use x="63.623047" xlink:href="#DejaVuSans-30"/>
       <use x="127.246094" xlink:href="#DejaVuSans-32"/>
       <use x="190.869141" xlink:href="#DejaVuSans-30"/>
       <use x="254.492188" xlink:href="#DejaVuSans-2f"/>
       <use x="288.183594" xlink:href="#DejaVuSans-31"/>
       <use x="351.806641" xlink:href="#DejaVuSans-30"/>
       <use x="415.429688" xlink:href="#DejaVuSans-2f"/>
       <use x="449.121094" xlink:href="#DejaVuSans-30"/>
       <use x="512.744141" xlink:href="#DejaVuSans-35"/>
      </g>
     </g>
    </g>
    <g id="xtick_41">
     <g id="line2d_129">
      <path clip-path="url(#p6c90e6abcf)" d="M 785.607304 461.815017 
L 785.607304 264.14229 
" style="fill:none;stroke:#b0b0b0;stroke-linecap:square;stroke-width:0.3;"/>
     </g>
     <g id="line2d_130">
      <g>
       <use style="stroke:#000000;stroke-width:0.8;" x="785.607304" xlink:href="#m3c709c82da" y="461.815017"/>
      </g>
     </g>
     <g id="text_40">
      <!-- 2020/11/16 -->
      <g transform="translate(761.652515 528.782423)rotate(-45)scale(0.13 -0.13)">
       <use xlink:href="#DejaVuSans-32"/>
       <use x="63.623047" xlink:href="#DejaVuSans-30"/>
       <use x="127.246094" xlink:href="#DejaVuSans-32"/>
       <use x="190.869141" xlink:href="#DejaVuSans-30"/>
       <use x="254.492188" xlink:href="#DejaVuSans-2f"/>
       <use x="288.183594" xlink:href="#DejaVuSans-31"/>
       <use x="351.806641" xlink:href="#DejaVuSans-31"/>
       <use x="415.429688" xlink:href="#DejaVuSans-2f"/>
       <use x="449.121094" xlink:href="#DejaVuSans-31"/>
       <use x="512.744141" xlink:href="#DejaVuSans-36"/>
      </g>
     </g>
    </g>
    <g id="xtick_42">
     <g id="line2d_131">
      <path clip-path="url(#p6c90e6abcf)" d="M 821.89507 461.815017 
L 821.89507 264.14229 
" style="fill:none;stroke:#b0b0b0;stroke-linecap:square;stroke-width:0.3;"/>
     </g>
     <g id="line2d_132">
      <g>
       <use style="stroke:#000000;stroke-width:0.8;" x="821.89507" xlink:href="#m3c709c82da" y="461.815017"/>
      </g>
     </g>
     <g id="text_41">
      <!-- 2020/12/28 -->
      <g transform="translate(797.940281 528.782423)rotate(-45)scale(0.13 -0.13)">
       <use xlink:href="#DejaVuSans-32"/>
       <use x="63.623047" xlink:href="#DejaVuSans-30"/>
       <use x="127.246094" xlink:href="#DejaVuSans-32"/>
       <use x="190.869141" xlink:href="#DejaVuSans-30"/>
       <use x="254.492188" xlink:href="#DejaVuSans-2f"/>
       <use x="288.183594" xlink:href="#DejaVuSans-31"/>
       <use x="351.806641" xlink:href="#DejaVuSans-32"/>
       <use x="415.429688" xlink:href="#DejaVuSans-2f"/>
       <use x="449.121094" xlink:href="#DejaVuSans-32"/>
       <use x="512.744141" xlink:href="#DejaVuSans-38"/>
      </g>
     </g>
    </g>
    <g id="xtick_43">
     <g id="line2d_133">
      <path clip-path="url(#p6c90e6abcf)" d="M 858.182836 461.815017 
L 858.182836 264.14229 
" style="fill:none;stroke:#b0b0b0;stroke-linecap:square;stroke-width:0.3;"/>
     </g>
     <g id="line2d_134">
      <g>
       <use style="stroke:#000000;stroke-width:0.8;" x="858.182836" xlink:href="#m3c709c82da" y="461.815017"/>
      </g>
     </g>
     <g id="text_42">
      <!-- 2021/02/08 -->
      <g transform="translate(834.228047 528.782423)rotate(-45)scale(0.13 -0.13)">
       <use xlink:href="#DejaVuSans-32"/>
       <use x="63.623047" xlink:href="#DejaVuSans-30"/>
       <use x="127.246094" xlink:href="#DejaVuSans-32"/>
       <use x="190.869141" xlink:href="#DejaVuSans-31"/>
       <use x="254.492188" xlink:href="#DejaVuSans-2f"/>
       <use x="288.183594" xlink:href="#DejaVuSans-30"/>
       <use x="351.806641" xlink:href="#DejaVuSans-32"/>
       <use x="415.429688" xlink:href="#DejaVuSans-2f"/>
       <use x="449.121094" xlink:href="#DejaVuSans-30"/>
       <use x="512.744141" xlink:href="#DejaVuSans-38"/>
      </g>
     </g>
    </g>
    <g id="xtick_44">
     <g id="line2d_135">
      <path clip-path="url(#p6c90e6abcf)" d="M 894.470602 461.815017 
L 894.470602 264.14229 
" style="fill:none;stroke:#b0b0b0;stroke-linecap:square;stroke-width:0.3;"/>
     </g>
     <g id="line2d_136">
      <g>
       <use style="stroke:#000000;stroke-width:0.8;" x="894.470602" xlink:href="#m3c709c82da" y="461.815017"/>
      </g>
     </g>
     <g id="text_43">
      <!-- 2021/03/22 -->
      <g transform="translate(870.515813 528.782423)rotate(-45)scale(0.13 -0.13)">
       <use xlink:href="#DejaVuSans-32"/>
       <use x="63.623047" xlink:href="#DejaVuSans-30"/>
       <use x="127.246094" xlink:href="#DejaVuSans-32"/>
       <use x="190.869141" xlink:href="#DejaVuSans-31"/>
       <use x="254.492188" xlink:href="#DejaVuSans-2f"/>
       <use x="288.183594" xlink:href="#DejaVuSans-30"/>
       <use x="351.806641" xlink:href="#DejaVuSans-33"/>
       <use x="415.429688" xlink:href="#DejaVuSans-2f"/>
       <use x="449.121094" xlink:href="#DejaVuSans-32"/>
       <use x="512.744141" xlink:href="#DejaVuSans-32"/>
      </g>
     </g>
    </g>
   </g>
   <g id="matplotlib.axis_8">
    <g id="ytick_16">
     <g id="line2d_137">
      <path clip-path="url(#p6c90e6abcf)" d="M 513.146662 433.2767 
L 918.964844 433.2767 
" style="fill:none;stroke:#b0b0b0;stroke-linecap:square;stroke-width:0.3;"/>
     </g>
     <g id="line2d_138">
      <g>
       <use style="stroke:#000000;stroke-width:0.8;" x="513.146662" xlink:href="#m9142da2816" y="433.2767"/>
      </g>
     </g>
     <g id="text_44">
      <!-- −2 -->
      <g transform="translate(486.981818 438.215684)scale(0.13 -0.13)">
       <use xlink:href="#DejaVuSans-2212"/>
       <use x="83.789062" xlink:href="#DejaVuSans-32"/>
      </g>
     </g>
    </g>
    <g id="ytick_17">
     <g id="line2d_139">
      <path clip-path="url(#p6c90e6abcf)" d="M 513.146662 398.48746 
L 918.964844 398.48746 
" style="fill:none;stroke:#b0b0b0;stroke-linecap:square;stroke-width:0.3;"/>
     </g>
     <g id="line2d_140">
      <g>
       <use style="stroke:#000000;stroke-width:0.8;" x="513.146662" xlink:href="#m9142da2816" y="398.48746"/>
      </g>
     </g>
     <g id="text_45">
      <!-- −1 -->
      <g transform="translate(486.981818 403.426445)scale(0.13 -0.13)">
       <use xlink:href="#DejaVuSans-2212"/>
       <use x="83.789062" xlink:href="#DejaVuSans-31"/>
      </g>
     </g>
    </g>
    <g id="ytick_18">
     <g id="line2d_141">
      <path clip-path="url(#p6c90e6abcf)" d="M 513.146662 363.698221 
L 918.964844 363.698221 
" style="fill:none;stroke:#b0b0b0;stroke-linecap:square;stroke-width:0.3;"/>
     </g>
     <g id="line2d_142">
      <g>
       <use style="stroke:#000000;stroke-width:0.8;" x="513.146662" xlink:href="#m9142da2816" y="363.698221"/>
      </g>
     </g>
     <g id="text_46">
      <!-- 0 -->
      <g transform="translate(497.875412 368.637205)scale(0.13 -0.13)">
       <use xlink:href="#DejaVuSans-30"/>
      </g>
     </g>
    </g>
    <g id="ytick_19">
     <g id="line2d_143">
      <path clip-path="url(#p6c90e6abcf)" d="M 513.146662 328.908981 
L 918.964844 328.908981 
" style="fill:none;stroke:#b0b0b0;stroke-linecap:square;stroke-width:0.3;"/>
     </g>
     <g id="line2d_144">
      <g>
       <use style="stroke:#000000;stroke-width:0.8;" x="513.146662" xlink:href="#m9142da2816" y="328.908981"/>
      </g>
     </g>
     <g id="text_47">
      <!-- 1 -->
      <g transform="translate(497.875412 333.847966)scale(0.13 -0.13)">
       <use xlink:href="#DejaVuSans-31"/>
      </g>
     </g>
    </g>
    <g id="ytick_20">
     <g id="line2d_145">
      <path clip-path="url(#p6c90e6abcf)" d="M 513.146662 294.119742 
L 918.964844 294.119742 
" style="fill:none;stroke:#b0b0b0;stroke-linecap:square;stroke-width:0.3;"/>
     </g>
     <g id="line2d_146">
      <g>
       <use style="stroke:#000000;stroke-width:0.8;" x="513.146662" xlink:href="#m9142da2816" y="294.119742"/>
      </g>
     </g>
     <g id="text_48">
      <!-- 2 -->
      <g transform="translate(497.875412 299.058726)scale(0.13 -0.13)">
       <use xlink:href="#DejaVuSans-32"/>
      </g>
     </g>
    </g>
   </g>
   <g id="line2d_147">
    <path clip-path="url(#p6c90e6abcf)" d="M 531.592943 326.945305 
L 537.640904 346.836687 
L 543.688865 356.514413 
L 549.736826 273.127414 
L 555.784787 301.637247 
L 561.832748 340.029743 
L 567.880709 423.324153 
L 573.92867 452.829893 
L 579.976631 429.174457 
L 586.024592 414.841825 
L 592.072553 407.837835 
L 598.120514 402.127409 
L 604.168475 412.785063 
L 610.216436 403.894466 
L 616.264397 400.46858 
L 622.312358 399.042902 
L 628.360319 396.930755 
L 634.40828 398.518764 
L 640.456241 393.472655 
L 646.504202 397.162532 
L 652.552163 387.52221 
L 658.600124 387.29813 
L 664.648085 386.629297 
L 670.696045 376.486817 
L 676.744006 379.795683 
L 682.791967 393.348389 
L 688.839928 336.583987 
L 694.887889 359.050125 
L 700.93585 351.661363 
L 706.983811 332.105403 
L 713.031772 335.351537 
L 719.079733 366.734883 
L 725.127694 373.712753 
L 731.175655 366.328534 
L 737.223616 385.840455 
L 743.271577 352.084243 
L 749.319538 312.200918 
L 755.367499 310.394693 
L 761.41546 281.299203 
L 767.463421 307.801287 
L 773.511382 332.039481 
L 779.559343 334.334859 
L 785.607304 351.483021 
L 791.655265 354.25835 
L 797.703226 362.026384 
L 803.751187 382.276992 
L 809.799148 369.003927 
L 815.847109 370.35566 
L 821.89507 351.127612 
L 827.943031 357.46853 
L 833.990992 347.960467 
L 840.038953 367.251703 
L 846.086914 373.475803 
L 852.134875 356.725302 
L 858.182836 348.301399 
L 864.230797 322.627368 
L 870.278758 345.712531 
L 876.326719 359.657484 
L 882.37468 343.147665 
L 888.422641 349.201598 
L 894.470602 354.69471 
L 900.518563 356.426831 
" style="fill:none;stroke:#ff0000;stroke-linecap:square;stroke-width:1.5;"/>
   </g>
   <g id="line2d_148">
    <path clip-path="url(#p6c90e6abcf)" d="M 531.592943 347.912597 
L 537.640904 357.600761 
L 543.688865 374.249663 
L 549.736826 318.497606 
L 555.784787 338.073552 
L 561.832748 369.361638 
L 567.880709 414.918943 
L 573.92867 440.438536 
L 579.976631 431.900301 
L 586.024592 433.303466 
L 592.072553 421.985089 
L 598.120514 425.147356 
L 604.168475 420.92212 
L 610.216436 412.607934 
L 616.264397 411.371604 
L 622.312358 417.450306 
L 628.360319 414.815683 
L 634.40828 395.235405 
L 640.456241 387.194862 
L 646.504202 390.71286 
L 652.552163 389.552089 
L 658.600124 383.590488 
L 664.648085 380.648721 
L 670.696045 374.528551 
L 676.744006 379.161977 
L 682.791967 381.065198 
L 688.839928 345.601635 
L 694.887889 358.533386 
L 700.93585 338.770423 
L 706.983811 322.845424 
L 713.031772 334.281135 
L 719.079733 353.739106 
L 725.127694 361.879933 
L 731.175655 357.067763 
L 737.223616 372.324036 
L 743.271577 352.489668 
L 749.319538 313.130858 
L 755.367499 309.262602 
L 761.41546 284.954375 
L 767.463421 304.548937 
L 773.511382 315.565415 
L 779.559343 326.768812 
L 785.607304 347.857101 
L 791.655265 342.463512 
L 797.703226 352.260998 
L 803.751187 361.989665 
L 809.799148 347.154476 
L 815.847109 356.262893 
L 821.89507 348.664058 
L 827.943031 355.189328 
L 833.990992 351.448503 
L 840.038953 358.958098 
L 846.086914 367.568713 
L 852.134875 359.603781 
L 858.182836 346.767547 
L 864.230797 328.869256 
L 870.278758 337.997095 
L 876.326719 350.744342 
L 882.37468 326.918455 
L 888.422641 339.795635 
L 894.470602 346.61592 
L 900.518563 358.149496 
" style="fill:none;stroke:#0000ff;stroke-dasharray:5.55,2.4;stroke-dashoffset:0;stroke-width:1.5;"/>
   </g>
   <g id="patch_21">
    <path d="M 513.146662 461.815017 
L 513.146662 264.14229 
" style="fill:none;stroke:#000000;stroke-linecap:square;stroke-linejoin:miter;stroke-width:0.8;"/>
   </g>
   <g id="patch_22">
    <path d="M 918.964844 461.815017 
L 918.964844 264.14229 
" style="fill:none;stroke:#000000;stroke-linecap:square;stroke-linejoin:miter;stroke-width:0.8;"/>
   </g>
   <g id="patch_23">
    <path d="M 513.146662 461.815017 
L 918.964844 461.815017 
" style="fill:none;stroke:#000000;stroke-linecap:square;stroke-linejoin:miter;stroke-width:0.8;"/>
   </g>
   <g id="patch_24">
    <path d="M 513.146662 264.14229 
L 918.964844 264.14229 
" style="fill:none;stroke:#000000;stroke-linecap:square;stroke-linejoin:miter;stroke-width:0.8;"/>
   </g>
   <g id="legend_4">
    <g id="patch_25">
     <path d="M 515.746662 260.188835 
L 916.364844 260.188835 
Q 918.964844 260.188835 918.964844 257.588835 
L 918.964844 239.44571 
Q 918.964844 236.84571 916.364844 236.84571 
L 515.746662 236.84571 
Q 513.146662 236.84571 513.146662 239.44571 
L 513.146662 257.588835 
Q 513.146662 260.188835 515.746662 260.188835 
z
" style="fill:#ffffff;opacity:0.8;stroke:#cccccc;stroke-linejoin:miter;"/>
    </g>
    <g id="line2d_149">
     <path d="M 518.346662 247.373679 
L 544.346662 247.373679 
" style="fill:none;stroke:#ff0000;stroke-linecap:square;stroke-width:1.5;"/>
    </g>
    <g id="line2d_150"/>
    <g id="text_49">
     <!-- negative (Emolex) -->
     <g transform="translate(554.746662 251.923679)scale(0.13 -0.13)">
      <use xlink:href="#DejaVuSans-6e"/>
      <use x="63.378906" xlink:href="#DejaVuSans-65"/>
      <use x="124.902344" xlink:href="#DejaVuSans-67"/>
      <use x="188.378906" xlink:href="#DejaVuSans-61"/>
      <use x="249.658203" xlink:href="#DejaVuSans-74"/>
      <use x="288.867188" xlink:href="#DejaVuSans-69"/>
      <use x="316.650391" xlink:href="#DejaVuSans-76"/>
      <use x="375.830078" xlink:href="#DejaVuSans-65"/>
      <use x="437.353516" xlink:href="#DejaVuSans-20"/>
      <use x="469.140625" xlink:href="#DejaVuSans-28"/>
      <use x="508.154297" xlink:href="#DejaVuSans-45"/>
      <use x="571.337891" xlink:href="#DejaVuSans-6d"/>
      <use x="668.75" xlink:href="#DejaVuSans-6f"/>
      <use x="729.931641" xlink:href="#DejaVuSans-6c"/>
      <use x="757.714844" xlink:href="#DejaVuSans-65"/>
      <use x="817.488281" xlink:href="#DejaVuSans-78"/>
      <use x="876.667969" xlink:href="#DejaVuSans-29"/>
     </g>
    </g>
    <g id="line2d_151">
     <path d="M 768.770156 247.373679 
L 794.770156 247.373679 
" style="fill:none;stroke:#0000ff;stroke-dasharray:5.55,2.4;stroke-dashoffset:0;stroke-width:1.5;"/>
    </g>
    <g id="line2d_152"/>
    <g id="text_50">
     <!-- Emo_Neg (LIWC) -->
     <g transform="translate(805.170156 251.923679)scale(0.13 -0.13)">
      <defs>
       <path d="M 628 4666 
L 1478 4666 
L 3547 763 
L 3547 4666 
L 4159 4666 
L 4159 0 
L 3309 0 
L 1241 3903 
L 1241 0 
L 628 0 
L 628 4666 
z
" id="DejaVuSans-4e" transform="scale(0.015625)"/>
      </defs>
      <use xlink:href="#DejaVuSans-45"/>
      <use x="63.183594" xlink:href="#DejaVuSans-6d"/>
      <use x="160.595703" xlink:href="#DejaVuSans-6f"/>
      <use x="221.777344" xlink:href="#DejaVuSans-5f"/>
      <use x="271.777344" xlink:href="#DejaVuSans-4e"/>
      <use x="346.582031" xlink:href="#DejaVuSans-65"/>
      <use x="408.105469" xlink:href="#DejaVuSans-67"/>
      <use x="471.582031" xlink:href="#DejaVuSans-20"/>
      <use x="503.369141" xlink:href="#DejaVuSans-28"/>
      <use x="542.382812" xlink:href="#DejaVuSans-4c"/>
      <use x="598.095703" xlink:href="#DejaVuSans-49"/>
      <use x="627.587891" xlink:href="#DejaVuSans-57"/>
      <use x="726.464844" xlink:href="#DejaVuSans-43"/>
      <use x="796.289062" xlink:href="#DejaVuSans-29"/>
     </g>
    </g>
   </g>
  </g>
 </g>
 <defs>
  <clipPath id="p04c0260164">
   <rect height="197.672727" width="405.818182" x="26.164844" y="26.935017"/>
  </clipPath>
  <clipPath id="pcfc7509547">
   <rect height="197.672727" width="405.818182" x="513.146662" y="26.935017"/>
  </clipPath>
  <clipPath id="p42628df2b9">
   <rect height="197.672727" width="405.818182" x="26.164844" y="264.14229"/>
  </clipPath>
  <clipPath id="p6c90e6abcf">
   <rect height="197.672727" width="405.818182" x="513.146662" y="264.14229"/>
  </clipPath>
 </defs>
</svg>
