<?xml version="1.0" encoding="utf-8" standalone="no"?>
<!DOCTYPE svg PUBLIC "-//W3C//DTD SVG 1.1//EN"
  "http://www.w3.org/Graphics/SVG/1.1/DTD/svg11.dtd">
<svg height="520.983227pt" version="1.1" viewBox="0 0 914.542187 520.983227" width="914.542187pt" xmlns="http://www.w3.org/2000/svg" xmlns:xlink="http://www.w3.org/1999/xlink">
 <metadata>
  <rdf:RDF xmlns:cc="http://creativecommons.org/ns#" xmlns:dc="http://purl.org/dc/elements/1.1/" xmlns:rdf="http://www.w3.org/1999/02/22-rdf-syntax-ns#">
   <cc:Work>
    <dc:type rdf:resource="http://purl.org/dc/dcmitype/StillImage"/>
    <dc:date>2021-06-30T11:15:52.864106</dc:date>
    <dc:format>image/svg+xml</dc:format>
    <dc:creator>
     <cc:Agent>
      <dc:title>Matplotlib v3.4.1, https://matplotlib.org/</dc:title>
     </cc:Agent>
    </dc:creator>
   </cc:Work>
  </rdf:RDF>
 </metadata>
 <defs>
  <style type="text/css">*{stroke-linecap:butt;stroke-linejoin:round;}</style>
 </defs>
 <g id="figure_1">
  <g id="patch_1">
   <path d="M 0 520.983227 
L 914.542187 520.983227 
L 914.542187 0 
L 0 0 
z
" style="fill:none;"/>
  </g>
  <g id="axes_1">
   <g id="patch_2">
    <path d="M 21.742188 219.304307 
L 427.560369 219.304307 
L 427.560369 21.63158 
L 21.742188 21.63158 
z
" style="fill:#ffffff;"/>
   </g>
   <g id="matplotlib.axis_1">
    <g id="xtick_1">
     <g id="line2d_1">
      <path clip-path="url(#p3e543f2ffa)" d="M 40.188468 219.304307 
L 40.188468 21.63158 
" style="fill:none;stroke:#b0b0b0;stroke-linecap:square;stroke-width:0.3;"/>
     </g>
     <g id="line2d_2">
      <defs>
       <path d="M 0 0 
L 0 3.5 
" id="mcaf3ec624a" style="stroke:#000000;stroke-width:0.8;"/>
      </defs>
      <g>
       <use style="stroke:#000000;stroke-width:0.8;" x="40.188468" xlink:href="#mcaf3ec624a" y="219.304307"/>
      </g>
     </g>
    </g>
    <g id="xtick_2">
     <g id="line2d_3">
      <path clip-path="url(#p3e543f2ffa)" d="M 70.428273 219.304307 
L 70.428273 21.63158 
" style="fill:none;stroke:#b0b0b0;stroke-linecap:square;stroke-width:0.3;"/>
     </g>
     <g id="line2d_4">
      <g>
       <use style="stroke:#000000;stroke-width:0.8;" x="70.428273" xlink:href="#mcaf3ec624a" y="219.304307"/>
      </g>
     </g>
    </g>
    <g id="xtick_3">
     <g id="line2d_5">
      <path clip-path="url(#p3e543f2ffa)" d="M 100.668078 219.304307 
L 100.668078 21.63158 
" style="fill:none;stroke:#b0b0b0;stroke-linecap:square;stroke-width:0.3;"/>
     </g>
     <g id="line2d_6">
      <g>
       <use style="stroke:#000000;stroke-width:0.8;" x="100.668078" xlink:href="#mcaf3ec624a" y="219.304307"/>
      </g>
     </g>
    </g>
    <g id="xtick_4">
     <g id="line2d_7">
      <path clip-path="url(#p3e543f2ffa)" d="M 130.907883 219.304307 
L 130.907883 21.63158 
" style="fill:none;stroke:#b0b0b0;stroke-linecap:square;stroke-width:0.3;"/>
     </g>
     <g id="line2d_8">
      <g>
       <use style="stroke:#000000;stroke-width:0.8;" x="130.907883" xlink:href="#mcaf3ec624a" y="219.304307"/>
      </g>
     </g>
    </g>
    <g id="xtick_5">
     <g id="line2d_9">
      <path clip-path="url(#p3e543f2ffa)" d="M 161.147688 219.304307 
L 161.147688 21.63158 
" style="fill:none;stroke:#b0b0b0;stroke-linecap:square;stroke-width:0.3;"/>
     </g>
     <g id="line2d_10">
      <g>
       <use style="stroke:#000000;stroke-width:0.8;" x="161.147688" xlink:href="#mcaf3ec624a" y="219.304307"/>
      </g>
     </g>
    </g>
    <g id="xtick_6">
     <g id="line2d_11">
      <path clip-path="url(#p3e543f2ffa)" d="M 191.387493 219.304307 
L 191.387493 21.63158 
" style="fill:none;stroke:#b0b0b0;stroke-linecap:square;stroke-width:0.3;"/>
     </g>
     <g id="line2d_12">
      <g>
       <use style="stroke:#000000;stroke-width:0.8;" x="191.387493" xlink:href="#mcaf3ec624a" y="219.304307"/>
      </g>
     </g>
    </g>
    <g id="xtick_7">
     <g id="line2d_13">
      <path clip-path="url(#p3e543f2ffa)" d="M 221.627298 219.304307 
L 221.627298 21.63158 
" style="fill:none;stroke:#b0b0b0;stroke-linecap:square;stroke-width:0.3;"/>
     </g>
     <g id="line2d_14">
      <g>
       <use style="stroke:#000000;stroke-width:0.8;" x="221.627298" xlink:href="#mcaf3ec624a" y="219.304307"/>
      </g>
     </g>
    </g>
    <g id="xtick_8">
     <g id="line2d_15">
      <path clip-path="url(#p3e543f2ffa)" d="M 251.867103 219.304307 
L 251.867103 21.63158 
" style="fill:none;stroke:#b0b0b0;stroke-linecap:square;stroke-width:0.3;"/>
     </g>
     <g id="line2d_16">
      <g>
       <use style="stroke:#000000;stroke-width:0.8;" x="251.867103" xlink:href="#mcaf3ec624a" y="219.304307"/>
      </g>
     </g>
    </g>
    <g id="xtick_9">
     <g id="line2d_17">
      <path clip-path="url(#p3e543f2ffa)" d="M 282.106908 219.304307 
L 282.106908 21.63158 
" style="fill:none;stroke:#b0b0b0;stroke-linecap:square;stroke-width:0.3;"/>
     </g>
     <g id="line2d_18">
      <g>
       <use style="stroke:#000000;stroke-width:0.8;" x="282.106908" xlink:href="#mcaf3ec624a" y="219.304307"/>
      </g>
     </g>
    </g>
    <g id="xtick_10">
     <g id="line2d_19">
      <path clip-path="url(#p3e543f2ffa)" d="M 312.346713 219.304307 
L 312.346713 21.63158 
" style="fill:none;stroke:#b0b0b0;stroke-linecap:square;stroke-width:0.3;"/>
     </g>
     <g id="line2d_20">
      <g>
       <use style="stroke:#000000;stroke-width:0.8;" x="312.346713" xlink:href="#mcaf3ec624a" y="219.304307"/>
      </g>
     </g>
    </g>
    <g id="xtick_11">
     <g id="line2d_21">
      <path clip-path="url(#p3e543f2ffa)" d="M 342.586518 219.304307 
L 342.586518 21.63158 
" style="fill:none;stroke:#b0b0b0;stroke-linecap:square;stroke-width:0.3;"/>
     </g>
     <g id="line2d_22">
      <g>
       <use style="stroke:#000000;stroke-width:0.8;" x="342.586518" xlink:href="#mcaf3ec624a" y="219.304307"/>
      </g>
     </g>
    </g>
    <g id="xtick_12">
     <g id="line2d_23">
      <path clip-path="url(#p3e543f2ffa)" d="M 372.826322 219.304307 
L 372.826322 21.63158 
" style="fill:none;stroke:#b0b0b0;stroke-linecap:square;stroke-width:0.3;"/>
     </g>
     <g id="line2d_24">
      <g>
       <use style="stroke:#000000;stroke-width:0.8;" x="372.826322" xlink:href="#mcaf3ec624a" y="219.304307"/>
      </g>
     </g>
    </g>
    <g id="xtick_13">
     <g id="line2d_25">
      <path clip-path="url(#p3e543f2ffa)" d="M 403.066127 219.304307 
L 403.066127 21.63158 
" style="fill:none;stroke:#b0b0b0;stroke-linecap:square;stroke-width:0.3;"/>
     </g>
     <g id="line2d_26">
      <g>
       <use style="stroke:#000000;stroke-width:0.8;" x="403.066127" xlink:href="#mcaf3ec624a" y="219.304307"/>
      </g>
     </g>
    </g>
   </g>
   <g id="matplotlib.axis_2">
    <g id="ytick_1">
     <g id="line2d_27">
      <path clip-path="url(#p3e543f2ffa)" d="M 21.742188 194.199615 
L 427.560369 194.199615 
" style="fill:none;stroke:#b0b0b0;stroke-linecap:square;stroke-width:0.3;"/>
     </g>
     <g id="line2d_28">
      <defs>
       <path d="M 0 0 
L -3.5 0 
" id="m853319c41f" style="stroke:#000000;stroke-width:0.8;"/>
      </defs>
      <g>
       <use style="stroke:#000000;stroke-width:0.8;" x="21.742188" xlink:href="#m853319c41f" y="194.199615"/>
      </g>
     </g>
     <g id="text_1">
      <!-- −2 -->
      <g transform="translate(0 197.998834)scale(0.1 -0.1)">
       <defs>
        <path d="M 678 2272 
L 4684 2272 
L 4684 1741 
L 678 1741 
L 678 2272 
z
" id="DejaVuSans-2212" transform="scale(0.015625)"/>
        <path d="M 1228 531 
L 3431 531 
L 3431 0 
L 469 0 
L 469 531 
Q 828 903 1448 1529 
Q 2069 2156 2228 2338 
Q 2531 2678 2651 2914 
Q 2772 3150 2772 3378 
Q 2772 3750 2511 3984 
Q 2250 4219 1831 4219 
Q 1534 4219 1204 4116 
Q 875 4013 500 3803 
L 500 4441 
Q 881 4594 1212 4672 
Q 1544 4750 1819 4750 
Q 2544 4750 2975 4387 
Q 3406 4025 3406 3419 
Q 3406 3131 3298 2873 
Q 3191 2616 2906 2266 
Q 2828 2175 2409 1742 
Q 1991 1309 1228 531 
z
" id="DejaVuSans-32" transform="scale(0.015625)"/>
       </defs>
       <use xlink:href="#DejaVuSans-2212"/>
       <use x="83.789062" xlink:href="#DejaVuSans-32"/>
      </g>
     </g>
    </g>
    <g id="ytick_2">
     <g id="line2d_29">
      <path clip-path="url(#p3e543f2ffa)" d="M 21.742188 155.827713 
L 427.560369 155.827713 
" style="fill:none;stroke:#b0b0b0;stroke-linecap:square;stroke-width:0.3;"/>
     </g>
     <g id="line2d_30">
      <g>
       <use style="stroke:#000000;stroke-width:0.8;" x="21.742188" xlink:href="#m853319c41f" y="155.827713"/>
      </g>
     </g>
     <g id="text_2">
      <!-- −1 -->
      <g transform="translate(0 159.626932)scale(0.1 -0.1)">
       <defs>
        <path d="M 794 531 
L 1825 531 
L 1825 4091 
L 703 3866 
L 703 4441 
L 1819 4666 
L 2450 4666 
L 2450 531 
L 3481 531 
L 3481 0 
L 794 0 
L 794 531 
z
" id="DejaVuSans-31" transform="scale(0.015625)"/>
       </defs>
       <use xlink:href="#DejaVuSans-2212"/>
       <use x="83.789062" xlink:href="#DejaVuSans-31"/>
      </g>
     </g>
    </g>
    <g id="ytick_3">
     <g id="line2d_31">
      <path clip-path="url(#p3e543f2ffa)" d="M 21.742188 117.455811 
L 427.560369 117.455811 
" style="fill:none;stroke:#b0b0b0;stroke-linecap:square;stroke-width:0.3;"/>
     </g>
     <g id="line2d_32">
      <g>
       <use style="stroke:#000000;stroke-width:0.8;" x="21.742188" xlink:href="#m853319c41f" y="117.455811"/>
      </g>
     </g>
     <g id="text_3">
      <!-- 0 -->
      <g transform="translate(8.379688 121.25503)scale(0.1 -0.1)">
       <defs>
        <path d="M 2034 4250 
Q 1547 4250 1301 3770 
Q 1056 3291 1056 2328 
Q 1056 1369 1301 889 
Q 1547 409 2034 409 
Q 2525 409 2770 889 
Q 3016 1369 3016 2328 
Q 3016 3291 2770 3770 
Q 2525 4250 2034 4250 
z
M 2034 4750 
Q 2819 4750 3233 4129 
Q 3647 3509 3647 2328 
Q 3647 1150 3233 529 
Q 2819 -91 2034 -91 
Q 1250 -91 836 529 
Q 422 1150 422 2328 
Q 422 3509 836 4129 
Q 1250 4750 2034 4750 
z
" id="DejaVuSans-30" transform="scale(0.015625)"/>
       </defs>
       <use xlink:href="#DejaVuSans-30"/>
      </g>
     </g>
    </g>
    <g id="ytick_4">
     <g id="line2d_33">
      <path clip-path="url(#p3e543f2ffa)" d="M 21.742188 79.083909 
L 427.560369 79.083909 
" style="fill:none;stroke:#b0b0b0;stroke-linecap:square;stroke-width:0.3;"/>
     </g>
     <g id="line2d_34">
      <g>
       <use style="stroke:#000000;stroke-width:0.8;" x="21.742188" xlink:href="#m853319c41f" y="79.083909"/>
      </g>
     </g>
     <g id="text_4">
      <!-- 1 -->
      <g transform="translate(8.379688 82.883128)scale(0.1 -0.1)">
       <use xlink:href="#DejaVuSans-31"/>
      </g>
     </g>
    </g>
    <g id="ytick_5">
     <g id="line2d_35">
      <path clip-path="url(#p3e543f2ffa)" d="M 21.742188 40.712007 
L 427.560369 40.712007 
" style="fill:none;stroke:#b0b0b0;stroke-linecap:square;stroke-width:0.3;"/>
     </g>
     <g id="line2d_36">
      <g>
       <use style="stroke:#000000;stroke-width:0.8;" x="21.742188" xlink:href="#m853319c41f" y="40.712007"/>
      </g>
     </g>
     <g id="text_5">
      <!-- 2 -->
      <g transform="translate(8.379688 44.511226)scale(0.1 -0.1)">
       <use xlink:href="#DejaVuSans-32"/>
      </g>
     </g>
    </g>
   </g>
   <g id="line2d_37">
    <path clip-path="url(#p3e543f2ffa)" d="M 40.188468 163.828309 
L 46.236429 137.530284 
L 52.28439 134.050902 
L 58.332351 91.865226 
L 64.380312 115.479555 
L 70.428273 145.587073 
L 76.476234 190.574821 
L 82.524195 210.319183 
L 88.572156 185.482056 
L 94.620117 176.7537 
L 100.668078 164.806643 
L 106.716039 179.356071 
L 112.764 170.979706 
L 118.811961 177.174381 
L 124.859922 174.034748 
L 130.907883 167.441669 
L 136.955844 177.369601 
L 143.003805 163.784112 
L 149.051766 151.252963 
L 155.099727 134.206121 
L 161.147688 139.621856 
L 167.195649 132.040052 
L 173.24361 133.647854 
L 179.291571 120.023649 
L 185.339532 130.359531 
L 191.387493 138.93205 
L 197.435454 77.867335 
L 203.483415 102.356193 
L 209.531376 98.694596 
L 215.579337 92.800361 
L 221.627298 94.596424 
L 227.675259 107.651682 
L 233.72322 114.276241 
L 239.771181 120.245211 
L 245.819142 129.043069 
L 251.867103 106.425744 
L 257.915064 81.791987 
L 263.963025 67.79964 
L 270.010986 30.616704 
L 276.058947 54.657517 
L 282.106908 67.130894 
L 288.154869 84.288198 
L 294.20283 84.846098 
L 300.250791 86.444962 
L 306.298752 87.650875 
L 312.346713 106.97937 
L 318.394674 101.446283 
L 324.442635 100.032254 
L 330.490596 83.772026 
L 336.538557 92.80298 
L 342.586518 100.678874 
L 348.634479 101.500641 
L 354.682439 103.97707 
L 360.7304 90.425886 
L 366.778361 106.573378 
L 372.826322 63.769052 
L 378.874283 77.38491 
L 384.922244 104.439526 
L 390.970205 75.874513 
L 397.018166 86.850564 
L 403.066127 84.812277 
L 409.114088 105.254839 
" style="fill:none;stroke:#ff0000;stroke-linecap:square;stroke-width:1.5;"/>
   </g>
   <g id="line2d_38">
    <path clip-path="url(#p3e543f2ffa)" d="M 40.188468 125.078592 
L 46.236429 127.820279 
L 52.28439 113.886335 
L 58.332351 92.805791 
L 64.380312 106.196877 
L 70.428273 136.690984 
L 76.476234 176.639978 
L 82.524195 197.096877 
L 88.572156 192.346687 
L 94.620117 187.210613 
L 100.668078 187.444042 
L 106.716039 179.93787 
L 112.764 181.60488 
L 118.811961 172.0403 
L 124.859922 169.705177 
L 130.907883 170.827887 
L 136.955844 173.373463 
L 143.003805 160.573832 
L 149.051766 141.064376 
L 155.099727 137.479905 
L 161.147688 152.894619 
L 167.195649 138.520933 
L 173.24361 118.860889 
L 179.291571 123.938653 
L 185.339532 132.713136 
L 191.387493 136.511752 
L 197.435454 84.542461 
L 203.483415 98.901926 
L 209.531376 83.57481 
L 215.579337 74.430622 
L 221.627298 72.37355 
L 227.675259 96.765961 
L 233.72322 113.177239 
L 239.771181 122.114181 
L 245.819142 118.760445 
L 251.867103 112.730892 
L 257.915064 60.187251 
L 263.963025 68.364837 
L 270.010986 35.627895 
L 276.058947 48.894913 
L 282.106908 59.79755 
L 288.154869 66.597719 
L 294.20283 101.606102 
L 300.250791 88.44953 
L 306.298752 107.55291 
L 312.346713 114.6206 
L 318.394674 84.365797 
L 324.442635 93.280876 
L 330.490596 98.831779 
L 336.538557 113.068317 
L 342.586518 113.089542 
L 348.634479 121.32097 
L 354.682439 128.769065 
L 360.7304 124.170595 
L 366.778361 80.375116 
L 372.826322 72.686847 
L 378.874283 94.785168 
L 384.922244 108.268773 
L 390.970205 76.42693 
L 397.018166 93.62802 
L 403.066127 100.182171 
L 409.114088 116.674201 
" style="fill:none;stroke:#0000ff;stroke-dasharray:5.55,2.4;stroke-dashoffset:0;stroke-width:1.5;"/>
   </g>
   <g id="patch_3">
    <path d="M 21.742188 219.304307 
L 21.742188 21.63158 
" style="fill:none;stroke:#000000;stroke-linecap:square;stroke-linejoin:miter;stroke-width:0.8;"/>
   </g>
   <g id="patch_4">
    <path d="M 427.560369 219.304307 
L 427.560369 21.63158 
" style="fill:none;stroke:#000000;stroke-linecap:square;stroke-linejoin:miter;stroke-width:0.8;"/>
   </g>
   <g id="patch_5">
    <path d="M 21.742188 219.304307 
L 427.560369 219.304307 
" style="fill:none;stroke:#000000;stroke-linecap:square;stroke-linejoin:miter;stroke-width:0.8;"/>
   </g>
   <g id="patch_6">
    <path d="M 21.742188 21.63158 
L 427.560369 21.63158 
" style="fill:none;stroke:#000000;stroke-linecap:square;stroke-linejoin:miter;stroke-width:0.8;"/>
   </g>
   <g id="legend_1">
    <g id="patch_7">
     <path d="M 23.742188 17.678125 
L 425.560369 17.678125 
Q 427.560369 17.678125 427.560369 15.678125 
L 427.560369 2 
Q 427.560369 -0 425.560369 -0 
L 23.742188 -0 
Q 21.742188 -0 21.742188 2 
L 21.742188 15.678125 
Q 21.742188 17.678125 23.742188 17.678125 
z
" style="fill:#ffffff;opacity:0.8;stroke:#cccccc;stroke-linejoin:miter;"/>
    </g>
    <g id="line2d_39">
     <path d="M 25.742188 8.098437 
L 45.742188 8.098437 
" style="fill:none;stroke:#ff0000;stroke-linecap:square;stroke-width:1.5;"/>
    </g>
    <g id="line2d_40"/>
    <g id="text_6">
     <!-- anger (Emolex) -->
     <g transform="translate(53.742188 11.598437)scale(0.1 -0.1)">
      <defs>
       <path d="M 2194 1759 
Q 1497 1759 1228 1600 
Q 959 1441 959 1056 
Q 959 750 1161 570 
Q 1363 391 1709 391 
Q 2188 391 2477 730 
Q 2766 1069 2766 1631 
L 2766 1759 
L 2194 1759 
z
M 3341 1997 
L 3341 0 
L 2766 0 
L 2766 531 
Q 2569 213 2275 61 
Q 1981 -91 1556 -91 
Q 1019 -91 701 211 
Q 384 513 384 1019 
Q 384 1609 779 1909 
Q 1175 2209 1959 2209 
L 2766 2209 
L 2766 2266 
Q 2766 2663 2505 2880 
Q 2244 3097 1772 3097 
Q 1472 3097 1187 3025 
Q 903 2953 641 2809 
L 641 3341 
Q 956 3463 1253 3523 
Q 1550 3584 1831 3584 
Q 2591 3584 2966 3190 
Q 3341 2797 3341 1997 
z
" id="DejaVuSans-61" transform="scale(0.015625)"/>
       <path d="M 3513 2113 
L 3513 0 
L 2938 0 
L 2938 2094 
Q 2938 2591 2744 2837 
Q 2550 3084 2163 3084 
Q 1697 3084 1428 2787 
Q 1159 2491 1159 1978 
L 1159 0 
L 581 0 
L 581 3500 
L 1159 3500 
L 1159 2956 
Q 1366 3272 1645 3428 
Q 1925 3584 2291 3584 
Q 2894 3584 3203 3211 
Q 3513 2838 3513 2113 
z
" id="DejaVuSans-6e" transform="scale(0.015625)"/>
       <path d="M 2906 1791 
Q 2906 2416 2648 2759 
Q 2391 3103 1925 3103 
Q 1463 3103 1205 2759 
Q 947 2416 947 1791 
Q 947 1169 1205 825 
Q 1463 481 1925 481 
Q 2391 481 2648 825 
Q 2906 1169 2906 1791 
z
M 3481 434 
Q 3481 -459 3084 -895 
Q 2688 -1331 1869 -1331 
Q 1566 -1331 1297 -1286 
Q 1028 -1241 775 -1147 
L 775 -588 
Q 1028 -725 1275 -790 
Q 1522 -856 1778 -856 
Q 2344 -856 2625 -561 
Q 2906 -266 2906 331 
L 2906 616 
Q 2728 306 2450 153 
Q 2172 0 1784 0 
Q 1141 0 747 490 
Q 353 981 353 1791 
Q 353 2603 747 3093 
Q 1141 3584 1784 3584 
Q 2172 3584 2450 3431 
Q 2728 3278 2906 2969 
L 2906 3500 
L 3481 3500 
L 3481 434 
z
" id="DejaVuSans-67" transform="scale(0.015625)"/>
       <path d="M 3597 1894 
L 3597 1613 
L 953 1613 
Q 991 1019 1311 708 
Q 1631 397 2203 397 
Q 2534 397 2845 478 
Q 3156 559 3463 722 
L 3463 178 
Q 3153 47 2828 -22 
Q 2503 -91 2169 -91 
Q 1331 -91 842 396 
Q 353 884 353 1716 
Q 353 2575 817 3079 
Q 1281 3584 2069 3584 
Q 2775 3584 3186 3129 
Q 3597 2675 3597 1894 
z
M 3022 2063 
Q 3016 2534 2758 2815 
Q 2500 3097 2075 3097 
Q 1594 3097 1305 2825 
Q 1016 2553 972 2059 
L 3022 2063 
z
" id="DejaVuSans-65" transform="scale(0.015625)"/>
       <path d="M 2631 2963 
Q 2534 3019 2420 3045 
Q 2306 3072 2169 3072 
Q 1681 3072 1420 2755 
Q 1159 2438 1159 1844 
L 1159 0 
L 581 0 
L 581 3500 
L 1159 3500 
L 1159 2956 
Q 1341 3275 1631 3429 
Q 1922 3584 2338 3584 
Q 2397 3584 2469 3576 
Q 2541 3569 2628 3553 
L 2631 2963 
z
" id="DejaVuSans-72" transform="scale(0.015625)"/>
       <path id="DejaVuSans-20" transform="scale(0.015625)"/>
       <path d="M 1984 4856 
Q 1566 4138 1362 3434 
Q 1159 2731 1159 2009 
Q 1159 1288 1364 580 
Q 1569 -128 1984 -844 
L 1484 -844 
Q 1016 -109 783 600 
Q 550 1309 550 2009 
Q 550 2706 781 3412 
Q 1013 4119 1484 4856 
L 1984 4856 
z
" id="DejaVuSans-28" transform="scale(0.015625)"/>
       <path d="M 628 4666 
L 3578 4666 
L 3578 4134 
L 1259 4134 
L 1259 2753 
L 3481 2753 
L 3481 2222 
L 1259 2222 
L 1259 531 
L 3634 531 
L 3634 0 
L 628 0 
L 628 4666 
z
" id="DejaVuSans-45" transform="scale(0.015625)"/>
       <path d="M 3328 2828 
Q 3544 3216 3844 3400 
Q 4144 3584 4550 3584 
Q 5097 3584 5394 3201 
Q 5691 2819 5691 2113 
L 5691 0 
L 5113 0 
L 5113 2094 
Q 5113 2597 4934 2840 
Q 4756 3084 4391 3084 
Q 3944 3084 3684 2787 
Q 3425 2491 3425 1978 
L 3425 0 
L 2847 0 
L 2847 2094 
Q 2847 2600 2669 2842 
Q 2491 3084 2119 3084 
Q 1678 3084 1418 2786 
Q 1159 2488 1159 1978 
L 1159 0 
L 581 0 
L 581 3500 
L 1159 3500 
L 1159 2956 
Q 1356 3278 1631 3431 
Q 1906 3584 2284 3584 
Q 2666 3584 2933 3390 
Q 3200 3197 3328 2828 
z
" id="DejaVuSans-6d" transform="scale(0.015625)"/>
       <path d="M 1959 3097 
Q 1497 3097 1228 2736 
Q 959 2375 959 1747 
Q 959 1119 1226 758 
Q 1494 397 1959 397 
Q 2419 397 2687 759 
Q 2956 1122 2956 1747 
Q 2956 2369 2687 2733 
Q 2419 3097 1959 3097 
z
M 1959 3584 
Q 2709 3584 3137 3096 
Q 3566 2609 3566 1747 
Q 3566 888 3137 398 
Q 2709 -91 1959 -91 
Q 1206 -91 779 398 
Q 353 888 353 1747 
Q 353 2609 779 3096 
Q 1206 3584 1959 3584 
z
" id="DejaVuSans-6f" transform="scale(0.015625)"/>
       <path d="M 603 4863 
L 1178 4863 
L 1178 0 
L 603 0 
L 603 4863 
z
" id="DejaVuSans-6c" transform="scale(0.015625)"/>
       <path d="M 3513 3500 
L 2247 1797 
L 3578 0 
L 2900 0 
L 1881 1375 
L 863 0 
L 184 0 
L 1544 1831 
L 300 3500 
L 978 3500 
L 1906 2253 
L 2834 3500 
L 3513 3500 
z
" id="DejaVuSans-78" transform="scale(0.015625)"/>
       <path d="M 513 4856 
L 1013 4856 
Q 1481 4119 1714 3412 
Q 1947 2706 1947 2009 
Q 1947 1309 1714 600 
Q 1481 -109 1013 -844 
L 513 -844 
Q 928 -128 1133 580 
Q 1338 1288 1338 2009 
Q 1338 2731 1133 3434 
Q 928 4138 513 4856 
z
" id="DejaVuSans-29" transform="scale(0.015625)"/>
      </defs>
      <use xlink:href="#DejaVuSans-61"/>
      <use x="61.279297" xlink:href="#DejaVuSans-6e"/>
      <use x="124.658203" xlink:href="#DejaVuSans-67"/>
      <use x="188.134766" xlink:href="#DejaVuSans-65"/>
      <use x="249.658203" xlink:href="#DejaVuSans-72"/>
      <use x="290.771484" xlink:href="#DejaVuSans-20"/>
      <use x="322.558594" xlink:href="#DejaVuSans-28"/>
      <use x="361.572266" xlink:href="#DejaVuSans-45"/>
      <use x="424.755859" xlink:href="#DejaVuSans-6d"/>
      <use x="522.167969" xlink:href="#DejaVuSans-6f"/>
      <use x="583.349609" xlink:href="#DejaVuSans-6c"/>
      <use x="611.132812" xlink:href="#DejaVuSans-65"/>
      <use x="670.90625" xlink:href="#DejaVuSans-78"/>
      <use x="730.085938" xlink:href="#DejaVuSans-29"/>
     </g>
    </g>
    <g id="line2d_41">
     <path d="M 324.732244 8.098437 
L 344.732244 8.098437 
" style="fill:none;stroke:#0000ff;stroke-dasharray:5.55,2.4;stroke-dashoffset:0;stroke-width:1.5;"/>
    </g>
    <g id="line2d_42"/>
    <g id="text_7">
     <!-- Rabbia (LIWC) -->
     <g transform="translate(352.732244 11.598437)scale(0.1 -0.1)">
      <defs>
       <path d="M 2841 2188 
Q 3044 2119 3236 1894 
Q 3428 1669 3622 1275 
L 4263 0 
L 3584 0 
L 2988 1197 
Q 2756 1666 2539 1819 
Q 2322 1972 1947 1972 
L 1259 1972 
L 1259 0 
L 628 0 
L 628 4666 
L 2053 4666 
Q 2853 4666 3247 4331 
Q 3641 3997 3641 3322 
Q 3641 2881 3436 2590 
Q 3231 2300 2841 2188 
z
M 1259 4147 
L 1259 2491 
L 2053 2491 
Q 2509 2491 2742 2702 
Q 2975 2913 2975 3322 
Q 2975 3731 2742 3939 
Q 2509 4147 2053 4147 
L 1259 4147 
z
" id="DejaVuSans-52" transform="scale(0.015625)"/>
       <path d="M 3116 1747 
Q 3116 2381 2855 2742 
Q 2594 3103 2138 3103 
Q 1681 3103 1420 2742 
Q 1159 2381 1159 1747 
Q 1159 1113 1420 752 
Q 1681 391 2138 391 
Q 2594 391 2855 752 
Q 3116 1113 3116 1747 
z
M 1159 2969 
Q 1341 3281 1617 3432 
Q 1894 3584 2278 3584 
Q 2916 3584 3314 3078 
Q 3713 2572 3713 1747 
Q 3713 922 3314 415 
Q 2916 -91 2278 -91 
Q 1894 -91 1617 61 
Q 1341 213 1159 525 
L 1159 0 
L 581 0 
L 581 4863 
L 1159 4863 
L 1159 2969 
z
" id="DejaVuSans-62" transform="scale(0.015625)"/>
       <path d="M 603 3500 
L 1178 3500 
L 1178 0 
L 603 0 
L 603 3500 
z
M 603 4863 
L 1178 4863 
L 1178 4134 
L 603 4134 
L 603 4863 
z
" id="DejaVuSans-69" transform="scale(0.015625)"/>
       <path d="M 628 4666 
L 1259 4666 
L 1259 531 
L 3531 531 
L 3531 0 
L 628 0 
L 628 4666 
z
" id="DejaVuSans-4c" transform="scale(0.015625)"/>
       <path d="M 628 4666 
L 1259 4666 
L 1259 0 
L 628 0 
L 628 4666 
z
" id="DejaVuSans-49" transform="scale(0.015625)"/>
       <path d="M 213 4666 
L 850 4666 
L 1831 722 
L 2809 4666 
L 3519 4666 
L 4500 722 
L 5478 4666 
L 6119 4666 
L 4947 0 
L 4153 0 
L 3169 4050 
L 2175 0 
L 1381 0 
L 213 4666 
z
" id="DejaVuSans-57" transform="scale(0.015625)"/>
       <path d="M 4122 4306 
L 4122 3641 
Q 3803 3938 3442 4084 
Q 3081 4231 2675 4231 
Q 1875 4231 1450 3742 
Q 1025 3253 1025 2328 
Q 1025 1406 1450 917 
Q 1875 428 2675 428 
Q 3081 428 3442 575 
Q 3803 722 4122 1019 
L 4122 359 
Q 3791 134 3420 21 
Q 3050 -91 2638 -91 
Q 1578 -91 968 557 
Q 359 1206 359 2328 
Q 359 3453 968 4101 
Q 1578 4750 2638 4750 
Q 3056 4750 3426 4639 
Q 3797 4528 4122 4306 
z
" id="DejaVuSans-43" transform="scale(0.015625)"/>
      </defs>
      <use xlink:href="#DejaVuSans-52"/>
      <use x="67.232422" xlink:href="#DejaVuSans-61"/>
      <use x="128.511719" xlink:href="#DejaVuSans-62"/>
      <use x="191.988281" xlink:href="#DejaVuSans-62"/>
      <use x="255.464844" xlink:href="#DejaVuSans-69"/>
      <use x="283.248047" xlink:href="#DejaVuSans-61"/>
      <use x="344.527344" xlink:href="#DejaVuSans-20"/>
      <use x="376.314453" xlink:href="#DejaVuSans-28"/>
      <use x="415.328125" xlink:href="#DejaVuSans-4c"/>
      <use x="471.041016" xlink:href="#DejaVuSans-49"/>
      <use x="500.533203" xlink:href="#DejaVuSans-57"/>
      <use x="599.410156" xlink:href="#DejaVuSans-43"/>
      <use x="669.234375" xlink:href="#DejaVuSans-29"/>
     </g>
    </g>
   </g>
  </g>
  <g id="axes_2">
   <g id="patch_8">
    <path d="M 508.724006 219.304307 
L 914.542187 219.304307 
L 914.542187 21.63158 
L 508.724006 21.63158 
z
" style="fill:#ffffff;"/>
   </g>
   <g id="matplotlib.axis_3">
    <g id="xtick_14">
     <g id="line2d_43">
      <path clip-path="url(#p8ecb52a5f7)" d="M 527.170287 219.304307 
L 527.170287 21.63158 
" style="fill:none;stroke:#b0b0b0;stroke-linecap:square;stroke-width:0.3;"/>
     </g>
     <g id="line2d_44">
      <g>
       <use style="stroke:#000000;stroke-width:0.8;" x="527.170287" xlink:href="#mcaf3ec624a" y="219.304307"/>
      </g>
     </g>
    </g>
    <g id="xtick_15">
     <g id="line2d_45">
      <path clip-path="url(#p8ecb52a5f7)" d="M 557.410092 219.304307 
L 557.410092 21.63158 
" style="fill:none;stroke:#b0b0b0;stroke-linecap:square;stroke-width:0.3;"/>
     </g>
     <g id="line2d_46">
      <g>
       <use style="stroke:#000000;stroke-width:0.8;" x="557.410092" xlink:href="#mcaf3ec624a" y="219.304307"/>
      </g>
     </g>
    </g>
    <g id="xtick_16">
     <g id="line2d_47">
      <path clip-path="url(#p8ecb52a5f7)" d="M 587.649896 219.304307 
L 587.649896 21.63158 
" style="fill:none;stroke:#b0b0b0;stroke-linecap:square;stroke-width:0.3;"/>
     </g>
     <g id="line2d_48">
      <g>
       <use style="stroke:#000000;stroke-width:0.8;" x="587.649896" xlink:href="#mcaf3ec624a" y="219.304307"/>
      </g>
     </g>
    </g>
    <g id="xtick_17">
     <g id="line2d_49">
      <path clip-path="url(#p8ecb52a5f7)" d="M 617.889701 219.304307 
L 617.889701 21.63158 
" style="fill:none;stroke:#b0b0b0;stroke-linecap:square;stroke-width:0.3;"/>
     </g>
     <g id="line2d_50">
      <g>
       <use style="stroke:#000000;stroke-width:0.8;" x="617.889701" xlink:href="#mcaf3ec624a" y="219.304307"/>
      </g>
     </g>
    </g>
    <g id="xtick_18">
     <g id="line2d_51">
      <path clip-path="url(#p8ecb52a5f7)" d="M 648.129506 219.304307 
L 648.129506 21.63158 
" style="fill:none;stroke:#b0b0b0;stroke-linecap:square;stroke-width:0.3;"/>
     </g>
     <g id="line2d_52">
      <g>
       <use style="stroke:#000000;stroke-width:0.8;" x="648.129506" xlink:href="#mcaf3ec624a" y="219.304307"/>
      </g>
     </g>
    </g>
    <g id="xtick_19">
     <g id="line2d_53">
      <path clip-path="url(#p8ecb52a5f7)" d="M 678.369311 219.304307 
L 678.369311 21.63158 
" style="fill:none;stroke:#b0b0b0;stroke-linecap:square;stroke-width:0.3;"/>
     </g>
     <g id="line2d_54">
      <g>
       <use style="stroke:#000000;stroke-width:0.8;" x="678.369311" xlink:href="#mcaf3ec624a" y="219.304307"/>
      </g>
     </g>
    </g>
    <g id="xtick_20">
     <g id="line2d_55">
      <path clip-path="url(#p8ecb52a5f7)" d="M 708.609116 219.304307 
L 708.609116 21.63158 
" style="fill:none;stroke:#b0b0b0;stroke-linecap:square;stroke-width:0.3;"/>
     </g>
     <g id="line2d_56">
      <g>
       <use style="stroke:#000000;stroke-width:0.8;" x="708.609116" xlink:href="#mcaf3ec624a" y="219.304307"/>
      </g>
     </g>
    </g>
    <g id="xtick_21">
     <g id="line2d_57">
      <path clip-path="url(#p8ecb52a5f7)" d="M 738.848921 219.304307 
L 738.848921 21.63158 
" style="fill:none;stroke:#b0b0b0;stroke-linecap:square;stroke-width:0.3;"/>
     </g>
     <g id="line2d_58">
      <g>
       <use style="stroke:#000000;stroke-width:0.8;" x="738.848921" xlink:href="#mcaf3ec624a" y="219.304307"/>
      </g>
     </g>
    </g>
    <g id="xtick_22">
     <g id="line2d_59">
      <path clip-path="url(#p8ecb52a5f7)" d="M 769.088726 219.304307 
L 769.088726 21.63158 
" style="fill:none;stroke:#b0b0b0;stroke-linecap:square;stroke-width:0.3;"/>
     </g>
     <g id="line2d_60">
      <g>
       <use style="stroke:#000000;stroke-width:0.8;" x="769.088726" xlink:href="#mcaf3ec624a" y="219.304307"/>
      </g>
     </g>
    </g>
    <g id="xtick_23">
     <g id="line2d_61">
      <path clip-path="url(#p8ecb52a5f7)" d="M 799.328531 219.304307 
L 799.328531 21.63158 
" style="fill:none;stroke:#b0b0b0;stroke-linecap:square;stroke-width:0.3;"/>
     </g>
     <g id="line2d_62">
      <g>
       <use style="stroke:#000000;stroke-width:0.8;" x="799.328531" xlink:href="#mcaf3ec624a" y="219.304307"/>
      </g>
     </g>
    </g>
    <g id="xtick_24">
     <g id="line2d_63">
      <path clip-path="url(#p8ecb52a5f7)" d="M 829.568336 219.304307 
L 829.568336 21.63158 
" style="fill:none;stroke:#b0b0b0;stroke-linecap:square;stroke-width:0.3;"/>
     </g>
     <g id="line2d_64">
      <g>
       <use style="stroke:#000000;stroke-width:0.8;" x="829.568336" xlink:href="#mcaf3ec624a" y="219.304307"/>
      </g>
     </g>
    </g>
    <g id="xtick_25">
     <g id="line2d_65">
      <path clip-path="url(#p8ecb52a5f7)" d="M 859.808141 219.304307 
L 859.808141 21.63158 
" style="fill:none;stroke:#b0b0b0;stroke-linecap:square;stroke-width:0.3;"/>
     </g>
     <g id="line2d_66">
      <g>
       <use style="stroke:#000000;stroke-width:0.8;" x="859.808141" xlink:href="#mcaf3ec624a" y="219.304307"/>
      </g>
     </g>
    </g>
    <g id="xtick_26">
     <g id="line2d_67">
      <path clip-path="url(#p8ecb52a5f7)" d="M 890.047946 219.304307 
L 890.047946 21.63158 
" style="fill:none;stroke:#b0b0b0;stroke-linecap:square;stroke-width:0.3;"/>
     </g>
     <g id="line2d_68">
      <g>
       <use style="stroke:#000000;stroke-width:0.8;" x="890.047946" xlink:href="#mcaf3ec624a" y="219.304307"/>
      </g>
     </g>
    </g>
   </g>
   <g id="matplotlib.axis_4">
    <g id="ytick_6">
     <g id="line2d_69">
      <path clip-path="url(#p8ecb52a5f7)" d="M 508.724006 190.967316 
L 914.542187 190.967316 
" style="fill:none;stroke:#b0b0b0;stroke-linecap:square;stroke-width:0.3;"/>
     </g>
     <g id="line2d_70">
      <g>
       <use style="stroke:#000000;stroke-width:0.8;" x="508.724006" xlink:href="#m853319c41f" y="190.967316"/>
      </g>
     </g>
     <g id="text_8">
      <!-- −2 -->
      <g transform="translate(486.981818 194.766535)scale(0.1 -0.1)">
       <use xlink:href="#DejaVuSans-2212"/>
       <use x="83.789062" xlink:href="#DejaVuSans-32"/>
      </g>
     </g>
    </g>
    <g id="ytick_7">
     <g id="line2d_71">
      <path clip-path="url(#p8ecb52a5f7)" d="M 508.724006 153.418409 
L 914.542187 153.418409 
" style="fill:none;stroke:#b0b0b0;stroke-linecap:square;stroke-width:0.3;"/>
     </g>
     <g id="line2d_72">
      <g>
       <use style="stroke:#000000;stroke-width:0.8;" x="508.724006" xlink:href="#m853319c41f" y="153.418409"/>
      </g>
     </g>
     <g id="text_9">
      <!-- −1 -->
      <g transform="translate(486.981818 157.217628)scale(0.1 -0.1)">
       <use xlink:href="#DejaVuSans-2212"/>
       <use x="83.789062" xlink:href="#DejaVuSans-31"/>
      </g>
     </g>
    </g>
    <g id="ytick_8">
     <g id="line2d_73">
      <path clip-path="url(#p8ecb52a5f7)" d="M 508.724006 115.869502 
L 914.542187 115.869502 
" style="fill:none;stroke:#b0b0b0;stroke-linecap:square;stroke-width:0.3;"/>
     </g>
     <g id="line2d_74">
      <g>
       <use style="stroke:#000000;stroke-width:0.8;" x="508.724006" xlink:href="#m853319c41f" y="115.869502"/>
      </g>
     </g>
     <g id="text_10">
      <!-- 0 -->
      <g transform="translate(495.361506 119.668721)scale(0.1 -0.1)">
       <use xlink:href="#DejaVuSans-30"/>
      </g>
     </g>
    </g>
    <g id="ytick_9">
     <g id="line2d_75">
      <path clip-path="url(#p8ecb52a5f7)" d="M 508.724006 78.320596 
L 914.542187 78.320596 
" style="fill:none;stroke:#b0b0b0;stroke-linecap:square;stroke-width:0.3;"/>
     </g>
     <g id="line2d_76">
      <g>
       <use style="stroke:#000000;stroke-width:0.8;" x="508.724006" xlink:href="#m853319c41f" y="78.320596"/>
      </g>
     </g>
     <g id="text_11">
      <!-- 1 -->
      <g transform="translate(495.361506 82.119814)scale(0.1 -0.1)">
       <use xlink:href="#DejaVuSans-31"/>
      </g>
     </g>
    </g>
    <g id="ytick_10">
     <g id="line2d_77">
      <path clip-path="url(#p8ecb52a5f7)" d="M 508.724006 40.771689 
L 914.542187 40.771689 
" style="fill:none;stroke:#b0b0b0;stroke-linecap:square;stroke-width:0.3;"/>
     </g>
     <g id="line2d_78">
      <g>
       <use style="stroke:#000000;stroke-width:0.8;" x="508.724006" xlink:href="#m853319c41f" y="40.771689"/>
      </g>
     </g>
     <g id="text_12">
      <!-- 2 -->
      <g transform="translate(495.361506 44.570908)scale(0.1 -0.1)">
       <use xlink:href="#DejaVuSans-32"/>
      </g>
     </g>
    </g>
   </g>
   <g id="line2d_79">
    <path clip-path="url(#p8ecb52a5f7)" d="M 527.170287 148.243119 
L 533.218248 158.000064 
L 539.266209 160.291583 
L 545.31417 104.039606 
L 551.362131 117.209219 
L 557.410092 147.569927 
L 563.458053 191.153796 
L 569.506014 210.319183 
L 575.553975 188.716715 
L 581.601936 170.87964 
L 587.649896 167.633056 
L 593.697857 163.811723 
L 599.745818 168.13247 
L 605.793779 171.238164 
L 611.84174 175.689649 
L 617.889701 159.130429 
L 623.937662 153.680224 
L 629.985623 158.416549 
L 636.033584 140.882251 
L 642.081545 122.631072 
L 648.129506 119.85261 
L 654.177467 123.195624 
L 660.225428 114.387895 
L 666.273389 97.33375 
L 672.32135 114.298927 
L 678.369311 127.794181 
L 684.417272 74.650478 
L 690.465233 102.839285 
L 696.513194 99.890718 
L 702.561155 80.121891 
L 708.609116 89.47381 
L 714.657077 110.060474 
L 720.705038 120.628795 
L 726.752999 121.576655 
L 732.80096 127.783914 
L 738.848921 101.039255 
L 744.896882 64.983449 
L 750.944843 57.471419 
L 756.992804 30.616704 
L 763.040765 55.018079 
L 769.088726 64.334835 
L 775.136687 78.94372 
L 781.184648 84.130913 
L 787.232609 82.473257 
L 793.28057 96.648034 
L 799.328531 123.903085 
L 805.376492 115.484957 
L 811.424453 121.542262 
L 817.472414 95.356384 
L 823.520375 107.135977 
L 829.568336 96.854559 
L 835.616297 103.060304 
L 841.664258 111.640711 
L 847.712219 92.189171 
L 853.76018 112.03652 
L 859.808141 67.765727 
L 865.856102 84.562095 
L 871.904063 84.777145 
L 877.952024 74.431627 
L 883.999985 79.20607 
L 890.047946 89.005683 
L 896.095907 107.739763 
" style="fill:none;stroke:#ff0000;stroke-linecap:square;stroke-width:1.5;"/>
   </g>
   <g id="line2d_80">
    <path clip-path="url(#p8ecb52a5f7)" d="M 527.170287 135.025893 
L 533.218248 134.386396 
L 539.266209 160.351002 
L 545.31417 129.999147 
L 551.362131 128.36825 
L 557.410092 146.725353 
L 563.458053 171.440469 
L 569.506014 188.749027 
L 575.553975 179.400677 
L 581.601936 181.062449 
L 587.649896 165.326706 
L 593.697857 176.447439 
L 599.745818 168.822173 
L 605.793779 167.835185 
L 611.84174 165.521871 
L 617.889701 174.464199 
L 623.937662 169.429184 
L 629.985623 157.529072 
L 636.033584 141.893204 
L 642.081545 134.374075 
L 648.129506 136.195619 
L 654.177467 133.696562 
L 660.225428 137.870266 
L 666.273389 129.729593 
L 672.32135 134.309864 
L 678.369311 129.283971 
L 684.417272 103.478642 
L 690.465233 107.663413 
L 696.513194 96.937537 
L 702.561155 80.551082 
L 708.609116 100.771142 
L 714.657077 108.048088 
L 720.705038 115.588973 
L 726.752999 112.245704 
L 732.80096 125.449081 
L 738.848921 107.141046 
L 744.896882 70.074338 
L 750.944843 56.118083 
L 756.992804 32.657438 
L 763.040765 48.242573 
L 769.088726 56.520665 
L 775.136687 71.703859 
L 781.184648 81.212159 
L 787.232609 76.242188 
L 793.28057 87.466474 
L 799.328531 100.863846 
L 805.376492 88.012705 
L 811.424453 96.648551 
L 817.472414 93.040045 
L 823.520375 104.455059 
L 829.568336 94.959487 
L 835.616297 108.11408 
L 841.664258 107.756839 
L 847.712219 103.23382 
L 853.76018 109.356585 
L 859.808141 67.125659 
L 865.856102 79.250832 
L 871.904063 82.949182 
L 877.952024 61.469253 
L 883.999985 76.078985 
L 890.047946 84.545711 
L 896.095907 109.698378 
" style="fill:none;stroke:#0000ff;stroke-dasharray:5.55,2.4;stroke-dashoffset:0;stroke-width:1.5;"/>
   </g>
   <g id="patch_9">
    <path d="M 508.724006 219.304307 
L 508.724006 21.63158 
" style="fill:none;stroke:#000000;stroke-linecap:square;stroke-linejoin:miter;stroke-width:0.8;"/>
   </g>
   <g id="patch_10">
    <path d="M 914.542187 219.304307 
L 914.542187 21.63158 
" style="fill:none;stroke:#000000;stroke-linecap:square;stroke-linejoin:miter;stroke-width:0.8;"/>
   </g>
   <g id="patch_11">
    <path d="M 508.724006 219.304307 
L 914.542187 219.304307 
" style="fill:none;stroke:#000000;stroke-linecap:square;stroke-linejoin:miter;stroke-width:0.8;"/>
   </g>
   <g id="patch_12">
    <path d="M 508.724006 21.63158 
L 914.542187 21.63158 
" style="fill:none;stroke:#000000;stroke-linecap:square;stroke-linejoin:miter;stroke-width:0.8;"/>
   </g>
   <g id="legend_2">
    <g id="patch_13">
     <path d="M 510.724006 17.678125 
L 912.542187 17.678125 
Q 914.542187 17.678125 914.542187 15.678125 
L 914.542187 2 
Q 914.542187 -0 912.542187 -0 
L 510.724006 -0 
Q 508.724006 -0 508.724006 2 
L 508.724006 15.678125 
Q 508.724006 17.678125 510.724006 17.678125 
z
" style="fill:#ffffff;opacity:0.8;stroke:#cccccc;stroke-linejoin:miter;"/>
    </g>
    <g id="line2d_81">
     <path d="M 512.724006 8.098437 
L 532.724006 8.098437 
" style="fill:none;stroke:#ff0000;stroke-linecap:square;stroke-width:1.5;"/>
    </g>
    <g id="line2d_82"/>
    <g id="text_13">
     <!-- sadness (Emolex) -->
     <g transform="translate(540.724006 11.598437)scale(0.1 -0.1)">
      <defs>
       <path d="M 2834 3397 
L 2834 2853 
Q 2591 2978 2328 3040 
Q 2066 3103 1784 3103 
Q 1356 3103 1142 2972 
Q 928 2841 928 2578 
Q 928 2378 1081 2264 
Q 1234 2150 1697 2047 
L 1894 2003 
Q 2506 1872 2764 1633 
Q 3022 1394 3022 966 
Q 3022 478 2636 193 
Q 2250 -91 1575 -91 
Q 1294 -91 989 -36 
Q 684 19 347 128 
L 347 722 
Q 666 556 975 473 
Q 1284 391 1588 391 
Q 1994 391 2212 530 
Q 2431 669 2431 922 
Q 2431 1156 2273 1281 
Q 2116 1406 1581 1522 
L 1381 1569 
Q 847 1681 609 1914 
Q 372 2147 372 2553 
Q 372 3047 722 3315 
Q 1072 3584 1716 3584 
Q 2034 3584 2315 3537 
Q 2597 3491 2834 3397 
z
" id="DejaVuSans-73" transform="scale(0.015625)"/>
       <path d="M 2906 2969 
L 2906 4863 
L 3481 4863 
L 3481 0 
L 2906 0 
L 2906 525 
Q 2725 213 2448 61 
Q 2172 -91 1784 -91 
Q 1150 -91 751 415 
Q 353 922 353 1747 
Q 353 2572 751 3078 
Q 1150 3584 1784 3584 
Q 2172 3584 2448 3432 
Q 2725 3281 2906 2969 
z
M 947 1747 
Q 947 1113 1208 752 
Q 1469 391 1925 391 
Q 2381 391 2643 752 
Q 2906 1113 2906 1747 
Q 2906 2381 2643 2742 
Q 2381 3103 1925 3103 
Q 1469 3103 1208 2742 
Q 947 2381 947 1747 
z
" id="DejaVuSans-64" transform="scale(0.015625)"/>
      </defs>
      <use xlink:href="#DejaVuSans-73"/>
      <use x="52.099609" xlink:href="#DejaVuSans-61"/>
      <use x="113.378906" xlink:href="#DejaVuSans-64"/>
      <use x="176.855469" xlink:href="#DejaVuSans-6e"/>
      <use x="240.234375" xlink:href="#DejaVuSans-65"/>
      <use x="301.757812" xlink:href="#DejaVuSans-73"/>
      <use x="353.857422" xlink:href="#DejaVuSans-73"/>
      <use x="405.957031" xlink:href="#DejaVuSans-20"/>
      <use x="437.744141" xlink:href="#DejaVuSans-28"/>
      <use x="476.757812" xlink:href="#DejaVuSans-45"/>
      <use x="539.941406" xlink:href="#DejaVuSans-6d"/>
      <use x="637.353516" xlink:href="#DejaVuSans-6f"/>
      <use x="698.535156" xlink:href="#DejaVuSans-6c"/>
      <use x="726.318359" xlink:href="#DejaVuSans-65"/>
      <use x="786.091797" xlink:href="#DejaVuSans-78"/>
      <use x="845.271484" xlink:href="#DejaVuSans-29"/>
     </g>
    </g>
    <g id="line2d_83">
     <path d="M 814.115625 8.098437 
L 834.115625 8.098437 
" style="fill:none;stroke:#0000ff;stroke-dasharray:5.55,2.4;stroke-dashoffset:0;stroke-width:1.5;"/>
    </g>
    <g id="line2d_84"/>
    <g id="text_14">
     <!-- Tristez (LIWC) -->
     <g transform="translate(842.115625 11.598437)scale(0.1 -0.1)">
      <defs>
       <path d="M -19 4666 
L 3928 4666 
L 3928 4134 
L 2272 4134 
L 2272 0 
L 1638 0 
L 1638 4134 
L -19 4134 
L -19 4666 
z
" id="DejaVuSans-54" transform="scale(0.015625)"/>
       <path d="M 1172 4494 
L 1172 3500 
L 2356 3500 
L 2356 3053 
L 1172 3053 
L 1172 1153 
Q 1172 725 1289 603 
Q 1406 481 1766 481 
L 2356 481 
L 2356 0 
L 1766 0 
Q 1100 0 847 248 
Q 594 497 594 1153 
L 594 3053 
L 172 3053 
L 172 3500 
L 594 3500 
L 594 4494 
L 1172 4494 
z
" id="DejaVuSans-74" transform="scale(0.015625)"/>
       <path d="M 353 3500 
L 3084 3500 
L 3084 2975 
L 922 459 
L 3084 459 
L 3084 0 
L 275 0 
L 275 525 
L 2438 3041 
L 353 3041 
L 353 3500 
z
" id="DejaVuSans-7a" transform="scale(0.015625)"/>
      </defs>
      <use xlink:href="#DejaVuSans-54"/>
      <use x="46.333984" xlink:href="#DejaVuSans-72"/>
      <use x="87.447266" xlink:href="#DejaVuSans-69"/>
      <use x="115.230469" xlink:href="#DejaVuSans-73"/>
      <use x="167.330078" xlink:href="#DejaVuSans-74"/>
      <use x="206.539062" xlink:href="#DejaVuSans-65"/>
      <use x="268.0625" xlink:href="#DejaVuSans-7a"/>
      <use x="320.552734" xlink:href="#DejaVuSans-20"/>
      <use x="352.339844" xlink:href="#DejaVuSans-28"/>
      <use x="391.353516" xlink:href="#DejaVuSans-4c"/>
      <use x="447.066406" xlink:href="#DejaVuSans-49"/>
      <use x="476.558594" xlink:href="#DejaVuSans-57"/>
      <use x="575.435547" xlink:href="#DejaVuSans-43"/>
      <use x="645.259766" xlink:href="#DejaVuSans-29"/>
     </g>
    </g>
   </g>
  </g>
  <g id="axes_3">
   <g id="patch_14">
    <path d="M 21.742188 456.51158 
L 427.560369 456.51158 
L 427.560369 258.838852 
L 21.742188 258.838852 
z
" style="fill:#ffffff;"/>
   </g>
   <g id="matplotlib.axis_5">
    <g id="xtick_27">
     <g id="line2d_85">
      <path clip-path="url(#pdbc1ee5f09)" d="M 40.188468 456.51158 
L 40.188468 258.838852 
" style="fill:none;stroke:#b0b0b0;stroke-linecap:square;stroke-width:0.3;"/>
     </g>
     <g id="line2d_86">
      <g>
       <use style="stroke:#000000;stroke-width:0.8;" x="40.188468" xlink:href="#mcaf3ec624a" y="456.51158"/>
      </g>
     </g>
     <g id="text_15">
      <!-- 2020/01/27 -->
      <g transform="translate(32.92484 520.271932)rotate(-70)scale(0.1 -0.1)">
       <defs>
        <path d="M 1625 4666 
L 2156 4666 
L 531 -594 
L 0 -594 
L 1625 4666 
z
" id="DejaVuSans-2f" transform="scale(0.015625)"/>
        <path d="M 525 4666 
L 3525 4666 
L 3525 4397 
L 1831 0 
L 1172 0 
L 2766 4134 
L 525 4134 
L 525 4666 
z
" id="DejaVuSans-37" transform="scale(0.015625)"/>
       </defs>
       <use xlink:href="#DejaVuSans-32"/>
       <use x="63.623047" xlink:href="#DejaVuSans-30"/>
       <use x="127.246094" xlink:href="#DejaVuSans-32"/>
       <use x="190.869141" xlink:href="#DejaVuSans-30"/>
       <use x="254.492188" xlink:href="#DejaVuSans-2f"/>
       <use x="288.183594" xlink:href="#DejaVuSans-30"/>
       <use x="351.806641" xlink:href="#DejaVuSans-31"/>
       <use x="415.429688" xlink:href="#DejaVuSans-2f"/>
       <use x="449.121094" xlink:href="#DejaVuSans-32"/>
       <use x="512.744141" xlink:href="#DejaVuSans-37"/>
      </g>
     </g>
    </g>
    <g id="xtick_28">
     <g id="line2d_87">
      <path clip-path="url(#pdbc1ee5f09)" d="M 70.428273 456.51158 
L 70.428273 258.838852 
" style="fill:none;stroke:#b0b0b0;stroke-linecap:square;stroke-width:0.3;"/>
     </g>
     <g id="line2d_88">
      <g>
       <use style="stroke:#000000;stroke-width:0.8;" x="70.428273" xlink:href="#mcaf3ec624a" y="456.51158"/>
      </g>
     </g>
     <g id="text_16">
      <!-- 2020/03/02 -->
      <g transform="translate(63.164645 520.271932)rotate(-70)scale(0.1 -0.1)">
       <defs>
        <path d="M 2597 2516 
Q 3050 2419 3304 2112 
Q 3559 1806 3559 1356 
Q 3559 666 3084 287 
Q 2609 -91 1734 -91 
Q 1441 -91 1130 -33 
Q 819 25 488 141 
L 488 750 
Q 750 597 1062 519 
Q 1375 441 1716 441 
Q 2309 441 2620 675 
Q 2931 909 2931 1356 
Q 2931 1769 2642 2001 
Q 2353 2234 1838 2234 
L 1294 2234 
L 1294 2753 
L 1863 2753 
Q 2328 2753 2575 2939 
Q 2822 3125 2822 3475 
Q 2822 3834 2567 4026 
Q 2313 4219 1838 4219 
Q 1578 4219 1281 4162 
Q 984 4106 628 3988 
L 628 4550 
Q 988 4650 1302 4700 
Q 1616 4750 1894 4750 
Q 2613 4750 3031 4423 
Q 3450 4097 3450 3541 
Q 3450 3153 3228 2886 
Q 3006 2619 2597 2516 
z
" id="DejaVuSans-33" transform="scale(0.015625)"/>
       </defs>
       <use xlink:href="#DejaVuSans-32"/>
       <use x="63.623047" xlink:href="#DejaVuSans-30"/>
       <use x="127.246094" xlink:href="#DejaVuSans-32"/>
       <use x="190.869141" xlink:href="#DejaVuSans-30"/>
       <use x="254.492188" xlink:href="#DejaVuSans-2f"/>
       <use x="288.183594" xlink:href="#DejaVuSans-30"/>
       <use x="351.806641" xlink:href="#DejaVuSans-33"/>
       <use x="415.429688" xlink:href="#DejaVuSans-2f"/>
       <use x="449.121094" xlink:href="#DejaVuSans-30"/>
       <use x="512.744141" xlink:href="#DejaVuSans-32"/>
      </g>
     </g>
    </g>
    <g id="xtick_29">
     <g id="line2d_89">
      <path clip-path="url(#pdbc1ee5f09)" d="M 100.668078 456.51158 
L 100.668078 258.838852 
" style="fill:none;stroke:#b0b0b0;stroke-linecap:square;stroke-width:0.3;"/>
     </g>
     <g id="line2d_90">
      <g>
       <use style="stroke:#000000;stroke-width:0.8;" x="100.668078" xlink:href="#mcaf3ec624a" y="456.51158"/>
      </g>
     </g>
     <g id="text_17">
      <!-- 2020/04/06 -->
      <g transform="translate(93.40445 520.271932)rotate(-70)scale(0.1 -0.1)">
       <defs>
        <path d="M 2419 4116 
L 825 1625 
L 2419 1625 
L 2419 4116 
z
M 2253 4666 
L 3047 4666 
L 3047 1625 
L 3713 1625 
L 3713 1100 
L 3047 1100 
L 3047 0 
L 2419 0 
L 2419 1100 
L 313 1100 
L 313 1709 
L 2253 4666 
z
" id="DejaVuSans-34" transform="scale(0.015625)"/>
        <path d="M 2113 2584 
Q 1688 2584 1439 2293 
Q 1191 2003 1191 1497 
Q 1191 994 1439 701 
Q 1688 409 2113 409 
Q 2538 409 2786 701 
Q 3034 994 3034 1497 
Q 3034 2003 2786 2293 
Q 2538 2584 2113 2584 
z
M 3366 4563 
L 3366 3988 
Q 3128 4100 2886 4159 
Q 2644 4219 2406 4219 
Q 1781 4219 1451 3797 
Q 1122 3375 1075 2522 
Q 1259 2794 1537 2939 
Q 1816 3084 2150 3084 
Q 2853 3084 3261 2657 
Q 3669 2231 3669 1497 
Q 3669 778 3244 343 
Q 2819 -91 2113 -91 
Q 1303 -91 875 529 
Q 447 1150 447 2328 
Q 447 3434 972 4092 
Q 1497 4750 2381 4750 
Q 2619 4750 2861 4703 
Q 3103 4656 3366 4563 
z
" id="DejaVuSans-36" transform="scale(0.015625)"/>
       </defs>
       <use xlink:href="#DejaVuSans-32"/>
       <use x="63.623047" xlink:href="#DejaVuSans-30"/>
       <use x="127.246094" xlink:href="#DejaVuSans-32"/>
       <use x="190.869141" xlink:href="#DejaVuSans-30"/>
       <use x="254.492188" xlink:href="#DejaVuSans-2f"/>
       <use x="288.183594" xlink:href="#DejaVuSans-30"/>
       <use x="351.806641" xlink:href="#DejaVuSans-34"/>
       <use x="415.429688" xlink:href="#DejaVuSans-2f"/>
       <use x="449.121094" xlink:href="#DejaVuSans-30"/>
       <use x="512.744141" xlink:href="#DejaVuSans-36"/>
      </g>
     </g>
    </g>
    <g id="xtick_30">
     <g id="line2d_91">
      <path clip-path="url(#pdbc1ee5f09)" d="M 130.907883 456.51158 
L 130.907883 258.838852 
" style="fill:none;stroke:#b0b0b0;stroke-linecap:square;stroke-width:0.3;"/>
     </g>
     <g id="line2d_92">
      <g>
       <use style="stroke:#000000;stroke-width:0.8;" x="130.907883" xlink:href="#mcaf3ec624a" y="456.51158"/>
      </g>
     </g>
     <g id="text_18">
      <!-- 2020/05/11 -->
      <g transform="translate(123.644255 520.271932)rotate(-70)scale(0.1 -0.1)">
       <defs>
        <path d="M 691 4666 
L 3169 4666 
L 3169 4134 
L 1269 4134 
L 1269 2991 
Q 1406 3038 1543 3061 
Q 1681 3084 1819 3084 
Q 2600 3084 3056 2656 
Q 3513 2228 3513 1497 
Q 3513 744 3044 326 
Q 2575 -91 1722 -91 
Q 1428 -91 1123 -41 
Q 819 9 494 109 
L 494 744 
Q 775 591 1075 516 
Q 1375 441 1709 441 
Q 2250 441 2565 725 
Q 2881 1009 2881 1497 
Q 2881 1984 2565 2268 
Q 2250 2553 1709 2553 
Q 1456 2553 1204 2497 
Q 953 2441 691 2322 
L 691 4666 
z
" id="DejaVuSans-35" transform="scale(0.015625)"/>
       </defs>
       <use xlink:href="#DejaVuSans-32"/>
       <use x="63.623047" xlink:href="#DejaVuSans-30"/>
       <use x="127.246094" xlink:href="#DejaVuSans-32"/>
       <use x="190.869141" xlink:href="#DejaVuSans-30"/>
       <use x="254.492188" xlink:href="#DejaVuSans-2f"/>
       <use x="288.183594" xlink:href="#DejaVuSans-30"/>
       <use x="351.806641" xlink:href="#DejaVuSans-35"/>
       <use x="415.429688" xlink:href="#DejaVuSans-2f"/>
       <use x="449.121094" xlink:href="#DejaVuSans-31"/>
       <use x="512.744141" xlink:href="#DejaVuSans-31"/>
      </g>
     </g>
    </g>
    <g id="xtick_31">
     <g id="line2d_93">
      <path clip-path="url(#pdbc1ee5f09)" d="M 161.147688 456.51158 
L 161.147688 258.838852 
" style="fill:none;stroke:#b0b0b0;stroke-linecap:square;stroke-width:0.3;"/>
     </g>
     <g id="line2d_94">
      <g>
       <use style="stroke:#000000;stroke-width:0.8;" x="161.147688" xlink:href="#mcaf3ec624a" y="456.51158"/>
      </g>
     </g>
     <g id="text_19">
      <!-- 2020/06/15 -->
      <g transform="translate(153.884059 520.271932)rotate(-70)scale(0.1 -0.1)">
       <use xlink:href="#DejaVuSans-32"/>
       <use x="63.623047" xlink:href="#DejaVuSans-30"/>
       <use x="127.246094" xlink:href="#DejaVuSans-32"/>
       <use x="190.869141" xlink:href="#DejaVuSans-30"/>
       <use x="254.492188" xlink:href="#DejaVuSans-2f"/>
       <use x="288.183594" xlink:href="#DejaVuSans-30"/>
       <use x="351.806641" xlink:href="#DejaVuSans-36"/>
       <use x="415.429688" xlink:href="#DejaVuSans-2f"/>
       <use x="449.121094" xlink:href="#DejaVuSans-31"/>
       <use x="512.744141" xlink:href="#DejaVuSans-35"/>
      </g>
     </g>
    </g>
    <g id="xtick_32">
     <g id="line2d_95">
      <path clip-path="url(#pdbc1ee5f09)" d="M 191.387493 456.51158 
L 191.387493 258.838852 
" style="fill:none;stroke:#b0b0b0;stroke-linecap:square;stroke-width:0.3;"/>
     </g>
     <g id="line2d_96">
      <g>
       <use style="stroke:#000000;stroke-width:0.8;" x="191.387493" xlink:href="#mcaf3ec624a" y="456.51158"/>
      </g>
     </g>
     <g id="text_20">
      <!-- 2020/07/20 -->
      <g transform="translate(184.123864 520.271932)rotate(-70)scale(0.1 -0.1)">
       <use xlink:href="#DejaVuSans-32"/>
       <use x="63.623047" xlink:href="#DejaVuSans-30"/>
       <use x="127.246094" xlink:href="#DejaVuSans-32"/>
       <use x="190.869141" xlink:href="#DejaVuSans-30"/>
       <use x="254.492188" xlink:href="#DejaVuSans-2f"/>
       <use x="288.183594" xlink:href="#DejaVuSans-30"/>
       <use x="351.806641" xlink:href="#DejaVuSans-37"/>
       <use x="415.429688" xlink:href="#DejaVuSans-2f"/>
       <use x="449.121094" xlink:href="#DejaVuSans-32"/>
       <use x="512.744141" xlink:href="#DejaVuSans-30"/>
      </g>
     </g>
    </g>
    <g id="xtick_33">
     <g id="line2d_97">
      <path clip-path="url(#pdbc1ee5f09)" d="M 221.627298 456.51158 
L 221.627298 258.838852 
" style="fill:none;stroke:#b0b0b0;stroke-linecap:square;stroke-width:0.3;"/>
     </g>
     <g id="line2d_98">
      <g>
       <use style="stroke:#000000;stroke-width:0.8;" x="221.627298" xlink:href="#mcaf3ec624a" y="456.51158"/>
      </g>
     </g>
     <g id="text_21">
      <!-- 2020/08/24 -->
      <g transform="translate(214.363669 520.271932)rotate(-70)scale(0.1 -0.1)">
       <defs>
        <path d="M 2034 2216 
Q 1584 2216 1326 1975 
Q 1069 1734 1069 1313 
Q 1069 891 1326 650 
Q 1584 409 2034 409 
Q 2484 409 2743 651 
Q 3003 894 3003 1313 
Q 3003 1734 2745 1975 
Q 2488 2216 2034 2216 
z
M 1403 2484 
Q 997 2584 770 2862 
Q 544 3141 544 3541 
Q 544 4100 942 4425 
Q 1341 4750 2034 4750 
Q 2731 4750 3128 4425 
Q 3525 4100 3525 3541 
Q 3525 3141 3298 2862 
Q 3072 2584 2669 2484 
Q 3125 2378 3379 2068 
Q 3634 1759 3634 1313 
Q 3634 634 3220 271 
Q 2806 -91 2034 -91 
Q 1263 -91 848 271 
Q 434 634 434 1313 
Q 434 1759 690 2068 
Q 947 2378 1403 2484 
z
M 1172 3481 
Q 1172 3119 1398 2916 
Q 1625 2713 2034 2713 
Q 2441 2713 2670 2916 
Q 2900 3119 2900 3481 
Q 2900 3844 2670 4047 
Q 2441 4250 2034 4250 
Q 1625 4250 1398 4047 
Q 1172 3844 1172 3481 
z
" id="DejaVuSans-38" transform="scale(0.015625)"/>
       </defs>
       <use xlink:href="#DejaVuSans-32"/>
       <use x="63.623047" xlink:href="#DejaVuSans-30"/>
       <use x="127.246094" xlink:href="#DejaVuSans-32"/>
       <use x="190.869141" xlink:href="#DejaVuSans-30"/>
       <use x="254.492188" xlink:href="#DejaVuSans-2f"/>
       <use x="288.183594" xlink:href="#DejaVuSans-30"/>
       <use x="351.806641" xlink:href="#DejaVuSans-38"/>
       <use x="415.429688" xlink:href="#DejaVuSans-2f"/>
       <use x="449.121094" xlink:href="#DejaVuSans-32"/>
       <use x="512.744141" xlink:href="#DejaVuSans-34"/>
      </g>
     </g>
    </g>
    <g id="xtick_34">
     <g id="line2d_99">
      <path clip-path="url(#pdbc1ee5f09)" d="M 251.867103 456.51158 
L 251.867103 258.838852 
" style="fill:none;stroke:#b0b0b0;stroke-linecap:square;stroke-width:0.3;"/>
     </g>
     <g id="line2d_100">
      <g>
       <use style="stroke:#000000;stroke-width:0.8;" x="251.867103" xlink:href="#mcaf3ec624a" y="456.51158"/>
      </g>
     </g>
     <g id="text_22">
      <!-- 2020/09/28 -->
      <g transform="translate(244.603474 520.271932)rotate(-70)scale(0.1 -0.1)">
       <defs>
        <path d="M 703 97 
L 703 672 
Q 941 559 1184 500 
Q 1428 441 1663 441 
Q 2288 441 2617 861 
Q 2947 1281 2994 2138 
Q 2813 1869 2534 1725 
Q 2256 1581 1919 1581 
Q 1219 1581 811 2004 
Q 403 2428 403 3163 
Q 403 3881 828 4315 
Q 1253 4750 1959 4750 
Q 2769 4750 3195 4129 
Q 3622 3509 3622 2328 
Q 3622 1225 3098 567 
Q 2575 -91 1691 -91 
Q 1453 -91 1209 -44 
Q 966 3 703 97 
z
M 1959 2075 
Q 2384 2075 2632 2365 
Q 2881 2656 2881 3163 
Q 2881 3666 2632 3958 
Q 2384 4250 1959 4250 
Q 1534 4250 1286 3958 
Q 1038 3666 1038 3163 
Q 1038 2656 1286 2365 
Q 1534 2075 1959 2075 
z
" id="DejaVuSans-39" transform="scale(0.015625)"/>
       </defs>
       <use xlink:href="#DejaVuSans-32"/>
       <use x="63.623047" xlink:href="#DejaVuSans-30"/>
       <use x="127.246094" xlink:href="#DejaVuSans-32"/>
       <use x="190.869141" xlink:href="#DejaVuSans-30"/>
       <use x="254.492188" xlink:href="#DejaVuSans-2f"/>
       <use x="288.183594" xlink:href="#DejaVuSans-30"/>
       <use x="351.806641" xlink:href="#DejaVuSans-39"/>
       <use x="415.429688" xlink:href="#DejaVuSans-2f"/>
       <use x="449.121094" xlink:href="#DejaVuSans-32"/>
       <use x="512.744141" xlink:href="#DejaVuSans-38"/>
      </g>
     </g>
    </g>
    <g id="xtick_35">
     <g id="line2d_101">
      <path clip-path="url(#pdbc1ee5f09)" d="M 282.106908 456.51158 
L 282.106908 258.838852 
" style="fill:none;stroke:#b0b0b0;stroke-linecap:square;stroke-width:0.3;"/>
     </g>
     <g id="line2d_102">
      <g>
       <use style="stroke:#000000;stroke-width:0.8;" x="282.106908" xlink:href="#mcaf3ec624a" y="456.51158"/>
      </g>
     </g>
     <g id="text_23">
      <!-- 2020/11/02 -->
      <g transform="translate(274.843279 520.271932)rotate(-70)scale(0.1 -0.1)">
       <use xlink:href="#DejaVuSans-32"/>
       <use x="63.623047" xlink:href="#DejaVuSans-30"/>
       <use x="127.246094" xlink:href="#DejaVuSans-32"/>
       <use x="190.869141" xlink:href="#DejaVuSans-30"/>
       <use x="254.492188" xlink:href="#DejaVuSans-2f"/>
       <use x="288.183594" xlink:href="#DejaVuSans-31"/>
       <use x="351.806641" xlink:href="#DejaVuSans-31"/>
       <use x="415.429688" xlink:href="#DejaVuSans-2f"/>
       <use x="449.121094" xlink:href="#DejaVuSans-30"/>
       <use x="512.744141" xlink:href="#DejaVuSans-32"/>
      </g>
     </g>
    </g>
    <g id="xtick_36">
     <g id="line2d_103">
      <path clip-path="url(#pdbc1ee5f09)" d="M 312.346713 456.51158 
L 312.346713 258.838852 
" style="fill:none;stroke:#b0b0b0;stroke-linecap:square;stroke-width:0.3;"/>
     </g>
     <g id="line2d_104">
      <g>
       <use style="stroke:#000000;stroke-width:0.8;" x="312.346713" xlink:href="#mcaf3ec624a" y="456.51158"/>
      </g>
     </g>
     <g id="text_24">
      <!-- 2020/12/07 -->
      <g transform="translate(305.083084 520.271932)rotate(-70)scale(0.1 -0.1)">
       <use xlink:href="#DejaVuSans-32"/>
       <use x="63.623047" xlink:href="#DejaVuSans-30"/>
       <use x="127.246094" xlink:href="#DejaVuSans-32"/>
       <use x="190.869141" xlink:href="#DejaVuSans-30"/>
       <use x="254.492188" xlink:href="#DejaVuSans-2f"/>
       <use x="288.183594" xlink:href="#DejaVuSans-31"/>
       <use x="351.806641" xlink:href="#DejaVuSans-32"/>
       <use x="415.429688" xlink:href="#DejaVuSans-2f"/>
       <use x="449.121094" xlink:href="#DejaVuSans-30"/>
       <use x="512.744141" xlink:href="#DejaVuSans-37"/>
      </g>
     </g>
    </g>
    <g id="xtick_37">
     <g id="line2d_105">
      <path clip-path="url(#pdbc1ee5f09)" d="M 342.586518 456.51158 
L 342.586518 258.838852 
" style="fill:none;stroke:#b0b0b0;stroke-linecap:square;stroke-width:0.3;"/>
     </g>
     <g id="line2d_106">
      <g>
       <use style="stroke:#000000;stroke-width:0.8;" x="342.586518" xlink:href="#mcaf3ec624a" y="456.51158"/>
      </g>
     </g>
     <g id="text_25">
      <!-- 2021/01/11 -->
      <g transform="translate(335.322889 520.271932)rotate(-70)scale(0.1 -0.1)">
       <use xlink:href="#DejaVuSans-32"/>
       <use x="63.623047" xlink:href="#DejaVuSans-30"/>
       <use x="127.246094" xlink:href="#DejaVuSans-32"/>
       <use x="190.869141" xlink:href="#DejaVuSans-31"/>
       <use x="254.492188" xlink:href="#DejaVuSans-2f"/>
       <use x="288.183594" xlink:href="#DejaVuSans-30"/>
       <use x="351.806641" xlink:href="#DejaVuSans-31"/>
       <use x="415.429688" xlink:href="#DejaVuSans-2f"/>
       <use x="449.121094" xlink:href="#DejaVuSans-31"/>
       <use x="512.744141" xlink:href="#DejaVuSans-31"/>
      </g>
     </g>
    </g>
    <g id="xtick_38">
     <g id="line2d_107">
      <path clip-path="url(#pdbc1ee5f09)" d="M 372.826322 456.51158 
L 372.826322 258.838852 
" style="fill:none;stroke:#b0b0b0;stroke-linecap:square;stroke-width:0.3;"/>
     </g>
     <g id="line2d_108">
      <g>
       <use style="stroke:#000000;stroke-width:0.8;" x="372.826322" xlink:href="#mcaf3ec624a" y="456.51158"/>
      </g>
     </g>
     <g id="text_26">
      <!-- 2021/02/15 -->
      <g transform="translate(365.562694 520.271932)rotate(-70)scale(0.1 -0.1)">
       <use xlink:href="#DejaVuSans-32"/>
       <use x="63.623047" xlink:href="#DejaVuSans-30"/>
       <use x="127.246094" xlink:href="#DejaVuSans-32"/>
       <use x="190.869141" xlink:href="#DejaVuSans-31"/>
       <use x="254.492188" xlink:href="#DejaVuSans-2f"/>
       <use x="288.183594" xlink:href="#DejaVuSans-30"/>
       <use x="351.806641" xlink:href="#DejaVuSans-32"/>
       <use x="415.429688" xlink:href="#DejaVuSans-2f"/>
       <use x="449.121094" xlink:href="#DejaVuSans-31"/>
       <use x="512.744141" xlink:href="#DejaVuSans-35"/>
      </g>
     </g>
    </g>
    <g id="xtick_39">
     <g id="line2d_109">
      <path clip-path="url(#pdbc1ee5f09)" d="M 403.066127 456.51158 
L 403.066127 258.838852 
" style="fill:none;stroke:#b0b0b0;stroke-linecap:square;stroke-width:0.3;"/>
     </g>
     <g id="line2d_110">
      <g>
       <use style="stroke:#000000;stroke-width:0.8;" x="403.066127" xlink:href="#mcaf3ec624a" y="456.51158"/>
      </g>
     </g>
     <g id="text_27">
      <!-- 2021/03/22 -->
      <g transform="translate(395.802499 520.271932)rotate(-70)scale(0.1 -0.1)">
       <use xlink:href="#DejaVuSans-32"/>
       <use x="63.623047" xlink:href="#DejaVuSans-30"/>
       <use x="127.246094" xlink:href="#DejaVuSans-32"/>
       <use x="190.869141" xlink:href="#DejaVuSans-31"/>
       <use x="254.492188" xlink:href="#DejaVuSans-2f"/>
       <use x="288.183594" xlink:href="#DejaVuSans-30"/>
       <use x="351.806641" xlink:href="#DejaVuSans-33"/>
       <use x="415.429688" xlink:href="#DejaVuSans-2f"/>
       <use x="449.121094" xlink:href="#DejaVuSans-32"/>
       <use x="512.744141" xlink:href="#DejaVuSans-32"/>
      </g>
     </g>
    </g>
   </g>
   <g id="matplotlib.axis_6">
    <g id="ytick_11">
     <g id="line2d_111">
      <path clip-path="url(#pdbc1ee5f09)" d="M 21.742188 424.962679 
L 427.560369 424.962679 
" style="fill:none;stroke:#b0b0b0;stroke-linecap:square;stroke-width:0.3;"/>
     </g>
     <g id="line2d_112">
      <g>
       <use style="stroke:#000000;stroke-width:0.8;" x="21.742188" xlink:href="#m853319c41f" y="424.962679"/>
      </g>
     </g>
     <g id="text_28">
      <!-- −2 -->
      <g transform="translate(0 428.761898)scale(0.1 -0.1)">
       <use xlink:href="#DejaVuSans-2212"/>
       <use x="83.789062" xlink:href="#DejaVuSans-32"/>
      </g>
     </g>
    </g>
    <g id="ytick_12">
     <g id="line2d_113">
      <path clip-path="url(#pdbc1ee5f09)" d="M 21.742188 387.486604 
L 427.560369 387.486604 
" style="fill:none;stroke:#b0b0b0;stroke-linecap:square;stroke-width:0.3;"/>
     </g>
     <g id="line2d_114">
      <g>
       <use style="stroke:#000000;stroke-width:0.8;" x="21.742188" xlink:href="#m853319c41f" y="387.486604"/>
      </g>
     </g>
     <g id="text_29">
      <!-- −1 -->
      <g transform="translate(0 391.285823)scale(0.1 -0.1)">
       <use xlink:href="#DejaVuSans-2212"/>
       <use x="83.789062" xlink:href="#DejaVuSans-31"/>
      </g>
     </g>
    </g>
    <g id="ytick_13">
     <g id="line2d_115">
      <path clip-path="url(#pdbc1ee5f09)" d="M 21.742188 350.010529 
L 427.560369 350.010529 
" style="fill:none;stroke:#b0b0b0;stroke-linecap:square;stroke-width:0.3;"/>
     </g>
     <g id="line2d_116">
      <g>
       <use style="stroke:#000000;stroke-width:0.8;" x="21.742188" xlink:href="#m853319c41f" y="350.010529"/>
      </g>
     </g>
     <g id="text_30">
      <!-- 0 -->
      <g transform="translate(8.379688 353.809748)scale(0.1 -0.1)">
       <use xlink:href="#DejaVuSans-30"/>
      </g>
     </g>
    </g>
    <g id="ytick_14">
     <g id="line2d_117">
      <path clip-path="url(#pdbc1ee5f09)" d="M 21.742188 312.534454 
L 427.560369 312.534454 
" style="fill:none;stroke:#b0b0b0;stroke-linecap:square;stroke-width:0.3;"/>
     </g>
     <g id="line2d_118">
      <g>
       <use style="stroke:#000000;stroke-width:0.8;" x="21.742188" xlink:href="#m853319c41f" y="312.534454"/>
      </g>
     </g>
     <g id="text_31">
      <!-- 1 -->
      <g transform="translate(8.379688 316.333673)scale(0.1 -0.1)">
       <use xlink:href="#DejaVuSans-31"/>
      </g>
     </g>
    </g>
    <g id="ytick_15">
     <g id="line2d_119">
      <path clip-path="url(#pdbc1ee5f09)" d="M 21.742188 275.05838 
L 427.560369 275.05838 
" style="fill:none;stroke:#b0b0b0;stroke-linecap:square;stroke-width:0.3;"/>
     </g>
     <g id="line2d_120">
      <g>
       <use style="stroke:#000000;stroke-width:0.8;" x="21.742188" xlink:href="#m853319c41f" y="275.05838"/>
      </g>
     </g>
     <g id="text_32">
      <!-- 2 -->
      <g transform="translate(8.379688 278.857598)scale(0.1 -0.1)">
       <use xlink:href="#DejaVuSans-32"/>
      </g>
     </g>
    </g>
   </g>
   <g id="line2d_121">
    <path clip-path="url(#pdbc1ee5f09)" d="M 40.188468 433.217653 
L 46.236429 415.171125 
L 52.28439 421.385957 
L 58.332351 370.294588 
L 64.380312 369.758469 
L 70.428273 368.378538 
L 76.476234 417.303519 
L 82.524195 447.526456 
L 88.572156 423.60889 
L 94.620117 404.486425 
L 100.668078 387.633172 
L 106.716039 370.311545 
L 112.764 379.161951 
L 118.811961 354.39451 
L 124.859922 385.241438 
L 130.907883 382.744566 
L 136.955844 378.095361 
L 143.003805 379.950451 
L 149.051766 374.801518 
L 155.099727 360.039301 
L 161.147688 352.170254 
L 167.195649 372.836715 
L 173.24361 373.410958 
L 179.291571 374.49133 
L 185.339532 364.612418 
L 191.387493 368.043331 
L 197.435454 330.48137 
L 203.483415 342.710534 
L 209.531376 338.65114 
L 215.579337 325.689703 
L 221.627298 330.682444 
L 227.675259 352.733088 
L 233.72322 352.710208 
L 239.771181 345.937464 
L 245.819142 357.744979 
L 251.867103 347.869118 
L 257.915064 321.439117 
L 263.963025 306.141242 
L 270.010986 289.503601 
L 276.058947 308.080358 
L 282.106908 309.962821 
L 288.154869 299.09278 
L 294.20283 318.979563 
L 300.250791 323.586755 
L 306.298752 335.263441 
L 312.346713 349.995222 
L 318.394674 330.892663 
L 324.442635 321.067585 
L 330.490596 299.764905 
L 336.538557 331.662835 
L 342.586518 327.559504 
L 348.634479 342.448412 
L 354.682439 351.203791 
L 360.7304 329.086696 
L 366.778361 322.212499 
L 372.826322 292.515751 
L 378.874283 310.419827 
L 384.922244 309.90884 
L 390.970205 280.00715 
L 397.018166 302.218982 
L 403.066127 311.881591 
L 409.114088 321.476394 
" style="fill:none;stroke:#ff0000;stroke-linecap:square;stroke-width:1.5;"/>
   </g>
   <g id="line2d_122">
    <path clip-path="url(#pdbc1ee5f09)" d="M 40.188468 416.733419 
L 46.236429 391.698322 
L 52.28439 396.762713 
L 58.332351 367.247762 
L 64.380312 365.793719 
L 70.428273 382.46826 
L 76.476234 388.428047 
L 82.524195 415.197538 
L 88.572156 413.825582 
L 94.620117 413.014299 
L 100.668078 388.73482 
L 106.716039 401.315276 
L 112.764 404.069555 
L 118.811961 399.957888 
L 124.859922 400.957545 
L 130.907883 398.354648 
L 136.955844 395.369159 
L 143.003805 389.333025 
L 149.051766 375.772306 
L 155.099727 365.883224 
L 161.147688 370.611823 
L 167.195649 371.085682 
L 173.24361 370.250543 
L 179.291571 358.391937 
L 185.339532 368.164583 
L 191.387493 350.567688 
L 197.435454 331.179682 
L 203.483415 332.073246 
L 209.531376 341.041597 
L 215.579337 326.872357 
L 221.627298 323.180856 
L 227.675259 338.842697 
L 233.72322 356.060646 
L 239.771181 353.236315 
L 245.819142 347.924928 
L 251.867103 337.913922 
L 257.915064 310.301641 
L 263.963025 300.271477 
L 270.010986 283.763388 
L 276.058947 296.333254 
L 282.106908 267.823976 
L 288.154869 281.242467 
L 294.20283 306.408663 
L 300.250791 313.564467 
L 306.298752 305.524031 
L 312.346713 333.273062 
L 318.394674 319.908122 
L 324.442635 317.28145 
L 330.490596 321.675797 
L 336.538557 335.139139 
L 342.586518 352.015689 
L 348.634479 339.731947 
L 354.682439 346.712147 
L 360.7304 344.447527 
L 366.778361 337.947144 
L 372.826322 311.37014 
L 378.874283 318.455961 
L 384.922244 318.572975 
L 390.970205 289.915471 
L 397.018166 319.363077 
L 403.066127 324.434332 
L 409.114088 356.859857 
" style="fill:none;stroke:#0000ff;stroke-dasharray:5.55,2.4;stroke-dashoffset:0;stroke-width:1.5;"/>
   </g>
   <g id="patch_15">
    <path d="M 21.742188 456.51158 
L 21.742188 258.838852 
" style="fill:none;stroke:#000000;stroke-linecap:square;stroke-linejoin:miter;stroke-width:0.8;"/>
   </g>
   <g id="patch_16">
    <path d="M 427.560369 456.51158 
L 427.560369 258.838852 
" style="fill:none;stroke:#000000;stroke-linecap:square;stroke-linejoin:miter;stroke-width:0.8;"/>
   </g>
   <g id="patch_17">
    <path d="M 21.742188 456.51158 
L 427.560369 456.51158 
" style="fill:none;stroke:#000000;stroke-linecap:square;stroke-linejoin:miter;stroke-width:0.8;"/>
   </g>
   <g id="patch_18">
    <path d="M 21.742188 258.838852 
L 427.560369 258.838852 
" style="fill:none;stroke:#000000;stroke-linecap:square;stroke-linejoin:miter;stroke-width:0.8;"/>
   </g>
   <g id="legend_3">
    <g id="patch_19">
     <path d="M 23.742188 254.885398 
L 425.560369 254.885398 
Q 427.560369 254.885398 427.560369 252.885398 
L 427.560369 238.929148 
Q 427.560369 236.929148 425.560369 236.929148 
L 23.742188 236.929148 
Q 21.742188 236.929148 21.742188 238.929148 
L 21.742188 252.885398 
Q 21.742188 254.885398 23.742188 254.885398 
z
" style="fill:#ffffff;opacity:0.8;stroke:#cccccc;stroke-linejoin:miter;"/>
    </g>
    <g id="line2d_123">
     <path d="M 25.742188 245.027585 
L 45.742188 245.027585 
" style="fill:none;stroke:#ff0000;stroke-linecap:square;stroke-width:1.5;"/>
    </g>
    <g id="line2d_124"/>
    <g id="text_33">
     <!-- positive (Emolex) -->
     <g transform="translate(53.742188 248.527585)scale(0.1 -0.1)">
      <defs>
       <path d="M 1159 525 
L 1159 -1331 
L 581 -1331 
L 581 3500 
L 1159 3500 
L 1159 2969 
Q 1341 3281 1617 3432 
Q 1894 3584 2278 3584 
Q 2916 3584 3314 3078 
Q 3713 2572 3713 1747 
Q 3713 922 3314 415 
Q 2916 -91 2278 -91 
Q 1894 -91 1617 61 
Q 1341 213 1159 525 
z
M 3116 1747 
Q 3116 2381 2855 2742 
Q 2594 3103 2138 3103 
Q 1681 3103 1420 2742 
Q 1159 2381 1159 1747 
Q 1159 1113 1420 752 
Q 1681 391 2138 391 
Q 2594 391 2855 752 
Q 3116 1113 3116 1747 
z
" id="DejaVuSans-70" transform="scale(0.015625)"/>
       <path d="M 191 3500 
L 800 3500 
L 1894 563 
L 2988 3500 
L 3597 3500 
L 2284 0 
L 1503 0 
L 191 3500 
z
" id="DejaVuSans-76" transform="scale(0.015625)"/>
      </defs>
      <use xlink:href="#DejaVuSans-70"/>
      <use x="63.476562" xlink:href="#DejaVuSans-6f"/>
      <use x="124.658203" xlink:href="#DejaVuSans-73"/>
      <use x="176.757812" xlink:href="#DejaVuSans-69"/>
      <use x="204.541016" xlink:href="#DejaVuSans-74"/>
      <use x="243.75" xlink:href="#DejaVuSans-69"/>
      <use x="271.533203" xlink:href="#DejaVuSans-76"/>
      <use x="330.712891" xlink:href="#DejaVuSans-65"/>
      <use x="392.236328" xlink:href="#DejaVuSans-20"/>
      <use x="424.023438" xlink:href="#DejaVuSans-28"/>
      <use x="463.037109" xlink:href="#DejaVuSans-45"/>
      <use x="526.220703" xlink:href="#DejaVuSans-6d"/>
      <use x="623.632812" xlink:href="#DejaVuSans-6f"/>
      <use x="684.814453" xlink:href="#DejaVuSans-6c"/>
      <use x="712.597656" xlink:href="#DejaVuSans-65"/>
      <use x="772.371094" xlink:href="#DejaVuSans-78"/>
      <use x="831.550781" xlink:href="#DejaVuSans-29"/>
     </g>
    </g>
    <g id="line2d_125">
     <path d="M 315.013494 245.027585 
L 335.013494 245.027585 
" style="fill:none;stroke:#0000ff;stroke-dasharray:5.55,2.4;stroke-dashoffset:0;stroke-width:1.5;"/>
    </g>
    <g id="line2d_126"/>
    <g id="text_34">
     <!-- Emo_Pos (LIWC) -->
     <g transform="translate(343.013494 248.527585)scale(0.1 -0.1)">
      <defs>
       <path d="M 3263 -1063 
L 3263 -1509 
L -63 -1509 
L -63 -1063 
L 3263 -1063 
z
" id="DejaVuSans-5f" transform="scale(0.015625)"/>
       <path d="M 1259 4147 
L 1259 2394 
L 2053 2394 
Q 2494 2394 2734 2622 
Q 2975 2850 2975 3272 
Q 2975 3691 2734 3919 
Q 2494 4147 2053 4147 
L 1259 4147 
z
M 628 4666 
L 2053 4666 
Q 2838 4666 3239 4311 
Q 3641 3956 3641 3272 
Q 3641 2581 3239 2228 
Q 2838 1875 2053 1875 
L 1259 1875 
L 1259 0 
L 628 0 
L 628 4666 
z
" id="DejaVuSans-50" transform="scale(0.015625)"/>
      </defs>
      <use xlink:href="#DejaVuSans-45"/>
      <use x="63.183594" xlink:href="#DejaVuSans-6d"/>
      <use x="160.595703" xlink:href="#DejaVuSans-6f"/>
      <use x="221.777344" xlink:href="#DejaVuSans-5f"/>
      <use x="271.777344" xlink:href="#DejaVuSans-50"/>
      <use x="328.455078" xlink:href="#DejaVuSans-6f"/>
      <use x="389.636719" xlink:href="#DejaVuSans-73"/>
      <use x="441.736328" xlink:href="#DejaVuSans-20"/>
      <use x="473.523438" xlink:href="#DejaVuSans-28"/>
      <use x="512.537109" xlink:href="#DejaVuSans-4c"/>
      <use x="568.25" xlink:href="#DejaVuSans-49"/>
      <use x="597.742188" xlink:href="#DejaVuSans-57"/>
      <use x="696.619141" xlink:href="#DejaVuSans-43"/>
      <use x="766.443359" xlink:href="#DejaVuSans-29"/>
     </g>
    </g>
   </g>
  </g>
  <g id="axes_4">
   <g id="patch_20">
    <path d="M 508.724006 456.51158 
L 914.542187 456.51158 
L 914.542187 258.838852 
L 508.724006 258.838852 
z
" style="fill:#ffffff;"/>
   </g>
   <g id="matplotlib.axis_7">
    <g id="xtick_40">
     <g id="line2d_127">
      <path clip-path="url(#p76b0b19d99)" d="M 527.170287 456.51158 
L 527.170287 258.838852 
" style="fill:none;stroke:#b0b0b0;stroke-linecap:square;stroke-width:0.3;"/>
     </g>
     <g id="line2d_128">
      <g>
       <use style="stroke:#000000;stroke-width:0.8;" x="527.170287" xlink:href="#mcaf3ec624a" y="456.51158"/>
      </g>
     </g>
     <g id="text_35">
      <!-- 2020/01/27 -->
      <g transform="translate(519.906658 520.271932)rotate(-70)scale(0.1 -0.1)">
       <use xlink:href="#DejaVuSans-32"/>
       <use x="63.623047" xlink:href="#DejaVuSans-30"/>
       <use x="127.246094" xlink:href="#DejaVuSans-32"/>
       <use x="190.869141" xlink:href="#DejaVuSans-30"/>
       <use x="254.492188" xlink:href="#DejaVuSans-2f"/>
       <use x="288.183594" xlink:href="#DejaVuSans-30"/>
       <use x="351.806641" xlink:href="#DejaVuSans-31"/>
       <use x="415.429688" xlink:href="#DejaVuSans-2f"/>
       <use x="449.121094" xlink:href="#DejaVuSans-32"/>
       <use x="512.744141" xlink:href="#DejaVuSans-37"/>
      </g>
     </g>
    </g>
    <g id="xtick_41">
     <g id="line2d_129">
      <path clip-path="url(#p76b0b19d99)" d="M 557.410092 456.51158 
L 557.410092 258.838852 
" style="fill:none;stroke:#b0b0b0;stroke-linecap:square;stroke-width:0.3;"/>
     </g>
     <g id="line2d_130">
      <g>
       <use style="stroke:#000000;stroke-width:0.8;" x="557.410092" xlink:href="#mcaf3ec624a" y="456.51158"/>
      </g>
     </g>
     <g id="text_36">
      <!-- 2020/03/02 -->
      <g transform="translate(550.146463 520.271932)rotate(-70)scale(0.1 -0.1)">
       <use xlink:href="#DejaVuSans-32"/>
       <use x="63.623047" xlink:href="#DejaVuSans-30"/>
       <use x="127.246094" xlink:href="#DejaVuSans-32"/>
       <use x="190.869141" xlink:href="#DejaVuSans-30"/>
       <use x="254.492188" xlink:href="#DejaVuSans-2f"/>
       <use x="288.183594" xlink:href="#DejaVuSans-30"/>
       <use x="351.806641" xlink:href="#DejaVuSans-33"/>
       <use x="415.429688" xlink:href="#DejaVuSans-2f"/>
       <use x="449.121094" xlink:href="#DejaVuSans-30"/>
       <use x="512.744141" xlink:href="#DejaVuSans-32"/>
      </g>
     </g>
    </g>
    <g id="xtick_42">
     <g id="line2d_131">
      <path clip-path="url(#p76b0b19d99)" d="M 587.649896 456.51158 
L 587.649896 258.838852 
" style="fill:none;stroke:#b0b0b0;stroke-linecap:square;stroke-width:0.3;"/>
     </g>
     <g id="line2d_132">
      <g>
       <use style="stroke:#000000;stroke-width:0.8;" x="587.649896" xlink:href="#mcaf3ec624a" y="456.51158"/>
      </g>
     </g>
     <g id="text_37">
      <!-- 2020/04/06 -->
      <g transform="translate(580.386268 520.271932)rotate(-70)scale(0.1 -0.1)">
       <use xlink:href="#DejaVuSans-32"/>
       <use x="63.623047" xlink:href="#DejaVuSans-30"/>
       <use x="127.246094" xlink:href="#DejaVuSans-32"/>
       <use x="190.869141" xlink:href="#DejaVuSans-30"/>
       <use x="254.492188" xlink:href="#DejaVuSans-2f"/>
       <use x="288.183594" xlink:href="#DejaVuSans-30"/>
       <use x="351.806641" xlink:href="#DejaVuSans-34"/>
       <use x="415.429688" xlink:href="#DejaVuSans-2f"/>
       <use x="449.121094" xlink:href="#DejaVuSans-30"/>
       <use x="512.744141" xlink:href="#DejaVuSans-36"/>
      </g>
     </g>
    </g>
    <g id="xtick_43">
     <g id="line2d_133">
      <path clip-path="url(#p76b0b19d99)" d="M 617.889701 456.51158 
L 617.889701 258.838852 
" style="fill:none;stroke:#b0b0b0;stroke-linecap:square;stroke-width:0.3;"/>
     </g>
     <g id="line2d_134">
      <g>
       <use style="stroke:#000000;stroke-width:0.8;" x="617.889701" xlink:href="#mcaf3ec624a" y="456.51158"/>
      </g>
     </g>
     <g id="text_38">
      <!-- 2020/05/11 -->
      <g transform="translate(610.626073 520.271932)rotate(-70)scale(0.1 -0.1)">
       <use xlink:href="#DejaVuSans-32"/>
       <use x="63.623047" xlink:href="#DejaVuSans-30"/>
       <use x="127.246094" xlink:href="#DejaVuSans-32"/>
       <use x="190.869141" xlink:href="#DejaVuSans-30"/>
       <use x="254.492188" xlink:href="#DejaVuSans-2f"/>
       <use x="288.183594" xlink:href="#DejaVuSans-30"/>
       <use x="351.806641" xlink:href="#DejaVuSans-35"/>
       <use x="415.429688" xlink:href="#DejaVuSans-2f"/>
       <use x="449.121094" xlink:href="#DejaVuSans-31"/>
       <use x="512.744141" xlink:href="#DejaVuSans-31"/>
      </g>
     </g>
    </g>
    <g id="xtick_44">
     <g id="line2d_135">
      <path clip-path="url(#p76b0b19d99)" d="M 648.129506 456.51158 
L 648.129506 258.838852 
" style="fill:none;stroke:#b0b0b0;stroke-linecap:square;stroke-width:0.3;"/>
     </g>
     <g id="line2d_136">
      <g>
       <use style="stroke:#000000;stroke-width:0.8;" x="648.129506" xlink:href="#mcaf3ec624a" y="456.51158"/>
      </g>
     </g>
     <g id="text_39">
      <!-- 2020/06/15 -->
      <g transform="translate(640.865878 520.271932)rotate(-70)scale(0.1 -0.1)">
       <use xlink:href="#DejaVuSans-32"/>
       <use x="63.623047" xlink:href="#DejaVuSans-30"/>
       <use x="127.246094" xlink:href="#DejaVuSans-32"/>
       <use x="190.869141" xlink:href="#DejaVuSans-30"/>
       <use x="254.492188" xlink:href="#DejaVuSans-2f"/>
       <use x="288.183594" xlink:href="#DejaVuSans-30"/>
       <use x="351.806641" xlink:href="#DejaVuSans-36"/>
       <use x="415.429688" xlink:href="#DejaVuSans-2f"/>
       <use x="449.121094" xlink:href="#DejaVuSans-31"/>
       <use x="512.744141" xlink:href="#DejaVuSans-35"/>
      </g>
     </g>
    </g>
    <g id="xtick_45">
     <g id="line2d_137">
      <path clip-path="url(#p76b0b19d99)" d="M 678.369311 456.51158 
L 678.369311 258.838852 
" style="fill:none;stroke:#b0b0b0;stroke-linecap:square;stroke-width:0.3;"/>
     </g>
     <g id="line2d_138">
      <g>
       <use style="stroke:#000000;stroke-width:0.8;" x="678.369311" xlink:href="#mcaf3ec624a" y="456.51158"/>
      </g>
     </g>
     <g id="text_40">
      <!-- 2020/07/20 -->
      <g transform="translate(671.105683 520.271932)rotate(-70)scale(0.1 -0.1)">
       <use xlink:href="#DejaVuSans-32"/>
       <use x="63.623047" xlink:href="#DejaVuSans-30"/>
       <use x="127.246094" xlink:href="#DejaVuSans-32"/>
       <use x="190.869141" xlink:href="#DejaVuSans-30"/>
       <use x="254.492188" xlink:href="#DejaVuSans-2f"/>
       <use x="288.183594" xlink:href="#DejaVuSans-30"/>
       <use x="351.806641" xlink:href="#DejaVuSans-37"/>
       <use x="415.429688" xlink:href="#DejaVuSans-2f"/>
       <use x="449.121094" xlink:href="#DejaVuSans-32"/>
       <use x="512.744141" xlink:href="#DejaVuSans-30"/>
      </g>
     </g>
    </g>
    <g id="xtick_46">
     <g id="line2d_139">
      <path clip-path="url(#p76b0b19d99)" d="M 708.609116 456.51158 
L 708.609116 258.838852 
" style="fill:none;stroke:#b0b0b0;stroke-linecap:square;stroke-width:0.3;"/>
     </g>
     <g id="line2d_140">
      <g>
       <use style="stroke:#000000;stroke-width:0.8;" x="708.609116" xlink:href="#mcaf3ec624a" y="456.51158"/>
      </g>
     </g>
     <g id="text_41">
      <!-- 2020/08/24 -->
      <g transform="translate(701.345487 520.271932)rotate(-70)scale(0.1 -0.1)">
       <use xlink:href="#DejaVuSans-32"/>
       <use x="63.623047" xlink:href="#DejaVuSans-30"/>
       <use x="127.246094" xlink:href="#DejaVuSans-32"/>
       <use x="190.869141" xlink:href="#DejaVuSans-30"/>
       <use x="254.492188" xlink:href="#DejaVuSans-2f"/>
       <use x="288.183594" xlink:href="#DejaVuSans-30"/>
       <use x="351.806641" xlink:href="#DejaVuSans-38"/>
       <use x="415.429688" xlink:href="#DejaVuSans-2f"/>
       <use x="449.121094" xlink:href="#DejaVuSans-32"/>
       <use x="512.744141" xlink:href="#DejaVuSans-34"/>
      </g>
     </g>
    </g>
    <g id="xtick_47">
     <g id="line2d_141">
      <path clip-path="url(#p76b0b19d99)" d="M 738.848921 456.51158 
L 738.848921 258.838852 
" style="fill:none;stroke:#b0b0b0;stroke-linecap:square;stroke-width:0.3;"/>
     </g>
     <g id="line2d_142">
      <g>
       <use style="stroke:#000000;stroke-width:0.8;" x="738.848921" xlink:href="#mcaf3ec624a" y="456.51158"/>
      </g>
     </g>
     <g id="text_42">
      <!-- 2020/09/28 -->
      <g transform="translate(731.585292 520.271932)rotate(-70)scale(0.1 -0.1)">
       <use xlink:href="#DejaVuSans-32"/>
       <use x="63.623047" xlink:href="#DejaVuSans-30"/>
       <use x="127.246094" xlink:href="#DejaVuSans-32"/>
       <use x="190.869141" xlink:href="#DejaVuSans-30"/>
       <use x="254.492188" xlink:href="#DejaVuSans-2f"/>
       <use x="288.183594" xlink:href="#DejaVuSans-30"/>
       <use x="351.806641" xlink:href="#DejaVuSans-39"/>
       <use x="415.429688" xlink:href="#DejaVuSans-2f"/>
       <use x="449.121094" xlink:href="#DejaVuSans-32"/>
       <use x="512.744141" xlink:href="#DejaVuSans-38"/>
      </g>
     </g>
    </g>
    <g id="xtick_48">
     <g id="line2d_143">
      <path clip-path="url(#p76b0b19d99)" d="M 769.088726 456.51158 
L 769.088726 258.838852 
" style="fill:none;stroke:#b0b0b0;stroke-linecap:square;stroke-width:0.3;"/>
     </g>
     <g id="line2d_144">
      <g>
       <use style="stroke:#000000;stroke-width:0.8;" x="769.088726" xlink:href="#mcaf3ec624a" y="456.51158"/>
      </g>
     </g>
     <g id="text_43">
      <!-- 2020/11/02 -->
      <g transform="translate(761.825097 520.271932)rotate(-70)scale(0.1 -0.1)">
       <use xlink:href="#DejaVuSans-32"/>
       <use x="63.623047" xlink:href="#DejaVuSans-30"/>
       <use x="127.246094" xlink:href="#DejaVuSans-32"/>
       <use x="190.869141" xlink:href="#DejaVuSans-30"/>
       <use x="254.492188" xlink:href="#DejaVuSans-2f"/>
       <use x="288.183594" xlink:href="#DejaVuSans-31"/>
       <use x="351.806641" xlink:href="#DejaVuSans-31"/>
       <use x="415.429688" xlink:href="#DejaVuSans-2f"/>
       <use x="449.121094" xlink:href="#DejaVuSans-30"/>
       <use x="512.744141" xlink:href="#DejaVuSans-32"/>
      </g>
     </g>
    </g>
    <g id="xtick_49">
     <g id="line2d_145">
      <path clip-path="url(#p76b0b19d99)" d="M 799.328531 456.51158 
L 799.328531 258.838852 
" style="fill:none;stroke:#b0b0b0;stroke-linecap:square;stroke-width:0.3;"/>
     </g>
     <g id="line2d_146">
      <g>
       <use style="stroke:#000000;stroke-width:0.8;" x="799.328531" xlink:href="#mcaf3ec624a" y="456.51158"/>
      </g>
     </g>
     <g id="text_44">
      <!-- 2020/12/07 -->
      <g transform="translate(792.064902 520.271932)rotate(-70)scale(0.1 -0.1)">
       <use xlink:href="#DejaVuSans-32"/>
       <use x="63.623047" xlink:href="#DejaVuSans-30"/>
       <use x="127.246094" xlink:href="#DejaVuSans-32"/>
       <use x="190.869141" xlink:href="#DejaVuSans-30"/>
       <use x="254.492188" xlink:href="#DejaVuSans-2f"/>
       <use x="288.183594" xlink:href="#DejaVuSans-31"/>
       <use x="351.806641" xlink:href="#DejaVuSans-32"/>
       <use x="415.429688" xlink:href="#DejaVuSans-2f"/>
       <use x="449.121094" xlink:href="#DejaVuSans-30"/>
       <use x="512.744141" xlink:href="#DejaVuSans-37"/>
      </g>
     </g>
    </g>
    <g id="xtick_50">
     <g id="line2d_147">
      <path clip-path="url(#p76b0b19d99)" d="M 829.568336 456.51158 
L 829.568336 258.838852 
" style="fill:none;stroke:#b0b0b0;stroke-linecap:square;stroke-width:0.3;"/>
     </g>
     <g id="line2d_148">
      <g>
       <use style="stroke:#000000;stroke-width:0.8;" x="829.568336" xlink:href="#mcaf3ec624a" y="456.51158"/>
      </g>
     </g>
     <g id="text_45">
      <!-- 2021/01/11 -->
      <g transform="translate(822.304707 520.271932)rotate(-70)scale(0.1 -0.1)">
       <use xlink:href="#DejaVuSans-32"/>
       <use x="63.623047" xlink:href="#DejaVuSans-30"/>
       <use x="127.246094" xlink:href="#DejaVuSans-32"/>
       <use x="190.869141" xlink:href="#DejaVuSans-31"/>
       <use x="254.492188" xlink:href="#DejaVuSans-2f"/>
       <use x="288.183594" xlink:href="#DejaVuSans-30"/>
       <use x="351.806641" xlink:href="#DejaVuSans-31"/>
       <use x="415.429688" xlink:href="#DejaVuSans-2f"/>
       <use x="449.121094" xlink:href="#DejaVuSans-31"/>
       <use x="512.744141" xlink:href="#DejaVuSans-31"/>
      </g>
     </g>
    </g>
    <g id="xtick_51">
     <g id="line2d_149">
      <path clip-path="url(#p76b0b19d99)" d="M 859.808141 456.51158 
L 859.808141 258.838852 
" style="fill:none;stroke:#b0b0b0;stroke-linecap:square;stroke-width:0.3;"/>
     </g>
     <g id="line2d_150">
      <g>
       <use style="stroke:#000000;stroke-width:0.8;" x="859.808141" xlink:href="#mcaf3ec624a" y="456.51158"/>
      </g>
     </g>
     <g id="text_46">
      <!-- 2021/02/15 -->
      <g transform="translate(852.544512 520.271932)rotate(-70)scale(0.1 -0.1)">
       <use xlink:href="#DejaVuSans-32"/>
       <use x="63.623047" xlink:href="#DejaVuSans-30"/>
       <use x="127.246094" xlink:href="#DejaVuSans-32"/>
       <use x="190.869141" xlink:href="#DejaVuSans-31"/>
       <use x="254.492188" xlink:href="#DejaVuSans-2f"/>
       <use x="288.183594" xlink:href="#DejaVuSans-30"/>
       <use x="351.806641" xlink:href="#DejaVuSans-32"/>
       <use x="415.429688" xlink:href="#DejaVuSans-2f"/>
       <use x="449.121094" xlink:href="#DejaVuSans-31"/>
       <use x="512.744141" xlink:href="#DejaVuSans-35"/>
      </g>
     </g>
    </g>
    <g id="xtick_52">
     <g id="line2d_151">
      <path clip-path="url(#p76b0b19d99)" d="M 890.047946 456.51158 
L 890.047946 258.838852 
" style="fill:none;stroke:#b0b0b0;stroke-linecap:square;stroke-width:0.3;"/>
     </g>
     <g id="line2d_152">
      <g>
       <use style="stroke:#000000;stroke-width:0.8;" x="890.047946" xlink:href="#mcaf3ec624a" y="456.51158"/>
      </g>
     </g>
     <g id="text_47">
      <!-- 2021/03/22 -->
      <g transform="translate(882.784317 520.271932)rotate(-70)scale(0.1 -0.1)">
       <use xlink:href="#DejaVuSans-32"/>
       <use x="63.623047" xlink:href="#DejaVuSans-30"/>
       <use x="127.246094" xlink:href="#DejaVuSans-32"/>
       <use x="190.869141" xlink:href="#DejaVuSans-31"/>
       <use x="254.492188" xlink:href="#DejaVuSans-2f"/>
       <use x="288.183594" xlink:href="#DejaVuSans-30"/>
       <use x="351.806641" xlink:href="#DejaVuSans-33"/>
       <use x="415.429688" xlink:href="#DejaVuSans-2f"/>
       <use x="449.121094" xlink:href="#DejaVuSans-32"/>
       <use x="512.744141" xlink:href="#DejaVuSans-32"/>
      </g>
     </g>
    </g>
   </g>
   <g id="matplotlib.axis_8">
    <g id="ytick_16">
     <g id="line2d_153">
      <path clip-path="url(#p76b0b19d99)" d="M 508.724006 427.973262 
L 914.542187 427.973262 
" style="fill:none;stroke:#b0b0b0;stroke-linecap:square;stroke-width:0.3;"/>
     </g>
     <g id="line2d_154">
      <g>
       <use style="stroke:#000000;stroke-width:0.8;" x="508.724006" xlink:href="#m853319c41f" y="427.973262"/>
      </g>
     </g>
     <g id="text_48">
      <!-- −2 -->
      <g transform="translate(486.981818 431.772481)scale(0.1 -0.1)">
       <use xlink:href="#DejaVuSans-2212"/>
       <use x="83.789062" xlink:href="#DejaVuSans-32"/>
      </g>
     </g>
    </g>
    <g id="ytick_17">
     <g id="line2d_155">
      <path clip-path="url(#p76b0b19d99)" d="M 508.724006 393.184023 
L 914.542187 393.184023 
" style="fill:none;stroke:#b0b0b0;stroke-linecap:square;stroke-width:0.3;"/>
     </g>
     <g id="line2d_156">
      <g>
       <use style="stroke:#000000;stroke-width:0.8;" x="508.724006" xlink:href="#m853319c41f" y="393.184023"/>
      </g>
     </g>
     <g id="text_49">
      <!-- −1 -->
      <g transform="translate(486.981818 396.983241)scale(0.1 -0.1)">
       <use xlink:href="#DejaVuSans-2212"/>
       <use x="83.789062" xlink:href="#DejaVuSans-31"/>
      </g>
     </g>
    </g>
    <g id="ytick_18">
     <g id="line2d_157">
      <path clip-path="url(#p76b0b19d99)" d="M 508.724006 358.394783 
L 914.542187 358.394783 
" style="fill:none;stroke:#b0b0b0;stroke-linecap:square;stroke-width:0.3;"/>
     </g>
     <g id="line2d_158">
      <g>
       <use style="stroke:#000000;stroke-width:0.8;" x="508.724006" xlink:href="#m853319c41f" y="358.394783"/>
      </g>
     </g>
     <g id="text_50">
      <!-- 0 -->
      <g transform="translate(495.361506 362.194002)scale(0.1 -0.1)">
       <use xlink:href="#DejaVuSans-30"/>
      </g>
     </g>
    </g>
    <g id="ytick_19">
     <g id="line2d_159">
      <path clip-path="url(#p76b0b19d99)" d="M 508.724006 323.605544 
L 914.542187 323.605544 
" style="fill:none;stroke:#b0b0b0;stroke-linecap:square;stroke-width:0.3;"/>
     </g>
     <g id="line2d_160">
      <g>
       <use style="stroke:#000000;stroke-width:0.8;" x="508.724006" xlink:href="#m853319c41f" y="323.605544"/>
      </g>
     </g>
     <g id="text_51">
      <!-- 1 -->
      <g transform="translate(495.361506 327.404763)scale(0.1 -0.1)">
       <use xlink:href="#DejaVuSans-31"/>
      </g>
     </g>
    </g>
    <g id="ytick_20">
     <g id="line2d_161">
      <path clip-path="url(#p76b0b19d99)" d="M 508.724006 288.816305 
L 914.542187 288.816305 
" style="fill:none;stroke:#b0b0b0;stroke-linecap:square;stroke-width:0.3;"/>
     </g>
     <g id="line2d_162">
      <g>
       <use style="stroke:#000000;stroke-width:0.8;" x="508.724006" xlink:href="#m853319c41f" y="288.816305"/>
      </g>
     </g>
     <g id="text_52">
      <!-- 2 -->
      <g transform="translate(495.361506 292.615523)scale(0.1 -0.1)">
       <use xlink:href="#DejaVuSans-32"/>
      </g>
     </g>
    </g>
   </g>
   <g id="line2d_163">
    <path clip-path="url(#p76b0b19d99)" d="M 527.170287 321.641868 
L 533.218248 341.53325 
L 539.266209 351.210976 
L 545.31417 267.823976 
L 551.362131 296.33381 
L 557.410092 334.726306 
L 563.458053 418.020716 
L 569.506014 447.526456 
L 575.553975 423.871019 
L 581.601936 409.538388 
L 587.649896 402.534398 
L 593.697857 396.823972 
L 599.745818 407.481625 
L 605.793779 398.591029 
L 611.84174 395.165142 
L 617.889701 393.739465 
L 623.937662 391.627318 
L 629.985623 393.215326 
L 636.033584 388.169217 
L 642.081545 391.859094 
L 648.129506 382.218773 
L 654.177467 381.994692 
L 660.225428 381.32586 
L 666.273389 371.183379 
L 672.32135 374.492245 
L 678.369311 388.044952 
L 684.417272 331.280549 
L 690.465233 353.746688 
L 696.513194 346.357925 
L 702.561155 326.801966 
L 708.609116 330.048099 
L 714.657077 361.431445 
L 720.705038 368.409316 
L 726.752999 361.025097 
L 732.80096 380.537018 
L 738.848921 346.780805 
L 744.896882 306.897481 
L 750.944843 305.091256 
L 756.992804 275.995766 
L 763.040765 302.49785 
L 769.088726 326.736043 
L 775.136687 329.031422 
L 781.184648 346.179583 
L 787.232609 348.954913 
L 793.28057 356.722947 
L 799.328531 376.973554 
L 805.376492 363.700489 
L 811.424453 365.052223 
L 817.472414 345.824174 
L 823.520375 352.165092 
L 829.568336 342.657029 
L 835.616297 361.948266 
L 841.664258 368.172365 
L 847.712219 351.421864 
L 853.76018 342.997962 
L 859.808141 317.32393 
L 865.856102 340.409093 
L 871.904063 354.354047 
L 877.952024 337.844227 
L 883.999985 343.898161 
L 890.047946 349.391273 
L 896.095907 351.123394 
" style="fill:none;stroke:#ff0000;stroke-linecap:square;stroke-width:1.5;"/>
   </g>
   <g id="line2d_164">
    <path clip-path="url(#p76b0b19d99)" d="M 527.170287 342.609159 
L 533.218248 352.297324 
L 539.266209 368.946225 
L 545.31417 313.194169 
L 551.362131 332.770115 
L 557.410092 364.0582 
L 563.458053 409.615506 
L 569.506014 435.135098 
L 575.553975 426.596863 
L 581.601936 428.000029 
L 587.649896 416.681651 
L 593.697857 419.843919 
L 599.745818 415.618683 
L 605.793779 407.304497 
L 611.84174 406.068166 
L 617.889701 412.146868 
L 623.937662 409.512246 
L 629.985623 389.931968 
L 636.033584 381.891424 
L 642.081545 385.409423 
L 648.129506 384.248651 
L 654.177467 378.28705 
L 660.225428 375.345283 
L 666.273389 369.225113 
L 672.32135 373.858539 
L 678.369311 375.76176 
L 684.417272 340.298198 
L 690.465233 353.229948 
L 696.513194 333.466986 
L 702.561155 317.541986 
L 708.609116 328.977698 
L 714.657077 348.435668 
L 720.705038 356.576495 
L 726.752999 351.764326 
L 732.80096 367.020599 
L 738.848921 347.18623 
L 744.896882 307.82742 
L 750.944843 303.959164 
L 756.992804 279.650938 
L 763.040765 299.245499 
L 769.088726 310.261978 
L 775.136687 321.465375 
L 781.184648 342.553663 
L 787.232609 337.160075 
L 793.28057 346.957561 
L 799.328531 356.686227 
L 805.376492 341.851039 
L 811.424453 350.959456 
L 817.472414 343.360621 
L 823.520375 349.885891 
L 829.568336 346.145066 
L 835.616297 353.65466 
L 841.664258 362.265275 
L 847.712219 354.300344 
L 853.76018 341.46411 
L 859.808141 323.565818 
L 865.856102 332.693657 
L 871.904063 345.440905 
L 877.952024 321.615017 
L 883.999985 334.492198 
L 890.047946 341.312483 
L 896.095907 352.846058 
" style="fill:none;stroke:#0000ff;stroke-dasharray:5.55,2.4;stroke-dashoffset:0;stroke-width:1.5;"/>
   </g>
   <g id="patch_21">
    <path d="M 508.724006 456.51158 
L 508.724006 258.838852 
" style="fill:none;stroke:#000000;stroke-linecap:square;stroke-linejoin:miter;stroke-width:0.8;"/>
   </g>
   <g id="patch_22">
    <path d="M 914.542187 456.51158 
L 914.542187 258.838852 
" style="fill:none;stroke:#000000;stroke-linecap:square;stroke-linejoin:miter;stroke-width:0.8;"/>
   </g>
   <g id="patch_23">
    <path d="M 508.724006 456.51158 
L 914.542187 456.51158 
" style="fill:none;stroke:#000000;stroke-linecap:square;stroke-linejoin:miter;stroke-width:0.8;"/>
   </g>
   <g id="patch_24">
    <path d="M 508.724006 258.838852 
L 914.542187 258.838852 
" style="fill:none;stroke:#000000;stroke-linecap:square;stroke-linejoin:miter;stroke-width:0.8;"/>
   </g>
   <g id="legend_4">
    <g id="patch_25">
     <path d="M 510.724006 254.885398 
L 912.542187 254.885398 
Q 914.542187 254.885398 914.542187 252.885398 
L 914.542187 238.929148 
Q 914.542187 236.929148 912.542187 236.929148 
L 510.724006 236.929148 
Q 508.724006 236.929148 508.724006 238.929148 
L 508.724006 252.885398 
Q 508.724006 254.885398 510.724006 254.885398 
z
" style="fill:#ffffff;opacity:0.8;stroke:#cccccc;stroke-linejoin:miter;"/>
    </g>
    <g id="line2d_165">
     <path d="M 512.724006 245.027585 
L 532.724006 245.027585 
" style="fill:none;stroke:#ff0000;stroke-linecap:square;stroke-width:1.5;"/>
    </g>
    <g id="line2d_166"/>
    <g id="text_53">
     <!-- negative (Emolex) -->
     <g transform="translate(540.724006 248.527585)scale(0.1 -0.1)">
      <use xlink:href="#DejaVuSans-6e"/>
      <use x="63.378906" xlink:href="#DejaVuSans-65"/>
      <use x="124.902344" xlink:href="#DejaVuSans-67"/>
      <use x="188.378906" xlink:href="#DejaVuSans-61"/>
      <use x="249.658203" xlink:href="#DejaVuSans-74"/>
      <use x="288.867188" xlink:href="#DejaVuSans-69"/>
      <use x="316.650391" xlink:href="#DejaVuSans-76"/>
      <use x="375.830078" xlink:href="#DejaVuSans-65"/>
      <use x="437.353516" xlink:href="#DejaVuSans-20"/>
      <use x="469.140625" xlink:href="#DejaVuSans-28"/>
      <use x="508.154297" xlink:href="#DejaVuSans-45"/>
      <use x="571.337891" xlink:href="#DejaVuSans-6d"/>
      <use x="668.75" xlink:href="#DejaVuSans-6f"/>
      <use x="729.931641" xlink:href="#DejaVuSans-6c"/>
      <use x="757.714844" xlink:href="#DejaVuSans-65"/>
      <use x="817.488281" xlink:href="#DejaVuSans-78"/>
      <use x="876.667969" xlink:href="#DejaVuSans-29"/>
     </g>
    </g>
    <g id="line2d_167">
     <path d="M 799.007812 245.027585 
L 819.007812 245.027585 
" style="fill:none;stroke:#0000ff;stroke-dasharray:5.55,2.4;stroke-dashoffset:0;stroke-width:1.5;"/>
    </g>
    <g id="line2d_168"/>
    <g id="text_54">
     <!-- Emo_Neg (LIWC) -->
     <g transform="translate(827.007812 248.527585)scale(0.1 -0.1)">
      <defs>
       <path d="M 628 4666 
L 1478 4666 
L 3547 763 
L 3547 4666 
L 4159 4666 
L 4159 0 
L 3309 0 
L 1241 3903 
L 1241 0 
L 628 0 
L 628 4666 
z
" id="DejaVuSans-4e" transform="scale(0.015625)"/>
      </defs>
      <use xlink:href="#DejaVuSans-45"/>
      <use x="63.183594" xlink:href="#DejaVuSans-6d"/>
      <use x="160.595703" xlink:href="#DejaVuSans-6f"/>
      <use x="221.777344" xlink:href="#DejaVuSans-5f"/>
      <use x="271.777344" xlink:href="#DejaVuSans-4e"/>
      <use x="346.582031" xlink:href="#DejaVuSans-65"/>
      <use x="408.105469" xlink:href="#DejaVuSans-67"/>
      <use x="471.582031" xlink:href="#DejaVuSans-20"/>
      <use x="503.369141" xlink:href="#DejaVuSans-28"/>
      <use x="542.382812" xlink:href="#DejaVuSans-4c"/>
      <use x="598.095703" xlink:href="#DejaVuSans-49"/>
      <use x="627.587891" xlink:href="#DejaVuSans-57"/>
      <use x="726.464844" xlink:href="#DejaVuSans-43"/>
      <use x="796.289062" xlink:href="#DejaVuSans-29"/>
     </g>
    </g>
   </g>
  </g>
 </g>
 <defs>
  <clipPath id="p3e543f2ffa">
   <rect height="197.672727" width="405.818182" x="21.742188" y="21.63158"/>
  </clipPath>
  <clipPath id="p8ecb52a5f7">
   <rect height="197.672727" width="405.818182" x="508.724006" y="21.63158"/>
  </clipPath>
  <clipPath id="pdbc1ee5f09">
   <rect height="197.672727" width="405.818182" x="21.742188" y="258.838852"/>
  </clipPath>
  <clipPath id="p76b0b19d99">
   <rect height="197.672727" width="405.818182" x="508.724006" y="258.838852"/>
  </clipPath>
 </defs>
</svg>
